<?xml version="1.0" encoding="utf-8" ?>
<svg baseProfile="full" height="300mm" version="1.1" viewBox="0,0,200,300" width="200mm" xmlns="http://www.w3.org/2000/svg" xmlns:ev="http://www.w3.org/2001/xml-events" xmlns:xlink="http://www.w3.org/1999/xlink"><defs /><rect fill="#222222" height="300" width="200" x="0" y="0" /><text fill="#FFFFFF" style="font-size:12px; font-family:Arial; font-weight:bold;" x="10" y="20">Over 10km Runs</text><text fill="#FFFFFF" style="font-size:4px; font-family:Arial" x="10" y="280">ATHLETE</text><text fill="#FFFFFF" style="font-size:9px; font-family:Arial" x="10" y="290">DingXiaoshan</text><text fill="#FFFFFF" style="font-size:4px; font-family:Arial" x="120" y="280">STATISTICS</text><text fill="#FFFFFF" style="font-size:3px; font-family:Arial" x="120" y="285">Number: 14</text><text fill="#FFFFFF" style="font-size:3px; font-family:Arial" x="120" y="290">Weekly: 1.2</text><text fill="#FFFFFF" style="font-size:3px; font-family:Arial" x="141" y="285">Total: 322.0 km</text><text fill="#FFFFFF" style="font-size:3px; font-family:Arial" x="141" y="290">Avg: 23.0 km</text><text fill="#FFFFFF" style="font-size:3px; font-family:Arial" x="167" y="285">Min: 11.2 km</text><text fill="#FFFFFF" style="font-size:3px; font-family:Arial" x="167" y="290">Max: 36.1 km</text><polyline fill="none" points="34.21927015372785,65.62378167808856 34.15282465261407,65.91630770182019 34.56921645969851,65.95809698790981 35.11406956898281,66.43867115697503 35.16722596989712,68.09452565284664 35.069772568240296,68.37658979717162 35.140647769439965,68.51762124642846 33.36876773927361,69.78166236166362 32.78847702938947,70.12117185405441 31.805083612620365,70.55991901833477 30.055352082796162,71.12401661031618 27.60572794105974,72.30442155868514 26.542599922948284,72.74314872688046 24.589102189667756,74.14287045341553 23.760748275584774,74.62858522625174 22.38311155210249,75.59999999999854 22.126188947702758,75.57910956691921 21.922422744246433,75.27097462106394 21.789531741960673,73.7250473540953 22.112899847474182,71.21280914466479 23.260192167042987,68.51762124642846 24.181569782726,65.91108403848921 25.257986901066033,63.61784080380676 25.218119600380305,62.949175171415845 26.383130720234476,60.603547673930734 27.800634744402487,58.71755892186775 28.460660055628978,57.71445430262975 31.02988609939348,51.92006879052133 32.3322179215902,49.276049332234834 32.94794623207417,47.66657464576929 33.723143745271955,45.989109962782095 34.42746605729917,44.9700606408187 38.12183592020301,40.98249486843997 39.052072936086915,40.35532451700419 39.65008244625642,39.38842077722438 42.55153599570622,36.173978622162394 45.1872075406136,32.41568196801745 45.342247043241514,32.39999999999782 46.03770995509694,32.7554566787112 46.21046825803933,32.92272949530161 46.05542875538231,33.83226519183518 45.75863885032595,34.73132944842291 45.4042628442985,36.18443244282389 44.42972882767208,39.21594400139293 43.45076511101797,41.46331990136605 43.340022609132575,41.87619840892876 41.337798175023636,46.365368840448355 40.0443257529696,49.00432363850996 38.41419612520258,51.277366038593755 37.65671741229016,53.388324806364835 36.07974418543745,55.67683332629167 35.82282158106682,56.173184888826654 35.37099217335344,58.08539648097576 35.486164375324734,60.64534159702089 35.31340607238235,63.55515379742792 35.419718874181854,63.59172122778182 35.40642977398238,63.82157300770268 35.5038831756392,63.79022964814794 35.41085947403917,63.842468569349876 35.31340607238235,63.560377717760275 35.308976372296456,63.97306562303129 35.534891076153144,65.80138697704024 35.25581997138215,65.63422906685446 35.21595267072553,65.92675502676138 35.33555457275361,66.23495008721875 35.24696057123947,66.32375168571889 34.959030066325795,66.30808082735166 34.4673333579849,66.01555719674798" stroke="#ff8600" stroke-linecap="round" stroke-linejoin="round" stroke-width="0.5"><title>2023-07-30 23.0km</title></polyline><polyline fill="none" points="96.59258196983137,70.93767727971499 95.81766558869276,71.21962234333841 92.61615391122177,72.70241720679041 88.3341873937461,75.59999999999854 88.09064224539907,75.54257213391611 87.90023422031663,75.1353543809928 87.785103786533,73.55865811813055 87.95337134361034,72.09155305327295 88.21462886637892,70.91679239415316 89.26851514470764,68.46797640883597 90.15856195962988,65.93026522138825 91.15488302108133,63.789293138488574 91.12388636582182,63.26186824177421 91.23901679960545,62.9015449213548 92.47888300940394,60.452318873005424 93.84273584021139,58.64012425088731 94.44052847707644,57.72094455052502 96.84055521179107,52.29951415436517 98.30182610193151,49.30649601023106 99.24501004011836,46.97672223677364 99.31143144422094,46.89314079974429 99.45313043962233,46.96105072845967 99.45313043962233,47.12298940010078 99.28043478896143,46.85135002643801 99.3158595378045,46.914036172700435 99.28486288257409,46.85135002643801 99.32028763141716,46.8983646438428 99.55940468615154,46.28717101247457 100.19705016550142,45.237153459340334 104.09377253917046,40.98983227027202 104.81555179704446,40.56142222314884 105.07680931984214,40.31586839209194 105.62589292702614,39.40156112118348 108.10119725303957,36.71600893210052 108.61042801779695,36.07855999016101 111.18757849675603,32.41045085559017 111.34256177296629,32.39999999999782 112.11305006049224,32.812807058217004 112.2148962134379,33.068850150564685 111.11672899904079,37.09742923365775 110.49679589414154,38.99926038197009 109.49604673907743,41.334647324601974 109.29678252679878,41.96157741560819 106.97646147699561,47.14910848933141 105.99785278996569,49.060987083274085 104.36831434277701,51.322755695287924 103.60668224247638,53.45383934810161 102.08341804184602,55.6370569967512 101.79559195743059,56.20634857193363 101.36163878400112,58.11264260446478 101.47234112417209,60.69776935192567 101.34392640955048,61.99289145938019 101.29964547351119,64.00861663223986 101.51219396659872,65.81016444453053 101.24650835021748,65.6378454123369 101.20665550776175,65.93026522138825 101.32178594151628,66.23312671200256 101.24208025663393,66.31145264773295 101.14909029088449,66.25923537147901 100.9542541721894,66.31667437222131 99.88265551941004,65.6430672103088" stroke="#ff9a00" stroke-linecap="round" stroke-linejoin="round" stroke-width="0.5"><title>2023-07-29 21.0km</title></polyline><polyline fill="none" points="166.29546492669033,72.11271929259237 166.36933115834836,71.97571679790417 165.58845956641017,71.62698243098566 165.30354695860296,71.07896912412252 165.36686087149428,68.86197927185276 165.01863435073756,67.75346815098601 164.73372174287215,67.3050785632513 164.1955534836161,67.34244442969066 163.868431600451,66.98124054010259 163.61517594906036,67.03106183440104 163.6362805867102,67.39226556588983 163.25639710953692,67.80328910725802 162.64436261862284,67.89047572821437 162.0112234900007,68.36377336232545 158.95105103525566,69.49718864353054 157.9063714731019,70.15730443027132 157.24157538812142,71.19106296972313 156.02805872505996,70.71777709286835 156.53457002789946,70.28185414939071 157.81140060391044,69.7338343658339 158.61337683338206,68.55060083395074 159.94296900340123,67.41717612579669 159.39424842526205,67.4296314036983 159.67916103312746,67.11824904695823 159.04602190456353,66.86914254815201 157.7902959662024,66.79441049216257 157.42096480797045,67.18052558645286 157.08329060603864,68.11466958972596 155.50044278457062,69.13599159247678 155.41602423408767,69.54700883650366 155.60596597270342,69.75874441321503 156.58733162190765,70.29430911377858 156.07026800030144,70.59322785079712 157.81140060391044,69.74628939020477 158.48674900765764,68.6626971697624 159.91131204698468,67.46699722925405 159.3625914688455,67.4794525017569 159.6475040767109,67.05597247338301 158.98270799173042,66.89405322255334 157.9063714731019,66.80686583825445 157.5053833583952,67.00615118996211 156.68230249121552,65.5115025458872 156.5029130714829,64.07911250810139 155.97529713099357,63.41896146480576 155.95419249340193,63.057745122023334 155.50044278457062,62.273029805655824 154.87785597483162,61.961633339102264 154.4768678600667,62.14847132127761 153.843728731561,61.961633339102264 153.76986249984475,61.426029423309956 153.14727569004754,61.45094128923665 152.7251829377492,60.765862988737354 152.00762525870232,60.49183051363798 150.94184105889872,60.765862988737354 151.34282917366363,59.38323785677494 151.22675366676413,58.42410965259478 151.92320670816116,57.75146946559107 153.31611279101344,58.150071537871554 154.50852481648326,58.7355158000064 155.21553017676342,58.66077840234357 156.57677930319915,57.90094540632708 156.81948263576487,57.53971154671308 157.07273828715552,56.1196776729048 156.97776741790585,55.65878567627806 156.00695408741012,52.75636885305721 155.479338146979,51.97158248878986 155.0994546698057,50.775707142965985 155.14166394504718,50.48919347469928 156.14413423195947,49.7293059033982 156.00695408741012,49.168729851502576 156.11247727554291,48.50849229226151 157.18881379405502,44.79614183923695 157.1677091564634,44.297830542433076 156.80893031693995,43.74968559453555 157.01997669314733,42.69076173754729 156.57677930319915,41.968196270834596 156.74561640410684,41.73149279221252 157.43151712667895,41.3079169168559 157.60035422764486,40.97154671567114 158.00134234240977,41.02137940085959 158.40233045717468,42.4291437365755 159.7530272647855,43.21399593424576 159.97462595981779,43.21399593424576 160.53389885666547,42.5661818121298 161.3253227674286,42.092776851175586 161.76852015737677,42.4416017502881 161.88459566427628,42.92746321991581 162.41221160476562,42.84025746792031 163.9739547885838,43.74968559453555 164.45936145383166,43.81197492620413 164.56488464190625,43.562817394937156 164.57543696073117,43.861806366970995 165.81005826138426,43.176622142891574 166.86529014236294,42.977295048163796 166.9074994176044,41.9931123977949 167.4667723145103,40.809590338096314 169.40839897544356,39.376889262312034 170.41086926235585,38.3054662284776 171.86708925804123,37.956628644053126 173.4288324418594,36.83535773314361 175.19106968306005,36.13767247601936 176.20409228873905,35.302936276792025 176.65784199757036,35.464900496015616 177.81859706656542,35.464900496015616 179.14818923658459,34.991465976163454 180.14010720467195,35.103595382664935 180.6149615510949,34.54294724461215 180.57275227585342,33.75803520788031 181.27975763607537,33.42164267660701 181.60687951918226,32.94819965053466 182.38775111112045,32.39999999999418 182.21891401009634,32.674100155592896 181.80737357656471,32.82360905293899 182.3560941547039,32.51213196168101 182.57769284961978,32.5744274482131 183.30580284749158,33.32197062436899 183.41132603562437,33.79541209437593 183.91783733846387,34.281310500948166 184.055017482955,34.7547479771747 184.43490096007008,34.817042235212284 184.5509764670278,35.066218926091096 184.68815661151893,37.85696056627057 184.51931951055303,38.60446902067633 184.14998835226288,38.841179007031315 183.23193661583355,38.96576301249297 182.76763458823552,39.72572249071527 182.4194080674788,39.98734670985141 181.22699604200898,40.37355279069743 180.69938010157784,40.248970327258576 179.91850850969786,41.34529132228636 179.12708459899295,41.71903470075631 178.9899044544436,42.92746321991581 178.45173619518755,43.87426422374119 175.3388021463761,44.85843059787294 173.17557679046877,45.817673173376534 172.6374085311545,47.66138943439728 171.95150780852418,48.49603494301118 171.6138336066506,49.442789599794196 171.27615940471878,49.828963578969706 170.47418317518895,49.928621167237 170.12595665454865,50.57639336318243 169.2712188308942,50.41445065998414 168.40592868858948,51.03730594903027 167.48787695216015,50.97502057356178 166.47485434642294,51.26153301827435 165.34575623378623,51.13696247879852 164.91311116260476,51.273990064742975 164.3749429033487,51.722442828366184 164.39604754099855,52.768825735824066 163.11921696498757,53.79028548172937 162.47552551765693,55.571589683117054 161.8951479831594,56.26915575739258 160.78715450817253,57.01654323404364 157.48427872074535,57.327953233761946 155.321053364838,58.67323463867797 154.7512281491072,58.77288448041509 154.0758797453018,58.7355158000064 153.189484965289,58.199896698737575 152.12370076560182,57.83866378822131 151.51166627462953,58.025508540267765 151.2689629420056,58.33691577859281 151.4378000429133,59.1216582392226 151.17399207275594,60.36727007955051 149.92881845321972,62.77126237974153 149.4750687443884,63.07020087708224 148.92634816630743,63.07020087708224 148.5148077327176,63.30685996393004 148.25099976250203,64.09156815137248 147.47012817062205,64.88872648387769 147.31184338842286,65.6609682936396 147.31184338842286,67.15561497477029 148.27210440015187,67.52927357794397 149.21126077417284,68.58796629148856 152.5563458367251,71.29070185093587 155.04669307579752,75.59999999999854 157.6742204593029,75.25127673702082 163.72069913713494,73.80655469467456 164.07947797665838,73.6570996437149 164.2061058023828,73.24609724169568 165.75729666737607,72.74791052228102 165.91558144951705,72.47390689715394" stroke="#4dd2ff" stroke-linecap="round" stroke-linejoin="round" stroke-width="0.5"><title>2023-06-17 17.5km</title></polyline><polyline fill="none" points="13.445484442185261,102.53874746009024 14.458183657974587,102.0304544009523 14.363470781681826,102.37911889889438 14.505540096113691,102.81179490535578 14.399898811025196,102.91681267989406 14.509182899055304,103.12264675466213 14.002833291175193,103.48810476412473 13.696837844661786,103.17725562524356 13.583910953690065,102.94621760960581 13.470984062732896,102.9798232182984 13.38355679230881,102.91681267989406 13.285201113074436,103.00922810380507 13.285201113074436,103.17725562524356 13.150417404496693,103.34948313564018 12.39999999999418,104.05518847036001 12.465570452812244,104.17280487101743 12.633139387806295,104.27781923557268 13.547482924332144,104.49204772347002 15.587452567662694,105.60517812488615 16.26501391347847,106.23523883688176 16.297799139880226,106.38645199872917 16.217657475324813,106.57966802293959 16.778649127227254,106.93249498683872 17.503566911196685,106.97029769970322 17.88241841638228,106.92409437934475 18.217556286341278,107.01650096916637 18.67654945611139,106.51246255031583 19.29582595496322,106.20163583795511 19.7766759423248,106.43685626480874 20.24295471791993,106.8988925467711 20.70559069060255,106.60066971105698 21.17186946621223,107.08790592178775 21.99514292940148,107.57093623102992 22.169997470264207,107.62133907308817 22.39949405513471,107.47433061436823 22.767417151510017,107.58353694722246 23.251909941798658,107.56673599144415 24.392107260311604,107.42812784946727 24.399392866165726,107.32312137621193 24.814672400680138,107.25591709532091 25.022312167973723,107.37772477512772 25.532304578795447,107.42812784946727 25.812800404732116,107.51633308374949 26.064153807223192,107.68014231225243 26.344649633174413,107.96995707178576 26.534075385774486,108.69238514316385 26.71257272954972,108.98219290617635 26.74900075889309,110.04060424260024 26.71257272954972,109.452601242745 26.727143941287068,109.22999795552823 26.789071591192624,109.183797125188 27.02585378191725,109.28879893869816 27.222565140385996,109.57020250233472 27.630559069046285,109.61640290692594 28.038552997706574,109.38120031708968 28.08955223878729,109.22579788213989 28.333620035395143,109.25519838697437 28.504831773316255,109.20479750892264 28.668757905368693,109.01159358182849 29.33174803943257,109.09559539863403 29.45924614215619,109.16279673093595 29.604958259529667,109.39800054582156 29.83445484440017,109.494601730461 29.969238552977913,109.68360340458094 30.431874525660533,110.0112042884175 30.763369592707022,110.35140249744654 31.251505185922724,109.88100424361255 31.2442195800395,109.74660377332111 31.43000252969796,109.72140363717699 31.96913736400893,109.35179990059623 32.686769542095135,109.05359451127151 33.539185428773635,108.77638759947149 34.43895775360579,108.63358332362259 34.75588160888583,108.51597943713932 34.82873766757257,108.56638114315501 35.156589931692,108.53698015534246 35.338730078408844,108.58318169837366 35.601011889695656,108.53278001253784 35.863293700967915,108.26396999823555 36.06364786236372,108.21776810347728 36.325929673650535,108.02455962830572 36.584568681995734,107.68854276825004 37.018062231189106,107.58353694722246 37.24391601313255,107.28951924923604 37.39691373638925,107.75994657633419 36.91606374902767,108.24296914328806 36.56271186438971,108.48237826613695 36.51535542625061,108.54118029772872 36.52628383504634,108.70918564788735 36.905135340231936,108.86458999746174 37.43334176571807,109.3728002001917 37.96883379711653,109.56180242328992 38.096331899796496,109.7844039491174 38.53346825193148,110.0448042343669 39.54616746773536,111.21658550832944 39.98330381987034,111.37618042446411 40.1836579812516,111.2837834417769 40.96321780922881,111.14518758605118 41.385782949641,111.2837834417769 42.60976473563642,110.88059422594961 43.3346825195913,111.02759074321875 43.61517834554252,111.15358734792244 44.52952188209747,111.0779894305233 44.948444219568046,111.245984617457 45.50943587147049,111.3047827738992 46.01942828229221,111.19138625551932 46.99934227167978,110.73779711579482 47.65140399693337,110.67059830748258 47.96468504931545,110.68319809223613 48.39453579558176,110.87219440939953 48.88267138879746,111.30898263906784 49.115810776595026,110.99819148097595 49.63673159624159,110.85959468142391 50.263293700962095,110.91839337959755 50.562003541592276,111.00239137686003 51.10478117884486,110.6285989975986 51.10113837590325,110.34720253637715 51.25777890208701,109.98600431130399 51.396205413591815,109.83060411773113 51.56741715151293,109.75500381532402 51.487275486957515,109.73820372962291 51.49456109281164,109.68360340458094 51.66941563367436,109.57020250233472 51.70584366303228,109.44000108823093 51.84791297746415,109.38540037491111 51.86976979507017,109.20899758440282 52.0009107007063,109.1417963261556 51.935340247902786,109.0787950487429 51.94626865669852,108.919191388959 51.826056159858126,108.85618977708145 51.88798380973458,108.56638114315501 52.16847963570035,108.27237033726851 52.438047052841284,107.68854276825004 52.75861371109204,107.51633308374949 52.754970908150426,107.31052058175919 52.88975461672817,107.12990877829725 52.83875537564745,106.86529007978606 53.03910953702871,106.76448251722104 53.27589172778244,106.79808506500558 53.530887933200574,106.73928058870297 53.811383759151795,106.9282946833082 54.08095117630728,107.02070126385661 54.3760182140104,107.28951924923604 54.47437389321567,107.1887127067057 54.612800404735026,107.22231491447383 54.60915760179341,107.0669044777569 54.72572729570675,107.15511047200198 54.8495825954742,106.96189709979444 54.83865418667847,106.83168758585089 55.12279281555675,106.82328695817705 55.239362509470084,106.95769679921432 55.315861371083884,106.96189709979444 55.59999999999127,106.66787504229796 55.55992916767718,106.42845555801614 55.1082216038194,106.16803281209286 55.01350872752664,105.95381288907083 55.00986592459958,105.58837637627948 55.25029091825127,105.44976169326037 54.88236782189051,104.9121004040644 54.722084492765134,104.47524552870163 54.75122691625438,104.26101695491889 54.93700986591284,104.16440371048884 54.929724260029616,104.09299377799107 54.72937009863381,104.02578431863003 54.4379458638723,103.79055036221325 54.521730331354775,103.58471956740686 54.80951176318922,103.21086104869028 54.72937009863381,103.04283366197706 54.816797369057895,102.88740772954043 54.72937009863381,102.80759418890739 54.481659499098896,102.82859776696569 54.350518593448214,102.67317104005633 54.35780419931689,102.31190669124408 54.1028079939133,101.86242228181072 54.164735643789754,101.63557785227385 54.15745003793563,101.54736024252634 54.07366557043861,101.48014670092743 54.16837844673137,101.29530890571914 54.15016443205241,101.18608618898725 53.97530989118968,101.0096488913805 53.93159625597764,100.87521997556178 53.680242853515665,100.77859892595734 53.811383759151795,100.69458044087514 53.04275233997032,100.53914579939374 52.805970149245695,100.37530866127418 52.68940045533236,100.4215192009724 52.63475841132458,100.19886794999184 52.44897546165157,100.1694610925515 52.42711864404555,100.0770394062638 52.24133569438709,100.00982350637787 52.58011636730225,99.74936087593596 52.565545155564905,99.45948927082281 52.23769289146003,99.3376585773949 52.416190235249815,99.26624042002732 52.139337212225655,99.36706601858532 51.9863394889835,99.35446283203419 52.091980774072,99.04358303039044 51.785985327573144,98.84193003386099 51.73862888943404,98.73690204714148 51.80419934223755,98.49743725299413 51.785985327573144,98.31258630047523 51.45084745759959,98.46382804956374 51.2395648873935,98.2663734349153 51.03192512014357,98.2621722627955 50.90806982036156,98.40921303648065 50.736858082455,98.42601766346343 50.67857323550561,98.37560376227702 50.68221603843267,98.45122459131744 50.507361497569946,98.32518980041641 50.47093346824113,98.19915463038342 50.27422210978693,98.13193571801457 49.78972931948374,97.80844319390599 49.520161902328255,97.56477185113908 49.389020996692125,97.33370288937294 49.17409562357352,97.28328767380299 49.163167214763234,97.16145065239107 48.75153048314678,97.1782557798615 48.61674677456904,97.35050794773633 48.44917783960409,97.40512434090124 47.98654186692147,97.23707367290626 47.77890209965699,97.02700938998169 46.227068049571244,97.85885777754083 45.338224133549375,98.66548286578472 45.12329876043077,98.52264413786907 44.799089299252955,98.47643150400472 44.04502909180883,98.49323610403371 43.76817606878467,98.35459795220595 43.298254490233376,98.30838513297931 42.68990640019183,98.66968399747566 42.402124968357384,98.75370654269864 42.15805717174953,99.23683290807458 41.92491778393742,99.19062106187266 41.535137869941536,99.21582752975883 41.33114090563322,98.95115886077474 41.0215026562073,98.79571775213844 40.99600303564512,98.64447720104727 40.751935239037266,98.37140260110391 40.62443713634275,98.31678746754551 40.1836579812516,97.66560154416948 39.96144700226432,97.4471369025814 39.88494814063597,96.98919770720022 39.72102200858353,96.72871629847214 39.1782443713455,96.27497062188195 38.50796863141295,95.9430609498595 37.92147735894832,95.40107621203424 37.7939792562247,95.44309078352671 37.400556539330864,95.41368058790977 36.828636478603585,95.56073135951374 36.72299519350054,95.52291835325377 36.65378193774086,95.45149369276987 36.65742474068247,95.30444253771202 36.18386035920412,95.10277154275536 36.12193270929856,94.9893311814194 36.17293195040838,94.92630862570513 36.18021755627706,94.57758210351312 35.9944346066186,94.50195428187726 35.76129521879193,94.20364320943554 35.47351378698659,93.77928154420442 35.50265621044673,93.6490310618392 35.29137364025519,93.66163596494152 34.9598785732378,93.25827718446817 34.81052365290816,93.24147048431405 34.7158107766154,93.33810891809117 34.53731343281106,93.37172223410016 34.32603086261952,93.55659498993191 33.557399443438044,93.6826441283265 33.47725777888263,93.62382124428404 33.14576271185069,93.63222451849288 32.9964077915356,93.57760320600937 32.759625600796426,93.28768889350613 32.61027068049589,93.21626042144999 32.39534530733363,93.22886545476649 31.972780166950542,93.45155375148897 31.994636984556564,93.0944115703096 31.495572982530575,93.01037767332309 31.41178851503355,92.8843265117248 31.46643055905588,92.80449391314323 31.33893245634681,92.88852822321496 31.204148747769068,92.86331794789658 31.14586390083423,92.93894872832243 30.788869213240105,92.76667841860035 30.497444978478597,92.79609047285703 30.344447255236446,92.62381957553225 29.153250695671886,93.1490335129347 28.632329876039876,93.26247885846169 28.519402985068155,93.44315044104223 28.36276245888439,93.45575540608843 28.57404502906138,93.58600648949141 28.57040222614887,93.91793483840229 28.523045787980664,93.95574929353097 27.801770806967397,93.6700392315579 27.765342777624028,93.91373323017979 27.495775360468542,94.1994416298694 27.524917783943238,94.25826370553477 27.404705287102843,94.42212476646091 27.47391854286252,94.50615583109902 27.3609916518908,95.06495812310459 27.22985074625467,95.24982340578208 27.237136352123343,95.61535008606006 27.339134834284778,95.86743559344904 27.30634960788302,95.98087357687109 27.109638249414274,96.15313066801536 27.167923096378217,96.53965619713563 27.084138628881192,96.57746828565723 27.040424993654597,96.84215194973876 26.643359473790042,96.91357423924637 26.49036175054789,97.40512434090124 26.530432582832873,97.64459537813309 26.905641285076854,97.86305899011131 27.15699468756793,97.8840650466118 27.22620794332761,97.9638879652739 27.218922337458935,98.09412503242493 27.40106248416123,98.1151309730667 27.513989375162055,98.0647166978124 27.543131798607646,98.20755698685389 27.386491272438434,98.30838513297931 27.430204907650477,98.5184429914625 27.291778396145673,98.56045443677431 27.309992410810082,98.66128173367179 27.19706551983836,98.98476767331886 26.98578294964682,99.08559394917393 26.738072350097355,99.4972987243309 26.76721477357205,99.7157526766714 26.91656969388714,100.05603444912413 26.76357197064499,100.28288742896257 26.41386288893409,100.25348063049023 26.3555780419847,100.54754768664498 26.104224639493623,100.56015051436407 26.02408297493821,100.74079062852616 26.035011383748497,101.00544799428462 25.87472805463767,100.97184080239094 25.754515557797276,100.87101906499447 25.652517075635842,100.46352873832075 25.441234505415196,100.29128936760753 25.328307614458026,100.31229420681484 25.098811029587523,100.17366207345913 25.117025044251932,100.02662749145384 25.05874019730254,99.97201451530418 24.727245130270603,99.82918024119135 24.59610422460537,99.67794342025081 24.373893245618092,99.84598429870312 24.188110295959632,99.86278834947734 23.96225651403074,99.48469557695353 23.85297242598608,99.4468861120622 23.543334176560165,99.50570082048216 23.299266379952314,99.65693826308052 23.02969896279683,99.62753102531497 22.778345560334856,99.76196394371073 22.548848975464352,99.745159852504 22.122641032125102,100.0854413861598 22.0461421704822,100.56435145608702 21.95142929418944,100.71138415138194 21.681861877048505,100.87521997556178 21.6199342271575,100.97184080239094 21.39408044522861,100.87942088571072 21.055299772313447,100.90882724495532 20.621806223105523,101.22809495986803 20.19195547683921,101.44653988971186 19.96245889196871,101.42553561901514 19.813103971653618,101.34571929435333 19.689248671886162,101.3667236050569 19.56903617506032,101.2238940846837 19.42696686059935,101.21549233303449 19.131899822910782,101.05165783914708 18.975259296727017,101.06846140644848 18.836832785207662,100.95083629377405 18.541765747519094,101.11047029526162 18.304983556779916,101.06005962363633 18.1629142423335,101.34571929435333 17.97348848974798,101.37512532639448 17.886061219323892,101.50955263864671 17.765848722468945,101.44653988971186 17.488995699459338,101.54315939934168 17.45621047304303,102.12707256440262 17.346926385027473,102.08086390533208 17.295927143946756,101.87082390375872 17.219428282303852,102.13967491713265 17.022716923849657,102.08926548348973 16.928004047542345,102.12707256440262 16.91343283581955,101.98424563534354 16.479939286597073,102.0598599525365 16.399797622056212,102.01785201538587 16.308727548690513,101.6691845119094 15.995446496322984,101.59356948983259 15.91530483175302,101.95063922836198 15.820591955460259,102.00945042290186 15.689451049809577,102.03885598921988 14.727751075130072,101.92123360014375 13.48191247152863,102.50094075055677" stroke="#ff0000" stroke-linecap="round" stroke-linejoin="round" stroke-width="0.5"><title>2023-04-15 36.1km</title></polyline><polyline fill="none" points="81.34540921624284,112.34780069969929 81.20410328533035,111.58713956685824 81.22176652669441,110.70142295410915 81.03630249240086,110.21687690221006 81.06279735444696,110.09183196026424 82.87769540442969,108.92994035760421 84.06996419635834,108.25780179163485 84.38348673054134,108.33595792580672 86.87841957295313,111.56108931313065 88.17225200275425,112.29570100927594 91.56359434433398,114.73911521368427 94.99909478929476,117.08863423816729 96.85373513231752,118.7712563265959 97.17167347684153,118.92753400297443 98.42134780323249,119.83393442782108 103.9278632979549,123.5270776251491 104.13540638392442,123.59999999999854 104.55049255595077,123.03224427971509 104.86401509013376,122.40197542821261 106.27707439911319,117.9794415625438 106.92619851918425,116.74480941662114 107.46051157035981,116.15613389077407 110.71937960173818,113.32726428352544 114.9408942873124,108.3463787340188 118.96369750759914,102.04658452156946 118.85330224907375,101.8746181641327 114.06656383990776,97.4032749986909 112.3311503760633,95.46452025992039 111.7835898938065,94.95897177927691 105.57937636532006,90.67462386543775 105.45573367577163,90.75802117699641 105.1333795209066,91.73792864794086 104.19281191835762,93.03054170464748 103.65408305681194,93.97913057980622 103.58784590169671,94.04688620509114 103.49069807422347,94.01561439001671 103.17717554004048,93.5048385038317 102.40440873042098,89.77809354176497 102.2366079375206,89.3246095660943 101.8921747309214,88.81378336359558 101.8921747309214,88.65740689989616 106.54202301954501,84.91464361906765 107.1690680879401,84.34121378068448 107.68130208741059,83.60617088605431 109.33281515480485,80.40521346130481 109.51386337875738,80.40000000000146 109.721406464756,80.54597670045769 111.6996894973563,82.29244893146824" stroke="#ff9700" stroke-linecap="round" stroke-linejoin="round" stroke-width="0.5"><title>2023-03-19 21.3km</title></polyline><polyline fill="none" points="169.6943710729538,100.86581892614777 169.72537898359587,100.8553687504791 169.81840271566762,100.91284468847516 170.3676857049286,99.30349232945446 171.85606541775633,97.26037288645239 172.48951273603598,96.13688128430294 175.34224051897763,89.88142469242302 175.47070186323253,89.41105654125204 176.05985216627596,88.15149237852529 176.87048754555872,85.97200216266356 178.07979606225854,81.8009021793041 178.22597621261957,81.10045622125836 178.1639603912481,80.83386588414942 177.3887626241194,80.41568196802473 177.18942605543998,80.39999999999782 174.3411279740394,84.42486968528465 171.66115855061798,87.34138171519226 170.94797660488985,88.4337212572973 170.14177092708996,88.91455180736375 168.64453181120916,90.59219445541748 167.28018374109524,91.97711990241442 166.22148507629754,93.17909816425527 165.5836080565059,94.21904629029814 164.8349884985364,95.86514912073835 164.20154118031496,97.48506804115095 162.97008415596792,99.97232066173092 160.48059189820196,105.62563672929537 159.55035457765916,107.03102479930749 158.42964009149,108.52518396461892 157.23362067938433,110.86559130607202 157.17603455955395,111.05887876237102 157.23362067938433,111.58127338883787 156.17492201461573,113.85884736993103 155.3288490230625,116.27212178606715 154.0619543865614,119.28070920490063 153.77402378735133,121.6571507553017 153.94235244533047,123.37020473509983 154.14611871555098,123.59999999999854 154.4030414040899,123.59477739258364 158.52709352507372,120.74314872549076 159.31558039676747,120.45066439298535 162.00883892478305,119.1553551685538 163.83830565513927,118.55991901601374 164.97230924587348,118.02715407915457 167.28461344260722,116.40793015198506 167.74530240133754,115.96393983499365 167.79402911814395,115.79156601452632 167.31119165176642,111.98351336748965 167.38649657770293,109.50210897534998 167.4972391158808,108.55652946167902 167.39978568229708,107.59003386295808 167.37763717464986,106.03837579508763 167.68771628150716,104.62773390420989 167.94906867155805,103.87014980435924 169.26026032335358,101.97874957357271" stroke="#ff8f00" stroke-linecap="round" stroke-linejoin="round" stroke-width="0.5"><title>2022-06-18 22.1km</title></polyline><polyline fill="none" points="24.7718925481895,131.69831526329654 24.634208529343596,131.5357965913572 24.686659584142035,131.24945326046873 25.66356047958834,131.55127457620983 26.188071027456317,132.15491334259423 29.151555623015156,134.15926664070867 29.472818333568284,134.64680344696535 29.872757626348175,135.76116066784743 29.78752466230071,136.82133144572435 30.00388526331517,137.16182087838388 30.574290484160883,137.4558786146008 31.361056305962848,137.64933698478126 32.52809227499529,138.20649413413048 33.95082713611191,138.60114445925865 35.41290028835647,139.46781979774823 35.727606617088895,139.86246308458067 36.21933525570785,140.24162808990513 37.13722871453501,141.36363507611532 37.43882227956783,142.39277066190698 37.63551373503287,142.6868066504685 38.40261041128542,143.10464516319917 38.94679010470281,143.15107151226402 38.95990286843153,143.7855618954418 39.36639854303212,143.53795656938019 39.78600698130322,143.46831741526694 40.1728335104126,143.58438263405696 40.89403551374562,144.10280495283223 40.959599332214566,144.05637922842288 41.07761420548195,143.75461127707968 40.96615571406437,142.91893946225173 41.08417058736086,142.13742262758024 41.49066626196145,141.479703748475 41.79225982699427,141.59577223037923 42.729822431341745,141.4100625679057 43.437911670975154,141.50291746008588 44.44759447564138,142.1838496114724 44.65084231295623,142.19932526600314 44.427925330091966,141.4255383917407 44.53938382153865,139.69222507403902 45.149127333424985,138.07494353638322 45.39171346183866,137.75767344093765 45.90966762788594,137.49457033098588 47.043921687669354,137.50230867171194 47.352071634551976,137.60290702420752 47.84380027317093,138.09815836552298 48.71579905904946,139.2743664018344 49.07640006070142,139.52198665376636 49.679587190796155,140.55888704260724 49.95495522840065,142.0987334510355 50.19098497496452,142.65585555133293 50.07952648354694,143.42189127442543 50.17131582944421,143.94805241964787 50.34178175748093,144.16470587132062 50.88596145089832,144.3581458924309 51.25967521627899,145.51877491077175 51.69895280012861,146.0217082384188 51.685840036429,146.3157291430398 52.092335711058695,146.49368857060472 52.45949309456046,146.47821385553107 53.22658977084211,146.16871884348075 53.05612384277629,146.51690063683054 52.289027166494634,147.17457268213184 52.28247078464483,147.2983690892579 53.00367278797785,147.53048676876642 53.397055698907934,147.5227495250365 53.94779177417513,147.35252994925395 54.065806647442514,147.41442802418896 54.14448322964017,147.73939202913607 54.065806647442514,148.737486425729 53.81010775535833,149.66593368836766 53.52818333587493,150.17657448956743 53.7642130824097,150.01409827075986 54.387069358024746,149.10112972175557 55.40330854456988,148.737486425729 55.60000000000582,148.84580590086262 54.88535437852261,149.68914471385506 54.7345575960062,150.18431144305214 54.387069358024746,150.60984258227109 54.8787979966728,150.7181591908884 55.200060707255034,150.5711580389907 55.33774472607183,150.7181591908884 55.200060707255034,151.2442660740635 54.72800121415639,152.06436606086208 54.616542722738814,152.69877651119896 54.092032174841734,154.21514917612512 54.35428744877572,155.8475344509061 54.17726513886009,156.23435008741944 54.1838215207099,157.31742262182524 53.81010775535833,157.8666887868967 53.65931097284192,158.50104722223477 52.49883138565929,159.0967200888117 51.10232205191278,160.13333364325808 50.24343602976296,160.57427659739915 48.51255122173461,160.58201241416828 48.29619062074926,160.76767176328576 48.00770981941605,161.34785409048345 46.4145090302045,162.4849976568221 45.896554864157224,163.15025685153523 45.38515707998886,161.9976526510727 44.41481256639236,162.10595183121768 43.7853999089275,162.6938587750119 43.13631810594234,163.08063699617924 42.59213841249584,163.6375939218924 41.9758385187306,163.40552906872472 42.139748064946616,164.10172134585446 42.067627864627866,164.3028422845091 41.87749279101263,164.40340253957402 41.24152375169797,164.4343441277524 40.389194111397956,164.093985913707 39.05169221429969,164.01663154593552 37.73385946272174,163.77683246858942 36.1472150553891,163.80003886642226 35.01296099560568,163.97795433032297 34.65235999392462,164.20228188660258 34.12129306420684,164.29510687434959 33.301745333126746,164.093985913707 33.01326453182264,164.11719220758096 32.48875398392556,163.64532940388744 31.662649870995665,163.32817394861195 30.777538321417524,163.54476807190804 30.90210957659292,163.65306488504575 29.15811200486496,164.21001730691205 28.974533313099528,164.9603490579757 28.430353619682137,165.60237919076462 27.75504628926865,165.82670159944246 27.112520868104184,165.79576061982516 25.532432842621347,166.8322760758747 23.91956290786038,167.07206480345485 23.191804522677558,167.03338925718708 22.24112915463047,167.93839150317217 20.58236454697908,168.65000907618378 20.02507208986208,168.7815028447876 19.113735012884717,168.64227414101333 18.82525421155151,168.73509330728848 18.379420245881192,168.41022569299093 17.953255425702082,167.86877635651763 18.13683411743841,167.04885947822186 17.953255425702082,166.42231282159628 17.618879951391136,166.70851383417175 17.01569282138371,167.62125528063916 16.694430110772373,167.75275095993857 16.504295037157135,166.7936003985742 16.661648201552453,166.39137210228364 15.986340871138964,165.6178497245055 15.82898770677275,165.1073203251508 16.183032326574903,164.27963605152763 16.78621945666964,163.62985843903152 17.697556533588795,163.49061960321706 18.70068295643432,163.567974545811 19.06128395808628,163.45967760250642 19.008832903316943,163.25081874395983 18.72690848383354,163.08063699617924 17.218940658669453,162.531411291915 17.04191834872472,162.32254969439964 17.0091364395048,162.02085963217542 18.20239793593646,160.51239003270166 18.622006374236662,160.3576733842565 18.982607375917723,159.0967200888117 19.612020033382578,158.70218407545326 19.736591288499767,158.462366992615 19.58579450598336,158.2767015961581 19.612020033382578,158.13745222921716 20.136530581250554,157.71196635479282 18.359751100331778,157.72743861321942 17.251722567889374,158.0678274429738 15.33070268627489,158.89558435680374 14.589831537392456,158.67897600618744 13.907967825158266,158.85690434281423 13.612930641975254,158.6093517526897 13.51458491422818,157.60366045104456 13.245773258444387,156.81456957796036 12.93106692971196,156.26529524702346 12.39999999999418,155.81658910861006 15.13401123083895,155.1976794216389 15.95355896188994,154.1764666038871 16.353498254640726,153.8360590562952 16.989467293955386,153.68906438176055 17.664774624368874,153.30223483180453 18.058157535269856,152.95408642877737 18.897374411899364,152.60593631279335 20.123417817580048,151.6852644181854 20.956078312330646,150.88837066938868 20.805281529814238,149.8980436003476 19.697252997400938,149.72009273593721 18.431871300650528,148.81485749631975 18.16961602671654,148.78390907823632 17.972924571251497,148.62142966122337 16.89767794808722,148.2036237325883 16.307603581721196,147.66975701088086 15.861769616021775,147.53822401160141 15.422492032172158,147.24420818778162 16.038791925937403,146.47047649673914 16.98291091210558,145.83601019536582 16.989467293955386,145.55746221676964 18.772803156782174,143.4373666580941 19.107178631064016,142.67906887694699 19.480892396415584,142.29217912205058 19.716922142950352,141.8201707553235 19.90705721656559,140.77555087542714 19.65791470630211,140.04817681053828 20.01851570798317,139.57615346830426 19.920169980236096,138.77138509607175 18.582668083166936,135.79985331144417 18.759690393082565,135.6063898817083 22.595173774461728,133.82650149362598 22.752526938857045,133.65624895236397 22.90988010316505,133.06036182971002 22.80497799362638,132.68889718636638 23.244255577475997,132.12395763377572 24.103141599625815,131.2184971552124 24.634208529343596,131.31910444769164 24.601426620123675,131.4971016144118" stroke="#ff6b00" stroke-linecap="round" stroke-linejoin="round" stroke-width="0.5"><title>2021-12-18 25.6km</title></polyline><polyline fill="none" points="82.13209475151962,153.5088180759194 82.64709707384463,153.29260720478487 83.14203437062679,153.35438180160418 83.52326985599939,152.7829648820989 84.07840222943923,152.55903006305016 84.31918253598269,151.5397322783756 84.67366465399391,150.9374135816979 84.74723641428864,150.34281227844622 84.4797027403547,150.2578688587164 84.30580585228745,149.81770599448646 84.57333952625049,149.68642886153248 84.4462610311457,149.2848738830071 84.62684626103146,149.0840956050306 84.81411983276485,149.09954010662477 84.5465861588309,148.96826174393937 84.45963771481183,148.4972022391521 84.04496052020113,148.03386219769163 84.0984672549821,147.86397014752583 83.65703669298091,147.0299491675396 83.74398513702909,146.69788273332233 83.13534602877917,146.02602299031423 82.96144914071192,146.18819657085987 81.92475615418516,146.3580923348709 81.32949372965959,146.5743227626881 81.19572689270717,146.86777736774093 80.58708778448636,146.93727960967226 80.25935903389473,147.09945126245293 79.95169530884596,147.48557286441792 79.67078495121677,147.59368656446168 78.7544821179763,147.23845526317746 79.53701811426436,146.226809277563 80.96163492798223,145.52405497123254 81.3027403622691,145.00663834199077 81.58365071992739,143.51615002295148 81.32949372965959,141.56225355884817 81.44319554109825,141.40007019058976 83.95132373430533,140.02535928567522 84.69372967947857,140.13348350871092 85.13516024150886,139.70870889780053 85.1819786344713,139.15263675778988 85.70366929867305,138.4961575101479 86.23204830469331,138.25673426739377 87.00789595910464,138.14860739644791 87.22192289828672,137.52301321968844 87.4091964700201,137.43033216656477 87.4693915466778,137.19090559381584 87.4091964700201,136.93603132337012 87.12828611239092,136.82017910204013 87.3757547608111,136.5344095405162 88.96758012074861,135.51489863782626 90.4256386437628,133.93926419736817 91.29512308404082,133.18233024858637 91.72317696234677,133.25184490267566 92.80668834183598,132.7806887901388 93.34844403158058,132.30952978019923 94.13098002786865,132.03919133517047 94.99377612632816,132.29408189474634 96.15754760795971,132.33270160254324 96.90664189503877,132.00829545215674 96.8196934509615,132.25546216750809 96.52540640966618,132.30952978019923 96.44514630746562,132.45628453659447 96.80631676729536,132.82703214279172 97.04709707383881,132.8502038086226 97.2009289363632,133.17460639424826 97.50190431953524,133.2672925950028 97.78950301904115,133.56852197313128 98.27106363212806,133.36770251931011 98.97333952621557,133.29046412769094 99.36795169528341,133.60714103851933 99.38801672085538,133.99333062185906 99.588666976284,134.1014633563973 100.1906177426863,133.9160928609199 100.21737111004768,134.00877816470893 100.89958197862143,133.61486484928173 101.34101254062261,133.18233024858637 101.67542963306187,133.35997868365666 101.79581978631904,133.80023607351177 102.04997677658685,134.1246346367916 102.11017185321543,134.33317584508768 101.95633999069105,134.68846696676337 102.52484904782614,134.87383559362934 102.53822573152138,135.1441640373232 102.70543427777011,135.4762805339633 102.83920111469342,135.50717501861072 103.52810032511479,135.05920377207804 104.31732466325047,134.95879606440576 104.33070134691661,134.85838822518417 104.63167673011776,134.7579802543696 104.58485833718441,134.61122990652802 104.75875522525166,134.6575721519839 104.63167673011776,134.51082161185332 104.92596377147129,134.61895361604547 105.07310729214805,134.51082161185332 105.36070599159575,134.61122990652802 105.26706920572906,134.34862331939803 105.38077101716772,134.37951825872005 105.39414770086296,134.26366217203758 104.95271713889088,134.1014633563973 104.71193683231832,133.3754263541923 104.87914537850884,133.0741962168977 104.83901532745222,132.7575171032804 104.97947050625226,132.7034498067369 105.09317231769091,132.34042554174812 105.01291221551946,131.75340394178056 105.24031583836768,131.59892382581165 105.42090106825344,131.7147839419922 105.51453785412014,131.59892382581165 105.78207152808318,132.59531509916997 105.92921504875994,132.63393465510308 106.63149094287655,132.26318611452007 106.8722712493909,132.33270160254324 107.02610311191529,132.52579984942713 107.08629818857298,133.1205393920318 107.43409196470748,133.36770251931011 107.33376683696406,133.50673142803134 107.58123548535514,133.49900760637684 107.8220157918986,133.77706469500845 107.88221086852718,134.29455714561482 108.13636785879498,134.60350619620294 108.03604273105157,134.7579802543696 108.0159777055087,135.39132063695433 107.73506734787952,135.9396964957341 107.75513237342238,136.20229763002862 108.23000464469078,135.80839559109882 108.26344635389978,135.94742007134482 108.51091500229086,135.8856314446166 108.51760334416758,136.05555004825874 108.93228053877829,135.90880218546954 109.44059451928479,136.0401029180357 109.73488156060921,135.94742007134482 109.99572689269553,136.05555004825874 110.21644217372523,135.99376150871103 110.16962378076278,135.77750122791622 110.01579191823839,135.70026526541915 110.32345564328716,135.45310966230318 110.1428704133723,135.0205854385349 110.35020901067764,134.45675555250637 110.27663725032471,134.15552966643008 110.67793776124017,133.61486484928173 110.58430097537348,133.21322565820446 110.23650719923899,133.05102461882052 110.00241523454315,132.71117370857246 109.94222015791456,131.93105569008185 110.39702740361099,131.22044622524845 110.95215977705084,129.28940895287815 111.3200185787282,128.4165641325817 111.37352531350916,128.5710506658288 111.7346957733389,128.51698041463533 112.12930794240674,128.6791910537213 113.14593590339064,128.56332634657156 113.21281932186685,128.4783587832717 114.38996748722275,128.82595276456414 114.41003251276561,129.08857828218606 114.96516488617635,128.89547137155023 115.2326985601394,129.16582091014425 115.56711565257865,129.04223266802 115.73432419876917,129.13492386831786 115.8680910357798,129.02678412375826 115.9951695308846,129.22761495642771 116.36971667440957,129.17354516865453 116.85127728749649,129.45161795638705 116.88471899673459,129.6292750423163 116.60380863910541,129.88417361991742 116.36971667440957,130.40169236544898 115.45341384113999,131.1354816089588 115.45341384113999,131.44444339835172 115.13237343242508,131.8460918618439 115.0119832791388,132.21684242079937 114.78457965629059,132.47173238935648 114.52373432420427,132.5103520075645 114.16925220622215,132.9042710016074 114.00873200185015,133.24412105532974 114.07561542032636,133.57624578775722 113.92178355780197,133.81568365530256 114.20938225730788,134.03967324105906 114.26957733393647,134.23276718602574 113.9619136088877,134.4335843725421 113.55392475612462,134.27910966038326 112.88509057130432,134.44130809999479 112.39684161631158,134.7811513362467 112.0557361820538,134.72708546767535 111.33339526242344,135.1518876931441 110.91871806781273,135.81611917996634 110.73813283789787,135.87018428013107 111.17287505808054,136.59619764411036 113.90171853228821,136.21002117916942 114.45016256388044,136.5730271110806 115.3263353460352,136.5421330561876 115.59386901996913,136.7120502040707 115.5202972596162,136.93603132337012 115.21932187644416,137.2449697240154 115.05211333022453,137.75471536212717 115.2326985601394,138.10999061986513 115.91490942871314,138.42664761352353 116.16237807710422,138.78191975617665 116.11555968414177,139.56969124104944 116.25601486297091,139.95585077601572 116.02192289827508,140.44240901973535 115.94835113792215,140.99074873505742 116.49679516954347,141.40007019058976 117.30608453322202,141.43096228717332 117.60705991639406,142.00246382845216 118.3494658615673,142.02563271998952 119.42628889920888,143.29991096822778 119.49986065956182,143.87139857425063 119.31258708779933,144.3965455907237 119.69382257317193,145.01436100393767 119.33265211331309,145.54722279833368 119.29252206225647,145.8020684340736 119.51992568510468,145.99513274556375 120.16869484441122,145.89473936426657 120.36265675802133,145.96424248842231 120.32921504875412,146.68243774789153 120.9579191825178,147.3311244570068 120.62350209010765,148.04158455465222 121.41272642824333,148.59759221237618 121.3391546678904,149.60920691362116 121.59999999997672,150.34281227844622 120.89103576404159,150.34281227844622 121.09168601947022,150.7752500472343 121.2789595912327,150.79841628743452 121.29233627495705,151.06096652061387 121.06493265210884,151.27718368463684 121.12512772876653,151.50112224744225 120.79071063629817,151.63239627326402 120.46298188570654,151.67872822873323 120.18207152810646,151.50112224744225 119.7807710171619,151.671006238088 119.15206688339822,151.49340023893456 118.84440315837855,151.7018941959759 118.48323269854882,151.60923028504476 118.01504876915715,151.84861182587338 117.52679981422261,151.68645021857083 117.50673478865065,151.75594809228642 117.1388759870024,151.6632842466861 117.0452392010775,151.77139205564163 116.57705527171493,151.7482261094192 116.30952159775188,152.01077309019456 115.96172782161739,152.08027066992508 115.3932187644823,152.43547953808593 114.55048769156565,153.46248722627934 114.22275894100312,154.13428180610936 113.88165350668714,154.3582120248102 113.62080817462993,154.35049030400842 113.01885740828584,154.5821415895989 112.60418021364603,154.50492457215296 112.04904784020619,154.26555132398062 111.74138411518652,153.87174209619116 111.39359033905203,153.8254114658339 110.61774268458248,154.61302837478434 110.43046911281999,154.9991121401399 110.10942870413419,155.32342100087408 110.00910357639077,155.33114262368326 109.98903855087701,155.19215329389408 109.72819321873249,155.15354510200996 109.15299581977888,155.38519396167976 108.53098002786282,155.19987492992368 108.457408267539,155.34658586700243 108.28351137944264,155.26164799026446 108.08954946583253,155.49329652337474 107.78188574081287,155.54734774707322 107.30032512769685,155.43924526157207 107.2535067347635,155.26164799026446 106.85889456572477,155.4624100927249 106.61142591730459,155.9025405550783 106.64486762654269,156.08785788876412 107.01941477009677,156.21140252911573 106.88564793311525,156.83684421655926 106.94584300974384,157.09165233055683 106.69837436132366,157.36190243541205 105.96265675799805,157.60126601870434 106.2034370645415,157.28468821692513 106.09642359497957,157.11481666257168 105.9158383650356,157.37734526977874 105.20018578728195,157.4082309291698 104.87245703669032,157.54721624263766 104.81895030190935,157.46228080321453 105.03297724103322,157.30013106684055 104.69187180677545,157.415952342104 104.611611704604,157.47772361739771 104.6784951230511,157.72480822101352 104.88583372038556,158.06454825119727 104.23706456104992,157.95644931394054 104.19024616814568,158.08771228935075 103.69530887133442,158.25758168876928 103.28732001857134,158.0722695980221 102.87264282396063,158.0722695980221 102.48471899671131,157.8174647421256 102.04328843473922,157.9101211513189 101.74231305153808,158.29618831797416 102.09679516952019,158.3425162473577 102.31082210864406,158.74402379660023 102.31751045052079,159.9948607642218 102.53153738970286,160.1878893435278 103.07998142126598,160.3191484999843 102.39777055272134,160.95227774678642 102.28406874128268,161.25339835957857 102.08341848579585,161.33832960073778 101.84932652112911,161.97145043492492 101.84932652112911,161.49274979825714 102.15030190433026,161.22251424857677 102.09010682767257,161.02948827303044 102.39777055272134,160.58166613899812 101.9095215977286,160.7129246215627 101.70218300045235,160.49673405998328 101.50822108681314,159.84043755099265 101.59516953089042,159.46209936458763 101.494844403147,160.30370625793876 101.655364607519,161.31516654427833 101.18718067812733,162.49647350457235 101.14036228519399,162.8902384485118 100.94640037155477,163.2762805489765 100.73906177427853,163.39981361079845 100.78588016718277,163.870781583988 100.49159312585834,164.5347643064233 100.48490478401072,164.7741055065053 99.92308406875236,165.1292555885302 99.72243381326552,165.85499194778095 98.94658615885419,166.2950627793398 98.69911751046311,166.64248533688806 98.38476544353762,166.82005625875172 97.84969809564063,166.6810877461612 97.04040873196209,166.89726087918098 97.05378541568643,167.32960531788558 96.7594983743329,168.51081966656056 96.2779377612751,169.10528013946168 95.9301439851115,169.77693772940256 94.77306084532756,169.42952936525398 94.09753831860144,168.51853996198042 93.55578262891504,168.19428688623884 92.88026010215981,168.2714901237996 92.53915466790204,168.07848188422213 92.03752902927226,168.13252424025995 91.68304691129015,167.6770231906048 91.51583836507052,167.83143062907038 91.39544821178424,168.24060883811035 91.33525313515565,169.3446070814025 91.221551323717,169.52217174950056 90.31862517414265,170.14750491741142 88.84718996746233,170.4022688210316 88.53952624244266,171.04303489993617 87.97101718533668,171.5834358674183 87.83056200650753,171.2823557979209 87.87069205759326,171.0584749803893 88.05796562935575,170.88863392446365 88.15160241522244,170.43314923669823 88.31212261959445,170.21698606590508 88.32549930328969,169.86185953472886 88.5529029261379,169.66113511613366 88.6465397120046,169.18248246037547 89.281932187645,168.36413390634698 89.2484904784069,167.8931935174478 89.59628425451228,167.6924639484423 89.91732466322719,167.75422694866575 90.64635392473429,166.49579600449215 90.50589874590514,166.21013702596247 90.13135160240927,165.9476386484166 90.31193683232414,165.53072761446674 90.16479331164737,164.8127088559122 89.26186716210213,163.89394386873755 88.73348815605277,164.04063817631686 88.33218764516641,163.6932038353334 88.05127728750813,163.6468791376319 88.05796562935575,163.43069684517104 88.31881096144207,163.26855972600606 88.27868091035634,163.02921382849308 87.99108221085044,162.79758805532765 87.54296330700163,162.71265842991124 87.26205294934334,162.41926445500576 87.3757547608111,162.28028796992294 87.67673014398315,162.434706271124 88.03790060378378,162.3883808134051 88.19173246630817,162.5350780002118 88.47264282393735,162.45786898949154 88.7736182071385,160.4195229974721 90.13135160240927,158.90617048024433 90.25174175569555,158.65908968262374 90.15810496979975,158.0722695980221 90.19154667903786,158.72085995666566 89.86381792844622,159.19957789357431 90.06446818393306,158.5432702847247 89.66985601486522,158.06454825119727 88.74017649790039,158.25758168876928 87.46270320483018,157.49316642845224 86.66010218297015,157.47000221069175 83.57677659078036,158.71313867512072 82.3795633999107,159.0374318302347 81.66391082209884,159.0528743272298 81.32949372965959,159.31539630038606 80.68072457035305,159.28451140901598 80.29280074313283,158.92161300368753 80.24598235019948,157.92556387528748 79.69084997675964,157.43911657615536 78.76785880167154,157.21519535379775 78.55383186251856,157.05304509496636 78.39999999999418,156.1110225240045 78.55383186251856,155.83304643946758 78.88824895492871,155.55506934736331 79.02201579191023,154.65163683880382 79.15578262889176,154.41998576317565 79.52364143054001,154.53581138846494 80.27273571756086,154.46631603427522 81.47663725036546,154.6439151475497 81.92475615418516,154.31188168838707 82.11871806779527,153.57059249853774" stroke="#ff2700" stroke-linecap="round" stroke-linejoin="round" stroke-width="0.5"><title>2021-11-13 32.3km</title></polyline><polyline fill="none" points="154.35290263872594,158.30447223563533 154.28214740668773,157.95193743243726 154.50227479526075,157.69217400850903 154.34504094629665,157.40457786143816 154.47082802542718,156.8386600156664 155.42995450407034,155.77175544916827 157.13594176524202,154.7697806821452 159.47086442218279,154.41723119029484 161.2240218380175,153.6007951628344 161.43628753410303,152.71012871646235 161.9315741583123,151.87512042956223 162.03377616009675,151.35555556925829 162.6234030937194,151.04938192916597 163.18158325747936,150.20507919589727 163.72404003638076,149.97312642398902 164.71461328479927,150.03807326404785 165.75235668788082,150.37208479890978 166.42060054597096,150.83598752647958 166.79010009096237,151.39266745053465 167.04953594176914,151.46689116437483 168.2995450409653,151.25349781201658 169.03068243857706,150.80815343436552 169.8482984531147,151.1699959193138 169.74609645130113,152.4039599656462 169.89546860780683,152.6637395828293 169.97408553230343,153.5544065162685 169.6989262966381,154.46361936503672 169.89546860780683,155.15016138543433 170.24138307551038,155.6511480018744 171.6957961783337,156.69949931136944 172.49768880798365,156.56961578142364 172.8514649681165,156.6809445335748 173.16593266604468,156.51395135056373 173.6926660600584,156.49539653216925 175.17852593265707,156.99637520458782 176.09048225657898,158.19314561391366 176.27130118288915,158.73122293223423 176.93954504095018,159.0837544973474 177.67068243859103,159.01881458226126 178.606223839859,158.55495660035376 180.57950864423765,156.76444100177468 181.302784349391,157.1633674379409 182.16757051867899,157.19119944491104 182.5292083712411,157.04276196902356 183.6927388534823,157.95193743243726 183.9285896269139,157.5159055178883 186.82955414013122,156.6716671431277 187.48207461330458,156.27273839481495 187.59999999997672,155.7532004684399 187.55282984531368,153.6007951628344 187.42704276615405,152.98846298554417 186.2242038216791,150.89165568327735 185.43803457688773,148.61850956674607 184.77765241125599,147.44943927007262 184.28236578707583,146.95768266383675 183.40971792535856,146.43808768004965 181.39712465877528,145.84426094346418 183.3075159235741,144.98134905597544 183.51978161965962,145.02774239152495 181.389262966346,145.8535395182189 180.49303002728266,145.56590322936972 179.7697543221293,145.05557838070672 179.1644040036481,144.34111843341088 178.26030937218457,142.29977113079804 177.33262966334587,142.01212278821913 175.17066424019868,141.01926456103683 174.58103730663424,141.06566006420326 172.82787989079952,140.76872840522265 172.2303912647767,140.47179570646404 171.81372156506404,140.0263947087151 170.88604185619624,139.6737839262787 169.2193630573165,139.42324379504862 168.3074067333946,139.70162167293893 167.4583439490234,139.48819871497835 166.17688808005187,139.41396451672335 164.97404913554783,138.83864727668697 164.05423111916753,138.5695459373601 162.97717925385223,138.5231490684091 161.25546860779286,137.82719298737356 159.25859872609726,138.3653995239947 158.4567060964473,139.10774776195467 157.11235668786685,139.08918913520756 156.381219290226,138.65306023751327 155.94096451316727,138.5602665655897 155.65008189258515,138.15197320273 155.4692629663041,137.54880895546376 155.06045495902072,137.493132039388 154.65164695176645,137.23330594772415 153.81044585982454,137.33538057868282 153.81044585982454,137.86431078922033 154.56516833481146,138.48603155493038 154.21139217464952,138.6623395991046 154.219253867137,138.88504397301585 153.78686078247847,139.6830631761768 153.8418926296581,139.95216098163655 153.67679708823562,140.40684154001065 153.31515923561528,140.508912350655 152.3088626023091,139.6459461704726 152.17521383074927,140.90791524984525 151.78999090078287,141.35331161737122 151.58558689715574,141.90077478075546 151.17677888987237,142.08635471196612 150.4535031846899,141.39042787571088 150.20192902637064,141.34403255022335 150.233375796146,142.16058657075337 149.65161055503995,142.45751335605019 150.09186533206957,143.32972977528698 149.87173794355476,144.1648221958676 149.03839854410035,144.4988568616027 148.57455868969555,145.1483649452275 148.51166515011573,145.46383850531856 147.88272975431755,145.60301764406904 147.59184713370632,145.96488233585114 147.87486806183006,146.77211339219502 147.6940491355199,147.42160406658513 146.87643312101136,147.54222321564157 146.7663694266812,147.66284219314548 147.20662420379813,148.59995302122115 147.7648043675581,148.78551829369826 147.94562329386827,149.10097832516476 147.8355595996254,150.66898283683258 146.44404003635282,152.8771293874961 146.21605095537961,153.96262573543208 144.71446769786417,155.13160626874014 144.39999999999418,156.24490608659835 144.70660600543488,156.65311235922854 145.25692447676556,156.3655126897429 148.62959053678787,157.5066282187472 150.40633302999777,157.8313330845267 150.09186533206957,158.49929347208672 150.06041856232332,158.95387461746577 150.1547588716785,158.65700557396485 150.94878980889916,158.93532033266092 151.0667151956004,159.055923111242 151.03526842579595,159.82592142544308 151.7585441310075,160.5402509624182 152.79628753408906,161.13397483208246 153.11861692444654,161.13397483208246 152.96924476791173,160.89277501108882 153.0714467697544,160.42892727431172 152.66263876250014,159.7517050247625 153.0793084622128,160.35471140110894 153.0006915377162,160.8649442183887 153.35446769787814,161.65347981003288 153.307297543186,162.65537328527716 155.4692629663041,162.76669405227585 155.6972520472773,162.21008875678672" stroke="#4dd2ff" stroke-linecap="round" stroke-linejoin="round" stroke-width="0.5"><title>2021-10-24 17.4km</title></polyline><polyline fill="none" points="47.77666720474372,196.80377868679352 47.89010728232097,196.90794766537147 47.90271173545625,196.41686463846418 47.63801822101232,192.80065313787782 46.36496846098453,191.47617298820114 46.100274946482386,190.85113292680762 45.142336513265036,189.67545454246283 43.17604183446383,188.29141504937434 42.079454417398665,187.8449476883834 41.43662731087534,187.93424127798062 40.352644346887246,188.79740961773496 39.64679497509496,188.99087763101852 38.81490107247373,188.60394132886722 38.487185292644426,188.63370569892868 37.97040271683363,189.13969899223594 37.71831365546677,188.88670258120692 36.94944201823091,188.87182042472705 33.94958218774991,190.0177417043451 31.390878214675467,189.5861620974756 31.20181141863577,189.05040619506326 30.458148687554058,188.36582613350765 30.06741064239759,187.4282434941124 29.714485956414137,187.24965559096017 29.86573939328082,186.78830242095864 29.664068144164048,184.68986984188086 28.832174241601024,182.99324107500433 28.95821877225535,180.98404801945435 27.91204916749848,177.84369415251422 26.95411073428113,176.40000000000873 27.987675885902718,177.87346088074264 28.630502992426045,179.49573770351708 28.95821877225535,180.8798668282252 28.93300986615941,183.03788947199064 29.84053048718488,185.28517315833597 29.941366111685056,186.87759670519154 28.945614319236483,189.55639793614682 28.315391665732022,190.67254952384974 26.13482128479518,192.57742705119017 25.378554100636393,194.31858079931408 22.353485364001244,196.35733930248534 21.307315759186167,197.19069163313543 20.551048575085588,198.15796917816624 19.101536472095177,198.70857024328143 17.04701062181266,199.943694245012 15.874796486343257,199.78000375772535 14.286635399679653,201.02999884530436 14.904253600048833,201.8782032479212 14.614351179508958,203.2323431611294 15.04290258383844,203.81268470677605 15.093320396030322,204.43766513769515 13.6564127462334,209.36300555459457 13.82027063606074,210.40459546181955 12.622847594495397,211.2081022207858 12.559825329168234,211.53545546419627 12.635452047630679,212.2199187885999 13.404323684750125,213.42516104498645 14.652164538681973,216.59445078276622 14.916858053125907,218.03771786064317 14.702582350932062,219.28754500883224 15.332805004378315,219.12387782199949 15.52187180047622,219.60000000000582 18.849447410728317,219.31730265796068 20.61407084041275,218.3352967955725 21.382942477648612,217.45743706345093 22.189627474115696,215.29996108652267 23.676952936220914,214.0649766647839 23.601326217874885,212.87461961210647 23.790393013856374,212.57702871972288 24.559264651150443,212.14552076818654 25.99617230106378,212.33895553655748 27.130573077243753,211.93720609424054 28.2775783065008,212.01160422877 29.386770176584832,211.26762105099624 30.420335328322835,211.31226015649736 30.596797671343666,210.83610894151207 31.857242978177965,210.53851358487736 32.235376570315566,210.18139829665597 32.651323521567974,208.9463673561404 33.40759070578497,207.9791666134406 34.189066796097904,205.70249768973736 36.92423311213497,204.48230648702884 40.31483098771423,203.51507396735542 41.0332848127,202.29486312023073 41.19714270258555,200.80678628025635 42.15508113586111,200.4050027390913 43.012183944520075,199.2442880567105 43.970122377737425,199.27405009552604 45.31879885622766,198.67880808054178 46.100274946482386,197.5776034775772 47.877502829243895,197.32462278089952 50.66308695758926,198.7829756214487 52.465523746504914,198.5746404598467 54.2049382700352,198.9615483628295 54.7217208459042,199.8097656791797 54.330982800747734,200.94071386328142 54.65869858057704,202.5924765324453 55.440174670831766,203.26210432633525 55.40236131165875,205.9554627872567" stroke="#4dd2ff" stroke-linecap="round" stroke-linejoin="round" stroke-width="0.5"><title>2021-09-19 11.2km</title></polyline><polyline fill="none" points="106.49601332072052,192.24609735608465 109.33884941603174,185.92500671942616 110.50343803456053,183.056732123423 110.9816721440584,181.6460421382253 112.20382597943535,177.10020227167843 112.09755173290614,176.812807058217 111.26949822847382,176.39999999999782 108.61707015818683,180.10468511387444 105.6901002843224,183.33364045470807 105.15872905155993,184.2374998826308 104.88418724795338,184.53529953510224 104.15355180288316,184.94281184289866 103.45391301307245,185.76827484750902 101.58525751112029,187.6803685838713 100.21697658672929,189.2423774843337 99.57047492018319,190.29761883248284 98.23761874463526,193.52588589998777 97.08631440694444,195.845088903101 94.5047358343727,201.67916323551617 93.60140473864158,203.03703729962945 92.41910374572035,204.5933224934779 91.21909037837759,207.00076465703023 91.29879606328905,207.39764154293516 91.25451512722066,207.67963101476562 90.32018737625913,209.62218001501606 89.42571246775333,212.16512905592754 88.0928562922054,215.28749775887263 87.79617402056465,217.6630766941489 87.97329776483821,219.3755088592552 88.15042150908266,219.57911714756847 88.37625428300817,219.59999999999854 89.45228102940018,218.83254919205137 90.6567224903556,218.10163222739357 92.51652180505334,216.74940643432274 93.32243484142236,216.4518072146675 95.99700337974355,215.14652563440177 97.87008697527926,214.54608415950133 98.59629432676593,214.2171434636257 99.57047492018319,213.64279714862278 101.18672908653389,212.47841938683996 101.76238125536474,211.97193232996506 101.28414714589599,207.93028692840016 101.3904213924252,205.41844646255777 101.49226754539995,204.5985448418287 101.38156520522898,203.43394705628089 101.368280924391,202.00819010359555 101.70038794490392,200.47793482679117 101.93507690602564,199.8825321763652 103.44062873223447,197.67843332083794" stroke="#ff9b00" stroke-linecap="round" stroke-linejoin="round" stroke-width="0.5"><title>2021-09-11 21.0km</title></polyline><polyline fill="none" points="187.59999999999127,201.51990394257882 186.98692346680036,200.26118926520212 186.67725725870696,199.92158664879753 186.47394106147112,199.234988312317 186.16114691186522,198.6406634200066 185.97347042211914,198.40440713939824 185.92655129969353,198.1496914839845 185.5511983201868,197.9245064773313 185.55745420316816,197.69931996800733 185.97034248063574,197.23786750823274 185.8420968792925,197.0016014062494 185.5042791977321,196.59920689322826 185.4104409528518,196.33709412492317 184.80674824414018,195.90515737422538 184.62845557888795,195.69841645994165 184.22807906739763,195.59135370289005 183.8089349069487,195.38461086576353 183.5274201723223,195.00434841096285 182.80486568677588,194.5133235610665 182.6515965534636,194.48009605742118 182.28249945693824,194.49117189560639 182.0572876692604,194.56131878633823 181.28781406125927,194.98958085053164 180.6372022301075,195.0412672837483 180.48393309679523,195.18894237090353 180.40886250090261,196.17465702124173 180.46829338932002,196.7505668602389 180.44326985736552,197.31170032585214 180.49644486278703,197.69562837337435 180.58402722467144,197.89866547880592 180.63094634712616,198.5815995049088 180.72478459199192,198.96920456101725 180.70288900152082,199.12424533697413 180.8280066613661,199.9991049382952 180.78421548042388,200.11353637358843 144.83478386793286,196.1709652597965 144.39999999999418,196.8428591898337" stroke="#4dd2ff" stroke-linecap="round" stroke-linejoin="round" stroke-width="0.5"><title>2021-09-07 16.2km</title></polyline><polyline fill="none" points="17.85680257322383,262.8076724958082 17.785447274611215,262.56216329769086 17.84178040509869,262.3551639846992 17.77793619055592,261.7100883677922 18.037068590783747,260.8483640035047 18.607910979742883,258.1763997973794 18.945909762667725,257.19422023214065 20.23781622183742,255.6775643269466 20.26034947404696,254.2426981104618 20.350482482812367,253.46264504214196 21.082813179149525,253.04372034904372 21.796366165333893,252.49477681747885 23.09202816656034,251.22832102223765 23.291071894287597,250.6504549686033 24.042180300792097,249.8462418777599 24.20742415021232,249.44172039676414 24.643067026001518,249.00829924159552 25.003599061106797,248.81085001457905 25.649552290691645,248.21849552826097 25.976284447518992,247.59241871467748 26.149039381023613,246.91816939250566 26.295505520276492,246.66773056121383 26.97150308614073,246.2342744254056 27.493523428653134,246.282436488229 27.68130053029745,246.23909063473184 28.62018603841716,246.51842962048613 29.082117708414444,246.35467945590426 30.929844388418132,246.6051205682561 31.44810918890289,246.56177512169597 32.18043988524005,246.36431184012326 32.90525949752191,246.31614989204172 33.40099104581168,246.56177512169597 34.287298965486116,246.77368567406302 35.09474050246354,247.1059973184565 35.68811614360311,247.24566357237927 35.95100408587314,247.19750285926784 36.36035816742515,247.25529570690196 36.79975658522744,247.5249943776471 37.70108667304157,247.7080029847275 37.88135269058694,247.90064257110134 38.86530470311118,248.0499375079453 39.51501347472367,248.25702295970405 40.25485525514523,248.2377592493831 40.562809701805236,248.32444586081692 41.83969399284979,248.39186862967108 42.41804746586422,248.61821552932088 42.65089107188396,248.6374790264308 44.062974876113,248.49781842782977 44.38970703294035,248.55079320444565 44.77652786229737,248.72416462980618 45.234703990252456,248.73861220912295 46.22616708683199,248.9601409981151 46.8533426062786,248.883087668215 47.13500825870142,248.99385177564182 47.46925149958406,248.9649568255154 48.066382682765834,249.09979971832217 48.644736155780265,249.4561676744779 49.0015126488579,249.57656141936604 49.437155524632544,249.56211419223837 49.86904285836499,249.43208887490255 51.19099365382863,249.6054558553842 51.63790315568622,249.5572984485225 52.242545422923286,249.82216335143676 52.55425541162549,249.82697905804525 53.147631052765064,249.98108131359186 53.662140311222174,250.28928375222677 53.77480657218257,250.2940993934062 53.79358428234991,250.1785238189368 53.808606450475054,250.2266803555176 53.97009475788218,249.6536131947978 53.90625054332486,249.5187724744428 53.98887246804952,249.0516416030332 53.94005042161734,248.70008531745043 54.000139094132464,248.184783990313 53.87996174910222,247.90545854693482 53.917517169422354,247.7080029847275 53.84240632878209,247.49609819271427 53.92878379551985,247.32753662978212 53.936294879575144,246.86037597800896 54.112805355121964,246.59067209214118 54.199182821874274,246.25353925863237 54.150360775442095,246.08015537085157 54.323115708932164,245.67077327621882 54.13909414933005,245.46367224153437 54.03393897242495,244.7315841625641 54.34940450316935,244.2595717377335 54.428270885837264,243.94649869634668 54.61980352950923,243.6237896532075 54.59351473528659,243.11322885784466 54.50713726853428,243.0072624592067 54.432026427879464,242.679727888466 54.664870033884654,242.2510382186847 54.82260279926413,241.50443108236868 55.498600365099264,240.39653253263896 55.40471181429166,239.99671689309253 55.49484482308617,239.85220407148518 55.415978440403705,239.26932952134666 55.59999999999127,238.85504903618857 55.502355907141464,238.6719932770793 55.5324002434063,238.31551347354616 55.4272450665012,238.1083681048549 55.4310006085434,237.64108210533232 55.33711205770669,237.18342470821153 55.44226723462634,236.75466645762208 55.34086759974889,236.37889639993227 55.160601582188974,236.18137459333593 55.138068329993985,235.47317731708245 54.97658002258686,235.24674381521618 55.02164652699139,235.05403327627937 54.946535686336574,234.79387233385933 54.95029122836422,234.37953787638253 54.792558462999295,234.27836242412377 54.72120316438668,233.9170190905461 54.74373641658167,233.79657046799548 54.88269147177925,233.73393701735404 55.04042423714418,233.5171280371287 55.179379292341764,233.112414279316 55.10051290967385,232.55351601241637 55.14557941404928,231.89342617405782 55.01413544292154,231.64769605975016 55.31457880552625,230.88640336895696 55.29580109534436,230.45756651210831 55.55868903764349,229.30594441084395 55.47606711291883,229.04573992673977 55.4310006085434,227.61458002245854 55.46855602884898,227.14715124054783 55.59999999999127,226.8001896800488 55.498600365099264,226.63152654408623 55.55493349560129,226.64116445988475 54.736225332526374,226.54960415057576 54.29682691470953,226.59297485384377 54.041450056480244,226.70381084665496 53.53820742414973,226.75200029717234 53.294097192017944,226.88693039882492 52.86972094235534,226.91102500405395 52.44158915065054,227.06523007712167 52.156167956170975,227.03631667867376 51.8895244718733,227.21461558132796 51.57405894114345,227.2724420536506 50.86801703902893,227.10860012917692 50.00799791357713,227.30617411753337 49.36204468399228,227.28689865652632 49.12168999390269,227.18570230865953 48.54333652090281,227.10860012917692 47.60820655481075,227.18088342750707 47.2927410240809,227.12305680101053 47.082430670256144,226.8821114757593 46.6467877944815,226.93993850799234 46.14730070416408,226.85801685023762 45.97079022861726,226.93993850799234 45.52763626880187,226.96885198759264 45.366147961394745,227.06041117907444 44.96806050594023,227.05077338093906 44.75775015211548,227.1423323539966 44.2770407719654,227.0748678712116 43.40951056244376,227.12787569026113 43.030200817171135,227.05077338093906 42.579535773271346,227.16160789615606 42.20398157001182,226.94475742296345 41.94860471179709,226.95921416377314 41.20876293139008,226.72790558035558 40.630409458390204,226.9833087182742 40.010745023027994,227.12787569026113 38.90286012343131,227.21943445775105 38.7188385638583,227.16642678001517 38.08790750238404,227.3158118440042 37.524576197509305,227.21461558132796 37.39313222638157,227.2724420536506 37.04386681733013,227.20015894803873 36.86360079978476,227.06041117907444 36.51809093277552,227.05077338093906 36.07118143091793,227.09896234456028 35.77824915236852,227.2097967042355 35.489072415890405,227.171245663194 34.58398678604863,227.29171752278853 34.268521255318774,227.44592088638456 33.76152308093151,227.47001509939582 33.382213335629785,227.68204344496917 32.060262540209806,227.66758700843639 31.868729896552395,227.56157295466255 31.35797618010838,227.69649987539742 31.1101104059926,227.53265997410563 27.880344258010155,230.15882306548883 27.132991393533302,230.5924820555956 26.595948882881203,231.00686219695854 26.554637920533423,231.14177558274605 26.250439015901065,231.3393263701073 25.886151438739034,231.86933506412242 25.495575067368918,232.22106359183454 25.03739893939928,232.44751703933798 24.89093280013185,232.65951465840772 24.646822568014613,232.73178627492962 24.357645831507398,232.95341828410528 23.86191428321763,233.49303806597163 23.745492480215034,233.52194602934105 23.373693818983156,234.1097360081476 23.020672867933172,234.3458127587437 22.31463096581865,234.55298081556248 21.939076762573677,234.8035079594556 21.46212292445125,235.27083255656544 20.786125358601566,235.58880235939796 20.639659219319583,235.77187454719024 19.83597322436981,236.34999084063384 18.74311049291282,236.90400982637948 18.50651134486543,237.08707500566015 18.26240111273364,237.39539310270266 18.048335216895794,237.90603886461759 17.77793619055592,238.18544559723887 17.597670172996004,238.55156132472257 17.105694166733883,238.84541454687133 16.842806224449305,239.21634043557424 16.57240719810943,239.3319528810025 16.501051899511367,239.47165073355427 16.117986612181994,239.79439877266122 15.8926540902321,239.81848432565312 15.712388072672184,239.99671689309253 15.288011822995031,240.12677791287933 14.484325828030705,240.8204283707164 14.011127531950478,241.09017754497108 13.703173085290473,241.05164207829148 13.053464313634322,241.24431897949762 12.914509258436738,241.35992460164198 13.004642267231247,241.35029081464745 12.922020342506585,241.34547392013337 12.93328696860408,241.43217791797724 12.809354081531637,241.5622335045009 12.711709988681832,242.14025237823444 12.749265409031068,242.50632596950527 12.527688429079717,242.7038114191273 12.39999999999418,243.30589420004617 12.403755542021827,243.71048790278655 12.497644092829432,244.21622333288178 12.65537685820891,244.50039521348663 12.580266017554095,244.85681086062323 12.749265409031068,245.44922328557368 12.700443362584338,245.8875055808021 12.884464922186453,246.28725269080314 12.854420585936168,246.42210608874302 12.982109015036258,246.74478885748977 12.914509258436738,246.8940888149482 13.06097539770417,247.279376031398 13.049708771606674,247.7031869812381 13.192419368846458,248.09328107782858 13.684395375094027,248.59895202141706 13.887194644848933,248.99866759829456 13.860905850640847,249.6199030642856 14.052438494298258,249.98589699795411 14.105016082758084,250.6937952595872 14.101260540715884,251.97471696536013 14.018638616005774,252.64886711472718 14.048682952256058,253.45301464674412 13.879683560793637,254.1560264212785 14.243971137955668,254.17047171797458 15.013857254612958,254.79161373500756 15.242945318605052,254.87346882290876 15.975276014927658,254.859023821562 16.44471876900934,254.96013870359093 17.19958271754149,255.32607579127216 17.443692949658725,255.66311966339345 17.747891854291083,255.8846038376323 17.976979918268626,256.4094193377314 18.20606798226072,256.6646019618165 18.363800747611094,256.99200330979875 18.566600017366,257.17496152887907 18.510266886893078,257.82493680356856 18.431400504210615,258.03677794222676 18.491489176725736,258.8745005700148 18.2511344866507,259.6544308795492 18.044579674853594,260.7809656568097 17.781691732583568,261.75341472107175 17.834269321043394,261.9363476109975 17.8230026949459,262.446628951031 17.361071024948615,264.24699509166385 17.011805615911726,264.8583279377126 16.98176127964689,265.45039584942424" stroke="#ff0f00" stroke-linecap="round" stroke-linejoin="round" stroke-width="0.5"><title>2021-05-03 34.6km</title></polyline><polyline fill="none" points="112.65298728445487,258.1496314236356 112.38961853334331,257.985745106198 112.05476397837629,257.9809249085956 111.9268420135777,257.8989814463712 111.40010451139824,257.8170377894203 110.68900888347707,258.106249827164 110.50841316842707,258.0243066627263 110.27138129246305,258.0435874248069 109.88761539800907,258.20265330076654 109.75216861172521,258.14481124895246 108.98463682284637,258.2797758856286 108.31492771292687,258.1737322869776 107.95749869359133,258.3086968104726 107.86720083608816,258.289416196596 107.49095976310491,258.51596272884854 107.31788886952563,258.4050997181621 107.12976833304856,258.45330107094196 106.85134993902466,258.2171137985679 106.55788190210296,258.2942363510847 106.36223654414061,258.15927177099 106.00480752481963,258.1737322869776 105.85431109562342,258.1014296464127 105.25232537885313,258.21229363331804 105.01529350287456,258.16891211566326 104.69548859083443,258.24603477598066 104.49984323288663,258.18337262761634 103.96934331997181,258.2701355719473 103.65706322940241,258.2363944528588 103.08893920917762,258.4050997181621 102.79170876153512,258.6364655971265 102.40418045636034,258.7473278640791 102.06932590140786,258.66538622286316 101.34318063054525,258.86300984962145 100.68852116355265,259.29199382522347 100.07901062532619,259.1281129363233 99.92475178539462,259.20523345163383 99.54851071241137,259.20523345163383 98.58157115484937,259.4173139795239 98.11879463508376,259.5715535443269 97.93067409859214,259.528173736453 97.45661034662044,259.59083344143073 97.0352203448856,259.52335375443363 96.64016721825465,259.6534930325688 95.97422051907051,259.6390331370203 95.27441212331178,259.8221913659436 94.72886256749916,259.8221913659436 94.58965337049449,259.76435203031724 94.23598676189431,259.92340996988787 93.73558613481873,259.9860689568086 93.3969691691309,259.79809165455663 92.95300470302755,259.78845176528193 92.06507577076263,259.9716092007038 91.53833826859773,259.96196935993066 91.52705103640619,259.88003060457777 91.33140567844384,259.7836318196387 90.98902630204975,259.7691719786526 90.77080647970433,259.8655708040096 90.56763630030036,259.85593093359785 90.03337397666473,260.1065666886243 89.50287406373536,260.04390792061895 89.12663299075211,260.1836850160289 88.88207629331737,260.16922534279 88.70524298901728,260.255983291383 88.52088486326102,260.2318838831052 87.74959066364681,260.4102191056154 87.19275387562811,260.2849025590913 86.72621494512714,260.38129994297924 86.35749869360006,260.27526280588427 85.95115833477757,260.37648008018004 85.81194913778745,260.511435983859 85.16481449225103,260.42949853388563 84.35213377460605,260.5307153555477 84.10757707715675,260.4825169060932 83.97213029088743,260.3861198050945 83.5695523428003,260.40057938741666 82.75687162514077,260.2800826828134 82.4182546594675,260.3090019303163 82.08340010450047,260.26080317102605 81.80874412124103,260.0969268855588 81.30834349416546,259.9282298960061 80.19466991812806,259.8655708040096 79.97268768507638,259.7932717102485 79.16376937815221,259.812551483421 78.99069848458748,259.72579241934 78.78752830515441,259.72579241934 78.64831910814974,259.6052933571773 78.4564361609373,259.6197532668739 78.44891133948113,259.5137137883612 78.39999999999418,259.5619135917368 79.32179062880459,259.15703314976054 79.50991116529622,258.973871388338 80.00654938165098,258.8292693105868 81.28200661906158,258.0146662776351 81.61686117401405,257.8941612366507 81.9968646577181,257.63386891103437 82.56498867792834,257.3687543375854 82.77944608952384,257.1663018362997 83.58460198571265,256.8336987182083 83.76519770073355,256.63124307569524 85.58244208326505,255.74428053612428 86.66977878416947,254.87175708224095 87.02720780351956,254.70303452989174 87.16641700050968,254.70303452989174 87.85117575334152,254.19204119198184 88.24622887998703,254.05223980851224 88.46068629158253,254.06670204687543 88.82187772163888,253.96064549131188 89.34109040236217,253.5556992784077 89.99951228009013,253.1989570075857 90.09733495906403,253.04950982412993 90.31179237067408,252.96273374293742 90.40585263891262,252.803643693489 90.95140219472523,252.5915224856435 91.09437380247982,252.44689364115038 91.28625674969226,252.44207266920785 91.45932764327154,252.24441223956455 91.77913255529711,252.13835007846865 92.43755443302507,251.42483251377053 93.01696568542684,251.15484904382174 93.39320675839554,251.1452067379323 94.08172792194819,250.86557869406897 94.32628461939748,250.83665152559115 94.51816756663902,250.70647896711307 94.61599024559837,250.54255726837437 94.9884689078608,250.34488594793584 95.4437206061557,249.7422224876209 95.91402194737748,249.35169093967124 96.33917435987678,248.91294034308885 96.40689775299688,248.75865309187793 96.58373105729697,248.6381156963871 96.72670266503701,248.27650098098457 97.49047204319504,247.90041765278875 97.99839749172679,247.3845017966123 98.05859606340528,247.23502940495746 98.30691517156083,247.0469825722248 98.5439470475394,246.6515987059429 99.24375544329814,246.39122148792012 99.51464901585132,246.03440506861807 99.77425535621296,245.89939248725932 100.07901062532619,245.0121537953528 100.71109562793572,244.70354367919208 100.79010625326191,244.57817003015225 101.0158508970635,244.44315174423173 101.42971607732761,243.88860680807556 101.75704581083846,243.58480884259188 102.06932590140786,243.06882838355523 102.14081170527788,242.54319548661806 102.38536840271263,242.07542368959548 102.4568542065681,241.64622542426514 102.56972652848344,241.55942063081238 102.76537188641669,241.17844145159324 102.76537188641669,240.98071641986826 102.63368751088274,240.74440940595377 102.68259885035513,240.5129234129381 102.86695697612595,240.16569150763826 103.30339662080223,239.79434240361297 103.48022992510232,239.52426781429313 103.73231144397869,239.42298929756362 104.26281135690806,238.90212365208208 104.58261626893363,238.72850002053383 104.68796376937826,238.4101877570647 105.41410904022632,237.76873138313385 105.53826859431865,237.7446162489432 105.92579689949343,237.18514039748698 106.07253091795428,237.09350124558478 106.36223654414061,236.6208322753664 106.96798467166082,236.62565546086626 107.73175404981885,236.22532876619516 107.97254833651823,236.05169164504332 108.00264762235747,235.9069933755818 108.20205539105518,235.77676441343647 108.29235324855836,235.6320649892623 108.99216164430254,235.10149523420478 109.12008360911568,234.83138385640268 109.66563316494285,234.62879893321588 110.22999477441772,234.136802017023 110.93732799164718,233.7219756278755 111.24960808221658,233.6496216762789 111.68604772687831,233.41326437534372 112.73576032050187,233.2106711123488 113.37913255530293,233.18172912038426 113.86072112871625,233.0032529658638 114.33478488068795,232.94054490826602 114.97063229401829,232.55947041122272 115.62152935029007,231.9323766191519 115.9225222086825,231.78283718293096 116.03539453055419,231.62364932778655 116.78411426579987,231.4837563628971 116.85936248040525,231.49340417182248 116.840550426743,231.54164317589675 116.9082738198922,231.4789324574158 117.20926667828462,231.46928464445227 118.22511757533357,232.1928631189403 118.47719909423904,232.24110114348514 118.96255007837317,232.17839169841318 119.76394356384117,232.39063859025555 120.24176972651912,232.66559284658797 120.42612785228994,232.9743107996146 120.80236892527319,233.2878496387566 120.97920222955872,233.74609357796726 121.18237240897724,233.9776250397299 121.35544330254197,234.35868384911373 121.53603901757742,234.45515376512412 121.56990071415203,234.57574078027392 121.47960285664885,234.98091005938113 121.50593973173818,235.30890074760464 121.59999999999127,235.5259516919541 121.24257098067028,236.9680999058728 121.01682633688324,238.22691572593249 120.78355687162548,239.01787225374574 120.83999303255405,239.74129220491886 120.65939731753315,240.45505167170995 120.33959240550757,241.06752267106276 120.30196829821216,241.71856258509797 120.1665215119283,241.92592827129192" stroke="#ff8a00" stroke-linecap="round" stroke-linejoin="round" stroke-width="0.5"><title>2021-05-02 22.6km</title></polyline></svg>