<?xml version="1.0" encoding="utf-8" ?>
<svg baseProfile="full" height="300mm" version="1.1" viewBox="0,0,200,300" width="200mm" xmlns="http://www.w3.org/2000/svg" xmlns:ev="http://www.w3.org/2001/xml-events" xmlns:xlink="http://www.w3.org/1999/xlink"><defs /><rect fill="#222222" height="300" width="200" x="0" y="0" /><text fill="#FFFFFF" style="font-size:12px; font-family:Arial; font-weight:bold;" x="10" y="20">Over 10km Runs</text><text fill="#FFFFFF" style="font-size:4px; font-family:Arial" x="10" y="280">ATHLETE</text><text fill="#FFFFFF" style="font-size:9px; font-family:Arial" x="10" y="290">DingXiaoshan</text><text fill="#FFFFFF" style="font-size:4px; font-family:Arial" x="120" y="280">STATISTICS</text><text fill="#FFFFFF" style="font-size:3px; font-family:Arial" x="120" y="285">Number: 13</text><text fill="#FFFFFF" style="font-size:3px; font-family:Arial" x="120" y="290">Weekly: 1.1</text><text fill="#FFFFFF" style="font-size:3px; font-family:Arial" x="141" y="285">Total: 299.0 km</text><text fill="#FFFFFF" style="font-size:3px; font-family:Arial" x="141" y="290">Avg: 23.0 km</text><text fill="#FFFFFF" style="font-size:3px; font-family:Arial" x="167" y="285">Min: 11.2 km</text><text fill="#FFFFFF" style="font-size:3px; font-family:Arial" x="167" y="290">Max: 36.1 km</text><polyline fill="none" points="30.59258196983137,70.93767727971499 29.817665588692762,71.21962234333841 26.616153911221772,72.70241720679041 22.334187393746106,75.59999999999854 22.090642245399067,75.54257213391611 21.900234220316634,75.1353543809928 21.785103786533,73.55865811813055 21.953371343610343,72.09155305327295 22.214628866378916,70.91679239415316 23.268515144707635,68.46797640883597 24.15856195962988,65.93026522138825 25.154883021081332,63.789293138488574 25.123886365821818,63.26186824177421 25.23901679960545,62.9015449213548 26.478883009403944,60.452318873005424 27.84273584021139,58.64012425088731 28.44052847707644,57.72094455052502 30.84055521179107,52.29951415436517 32.30182610193151,49.30649601023106 33.24501004011836,46.97672223677364 33.31143144422094,46.89314079974429 33.45313043962233,46.96105072845967 33.45313043962233,47.12298940010078 33.28043478896143,46.85135002643801 33.3158595378045,46.914036172700435 33.28486288257409,46.85135002643801 33.32028763141716,46.8983646438428 33.55940468615154,46.28717101247457 34.19705016550142,45.237153459340334 38.09377253917046,40.98983227027202 38.81555179704446,40.56142222314884 39.07680931984214,40.31586839209194 39.62589292702614,39.40156112118348 42.10119725303957,36.71600893210052 42.61042801779695,36.07855999016101 45.18757849675603,32.41045085559017 45.34256177296629,32.39999999999782 46.11305006049224,32.812807058217004 46.214896213437896,33.068850150564685 45.11672899904079,37.09742923365775 44.49679589414154,38.99926038197009 43.49604673907743,41.334647324601974 43.29678252679878,41.96157741560819 40.97646147699561,47.14910848933141 39.99785278996569,49.060987083274085 38.36831434277701,51.322755695287924 37.60668224247638,53.45383934810161 36.083418041846016,55.6370569967512 35.79559195743059,56.20634857193363 35.361638784001116,58.11264260446478 35.47234112417209,60.69776935192567 35.34392640955048,61.99289145938019 35.29964547351119,64.00861663223986 35.512193966598716,65.81016444453053 35.24650835021748,65.6378454123369 35.20665550776175,65.93026522138825 35.32178594151628,66.23312671200256 35.242080256633926,66.31145264773295 35.14909029088449,66.25923537147901 34.954254172189394,66.31667437222131 33.88265551941004,65.6430672103088" stroke="#ff9a00" stroke-linecap="round" stroke-linejoin="round" stroke-width="0.5"><title>2023-07-29 21.0km</title></polyline><polyline fill="none" points="100.29546492669033,72.11271929259237 100.36933115834836,71.97571679790417 99.58845956641017,71.62698243098566 99.30354695860296,71.07896912412252 99.36686087149428,68.86197927185276 99.01863435073756,67.75346815098601 98.73372174287215,67.3050785632513 98.1955534836161,67.34244442969066 97.868431600451,66.98124054010259 97.61517594906036,67.03106183440104 97.6362805867102,67.39226556588983 97.25639710953692,67.80328910725802 96.64436261862284,67.89047572821437 96.0112234900007,68.36377336232545 92.95105103525566,69.49718864353054 91.9063714731019,70.15730443027132 91.24157538812142,71.19106296972313 90.02805872505996,70.71777709286835 90.53457002789946,70.28185414939071 91.81140060391044,69.7338343658339 92.61337683338206,68.55060083395074 93.94296900340123,67.41717612579669 93.39424842526205,67.4296314036983 93.67916103312746,67.11824904695823 93.04602190456353,66.86914254815201 91.7902959662024,66.79441049216257 91.42096480797045,67.18052558645286 91.08329060603864,68.11466958972596 89.50044278457062,69.13599159247678 89.41602423408767,69.54700883650366 89.60596597270342,69.75874441321503 90.58733162190765,70.29430911377858 90.07026800030144,70.59322785079712 91.81140060391044,69.74628939020477 92.48674900765764,68.6626971697624 93.91131204698468,67.46699722925405 93.3625914688455,67.4794525017569 93.6475040767109,67.05597247338301 92.98270799173042,66.89405322255334 91.9063714731019,66.80686583825445 91.50538335839519,67.00615118996211 90.68230249121552,65.5115025458872 90.50291307148291,64.07911250810139 89.97529713099357,63.41896146480576 89.95419249340193,63.057745122023334 89.50044278457062,62.273029805655824 88.87785597483162,61.961633339102264 88.4768678600667,62.14847132127761 87.84372873156099,61.961633339102264 87.76986249984475,61.426029423309956 87.14727569004754,61.45094128923665 86.7251829377492,60.765862988737354 86.00762525870232,60.49183051363798 84.94184105889872,60.765862988737354 85.34282917366363,59.38323785677494 85.22675366676413,58.42410965259478 85.92320670816116,57.75146946559107 87.31611279101344,58.150071537871554 88.50852481648326,58.7355158000064 89.21553017676342,58.66077840234357 90.57677930319915,57.90094540632708 90.81948263576487,57.53971154671308 91.07273828715552,56.1196776729048 90.97776741790585,55.65878567627806 90.00695408741012,52.75636885305721 89.47933814697899,51.97158248878986 89.09945466980571,50.775707142965985 89.14166394504718,50.48919347469928 90.14413423195947,49.7293059033982 90.00695408741012,49.168729851502576 90.11247727554291,48.50849229226151 91.18881379405502,44.79614183923695 91.16770915646339,44.297830542433076 90.80893031693995,43.74968559453555 91.01997669314733,42.69076173754729 90.57677930319915,41.968196270834596 90.74561640410684,41.73149279221252 91.43151712667895,41.3079169168559 91.60035422764486,40.97154671567114 92.00134234240977,41.02137940085959 92.40233045717468,42.4291437365755 93.75302726478549,43.21399593424576 93.97462595981779,43.21399593424576 94.53389885666547,42.5661818121298 95.32532276742859,42.092776851175586 95.76852015737677,42.4416017502881 95.88459566427628,42.92746321991581 96.41221160476562,42.84025746792031 97.9739547885838,43.74968559453555 98.45936145383166,43.81197492620413 98.56488464190625,43.562817394937156 98.57543696073117,43.861806366970995 99.81005826138426,43.176622142891574 100.86529014236294,42.977295048163796 100.90749941760441,41.9931123977949 101.46677231451031,40.809590338096314 103.40839897544356,39.376889262312034 104.41086926235585,38.3054662284776 105.86708925804123,37.956628644053126 107.42883244185941,36.83535773314361 109.19106968306005,36.13767247601936 110.20409228873905,35.302936276792025 110.65784199757036,35.464900496015616 111.81859706656542,35.464900496015616 113.14818923658459,34.991465976163454 114.14010720467195,35.103595382664935 114.6149615510949,34.54294724461215 114.57275227585342,33.75803520788031 115.27975763607537,33.42164267660701 115.60687951918226,32.94819965053466 116.38775111112045,32.39999999999418 116.21891401009634,32.674100155592896 115.80737357656471,32.82360905293899 116.3560941547039,32.51213196168101 116.57769284961978,32.5744274482131 117.30580284749158,33.32197062436899 117.41132603562437,33.79541209437593 117.91783733846387,34.281310500948166 118.05501748295501,34.7547479771747 118.43490096007008,34.817042235212284 118.5509764670278,35.066218926091096 118.68815661151893,37.85696056627057 118.51931951055303,38.60446902067633 118.14998835226288,38.841179007031315 117.23193661583355,38.96576301249297 116.76763458823552,39.72572249071527 116.4194080674788,39.98734670985141 115.22699604200898,40.37355279069743 114.69938010157784,40.248970327258576 113.91850850969786,41.34529132228636 113.12708459899295,41.71903470075631 112.9899044544436,42.92746321991581 112.45173619518755,43.87426422374119 109.33880214637611,44.85843059787294 107.17557679046877,45.817673173376534 106.6374085311545,47.66138943439728 105.95150780852418,48.49603494301118 105.61383360665059,49.442789599794196 105.27615940471878,49.828963578969706 104.47418317518895,49.928621167237 104.12595665454865,50.57639336318243 103.27121883089421,50.41445065998414 102.40592868858948,51.03730594903027 101.48787695216015,50.97502057356178 100.47485434642294,51.26153301827435 99.34575623378623,51.13696247879852 98.91311116260476,51.273990064742975 98.37494290334871,51.722442828366184 98.39604754099855,52.768825735824066 97.11921696498757,53.79028548172937 96.47552551765693,55.571589683117054 95.8951479831594,56.26915575739258 94.78715450817253,57.01654323404364 91.48427872074535,57.327953233761946 89.32105336483801,58.67323463867797 88.75122814910719,58.77288448041509 88.07587974530179,58.7355158000064 87.18948496528901,58.199896698737575 86.12370076560182,57.83866378822131 85.51166627462953,58.025508540267765 85.2689629420056,58.33691577859281 85.4378000429133,59.1216582392226 85.17399207275594,60.36727007955051 83.92881845321972,62.77126237974153 83.47506874438841,63.07020087708224 82.92634816630743,63.07020087708224 82.5148077327176,63.30685996393004 82.25099976250203,64.09156815137248 81.47012817062205,64.88872648387769 81.31184338842286,65.6609682936396 81.31184338842286,67.15561497477029 82.27210440015187,67.52927357794397 83.21126077417284,68.58796629148856 86.55634583672509,71.29070185093587 89.04669307579752,75.59999999999854 91.67422045930289,75.25127673702082 97.72069913713494,73.80655469467456 98.07947797665838,73.6570996437149 98.20610580238281,73.24609724169568 99.75729666737607,72.74791052228102 99.91558144951705,72.47390689715394" stroke="#4dd2ff" stroke-linecap="round" stroke-linejoin="round" stroke-width="0.5"><title>2023-06-17 17.5km</title></polyline><polyline fill="none" points="145.44548444218526,54.538747460090235 146.4581836579746,54.030454400952294 146.36347078168183,54.379118898894376 146.5055400961137,54.81179490535578 146.3998988110252,54.916812679894065 146.5091828990553,55.12264675466213 146.0028332911752,55.48810476412473 145.6968378446618,55.17725562524356 145.58391095369007,54.94621760960581 145.4709840627329,54.97982321829841 145.3835567923088,54.916812679894065 145.28520111307444,55.00922810380507 145.28520111307444,55.17725562524356 145.1504174044967,55.349483135640185 144.39999999999418,56.05518847036001 144.46557045281224,56.17280487101743 144.6331393878063,56.27781923557268 145.54748292433214,56.49204772347002 147.5874525676627,57.60517812488615 148.26501391347847,58.23523883688176 148.29779913988023,58.38645199872917 148.2176574753248,58.579668022939586 148.77864912722725,58.93249498683872 149.50356691119669,58.970297699703224 149.88241841638228,58.92409437934475 150.21755628634128,59.01650096916637 150.6765494561114,58.51246255031583 151.29582595496322,58.20163583795511 151.7766759423248,58.43685626480874 152.24295471791993,58.898892546771094 152.70559069060255,58.60066971105698 153.17186946621223,59.08790592178775 153.99514292940148,59.57093623102992 154.1699974702642,59.621339073088166 154.3994940551347,59.47433061436823 154.76741715151002,59.583536947222456 155.25190994179866,59.56673599144415 156.3921072603116,59.42812784946727 156.39939286616573,59.32312137621193 156.81467240068014,59.25591709532091 157.02231216797372,59.37772477512772 157.53230457879545,59.42812784946727 157.81280040473212,59.51633308374949 158.0641538072232,59.68014231225243 158.3446496331744,59.96995707178576 158.53407538577449,60.69238514316385 158.71257272954972,60.98219290617635 158.7490007588931,62.04060424260024 158.71257272954972,61.452601242745004 158.72714394128707,61.22999795552823 158.78907159119262,61.18379712518799 159.02585378191725,61.288798938698164 159.222565140386,61.57020250233472 159.63055906904629,61.61640290692594 160.03855299770657,61.38120031708968 160.0895522387873,61.22579788213989 160.33362003539514,61.25519838697437 160.50483177331625,61.20479750892264 160.6687579053687,61.01159358182849 161.33174803943257,61.09559539863403 161.4592461421562,61.16279673093595 161.60495825952967,61.39800054582156 161.83445484440017,61.494601730461 161.9692385529779,61.683603404580936 162.43187452566053,62.0112042884175 162.76336959270702,62.35140249744654 163.25150518592272,61.88100424361255 163.2442195800395,61.74660377332111 163.43000252969796,61.72140363717699 163.96913736400893,61.351799900596234 164.68676954209513,61.05359451127151 165.53918542877364,60.77638759947149 166.4389577536058,60.63358332362259 166.75588160888583,60.51597943713932 166.82873766757257,60.56638114315501 167.156589931692,60.53698015534246 167.33873007840884,60.583181698373664 167.60101188969566,60.53278001253784 167.86329370096792,60.26396999823555 168.06364786236372,60.21776810347728 168.32592967365053,60.024559628305724 168.58456868199573,59.688542768250045 169.0180622311891,59.583536947222456 169.24391601313255,59.28951924923604 169.39691373638925,59.75994657633419 168.91606374902767,60.242969143288065 168.5627118643897,60.48237826613695 168.5153554262506,60.541180297728715 168.52628383504634,60.70918564788735 168.90513534023194,60.864589997461735 169.43334176571807,61.372800200191705 169.96883379711653,61.56180242328992 170.0963318997965,61.784403949117404 170.53346825193148,62.04480423436689 171.54616746773536,63.216585508329445 171.98330381987034,63.37618042446411 172.1836579812516,63.283783441776905 172.9632178092288,63.14518758605118 173.385782949641,63.283783441776905 174.60976473563642,62.88059422594961 175.3346825195913,63.02759074321875 175.61517834554252,63.15358734792244 176.52952188209747,63.0779894305233 176.94844421956805,63.245984617457 177.5094358714705,63.304782773899205 178.0194282822922,63.19138625551932 178.99934227167978,62.73779711579482 179.65140399693337,62.67059830748258 179.96468504931545,62.683198092236125 180.39453579558176,62.872194409399526 180.88267138879746,63.308982639067835 181.11581077659503,62.99819148097595 181.6367315962416,62.859594681423914 182.2632937009621,62.918393379597546 182.56200354159228,63.00239137686003 183.10478117884486,62.6285989975986 183.10113837590325,62.347202536377154 183.257778902087,61.98600431130399 183.39620541359182,61.83060411773113 183.56741715151293,61.75500381532402 183.48727548695751,61.73820372962291 183.49456109281164,61.683603404580936 183.66941563367436,61.57020250233472 183.70584366303228,61.44000108823093 183.84791297746415,61.385400374911114 183.86976979507017,61.20899758440282 184.0009107007063,61.1417963261556 183.9353402479028,61.078795048742904 183.94626865669852,60.91919138895901 183.82605615985813,60.856189777081454 183.88798380973458,60.56638114315501 184.16847963570035,60.27237033726851 184.43804705284128,59.688542768250045 184.75861371109204,59.51633308374949 184.75497090815043,59.31052058175919 184.88975461672817,59.12990877829725 184.83875537564745,58.865290079786064 185.0391095370287,58.76448251722104 185.27589172778244,58.79808506500558 185.53088793320057,58.73928058870297 185.8113837591518,58.928294683308195 186.08095117630728,59.02070126385661 186.3760182140104,59.28951924923604 186.47437389321567,59.1887127067057 186.61280040473503,59.22231491447383 186.6091576017934,59.06690447775691 186.72572729570675,59.15511047200198 186.8495825954742,58.96189709979444 186.83865418667847,58.83168758585089 187.12279281555675,58.82328695817705 187.23936250947008,58.95769679921432 187.31586137108388,58.96189709979444 187.59999999999127,58.667875042297965 187.55992916767718,58.42845555801614 187.1082216038194,58.16803281209286 187.01350872752664,57.95381288907083 187.00986592459958,57.588376376279484 187.25029091825127,57.44976169326037 186.8823678218905,56.912100404064404 186.72208449276513,56.475245528701635 186.75122691625438,56.26101695491889 186.93700986591284,56.16440371048884 186.92972426002962,56.09299377799107 186.7293700986338,56.02578431863003 186.4379458638723,55.79055036221325 186.52173033135477,55.584719567406864 186.80951176318922,55.210861048690276 186.7293700986338,55.042833661977056 186.8167973690579,54.88740772954043 186.7293700986338,54.80759418890739 186.4816594990989,54.828597766965686 186.35051859344821,54.67317104005633 186.3578041993169,54.311906691244076 186.1028079939133,53.86242228181072 186.16473564378975,53.635577852273855 186.15745003793563,53.54736024252634 186.0736655704386,53.480146700927435 186.16837844673137,53.29530890571914 186.1501644320524,53.18608618898725 185.97530989118968,53.00964889138049 185.93159625597764,52.87521997556178 185.68024285351567,52.77859892595734 185.8113837591518,52.69458044087514 185.04275233997032,52.53914579939374 184.8059701492457,52.375308661274175 184.68940045533236,52.4215192009724 184.63475841132458,52.198867949991836 184.44897546165157,52.1694610925515 184.42711864404555,52.07703940626379 184.2413356943871,52.00982350637787 184.58011636730225,51.74936087593596 184.5655451555649,51.459489270822814 184.23769289146003,51.337658577394905 184.41619023524981,51.266240420027316 184.13933721222566,51.36706601858532 183.9863394889835,51.35446283203419 184.091980774072,51.04358303039044 183.78598532757314,50.84193003386099 183.73862888943404,50.736902047141484 183.80419934223755,50.49743725299413 183.78598532757314,50.31258630047523 183.4508474575996,50.463828049563745 183.2395648873935,50.266373434915295 183.03192512014357,50.2621722627955 182.90806982036156,50.40921303648065 182.736858082455,50.426017663463426 182.6785732355056,50.375603762277024 182.68221603843267,50.45122459131744 182.50736149756995,50.32518980041641 182.47093346824113,50.19915463038342 182.27422210978693,50.131935718014574 181.78972931948374,49.80844319390599 181.52016190232825,49.564771851139085 181.38902099669212,49.333702889372944 181.17409562357352,49.28328767380299 181.16316721476323,49.16145065239107 180.75153048314678,49.1782557798615 180.61674677456904,49.35050794773633 180.4491778396041,49.40512434090124 179.98654186692147,49.23707367290626 179.778902099657,49.027009389981686 178.22706804957124,49.858857777540834 177.33822413354937,50.665482865784725 177.12329876043077,50.522644137869065 176.79908929925296,50.47643150400472 176.04502909180883,50.49323610403371 175.76817606878467,50.35459795220595 175.29825449023338,50.30838513297931 174.68990640019183,50.66968399747566 174.40212496835738,50.75370654269864 174.15805717174953,51.236832908074575 173.92491778393742,51.19062106187266 173.53513786994154,51.215827529758826 173.33114090563322,50.95115886077474 173.0215026562073,50.795717752138444 172.99600303564512,50.644477201047266 172.75193523903727,50.37140260110391 172.62443713634275,50.31678746754551 172.1836579812516,49.665601544169476 171.96144700226432,49.447136902581406 171.88494814063597,48.98919770720022 171.72102200858353,48.728716298472136 171.1782443713455,48.27497062188195 170.50796863141295,47.9430609498595 169.92147735894832,47.40107621203424 169.7939792562247,47.44309078352671 169.40055653933086,47.41368058790977 168.82863647860358,47.56073135951374 168.72299519350054,47.52291835325377 168.65378193774086,47.45149369276987 168.65742474068247,47.30444253771202 168.18386035920412,47.10277154275536 168.12193270929856,46.9893311814194 168.17293195040838,46.92630862570513 168.18021755627706,46.57758210351312 167.9944346066186,46.50195428187726 167.76129521879193,46.20364320943554 167.4735137869866,45.77928154420442 167.50265621044673,45.649031061839196 167.2913736402552,45.661635964941524 166.9598785732378,45.25827718446817 166.81052365290816,45.24147048431405 166.7158107766154,45.338108918091166 166.53731343281106,45.37172223410016 166.32603086261952,45.55659498993191 165.55739944343804,45.6826441283265 165.47725777888263,45.623821244284045 165.1457627118507,45.632224518492876 164.9964077915356,45.57760320600937 164.75962560079643,45.28768889350613 164.6102706804959,45.21626042144999 164.39534530733363,45.22886545476649 163.97278016695054,45.45155375148897 163.99463698455656,45.0944115703096 163.49557298253058,45.01037767332309 163.41178851503355,44.884326511724794 163.46643055905588,44.80449391314323 163.3389324563468,44.88852822321496 163.20414874776907,44.863317947896576 163.14586390083423,44.93894872832243 162.7888692132401,44.76667841860035 162.4974449784786,44.79609047285703 162.34444725523645,44.62381957553225 161.1532506956719,45.14903351293469 160.63232987603988,45.26247885846169 160.51940298506815,45.443150441042235 160.3627624588844,45.45575540608843 160.57404502906138,45.58600648949141 160.57040222614887,45.91793483840229 160.52304578798066,45.95574929353097 159.8017708069674,45.670039231557894 159.76534277762403,45.91373323017979 159.49577536046854,46.1994416298694 159.52491778394324,46.25826370553477 159.40470528710284,46.42212476646091 159.47391854286252,46.50615583109902 159.3609916518908,47.06495812310459 159.22985074625467,47.24982340578208 159.23713635212334,47.61535008606006 159.33913483428478,47.867435593449045 159.30634960788302,47.98087357687109 159.10963824941427,48.153130668015365 159.16792309637822,48.53965619713563 159.0841386288812,48.57746828565723 159.0404249936546,48.84215194973876 158.64335947379004,48.91357423924637 158.4903617505479,49.40512434090124 158.53043258283287,49.64459537813309 158.90564128507685,49.86305899011131 159.15699468756793,49.884065046611795 159.2262079433276,49.9638879652739 159.21892233745893,50.09412503242493 159.40106248416123,50.1151309730667 159.51398937516205,50.0647166978124 159.54313179860765,50.20755698685389 159.38649127243843,50.30838513297931 159.43020490765048,50.51844299146251 159.29177839614567,50.56045443677431 159.30999241081008,50.661281733671785 159.19706551983836,50.984767673318856 158.98578294964682,51.085593949173926 158.73807235009735,51.4972987243309 158.76721477357205,51.7157526766714 158.91656969388714,52.05603444912413 158.763571970645,52.28288742896257 158.4138628889341,52.25348063049023 158.3555780419847,52.547547686644975 158.10422463949362,52.56015051436407 158.0240829749382,52.740790628526156 158.0350113837485,53.00544799428462 157.87472805463767,52.97184080239094 157.75451555779728,52.87101906499447 157.65251707563584,52.46352873832075 157.4412345054152,52.29128936760753 157.32830761445803,52.31229420681484 157.09881102958752,52.17366207345913 157.11702504425193,52.02662749145384 157.05874019730254,51.97201451530418 156.7272451302706,51.82918024119135 156.59610422460537,51.67794342025081 156.3738932456181,51.845984298703115 156.18811029595963,51.86278834947734 155.96225651403074,51.48469557695353 155.85297242598608,51.4468861120622 155.54333417656017,51.50570082048216 155.29926637995231,51.65693826308052 155.02969896279683,51.627531025314966 154.77834556033486,51.761963943710725 154.54884897546435,51.745159852504 154.1226410321251,52.0854413861598 154.0461421704822,52.564351456087024 153.95142929418944,52.711384151381935 153.6818618770485,52.87521997556178 153.6199342271575,52.97184080239094 153.3940804452286,52.879420885710715 153.05529977231345,52.90882724495532 152.62180622310552,53.22809495986803 152.1919554768392,53.44653988971186 151.9624588919687,53.425535619015136 151.81310397165362,53.34571929435333 151.68924867188616,53.366723605056904 151.56903617506032,53.22389408468371 151.42696686059935,53.21549233303449 151.13189982291078,53.05165783914708 150.97525929672702,53.06846140644848 150.83683278520766,52.950836293774046 150.5417657475191,53.11047029526162 150.30498355677992,53.060059623636334 150.1629142423335,53.34571929435333 149.97348848974798,53.37512532639448 149.8860612193239,53.50955263864671 149.76584872246895,53.44653988971186 149.48899569945934,53.543159399341675 149.45621047304303,54.127072564402624 149.34692638502747,54.08086390533208 149.29592714394676,53.87082390375872 149.21942828230385,54.13967491713265 149.02271692384966,54.089265483489726 148.92800404754234,54.127072564402624 148.91343283581955,53.98424563534354 148.47993928659707,54.0598599525365 148.3997976220562,54.01785201538587 148.3087275486905,53.66918451190941 147.99544649632298,53.59356948983259 147.91530483175302,53.95063922836198 147.82059195546026,54.009450422901864 147.68945104980958,54.03885598921988 146.72775107513007,53.92123360014375 145.48191247152863,54.500940750556765" stroke="#ff0000" stroke-linecap="round" stroke-linejoin="round" stroke-width="0.5"><title>2023-04-15 36.1km</title></polyline><polyline fill="none" points="15.345409216242842,112.34780069969929 15.204103285330348,111.58713956685824 15.22176652669441,110.70142295410915 15.036302492400864,110.21687690221006 15.062797354446957,110.09183196026424 16.877695404429687,108.92994035760421 18.06996419635834,108.25780179163485 18.383486730541335,108.33595792580672 20.878419572953135,111.56108931313065 22.17225200275425,112.29570100927594 25.56359434433398,114.73911521368427 28.99909478929476,117.08863423816729 30.853735132317524,118.7712563265959 31.171673476841534,118.92753400297443 32.42134780323249,119.83393442782108 37.9278632979549,123.5270776251491 38.13540638392442,123.59999999999854 38.55049255595077,123.03224427971509 38.86401509013376,122.40197542821261 40.27707439911319,117.9794415625438 40.926198519184254,116.74480941662114 41.46051157035981,116.15613389077407 44.71937960173818,113.32726428352544 48.9408942873124,108.3463787340188 52.963697507599136,102.04658452156946 52.85330224907375,101.8746181641327 48.06656383990776,97.4032749986909 46.331150376063306,95.46452025992039 45.78358989380649,94.95897177927691 39.57937636532006,90.67462386543775 39.455733675771626,90.75802117699641 39.1333795209066,91.73792864794086 38.19281191835762,93.03054170464748 37.65408305681194,93.97913057980622 37.58784590169671,94.04688620509114 37.490698074223474,94.01561439001671 37.17717554004048,93.5048385038317 36.40440873042098,89.77809354176497 36.2366079375206,89.3246095660943 35.8921747309214,88.81378336359558 35.8921747309214,88.65740689989616 40.54202301954501,84.91464361906765 41.169068087940104,84.34121378068448 41.681302087410586,83.60617088605431 43.33281515480485,80.40521346130481 43.51386337875738,80.40000000000146 43.721406464756,80.54597670045769 45.6996894973563,82.29244893146824" stroke="#ff9700" stroke-linecap="round" stroke-linejoin="round" stroke-width="0.5"><title>2023-03-19 21.3km</title></polyline><polyline fill="none" points="103.6943710729538,100.86581892614777 103.72537898359587,100.8553687504791 103.81840271566762,100.91284468847516 104.36768570492859,99.30349232945446 105.85606541775633,97.26037288645239 106.48951273603598,96.13688128430294 109.34224051897763,89.88142469242302 109.47070186323253,89.41105654125204 110.05985216627596,88.15149237852529 110.87048754555872,85.97200216266356 112.07979606225854,81.8009021793041 112.22597621261957,81.10045622125836 112.16396039124811,80.83386588414942 111.38876262411941,80.41568196802473 111.18942605543998,80.39999999999782 108.34112797403941,84.42486968528465 105.66115855061798,87.34138171519226 104.94797660488985,88.4337212572973 104.14177092708996,88.91455180736375 102.64453181120916,90.59219445541748 101.28018374109524,91.97711990241442 100.22148507629754,93.17909816425527 99.58360805650591,94.21904629029814 98.8349884985364,95.86514912073835 98.20154118031496,97.48506804115095 96.97008415596792,99.97232066173092 94.48059189820196,105.62563672929537 93.55035457765916,107.03102479930749 92.42964009149,108.52518396461892 91.23362067938433,110.86559130607202 91.17603455955395,111.05887876237102 91.23362067938433,111.58127338883787 90.17492201461573,113.85884736993103 89.3288490230625,116.27212178606715 88.06195438656141,119.28070920490063 87.77402378735133,121.6571507553017 87.94235244533047,123.37020473509983 88.14611871555098,123.59999999999854 88.40304140408989,123.59477739258364 92.52709352507372,120.74314872549076 93.31558039676747,120.45066439298535 96.00883892478305,119.1553551685538 97.83830565513927,118.55991901601374 98.97230924587348,118.02715407915457 101.28461344260722,116.40793015198506 101.74530240133754,115.96393983499365 101.79402911814395,115.79156601452632 101.31119165176642,111.98351336748965 101.38649657770293,109.50210897534998 101.4972391158808,108.55652946167902 101.39978568229708,107.59003386295808 101.37763717464986,106.03837579508763 101.68771628150716,104.62773390420989 101.94906867155805,103.87014980435924 103.26026032335358,101.97874957357271" stroke="#ff8f00" stroke-linecap="round" stroke-linejoin="round" stroke-width="0.5"><title>2022-06-18 22.1km</title></polyline><polyline fill="none" points="156.7718925481895,83.69831526329654 156.6342085293436,83.53579659135721 156.68665958414203,83.24945326046873 157.66356047958834,83.55127457620983 158.18807102745632,84.15491334259423 161.15155562301516,86.15926664070867 161.47281833356828,86.64680344696535 161.87275762634818,87.76116066784743 161.7875246623007,88.82133144572435 162.00388526331517,89.16182087838388 162.57429048416088,89.4558786146008 163.36105630596285,89.64933698478126 164.5280922749953,90.20649413413048 165.9508271361119,90.60114445925865 167.41290028835647,91.46781979774823 167.7276066170889,91.86246308458067 168.21933525570785,92.24162808990513 169.137228714535,93.36363507611532 169.43882227956783,94.39277066190698 169.63551373503287,94.6868066504685 170.40261041128542,95.10464516319917 170.9467901047028,95.15107151226402 170.95990286843153,95.78556189544179 171.36639854303212,95.53795656938019 171.78600698130322,95.46831741526694 172.1728335104126,95.58438263405696 172.89403551374562,96.10280495283223 172.95959933221457,96.05637922842288 173.07761420548195,95.75461127707968 172.96615571406437,94.91893946225173 173.08417058736086,94.13742262758024 173.49066626196145,93.479703748475 173.79225982699427,93.59577223037923 174.72982243134174,93.4100625679057 175.43791167097515,93.50291746008588 176.44759447564138,94.1838496114724 176.65084231295623,94.19932526600314 176.42792533009197,93.4255383917407 176.53938382153865,91.69222507403902 177.14912733342499,90.07494353638322 177.39171346183866,89.75767344093765 177.90966762788594,89.49457033098588 179.04392168766935,89.50230867171194 179.35207163455198,89.60290702420752 179.84380027317093,90.09815836552298 180.71579905904946,91.27436640183441 181.07640006070142,91.52198665376636 181.67958719079616,92.55888704260724 181.95495522840065,94.09873345103551 182.19098497496452,94.65585555133293 182.07952648354694,95.42189127442543 182.1713158294442,95.94805241964787 182.34178175748093,96.16470587132062 182.88596145089832,96.35814589243091 183.259675216279,97.51877491077175 183.6989528001286,98.0217082384188 183.685840036429,98.31572914303979 184.0923357110587,98.49368857060472 184.45949309456046,98.47821385553107 185.2265897708421,98.16871884348075 185.0561238427763,98.51690063683054 184.28902716649463,99.17457268213184 184.28247078464483,99.2983690892579 185.00367278797785,99.53048676876642 185.39705569890793,99.52274952503649 185.94779177417513,99.35252994925395 186.0658066474425,99.41442802418896 186.14448322964017,99.73939202913607 186.0658066474425,100.737486425729 185.81010775535833,101.66593368836766 185.52818333587493,102.17657448956743 185.7642130824097,102.01409827075986 186.38706935802475,101.10112972175557 187.40330854456988,100.737486425729 187.60000000000582,100.84580590086262 186.8853543785226,101.68914471385506 186.7345575960062,102.18431144305214 186.38706935802475,102.60984258227109 186.8787979966728,102.7181591908884 187.20006070725503,102.57115803899069 187.33774472607183,102.7181591908884 187.20006070725503,103.24426607406349 186.7280012141564,104.06436606086208 186.6165427227388,104.69877651119896 186.09203217484173,106.21514917612512 186.35428744877572,107.8475344509061 186.1772651388601,108.23435008741944 186.1838215207099,109.31742262182524 185.81010775535833,109.8666887868967 185.65931097284192,110.50104722223477 184.4988313856593,111.09672008881171 183.10232205191278,112.13333364325808 182.24343602976296,112.57427659739915 180.5125512217346,112.58201241416828 180.29619062074926,112.76767176328576 180.00770981941605,113.34785409048345 178.4145090302045,114.48499765682209 177.89655486415722,115.15025685153523 177.38515707998886,113.99765265107271 176.41481256639236,114.10595183121768 175.7853999089275,114.6938587750119 175.13631810594234,115.08063699617924 174.59213841249584,115.6375939218924 173.9758385187306,115.40552906872472 174.13974806494662,116.10172134585446 174.06762786462787,116.3028422845091 173.87749279101263,116.40340253957402 173.24152375169797,116.43434412775241 172.38919411139796,116.093985913707 171.0516922142997,116.01663154593552 169.73385946272174,115.77683246858942 168.1472150553891,115.80003886642226 167.01296099560568,115.97795433032297 166.65235999392462,116.20228188660258 166.12129306420684,116.29510687434959 165.30174533312675,116.093985913707 165.01326453182264,116.11719220758096 164.48875398392556,115.64532940388744 163.66264987099566,115.32817394861195 162.77753832141752,115.54476807190804 162.90210957659292,115.65306488504575 161.15811200486496,116.21001730691205 160.97453331309953,116.96034905797569 160.43035361968214,117.60237919076462 159.75504628926865,117.82670159944246 159.11252086810418,117.79576061982516 157.53243284262135,118.83227607587469 155.91956290786038,119.07206480345485 155.19180452267756,119.03338925718708 154.24112915463047,119.93839150317217 152.58236454697908,120.65000907618378 152.02507208986208,120.78150284478761 151.11373501288472,120.64227414101333 150.8252542115515,120.73509330728848 150.3794202458812,120.41022569299093 149.95325542570208,119.86877635651763 150.1368341174384,119.04885947822186 149.95325542570208,118.42231282159628 149.61887995139114,118.70851383417175 149.0156928213837,119.62125528063916 148.69443011077237,119.75275095993857 148.50429503715714,118.7936003985742 148.66164820155245,118.39137210228364 147.98634087113896,117.6178497245055 147.82898770677275,117.1073203251508 148.1830323265749,116.27963605152763 148.78621945666964,115.62985843903152 149.6975565335888,115.49061960321706 150.70068295643432,115.56797454581101 151.06128395808628,115.45967760250642 151.00883290331694,115.25081874395983 150.72690848383354,115.08063699617924 149.21894065866945,114.53141129191499 149.04191834872472,114.32254969439964 149.0091364395048,114.02085963217542 150.20239793593646,112.51239003270166 150.62200637423666,112.35767338425649 150.98260737591772,111.09672008881171 151.61202003338258,110.70218407545326 151.73659128849977,110.46236699261499 151.58579450598336,110.27670159615809 151.61202003338258,110.13745222921716 152.13653058125055,109.71196635479282 150.35975110033178,109.72743861321942 149.25172256788937,110.0678274429738 147.3307026862749,110.89558435680374 146.58983153739246,110.67897600618744 145.90796782515827,110.85690434281423 145.61293064197525,110.60935175268969 145.51458491422818,109.60366045104456 145.2457732584444,108.81456957796036 144.93106692971196,108.26529524702346 144.39999999999418,107.81658910861006 147.13401123083895,107.1976794216389 147.95355896188994,106.17646660388709 148.35349825464073,105.8360590562952 148.98946729395539,105.68906438176055 149.66477462436887,105.30223483180453 150.05815753526986,104.95408642877737 150.89737441189936,104.60593631279335 152.12341781758005,103.6852644181854 152.95607831233065,102.88837066938868 152.80528152981424,101.89804360034759 151.69725299740094,101.72009273593721 150.43187130065053,100.81485749631975 150.16961602671654,100.78390907823632 149.9729245712515,100.62142966122337 148.89767794808722,100.20362373258831 148.3076035817212,99.66975701088086 147.86176961602177,99.53822401160141 147.42249203217216,99.24420818778162 148.0387919259374,98.47047649673914 148.98291091210558,97.83601019536582 148.98946729395539,97.55746221676964 150.77280315678217,95.4373666580941 151.10717863106402,94.67906887694699 151.48089239641558,94.29217912205058 151.71692214295035,93.82017075532349 151.9070572165656,92.77555087542714 151.6579147063021,92.04817681053828 152.01851570798317,91.57615346830426 151.9201699802361,90.77138509607175 150.58266808316694,87.79985331144417 150.75969039308256,87.60638988170831 154.59517377446173,85.82650149362598 154.75252693885705,85.65624895236397 154.90988010316505,85.06036182971002 154.80497799362638,84.68889718636638 155.244255577476,84.12395763377572 156.10314159962581,83.21849715521239 156.6342085293436,83.31910444769164 156.60142662012368,83.4971016144118" stroke="#ff6b00" stroke-linecap="round" stroke-linejoin="round" stroke-width="0.5"><title>2021-12-18 25.6km</title></polyline><polyline fill="none" points="16.132094751519617,153.5088180759194 16.647097073844634,153.29260720478487 17.14203437062679,153.35438180160418 17.523269855999388,152.7829648820989 18.078402229439234,152.55903006305016 18.31918253598269,151.5397322783756 18.67366465399391,150.9374135816979 18.747236414288636,150.34281227844622 18.479702740354696,150.2578688587164 18.30580585228745,149.81770599448646 18.573339526250493,149.68642886153248 18.446261031145696,149.2848738830071 18.62684626103146,149.0840956050306 18.814119832764845,149.09954010662477 18.546586158830905,148.96826174393937 18.459637714811834,148.4972022391521 18.04496052020113,148.03386219769163 18.098467254982097,147.86397014752583 17.65703669298091,147.0299491675396 17.743985137029085,146.69788273332233 17.135346028779168,146.02602299031423 16.96144914071192,146.18819657085987 15.924756154185161,146.3580923348709 15.329493729659589,146.5743227626881 15.195726892707171,146.86777736774093 14.587087784486357,146.93727960967226 14.259359033894725,147.09945126245293 13.951695308845956,147.48557286441792 13.670784951216774,147.59368656446168 12.754482117976295,147.23845526317746 13.537018114264356,146.226809277563 14.961634927982232,145.52405497123254 15.302740362269105,145.00663834199077 15.583650719927391,143.51615002295148 15.329493729659589,141.56225355884817 15.443195541098248,141.40007019058976 17.951323734305333,140.02535928567522 18.693729679478565,140.13348350871092 19.135160241508856,139.70870889780053 19.181978634471307,139.15263675778988 19.70366929867305,138.4961575101479 20.232048304693308,138.25673426739377 21.007895959104644,138.14860739644791 21.22192289828672,137.52301321968844 21.409196470020106,137.43033216656477 21.469391546677798,137.19090559381584 21.409196470020106,136.93603132337012 21.128286112390924,136.82017910204013 21.375754760811105,136.5344095405162 22.967580120748607,135.51489863782626 24.425638643762795,133.93926419736817 25.295123084040824,133.18233024858637 25.72317696234677,133.25184490267566 26.80668834183598,132.7806887901388 27.348444031580584,132.30952978019923 28.130980027868645,132.03919133517047 28.993776126328157,132.29408189474634 30.157547607959714,132.33270160254324 30.906641895038774,132.00829545215674 30.819693450961495,132.25546216750809 30.525406409666175,132.30952978019923 30.44514630746562,132.45628453659447 30.806316767295357,132.82703214279172 31.047097073838813,132.8502038086226 31.200928936363198,133.17460639424826 31.501904319535242,133.2672925950028 31.78950301904115,133.56852197313128 32.27106363212806,133.36770251931011 32.97333952621557,133.29046412769094 33.36795169528341,133.60714103851933 33.388016720855376,133.99333062185906 33.588666976284,134.1014633563973 34.1906177426863,133.9160928609199 34.21737111004768,134.00877816470893 34.89958197862143,133.61486484928173 35.341012540622614,133.18233024858637 35.67542963306187,133.35997868365666 35.79581978631904,133.80023607351177 36.049976776586846,134.1246346367916 36.110171853215434,134.33317584508768 35.95633999069105,134.68846696676337 36.52484904782614,134.87383559362934 36.53822573152138,135.1441640373232 36.70543427777011,135.4762805339633 36.839201114693424,135.50717501861072 37.52810032511479,135.05920377207804 38.317324663250474,134.95879606440576 38.33070134691661,134.85838822518417 38.63167673011776,134.7579802543696 38.584858337184414,134.61122990652802 38.75875522525166,134.6575721519839 38.63167673011776,134.51082161185332 38.92596377147129,134.61895361604547 39.07310729214805,134.51082161185332 39.36070599159575,134.61122990652802 39.26706920572906,134.34862331939803 39.38077101716772,134.37951825872005 39.39414770086296,134.26366217203758 38.952717138890876,134.1014633563973 38.711936832318315,133.3754263541923 38.87914537850884,133.0741962168977 38.839015327452216,132.7575171032804 38.979470506252255,132.7034498067369 39.093172317690914,132.34042554174812 39.012912215519464,131.75340394178056 39.24031583836768,131.59892382581165 39.42090106825344,131.7147839419922 39.514537854120135,131.59892382581165 39.78207152808318,132.59531509916997 39.92921504875994,132.63393465510308 40.63149094287655,132.26318611452007 40.872271249390906,132.33270160254324 41.02610311191529,132.52579984942713 41.08629818857298,133.1205393920318 41.43409196470748,133.36770251931011 41.33376683696406,133.50673142803134 41.58123548535514,133.49900760637684 41.82201579189859,133.77706469500845 41.88221086852718,134.29455714561482 42.13636785879498,134.60350619620294 42.036042731051566,134.7579802543696 42.0159777055087,135.39132063695433 41.73506734787952,135.9396964957341 41.755132373422384,136.20229763002862 42.23000464469078,135.80839559109882 42.26344635389978,135.94742007134482 42.51091500229086,135.8856314446166 42.51760334416758,136.05555004825874 42.932280538778286,135.90880218546954 43.44059451928479,136.0401029180357 43.73488156060921,135.94742007134482 43.99572689269553,136.05555004825874 44.21644217372523,135.99376150871103 44.16962378076278,135.77750122791622 44.01579191823839,135.70026526541915 44.32345564328716,135.45310966230318 44.14287041337229,135.0205854385349 44.350209010677645,134.45675555250637 44.27663725032471,134.15552966643008 44.67793776124017,133.61486484928173 44.58430097537348,133.21322565820446 44.236507199238986,133.05102461882052 44.00241523454315,132.71117370857246 43.94222015791456,131.93105569008185 44.39702740361099,131.22044622524845 44.95215977705084,129.28940895287815 45.320018578728195,128.4165641325817 45.37352531350916,128.5710506658288 45.7346957733389,128.51698041463533 46.12930794240674,128.6791910537213 47.14593590339064,128.56332634657156 47.212819321866846,128.4783587832717 48.38996748722275,128.82595276456414 48.41003251276561,129.08857828218606 48.96516488617635,128.89547137155023 49.2326985601394,129.16582091014425 49.56711565257865,129.04223266802 49.73432419876917,129.13492386831786 49.8680910357798,129.02678412375826 49.995169530884596,129.22761495642771 50.369716674409574,129.17354516865453 50.85127728749649,129.45161795638705 50.88471899673459,129.6292750423163 50.60380863910541,129.88417361991742 50.369716674409574,130.40169236544898 49.45341384113999,131.1354816089588 49.45341384113999,131.44444339835172 49.132373432425084,131.8460918618439 49.0119832791388,132.21684242079937 48.78457965629059,132.47173238935648 48.52373432420427,132.5103520075645 48.169252206222154,132.9042710016074 48.00873200185015,133.24412105532974 48.07561542032636,133.57624578775722 47.92178355780197,133.81568365530256 48.20938225730788,134.03967324105906 48.26957733393647,134.23276718602574 47.9619136088877,134.4335843725421 47.553924756124616,134.27910966038326 46.88509057130432,134.44130809999479 46.396841616311576,134.7811513362467 46.055736182053806,134.72708546767535 45.33339526242344,135.1518876931441 44.91871806781273,135.81611917996634 44.738132837897865,135.87018428013107 45.172875058080535,136.59619764411036 47.901718532288214,136.21002117916942 48.45016256388044,136.5730271110806 49.326335346035194,136.5421330561876 49.593869019969134,136.7120502040707 49.5202972596162,136.93603132337012 49.219321876444155,137.2449697240154 49.05211333022453,137.75471536212717 49.2326985601394,138.10999061986513 49.914909428713145,138.42664761352353 50.16237807710422,138.78191975617665 50.11555968414177,139.56969124104944 50.256014862970915,139.95585077601572 50.02192289827508,140.44240901973535 49.948351137922145,140.99074873505742 50.496795169543475,141.40007019058976 51.30608453322202,141.43096228717332 51.607059916394064,142.00246382845216 52.349465861567296,142.02563271998952 53.426288899208885,143.29991096822778 53.49986065956182,143.87139857425063 53.31258708779933,144.3965455907237 53.69382257317193,145.01436100393767 53.33265211331309,145.54722279833368 53.29252206225647,145.8020684340736 53.51992568510468,145.99513274556375 54.16869484441122,145.89473936426657 54.36265675802133,145.96424248842231 54.32921504875412,146.68243774789153 54.9579191825178,147.3311244570068 54.62350209010765,148.04158455465222 55.41272642824333,148.59759221237618 55.3391546678904,149.60920691362116 55.59999999997672,150.34281227844622 54.89103576404159,150.34281227844622 55.09168601947022,150.7752500472343 55.278959591232706,150.79841628743452 55.29233627495705,151.06096652061387 55.06493265210884,151.27718368463684 55.12512772876653,151.50112224744225 54.79071063629817,151.63239627326402 54.46298188570654,151.67872822873323 54.18207152810646,151.50112224744225 53.7807710171619,151.671006238088 53.15206688339822,151.49340023893456 52.844403158378555,151.7018941959759 52.48323269854882,151.60923028504476 52.01504876915715,151.84861182587338 51.52679981422261,151.68645021857083 51.50673478865065,151.75594809228642 51.13887598700239,151.6632842466861 51.04523920107749,151.77139205564163 50.577055271714926,151.7482261094192 50.30952159775188,152.01077309019456 49.96172782161739,152.08027066992508 49.3932187644823,152.43547953808593 48.55048769156565,153.46248722627934 48.22275894100312,154.13428180610936 47.881653506687144,154.3582120248102 47.62080817462993,154.35049030400842 47.01885740828584,154.5821415895989 46.60418021364603,154.50492457215296 46.049047840206185,154.26555132398062 45.74138411518652,153.87174209619116 45.393590339052025,153.8254114658339 44.61774268458248,154.61302837478434 44.43046911281999,154.9991121401399 44.10942870413419,155.32342100087408 44.00910357639077,155.33114262368326 43.98903855087701,155.19215329389408 43.728193218732486,155.15354510200996 43.15299581977888,155.38519396167976 42.530980027862824,155.19987492992368 42.457408267538995,155.34658586700243 42.28351137944264,155.26164799026446 42.08954946583253,155.49329652337474 41.78188574081287,155.54734774707322 41.30032512769685,155.43924526157207 41.253506734763505,155.26164799026446 40.85889456572477,155.4624100927249 40.61142591730459,155.9025405550783 40.64486762654269,156.08785788876412 41.01941477009677,156.21140252911573 40.88564793311525,156.83684421655926 40.94584300974384,157.09165233055683 40.69837436132366,157.36190243541205 39.96265675799805,157.60126601870434 40.203437064541504,157.28468821692513 40.09642359497957,157.11481666257168 39.9158383650356,157.37734526977874 39.20018578728195,157.4082309291698 38.87245703669032,157.54721624263766 38.818950301909354,157.46228080321453 39.03297724103322,157.30013106684055 38.69187180677545,157.415952342104 38.611611704604,157.47772361739771 38.67849512305111,157.72480822101352 38.88583372038556,158.06454825119727 38.23706456104992,157.95644931394054 38.19024616814568,158.08771228935075 37.69530887133442,158.25758168876928 37.287320018571336,158.0722695980221 36.87264282396063,158.0722695980221 36.48471899671131,157.8174647421256 36.043288434739225,157.9101211513189 35.742313051538076,158.29618831797416 36.09679516952019,158.3425162473577 36.31082210864406,158.74402379660023 36.317510450520786,159.9948607642218 36.53153738970286,160.1878893435278 37.079981421265984,160.3191484999843 36.39777055272134,160.95227774678642 36.28406874128268,161.25339835957857 36.083418485795846,161.33832960073778 35.849326521129115,161.97145043492492 35.849326521129115,161.49274979825714 36.15030190433026,161.22251424857677 36.09010682767257,161.02948827303044 36.39777055272134,160.58166613899812 35.9095215977286,160.7129246215627 35.70218300045235,160.49673405998328 35.50822108681314,159.84043755099265 35.595169530890416,159.46209936458763 35.494844403147,160.30370625793876 35.655364607519004,161.31516654427833 35.18718067812733,162.49647350457235 35.14036228519399,162.8902384485118 34.94640037155477,163.2762805489765 34.739061774278525,163.39981361079845 34.78588016718277,163.870781583988 34.491593125858344,164.5347643064233 34.48490478401072,164.7741055065053 33.92308406875236,165.1292555885302 33.722433813265525,165.85499194778095 32.94658615885419,166.2950627793398 32.69911751046311,166.64248533688806 32.38476544353762,166.82005625875172 31.849698095640633,166.6810877461612 31.04040873196209,166.89726087918098 31.053785415686434,167.32960531788558 30.759498374332907,168.51081966656056 30.277937761275098,169.10528013946168 29.9301439851115,169.77693772940256 28.773060845327564,169.42952936525398 28.097538318601437,168.51853996198042 27.55578262891504,168.19428688623884 26.88026010215981,168.2714901237996 26.53915466790204,168.07848188422213 26.037529029272264,168.13252424025995 25.68304691129015,167.6770231906048 25.515838365070522,167.83143062907038 25.39544821178424,168.24060883811035 25.335253135155654,169.3446070814025 25.221551323716994,169.52217174950056 24.318625174142653,170.14750491741142 22.847189967462327,170.4022688210316 22.539526242442662,171.04303489993617 21.971017185336677,171.5834358674183 21.830562006507535,171.2823557979209 21.87069205759326,171.0584749803893 22.05796562935575,170.88863392446365 22.151602415222442,170.43314923669823 22.312122619594447,170.21698606590508 22.32549930328969,169.86185953472886 22.552902926137904,169.66113511613366 22.646539712004596,169.18248246037547 23.281932187644998,168.36413390634698 23.248490478406893,167.8931935174478 23.596284254512284,167.6924639484423 23.91732466322719,167.75422694866575 24.646353924734285,166.49579600449215 24.505898745905142,166.21013702596247 24.131351602409268,165.9476386484166 24.311936832324136,165.53072761446674 24.164793311647372,164.8127088559122 23.261867162102135,163.89394386873755 22.733488156052772,164.04063817631686 22.332187645166414,163.6932038353334 22.051277287508128,163.6468791376319 22.05796562935575,163.43069684517104 22.318810961442068,163.26855972600606 22.278680910356343,163.02921382849308 21.991082210850436,162.79758805532765 21.542963307001628,162.71265842991124 21.262052949343342,162.41926445500576 21.375754760811105,162.28028796992294 21.67673014398315,162.434706271124 22.037900603783783,162.3883808134051 22.191732466308167,162.5350780002118 22.47264282393735,162.45786898949154 22.773618207138497,160.4195229974721 24.131351602409268,158.90617048024433 24.251741755695548,158.65908968262374 24.15810496979975,158.0722695980221 24.191546679037856,158.72085995666566 23.863817928446224,159.19957789357431 24.06446818393306,158.5432702847247 23.669856014865218,158.06454825119727 22.740176497900393,158.25758168876928 21.462703204830177,157.49316642845224 20.66010218297015,157.47000221069175 17.576776590780355,158.71313867512072 16.379563399910694,159.0374318302347 15.663910822098842,159.0528743272298 15.329493729659589,159.31539630038606 14.68072457035305,159.28451140901598 14.29280074313283,158.92161300368753 14.245982350199483,157.92556387528748 13.690849976759637,157.43911657615536 12.767858801671537,157.21519535379775 12.553831862518564,157.05304509496636 12.39999999999418,156.1110225240045 12.553831862518564,155.83304643946758 12.888248954928713,155.55506934736331 13.022015791910235,154.65163683880382 13.155782628891757,154.41998576317565 13.52364143054001,154.53581138846494 14.272735717560863,154.46631603427522 15.476637250365457,154.6439151475497 15.924756154185161,154.31188168838707 16.11871806779527,153.57059249853774" stroke="#ff2700" stroke-linecap="round" stroke-linejoin="round" stroke-width="0.5"><title>2021-11-13 32.3km</title></polyline><polyline fill="none" points="88.35290263872594,158.30447223563533 88.28214740668773,157.95193743243726 88.50227479526075,157.69217400850903 88.34504094629665,157.40457786143816 88.47082802542718,156.8386600156664 89.42995450407034,155.77175544916827 91.13594176524202,154.7697806821452 93.47086442218279,154.41723119029484 95.2240218380175,153.6007951628344 95.43628753410303,152.71012871646235 95.93157415831229,151.87512042956223 96.03377616009675,151.35555556925829 96.62340309371939,151.04938192916597 97.18158325747936,150.20507919589727 97.72404003638076,149.97312642398902 98.71461328479927,150.03807326404785 99.75235668788082,150.37208479890978 100.42060054597096,150.83598752647958 100.79010009096237,151.39266745053465 101.04953594176914,151.46689116437483 102.29954504096531,151.25349781201658 103.03068243857706,150.80815343436552 103.8482984531147,151.1699959193138 103.74609645130113,152.4039599656462 103.89546860780683,152.6637395828293 103.97408553230343,153.5544065162685 103.69892629663809,154.46361936503672 103.89546860780683,155.15016138543433 104.24138307551038,155.6511480018744 105.6957961783337,156.69949931136944 106.49768880798365,156.56961578142364 106.85146496811649,156.6809445335748 107.16593266604468,156.51395135056373 107.6926660600584,156.49539653216925 109.17852593265707,156.99637520458782 110.09048225657898,158.19314561391366 110.27130118288915,158.73122293223423 110.93954504095018,159.0837544973474 111.67068243859103,159.01881458226126 112.60622383985901,158.55495660035376 114.57950864423765,156.76444100177468 115.302784349391,157.1633674379409 116.16757051867899,157.19119944491104 116.52920837124111,157.04276196902356 117.6927388534823,157.95193743243726 117.92858962691389,157.5159055178883 120.82955414013122,156.6716671431277 121.48207461330458,156.27273839481495 121.59999999997672,155.7532004684399 121.55282984531368,153.6007951628344 121.42704276615405,152.98846298554417 120.22420382167911,150.89165568327735 119.43803457688773,148.61850956674607 118.77765241125599,147.44943927007262 118.28236578707583,146.95768266383675 117.40971792535856,146.43808768004965 115.39712465877528,145.84426094346418 117.3075159235741,144.98134905597544 117.51978161965962,145.02774239152495 115.389262966346,145.8535395182189 114.49303002728266,145.56590322936972 113.7697543221293,145.05557838070672 113.16440400364809,144.34111843341088 112.26030937218457,142.29977113079804 111.33262966334587,142.01212278821913 109.17066424019868,141.01926456103683 108.58103730663424,141.06566006420326 106.82787989079952,140.76872840522265 106.2303912647767,140.47179570646404 105.81372156506404,140.0263947087151 104.88604185619624,139.6737839262787 103.21936305731651,139.42324379504862 102.3074067333946,139.70162167293893 101.4583439490234,139.48819871497835 100.17688808005187,139.41396451672335 98.97404913554783,138.83864727668697 98.05423111916753,138.5695459373601 96.97717925385223,138.5231490684091 95.25546860779286,137.82719298737356 93.25859872609726,138.3653995239947 92.4567060964473,139.10774776195467 91.11235668786685,139.08918913520756 90.381219290226,138.65306023751327 89.94096451316727,138.5602665655897 89.65008189258515,138.15197320273 89.46926296630409,137.54880895546376 89.06045495902072,137.493132039388 88.65164695176645,137.23330594772415 87.81044585982454,137.33538057868282 87.81044585982454,137.86431078922033 88.56516833481146,138.48603155493038 88.21139217464952,138.6623395991046 88.21925386713701,138.88504397301585 87.78686078247847,139.6830631761768 87.8418926296581,139.95216098163655 87.67679708823562,140.40684154001065 87.31515923561528,140.508912350655 86.30886260230909,139.6459461704726 86.17521383074927,140.90791524984525 85.78999090078287,141.35331161737122 85.58558689715574,141.90077478075546 85.17677888987237,142.08635471196612 84.45350318468991,141.39042787571088 84.20192902637064,141.34403255022335 84.23337579614599,142.16058657075337 83.65161055503995,142.45751335605019 84.09186533206957,143.32972977528698 83.87173794355476,144.1648221958676 83.03839854410035,144.4988568616027 82.57455868969555,145.1483649452275 82.51166515011573,145.46383850531856 81.88272975431755,145.60301764406904 81.59184713370632,145.96488233585114 81.87486806183006,146.77211339219502 81.69404913551989,147.42160406658513 80.87643312101136,147.54222321564157 80.7663694266812,147.66284219314548 81.20662420379813,148.59995302122115 81.7648043675581,148.78551829369826 81.94562329386827,149.10097832516476 81.83555959962541,150.66898283683258 80.44404003635282,152.8771293874961 80.21605095537961,153.96262573543208 78.71446769786417,155.13160626874014 78.39999999999418,156.24490608659835 78.70660600543488,156.65311235922854 79.25692447676556,156.3655126897429 82.62959053678787,157.5066282187472 84.40633302999777,157.8313330845267 84.09186533206957,158.49929347208672 84.06041856232332,158.95387461746577 84.1547588716785,158.65700557396485 84.94878980889916,158.93532033266092 85.06671519560041,159.055923111242 85.03526842579595,159.82592142544308 85.75854413100751,160.5402509624182 86.79628753408906,161.13397483208246 87.11861692444654,161.13397483208246 86.96924476791173,160.89277501108882 87.0714467697544,160.42892727431172 86.66263876250014,159.7517050247625 87.0793084622128,160.35471140110894 87.0006915377162,160.8649442183887 87.35446769787814,161.65347981003288 87.307297543186,162.65537328527716 89.46926296630409,162.76669405227585 89.69725204727729,162.21008875678672" stroke="#4dd2ff" stroke-linecap="round" stroke-linejoin="round" stroke-width="0.5"><title>2021-10-24 17.4km</title></polyline><polyline fill="none" points="179.77666720474372,148.80377868679352 179.89010728232097,148.90794766537147 179.90271173545625,148.41686463846418 179.63801822101232,144.80065313787782 178.36496846098453,143.47617298820114 178.1002749464824,142.85113292680762 177.14233651326504,141.67545454246283 175.17604183446383,140.29141504937434 174.07945441739867,139.8449476883834 173.43662731087534,139.93424127798062 172.35264434688725,140.79740961773496 171.64679497509496,140.99087763101852 170.81490107247373,140.60394132886722 170.48718529264443,140.63370569892868 169.97040271683363,141.13969899223594 169.71831365546677,140.88670258120692 168.9494420182309,140.87182042472705 165.9495821877499,142.0177417043451 163.39087821467547,141.5861620974756 163.20181141863577,141.05040619506326 162.45814868755406,140.36582613350765 162.0674106423976,139.4282434941124 161.71448595641414,139.24965559096017 161.86573939328082,138.78830242095864 161.66406814416405,136.68986984188086 160.83217424160102,134.99324107500433 160.95821877225535,132.98404801945435 159.91204916749848,129.84369415251422 158.95411073428113,128.40000000000873 159.98767588590272,129.87346088074264 160.63050299242605,131.49573770351708 160.95821877225535,132.8798668282252 160.9330098661594,135.03788947199064 161.84053048718488,137.28517315833597 161.94136611168506,138.87759670519154 160.94561431923648,141.55639793614682 160.31539166573202,142.67254952384974 158.13482128479518,144.57742705119017 157.3785541006364,146.31858079931408 154.35348536400124,148.35733930248534 153.30731575918617,149.19069163313543 152.5510485750856,150.15796917816624 151.10153647209518,150.70857024328143 149.04701062181266,151.943694245012 147.87479648634326,151.78000375772535 146.28663539967965,153.02999884530436 146.90425360004883,153.8782032479212 146.61435117950896,155.2323431611294 147.04290258383844,155.81268470677605 147.09332039603032,156.43766513769515 145.6564127462334,161.36300555459457 145.82027063606074,162.40459546181955 144.6228475944954,163.2081022207858 144.55982532916823,163.53545546419627 144.63545204763068,164.2199187885999 145.40432368475012,165.42516104498645 146.65216453868197,168.59445078276622 146.9168580531259,170.03771786064317 146.70258235093206,171.28754500883224 147.33280500437832,171.12387782199949 147.52187180047622,171.60000000000582 150.84944741072832,171.31730265796068 152.61407084041275,170.3352967955725 153.3829424776486,169.45743706345093 154.1896274741157,167.29996108652267 155.6769529362209,166.0649766647839 155.60132621787488,164.87461961210647 155.79039301385637,164.57702871972288 156.55926465115044,164.14552076818654 157.99617230106378,164.33895553655748 159.13057307724375,163.93720609424054 160.2775783065008,164.01160422877 161.38677017658483,163.26762105099624 162.42033532832284,163.31226015649736 162.59679767134367,162.83610894151207 163.85724297817796,162.53851358487736 164.23537657031557,162.18139829665597 164.65132352156797,160.9463673561404 165.40759070578497,159.9791666134406 166.1890667960979,157.70249768973736 168.92423311213497,156.48230648702884 172.31483098771423,155.51507396735542 173.0332848127,154.29486312023073 173.19714270258555,152.80678628025635 174.1550811358611,152.4050027390913 175.01218394452007,151.2442880567105 175.97012237773743,151.27405009552604 177.31879885622766,150.67880808054178 178.1002749464824,149.5776034775772 179.8775028292439,149.32462278089952 182.66308695758926,150.7829756214487 184.4655237465049,150.5746404598467 186.2049382700352,150.9615483628295 186.7217208459042,151.8097656791797 186.33098280074773,152.94071386328142 186.65869858057704,154.5924765324453 187.44017467083177,155.26210432633525 187.40236131165875,157.9554627872567" stroke="#4dd2ff" stroke-linecap="round" stroke-linejoin="round" stroke-width="0.5"><title>2021-09-19 11.2km</title></polyline><polyline fill="none" points="40.49601332072052,192.24609735608465 43.338849416031735,185.92500671942616 44.50343803456053,183.056732123423 44.98167214405839,181.6460421382253 46.20382597943535,177.10020227167843 46.09755173290614,176.812807058217 45.26949822847382,176.39999999999782 42.617070158186834,180.10468511387444 39.6901002843224,183.33364045470807 39.15872905155993,184.2374998826308 38.88418724795338,184.53529953510224 38.15355180288316,184.94281184289866 37.45391301307245,185.76827484750902 35.58525751112029,187.6803685838713 34.21697658672929,189.2423774843337 33.57047492018319,190.29761883248284 32.237618744635256,193.52588589998777 31.08631440694444,195.845088903101 28.504735834372696,201.67916323551617 27.601404738641577,203.03703729962945 26.41910374572035,204.5933224934779 25.219090378377587,207.00076465703023 25.298796063289046,207.39764154293516 25.254515127220657,207.67963101476562 24.320187376259128,209.62218001501606 23.42571246775333,212.16512905592754 22.092856292205397,215.28749775887263 21.79617402056465,217.6630766941489 21.973297764838208,219.3755088592552 22.150421509082662,219.57911714756847 22.376254283008166,219.59999999999854 23.452281029400183,218.83254919205137 24.656722490355605,218.10163222739357 26.516521805053344,216.74940643432274 27.322434841422364,216.4518072146675 29.997003379743546,215.14652563440177 31.870086975279264,214.54608415950133 32.59629432676593,214.2171434636257 33.57047492018319,213.64279714862278 35.18672908653389,212.47841938683996 35.762381255364744,211.97193232996506 35.284147145895986,207.93028692840016 35.390421392425196,205.41844646255777 35.492267545399955,204.5985448418287 35.38156520522898,203.43394705628089 35.368280924391,202.00819010359555 35.70038794490392,200.47793482679117 35.93507690602564,199.8825321763652 37.44062873223447,197.67843332083794" stroke="#ff9b00" stroke-linecap="round" stroke-linejoin="round" stroke-width="0.5"><title>2021-09-11 21.0km</title></polyline><polyline fill="none" points="121.59999999999127,201.51990394257882 120.98692346680036,200.26118926520212 120.67725725870696,199.92158664879753 120.47394106147112,199.234988312317 120.16114691186522,198.6406634200066 119.97347042211914,198.40440713939824 119.92655129969353,198.1496914839845 119.55119832018681,197.9245064773313 119.55745420316816,197.69931996800733 119.97034248063574,197.23786750823274 119.84209687929251,197.0016014062494 119.5042791977321,196.59920689322826 119.41044095285179,196.33709412492317 118.80674824414018,195.90515737422538 118.62845557888795,195.69841645994165 118.22807906739763,195.59135370289005 117.8089349069487,195.38461086576353 117.52742017232231,195.00434841096285 116.80486568677588,194.5133235610665 116.6515965534636,194.48009605742118 116.28249945693824,194.49117189560639 116.0572876692604,194.56131878633823 115.28781406125927,194.98958085053164 114.6372022301075,195.0412672837483 114.48393309679523,195.18894237090353 114.40886250090261,196.17465702124173 114.46829338932002,196.7505668602389 114.44326985736552,197.31170032585214 114.49644486278703,197.69562837337435 114.58402722467144,197.89866547880592 114.63094634712616,198.5815995049088 114.72478459199192,198.96920456101725 114.70288900152082,199.12424533697413 114.82800666136609,199.9991049382952 114.78421548042388,200.11353637358843 78.83478386793286,196.1709652597965 78.39999999999418,196.8428591898337" stroke="#4dd2ff" stroke-linecap="round" stroke-linejoin="round" stroke-width="0.5"><title>2021-09-07 16.2km</title></polyline><polyline fill="none" points="149.85680257322383,214.80767249580822 149.78544727461122,214.56216329769086 149.8417804050987,214.35516398469917 149.77793619055592,213.7100883677922 150.03706859078375,212.84836400350468 150.60791097974288,210.17639979737942 150.94590976266772,209.19422023214065 152.23781622183742,207.6775643269466 152.26034947404696,206.2426981104618 152.35048248281237,205.46264504214196 153.08281317914953,205.04372034904372 153.7963661653339,204.49477681747885 155.09202816656034,203.22832102223765 155.2910718942876,202.6504549686033 156.0421803007921,201.8462418777599 156.20742415021232,201.44172039676414 156.64306702600152,201.00829924159552 157.0035990611068,200.81085001457905 157.64955229069164,200.21849552826097 157.976284447519,199.59241871467748 158.1490393810236,198.91816939250566 158.2955055202765,198.66773056121383 158.97150308614073,198.2342744254056 159.49352342865313,198.282436488229 159.68130053029745,198.23909063473184 160.62018603841716,198.51842962048613 161.08211770841444,198.35467945590426 162.92984438841813,198.6051205682561 163.4481091889029,198.56177512169597 164.18043988524005,198.36431184012326 164.9052594975219,198.31614989204172 165.40099104581168,198.56177512169597 166.28729896548612,198.77368567406302 167.09474050246354,199.1059973184565 167.6881161436031,199.24566357237927 167.95100408587314,199.19750285926784 168.36035816742515,199.25529570690196 168.79975658522744,199.5249943776471 169.70108667304157,199.7080029847275 169.88135269058694,199.90064257110134 170.86530470311118,200.0499375079453 171.51501347472367,200.25702295970405 172.25485525514523,200.2377592493831 172.56280970180524,200.32444586081692 173.8396939928498,200.39186862967108 174.41804746586422,200.61821552932088 174.65089107188396,200.6374790264308 176.062974876113,200.49781842782977 176.38970703294035,200.55079320444565 176.77652786229737,200.72416462980618 177.23470399025246,200.73861220912295 178.226167086832,200.9601409981151 178.8533426062786,200.883087668215 179.13500825870142,200.99385177564182 179.46925149958406,200.9649568255154 180.06638268276583,201.09979971832217 180.64473615578027,201.4561676744779 181.0015126488579,201.57656141936604 181.43715552463254,201.56211419223837 181.869042858365,201.43208887490255 183.19099365382863,201.6054558553842 183.63790315568622,201.5572984485225 184.24254542292329,201.82216335143676 184.5542554116255,201.82697905804525 185.14763105276506,201.98108131359186 185.66214031122217,202.28928375222677 185.77480657218257,202.2940993934062 185.7935842823499,202.1785238189368 185.80860645047505,202.2266803555176 185.97009475788218,201.6536131947978 185.90625054332486,201.5187724744428 185.98887246804952,201.0516416030332 185.94005042161734,200.70008531745043 186.00013909413246,200.184783990313 185.87996174910222,199.90545854693482 185.91751716942235,199.7080029847275 185.8424063287821,199.49609819271427 185.92878379551985,199.32753662978212 185.93629487957514,198.86037597800896 186.11280535512196,198.59067209214118 186.19918282187427,198.25353925863237 186.1503607754421,198.08015537085157 186.32311570893216,197.67077327621882 186.13909414933005,197.46367224153437 186.03393897242495,196.7315841625641 186.34940450316935,196.2595717377335 186.42827088583726,195.94649869634668 186.61980352950923,195.6237896532075 186.5935147352866,195.11322885784466 186.50713726853428,195.0072624592067 186.43202642787946,194.679727888466 186.66487003388465,194.2510382186847 186.82260279926413,193.50443108236868 187.49860036509926,192.39653253263896 187.40471181429166,191.99671689309253 187.49484482308617,191.85220407148518 187.4159784404037,191.26932952134666 187.59999999999127,190.85504903618857 187.50235590714146,190.6719932770793 187.5324002434063,190.31551347354616 187.4272450665012,190.1083681048549 187.4310006085434,189.64108210533232 187.3371120577067,189.18342470821153 187.44226723462634,188.75466645762208 187.3408675997489,188.37889639993227 187.16060158218897,188.18137459333593 187.13806832999398,187.47317731708245 186.97658002258686,187.24674381521618 187.0216465269914,187.05403327627937 186.94653568633657,186.79387233385933 186.95029122836422,186.37953787638253 186.7925584629993,186.27836242412377 186.72120316438668,185.9170190905461 186.74373641658167,185.79657046799548 186.88269147177925,185.73393701735404 187.04042423714418,185.5171280371287 187.17937929234176,185.112414279316 187.10051290967385,184.55351601241637 187.14557941404928,183.89342617405782 187.01413544292154,183.64769605975016 187.31457880552625,182.88640336895696 187.29580109534436,182.45756651210831 187.5586890376435,181.30594441084395 187.47606711291883,181.04573992673977 187.4310006085434,179.61458002245854 187.46855602884898,179.14715124054783 187.59999999999127,178.8001896800488 187.49860036509926,178.63152654408623 187.5549334956013,178.64116445988475 186.73622533252637,178.54960415057576 186.29682691470953,178.59297485384377 186.04145005648024,178.70381084665496 185.53820742414973,178.75200029717234 185.29409719201794,178.88693039882492 184.86972094235534,178.91102500405395 184.44158915065054,179.06523007712167 184.15616795617098,179.03631667867376 183.8895244718733,179.21461558132796 183.57405894114345,179.2724420536506 182.86801703902893,179.10860012917692 182.00799791357713,179.30617411753337 181.36204468399228,179.28689865652632 181.1216899939027,179.18570230865953 180.5433365209028,179.10860012917692 179.60820655481075,179.18088342750707 179.2927410240809,179.12305680101053 179.08243067025614,178.8821114757593 178.6467877944815,178.93993850799234 178.14730070416408,178.85801685023762 177.97079022861726,178.93993850799234 177.52763626880187,178.96885198759264 177.36614796139474,179.06041117907444 176.96806050594023,179.05077338093906 176.75775015211548,179.1423323539966 176.2770407719654,179.0748678712116 175.40951056244376,179.12787569026113 175.03020081717113,179.05077338093906 174.57953577327135,179.16160789615606 174.20398157001182,178.94475742296345 173.9486047117971,178.95921416377314 173.20876293139008,178.72790558035558 172.6304094583902,178.9833087182742 172.010745023028,179.12787569026113 170.9028601234313,179.21943445775105 170.7188385638583,179.16642678001517 170.08790750238404,179.3158118440042 169.5245761975093,179.21461558132796 169.39313222638157,179.2724420536506 169.04386681733013,179.20015894803873 168.86360079978476,179.06041117907444 168.51809093277552,179.05077338093906 168.07118143091793,179.09896234456028 167.77824915236852,179.2097967042355 167.4890724158904,179.171245663194 166.58398678604863,179.29171752278853 166.26852125531877,179.44592088638456 165.7615230809315,179.47001509939582 165.38221333562979,179.68204344496917 164.0602625402098,179.66758700843639 163.8687298965524,179.56157295466255 163.35797618010838,179.69649987539742 163.1101104059926,179.53265997410563 159.88034425801015,182.15882306548883 159.1329913935333,182.5924820555956 158.5959488828812,183.00686219695854 158.55463792053342,183.14177558274605 158.25043901590107,183.3393263701073 157.88615143873903,183.86933506412242 157.49557506736892,184.22106359183454 157.03739893939928,184.44751703933798 156.89093280013185,184.65951465840772 156.6468225680146,184.73178627492962 156.3576458315074,184.95341828410528 155.86191428321763,185.49303806597163 155.74549248021503,185.52194602934105 155.37369381898316,186.1097360081476 155.02067286793317,186.3458127587437 154.31463096581865,186.55298081556248 153.93907676257368,186.8035079594556 153.46212292445125,187.27083255656544 152.78612535860157,187.58880235939796 152.63965921931958,187.77187454719024 151.8359732243698,188.34999084063384 150.74311049291282,188.90400982637948 150.50651134486543,189.08707500566015 150.26240111273364,189.39539310270266 150.0483352168958,189.90603886461759 149.77793619055592,190.18544559723887 149.597670172996,190.55156132472257 149.10569416673388,190.84541454687133 148.8428062244493,191.21634043557424 148.57240719810943,191.3319528810025 148.50105189951137,191.47165073355427 148.117986612182,191.79439877266122 147.8926540902321,191.81848432565312 147.71238807267218,191.99671689309253 147.28801182299503,192.12677791287933 146.4843258280307,192.8204283707164 146.01112753195048,193.09017754497108 145.70317308529047,193.05164207829148 145.05346431363432,193.24431897949762 144.91450925843674,193.35992460164198 145.00464226723125,193.35029081464745 144.92202034250658,193.34547392013337 144.93328696860408,193.43217791797724 144.80935408153164,193.5622335045009 144.71170998868183,194.14025237823444 144.74926540903107,194.50632596950527 144.52768842907972,194.7038114191273 144.39999999999418,195.30589420004617 144.40375554202183,195.71048790278655 144.49764409282943,196.21622333288178 144.6553768582089,196.50039521348663 144.5802660175541,196.85681086062323 144.74926540903107,197.44922328557368 144.70044336258434,197.8875055808021 144.88446492218645,198.28725269080314 144.85442058593617,198.42210608874302 144.98210901503626,198.74478885748977 144.91450925843674,198.8940888149482 145.06097539770417,199.279376031398 145.04970877160667,199.7031869812381 145.19241936884646,200.09328107782858 145.68439537509403,200.59895202141706 145.88719464484893,200.99866759829456 145.86090585064085,201.6199030642856 146.05243849429826,201.98589699795411 146.10501608275808,202.6937952595872 146.10126054071588,203.97471696536013 146.01863861600577,204.64886711472718 146.04868295225606,205.45301464674412 145.87968356079364,206.1560264212785 146.24397113795567,206.17047171797458 147.01385725461296,206.79161373500756 147.24294531860505,206.87346882290876 147.97527601492766,206.859023821562 148.44471876900934,206.96013870359093 149.1995827175415,207.32607579127216 149.44369294965873,207.66311966339345 149.74789185429108,207.8846038376323 149.97697991826863,208.40941933773138 150.20606798226072,208.66460196181652 150.3638007476111,208.99200330979875 150.566600017366,209.17496152887907 150.51026688689308,209.82493680356856 150.43140050421061,210.03677794222676 150.49148917672574,210.8745005700148 150.2511344866507,211.65443087954918 150.0445796748536,212.7809656568097 149.78169173258357,213.75341472107175 149.8342693210434,213.93634761099747 149.8230026949459,214.44662895103102 149.36107102494861,216.24699509166385 149.01180561591173,216.8583279377126 148.9817612796469,217.45039584942424" stroke="#ff0f00" stroke-linecap="round" stroke-linejoin="round" stroke-width="0.5"><title>2021-05-03 34.6km</title></polyline><polyline fill="none" points="46.652987284454866,258.1496314236356 46.38961853334331,257.985745106198 46.054763978376286,257.9809249085956 45.9268420135777,257.8989814463712 45.40010451139824,257.8170377894203 44.68900888347707,258.106249827164 44.50841316842707,258.0243066627263 44.27138129246305,258.0435874248069 43.887615398009075,258.20265330076654 43.75216861172521,258.14481124895246 42.98463682284637,258.2797758856286 42.314927712926874,258.1737322869776 41.95749869359133,258.3086968104726 41.86720083608816,258.289416196596 41.49095976310491,258.51596272884854 41.31788886952563,258.4050997181621 41.12976833304856,258.45330107094196 40.85134993902466,258.2171137985679 40.55788190210296,258.2942363510847 40.362236544140615,258.15927177099 40.004807524819626,258.1737322869776 39.854311095623416,258.1014296464127 39.25232537885313,258.21229363331804 39.015293502874556,258.16891211566326 38.69548859083443,258.24603477598066 38.49984323288663,258.18337262761634 37.96934331997181,258.2701355719473 37.65706322940241,258.2363944528588 37.088939209177624,258.4050997181621 36.79170876153512,258.6364655971265 36.404180456360336,258.7473278640791 36.069325901407865,258.66538622286316 35.34318063054525,258.86300984962145 34.68852116355265,259.29199382522347 34.07901062532619,259.1281129363233 33.92475178539462,259.20523345163383 33.54851071241137,259.20523345163383 32.58157115484937,259.4173139795239 32.11879463508376,259.5715535443269 31.930674098592135,259.528173736453 31.456610346620437,259.59083344143073 31.0352203448856,259.52335375443363 30.640167218254646,259.6534930325688 29.974220519070514,259.6390331370203 29.274412123311777,259.8221913659436 28.728862567499164,259.8221913659436 28.58965337049449,259.76435203031724 28.23598676189431,259.92340996988787 27.735586134818732,259.9860689568086 27.396969169130898,259.79809165455663 26.953004703027545,259.78845176528193 26.065075770762633,259.9716092007038 25.538338268597727,259.96196935993066 25.527051036406192,259.88003060457777 25.331405678443843,259.7836318196387 24.98902630204975,259.7691719786526 24.770806479704333,259.8655708040096 24.567636300300364,259.85593093359785 24.033373976664734,260.1065666886243 23.502874063735362,260.04390792061895 23.126632990752114,260.1836850160289 22.88207629331737,260.16922534279 22.70524298901728,260.255983291383 22.520884863261017,260.2318838831052 21.749590663646813,260.4102191056154 21.192753875628114,260.2849025590913 20.72621494512714,260.38129994297924 20.357498693600064,260.27526280588427 19.951158334777574,260.37648008018004 19.81194913778745,260.511435983859 19.164814492251026,260.42949853388563 18.352133774606045,260.5307153555477 18.107577077156748,260.4825169060932 17.972130290887435,260.3861198050945 17.569552342800307,260.40057938741666 16.756871625140775,260.2800826828134 16.418254659467493,260.3090019303163 16.08340010450047,260.26080317102605 15.808744121241034,260.0969268855588 15.308343494165456,259.9282298960061 14.194669918128056,259.8655708040096 13.97268768507638,259.7932717102485 13.16376937815221,259.812551483421 12.990698484587483,259.72579241934 12.78752830515441,259.72579241934 12.648319108149735,259.6052933571773 12.4564361609373,259.6197532668739 12.448911339481128,259.5137137883612 12.39999999999418,259.5619135917368 13.321790628804592,259.15703314976054 13.509911165296216,258.973871388338 14.006549381650984,258.8292693105868 15.282006619061576,258.0146662776351 15.616861174014048,257.8941612366507 15.996864657718106,257.63386891103437 16.56498867792834,257.3687543375854 16.779446089523844,257.1663018362997 17.584601985712652,256.8336987182083 17.76519770073355,256.63124307569524 19.58244208326505,255.74428053612428 20.669778784169466,254.87175708224095 21.02720780351956,254.70303452989174 21.166417000509682,254.70303452989174 21.851175753341522,254.19204119198184 22.24622887998703,254.05223980851224 22.460686291582533,254.06670204687543 22.821877721638884,253.96064549131188 23.34109040236217,253.5556992784077 23.99951228009013,253.1989570075857 24.09733495906403,253.04950982412993 24.311792370674084,252.96273374293742 24.40585263891262,252.803643693489 24.951402194725233,252.5915224856435 25.094373802479822,252.44689364115038 25.286256749692257,252.44207266920785 25.459327643271536,252.24441223956455 25.77913255529711,252.13835007846865 26.43755443302507,251.42483251377053 27.01696568542684,251.15484904382174 27.393206758395536,251.1452067379323 28.081727921948186,250.86557869406897 28.326284619397484,250.83665152559115 28.518167566639022,250.70647896711307 28.61599024559837,250.54255726837437 28.988468907860806,250.34488594793584 29.443720606155694,249.7422224876209 29.914021947377478,249.35169093967124 30.33917435987678,248.91294034308885 30.406897752996883,248.75865309187793 30.583731057296973,248.6381156963871 30.72670266503701,248.27650098098457 31.49047204319504,247.90041765278875 31.99839749172679,247.3845017966123 32.058596063405275,247.23502940495746 32.30691517156083,247.0469825722248 32.543947047539405,246.6515987059429 33.24375544329814,246.39122148792012 33.51464901585132,246.03440506861807 33.77425535621296,245.89939248725932 34.07901062532619,245.0121537953528 34.71109562793572,244.70354367919208 34.79010625326191,244.57817003015225 35.0158508970635,244.44315174423173 35.42971607732761,243.88860680807556 35.75704581083846,243.58480884259188 36.069325901407865,243.06882838355523 36.14081170527788,242.54319548661806 36.38536840271263,242.07542368959548 36.456854206568096,241.64622542426514 36.56972652848344,241.55942063081238 36.76537188641669,241.17844145159324 36.76537188641669,240.98071641986826 36.63368751088274,240.74440940595377 36.682598850355134,240.5129234129381 36.86695697612595,240.16569150763826 37.30339662080223,239.79434240361297 37.48022992510232,239.52426781429313 37.73231144397869,239.42298929756362 38.26281135690806,238.90212365208208 38.582616268933634,238.72850002053383 38.68796376937826,238.4101877570647 39.41410904022632,237.76873138313385 39.53826859431865,237.7446162489432 39.925796899493434,237.18514039748698 40.07253091795428,237.09350124558478 40.362236544140615,236.6208322753664 40.967984671660815,236.62565546086626 41.731754049818846,236.22532876619516 41.97254833651823,236.05169164504332 42.00264762235747,235.9069933755818 42.20205539105518,235.77676441343647 42.292353248558356,235.6320649892623 42.99216164430254,235.10149523420478 43.12008360911568,234.83138385640268 43.66563316494285,234.62879893321588 44.22999477441772,234.136802017023 44.93732799164718,233.7219756278755 45.24960808221658,233.6496216762789 45.686047726878314,233.41326437534372 46.73576032050187,233.2106711123488 47.37913255530293,233.18172912038426 47.86072112871625,233.0032529658638 48.33478488068795,232.94054490826602 48.97063229401829,232.55947041122272 49.621529350290075,231.9323766191519 49.922522208682494,231.78283718293096 50.035394530554186,231.62364932778655 50.78411426579987,231.4837563628971 50.85936248040525,231.49340417182248 50.84055042674299,231.54164317589675 50.9082738198922,231.4789324574158 51.20926667828462,231.46928464445227 52.22511757533357,232.1928631189403 52.47719909423904,232.24110114348514 52.96255007837317,232.17839169841318 53.76394356384117,232.39063859025555 54.241769726519124,232.66559284658797 54.42612785228994,232.9743107996146 54.802368925273186,233.2878496387566 54.97920222955872,233.74609357796726 55.182372408977244,233.9776250397299 55.35544330254197,234.35868384911373 55.53603901757742,234.45515376512412 55.56990071415203,234.57574078027392 55.47960285664885,234.98091005938113 55.50593973173818,235.30890074760464 55.59999999999127,235.5259516919541 55.24257098067028,236.9680999058728 55.01682633688324,238.22691572593249 54.78355687162548,239.01787225374574 54.83999303255405,239.74129220491886 54.65939731753315,240.45505167170995 54.339592405507574,241.06752267106276 54.30196829821216,241.71856258509797 54.166521511928295,241.92592827129192" stroke="#ff8a00" stroke-linecap="round" stroke-linejoin="round" stroke-width="0.5"><title>2021-05-02 22.6km</title></polyline></svg>