<?xml version="1.0" encoding="utf-8" ?>
<svg baseProfile="full" height="300mm" version="1.1" viewBox="0,0,200,300" width="200mm" xmlns="http://www.w3.org/2000/svg" xmlns:ev="http://www.w3.org/2001/xml-events" xmlns:xlink="http://www.w3.org/1999/xlink"><defs /><rect fill="#222222" height="300" width="200" x="0" y="0" /><text fill="#FFFFFF" style="font-size:12px; font-family:Arial; font-weight:bold;" x="10" y="20">Over 10km Runs</text><text fill="#FFFFFF" style="font-size:4px; font-family:Arial" x="10" y="280">ATHLETE</text><text fill="#FFFFFF" style="font-size:9px; font-family:Arial" x="10" y="290">DingXiaoshan</text><text fill="#FFFFFF" style="font-size:4px; font-family:Arial" x="120" y="280">STATISTICS</text><text fill="#FFFFFF" style="font-size:3px; font-family:Arial" x="120" y="285">Number: 11</text><text fill="#FFFFFF" style="font-size:3px; font-family:Arial" x="120" y="290">Weekly: 1.1</text><text fill="#FFFFFF" style="font-size:3px; font-family:Arial" x="141" y="285">Total: 260.4 km</text><text fill="#FFFFFF" style="font-size:3px; font-family:Arial" x="141" y="290">Avg: 23.7 km</text><text fill="#FFFFFF" style="font-size:3px; font-family:Arial" x="167" y="285">Min: 11.2 km</text><text fill="#FFFFFF" style="font-size:3px; font-family:Arial" x="167" y="290">Max: 36.1 km</text><polyline fill="none" points="14.306855552771594,60.67343432511916 15.572729572508251,60.038068001194915 15.454338477109559,60.47389862362252 15.631925120163942,61.014743631698366 15.499873513792409,61.14601584987395 15.636478623840958,61.40330844333221 15.003541613987181,61.86013095515955 14.621047305845423,61.47156953156082 14.479888692148961,61.18277201200908 14.338730078423396,61.22477902287574 14.22944599040784,61.14601584987395 14.106501391361235,61.26153512976089 14.106501391361235,61.47156953156082 13.938021755660884,61.68685391955296 13.0,62.568985587957286 13.081963066040771,62.71600608877634 13.29142423477606,62.84727404446676 14.434353655437008,63.11505965433753 16.984315709589282,64.50647265611406 17.831267391884467,65.29404854610766 17.872248924861196,65.48306499841783 17.77207184417057,65.72458502867812 18.47331140906317,66.16561873355022 19.379458639014047,66.21287212463358 19.8530230204924,66.15511797418367 20.271945357962977,66.27062621145888 20.845686820161063,65.64057818790025 21.6197824437113,65.25204479744934 22.220844927913276,65.54607033101638 22.803693397407187,66.1236156834675 23.38198836328229,65.75083713882486 23.9648368327762,66.35988240223742 24.99392866177368,66.9636702887874 25.212496837833896,67.02667384136294 25.49936756893294,66.84291326796301 25.95927143940935,66.9794211840308 26.56488742728834,66.95841998931064 27.99013407540042,66.78515981183955 27.999241082725348,66.65390172027037 28.518340500886552,66.56989636915387 28.777890209981706,66.72215596891328 29.4153807235125,66.78515981183955 29.76600050594425,66.89541635468777 30.08019225904718,67.10017789032281 30.43081204147893,67.46244633973765 30.66759423224721,68.36548142895845 30.89071591195534,68.72774113272317 30.93625094863819,70.05075530325485 30.89071591195534,69.31575155343307 30.9089299266343,69.03749744441302 30.986339488998055,68.97974640649045 31.282317227422027,69.11099867337543 31.528206425515236,69.46275312792204 32.03819883632241,69.52050363365925 32.548191247158684,69.22650039636574 32.611940298520494,69.0322473526794 32.917025044269394,69.06899798372251 33.1310397166817,69.00599688615694 33.33594738173997,68.76449197729016 34.16468504932709,68.869494248298 34.32405767770251,68.95349591367267 34.50619782443391,69.24750068227877 34.793068555532955,69.36825216307989 34.96154819126241,69.60450425573072 35.53984315710841,70.0140053605246 35.95421199090197,70.4392531218109 36.56438148242887,69.85125530451842 36.55527447507484,69.6832547166523 36.787503162137,69.65175454647397 37.46142170505482,69.18974987574984 38.35846192765166,68.81699313909121 39.42398178600706,68.47048449933936 40.54869719201815,68.29197915453187 40.94485201113275,68.1449742964287 41.03592208449845,68.20797642894831 41.4457374146441,68.17122519418263 41.673412598029245,68.22897712296981 42.00126486213412,68.16597501567594 42.329117126239,67.82996249779535 42.57955982798012,67.77221012935115 42.907412092084996,67.53069953538579 43.23071085251286,67.11067846031438 43.77257778903004,66.9794211840308 44.054895016452065,66.6118990615505 44.24614217050839,67.19993322042501 43.64507968630642,67.80371142911463 43.20338983050897,68.10297283267573 43.14419428285328,68.17647537216544 43.15785479382612,68.38648205986465 43.63141917530447,68.58073749683172 44.29167720719124,69.21600025024236 44.96104224640294,69.45225302911422 45.12041487477836,69.7305049364004 45.666835314943455,70.05600529296498 46.932709334709216,71.52073188541544 47.47912977487431,71.72022553058196 47.72957247658633,71.6047293022275 48.70402226157603,71.43148448256761 49.23222868706216,71.6047293022275 50.76220591957099,71.10074278244065 51.66835314952186,71.28448842902799 52.01897293195361,71.44198418490487 53.161902352643665,71.34748678815959 53.685555274481885,71.5574807718258 54.38679483937449,71.63097846737946 55.02428535287618,71.48923281940006 56.249177839607,70.92224639474807 57.064254996192176,70.83824788435959 57.45585631165886,70.85399761530061 57.99316974449903,71.09024301175305 58.60333923602593,71.63622829884116 58.89476347077289,71.24773935122357 59.54591449533473,71.07449335178535 60.329117126239,71.14799172450148 60.702504427026724,71.25298922107686 61.380976473592455,70.78574874699916 61.376422969886335,70.43400317047417 61.57222362761968,69.98250538913271 61.745256766997045,69.78825514716664 61.95927143940935,69.69375476915957 61.85909435871872,69.67275466203137 61.86820136604365,69.60450425573072 62.086769542103866,69.46275312792204 62.13230457881582,69.30000136029412 62.3098912218702,69.23175046864344 62.33721224387409,69.0112469805099 62.501138375897426,68.92724540769996 62.41917530991486,68.84849381093227 62.4328358208877,68.64898923620422 62.28257019983721,68.57023722135636 62.359979762200965,68.20797642894831 62.710599544632714,67.84046292158746 63.04755881609162,67.11067846031438 63.44826713888324,66.89541635468777 63.44371363520622,66.63815072720172 63.61219327093568,66.4123859728752 63.54844421957387,66.08161259973713 63.79888692131499,65.95560314653267 64.09486465973896,65.99760633126425 64.41360991651891,65.92410073588326 64.76422969895066,66.16036835413979 65.10118897040957,66.2758765798244 65.47002276752028,66.6118990615505 65.59296736656688,66.48589088338485 65.76600050594425,66.52789364309501 65.76144700226723,66.33363059720068 65.90715911966981,66.4438880900052 66.06197824436822,66.2023713747476 66.04831773336628,66.03960948231543 66.40349101947504,66.02910869772313 66.54920313684852,66.19712099902245 66.64482671389123,66.2023713747476 67.0,65.834843802877 66.94991145964013,65.535569447522 66.38527700479608,65.21004101512153 66.26688590942649,64.94226611134218 66.26233240577858,64.4854704703539 66.56286364785046,64.31220211658001 66.10295977740316,63.64012550508414 65.9026056159928,63.0940569108825 65.93903364532162,62.82627119365134 66.17126233241288,62.70550463811378 66.16215532505885,62.616242222491564 65.91171262331773,62.532230398293905 65.54743232988403,62.23818795277111 65.65216291422257,61.98089945926404 66.01188970400835,61.51357631086648 65.91171262331773,61.30354207747587 66.02099671136239,61.109259661927354 65.91171262331773,61.00949273613878 65.60207437389181,61.035747208712564 65.43814824183937,60.84146380007587 65.4472552491643,60.389883364056004 65.12850999241346,59.82802785226886 65.20591955477721,59.54447231534505 65.19681254745228,59.43420030316338 65.09208196308464,59.35018337616566 65.21047305842512,59.11913613215074 65.18770554009825,58.982607736237696 64.96913736400893,58.762061114230164 64.91449532000115,58.59402496945404 64.60030356692732,58.47324865745031 64.76422969895066,58.36822555109757 63.803440424992004,58.17393224924672 63.50746268656803,57.96913582659545 63.361750569194555,58.026899001219135 63.29344801418483,57.74858493749343 63.06121932709357,57.71182636569574 63.03389830508968,57.5962992578352 62.801669617998414,57.512279382979614 63.22514545917511,57.1867010949245 63.206931444467045,56.824361588533066 62.7971161143505,56.67207322174727 63.020237794087734,56.58280052503687 62.6741715153039,56.7088325232362 62.48292436124757,56.69307854004728 62.6149759676191,56.304478787991684 62.23248165950645,56.052412542332604 62.17328611182165,55.92112755893322 62.25524917783332,55.621796566243574 62.23248165950645,55.39073287559586 61.81355932203587,55.57978506196014 61.5494561092637,55.332966793648666 61.28990640019765,55.327715328501654 61.135087275499245,55.51151629560263 60.92107260308694,55.5325220793311 60.8482165444002,55.46950470285083 60.85277004807722,55.56403073915135 60.6342018719879,55.40648725052597 60.58866683533415,55.24894328798473 60.34277763724094,55.16491964751913 59.73716164936195,54.76055399238612 59.400202377932146,54.45596481392931 59.23627624590881,54.16712861171982 58.96761952948873,54.104109592255554 58.953959018486785,53.951813315488835 58.43941310397349,53.972819724829606 58.27093346824404,54.18813493467678 58.061472299537854,54.256405426131096 57.48317733366275,54.04634209113647 57.2236276245967,53.783761737478926 55.28383506197133,54.82357222193241 54.172780166962184,55.83185358223636 53.904123450571205,55.65330517233815 53.498861624102574,55.59553938001045 52.55628636479378,55.6165451300476 52.21022008600994,55.443247440260166 51.62281811280991,55.385481416229595 50.862383000261616,55.83710499684821 50.502656210475834,55.942133178377844 50.19757146469783,56.54604113509777 49.906147229950875,56.488276327345375 49.418922337470576,56.5197844122049 49.16392613205244,56.18894857597479 48.77687832029187,55.99464719017851 48.74500379458186,55.80559650131181 48.43991904883296,55.464253251382615 48.28054642045754,55.395984334434615 47.72957247658633,54.58200193021548 47.45180875287042,54.308921128231304 47.356185175827704,53.736497134003 47.15127751076943,53.41089537309381 46.4728054642037,52.84371327735789 45.634960789291654,52.42882618732983 44.901846698718145,51.75134526504917 44.74247407031362,51.80386347941385 44.25069567418541,51.767100734890846 43.53579559829086,51.95091419939854 43.40374399191933,51.90364794157358 43.31722742220154,51.81436711596325 43.321780925878556,51.63055317214457 42.72982544903061,51.37846442844602 42.65241588666686,51.2366639767788 42.71616493802867,51.157885782133235 42.7252719453536,50.72197762939322 42.493043258291436,50.627442852350214 42.20161902351538,50.25455401180079 41.8418922337587,49.724101930260076 41.87832026308752,49.56128882730263 41.61421705034445,49.577044956178725 41.199848216579994,49.07284648059067 41.01315456617158,49.05183810539529 40.89476347080199,49.17263614761396 40.671641791035654,49.21465279262702 40.40753857829259,49.445743737418525 39.446749304333935,49.60330516041358 39.3465722236142,49.529776555358694 38.93220338982064,49.54028064812155 38.74550973944133,49.47200400751535 38.44953200101736,49.10961111688448 38.26283835063805,49.020325526813394 37.99418163418886,49.036081818459934 37.46597520870273,49.31444218936667 37.49329623070662,48.86801446288882 36.86946622817777,48.76297209165932 36.76473564381013,48.60540813965781 36.83303819884895,48.50561739143086 36.67366557044443,48.61066027902052 36.50518593474408,48.57914743487345 36.43232987605734,48.673685910405766 35.98608651658287,48.458348023254075 35.621806223120075,48.495113091077656 35.43055906906375,48.279774469418044 33.94156336961896,48.936291891172004 33.29041234505712,49.07809857307802 33.14925373136066,49.3039380513037 32.953453073627315,49.319694257614174 33.21755628637038,49.48250811186881 33.21300278272247,49.89741854800741 33.15380723500857,49.94468661691644 32.25221350873471,49.587549039450096 32.20667847205186,49.89216653772746 31.869719200592954,50.249302037340385 31.906147229950875,50.322829631921195 31.75588160890038,50.52765595807796 31.84239817861817,50.632694788877416 31.701239564892603,51.331197653882555 31.537313432840165,51.56227925722851 31.546420440165093,52.019187607580534 31.67391854285961,52.33429449181858 31.63293700988288,52.47609197108977 31.38704781178967,52.69141333502557 31.459903870505514,53.17457024642499 31.355173286108766,53.22183535707518 31.300531242100988,53.55268993717618 30.804199342266656,53.641967799059785 30.61295218821033,54.256405426131096 30.663040728570195,54.55574422267091 31.132051606371533,54.82882373764369 31.446243359474465,54.85508130826929 31.532759929192252,54.95485995659692 31.52365292183822,55.11765629053116 31.751328105223365,55.1439137163361 31.892486718978034,55.08089587227005 31.928914748306852,55.25944623356918 31.73311409057351,55.385481416229595 31.787756134581286,55.64805373932904 31.61472299520392,55.70056804597334 31.637490513530793,55.82660216709337 31.49633189983433,56.23095959165221 31.232228687091265,56.356992436474684 30.922590437636245,56.87162340541545 30.959018466994166,57.14469084584198 31.145712117373478,57.570043061408796 30.954464963346254,57.853609286208666 30.517328611196717,57.816850788116426 30.44447255250998,58.184434608312586 30.130280799377942,58.200188142956904 30.03010371871642,58.425988285660424 30.043764229718363,58.756809992861236 29.843410068308003,58.71480100299232 29.69314444725751,58.58877383124491 29.565646344562992,58.07941092290275 29.301543131790822,57.86411170951396 29.16038451809436,57.89036775851855 28.873513786995318,57.71707759182391 28.89628130532219,57.533284364319115 28.823425246664556,57.46501814413568 28.409056412870996,57.28647530149465 28.245130280789454,57.09742927531988 27.967366557044443,57.30748037338344 27.73513786998228,57.32848543685395 27.452820642560255,56.855869471197366 27.316215532511706,56.80860764008321 26.929167720722035,56.88212602560452 26.624082974973135,57.0711728288552 26.28712370354333,57.03441378165007 25.972931950440397,57.202454929643864 25.686061219341354,57.18144981563455 25.153301290178206,57.60680173270521 25.05767771313549,58.20543932011424 24.9392866177659,58.38923018923015 24.602327346336097,58.59402496945404 24.52491778397234,58.71480100299232 24.242600556550315,58.5992761071393 23.819124715402722,58.63603405619506 23.277257778914645,59.03511869983777 22.73994434607448,59.30817486214437 22.45307361500454,59.28191952377529 22.266379964596126,59.18214911794348 22.111560839868616,59.2084045063275 21.961295218847226,59.02986760585918 21.783708575792843,59.01936541629766 21.414874778682133,58.81457229893931 21.21907412094879,58.835576758065145 21.04604098154232,58.688545367222105 20.67720718443161,58.888087869079754 20.381229446007637,58.82507452954815 20.203642802953254,59.18214911794348 19.966860612214077,59.21890665799947 19.857576524169417,59.386940798314754 19.707310903118923,59.30817486214437 19.361244624335086,59.42894924918073 19.320263091329252,60.15884070550601 19.183657981309807,60.10107988167147 19.119908929947997,59.83852987970022 19.02428535290528,60.174593646417634 18.778396154841175,60.11158185436943 18.660005059471587,60.15884070550601 18.641791044792626,59.980307044181245 18.099924108275445,60.07482494067517 17.999747027584817,60.022315019235975 17.885909435892245,59.58648063988949 17.494308120425558,59.491961862295284 17.394131039705826,59.93829903545702 17.27573994436534,60.01181302863188 17.1118138122838,60.04856998653122 15.909688843938056,59.901542000185145 14.352390589454444,60.626175938199594" stroke="#ff0000" stroke-linecap="round" stroke-linejoin="round" stroke-width="0.5"><title>2023-04-15 36.1km</title></polyline><polyline fill="none" points="76.68176152027445,72.93475087462139 76.50512910666293,71.98392445857098 76.52720815833891,70.87677869263644 76.2953781154938,70.27109612775894 76.32849669305142,70.1147899503303 78.59711925551528,68.66242544700799 80.08745524546248,67.82225223954083 80.4793584131694,67.91994740725931 83.59802446619142,71.9513616414115 85.21531500344281,72.86962626159584 89.4544929303811,75.92389401710534 93.74886848661117,78.86079279770638 96.06716891538235,80.96407040824488 96.46459184604464,81.15941750371712 98.02668475403334,82.29241803477635 104.9098291224218,86.90884703143456 105.16925797989825,87.0 105.68811569493846,86.29030534964477 106.08001886267448,85.50246928526394 107.84634299887693,79.97430195317793 108.65774814895121,78.43101177077551 109.32563946294249,77.6951673634685 113.3992245021509,74.15908035440589 118.6761178591405,67.93297341752259 123.70462188447709,60.05823065196455 123.56662781134946,59.84327270516587 117.5832047998556,54.25409374836454 115.41393797006458,51.83065032490049 114.72948736726539,51.198714724094316 106.9742204566137,45.84327983179901 106.81966709470726,45.94752647124551 106.4167244010896,47.17241080992608 105.24101489793975,48.78817713080571 104.5676038210222,49.97391322475596 104.48480737709906,50.05860775636393 104.36337259275024,50.019517987519066 103.97146942504332,49.38104812979145 103.0055109130044,44.72261692720713 102.79575992186437,44.15576195761969 102.36521841364447,43.51722920449174 102.36521841364447,43.32175862486838 108.17752877442399,38.64330452383365 108.96133510989603,37.926517225856514 109.60162760925596,37.007713607566984 111.66601894347696,33.006516826630104 111.892329223454,33.0 112.15175808095955,33.18247087557029 114.62461187166627,35.365561164333485" stroke="#ff9700" stroke-linecap="round" stroke-linejoin="round" stroke-width="0.5"><title>2023-03-19 21.3km</title></polyline><polyline fill="none" points="164.61796384121408,58.58227365768471 164.6567237295385,58.569210938101605 164.77300339462818,58.64105586059304 165.459607131168,56.62936541181989 167.3200817722245,54.075466108064575 168.11189092005952,52.67110160537777 171.67780064875842,44.8517808655306 171.83837732908432,44.263820676565956 172.5748152078595,42.68936547315752 173.58810943196295,39.965002703331265 175.09974507783772,34.75112772413195 175.28247026581084,33.87557027657385 175.2049504891038,33.54233235518768 174.23595328020747,33.01960246003364 173.9867825693509,33.0 170.42640996759292,38.03108710660672 167.07644818830886,41.67672714399305 166.1849707561487,43.042151571622526 165.17721365886973,43.64318975920469 163.30566476401873,45.740243069274584 161.60022967640543,47.47139987801711 160.27685634541558,48.97387270532272 159.47951007066877,50.2738078628754 158.54373562321416,52.33143640092385 157.75192647540825,54.35633505144142 156.21260519500356,57.46540082716456 153.10073987278156,64.53204591162284 151.9379432221176,66.28878099913709 150.5370501143916,68.15647995577456 149.04202584928134,71.08198913259184 148.9700431994861,71.32359845296378 149.04202584928134,71.97659173604916 147.7186525182915,74.8235592124147 146.6610612788645,77.84015223258393 145.0774429832527,81.6008865061267 144.71752973421826,84.57143844412712 144.9279405566922,86.71275591887388 145.18264839448966,87.0 145.50380175514147,86.99347174073046 150.6588669063931,83.42893590686435 151.64447549599572,83.0633304912335 155.0110486560152,81.44419396069497 157.29788206896046,80.69989877001717 158.71538655736367,80.03394259894412 161.60576680328813,78.00991268998041 162.1816280017083,77.45492479374298 162.24253639770905,77.23945751816063 161.63898956475896,72.47939170936297 161.73312072217232,69.37763621918566 161.8715488948801,68.19566182709968 161.74973210290773,66.9875423286976 161.7220464683487,65.04796974386045 162.10964535194216,63.28466738026327 162.43633583947667,62.337687255450874 164.07532540420652,59.97343696696407" stroke="#ff8f00" stroke-linecap="round" stroke-linejoin="round" stroke-width="0.5"><title>2022-06-18 22.1km</title></polyline><polyline fill="none" points="28.464865685236873,97.12289407911885 28.29276066168677,96.91974573919288 28.358324480155716,96.56181657558773 29.579450599470874,96.93909322025866 30.23508878433495,97.69364167824824 33.93944452874712,100.1990833008822 34.34102291695308,100.80850430870487 34.84094703293522,102.20145083480747 34.73440582785406,103.5266643071518 35.00485657915124,103.95227609798167 35.717863105179276,104.31984826824919 36.70132038241718,104.56167123097839 38.16011534372228,105.25811766766128 39.93853392012534,105.75143057407695 41.766125360445585,106.83477474718529 42.15950827134657,107.32807885572402 42.77416906962753,107.80203511238506 43.92153589313966,109.20454384514596 44.298527849430684,110.49096332738554 44.54439216875471,110.85850831308926 45.503263014077675,111.38080645399896 46.18348763088579,111.43883939032821 46.19987858549575,112.23195236930769 46.70799817878287,111.92244571173069 47.232508726621745,111.83539676908549 47.716041887993924,111.9804782925712 48.61754439215292,112.62850619103847 48.69949916526093,112.5704740355286 48.847017756837886,112.1932640963496 48.70769464256591,111.14867432782194 48.85521323417197,110.17177828447893 49.363332827429986,109.34962968559557 49.74032478372101,109.49471528797585 50.91227803914808,109.26257820988394 51.797389588697115,109.37864682511281 53.059493094537174,110.22981201433868 53.31355289116618,110.24915658250393 53.034906662622234,109.2819229896777 53.17422977689421,107.11528134255059 53.93640916675213,105.09367942047538 54.23964182729833,104.69709180117206 54.88708453485742,104.3682129137378 56.304902109579416,104.37788583963993 56.69008954317542,104.5036337802594 57.30475034145638,105.12269795690372 58.39474882380455,106.59295800229302 58.845500075869495,106.90248331720795 59.59948398845154,108.19860880325723 59.943694035493536,110.12341681379621 60.23873121867655,110.81981943916617 60.099408104404574,111.77736409303179 60.21414478679071,112.43506552455801 60.42722719683661,112.70588233915623 61.10745181358652,112.94768236554228 61.57459402034874,114.39846863846469 62.12369100016076,115.02713529802713 62.1073000455217,115.39466142880701 62.61541963880882,115.61711071326135 63.074366368178744,115.59776731941383 64.03323721353081,115.21089855434548 63.8201548034267,115.64612579604 62.861283958132844,116.46821585267026 62.85308848079876,116.62296136157238 63.75459098495776,116.91310846096167 64.24631962360581,116.90343690629379 64.93473971771891,116.6906624365729 65.08225830929587,116.76803503023984 65.18060403701384,117.17424003642373 65.08225830929587,118.42185803216125 64.76263469419791,119.58241711046139 64.41022916982183,120.22071811195929 64.70526635297574,120.01762283845164 65.48383669753093,118.87641215219628 66.75413568070508,118.42185803216125 67.0,118.55725737608009 66.10669297314598,119.61143089231336 65.91819699498592,120.23038930381153 65.48383669753093,120.7623032278425 66.098497495841,120.89769898860686 66.50007588404696,120.71394754873472 66.67218090756796,120.89769898860686 66.50007588404696,121.55533259257936 65.91000151768094,122.58045757608488 65.77067840340897,123.37347063900233 65.11504021854489,125.26893647015822 65.44285931094782,127.30941806363262 65.22158142356784,127.79293760927976 65.22977690087282,129.14677827728156 64.76263469419791,129.83336098361906 64.57413871603785,130.62630902779347 63.12353923203773,131.370900111011 61.3779025648837,132.6666670540726 60.3042950372037,133.2178457467453 58.14068902717554,133.22751551771216 57.87023827590747,133.4595897041072 57.50963727425551,134.18481761310977 55.51813628774835,135.60624707102397 54.870693580189254,136.43782106441358 54.231446349964244,134.99706581383361 53.01851570798317,135.13243978902756 52.2317498861521,135.86732346875942 51.42039763240609,136.35079624522768 50.740173015597975,137.04699240236368 49.96979814840597,136.75691133591317 50.17468508114689,137.62715168231807 50.084534830763005,137.87855285563273 49.84686598877306,138.00425317446206 49.05190468960791,138.0429301596887 47.98649263923289,137.6174823921392 46.31461526785279,137.5207894324194 44.667324328416726,137.22104058573314 42.68401881921454,137.25004858302418 41.26620124449255,137.47244291290554 40.8154499923985,137.75285235825868 40.151616330229444,137.86888359294244 39.12718166637933,137.6174823921392 38.766580664756475,137.64649025947438 38.1109424798924,137.05666175485385 37.078312338737305,136.66021743576857 35.97192290177918,136.93096008988505 36.12763697071932,137.06633110631083 33.9476400060521,137.76252163363824 33.718166641367134,138.7004363224696 33.037942024559015,139.50297398845578 32.19380786156398,139.78337699930125 31.390651085122954,139.74470077478327 29.415541053254856,141.04034509484336 27.39945363480365,141.34008100431674 26.489755653310567,141.29173657148203 25.301411443273537,142.42298937896703 23.22795568368747,143.31251134522608 22.531340112298494,143.47687855598633 21.392168766091345,143.30284267626848 21.031567764439387,143.41886663410696 20.474275307322387,143.01278211623867 19.941569282120327,142.33597044564522 20.17104264680529,141.31107434778096 19.941569282120327,140.527891026999 19.523599939246196,140.88564229271287 18.769616026693257,142.0265691008026 18.36803763845819,142.19093869992503 18.130368796439143,140.99200049821957 18.32706025193329,140.48921512785455 17.482926088909153,139.5223121556337 17.28623463344411,138.8841504064403 17.728790408204077,137.84954506441136 18.482774320815224,137.0373230487894 19.621945666964166,136.86327450402314 20.87585369552835,136.95996818226558 21.326604947593296,136.82459700313484 21.26104112912435,136.56352342995524 20.90863560474827,136.35079624522768 19.023675823322264,135.66426411489374 18.802397935913177,135.40318711799773 18.761420549359173,135.02607454021927 20.2529974199133,133.14048754087707 20.777507967781276,132.9470917303188 21.228259219875326,131.370900111011 22.0150250417355,130.8777300943184 22.170739110617433,130.5779587407742 21.98224313245737,130.3458769951976 22.0150250417355,130.17181528652145 22.670663226541365,129.63995794349466 20.449688875378342,129.65929826652427 19.06465320987627,130.08478430371906 16.66337835782906,131.11948044601013 15.737289421726018,130.84872000773612 14.884959781426005,131.07113042852143 14.516163302469067,130.76168969085847 14.39323114277795,129.5045755638057 14.057216573040932,128.51821197244863 13.663833662110846,127.83161905877932 13.0,127.27073638576258 16.417514038534136,126.4970992770468 17.44194870235515,125.22058325485705 17.941872818308184,124.79507382037264 18.736834117444232,124.61133047720068 19.580968280439265,124.12779353975202 20.07269691908732,123.6926080359699 21.121718014852377,123.25742039098986 22.654272271960508,122.10658052273357 23.695097890420584,121.11046333674312 23.50660191226052,119.87255450043449 22.121566246729344,119.65011591991788 20.53983912579133,118.51857187039423 20.212020033359295,118.47988634779904 19.966155714035267,118.27678707653104 18.6220974350872,117.75452966573357 17.884504477115115,117.08719626360107 17.327212019998115,116.92278001450177 16.778115040186094,116.55526023473067 17.548489907407202,115.58809562092938 18.728638640139252,114.79501274420909 18.736834117444232,114.44682777096023 20.966003945970442,111.79670832261763 21.38397328881547,110.84883609618555 21.85111549551948,110.36522390256869 22.14615267867339,109.77521344415436 22.383821520692436,108.46943859428575 22.07239338287036,107.56022101317649 22.52314463496441,106.97019183538214 22.400212475302396,105.96423137008242 20.728335103951395,102.24981663930521 20.949612991331378,102.00798735213903 25.743967218062608,99.7831268670343 25.94065867352765,99.5703111904586 26.13735012896359,98.82545228714298 26.0062224920257,98.36112148295797 26.55531947183772,97.6549470422251 27.628926999517716,96.52312144401367 28.29276066168677,96.64888055961637 28.251783275132766,96.87137701801112" stroke="#ff6b00" stroke-linecap="round" stroke-linejoin="round" stroke-width="0.5"><title>2021-12-18 25.6km</title></polyline><polyline fill="none" points="77.66511843938497,124.38602259489562 78.3088713423349,124.11575900597381 78.92754296326893,124.19297725200886 79.40408732002834,123.47870610261452 80.09800278683542,123.19878757881088 80.39897816997836,121.92466534796404 80.84208081749966,121.17176697711693 80.93404551787535,120.42851534805959 80.5996284254361,120.32233607339003 80.38225731538842,119.77213249310444 80.71667440782767,119.60803607691196 80.55782628891757,119.10609235375887 80.78355782627477,118.85511950629007 81.01764979097061,118.87442513327551 80.68323269853136,118.71032717992784 80.57454714353662,118.12150279893831 80.05620065025869,117.54232774711272 80.1230840687349,117.32996268440183 79.57129586624797,116.2874364594245 79.6799814212718,115.87235341664928 78.91918253598851,115.03252873788733 78.70181142588262,115.23524571357848 77.40594519273145,115.44761541858315 76.66186716209631,115.71790345335467 76.49465861587669,116.08472170967434 75.7338597306225,116.17159951209032 75.3241987923684,116.37431407806434 74.939619136072,116.85696608051512 74.5884811890428,116.99210820557346 73.44310264746309,116.54806907897 74.42127264282317,115.28351159695012 76.20204365998507,114.40506871404068 76.6284254528291,113.75829792748846 76.97956339991651,111.89518752868753 76.66186716209631,109.45281694855657 76.80399442638736,109.25008773823356 79.93915466786711,107.53169910709403 80.86716209937003,107.6668543858832 81.41895030188607,107.13588612224703 81.47747329308186,106.44079594723735 82.12958662334131,105.62019688768487 82.79006038088119,105.32091783424403 83.75986994890263,105.18575924556353 84.02740362286568,104.40376652461418 84.26149558753241,104.28791520820232 84.33673943334725,103.98863199226616 84.26149558753241,103.67003915421083 83.91035764050321,103.52522387755016 84.21969345101388,103.16801192564162 86.20947515094304,101.89362329727737 88.03204830471077,99.92408024671022 89.11890385506558,98.97791281073296 89.65397120296257,99.06480612834275 91.00836042730953,98.47586098767351 91.68555503946845,97.88691222525085 92.66372503482853,97.54898916895763 93.74222015790292,97.86760236843111 95.1969345099642,97.91587700317177 96.13330236880574,97.51036931519775 96.0246168137237,97.81932770938147 95.65675801207544,97.88691222525085 95.55643288433203,98.0703556707449 96.00789595910464,98.53379017849511 96.30887134230579,98.56275476078008 96.501161170454,98.96825799281214 96.87738039944088,99.0841157437535 97.23687877380871,99.46065246641956 97.8388295401528,99.20962814913219 98.71667440776946,99.11308015960822 99.20993961911881,99.50892629814916 99.2350209010765,99.99166327731655 99.48583372036228,100.12682919549115 100.23827217836515,99.89511607614986 100.27171388757415,100.0109727058807 101.12447747329134,99.51858106160216 101.67626567577827,98.97791281073296 102.09428704134189,99.19997335456719 102.24477473291336,99.75029509188607 102.56247097073356,100.15579329598404 102.6377148165484,100.41646980636142 102.44542498837109,100.86058370844694 103.15606130979722,101.09229449203121 103.17278216441628,101.43020504665037 103.38179284721264,101.84535066744866 103.54900139340316,101.88396877326159 104.41012540640077,101.32400471509027 105.39665582907037,101.19849508050538 105.41337668366032,101.07298528147658 105.7895959126763,100.9474753179602 105.73107292148052,100.76403738316003 105.9484440315864,100.82196518997807 105.7895959126763,100.63852701481665 106.15745471432456,100.77369202005502 106.34138411519234,100.63852701481665 106.70088248953107,100.76403738316003 106.5838365071686,100.4357791492439 106.72596377145965,100.47439782339643 106.7426846260787,100.32957771504152 106.19089642359177,100.12682919549115 105.88992104041972,99.21928294274403 106.09893172315788,98.84274527111847 106.04876915932982,98.44689637910051 106.22433813282987,98.37931225841749 106.36646539712092,97.92553192718333 106.2661402694066,97.1917549272257 106.5503947979596,96.99865478226275 106.7761263353168,97.1434799274939 106.89317231767927,96.99865478226275 107.22758941008942,98.24414387396246 107.4115188109572,98.29241831887339 108.28936367860297,97.82898264315008 108.59033906177501,97.91587700317177 108.78262888992322,98.1572498117821 108.85787273570895,98.90067424003792 109.29261495589162,99.20962814913219 109.16720854621963,99.3834142850319 109.4765443567012,99.37375950796559 109.77751973987324,99.7213308687642 109.85276358568808,100.36819643201306 110.17045982350828,100.75438274525368 110.04505341383629,100.9474753179602 110.0199721319077,101.73915079618746 109.6688341848494,102.42462061966216 109.69391546680708,102.75287203753396 110.28750580584165,102.26049448886624 110.32930794238928,102.43427508918103 110.63864375289995,102.3570393057671 110.64700418020948,102.56943756031978 111.1653506734583,102.38600273183692 111.80074314909871,102.55012864754099 112.16860195077606,102.43427508918103 112.49465861584758,102.56943756031978 112.77055271714926,102.49220188588515 112.71202972595347,102.22187653489527 112.51973989780527,102.12533158177393 112.90431955410168,101.81638707788079 112.67858801671537,101.27573179816682 112.93776126336888,100.57094444063114 112.84579656293499,100.1944120830376 113.34742220153566,99.51858106160216 113.2303762192314,99.01653207275376 112.79563399904873,98.81378077352565 112.50301904318621,98.38896713571012 112.42777519740048,97.41381961260049 112.99628425450646,96.52555778156238 113.69019972131355,94.11176119109587 114.1500232234248,93.02070516572712 114.216906641901,93.21381333228783 114.66836971667362,93.14622551829234 115.16163492802298,93.34898881715344 116.43241987924557,93.20415793321445 116.51602415234083,93.09794847908779 117.98745935905026,93.53244095570699 118.01254064097884,93.8607228527253 118.70645610769861,93.61933921444142 119.04087320016697,93.95727613768395 119.45889456570148,93.80279083502683 119.66790524846874,93.91865483539732 119.83511379471747,93.78348015469237 119.99396191359847,94.034518695531 120.46214584301924,93.96693146081816 121.06409660936333,94.31452244547836 121.10589874594007,94.53659380289173 120.75476079891087,94.85521702489496 120.46214584301924,95.5021154568094 119.31676730143954,96.41935201119486 119.31676730143954,96.80555424794147 118.91546679052408,97.30761482730304 118.7649790989235,97.77105302599375 118.48072457037051,98.0896654866956 118.15466790526989,98.13794000945927 117.71156525777769,98.63033875200927 117.51091500231996,99.05515131916036 117.59451927541522,99.47030723469652 117.40222944726702,99.76960456912639 117.76172782166395,100.04959155132383 117.83697166742058,100.29095898252854 117.45239201112418,100.54198046567763 116.94240594518487,100.34888707547361 116.10636321414495,100.55163512499712 115.49605202040402,100.97643917030655 115.06967022755998,100.90885683459055 114.16674407801474,101.43985961643193 113.64839758476592,102.27014897495974 113.42266604737961,102.33773035016202 113.96609382258612,103.24524705513613 117.37714816536754,102.7625264739545 118.0627032048651,103.2162838888471 119.15791918255854,103.1776663202254 119.49233627493959,103.39006275508291 119.4003715745348,103.67003915421083 119.02415234557702,104.05621215501742 118.81514166278066,104.69339420265896 119.04087320016697,105.13748827483505 119.89363678588415,105.53330951690441 120.20297259639483,105.97739969522081 120.14444960516994,106.9621140513118 120.3200185787282,107.4448134700142 120.02740362283657,108.05301127467101 119.93543892243179,108.7384359188145 120.62099396192934,109.25008773823356 121.63260566652752,109.28870285896846 122.0088248954853,110.0030797855652 122.93683232698822,110.03204089998326 124.28286112399655,111.62488871027745 124.37482582443045,112.33924821780965 124.14073385976371,112.99568198839552 124.61727821646491,113.76795125492208 124.16581514166319,114.43402849791164 124.11565257780603,114.75258554258471 124.39990710638813,114.99391593195469 125.21086855552858,114.86842420532776 125.45332094753394,114.95530311052426 125.4115188109281,115.85304718486441 126.19739897813997,116.66390557125123 125.77937761263456,117.551980693308 126.76590803530416,118.24699026546295 126.67394333487027,119.51150864202646 127.0,120.42851534805959 126.11379470507381,120.42851534805959 126.3646075243596,120.96906255904469 126.59869948905543,120.99802035929315 126.6154203437327,121.3262081507637 126.3311658151506,121.59647960579605 126.40640966096544,121.87640280930646 125.98838829540182,122.04049534157821 125.57872735714773,122.09841028591472 125.22758941011853,121.87640280930646 124.72596377148875,122.08875779761001 123.94008360427688,121.86675029866456 123.55550394798047,122.1273677449717 123.10404087317875,122.01153785630595 122.51881096148281,122.31076478234172 121.90849976777099,122.10806277320808 121.88341848581331,122.19493511535256 121.42359498376027,122.07910530835943 121.3065490013687,122.21424006955203 120.72131908964366,122.18528263677581 120.3869019972044,122.51346636273956 119.95215977702173,122.60033833740454 119.2415234556247,123.04434942260559 118.18810961444979,124.32810903284553 117.7784486762539,125.16785225763306 117.35206688338076,125.44776503101457 117.02601021828013,125.4381128800087 116.27357176033547,125.72767698699317 115.75522526705754,125.63115571518574 115.06130980027956,125.33193915497395 114.67673014401225,124.8396776202353 114.24198792382958,124.78176433228509 113.27217835572083,125.76628546848224 113.0380863910541,126.24889017517125 112.63678588016774,126.65427625108714 112.51137947049574,126.66392827960954 112.48629818859627,126.49019161736214 112.16024152343743,126.44193137751427 111.44124477473088,126.73149245209788 110.66372503482853,126.49984366240824 110.57176033442374,126.68323233374394 110.35438922431786,126.57705998783058 110.1119368323125,126.86662065421115 109.72735717604519,126.93418468383607 109.12540640964289,126.79905657696509 109.06688341847621,126.57705998783058 108.57361820715596,126.82801261590066 108.26428239664529,127.37817569384788 108.30608453319292,127.60982236095151 108.77426846261369,127.76425316139648 108.60705991639406,128.5460552706936 108.6823037621798,128.86456541319785 108.37296795166912,129.20237804426142 107.45332094753394,129.50158252338588 107.75429633067688,129.10586027114914 107.62052949372446,128.8935208282128 107.39479795630905,129.22168158722343 106.50023223410244,129.26028866146225 106.09057129584835,129.4340203032989 106.02368787740124,129.32785100401088 106.29122155130608,129.12516383354523 105.86483975846204,129.26994042762817 105.76451463077683,129.34715452174714 105.84811890384299,129.65601027625962 106.1072921504965,130.08068531400204 105.29633070132695,129.94556164242385 105.23780771018937,130.10964036169025 104.61913608919713,130.32197711095796 104.10915002319962,130.09033699752763 103.59080352995079,130.09033699752763 103.10589874591096,129.77183092765335 102.55411054342403,129.88765143915225 102.17789131443715,130.37023539746588 102.62099396190024,130.42814530919713 102.88852763583418,130.93002974574483 102.89688806317281,132.49357595526817 103.16442173710675,132.73486167940428 103.8499767765752,132.89893562498037 102.99721319091623,133.69034718348848 102.85508592662518,134.0667479494732 102.60427310728119,134.1729120009186 102.31165815141867,134.9643130436525 102.31165815141867,134.36593724782142 102.68787738040555,134.02814281071187 102.61263353459071,133.78686034128623 102.99721319091623,133.227082673744 102.3869019971753,133.39115577695338 102.12772875055089,133.12091757497546 101.88527635854552,132.30054693874263 101.99396191359847,131.82762420573272 101.86855550392647,132.8796328224198 102.06920575941331,134.14395818034245 101.48397584765917,135.62059188071726 101.42545285649248,136.11279806063976 101.18300046445802,136.59535068622063 100.9238272178336,136.74976701349806 100.98235020897118,137.33847697998135 100.61449140735203,138.16845538302732 100.6061309800134,138.46763188312616 99.903855085955,138.91156948565913 99.6530422665819,139.81873993472254 98.68323269856046,140.36882847416564 98.37389688807889,140.80310667110462 97.98095680444385,141.0250703234342 97.31212261956534,140.85135968269606 96.30051091496716,141.12157609897258 96.31723176961532,141.66200664736243 95.94937296790886,143.1385245831989 95.34742220159387,143.88160017432529 94.9126799814112,144.72117216174956 93.46632605668856,144.28691170656384 92.6219228982518,143.14817495247553 91.94472828612197,142.74285860779491 91.10032512771431,142.83936265474767 90.67394333487027,142.59810235527402 90.0469112865976,142.66565530032676 89.60380863910541,142.0962789882542 89.39479795636726,142.28928828633798 89.24431026473758,142.8007610476343 89.16906641895184,144.18075885175494 89.0269391546608,144.4027146868757 87.89828146770014,145.18438114676974 86.05898745934246,145.5028360262877 85.67440780307516,146.30379362491658 84.96377148167812,146.97929483427288 84.78820250811987,146.6029447473993 84.83836507200613,146.3230937254848 85.07245703670196,146.1107924055832 85.18950301903533,145.54143654587097 85.39015327449306,145.27123258237407 85.40687412911211,144.82732441840926 85.69112865769421,144.57641889516526 85.80817464002757,143.97810307546752 86.60241523457807,142.95516738293372 86.56061309803044,142.3664918968061 86.9953553181258,142.11557993554743 87.39665582904126,142.19278368583036 88.30794240592513,140.61974500561337 88.13237343236688,140.26267128244945 87.66418950303341,139.9345483105135 87.88992104041972,139.41340951807797 87.70599163958104,138.51588606988662 86.57733395262039,137.3674298359183 85.91686019508052,137.55079772039608 85.41523455645074,137.1165047941613 85.06409660939244,137.05859892203443 85.07245703670196,136.7883710564638 85.39851370183169,136.5856996575094 85.34835113794543,136.28651728561817 84.9888527635776,135.99698506915593 84.42870413375203,135.89082303738542 84.07756618669373,135.5240805687572 84.21969345101388,135.35035996240913 84.59591267997166,135.54338283889956 85.04737575474428,135.4854760167509 85.23966558289248,135.6688475002593 85.59080352995079,135.57233623685897 85.96702275893767,133.02440374683647 87.66418950303341,131.1327131003054 87.81467719460488,130.82386210327968 87.69763121227152,130.09033699752763 87.73943334881915,130.90107494583208 87.32977241056506,131.49947236696607 87.58058522993815,130.67908785590407 87.0873200185888,130.08068531400204 85.92522062236094,130.32197711095796 84.32837900603772,129.36645803556166 83.32512772871996,129.33750276335923 79.47097073850455,130.89142334389908 77.97445424989564,131.29678978778975 77.07988852763083,131.31609290902998 76.66186716209631,131.64424537547893 75.85090571295586,131.60563926126633 75.36600092891604,131.1520162546076 75.30747793774935,129.9069548441039 74.61356247097137,129.29889572018874 73.45982350211125,129.01899419224355 73.1922898281482,128.81630636870977 73.0,127.63877815500746 73.1922898281482,127.29130804933811 73.61031119368272,126.9438366842005 73.77751973990235,125.81454604851024 73.94472828612197,125.52498220396956 74.40455178817501,125.66976423557935 75.34091964698746,125.58289504284767 76.8457965629641,125.80489393443713 77.40594519273145,125.38985211047839 77.64839758476592,124.46324062316853" stroke="#ff2700" stroke-linecap="round" stroke-linejoin="round" stroke-width="0.5"><title>2021-11-13 32.3km</title></polyline><polyline fill="none" points="145.44112829846563,130.3805902945387 145.35268425842514,129.93992179055203 145.6278434941196,129.61521751063265 145.43130118289264,129.25572232680133 145.58853503182763,128.548325019583 146.78744313010247,127.2146943114567 148.9199272065889,125.9622258526797 151.8385805277503,125.52153898787219 154.03002729755826,124.50099395354482 154.29535941767972,123.38766089557612 154.9144676979049,122.34390053695097 155.04222020017914,121.69444446157286 155.7792538671638,121.31172741146293 156.47697907191468,120.2563489948734 157.1550500455196,119.96640802998445 158.3932666060282,120.04759158005618 159.6904458599165,120.46510599864268 160.52575068251463,121.0449844081013 160.98762511374662,121.7408343131683 161.3119199272478,121.83361395546672 162.87443130119937,121.56687226502254 163.78835304826498,121.0101917929569 164.81037306645885,121.46249489914771 164.68262056418462,123.00494995705958 164.86933575978037,123.32967447854026 164.96760691539384,124.44300814533926 164.6236578708049,125.57952420628862 164.86933575978037,126.43770173178928 165.3017288444098,127.06393500234117 167.11974522296805,128.37437413920998 168.12211101001594,128.21201972677954 168.56433121016016,128.35118066696305 168.95741583261406,128.14243918820284 169.615832575073,128.1192456652061 171.473157415865,128.7454690057275 172.6131028207601,130.24143201739207 172.8391264786478,130.91402866529097 173.67443130118772,131.35469312168425 174.58835304825334,131.27351822782657 175.75777979986742,130.69369575044402 178.2243858053116,128.45555125222018 179.12848043674603,128.95420929742977 180.20946314837784,128.98899930613698 180.66151046409504,128.803452461274 182.11592356691835,129.93992179055203 182.41073703370057,129.39488189735857 186.03694267518586,128.3395839289078 186.8525932666962,127.84092299352051 187.0,127.19150058554806 186.94103730667848,124.50099395354482 186.7838034577435,123.73557873193204 185.28025477711344,121.1145696040985 184.29754322115332,118.27313695842895 183.4720655141282,116.81179908759077 182.852957233903,116.19710332979594 181.7621474067564,115.54760960006388 179.24640582350548,114.80532617933204 181.63439490448218,113.72668631996203 181.89972702460364,113.78467798940255 179.2365787079325,114.81692439776816 178.11628753412515,114.45737903671397 177.21219290269073,113.81947297587612 176.45550500461832,112.92639804176724 175.32538671523798,110.3747139134939 174.1657870791969,110.01515348527755 171.463330300292,108.77408070128877 170.72629663330736,108.83207508025953 168.5348498634994,108.46091050652467 167.78798908099998,108.08974463307823 167.26715195633005,107.5329933858884 166.10755232028896,107.09222990785202 164.02420382166747,106.7790547438126 162.88425841677235,107.1270270911773 161.82292993628653,106.86024839372112 160.2211101001012,106.76745564590237 158.71756141947117,106.04830909585871 157.56778889900306,105.7119324216983 156.221474067308,105.65393633550411 154.069335759792,104.78399123421696 151.57324840762885,105.45674940499157 150.57088262058096,106.38468470244698 148.89044585986994,106.36148641900945 147.97652411280433,105.81632529688795 147.42620564147364,105.70033320698712 147.06260236579692,105.18996650341433 146.8365787079092,104.43601119432424 146.32556869881228,104.36641504924046 145.81455868971534,104.04163243465882 144.7630573248025,104.1692257233517 144.7630573248025,104.83038848652359 145.70646041852888,105.60753944366297 145.26424021832645,105.82792449888075 145.27406733395765,106.10630496626982 144.73357597814174,107.10382897021918 144.80236578709446,107.44020122705115 144.59599636029452,108.00855192501331 144.1439490445773,108.13614043832058 142.88607825292274,107.05743271308893 142.71901728847297,108.63489406229928 142.2374886260368,109.1916395217122 141.98198362148833,109.8759684759425 141.4709736123914,110.10794338995765 140.56687898089876,109.2380348446386 140.25241128297057,109.180040687781 140.29171974520432,110.20073321343807 139.56451319379266,110.57189169505727 140.11483166512335,111.66216221910872 139.8396724294871,112.70602774483268 138.79799818014726,113.12357107700518 138.21819836215582,113.93545618153439 138.13958143768832,114.32979813164275 137.35341219289694,114.50377205508994 136.989808917162,114.95610291981575 137.34358507732395,115.96514174024196 137.11756141943624,116.77700508322596 136.09554140130058,116.9277790195556 135.95796178339515,117.07855274142639 136.50828025478404,118.24994127652462 137.20600545947673,118.48189786712464 137.43202911736444,118.87622290645231 137.2944494995172,120.83622854603891 135.55505004548468,123.5964117343683 135.27006369421724,124.95328216929192 133.39308462233748,126.41450783592882 133.0,127.80613260824612 133.3832575068227,128.3163904490284 134.0711555960006,127.95689086218044 138.28698817099212,129.38328527342674 140.50791628751904,129.7891663556511 140.11483166512335,130.62411684011022 140.0755232029478,131.19234327183221 140.19344858964905,130.8212569674506 141.18598726112396,131.1691504158298 141.33339399454417,131.3199038890525 141.29408553231042,132.28240178180567 142.19818016380304,133.1753137030173 143.49535941763315,133.91746854010853 143.89827115560183,133.91746854010853 143.71155595994787,133.61596876385738 143.8393084622221,133.03615909288783 143.32829845312517,132.18963128095493 143.8491355777951,132.94338925139164 143.75086442218162,133.5811802729877 144.19308462238405,134.56684976254473 144.13412192900432,135.81921660659282 146.8365787079092,135.95836756534118 147.12156505911844,135.26261094598158" stroke="#4dd2ff" stroke-linecap="round" stroke-linejoin="round" stroke-width="0.5"><title>2021-10-24 17.4km</title></polyline><polyline fill="none" points="57.220834005915094,178.50472335847735 57.36263410287211,178.63493458168523 57.37838966929121,178.02108079804748 57.04752277623629,173.50081642232544 55.45621057623066,171.8452162352187 55.125343683117535,171.0639161584986 53.92792064155219,169.59431817806035 51.47005229303613,167.8642688116961 50.09931802173378,167.30618461045378 49.295784138608724,167.41780159744667 47.94080543360906,168.49676202215778 47.058493718795944,168.73859703875496 46.018626340606716,168.25492666105856 45.60898161580553,168.29213212364994 44.96300339605659,168.92462374026945 44.64789206930436,168.60837822649046 43.68680252280319,168.58977553088334 39.93697773467284,170.0221771304059 36.73859776830068,169.48270262182632 36.50226427329471,168.81300774381089 35.572685859398916,167.95728266687365 35.084263302967884,166.78530436762958 34.64310744550312,166.5620694886893 34.832174241601024,165.98537802616192 34.580085180175956,163.3623373023438 33.54021780198673,161.24155134372995 33.697773465304635,158.73006002428883 32.39006145938765,154.80461769062094 31.19263841782231,153.0 32.4845948573784,154.84182610090647 33.28812874056166,156.86967212936725 33.697773465304635,158.59983353526331 33.66626233269926,161.2973618399701 34.80066310893744,164.1064664479054 34.92670763959177,166.0969958814676 33.682017899060156,169.44549742016534 32.89423958217958,170.84068690479035 30.168526605993975,173.22178381396225 29.223192625737283,175.39822599911713 25.441856704943348,177.94667412807758 24.134144699026365,178.98836454139382 23.18881071888609,180.1974614726787 21.37692059011897,180.88571280406904 18.80876327730948,182.42961780625046 17.343495607899968,182.22500469713123 15.358294249570463,183.7874985566159 16.130317000031937,184.84775405986875 15.767938974371646,186.54042895138264 16.303628229768947,187.26585588345188 16.366650495037902,188.04708142210438 14.570515932748094,194.20375694322865 14.775338295090478,195.50574432723806 13.278559493133798,196.51012777595315 13.19978166144574,196.91931933023443 13.294315059494693,197.77489848573168 14.255404605937656,199.28145130621851 15.815205673279706,203.24306347843958 16.146072566334624,205.0471473257785 15.878227938665077,206.6094312610221 16.666006255487446,206.4048472774739 16.90233975055162,207.0 21.06180926336674,206.64662832242902 23.26758855051594,205.41912099445472 24.22867809701711,204.32179632928455 25.23703434265917,201.62495135814243 27.096191170276143,200.08122083095077 27.001657772285398,198.59327451510762 27.23799126734957,198.2212858996354 28.19908081390895,197.68190096020408 29.995215376256965,197.92369442067866 31.413216346525587,197.42150761777884 32.846972883155104,197.51450528594432 34.233462720760144,196.58452631373075 35.52541916037444,196.64032519560715 35.745997089135926,196.04513617687917 37.321553722722456,195.67314198108215 37.7942207128508,195.2267478707945 38.31415440200362,193.68295919516822 39.259488382260315,192.47395826678257 40.23633349506417,189.62812211214623 43.65529139013961,188.10288310877513 47.89353873458458,186.89384245917608 48.791606015875004,185.36857890026295 48.99642837821739,183.50848285030224 50.19385141978273,183.00625342383864 51.26522993063554,181.55536007088085 52.462652972200885,181.592562619393 54.14849857025547,180.84851010065177 55.125343683117535,179.47200434695696 57.34687853656942,179.15577847610984 60.82885869697202,180.97871952678543 63.081904683145694,180.71830057477928 65.2561728375731,181.20193545351503 65.90215105738025,182.26220709896006 65.41372850094922,183.6758923290763 65.8233732256922,185.74059566554206 66.80021833855426,186.5776304079045 66.75295163958799,189.94432848405268" stroke="#4dd2ff" stroke-linecap="round" stroke-linejoin="round" stroke-width="0.5"><title>2021-09-19 11.2km</title></polyline><polyline fill="none" points="108.12001665087882,172.80762169510854 111.67356177003239,164.90625839928543 113.12929754317156,161.32091515427965 113.72709018006572,159.55755267278437 115.25478247430874,153.8752528396035 115.12193966610357,153.51600882277125 114.086872785585,153.0 110.7713376977481,157.63085639234487 107.11262535539572,161.66705056839055 106.44841131442809,162.79687485329487 106.10523405994172,163.16912441888053 105.19193975356757,163.67851480362515 104.31739126631874,164.710343559389 101.98157188890036,167.1004607298455 100.2712207333825,169.05297185542076 99.46309365020716,170.3720235406072 97.7970234307868,174.40735737498835 96.35789300868055,177.30636112887805 93.13091979295132,184.5989540443952 92.0017559232947,186.29629662454317 90.52387968215044,188.24165311685283 89.02386297294288,191.25095582129143 89.1234950790822,191.7470519286726 89.06814390901127,192.09953876845975 87.90023422031663,194.5277250187719 86.78214058466256,197.70641131991215 85.1160703652422,201.6093721985926 84.74521752569126,204.57884586768705 84.96662220603321,206.71938607406992 85.18802688634605,206.97389643446513 85.4703178537602,207.0 86.8153512867284,206.04068649006877 88.32090311293723,205.12704028424196 90.64565225632396,203.43675804290615 91.65304355177796,203.0647590183362 94.99625422467943,201.43315704300403 97.33760871909908,200.68260519938121 98.24536790844286,200.27142932953575 99.46309365020716,199.55349643578302 101.48341135814553,198.0980242335536 102.2029765692132,197.46491541245996 101.60518393234815,192.41285866050384 101.73802674052422,189.27305807820085 101.86533443172812,188.2481810522877 101.72695650652167,186.79243382035565 101.71035115548875,185.01023762949626 102.12548493110808,183.09741853348896 102.41884613252478,182.35316522045832 104.30078591528581,179.5980416510538" stroke="#ff9b00" stroke-linecap="round" stroke-linejoin="round" stroke-width="0.5"><title>2021-09-11 21.0km</title></polyline><polyline fill="none" points="187.0,184.39987992822353 186.23365433351137,182.82648658149992 185.84657157339097,182.40198331099964 185.59242632685346,181.54373539039443 185.20143363984243,180.80082927500916 184.9668380276562,180.50550892424872 184.9081891246169,180.18711435498335 184.43899790022988,179.90563309666322 184.44681775396748,179.62414996001098 184.96292810079467,179.04733438529365 184.80262109912292,178.75200175781356 184.38034899717604,178.24900861653805 184.26305119108292,177.92136765615578 183.50843530517886,177.38144671778355 183.28556947362085,177.12302057492707 182.7850988342543,176.98919212861074 182.26116863368952,176.7307635822035 181.9092752154247,176.25543551370356 181.00608210847713,175.64165445133403 180.81449569184042,175.60012007177647 180.35312432117644,175.6139648695098 180.07160958657914,175.70164848292188 179.10976757657772,176.23697606316637 178.29650278763438,176.3015841046872 178.10491637101222,176.48617796363033 178.0110781261319,177.7183212765558 178.08536673666094,178.43820857529863 178.05408732171054,179.13962540731518 178.12055607848743,179.61953546671793 178.2300340308575,179.87333184851013 178.28868293391133,180.72699938113874 178.4059807399899,181.2115057012743 178.37861125191557,181.40530667121857 178.53500832671125,182.498881172869 178.4802693505335,182.64192046698736 133.54347983493062,177.71370657474472 133.0,178.55357398729393" stroke="#4dd2ff" stroke-linecap="round" stroke-linejoin="round" stroke-width="0.5"><title>2021-09-07 16.2km</title></polyline><polyline fill="none" points="19.821003216551617,261.0095906197603 19.731809093267657,260.70270412211175 19.802225506398827,260.44395498087397 19.722420238191262,259.6376104597366 20.04633573850151,258.56045500437904 20.75988872468588,255.22049974672336 21.182387203356484,253.99277529017854 22.797270277311327,252.09695540868051 22.825436842569616,250.3033726380745 22.938103103544563,249.32830630267563 23.853516473958734,248.80465043630466 24.74545770668192,248.11847102184765 26.365035208204063,246.53540127779706 26.61383986787405,245.81306871075503 27.55272537600831,244.80780234720078 27.759280187776312,244.30215049595427 28.30383378249826,243.7603740519953 28.75449882639805,243.51356251821926 29.56194036337547,242.7731194103253 29.97035555940238,241.99052339334594 30.186299226304982,241.14771174063208 30.36938190035289,240.83466320151638 31.2143788576941,240.29284303175518 31.866904285823693,240.35304561028533 32.10162566287909,240.2988632934139 33.27523254803964,240.64803702560675 33.85264713552897,240.4433493198776 36.16230548554449,240.7564007103174 36.81013648613589,240.70221890211906 37.72554985655006,240.45538980015408 38.63157437191694,240.39518736505124 39.25123880727915,240.70221890211906 40.359123706875835,240.96710709257604 41.36842562808306,241.38249664807154 42.110145179525716,241.5570794654741 42.43875510734506,241.4968785740857 42.950447709299624,241.5691196336229 43.49969573155977,241.90624297205795 44.62635834130924,242.13500373090574 44.85169086325914,242.37580321387577 46.08163087890716,242.5624218849298 46.89376684342278,242.82127869963006 47.81856906894245,242.79719906172613 48.20351212727837,242.90555732601933 49.799617491080426,242.98983578708794 50.52255933234119,243.2727694116511 50.813613839884056,243.2968487830367 52.57871859514853,243.1222730347872 52.98713379117544,243.18849150555252 53.470659827871714,243.40520578725773 54.043379987822846,243.4232652614046 55.28270885854727,243.70017624764296 56.066678257862804,243.60385958526604 56.41876032340224,243.74231471955136 56.83656437450554,243.70619603189334 57.58297835345729,243.8747496479009 58.305920194718055,244.32020959309375 58.75189081107965,244.47070177420755 59.296444405801594,244.45264274029614 59.836303572985344,244.2901110936291 61.488742067303974,244.50681981922753 62.04737894464051,244.4466230606522 62.80318177866866,244.77770418929504 63.19281926454278,244.7837238225584 63.93453881595633,244.976351641988 64.57767538903863,245.36160469028619 64.71850821524276,245.36762424175686 64.74198035296286,245.2231547736701 64.76075806311565,245.28335044439882 64.96261844734545,244.5670164934927 64.88281317916699,244.39846559305442 64.98609058506554,243.8145520037906 64.92506302703987,243.37510664681395 65.00017386768013,242.73097998789308 64.8499521863996,242.3818231836667 64.89689646178158,242.13500373090574 64.80300791098853,241.87012274089284 64.91097974442528,241.65942078722583 64.92036859950167,241.07546997250756 65.14100669391337,240.73834011517465 65.24897852735012,240.31692407328956 65.18795096932445,240.10019421356265 65.40389463616884,239.58846659527262 65.17386768668075,239.32959030191705 65.04242371555301,238.4144802032024 65.43675562899443,237.82446467216505 65.53533860729658,237.43312337043608 65.77475441189017,237.02973706650664 65.74189341912279,236.391536072304 65.63392158568604,236.25907807400654 65.54003303486388,235.84965986057796 65.83108754237765,235.31379777335314 66.02825349909835,234.38053885295813 66.87325045638136,232.9956656657996 66.75588976789732,232.49589611636475 66.86855602887226,232.31525508935374 66.76997305051191,231.5866619016815 67.0,231.0688112952339 66.87794488394866,230.83999159634914 66.91550030425424,230.3943918419318 66.7840563331265,230.1354601310668 66.7887507606938,229.55135263166449 66.67139007215155,228.97928088526533 66.80283404327929,228.4433330720276 66.67608449968975,227.97362049991716 66.45075197773986,227.726718241669 66.42258541251067,226.8414716463485 66.22072502825176,226.5584297690184 66.27705815873924,226.31754159534466 66.18316960794618,225.99234041732416 66.18786403545528,225.47442234547998 65.99069807876367,225.34795303015198 65.90150395547971,224.8962738631817 65.929670520738,224.74571308499435 66.10336433973862,224.66742127168982 66.30053029643022,224.3964100464109 66.47422411543084,223.89051784914773 66.37564113709959,223.19189501551955 66.43197426758707,222.3667827175741 66.26766930366284,222.05962007468406 66.64322350692237,221.10800421119347 66.61975136920228,220.5719581401354 66.94836129707983,219.13243051355676 66.84508389115217,218.80717490842653 66.7887507606938,217.01822502807408 66.83569503607578,216.43393905068297 67.0,216.00023710005917 66.87325045638136,215.78940818010597 66.94366686951253,215.80145557485594 65.9202816656616,215.68700518821788 65.37103364340146,215.74121856730198 65.05181257062941,215.8797635583178 64.4227592801908,215.94000037146543 64.11762149003334,216.10866299852933 63.58715117795509,216.13878125506744 63.051986438338645,216.33153759640118 62.69520994523191,216.2953958483413 62.361905589845264,216.51826947665904 61.96757367643295,216.59055256706415 61.08502129878616,216.38575016146933 60.00999739198596,216.63271764691672 59.20255585500854,216.60862332065517 58.90211249238928,216.48212788582532 58.179170651128516,216.38575016146933 57.01025819350616,216.47610428438202 56.615926280093845,216.40382100126226 56.35303833783837,216.10263934469913 55.80848474311642,216.17492313499315 55.184125880216016,216.07252106279702 54.963487785775214,216.17492313499315 54.409545336005976,216.2110649844908 54.20768495174707,216.32551397384304 53.7100756324362,216.31346672617292 53.44718769015162,216.4279154424985 52.846300964971306,216.3435848390145 51.76188820306561,216.40984461282642 51.28775102147483,216.31346672617292 50.724419716600096,216.45200987019416 50.25497696251841,216.1809467787025 49.935755889775464,216.19901770471915 49.010953664255794,215.90988197544357 48.28801182299503,216.22913589784366 47.51343127878499,216.40984461282642 46.12857515431824,216.524293072187 45.89854820483015,216.45803347501715 45.10988437800552,216.64476480500525 44.405720246897545,216.51826947665904 44.24141528297332,216.59055256706415 43.804833521688124,216.5001986850475 43.57950099973823,216.32551397384304 43.14761366599123,216.31346672617292 42.58897678865469,216.37370293070126 42.22281144047156,216.51224588029436 41.86134051985573,216.46405707899248 40.72998348256806,216.61464690348657 40.33565156915574,216.8074011079807 39.70190385117894,216.8375188742466 39.22776666955906,217.10255430620964 37.57532817526953,217.0844837605473 37.335912370705046,216.95196619332637 36.69747022513184,217.12062484424678 36.38763800749439,216.9158249676293 32.35043032251997,220.19852883186104 31.416239241923904,220.7406025694945 30.744936103612417,221.25857774619726 30.69329740066314,221.4272194784353 30.31304876989452,221.67415796263595 29.857689298456535,222.3366688301503 29.36946883422206,222.77632948978862 28.79674867427093,223.05939629916975 28.613666000164812,223.32439332300783 28.308528210036457,223.4147328436593 27.947057289391523,223.6917728551307 27.327392854029313,224.36629758246272 27.181865600286983,224.4024325366736 26.717117273743497,225.1371700101845 26.275841084920103,225.4322659484278 25.393288707302418,225.69122601945128 24.923845953220734,226.0043849493195 24.327653655578615,226.5885406957059 23.48265669826651,226.98600294924472 23.299574024160393,227.2148431839887 22.294966530491365,227.93748855078957 20.9288881161483,228.6300122829707 20.63313918109634,228.8588437570761 20.32800139093888,229.2442413783756 20.060419021145208,229.88254858076834 19.722420238191262,230.23180699654768 19.49708771627047,230.68945165590412 18.882117708446458,231.05676818358552 18.553507780568907,231.52042554446962 18.215508997644065,231.66494110125495 18.12631487438921,231.83956341694284 17.64748326523113,232.24299846582653 17.365817612793762,232.27310540706458 17.140485090843868,232.49589611636475 16.610014778765617,232.65847239109644 15.605407285038382,233.52553546339186 15.01390941493446,233.86272193121113 14.628966356627643,233.81455259786526 13.816830392053816,234.05539872437294 13.643136573053198,234.19990575205156 13.75580283405725,234.1878635183093 13.652525428158697,234.1818424001649 13.66660871077329,234.29022239747064 13.51169260192546,234.45279188062705 13.389637485874118,235.17531547279214 13.436581761285197,235.63290746188068 13.159610536356922,235.87976427390822 13.0,236.63236775005862 13.004694427538197,237.1381098784841 13.122055116051342,237.7702791660995 13.319221072772052,238.12549401685465 13.225332521949895,238.5710135757763 13.436581761285197,239.3115291069662 13.375554203230422,239.85938197600262 13.605581152747618,240.3590658635003 13.568025732412934,240.52763261092696 13.72763626879896,240.93098607186403 13.643136573053198,241.1176110186825 13.826219247159315,241.59922003924294 13.812135964515619,242.12898372654672 13.990524211054435,242.616601347283 14.605494218878448,243.2486900267686 14.858993306086631,243.7483344978682 14.826132313319249,244.52487883035792 15.065548117883736,244.982371247439 15.131270103447605,245.86724407448128 15.126575675909407,247.46839620669925 15.023298270010855,248.31108389340807 15.060853690316435,249.31626830843015 14.849604451010237,250.19503302659723 15.304963922448223,250.21308964747004 16.267321568273474,250.98951716876036 16.553681648278143,251.09183602863777 17.469095018692315,251.0737797769507 18.05589846125804,251.20017337948593 18.9994783969305,251.65759473908838 19.30461618708796,252.07889957923908 19.684864817885682,252.35575479703766 19.971224897832144,253.0117741721624 20.257584977836814,253.33075245227155 20.45475093452842,253.7400041372457 20.708250021736603,253.968701911097 20.637833608634537,254.78117100446252 20.539250630274182,255.04597242778254 20.614361470914446,256.09312571251576 20.313918108324287,257.06803859943466 20.055724593577906,258.4762070710094 19.72711466572946,259.6917684013388 19.792836651322432,259.9204345137441 19.77875336870784,260.55828618878877 19.201338781189406,262.808743864578 18.76475701990421,263.57290992214257 18.727201599569526,264.3129948117785" stroke="#ff0f00" stroke-linecap="round" stroke-linejoin="round" stroke-width="0.5"><title>2021-05-03 34.6km</title></polyline><polyline fill="none" points="115.81623410555767,255.1870392795463 115.48702316670096,254.9821813827475 115.06845497299219,254.97615613574453 114.9085525169794,254.87372680796398 114.25013063926599,254.77129723677353 113.36126110434998,255.132812283955 113.13551646054839,255.03038332840515 112.83922661558609,255.054484281005 112.35951924751862,255.25331662596 112.1902107646747,255.18101406118876 111.23079602856888,255.34971985703305 110.39365964118042,255.2171653587211 109.94687336700736,255.38587101309167 109.83400104512111,255.361770245745 109.36369970388478,255.64495341106158 109.14736108691432,255.50637464770261 108.9122104163107,255.56662633867745 108.56418742379174,255.27139224821076 108.19735237763962,255.36779543885496 107.95279568017577,255.19908971374025 107.50600940603181,255.2171653587211 107.31788886952563,255.1267870580159 106.56540672358824,255.26536704164755 106.26911687859683,255.21114014457999 105.86936073855031,255.30754346997492 105.62480404111557,255.2292157845186 104.96167914997204,255.33766946493415 104.57132903675665,255.2954930660744 103.86117401148658,255.50637464770261 103.48963595193345,255.79558199640815 103.00522557046497,255.93415983009982 102.5866573767562,255.83173277858077 101.67897578817792,256.0787623120268 100.86065145445173,256.61499228153116 100.0987632816541,256.4101411704032 99.90593973174691,256.50654181453865 99.43563839053968,256.50654181453865 98.22696394356899,256.77164247440305 97.64849329384742,256.9644419304095 97.4133426232438,256.9102171705672 96.8207629332901,256.9885418017875 96.29402543112519,256.90419219304385 95.80020902282558,257.0668662907119 94.96777564883814,257.0487914212754 94.09301515415427,257.2777392074313 93.41107820937759,257.2777392074313 93.23706671313266,257.20544003789837 92.79498345236061,257.40426246236166 92.1694826685125,257.4825861960089 91.74621146140271,257.24761456819397 91.19125587880262,257.2355647066033 90.08134471345693,257.46451150087887 89.42292283574352,257.4524616999115 89.40881379551138,257.35003825572494 89.16425709804753,257.22953977454745 88.73628287756583,257.21146497331574 88.46350809963769,257.33196350501385 88.20954537537182,257.31991366700095 87.54171747082728,257.6332083607813 86.87859257968375,257.55488490077187 86.40829123844742,257.7296062700334 86.10259536665399,257.7115316784875 85.88155373628251,257.8199791142288 85.65110607907991,257.7898548538833 84.68698832957307,258.01277388201925 83.99094234453514,257.8561281988623 83.40776868141256,257.97662492872405 82.94687336700736,257.8440785073544 82.4389479184756,257.97060010022324 82.26493642223068,258.139294979821 81.45601811533561,258.0368731673552 80.44016721827211,258.16339419443466 80.13447134644957,258.10314613261653 79.96516286360566,257.9826497563663 79.46194042850402,258.00072423427264 78.44608953144052,257.8501033535176 78.02281832433073,257.88625241289265 77.60425013065105,257.82600396378257 77.2609301515622,257.6211586069476 76.6354293677141,257.4102873700067 75.24333739766735,257.33196350501385 74.9658596063382,257.24158963781156 73.95471172270481,257.26568935427713 73.73837310573435,257.157240524175 73.48441038146848,257.157240524175 73.31039888519445,257.0066166964716 73.07054520118982,257.02469158359236 73.06113917435869,256.8921422354506 73.0,256.952391989671 74.15223828601302,256.4462914372016 74.38738895664574,256.2173392354198 75.00818672706373,256.03658663823444 76.6025082738197,255.0183328470448 77.02107646752847,254.86770154581245 77.49608082216582,254.54233613879114 78.20623584740679,254.21094292198177 78.4743076119048,253.9578772953755 79.48075248213718,253.54212339776132 79.70649712593877,253.28905384461905 81.9780526040995,252.18035067015808 83.33722348022275,251.08969635279936 83.78400975439581,250.87879316236285 83.95802125064074,250.87879316236285 84.81396969169145,250.2400514899782 85.30778609999106,250.06529976063757 85.57585786448908,250.0833775585961 86.02734715206316,249.95080686413712 86.67636300294544,249.4446240980069 87.49939035013085,248.99869625948122 87.62166869884823,248.81188728016423 87.88974046334624,248.70341717867268 88.0073157986335,248.50455461686215 88.68925274341018,248.2394031070544 88.86796725311433,248.05861705143616 89.10782093711896,248.05259083651254 89.32415955408942,247.8055152994566 89.72391569413594,247.67293759808672 90.54694304129225,246.78104064221407 91.27120710679446,246.443561304779 91.7415084480017,246.43150842241812 92.60215990245342,246.08197336758894 92.90785577424685,246.04581440698894 93.14770945830969,245.88309870889134 93.26998780699796,245.67819658546796 93.73558613483328,245.43110743491707 94.30465075769462,244.67777810952612 94.89252743421821,244.18961367458905 95.42396794984234,243.64117542886015 95.5086221912643,243.44831636484378 95.72966382163577,243.2976446204848 95.90837833131081,242.8456262262298 96.86309005401563,242.37552206598411 97.49799686466577,241.73062724576812 97.5732450792566,241.5437867561959 97.88364396445104,241.30872821528465 98.17993380944245,240.8144983824277 99.05469430412631,240.48902685990106 99.39331126981415,240.0430063357744 99.71781919526984,239.87424060907506 100.0987632816541,238.76519224419098 100.88886953491601,238.3794295989901 100.98763281659922,238.22271253769213 101.26981362132938,238.05393968028875 101.78714509666315,237.36075851009446 102.1963072635699,236.98101105324167 102.5866573767562,236.33603547944585 102.67601463160827,235.67899435827348 102.9817105034017,235.09427961199617 103.07106775822467,234.55778178033142 103.2121581606043,234.44927578851275 103.45671485803905,233.97305181448974 103.45671485803905,233.7258955248326 103.29210938862525,233.43051175744404 103.35324856295483,233.1411542661699 103.58369622015744,232.70711438454964 104.1292457760137,232.2429280045144 104.35028740638518,231.90533476786732 104.66538930498064,231.7787366219527 105.32851419612416,231.1276545651017 105.72827033617068,230.91062502566638 105.85995471171918,230.51273469633088 106.76763630029745,229.71091422891914 106.92283574290923,229.68077031117718 107.4072461243777,228.98142549685872 107.59066364745377,228.86687655697824 107.95279568017577,228.276040344208 108.70998083960149,228.28206932608373 109.6646925622772,227.78166095774213 109.96568542066962,227.5646145563005 110.00330952793593,227.38374171947726 110.25256923882989,227.22095551679377 110.36544156068703,227.0400812365806 111.2402020554,226.37686904275324 111.40010451141279,226.03922982050426 112.08204145618947,225.78599866652075 112.78749346802942,225.17100252127784 113.67165998957353,224.65246953484166 114.06201010275981,224.56202709534773 114.60755965861608,224.26658046917873 115.91970040064189,224.013338890436 116.72391569413594,223.97716140048215 117.32590141089167,223.75406620732974 117.91848110087449,223.6756811353298 118.71329036753741,223.19933801403022 119.5269116878626,222.4154707739399 119.90315276084584,222.22854647866552 120.04424316319637,222.02956165973228 120.98014283226803,221.8546954536214 121.07420310052112,221.8667552147781 121.05068803342874,221.92705396987003 121.1353422748798,221.84866557177156 121.51158334786305,221.83660580556534 122.78139696916332,222.7410788986781 123.09649886781699,222.80137642935733 123.70318759797374,222.72298962301647 124.7049294548051,222.98829823782216 125.30221215815982,223.33199105823587 125.53265981536242,223.71788849951918 126.00296115659876,224.10981204844575 126.22400278697023,224.68261697245543 126.4779655112361,224.97203129966147 126.69430412820657,225.44835481138944 126.92004877197905,225.56894220640243 126.96237589270459,225.71967597533876 126.84950357081834,226.22613757422732 126.88242466468364,226.6361259345067 127.0,226.9074396149408 126.55321372585604,228.71012488233828 126.27103292109678,230.2836446574147 125.97944608953549,231.27234031718035 126.0499912906962,232.17661525614676 125.82424664692371,233.06881458963835 125.42449050687719,233.83440333882754 125.37746037277975,234.64820323136883 125.20815188990673,234.907410339114" stroke="#ff8a00" stroke-linecap="round" stroke-linejoin="round" stroke-width="0.5"><title>2021-05-02 22.6km</title></polyline></svg>