<?xml version="1.0" encoding="utf-8" ?>
<svg baseProfile="full" height="300mm" version="1.1" viewBox="0,0,200,300" width="200mm" xmlns="http://www.w3.org/2000/svg" xmlns:ev="http://www.w3.org/2001/xml-events" xmlns:xlink="http://www.w3.org/1999/xlink"><defs /><rect fill="#222222" height="300" width="200" x="0" y="0" /><text fill="#FFFFFF" style="font-size:12px; font-family:Arial; font-weight:bold;" x="10" y="20">Over 10km Runs</text><text fill="#FFFFFF" style="font-size:4px; font-family:Arial" x="10" y="280">ATHLETE</text><text fill="#FFFFFF" style="font-size:9px; font-family:Arial" x="10" y="290">DingXiaoshan</text><text fill="#FFFFFF" style="font-size:4px; font-family:Arial" x="120" y="280">STATISTICS</text><text fill="#FFFFFF" style="font-size:3px; font-family:Arial" x="120" y="285">Number: 16</text><text fill="#FFFFFF" style="font-size:3px; font-family:Arial" x="120" y="290">Weekly: 1.1</text><text fill="#FFFFFF" style="font-size:3px; font-family:Arial" x="141" y="285">Total: 354.3 km</text><text fill="#FFFFFF" style="font-size:3px; font-family:Arial" x="141" y="290">Avg: 22.1 km</text><text fill="#FFFFFF" style="font-size:3px; font-family:Arial" x="167" y="285">Min: 10.0 km</text><text fill="#FFFFFF" style="font-size:3px; font-family:Arial" x="167" y="290">Max: 36.1 km</text><polyline fill="none" points="22.110454902242054,66.98470334798913 21.350851724884706,68.73198944604883 21.07274564357067,70.77285095450134 21.205572428691084,72.41232476922596 21.325946702680085,72.6472295464373 21.545941065531224,72.75 25.514141270672553,69.99958580909515 26.20318021842104,69.75487887458803 28.722738298456534,68.536218476871 30.416279808603576,68.00763259505766 31.507949948732858,67.49861808476635 33.550161769773695,66.06453654731376 34.147882302771905,65.54571077843502 33.71204441413283,61.825652218420146 33.75355278447387,59.89207892015111 33.87392705846287,58.668255288626824 33.77015613261028,56.31352470377533 34.147882302771905,54.619608795161184 34.49240177664615,53.934191114451096 35.945194738786086,51.77995306141747 36.580272805076675,49.94387303300755 38.190797574527096,47.75027085750844 38.99190912221093,46.13927590664025 41.208456098727765,41.17371750424718 41.34543372086773,40.72806356655201 42.32918209808122,38.46054686982097 43.80688008244033,33.49903560769235 43.92725435642933,32.92105483217165 43.90234933422471,32.68594187443887 43.33783549751388,32.3479648357461 42.97256183846912,32.25 40.57752886945673,35.678641786562366 37.792317219194956,38.749502460763324 37.22365254545002,39.68492218762185 37.02441236778395,39.880819134057674 36.38518346444471,40.21873935398253 32.65358097029093,44.28337713385554 32.03925708915631,45.30192739822451 30.852117697242647,48.17626896297952 29.710637512718677,50.5020493152515 27.315604543706286,55.897395220086764 26.57260471448535,57.04296589573278 25.323202767089242,58.717208874888456 24.318700204690685,60.72915505767378 24.235683463979512,60.92006497208786 24.322851041710237,61.468314569261565 23.272689271951094,63.680825233401265 22.587801161236712,65.69254886873387 22.193471642938675,66.63719576259973" stroke="#ff8800" stroke-linecap="round" stroke-linejoin="round" stroke-width="0.5"><title>2023-11-06 22.2km</title></polyline><polyline fill="none" points="91.46722518646857,63.72591932467185 89.06700732995523,60.77300332105369 88.30098035442643,58.72400400208426 86.00289942795644,54.5355135188438 84.86662608099869,51.74813812841603 83.309037897503,48.82510010620172 84.35594143060734,47.39369288283342 85.28794091753662,47.21288249117788 88.262679005682,45.51023966232606 87.91796686674934,44.802054588886676 88.02010379679268,44.01852643489838 87.75199435534887,44.726715537006385 87.85413128539221,45.058207057081745 87.4072822164162,45.46503646860947 87.04980296111898,45.28422354515351 86.23270752065582,45.314359048890765 85.88799538166495,44.922596986201825 84.29210584936664,44.45549460903567 83.60268157138489,44.65137644390052 82.63238073582761,45.44996873404307 81.66207990015391,45.25408803483879 81.67484701640205,44.802054588886676 82.93879152601585,43.415809437196 81.27906641241862,41.411756454835995 80.39813539059833,39.603563325232244 78.25325985922245,38.12685465835966 77.33402748865774,37.132327653627726 75.73813795635942,36.80081705597695 73.83583763387287,35.91176196796005 72.62296158936806,34.178841485772864 69.73759331495967,32.25 67.78422452753875,32.25 66.30323904153192,32.807558518106816 63.90302118496038,34.1336345726595 60.775077701720875,34.57063411131094 60.55803672532784,34.721323285848484 60.353762865182944,35.48983551112178 59.99628361000214,40.35698001431592 60.379297097737435,42.22543561810744 60.23885881889146,43.74730411237397 60.43036556278821,45.34449454602145 60.88998174801236,46.36909752529755 61.349597933352925,49.59353363729315 62.00072086247383,54.44511303976469 61.74537853739457,55.49978160462342 61.834748351131566,56.40377680522215 62.83058341930155,62.02348057884956 68.90773075824836,62.67131373140728 69.87803159386385,63.42460426458274 72.95490661211079,66.99514536722563 74.90827539958991,66.88968767334882 75.59769967751345,67.14579907563166 76.47863069933373,67.85386929870583 77.72980809258297,67.83880401271745 82.37703841063194,68.9686958927341 83.73035273398273,68.938565562843 85.36454361502547,68.30582711307216 87.95626821549376,68.84817453363212 90.20328067697119,70.08351346741256 90.95654053613544,70.92715320445132 91.6204305816209,72.19260312592087 93.34399127645884,72.75 93.72700476419413,72.35831594564661 94.3908948096796,70.56559394962096 95.00371639005607,68.56193588323367 95.00371639005607,67.82373872502649 94.60793578601442,66.61851037562883 93.5993336015963,65.50366476671479 92.32262197573436,64.56959798741445 91.7991702092113,63.57526187696203" stroke="#4dd2ff" stroke-linecap="round" stroke-linejoin="round" stroke-width="0.5"><title>2023-10-08 10.0km</title></polyline><polyline fill="none" points="122.70556576910894,63.3972953232078 122.64327311182569,63.671538470454834 123.03364043094916,63.710715926164994 123.54444022091047,64.16125420966273 123.59427434676036,65.71361779954532 123.50291178270709,65.97805293484998 123.56935728383542,66.11026991852486 121.9082197555399,67.29530846406124 121.3641972150217,67.61359861317396 120.4422658868134,68.02492407969112 118.8018925776123,68.55376557217096 116.50536994473077,69.66039521126731 115.50868742774765,70.07170193145066 113.67728330280806,71.38394105007683 112.90070150833344,71.83929864961101 111.60916708008153,72.75 111.36830213846406,72.73041521898631 111.17727132271102,72.44153870724767 111.05268600808631,70.99223189446639 111.35584360700159,68.63700857312142 112.43143015659007,66.11026991852486 113.29522167130199,63.66664128608318 114.30436271973304,61.51672575356497 114.26698712534562,60.88985172320099 115.35918505021255,58.690825944311655 116.68809507286642,56.922711489249195 117.30686880214489,55.98230090871584 119.71551821817411,50.550064491115336 120.93645430148172,48.07129624896697 121.5136995925568,46.56241373040757 122.2404472611961,44.989790590108896 122.9007494286925,44.03443185076685 126.36422117518669,40.296088939161564 127.23631837757421,39.70811673469143 127.7969522933563,38.80164447864445 130.5170649959473,35.78810495827565 132.98800706930342,32.264701845015225 133.13335660302255,32.25 133.785353082887,32.5832406362897 133.94731399189914,32.74005890184344 133.80196445816546,33.59274861734593 133.52372392217512,34.43562135789398 133.19149641653348,35.7979054151474 132.27787077594257,38.63994750130587 131.3600922915648,40.74686240752999 131.25627119604906,41.133936008369346 129.37918578907556,45.34253328791965 128.1665553933999,47.81655341109945 126.63830886736105,49.9475306611821 125.92817257401475,51.926554505964305 124.44976017384033,54.07203124339867 124.20889523223741,54.53736083327385 123.7853051625134,56.33005920091455 123.89327910184511,58.7300077472064 123.73131819284754,61.45795668508799 123.83098644453275,61.49223865104432 123.81852791308484,61.70772469471922 123.90989047715266,61.67834029513688 123.82268075690081,61.727314283765736 123.73131819284754,61.46285411039935 123.72716534901701,61.84974902159229 123.93896038387902,63.56380029097636 123.67733122316713,63.40708975017333 123.63995562879427,63.681332837586524 123.75208241194196,63.97026570676826 123.66902553553518,64.05351720536055 123.3990906871768,64.03882577564218 122.93812502309447,63.76458487195123" stroke="#ff8000" stroke-linecap="round" stroke-linejoin="round" stroke-width="0.5"><title>2023-07-30 23.0km</title></polyline><polyline fill="none" points="164.30554559671145,68.37907244973394 163.57906148940674,68.64339594688136 160.57764429175586,70.03351613136692 156.56330068163516,72.75 156.33497710505617,72.6961613755484 156.15646958154684,72.31439473218052 156.04853479989106,70.83624198574762 156.2062856346456,69.46083098744566 156.45121456224297,68.35949286952018 157.4392329481634,66.06372788328372 158.273651837153,63.68462364505103 159.2077028322674,61.677462317333266 159.17864346796705,61.183001476663776 159.28657824962283,60.84519836377149 160.44895282133075,58.54904894344145 161.72756485019636,56.850116485205945 162.28799544725916,55.988385516120616 164.53802051105595,50.90579451971644 165.90796197055897,48.0998400095923 166.79219691260369,45.91567709697847 166.85446697895532,45.83731949975845 166.98730978713138,45.90098505793139 166.98730978713138,46.05280256259721 166.82540761464043,45.79814064978564 166.85861831669172,45.85690891190825 166.82955895240593,45.79814064978564 166.86276965445722,45.84221685360535 167.08694189328526,45.26922282419764 167.6847345301503,44.28483136813156 171.33791175548686,40.30296775338138 172.01457980973646,39.9013333342009 172.25950873734837,39.671126617588016 172.77427461907791,38.813963551110646 175.09487242472824,36.296258373848104 175.57227626668464,35.69864999077981 177.98835484072333,32.259797677117604 178.1336516621668,32.25 178.85598443172057,32.63700661707844 178.95146520010894,32.87704701615439 177.9219334366062,36.65383990655755 177.34074615075951,38.436806608100596 176.40254381789418,40.62623186681594 176.2157336188684,41.21397882713427 174.0404326347052,46.07728920874797 173.1229869906092,47.8696753905715 171.59529469636618,49.99008346433038 170.88126460231433,51.98797438884867 169.45320441423974,54.03474093445402 169.183367460093,54.568451786188234 168.77653635999013,56.35560244168664 168.88031980390952,58.77915876742918 168.75993100897176,59.993335743169155 168.718417631404,61.883078092723736 168.9176818436972,63.57202916674942 168.66860157833435,63.41048007406425 168.6312395385321,63.68462364505103 168.73917432018789,63.96855629250058 168.66445024059794,64.04198685724987 168.57727214771148,63.99303316076475 168.39461328643665,64.04688222395635 167.38998954945419,63.415375509666774" stroke="#ff9300" stroke-linecap="round" stroke-linejoin="round" stroke-width="0.5"><title>2023-07-29 21.0km</title></polyline><polyline fill="none" points="32.77699836884858,134.48067433680262 32.84624796098797,134.35223449803743 32.11418084357865,134.02529602904542 31.847075273748487,133.51153355386487 31.90643206704408,131.43310556736105 31.579969703860115,130.3938763915503 31.312864133971743,129.97351115304627 30.808331390901003,130.00854165283818 30.501654625462834,129.66991300634982 30.264227452338673,129.7166204697496 30.284013050084468,130.05524896801944 29.927872290252708,130.4405835380603 29.354089954984374,130.52232099520188 28.760522021970246,130.96603752717783 25.891610345628578,132.0286143533158 24.912223256076686,132.64747290337982 24.28897692641476,133.6166215341218 23.151305054780096,133.1729160245668 23.62615940120304,132.76423826505197 24.823188066191506,132.25046971796837 25.575040781346615,131.14118828183564 26.821533440728672,130.07860261793394 26.30710789875593,130.09027944097033 26.574213468586095,129.79835848152288 25.980645535571966,129.5648211388907 24.803402468387503,129.4947598364015 24.457154507515952,129.8567427372982 24.14058494317578,130.73250274037127 22.65666511055315,131.6899921179429 22.577522719511762,132.07532078422082 22.755593099456746,132.2738228873859 23.67562339559663,132.77591479416878 23.190876250329893,133.05615111012594 24.823188066191506,132.26214630332106 25.456327194697224,131.24627859664906 26.791855044080876,130.12530990242522 26.277429502108134,130.13698672039754 26.5445350719383,129.73997419379157 25.921288742334582,129.5881748961474 24.912223256076686,129.50643672336446 24.53629689855734,129.69326674059266 23.764658585598227,128.29203363676788 23.596481004555244,126.94916797634505 23.101841060386505,126.33027637325722 23.08205546264071,125.99163605189824 22.65666511055315,125.25596544280415 22.072989976441022,124.9640312554111 21.697063618863467,125.13919186369458 21.10349568584934,124.9640312554111 21.034246093651745,124.46190258434945 20.45057095948141,124.48525745866209 20.05485900415806,123.84299655194627 19.382148680102546,123.58609110653924 18.38297599274665,123.84299655194627 18.758902350324206,122.54678549073287 18.650081562635023,121.64760279930488 19.303006288944744,121.0170026239939 20.608855741622392,121.39069206675049 21.726742015511263,121.9395460625019 22.389559540722985,121.86947975220392 23.665730596811045,121.15713631843391 23.893264971091412,120.81847957504942 24.13069214427378,119.48719781835098 24.041656954330392,119.05511157151341 23.1315194570343,116.3340957997425 22.636879512807354,115.5983585832364 22.280738752975594,114.47722544653516 22.32030994852539,114.20861888253421 23.260125842527486,113.49622428443399 23.1315194570343,112.97068423578457 23.23044744587969,112.35171152399562 24.23951293202117,108.87138297428464 24.219727334275376,108.40421613353101 23.88337217218941,107.89033024487435 24.08122814988019,106.89758912895195 23.665730596811045,106.22018400390516 23.82401537889382,105.99827449269651 24.467047306359746,105.6011721095565 24.625332088500727,105.28582504593942 25.001258446078282,105.33254318831314 25.377184803655837,106.65232225303771 26.643463060783688,107.38812118835631 26.851211837376468,107.38812118835631 27.375530178193003,106.78079544886714 28.11749009450432,106.33697829797893 28.53298764763167,106.6640016409001 28.641808435320854,107.11949676866789 29.1364483795478,107.03774137618166 30.60058261436643,107.89033024487435 31.055651362985373,107.94872649331955 31.154579351830762,107.71514130775176 31.164472150732763,107.99544346903713 32.321929620113224,107.3530832589604 33.31120950850891,107.16621410765947 33.35078070405871,106.24354287293681 33.87509904487524,105.13399094196211 35.69537403952563,103.79083368342253 36.63518993352773,102.78637458919547 38.00039617944276,102.45933935380162 39.4645304143196,101.40814787482668 41.116627827927005,100.75406794626906 42.066336520714685,99.97150275949389 42.49172687274404,100.12334421501146 43.579934749985114,100.12334421501146 44.82642740930896,99.67949935265642 45.756350504409056,99.78462067124929 46.201526454184204,99.2590130418248 46.161955258692615,98.5231580073887 46.824772783904336,98.20779000932089 47.1314495492843,97.76393717237806 47.86351666675182,97.25 47.70523188455263,97.50696889586834 47.319412728073075,97.64713348713121 47.833838270104025,97.35512371407822 48.04158704658039,97.41352573269978 48.72419016959611,98.11434746034502 48.8231181584415,98.55819883848017 49.29797250486445,99.01372859464027 49.42657889035763,99.45757622859674 49.782719650131185,99.51597709551424 49.89154043793678,99.7495802432095 50.02014682337176,102.36590053088003 49.86186204123078,103.0666897068877 49.51561408030102,103.28860531909595 48.65494057739852,103.40540282421716 48.21965742652537,104.11786483504693 47.8931950632832,104.36313754048751 46.77530878945254,104.72520574127702 46.2806688452838,104.60840968180128 45.548601727874484,105.63621061464073 44.80664181156317,105.98659503195813 44.67803542606998,107.11949676866789 44.17350268299924,108.00712270975782 41.25512701226398,108.92977868550952 39.22710324107902,109.82906860004005 38.72257049800828,111.55755259474972 38.079538570542354,112.3400327590789 37.76296900626039,113.22761524980888 37.44639944197843,113.58965335528046 36.69454672682332,113.68308234427968 36.368084363639355,114.2903687779908 35.566767654032446,114.1385474937415 34.755558145581745,114.72247432721633 33.894884642679244,114.66408178771235 32.945175949833356,114.93268720462947 31.886646469240077,114.8159023238768 31.481041715014726,114.94436568569654 30.976508971943986,115.3647901515942 30.996294569747988,116.34577412733779 29.799265904759523,117.30339263912174 29.195805172843393,118.97336532792542 28.651701234222855,119.627333522556 27.61295735143358,120.32800928191136 24.516511300753336,120.61995615665364 22.488487529568374,121.88115747376287 21.954276389849838,121.97457920038869 21.321137261285912,121.9395460625019 20.490142155031208,121.43740315506875 19.49096946779173,121.09874730146112 18.917187132523395,121.27391425649694 18.68965275818482,121.56585854243167 18.847937540267594,122.30155459927482 18.600617568241432,123.46931569957815 17.43326729995897,125.7230584810095 17.007876947929617,126.00331332226779 16.493451405956876,126.00331332226779 16.10763224947732,126.22518121618486 15.86031227739295,126.9608451419117 15.128245159983635,127.70818107863306 14.979853176686447,128.4321577752853 14.979853176686447,129.83338903884578 15.880097875196952,130.18369397932838 16.760556975845248,131.17621839827189 19.896574221958872,133.71003298525466 22.231274758582003,137.75 24.694581680640113,137.42307194096065 30.363155441125855,136.0686450262583 30.699510603153612,135.92853091598226 30.818224189803004,135.54321616409288 32.27246562571963,135.0761661146389 32.42085760895861,134.81928771607636" stroke="#4dd2ff" stroke-linecap="round" stroke-linejoin="round" stroke-width="0.5"><title>2023-06-17 17.5km</title></polyline><polyline fill="none" points="58.230141664564144,118.00507574384392 59.17954717935936,117.528551000898 59.09075385783217,117.85542396772144 59.22394384011568,118.26105772377923 59.12490513533703,118.35951188740728 59.22735896786617,118.5524813325028 58.752656210475834,118.8950982163733 58.46578547937679,118.60367714867243 58.35991651909717,118.38707900901136 58.25404755881755,118.41858426716135 58.17208449279133,118.35951188740728 58.07987604351365,118.44615134732521 58.07987604351365,118.60367714867243 57.95351631671656,118.76514043966745 57.25,119.4267391909707 57.3114722995233,119.53700456658407 57.46856817607477,119.6354555333528 58.325765241563204,119.8362947407586 60.238236782184686,120.87985449208645 60.87345054389152,121.47053640958256 60.9041866936459,121.6122987488161 60.82905388312065,121.79343877151041 61.35498355678283,122.12421405016721 62.03459397924598,122.15965409348064 62.38976726535475,122.1163384806423 62.70395901845768,122.20296965859961 63.134265115106246,121.73043364092882 63.7148368327762,121.43903359808974 64.16563369592768,121.6595527482641 64.60277004804811,122.09271176260518 65.03649127244717,121.81312785412229 65.47362762458215,122.26991180168261 66.24544649632298,122.722752716596 66.40937262837542,122.77000538102584 66.6245256766997,122.63218495097681 66.96945357955701,122.73456588802583 67.42366557044443,122.71881499198571 68.49260055653576,122.58886985888239 68.49943081203674,122.4904262902055 68.88875537565036,122.42742227686904 69.08341765748628,122.54161697668678 69.5615355426271,122.58886985888239 69.82450037944363,122.67156226601946 70.06014419427083,122.82513341774393 70.32310903110192,123.09683475480415 70.50069567417086,123.77411107172156 70.66803693395923,124.04580584954601 70.70218821147864,125.03806647744568 70.66803693395923,124.48681366507662 70.68169744496117,124.2781230833134 70.73975461674854,124.23480980487147 70.96173792055924,124.3332490050343 71.1461548191146,124.59706484594426 71.52864912722725,124.64037772524898 71.91114343535446,124.41987529727703 71.95895522387582,124.27418551451046 72.1877687831875,124.30174848779643 72.34827978748945,124.25449766462043 72.50196053629043,124.07336898297217 73.12351378698077,124.15212068622714 73.24304325827688,124.21512193525996 73.37964836831088,124.43562551171271 73.59480141663516,124.52618912231628 73.72116114343225,124.70337819179986 74.15488236781675,125.01050402039982 74.4656589931692,125.32943984136364 74.9232861118071,124.88844147839336 74.91645585629158,124.76244103749195 75.09062737159547,124.73881590985911 75.59606627876929,124.39231240681693 76.26884644571692,124.11274485432295 77.06798633949074,123.85286337450816 77.91152289400634,123.71898436590345 78.20863900834229,123.60873072232425 78.27694156335201,123.65598232171396 78.58430306096852,123.62841889564152 78.75505944850738,123.671732842231 79.00094864660059,123.62448126175877 79.2468378446647,123.37247187335015 79.43466987097054,123.32915759701427 79.6805590690492,123.14802465154207 79.92303313937737,122.83300884523851 80.32943334174342,122.73456588802583 80.54117126231722,122.45892429616651 80.6846066278813,122.89994991532149 80.23380976472981,123.35278357183779 79.90254237287445,123.57722962450862 79.85814571211813,123.63235652912772 79.86839109535504,123.78986154490121 80.2235643814638,123.93555312262833 80.7187579053716,124.41200018768723 81.22078168479493,124.5891897718393 81.34031115606194,124.79787870230211 81.75012648619304,125.04200396972738 82.69953200100281,126.1405489140634 83.1093473311339,126.29016914793829 83.2971793574252,126.20354697667426 84.0280166961602,126.07361336192844 84.42417151528934,126.20354697667426 85.57165443965641,125.8255570868314 86.25126486211957,125.96336632177554 86.51422969895066,126.0814881386832 87.37142676448275,126.01061509112333 87.76416645584686,126.1681105788739 88.29009612950904,126.22323385053824 88.76821401464986,126.11692461455459 89.68688337970525,125.69168479606378 90.29819124714413,125.6286859132706 90.5918922337296,125.64049821147637 90.99487730835972,125.81768225881751 91.45250442699762,126.22717122413451 91.67107260307239,125.93580451342132 92.15943587147922,125.80587001384265 92.7468378446647,125.86099379337975 93.02687832024822,125.93974191581219 93.53573235517251,125.5893115602521 93.53231722740748,125.32550237785836 93.67916772070748,124.98687904185135 93.80894257524051,124.84119136038134 93.96945357954246,124.7703160768724 93.89432076903176,124.75456599652898 93.90115102451819,124.70337819179986 94.06507715657062,124.59706484594426 94.09922843409004,124.47500102022241 94.23241841637355,124.4238128514844 94.25290918289102,124.25843523538424 94.37585378192307,124.1954340557786 94.31438148241432,124.13637035820284 94.32462686565123,123.98674192715771 94.21192764987063,123.92767791602091 94.26998482164345,123.65598232171396 94.53294965847454,123.38034719119605 94.78566911205417,122.83300884523851 95.08620035415515,122.67156226601946 95.08278522639011,122.47861304540493 95.20914495320176,122.30928947965731 95.16133316466585,122.06120944980648 95.34916519097169,121.96670235990314 95.57114849479694,121.99820474845183 95.81020743737463,121.94307555191699 96.07317227420572,122.1202762656103 96.32589172778535,122.20690743487285 96.60251707563293,122.45892429616651 96.69472552489606,122.36441816254228 96.82450037945819,122.39592023232399 96.82108525169315,122.25022294790324 96.93036933973781,122.33291606750936 97.04648368326889,122.15177853106434 97.03623830001743,122.02970711173839 97.30261826458445,122.02183152329599 97.41190235262911,122.14784074927229 97.48362003540387,122.15177853106434 97.75,121.87613285216139 97.71243359471555,121.65167708564695 97.28895775358251,121.40753076134206 97.20016443205532,121.20669958351209 97.19674930430483,120.86410285276725 97.42214773586602,120.73415158743956 97.07721983302326,120.23009412881584 96.92695421197277,119.82054268316278 96.95427523399121,119.61970339524123 97.12844674930966,119.52912847858897 97.12161649377958,119.46218166687322 96.93378446747374,119.39917279872316 96.6605742473912,119.17864096458288 96.73912218565238,118.98567459445258 97.00891727799899,118.63518223315259 96.93378446747374,118.47765655810872 97.01574753349996,118.33194474644915 96.93378446747374,118.25711955210863 96.70155578041158,118.27681040653624 96.57861118136498,118.13109785005872 96.58544143686595,117.79241252304564 96.34638249430282,117.37102088920437 96.40443966606108,117.15835423651151 96.39760941057466,117.07565022737617 96.31906147229893,117.01263753212697 96.40785479381157,116.83935209911579 96.39077915504458,116.73695580218191 96.2268530230067,116.57154583567535 96.18587148998631,116.44551872709417 95.95022767518822,116.35493649309137 96.07317227420572,116.27616916332772 95.35258031873673,116.13044918693777 95.13059701491147,115.97685186994931 95.02131292688136,116.02017425091617 94.97008601062407,115.81143870312371 94.79591449530562,115.78386977427363 94.77542372878816,115.69722444337822 94.60125221348426,115.63420953723835 94.91885909435223,115.39002582119792 94.90519858335028,115.11827119140435 94.59783708574832,115.00405491631318 94.76517834555125,114.9371003937813 94.50562863647065,115.0316243924317 94.36219327093568,115.0198089050391 94.46123197569977,114.7283590909974 94.17436124461528,114.53930940675127 94.12996458384441,114.44084566920355 94.19143688335316,114.21634742468814 94.17436124461528,114.04304965669871 93.8601694914978,114.18483879647465 93.66209208192595,113.99972509524014 93.46742980013369,113.99578649637988 93.3513154566026,114.1336372217047 93.19080445230065,114.14939155950196 93.13616240829288,114.10212852714176 93.13957753604336,114.17302305436533 92.97565140397637,114.05486543789812 92.94150012648606,113.9367074659931 92.7570832279307,113.87368973564298 92.30287123701419,113.57041549429414 92.05015178343456,113.34197361045153 91.9272071844025,113.1253464587935 91.72571464710927,113.0780821941953 91.71546926384326,112.96385998661935 91.32955982796557,112.97961479362493 91.20320010116848,113.14110120101031 91.04610422463156,113.19230406960196 90.61238300024706,113.03475656835508 90.4177207184257,112.83782130311374 88.96287629647122,113.61767916645113 88.12958512520709,114.37389018667818 87.9280925878993,114.23997887925725 87.62414621804783,114.19665453501148 86.91721477358078,114.21240884753934 86.65766506448563,114.08243558019967 86.21711358460016,114.03911106217492 85.64678725018166,114.37782874764162 85.37699215783505,114.45659988378611 85.14817859850882,114.90953085132787 84.9296104224486,114.86620724551176 84.56419175308838,114.88983830915458 84.37294459903205,114.64171143198473 84.08265874019708,114.49598539263752 84.05875284592912,114.35419737598568 83.8299392866029,114.0981899385406 83.71040981532133,114.0469882508296 83.2971793574252,113.43650144766434 83.08885656463099,113.2316908461762 83.01713888184167,112.80237285050316 82.86345813305525,112.5581715298249 82.35460409813095,112.13278495802297 81.72622059195419,111.82161964050101 81.1763850240095,111.31350894878778 81.05685555272794,111.3528976095622 80.68802175561723,111.32532555117359 80.1518466987036,111.46318564955072 80.05280799391039,111.427735956182 79.9879205666366,111.36077533697608 79.99133569440164,111.22291487911207 79.54736908676568,111.03384832133816 79.48931191497832,110.92749798258592 79.53712370351423,110.86841433660447 79.5439539590152,110.54148322204856 79.3697824437113,110.47058213926357 79.15121426762198,110.19091550885423 78.88141917530447,109.7930764476987 78.90874019730836,109.67096662048061 78.71066278775106,109.68278371714041 78.39988616241317,109.30463486044391 78.25986592461413,109.2888785790492 78.17107260307239,109.37947711071683 78.00373134326946,109.41098959447481 77.80565393371216,109.58430780306662 77.08506197822862,109.70247887031292 77.00992916770338,109.64733241652357 76.69915254236548,109.65521048609298 76.55913230456645,109.60400300563924 76.33714900075574,109.33220833766609 76.19712876297126,109.26524414511368 75.99563622563437,109.2770613638495 75.59948140651977,109.48583164202864 75.61997217302269,109.15101084717026 75.15209967111878,109.07222906874813 75.07355173284304,108.954056104747 75.12477864912944,108.87921304357587 75.00524917783332,108.95799520926812 74.87888945103623,108.9343605761569 74.82424740702845,109.00526443280978 74.4895648874226,108.8437610174442 74.2163546673255,108.87133481831188 74.07291930179053,108.70983085206535 72.9561725271924,109.20221891838446 72.46780925878556,109.30857392981125 72.36194029850594,109.4779535384805 72.21508980520593,109.48977069321336 72.41316721474868,109.61188108390706 72.4097520870273,109.9230639110101 72.36535542624188,109.95851496269097 71.68916013154376,109.6906617795903 71.6550088540389,109.91912490329923 71.40228940044472,110.1869765280062 71.42961042246316,110.24212222394635 71.31691120666801,110.3957419685612 71.3817986339418,110.47452109166261 71.27592967364762,110.99839824041555 71.15298507463012,111.17170944292593 71.15981533011654,111.51439070568813 71.25543890714471,111.75072086886576 71.22470275739033,111.85706897832279 71.04028585883498,112.01856000127009 71.09492790285731,112.38092768482238 71.01637996458157,112.41637651780911 70.97539843156119,112.66451745288578 70.60314950668544,112.73147584929757 70.45971414115047,113.19230406960196 70.49728054640582,113.41680816700682 70.8490387047641,113.62161780323731 71.08468251960585,113.6413109812056 71.14956994687964,113.71614496744951 71.14273969136411,113.838242217902 71.31349607890297,113.8579352872548 71.4193650392117,113.810671904208 71.44668606120104,113.94458467518052 71.29983556791558,114.03911106217492 71.34081710092141,114.23604030450224 71.21104224638839,114.27542603448092 71.22811788514082,114.36995162532185 71.1222489248612,114.67321969374461 70.9241715153039,114.76774432735692 70.69194282821263,115.15371755406522 70.71926385023107,115.35851813438421 70.85928408803011,115.67753229606024 70.71584872249514,115.89020696465741 70.38799645837571,115.86263809109005 70.33335441435338,116.13832595623535 70.09771059952618,116.1501411072204 70.02257778901549,116.31949121424987 70.03282317226694,116.56760749464956 69.88255755121645,116.53610075224788 69.76985833543586,116.44158037343732 69.67423475840769,116.0595581921807 69.47615734883584,115.89808378214002 69.37028838855622,115.91777581889255 69.15513534023194,115.78780819387248 69.17221097898437,115.64996327324116 69.11756893497659,115.59876360810449 68.8067923096387,115.4648564761228 68.68384771057754,115.32307195649264 68.47552491778333,115.4806102800394 68.30135340246488,115.4963640776441 68.08961548190564,115.14190210340166 67.9871616493765,115.10645573006695 67.69687579054153,115.16159451920612 67.4680622312153,115.30337962164413 67.21534277763567,115.27581033623937 66.97969896282302,115.40184119723563 66.76454591449874,115.38608736172682 66.3649759676191,115.70510129953254 66.29325828484434,116.15407949009023 66.2044649633026,116.29192264192534 65.95174550973752,116.44551872709417 65.8936883379647,116.53610075224788 65.68195041740546,116.44945708035812 65.36434353655204,116.47702554214993 64.95794333415688,116.77633902488378 64.55495825954131,116.981131146611 64.33980521123158,116.96143964283328 64.19978497343254,116.88661183846125 64.08367062988691,116.90630337974653 63.97097141412087,116.77240070439802 63.837781431822805,116.76452406222597 63.56115608398977,116.61092922420721 63.414305590689764,116.6266825685525 63.28453073614219,116.5164090254184 63.007905388309155,116.66606590181254 62.7859220844839,116.61880589716384 62.65273210220039,116.88661183846125 62.475145459146006,116.91417999350233 62.39318239311979,117.0402055987397 62.28048317732464,116.981131146611 62.02093346824404,117.07171193688919 61.99019731848966,117.61913052913224 61.88774348596053,117.57580991125724 61.83993169745372,117.37889740978062 61.76821401466441,117.63094523481777 61.583797116109054,117.5836863907789 61.49500379458186,117.61913052913224 61.48134328357992,117.48523028313866 61.07494308119931,117.55611870551002 60.99981027067406,117.51673626443153 60.91443207691191,117.18986047992075 60.62073109031189,117.1189713967251 60.54559827977209,117.45372427659822 60.4568049582449,117.50885977147846 60.33386035921285,117.53642748990023 59.43226663293899,117.42615650013977 58.264292942069005,117.96963195365242" stroke="#ff0000" stroke-linecap="round" stroke-linejoin="round" stroke-width="0.5"><title>2023-04-15 36.1km</title></polyline><polyline fill="none" points="105.01132114023494,127.20106315596786 104.87884683000448,126.48794334393097 104.89540611878328,125.65758401947824 104.7215335866349,125.20332209582193 104.74637251980312,125.08609246274864 106.44783944165101,123.99681908525599 107.56559143410414,123.36668917965653 107.85951880989887,123.4399605554463 110.19851834965812,126.46352123106044 111.41148625260394,127.15221969619961 114.59086969781492,129.442920512829 117.81165136498748,131.6455945982816 119.5503766865586,133.22305280618457 119.84844388456258,133.36956312779148 121.02001356553228,134.21931352608226 126.1823718418309,137.68163527357683 126.37694348493824,137.75 126.76608677122567,137.21772901223449 127.06001414702041,136.62685196394887 128.38475724917953,132.48072646488436 128.9933111117425,131.32325882808436 129.4942295972287,130.7713755226032 132.54941837662773,128.11931026580714 136.50708839436993,123.44973006314103 140.2784664133651,117.54367298897341 140.17497085852665,117.3824545288735 135.6874035999208,113.19057031127522 134.060453477563,111.3729877436781 133.5471155254636,110.89903604307256 127.73066534248937,106.88245987385017 127.61475032105227,106.96064485343595 127.31254330083902,107.87930810744729 126.43076117346936,109.09113284810883 125.92570286577393,109.98043491856879 125.8636055328534,110.04395581727294 125.7725294445845,110.01463849064021 125.47860206878977,109.53578609734541 124.75413318477513,106.04196269540626 124.59681994142011,105.61682146821477 124.2739138102479,105.13792190337335 124.2739138102479,104.99131896865583 128.63314658083254,101.48247839287797 129.22100133243657,100.94488791939511 129.7012207069638,100.25578520567797 131.24951420763682,97.25488761997258 131.41924691760505,97.25 131.61381856072694,97.38685315668044 133.4684589037788,99.02417087325375" stroke="#ff9100" stroke-linecap="round" stroke-linejoin="round" stroke-width="0.5"><title>2023-03-19 21.3km</title></polyline><polyline fill="none" points="170.96347288090328,116.43670524326444 170.9925427971466,116.4269082035753 171.07975254596386,116.4807918954466 171.5947053483833,114.97202405886128 172.99006132916838,113.05659958105025 173.58391819005192,112.00332620403424 176.25835048656154,106.13883564914795 176.37878299680597,105.69786550742356 176.93111140589463,104.51702410486905 177.6910820739722,102.47375202749754 178.8248088083783,98.56334579309987 178.96185269934358,97.90667770742948 178.9037128668133,97.65674926639258 178.17696496014833,97.26470184502614 177.9900869270059,97.25 175.3198074756947,101.02331532995231 172.80733614122437,103.7575453579957 172.13872806710424,104.78161367871508 171.3829102441523,105.23239231940534 169.97924857301405,106.80518230195594 168.70017225728952,108.10354990851192 167.70764225906169,109.23040452898931 167.1096325529943,110.20535589715291 166.40780171740334,111.74857730069198 165.81394485656347,113.26725128858016 164.65945389623812,115.59905062037069 162.32555490457162,120.8990344337144 161.45345741657366,122.21658574935282 160.40278758580098,123.61735996683274 159.281519386961,125.81149184944297 159.22753239960002,125.99269883972374 159.281519386961,126.48244380203687 158.28898938871862,128.6176694093083 157.4957959591411,130.88011417443704 156.30808223743225,133.70066487959411 156.03814730065642,135.92857883309262 156.19595541752642,137.5345669391536 156.3869862958527,137.75 156.6278513163561,137.74510380554784 160.49415017978754,135.07170193014827 161.23335662200407,134.7974978684215 163.75828649199684,133.5831454705185 165.47341155172035,133.02492407751197 166.53653991803003,132.52545694920627 168.70432510247338,131.00743451748713 169.1362210012885,130.59119359530814 169.18190229826723,130.42959313861866 168.72924217356194,126.85954378202223 168.79984054161469,124.53322716438925 168.90366167116736,123.64674637032658 168.8122990771808,122.74065674652229 168.79153485126153,121.28597730789625 169.08223401394207,119.96350053519927 169.32725187961478,119.25326544158816 170.55649405316217,117.48007772522396" stroke="#ff8900" stroke-linecap="round" stroke-linejoin="round" stroke-width="0.5"><title>2022-06-18 22.1km</title></polyline><polyline fill="none" points="23.84864926393493,165.3421705593355 23.719570496265078,165.18980930439284 23.768743360124063,164.9213624316908 24.684587949624984,165.2043199151958 25.176316588243935,165.77023125868436 27.954583396582166,167.6493124756671 28.255767187743913,168.1063782315323 28.63071027470869,169.1510881261056 28.550804370897822,170.1449982303675 28.753642434370704,170.4642070734917 29.28839732889901,170.73988620119053 30.02599028684199,170.9212534232356 31.12008650781354,171.44358825074596 32.45390044010128,171.8135729305577 33.82459402034874,172.62608106038533 34.11963120353175,172.9960591417912 34.58062680225703,173.35152633429243 35.44115191986202,174.40340788385947 35.723895887087565,175.36822249554098 35.90829412659514,175.6438812348133 36.62744726057281,176.03560484050104 37.13761572315707,176.07912954274798 37.14990893914364,176.6739642769826 37.53099863411626,176.4418342837962 37.92438154498814,176.37654757681594 38.28703141602455,176.48535871943022 38.96315829412197,176.9713796432843 39.02462437396753,176.9278555266501 39.135263317642966,176.64494807226583 39.03077098194626,175.86150574586645 39.141409925650805,175.1288337133592 39.52249962059432,174.51222226419486 39.80524358781986,174.62103646597825 40.68420852939016,174.44693365741114 41.348042191559216,174.5339851188328 42.29461982092471,175.17235901075037 42.48516466838191,175.1868674368743 42.2761799969885,174.4614422422601 42.38067233268521,172.8364610069184 42.952306875085924,171.32025956535654 43.179731370473746,171.0228188508845 43.66531340114307,170.77615968530154 44.72867658219184,170.78341437972995 45.017567157396115,170.87772533519455 45.47856275612139,171.34202346767415 46.296061617846135,172.44471850171976 46.6341250569094,172.67686248790415 47.19961299136048,173.64895660244656 47.45777052664198,175.09256261034898 47.67904841402196,175.61486457938008 47.57455607832526,176.33302306977566 47.66060859011486,176.8262991434167 47.820420397649286,177.02941175436717 48.33058886020444,177.2107617741567 48.68094551528338,178.29885147885216 49.09276825012057,178.77035147351853 49.0804750341631,179.04599607160344 49.46156472910661,179.2128330349442 49.80577477614861,179.19832548956037 50.524927910155384,178.90817391576275 50.365116102591855,179.23459434702818 49.645962968614185,179.85116188949905 49.639816360606346,179.96722102117928 50.31594323873287,180.18483134572307 50.68473971771891,180.17757767972216 51.20105478828191,180.0179968274315 51.31169373198645,180.07602627268352 51.38545302778948,180.38068002731598 51.31169373198645,181.31639352412458 51.07197602067026,182.18681283284968 50.807671877380926,182.66553858396946 51.02894976476091,182.51321712884237 51.6128775231482,181.6573091141472 52.565601760550635,181.31639352412458 52.75,181.41794303205825 52.080019729881315,182.20857316923502 51.93864774625399,182.67279197785683 51.6128775231482,183.07172742088005 52.07387312190258,183.1732742414606 52.37505691306433,183.03546066155104 52.50413568067597,183.1732742414606 52.37505691306433,183.66649944443634 51.932501138275256,184.43534318206366 51.82800880257855,185.03010297925357 51.336280163930496,186.4517023526205 51.58214448322542,187.98206354772265 51.41618606768316,188.34470320695982 51.42233267566189,189.3600837079648 51.07197602067026,189.8750207377161 50.93060403704294,190.46973177084874 49.842654424050124,191.02817508325825 48.533426923677325,192.0000002905581 47.72822127791005,192.41338431005715 46.10551677038893,192.42063663828594 45.90267870694515,192.59469227807858 45.632227955706185,193.13861320983415 44.13860221582581,194.20468530327344 43.65302018515649,194.828365798312 43.17358476249501,193.7477993603752 42.26388678100193,193.84932984176703 41.673812414635904,194.40049260156957 41.065298224333674,194.7630971839244 40.55512976172031,195.2852443017764 39.977348611311754,195.06768350193306 40.13101381089655,195.7203637617422 40.06340112307225,195.90891464172455 39.885149491601624,196.003189880852 39.288928517198656,196.03219761976652 38.48986947943922,195.7131117941026 37.23596145090414,195.64059207432 36.00049324633437,195.4157804393035 34.513014114432735,195.43753643726814 33.449650933383964,195.60433218468097 33.1115874943207,195.81463926869037 32.61371224769391,195.901662694705 31.84538624979905,195.7131117941026 31.574935498589184,195.73486769460578 31.08320685994113,195.2924963161422 30.30873425406753,194.99516307682643 29.47894217632711,195.19822006741015 29.595727728039492,195.29974832973676 27.9607300045609,195.82189122522686 27.788624981039902,196.52532724185585 27.27845651845564,197.12723049134365 26.645355896180263,197.33753274947958 26.042988313856767,197.30852558108745 24.56165578996297,198.28025882113434 23.04959022611729,198.50506075323938 22.36731674001203,198.46880242861516 21.476058582484256,199.31724203422345 19.92096676278743,199.98438350891956 19.3985050842457,200.10765891698975 18.544126574590337,199.97713200720318 18.27367582335137,200.06414997558022 17.855706480506342,199.75958658717718 17.45617696159752,199.2519778342321 17.62828198511852,198.4833057608339 17.45617696159752,197.8959182702456 17.1426999544492,198.16423171953647 16.577212020056322,199.01992682560376 16.27602822886547,199.14320402494923 16.097776597365737,198.24400037367013 16.245295188971795,197.8669113458891 15.612194566696417,197.14173411672527 15.464675975090358,196.66311280483205 15.796592806174885,195.88715879830852 16.36208074062597,195.2779922865957 17.21645925025223,195.14745587801735 18.15689027166809,195.219976136701 18.494953710702248,195.1184477523566 18.445780846872367,194.9226425724628 18.18147670358303,194.7630971839244 16.767756867513526,194.2481980861703 16.60179845194216,194.05239033849648 16.571065412048483,193.76955590516445 17.689748064934975,192.35536565565417 18.08313097586506,192.2103187977409 18.421194414928323,191.02817508325825 19.01126878132345,190.65829757073516 19.128054332977626,190.433469055577 18.986682349350303,190.25940774640185 19.01126878132345,190.12886146489473 19.502997419942403,189.729968457621 17.837266656541033,189.74447369989502 16.798489907407202,190.06358822778566 14.997533768386347,190.8396103345076 14.302967066323617,190.63654000579845 13.663719836098608,190.80334782139107 13.3871224768518,190.5712672681475 13.294923357112566,189.6284316728561 13.042912429809803,188.88865897933283 12.747875246597687,188.37371429408813 12.25,187.95305228932557 14.813135528907878,187.37282445778692 15.581461526773637,186.4154374411446 15.956404613738414,186.0963053652813 16.552625588083174,185.9584978579005 17.185726210358553,185.59584515481401 17.554522689344594,185.26945602697378 18.34128851114656,184.9430652932424 19.490704203984933,184.079935392052 20.271323417808162,183.33284750255552 20.129951434209943,182.40441587532405 19.091174685076112,182.23758693994023 17.904879344365327,181.38892890280113 17.6590150250413,181.35991476084746 17.47461678556283,181.2075903074001 16.466573076322675,180.81589724930382 15.913378357858164,180.3153971977008 15.495409015013138,180.1920850108727 15.083586280146847,179.91644517604436 15.661367430555401,179.1910717156934 16.54647898010444,178.59625955815864 16.552625588083174,178.33512082821835 18.224502959492384,176.34753124196868 18.5379799666116,175.63662707214098 18.888336621661438,175.27391792692652 19.109614509012317,174.8314100831194 19.287866140541155,173.85207894571067 19.054295037174597,173.17016575988237 19.39235847623786,172.72764387654024 19.300159356498625,171.97317352756363 18.046251327963546,169.18736247947527 18.21220974350581,169.00599051410245 21.807975413568784,167.33734515027754 21.95549400517484,167.17773339284759 22.103012596722692,166.6190892153536 22.004666869033827,166.27084111221484 22.416489603900118,165.741210281667 23.22169524966739,164.89234108301025 23.719570496265078,164.98666041970864 23.688837456371402,165.1535327635138" stroke="#ff6600" stroke-linecap="round" stroke-linejoin="round" stroke-width="0.5"><title>2021-12-18 25.6km</title></polyline><polyline fill="none" points="60.748838829546,185.78951694616262 61.23165350675117,185.58681925447308 61.695657222444424,185.64473293899937 62.0530654900067,185.10902957695362 62.57350209011929,184.89909068410634 62.7992336274765,183.94349901096575 63.131560613110196,183.37882523283042 63.20053413839196,182.82138651103742 62.94972131907707,182.74175205503707 62.78669298652676,182.3290993698247 63.03750580587075,182.2060270576767 62.91836971670273,181.82956926531187 63.087668369698804,181.64133962970664 63.263237343227956,181.6558188499548 63.01242452391307,181.5327453849386 62.930910357652465,181.0911270992001 62.54215048768674,180.6567458103309 62.5923130515439,180.49747201329592 62.1784718996787,179.71557734456292 62.259986065968405,179.40426506248332 61.689386901969556,178.77439655341004 61.526358569419244,178.92643428517476 60.55445889456314,179.0857115639301 59.996400371572236,179.28842759001418 59.87099396190024,179.56354128224484 59.3003947979596,179.6286996340641 58.99314909428358,179.78073555853916 58.70471435206127,180.14272456038452 58.441360891767545,180.24408115417464 57.582326985604595,179.91105180922023 58.31595448212465,178.96263369770895 59.6515327449888,178.30380153552687 59.97131908961455,177.8187234456127 60.234672549937386,176.42139064650837 59.996400371572236,174.58961271141015 60.10299581979052,174.43756580366608 62.45436600089306,173.14877433031506 63.1503715745057,173.25014078940876 63.5642127264,172.85191459167982 63.60810496981139,172.33059696041892 64.09718996752053,171.71514766576 64.59254528564634,171.49068837567756 65.31990246166242,171.38931943416537 65.52055271714926,170.80282489344972 65.6961216906493,170.71593640614446 65.75255457501044,170.4914739941887 65.6961216906493,170.25252936565084 65.43276823038468,170.14391790815716 65.66477008824586,169.8760089442294 67.15710636318545,168.92021747295075 68.52403622851125,167.4430601850254 69.33917789129191,166.7334346080388 69.74047840220737,166.79860459624615 70.75627032047487,166.35689574074786 71.26416627960862,165.91518416893086 71.99779377612867,165.66174187671277 72.80666511843447,165.90070177631424 73.8977008824877,165.93690775237337 74.59997677660431,165.63277698638558 74.5184626102855,165.86449578202883 74.24256850907113,165.91518416893086 74.1673246632563,166.05276675304776 74.50592196933576,166.40034263386042 74.73165350672207,166.42206607057597 74.87587087784777,166.7261934946 75.15803529956611,166.81308680780785 75.4276590803347,167.09548934980558 75.87912215510732,166.90722111184004 76.53750580581254,166.83481011969707 76.90745471432456,167.1316947236046 76.92626567580737,167.4937474579856 77.11437529028626,167.59512189661473 77.67870413378114,167.42133705710148 77.70378541568061,167.50822952940507 78.34335810496123,167.13893579619617 78.75719925682642,166.7334346080388 79.07071528100641,166.89998001592176 79.18358104967047,167.31272131890728 79.42185322803562,167.6168449719844 79.47828611239675,167.81235235476197 79.33406874130014,168.14543778132793 79.86704598233337,168.31922086901614 79.8795866233122,168.57265378498414 80.03634463541675,168.8840130005774 80.16175104503054,168.9129765799371 80.80759405478602,168.49300353631406 81.54749187178095,168.3988713103754 81.56003251275979,168.30473896110198 81.84219693450723,168.2106064884647 81.79830469112494,168.07302803736093 81.96133302367525,168.1164738924781 81.84219693450723,167.9788952611052 82.1180910357507,168.08026901503035 82.25603808637243,167.9788952611052 82.52566186714103,168.07302803736093 82.43787738037645,167.82683436192747 82.54447282859473,167.85579836754187 82.55701346957358,167.74718328627932 82.14317231770838,167.59512189661473 81.91744078029296,166.91446220705257 82.0741987923684,166.63205895333522 82.03657686949009,166.33517228432174 82.16825359963696,166.28448419380584 82.27484904782614,165.94414894538204 82.1996052020695,165.39381619541382 82.41279609847697,165.24899108669342 82.58209475150215,165.35760994561133 82.66987923823763,165.24899108669342 82.92069205758162,166.1831079054682 83.05863910820335,166.2193137391514 83.71702275893767,165.8717369823571 83.94275429632398,165.93690775237337 84.08697166742058,166.1179373588311 84.14340455178171,166.6755056800248 84.46946121691144,166.90722111184004 84.375406409672,167.03756071376847 84.60740826753317,167.03031963096873 84.83313980489038,167.29099815156223 84.88957268925151,167.77614732400252 85.12784486761666,168.0657870589348 85.03379006037721,168.2106064884647 85.0149790989235,168.80436309713696 84.75162563865888,169.31846546474117 84.77043660008349,169.56465402814501 85.21562935438124,169.19537086664786 85.24698095678468,169.3257063168785 85.47898281467496,169.26777947931987 85.48525313514983,169.4270781702362 85.87401300508645,169.28950204887224 86.35055736181675,169.41259648565028 86.62645146306022,169.3257063168785 86.87099396190024,169.4270781702362 87.07791453786194,169.3691514144084 87.03402229445055,169.16640740116418 86.88980492335395,169.09399868632318 87.17823966557626,168.86229030840332 87.00894101252197,168.45679884861602 87.20332094753394,167.92820833046426 87.13434742219397,167.6458090622691 87.51056665115175,167.13893579619617 87.42278216441628,166.76239905456168 87.09672549928655,166.6103355801315 86.87726428240421,166.29172535178077 86.82083139804308,165.56036470944673 87.24721319088712,164.8941683361627 87.76764979097061,163.0838208933128 88.11251741755405,162.26552887428988 88.1626799814112,162.4103599992086 88.50127728749067,162.3596691387138 88.87122619600268,162.51174161285599 89.82431490943418,162.40311844990356 89.88701811424107,162.32346135930857 90.99059451927315,162.64933071676933 91.00940548072685,162.8955421395367 91.52984208078124,162.7145044108256 91.78065490012523,162.96795710325387 92.09417092427611,162.85209312626102 92.25092893635156,162.9389911265389 92.37633534602355,162.83761011601018 92.49547143519158,163.0258890216428 92.84660938224988,162.97519859560998 93.2980724570225,163.23589183410513 93.32942405945505,163.40244535216334 93.06607059916132,163.64141276866576 92.84660938224988,164.12658659260342 91.98757547608693,164.81451400839433 91.98757547608693,165.1041656859452 91.68660009288578,165.48071112047182 91.57373432419263,165.82828976948804 91.36054342775606,166.06724911501806 91.11600092894514,166.10345500708354 90.78367394334055,166.4727540640015 90.63318625173997,166.791363489363 90.69588945654687,167.1027304260133 90.55167208545026,167.3272034268375 90.82129586624797,167.53719366348378 90.87772875057999,167.71821923689276 90.58929400832858,167.90648534925276 90.20680445889593,167.76166530659975 89.57977241059416,167.91372634373693 89.12203901531757,168.23232937772264 88.80225267066271,168.181642625932 88.12505805850378,168.5798947123185 87.73629818856716,169.20261173121253 87.56699953554198,169.25329776261788 87.97457036696142,169.93393529134482 90.53286112402566,169.57189485546405 91.04702740363427,169.91221291662805 91.86843938691891,169.88324974016723 92.11925220620469,170.0425470663031 92.05027868089383,170.25252936565084 91.76811425917549,170.54215911625215 91.61135624710005,171.02004565198877 91.78065490012523,171.353116206119 92.42022758940584,171.64998213767103 92.65222944729612,171.9830497714065 92.60833720388473,172.7215855384784 92.7400139340316,173.0836101025052 92.52055271712015,173.5397584559978 92.45157919180929,174.0538269391036 92.96574547144701,174.43756580366608 93.72445424989564,174.4665271442209 94.00661867161398,175.00230983916845 94.70262424522662,175.0240306749838 95.71214584299014,176.21866653270263 95.78111936833011,176.75443616335542 95.60555039480096,177.24676149128936 95.96295866233413,177.82596344118792 95.62436135625467,178.3255213734301 95.58673943334725,178.56443915692944 95.79993032978382,178.7454369489642 96.40815141663188,178.65131815399218 96.589990710665,178.7164773328841 96.55863910820335,179.3897853886374 97.1480492335977,179.99792917843297 96.83453320947592,180.66398551997554 97.57443102647085,181.18524269908812 97.50545750113088,182.13363148151257 97.75,182.82138651103742 97.08534602879081,182.82138651103742 97.2734556432697,183.22679691927624 97.44902461679885,183.2485152694644 97.46156525777769,183.49465611307096 97.24837436137022,183.69735970433976 97.30480724573135,183.90730210697075 96.99129122155136,184.03037150617456 96.68404551787535,184.07380771442695 96.42069205758162,183.90730210697075 96.04447282859473,184.06656834820024 95.45506270320038,183.90006272399478 95.16662796097808,184.09552580871969 94.82803065489861,184.0086533922222 94.38910822110483,184.23307358675083 93.93137482582824,184.08104707990424 93.91256386434543,184.14620133650897 93.5676962378202,184.05932898126048 93.47991175102652,184.16068005215493 93.04098931723274,184.13896197757276 92.79017649788875,184.38509977205103 92.46411983275902,184.45025375304976 91.9311425917258,184.78326206694328 91.14108221084462,185.74608177462505 90.8338365071977,186.3758891932157 90.51405016254284,186.58582377325365 90.26950766370283,186.5785846600047 89.70517882026616,186.79575774024124 89.31641895030043,186.72336678638385 88.79598235018784,186.4989543662232 88.50754760799464,186.12975821516739 88.18149094286491,186.08632324920472 87.45413376679062,186.82471410135622 87.27856479329057,187.18666763137298 86.97758941011853,187.49070718830626 86.88353460287908,187.49794620969624 86.86472364145448,187.3676437130198 86.62018114255625,187.33144853312842 86.08093358104816,187.54861933906795 85.49779377612867,187.37488274680072 85.42882025081781,187.51242425030068 85.26579191823839,187.43279499086202 85.08395262423437,187.64996549065108 84.79551788201206,187.70063851286977 84.34405480723944,187.59929243271472 84.30016256385716,187.43279499086202 83.93021365537425,187.62100946192368 83.69821179748396,188.0336317703841 83.72956339988741,188.20736677070818 84.08070134694572,188.32318987103645 83.95529493730282,188.90954145301657 84.01172782163485,189.14842405989475 83.77972596374457,189.4017835331906 83.0899907106359,189.6261868925285 83.31572224802221,189.3293952033564 83.2153971203079,189.1701406211505 83.04609846722451,189.4162611904103 82.37517417556955,189.44521649608942 82.06792847189354,189.57551522746508 82.01776590803638,189.49588825300452 82.21841616349411,189.3438728751571 81.89862981883925,189.45245532071567 81.82338597308262,189.51036589129944 81.88608917788952,189.74200770718744 82.08046911287238,190.06051398549607 81.47224802599521,189.95917123181425 81.42835578264203,190.08223027126223 80.96435206689057,190.2414828332112 80.58186251739971,190.06775274813845 80.19310264746309,190.06775274813845 79.82942405942595,189.82887319573638 79.41558290756075,189.91573857935145 79.13341848581331,190.27767654809577 79.4657454714179,190.3211089818942 79.66639572687563,190.69752230930317 79.67266604737961,191.8701819664493 79.87331630283734,192.05114625954593 80.38748258244595,192.174201718728 79.74790989316534,192.76776038760727 79.64131444497616,193.05006096210127 79.45320483043906,193.12968400068348 79.23374361355673,193.72323478273756 79.23374361355673,193.2744529358606 79.51590803530416,193.02110710802663 79.45947515094304,192.84014525595558 79.74790989316534,192.4203120053062 79.29017649788875,192.54336683270958 79.09579656290589,192.34068818122614 78.91395726890187,191.72541020405333 78.99547143519158,191.37071815429226 78.90141662795213,192.1597246168094 79.0519043195527,193.1079686352532 78.61298188572982,194.21544391052885 78.56908964237664,194.58459854547255 78.38725034834351,194.94651301465638 78.19287041338976,195.06232526011445 78.23676265674294,195.50385773497692 77.96086855549947,196.12634153726685 77.9545982349955,196.35072391233552 77.42789131446625,196.6836771142407 77.23978169992915,197.36405495103827 76.51242452391307,197.77662135561695 76.28042266605189,198.10233000332664 75.98571760332561,198.26880274256837 75.48409196466673,198.1385197620184 74.7253831862181,198.34118207421852 74.73792382719694,198.7465049855091 74.46202972592437,199.8538934373937 74.01056665118085,200.4112001307367 73.68450998605113,201.0408791213049 72.59974454250187,200.71518377991742 71.96644217369612,199.86113121434755 71.45854621459148,199.55714395584073 70.82524384578574,199.62952199105348 70.50545750115998,199.44857676645188 70.03518346493365,199.49924147523416 69.70285647932906,199.07220924118883 69.54609846728272,199.21696621474985 69.43323269856046,199.60057078571845 69.37679981419933,200.63556913880893 69.27020436598104,200.8020360151495 68.42371110076783,201.38828586007003 67.0442405945214,201.62712701971031 66.75580585229909,202.22784521868016 66.22282861126587,202.73447112570284 66.0911518810899,202.4522085605422 66.12877380399732,202.24232029410632 66.30434277752647,202.08309430418012 66.39212726426194,201.65607740939595 66.54261495586252,201.4534244367751 66.55515559684136,201.12049331379967 66.76834649324883,200.9323141713685 66.8561309800134,200.48357730659336 67.45181142591173,199.71637553719484 67.42045982350828,199.27486892259913 67.7465164886089,199.0866849516533 68.04749187178095,199.14458776437095 68.73095680444385,197.96480875420093 68.59928007426788,197.69700346183527 68.24814212726778,197.45091123288148 68.41744078032207,197.0600571385512 68.27949372967123,196.3869145524077 67.43300046445802,195.52557237692963 66.93764514630311,195.66309829029342 66.56142591734533,195.3373785956137 66.2980724570516,195.29394919151673 66.30434277752647,195.09127829234058 66.54888527636649,194.9392747431266 66.51126335345907,194.71488796420454 66.24163957269047,194.49773880185967 65.8215281003213,194.41811727802997 65.55817464002757,194.14306042656244 65.66477008824586,194.01276997179957 65.9469345099933,194.1575371291692 66.28553181607276,194.11410701255954 66.42974918716936,194.2516356251872 66.69310264746309,194.17925217763695 66.97526706921053,192.2683028101237 68.24814212726778,190.84953482522542 68.36100789596094,190.61789657745248 68.27322340919636,190.06775274813845 68.30457501159981,190.67580620936496 67.99732930792379,191.12460427521728 68.18543892243179,190.50931589191896 67.81549001391977,190.06051398549607 66.94391546677798,190.2414828332112 65.74628425453557,189.52484352666943 64.9938457965327,189.50312707251578 62.10322805386386,190.66856750792067 60.98084068740718,190.97259234083322 60.30991639572312,190.98706968176703 59.996400371572236,191.23318403160374 59.388179284724174,191.2042294459461 59.02450069668703,190.86401219094842 58.98060845330474,189.93021613307064 58.460171853221254,189.47417179013428 57.59486762658344,189.2642456441754 57.3942173710966,189.11222977652506 57.25,188.22908361625014 57.3942173710966,187.9684810369945 57.70773339524749,187.70787751314492 57.83313980491948,186.86090953637176 57.95854621459148,186.6437366529717 58.30341384114581,186.75232317667542 59.00568973523332,186.6871712821303 60.13434742222307,186.8536704508224 60.55445889456314,186.54238908285333 60.73629818856716,185.84743046736548" stroke="#ff2500" stroke-linecap="round" stroke-linejoin="round" stroke-width="0.5"><title>2021-11-13 32.3km</title></polyline><polyline fill="none" points="111.58084622383467,190.2854427209022 111.5145131938043,189.9549413429122 111.72088262057514,189.71141313297267 111.57347588718403,189.44179174509918 111.69140127388528,188.91124376469088 112.59058234759141,187.9110207335907 114.18994540494168,186.97166938950977 116.37893539582728,186.64115424090414 118.0225204731687,185.8757454651568 118.22151956325979,185.04074567167845 118.68585077344324,184.25792540271505 118.78166515013436,183.77083334617782 119.3344404003874,183.4837955585972 119.85773430392146,182.69226174615324 120.36628753415425,182.47480602248834 121.29494995455025,182.53569368504395 122.26783439493738,182.8488294989802 122.89431301187142,183.28373830607597 123.24071883532451,183.8056257348726 123.48393994543585,183.87521046659822 124.65582347591408,183.67515419876145 125.34126478616963,183.25764384472131 126.10777979984414,183.59687117435533 126.01196542312391,184.75371246779105 126.15200181986438,184.99725585889973 126.22570518654538,185.83225610900263 125.96774340313277,186.68464315471647 126.15200181986438,187.3282762988456 126.47629663330736,187.79795125175588 127.83980891719693,188.78078060440748 128.59158325751196,188.65901479508466 128.92324840763467,188.76338550022047 129.218061874446,188.60682939115213 129.7118744313193,188.58943424890458 131.10486806189874,189.05910175429744 131.95982711558463,190.18107401304587 132.12934485898586,190.68552149897005 132.7558234758908,191.0160198412632 133.44126478620456,190.95513867086993 134.31833484990057,190.52027181283484 136.1682893540128,188.8416634391615 136.84636032758863,189.21565697307233 137.65709736128338,189.24174947960273 137.99613284805673,189.10258934595913 139.0869426751742,189.9549413429122 139.30805277527543,189.5461614230153 142.02770700637484,188.75468794668268 142.6394449500076,188.38069224514038 142.75,187.89362543915922 142.70577798000886,185.8757454651568 142.58785259330762,185.30168404894357 141.46019108284963,183.33592720307206 140.723157415865,181.20485271882353 140.1040491355816,180.10884931569308 139.63971792542725,179.64782749734877 138.82161055505276,179.1607072000479 136.9348043676291,178.6039946344972 138.72579617839074,177.79501473997516 138.92479526845273,177.83850849205191 136.92743403094937,178.6126932983243 136.08721565062297,178.34303427753184 135.40914467701805,177.86460473190527 134.84162875343463,177.1947985313236 133.9940400364285,175.28103543512407 133.12434030941222,175.01136511395453 131.097497725219,174.08056052596658 130.54472247499507,174.1240563101892 128.90113739765366,173.84568287989532 128.34099181074998,173.5673084748123 127.95036396727664,173.1497450394163 127.08066424023127,172.81917243088537 125.5181528662506,172.58429105785763 124.66319381259382,172.84527031837933 123.86719745222945,172.64518629528902 122.66583257509046,172.5755917344286 121.53817106460338,172.0362318218904 120.67584167426685,171.78394931627554 119.66610555051011,171.7404522516299 118.05200181985856,171.08799342566635 116.17993630573619,171.5925620537455 115.42816196542117,172.28851352682977 114.16783439490246,172.27111481425527 113.4823930846178,171.86224397266778 113.06965423110523,171.77524990524398 112.79695177433314,171.39247487756074 112.62743403093191,170.82700839574682 112.2441765241092,170.77481128693034 111.86091901731561,170.53122432599048 111.07229299363098,170.6269192925174 111.07229299363098,171.12279136489087 111.77984531392576,171.7056545827436 111.44818016377394,171.87094337416056 111.45555050045368,172.07972872470418 111.05018198359176,172.82787172766257 111.10177434032084,173.08015092028654 110.94699727022089,173.50641394375998 110.60796178341843,173.60210532874044 109.66455868969206,172.79307453482033 109.53926296634017,173.97617054672446 109.1781164695276,174.39372964128415 108.98648771611624,174.90697635695687 108.60323020929354,175.08095754247188 107.92515923565952,174.42852613348077 107.68930846225703,174.38503051583393 107.71878980891779,175.15054991007491 107.1733848953736,175.42891877129296 107.58612374885706,176.24662166432972 107.37975432211533,177.0295208086245 106.59849863511045,177.34267830775207 106.16364877161686,177.9515921361526 106.10468607826624,178.2473485987357 105.5150591446727,178.37782904131745 105.2423566878715,178.71707718986 105.50768880799296,179.47385630517965 105.33817106459173,180.0827538124213 104.57165605097543,180.19583426466124 104.46847133754636,180.30891455607343 104.88121019108803,181.18745595739165 105.4045040946221,181.36142340033985 105.57402183802333,181.65716717983742 105.47083712465246,183.12717140952736 104.16628753411351,185.1973088007726 103.95254777069204,186.21496162696712 102.54481346678222,187.3108808769466 102.25,188.35459945617913 102.53744313010247,188.73729283676948 103.0533666969859,188.46766814662988 106.21524112825864,189.53746395507187 107.88093721563928,189.84187476673833 107.58612374885706,190.46808763008448 107.5566424021963,190.89425745387416 107.64508644223679,190.6159427255916 108.38949044587207,190.87686281187052 108.50004549589357,190.98992791678756 108.47056414923281,191.71180133635062 109.14863512283773,192.38148527726298 110.12151956325397,192.9381014050814 110.42370336668682,192.9381014050814 110.28366696994635,192.71197657289304 110.37948134666658,192.2771193196677 109.99622383984388,191.6422234607162 110.38685168334632,192.20754193854373 110.31314831663622,192.68588520473713 110.64481346678804,193.42513732190855 110.6005914467678,194.36441245493916 112.62743403093191,194.46877567400952 112.84117379435338,193.94695820948255" stroke="#4dd2ff" stroke-linecap="round" stroke-linejoin="round" stroke-width="0.5"><title>2021-10-24 17.4km</title></polyline><polyline fill="none" points="180.41562550439266,181.37854251886893 180.52197557716863,181.47620093627484 180.53379225195386,181.01581059854652 180.28564208216267,177.62561231674044 179.092157932173,176.38391217641765 178.8440077623236,175.79793711887032 177.9459404811496,174.69573863354162 176.1025392197771,173.39820160876843 175.0744885163149,172.97963845785125 174.47183810395654,173.063351198085 173.45560407522134,173.87257151662197 172.7938702891115,174.0539477790735 172.01396975544048,173.6911949958012 171.7067362118396,173.7190990927338 171.22225254704244,174.19346780520573 170.98591905197827,173.95628366986057 170.26510189205874,173.94233164816978 167.45273330097552,175.01663284780807 165.05394832621096,174.61202696638065 164.87669820495648,174.1097558078618 164.1795143945492,173.46796200015524 163.81319747725502,172.58897827572946 163.4823305841419,172.42155211651698 163.6241306811571,171.98903351962508 163.43506388511742,170.02175297675421 162.6551633515046,168.43116350780474 162.77333009894937,166.54754501822754 161.79254609451164,163.6034632679657 160.89447881333763,162.25 161.86344614304835,163.6313695756835 162.4660965554067,165.1522540970327 162.77333009894937,166.4498751514475 162.74969674949534,168.47302137997758 163.60049733170308,170.57984983593633 163.69503072969383,172.0727469111007 162.76151342428057,174.58412306512764 162.17067968659103,175.63051517859276 160.12639495445183,177.41633786047169 159.41739446931751,179.04866949934512 156.58139252872206,180.96000559606182 155.60060852422612,181.741273406049 154.89160803915001,182.6480961045163 153.53269044257468,183.16428460305906 151.60657245793846,184.32221335469512 150.50762170593953,184.1687535228557 149.0187206871924,185.34062391746556 149.5977377500385,186.13581554491248 149.32595423073508,187.40532171353698 149.7277211723267,187.94939191259618 149.77498787129298,188.53531106657465 148.42788694956107,193.1528177074215 148.5815037213033,194.12930824543582 147.45891961985035,194.88259583196486 147.39983624609886,195.18948949767218 147.47073629463557,195.83117386430968 148.1915534544387,196.96108847967116 149.36140425497433,199.93229760882969 149.60955442476552,201.2853604943375 149.4086709539988,202.45707344576658 149.99950469157193,202.3036354581127 150.1767548128846,202.75 153.2963569475105,202.48497124182177 154.9506914129015,201.56434074584104 155.67150857276283,200.74134724697797 156.42777575697983,198.71871351861046 157.822143377678,197.560915623224 157.7512433291995,196.44495588634163 157.92849345051218,196.16596442472655 158.6493106104317,195.76142572016397 159.99641153222183,195.94277081551263 161.0599122598651,195.5661307133414 162.13522966235178,195.63587896445824 163.175097040541,194.93839473530534 164.14406437030993,194.98024389670172 164.3094978168374,194.53385213266301 165.49116529204184,194.25485648581525 165.845665534609,193.92006090309587 166.2356158014736,192.76221939637617 166.94461628666613,191.85546870008693 167.67725012131268,189.7210915841133 170.2414685426047,188.57716233158135 173.42015405092388,187.67038184437843 174.09370451187715,186.52643417520449 174.2473212836776,185.13136213773396 175.1453885648516,184.75469006788626 175.94892244797666,183.666520053157 176.84698972915066,183.69442196453747 178.11137392767705,183.1363825754961 178.8440077623236,182.10400326021772 180.51015890244162,181.86683385708602 183.1216440226999,183.23403964508907 184.81142851233017,183.03872543109173 186.44212962815072,183.40145159013628 186.92661329300608,184.19665532422368 186.5602963757119,185.25691924680723 186.8675299192546,186.80544674916018 187.60016375390114,187.43322280593566 187.5647137296619,189.95824636303587" stroke="#4dd2ff" stroke-linecap="round" stroke-linejoin="round" stroke-width="0.5"><title>2021-09-19 11.2km</title></polyline><polyline fill="none" points="38.59001248815912,242.10571627132958 41.25517132753157,236.17969379946226 42.346973157385946,233.49068636570883 42.79531763502746,232.16816450458646 43.941086855717,227.9064396296999 43.84145474957768,227.63700661707844 43.06515458918875,227.25 40.57850327329652,230.72314229425683 37.834469016539515,233.75028792629018 37.33630848581379,234.59765613996933 37.078925544934464,234.8768433141595 36.39395481518295,235.25888610271795 35.73804344973178,236.03275766954175 33.98617891666072,237.8253455473823 32.703415550029604,239.28972889156285 32.09732023766264,240.2790176554554 30.84776757308282,243.30551803124035 29.76841975649586,245.47977084665763 27.348189844706212,250.9492155332955 26.501316942463745,252.22222246840465 25.39290976160555,253.6812398376387 24.267897229714436,255.93821686596493 24.34262130931893,256.31028894650444 24.301107931751176,256.574654076343 23.425175665222923,258.3957937640771 22.586605438496917,260.7798084899332 21.337052773917094,263.70702914894355 21.058913144268445,265.93413440076256 21.224966654510354,267.53953955555335 21.391020164752263,267.73042232584703 21.60273839031288,267.75 22.6115134650463,267.03051486755066 23.74067733468837,266.34528021317965 25.484239192228415,265.0775685321787 26.239782663833466,264.79856926375214 28.747190668495023,263.5748677822521 30.503206539317034,263.011953899535 31.184025931317592,262.70357199715 32.09732023766264,262.16512232683453 33.61255851860915,261.0735181751661 34.15223242690263,260.59868655934406 33.703887949246564,256.809643995377 33.80352005540044,254.45479355864882 33.89900082378881,253.68613578921577 33.79521737989853,252.59432536526583 33.78276336660201,251.2576782221222 34.094113698316505,249.8230639001158 34.31413459939358,249.264873915341 35.72558943644981,247.19853123828943" stroke="#ff9400" stroke-linecap="round" stroke-linejoin="round" stroke-width="0.5"><title>2021-09-11 21.0km</title></polyline><polyline fill="none" points="97.75,250.79990994616674 97.17524075013353,249.61986493612494 96.8849286800396,249.30148748325155 96.69431974513282,248.65780154279855 96.40107522987819,248.10062195625505 96.22512852073123,247.87913169318927 96.18114184346632,247.64033576623842 95.82924842517241,247.42922482249924 95.8351133154647,247.21811247000733 96.22219607559964,246.78550078897024 96.10196582433127,246.564001318362 95.7852617478784,246.18675646240445 95.69728839330492,245.94102574211502 95.13132647887687,245.53608503833675 94.964177105212,245.34226543119803 94.58882412569073,245.24189409645987 94.1958764752635,245.04807268665536 93.93195641155762,244.6915766352795 93.2545615813433,244.23124083850053 93.11087176887668,244.20009005383326 92.76484324087505,244.21047365213235 92.55370718993072,244.2762363621914 91.83232568242238,244.6777320473775 91.22237709071487,244.7261880785154 91.07868727824825,244.86463347272365 91.00830859459529,245.78874095741776 91.06402505248843,246.3286564314767 91.04056549127563,246.8547190554891 91.09041705886193,247.21465160003936 91.17252552312857,247.40499888638078 91.21651220042259,248.04524953585496 91.30448555498151,248.40862927595663 91.2839584389294,248.55398000341665 91.40125624502252,249.37416087965175 91.36020201290376,249.48144035024234 57.65760987618705,245.78527993106036 57.25,246.41518049046863" stroke="#4dd2ff" stroke-linecap="round" stroke-linejoin="round" stroke-width="0.5"><title>2021-09-07 16.2km</title></polyline><polyline fill="none" points="107.36575241241371,263.257192964822 107.29885681995074,263.02702809158654 107.35166912978457,262.8329662356591 107.29181517864345,262.2282078448043 107.53475180386158,261.4203412532843 108.06991654350713,258.91537481004343 108.38679040251009,257.9945814676357 109.59795270797622,256.57271655651493 109.61907763191266,255.2275294785577 109.70357732764387,254.49622972700672 110.3901373554545,254.1034878272294 111.05909328001144,253.58885326638483 112.27377640614577,252.4015509583478 112.46037990089098,251.8598015330681 113.16454403199896,251.1058517604033 113.31946014083223,250.72661287196752 113.7278753368737,250.3202805389992 114.06587411978398,250.135171888669 114.6714552725316,249.57983955774762 114.97776666955906,248.99289254501127 115.13972441971418,248.36078380547406 115.27703642526467,248.12599740113728 115.91078414325602,247.71963227382003 116.4001782143605,247.76478420771673 116.57621924715932,247.72414747006042 117.4564244110079,247.98602776920598 117.88948535163945,247.8325119899091 119.62172911413654,248.06730053274077 120.10760236460192,248.02666417659202 120.79416239241255,247.84154235011738 121.47368077893043,247.79639052379207 121.93842910544481,248.02666417659202 122.76934278014232,248.22533031943385 123.52631922105502,248.53687248605274 124.08260888463701,248.6678095991083 124.3290663305088,248.6226589305661 124.71283578196017,248.6768397252199 125.12477179865527,248.92968222904528 125.96976875598193,249.1012527981802 126.1387681474298,249.28185241040774 127.06122315916582,249.42181641369825 127.67032513255253,249.61595902472254 128.36392680169956,249.5978992962955 128.65263409544423,249.67916799451632 129.84971311831032,249.74237684031687 130.39191949924862,249.95457705873923 130.6102103798912,249.97263658727752 131.9340389463614,249.84170477609223 132.24035034338885,249.89136862916712 132.60299487090379,250.05390434044602 133.03253499086713,250.06744894605436 133.96203164391045,250.27513218573222 134.55000869338983,250.20289468895135 134.8140702425444,250.30673603966352 135.1274232808646,250.27964702392273 135.68723376510025,250.4060622359284 136.22944014603854,250.74015719482122 136.56391810830974,250.85302633065658 136.9723333043512,250.83948205522393 137.37722767972446,250.71758332022364 138.61655655046343,250.88011486442338 139.03553420846583,250.83496729549006 139.60238633399422,251.083278141974 139.89461444840708,251.08779286692152 140.45090411197452,251.23226373149373 140.9332565417717,251.52120351771373 141.0388811614248,251.52571818131764 141.0564852647076,251.4173660802553 141.07056854732218,251.46251283329912 141.22196383551636,250.92526237012135 141.16210988437524,250.79884919479082 141.23956793879915,250.36091400284567 141.19379727027263,250.03132998511137 141.25013040074555,249.54823499092163 141.13746413978515,249.28636738775094 141.17267234633619,249.1012527981802 141.10225593323412,248.90259205567054 141.18323480831168,248.74456559041937 141.19027644960443,248.3066024793843 141.35575502042775,248.05375508638463 141.4367338955053,247.737693054969 141.39096322699334,247.57514566017562 141.5529209771339,247.1913499464572 141.3804007650033,246.9971927264378 141.28181778665748,246.31086015240362 141.577566721724,245.8683485041256 141.6515039554797,245.57484252782888 141.83106580891763,245.27230279988362 141.80642006432754,244.79365205423164 141.72544118924998,244.69430855550672 141.6550247761479,244.3872448954353 141.87331565677596,243.9853483300176 142.0211901243165,243.28540413972223 142.6549378422933,242.24674924935243 142.56691732590843,241.87192208727356 142.6514170216542,241.73644131701803 142.57747978786938,241.18999642626295 142.75,240.80160847142906 142.65845866294694,240.62999369726458 142.68662522819068,240.29579388145066 142.58804224984488,240.1015950983019 142.59156307051308,239.663514473752 142.5035425540991,239.23446066395263 142.60212553245947,238.83249980402252 142.5070633747673,238.4802153749406 142.3380639833049,238.2950386812554 142.31693905936845,237.63110373476593 142.16554377118882,237.41882232676653 142.2077936190617,237.23815619651214 142.13737720594509,236.99425531299494 142.14089802659873,236.6058167591109 141.9930235590582,236.51096477261672 141.92612796660978,236.17220539738992 141.94725289054622,236.05928481374576 142.07752325480396,236.00056595376736 142.22539772232994,235.79730753480908 142.35566808657313,235.41788838686261 142.28173085281742,234.8939212616424 142.32398070067575,234.2750870381824 142.20075197773986,234.04471505601396 142.48241763017722,233.33100315839692 142.46481352689443,232.92896860510155 142.71127097279532,231.84932288516939 142.6338129183714,231.60538118132172 142.59156307051308,230.2636687710583 142.62677127704956,229.82545428801313 142.75,229.500177825048 142.6549378422933,229.34205613507947 142.70775015212712,229.35109168114286 141.94021124925348,229.26525389116796 141.52827523254382,229.30591392548013 141.28885942796478,229.40982266873834 140.8170694601431,229.4550002786018 140.588216117525,229.5814972488988 140.19036338345904,229.60408594130422 139.78898982873943,229.74865319730452 139.52140745891666,229.7215468862596 139.27142919237667,229.88870210749883 138.9756802573247,229.94291442530084 138.31376597408962,229.78931262110564 137.5074980439822,229.97453823519027 136.90191689123458,229.9564674904941 136.67658436928468,229.86159591436808 136.1343779883464,229.78931262110564 135.2576936451369,229.85707821328833 134.96194471007038,229.80286575094942 134.76477875336423,229.57697950852526 134.35636355732277,229.63119235124395 133.88809441015474,229.5543907971005 133.7226158393314,229.63119235124395 133.3071590019972,229.65829873836992 133.15576371381758,229.744135480385 132.78255672432715,229.73510004462878 132.585390767621,229.82093658187296 132.1347257237212,229.7576886292627 131.32141615230648,229.80738345962163 130.96581326609885,229.73510004462878 130.5433147874428,229.83900740264653 130.1912327218888,229.6357100840287 129.95181691732432,229.64926327854118 129.25821524819185,229.4324114815863 128.716008867239,229.67185192338366 128.13507345909602,229.80738345962163 127.09643136571685,229.89321980414388 126.92391115361534,229.8435251062656 126.33241328349686,229.98357360375667 125.80429018517316,229.88870210749883 125.68106146223727,229.94291442530084 125.35362514125882,229.87514901378745 125.1846257497964,229.744135480385 124.86071024948615,229.73510004462878 124.44173259148374,229.78027719802776 124.16710858035367,229.88418441022077 123.8960053898918,229.848042809248 123.04748761192604,229.96098517761493 122.75173867685953,230.10555083098734 122.27642788836965,230.12813915568404 121.92082500216202,230.32691572965996 120.68149613145215,230.3133628204123 120.50193427801423,230.2139746449975 120.02310266885615,230.34046863318508 119.79072850561352,230.1868687257229 116.76282274187542,232.6488966238976 116.0621794314502,233.05545192712088 115.55870207770204,233.44393330964886 115.51997305049736,233.5704146088283 115.23478657740634,233.7556184719797 114.89326697382785,234.25250162261364 114.52710162565927,234.5822471173451 114.09756150569592,234.79454722438095 113.96024950013089,234.9932949922586 113.73139615751279,235.0610496327463 113.46029296703637,235.26882964135075 112.99554464052198,235.77472318684886 112.88639920020069,235.80182440250792 112.53783795530035,236.35287750763746 112.20688081369735,236.5741994613236 111.54496653046226,236.7684195145921 111.19288446490827,237.00328871199235 110.74574024167669,237.44140552178214 110.11199252368533,237.73950221193445 109.9746805181203,237.91113238799153 109.22122489786125,238.45311641309308 108.19666608711123,238.97250921223167 107.97485438581498,239.14413281780799 107.74600104319688,239.4331810337826 107.54531426585163,239.91191143557808 107.29181517864345,240.17385524741258 107.12281578718103,240.5170887419299 106.66158828132029,240.79257613769005 106.4151308354194,241.1403191583522 106.16163174822577,241.24870582594303 106.0947361557919,241.37967256271077 105.73561244891607,241.6822488493708 105.52436320959532,241.70482905530298 105.3553638181329,241.87192208727356 104.95751108405238,241.99385429332688 104.20405546377879,242.64415159754572 103.76043206120085,242.89704144841016 103.47172476745618,242.86091444839985 102.86262279404036,243.0415490432788 102.73235242978262,243.1499293140405 102.81685212552838,243.14089763873199 102.73939407110447,243.1363818001264 102.74995653307997,243.2176667981039 102.63376945143682,243.33959391047028 102.54222811439831,243.8814866045941 102.5774363209639,244.2246805964096 102.36970790226769,244.40982320543117 102.25,244.9742758125467 102.25352082065365,245.3535824088649 102.3415413370385,245.82770937457826 102.48941580456449,246.0941205126437 102.41899939146242,246.42826018183405 102.5774363209639,246.98364683022737 102.53166565242282,247.39453648200288 102.70418586455344,247.76929939762704 102.6760192993097,247.89572445819795 102.79572720159194,248.19823955389802 102.73235242978262,248.3382082640128 102.86966443536221,248.69941502943402 102.85910197338671,249.09673779491277 102.9928931582981,249.46245101046225 103.45412066415884,249.93651752007645 103.6442449795577,250.31125087340115 103.61959923498216,250.89365912276844 103.79916108840553,251.23677843558107 103.8484525775857,251.9004330558637 103.84493175693206,253.10129715502626 103.76747370250814,253.7333129200597 103.79564026773733,254.48720123132443 103.6372033382504,255.14627476994792 103.97872294182889,255.15981723560253 104.7004911762051,255.7421378765721 104.91526123619406,255.81887702148015 105.60182126400468,255.80533483271574 106.04192384594353,255.90013003461718 106.74960879770515,256.2431960543181 106.9784621403087,256.5591746844293 107.26364861341426,256.766816097781 107.47841867337411,257.25883062912544 107.69318873336306,257.4980643392046 107.84106320088904,257.8050031029379 108.0311875162879,257.9765264333255 107.97837520646863,258.5858782533469 107.90443797269836,258.7844793208387 107.96077110317128,259.56984428438955 107.73543858123594,260.301028949576 107.54179344518343,261.3571553032598 107.2953359992971,262.2688263010059 107.34462748849182,262.440325885309 107.33406502651633,262.9187146415934 106.90100408588478,264.6065578984344 106.57356776492088,265.17968244160875 106.54540119967714,265.7347461088357" stroke="#ff0e00" stroke-linecap="round" stroke-linejoin="round" stroke-width="0.5"><title>2021-05-03 34.6km</title></polyline><polyline fill="none" points="179.36217557916825,258.8902794596579 179.1152673750039,258.7366360370579 178.8013412297296,258.7321171018084 178.68141438772727,258.65529510597116 178.18759797944222,258.57847292758015 177.52094582824793,258.8496092129644 177.35163734540401,258.7727874963057 177.1294199616823,258.79086321075374 176.7696394356317,258.9399874694682 176.64265807349875,258.88576054589066 175.9230970214121,259.0122898927766 175.29524473087804,258.91287401904265 174.96015502524097,259.039403259816 174.87550078383356,259.02132768430965 174.52277477791358,259.2337150582971 174.36052081518574,259.12978098577514 174.18415781222575,259.1749697540072 173.9231405678438,258.953544186159 173.64801428321516,259.0258465791412 173.4645967601391,258.8993172853043 173.12950705451658,258.91287401904265 172.98841665213695,258.845090293511 172.42405504267663,258.94902528123566 172.20183765894035,258.90835510843317 171.90202055389818,258.98065760247846 171.71860303083668,258.92191183838804 171.22125936247176,259.0032520987006 170.9284967775602,258.9716197995549 170.39588050860038,259.12978098577514 170.11722696393554,259.3466864973052 169.75391917783418,259.45061987257213 169.43999303257442,259.37379958393285 168.75923184113344,259.5590717340201 168.14548859083152,259.96124421114655 167.57407246124058,259.8076058778024 167.42945479881018,259.879906360904 167.0767287928902,259.879906360904 166.17022295767674,260.0787318558032 165.73636997038557,260.22333144780714 165.56000696742558,260.1826628779236 165.11557219995302,260.2414063513388 164.72051907333662,260.178144144782 164.3501567671192,260.30014971803394 163.72583173663588,260.28659356595745 163.06976136560843,260.45830440557256 162.55830865702592,260.45830440557256 162.42780003482767,260.4040800284238 162.09623758927046,260.5531968467694 161.62711200138438,260.6119396470058 161.3096585960593,260.43571092614366 160.89344190908014,260.4266735299534 160.06100853507814,260.5983836256564 159.56719212680764,260.58934627493363 159.55661034662626,260.5125286917937 159.37319282353565,260.4221548309106 159.05221215815982,260.4085987299841 158.847631074721,260.4989726287604 158.65715903152886,260.4899352502471 158.15628810311318,260.72490627058505 157.65894443476282,260.666163675578 157.3062184288283,260.79720470252505 157.0769465249905,260.78364875886473 156.91116530221188,260.8649843356725 156.7383295593172,260.8423911404134 156.0152412471798,261.0095804115117 155.49320675840136,260.8920961491458 155.05582651105942,260.9824686965403 154.71015502525552,260.883058880514 154.3292109388567,260.97795007516834 154.198702316673,261.10447123486665 153.59201358648716,261.0276548755173 152.83012541368953,261.1225456458269 152.60085350982263,261.0773595994615 152.47387214770424,260.98698731727563 152.09645532137074,261.00054317570175 151.33456714857311,260.8875775151355 151.01711374324805,260.9146893096695 150.70318759797374,260.8695029728333 150.4456976136571,260.71586895520886 149.97657202578557,260.5577155275023 148.93250304824323,260.4989726287604 148.72439470475365,260.43119222835594 147.96603379200678,260.4492670157051 147.8037798292935,260.36793039313125 147.6133077860868,260.36793039313125 147.48279916388856,260.2549625223546 147.3029089008778,260.2685186876952 147.29585438076174,260.16910667658885 147.25,260.21429399225235 148.1141787145025,259.8347185779021 148.29054171746247,259.66300442656575 148.7561400452978,259.52743997867583 149.95188120537205,258.7637496352836 150.2658073506318,258.6507761593566 150.6220606166171,258.40675210409245 151.15467688554781,258.1582071914854 151.35573070892133,257.9684079715298 152.11056436160288,257.65659254831917 152.2798728444468,257.4667903834634 153.9835394530528,256.63526300261583 155.0029176101525,255.81727226460134 155.33800731578958,255.65909487177123 155.46851593798783,255.65909487177123 156.11047726875404,255.18003861748366 156.48083957498602,255.04897482047818 156.68189339835953,255.06253316894436 157.02051036403282,254.96310514810102 157.5072722522018,254.58346807350608 158.1245427625836,254.24902219461 158.21625152412162,254.10891546012135 158.41730534749513,254.0275628840027 158.5054868489824,253.8784159626448 159.0169395575649,253.67955233028988 159.15097543981392,253.5439627885753 159.33086570283922,253.53944312738167 159.49311966556706,253.35413647459063 159.79293677059468,253.25470319856322 160.41020728094736,252.58578048165873 160.95340533008857,252.33267097858334 161.306131335994,252.32363131681268 161.95161992682551,252.0614800256917 162.18089183069242,252.0343608052426 162.36078209371772,251.91232403166578 162.4524908552412,251.75864743909915 162.8016896011104,251.57333057618598 163.22848806827096,251.00833358214368 163.66939557566366,250.64221025594088 164.06797596237448,250.23088157164602 164.13146664343367,250.08623727363374 164.29724786622683,249.9732334653636 164.43128374846128,249.63421966967144 165.14731754049717,249.281641549489 165.62349764848477,248.79797043432336 165.67993380944245,248.65784006714603 165.912732973331,248.48154616145985 166.13495035706728,248.11087378681987 166.79102072809474,247.86677014492307 167.0449834523606,247.5322547518299 167.2883643964451,247.4056804568063 167.57407246124058,246.5738941831405 168.16665215117973,246.28457219924167 168.24072461243486,246.1670344032682 168.45236021598976,246.04045476021565 168.8403588224901,245.52056888256993 169.14723044766288,245.23575828993125 169.43999303257442,244.7520266095853 169.50701097369893,244.25924576870239 169.73628287753672,243.8207097089944 169.80330081866123,243.41833633524584 169.90911862044595,243.33695684138365 170.092536143522,242.9797888608664 170.092536143522,242.79442164362626 169.96908204145439,242.5728838180803 170.01493642221612,242.35586569962834 170.18777216512535,242.03033578841132 170.59693433198845,241.6821960033849 170.7627155547816,241.42900107589958 170.99904197873548,241.33405246646362 171.4963856471004,240.84574092382536 171.796202752128,240.6829687692516 171.89496603379666,240.38455102224907 172.57572722520854,239.78318567168753 172.69212680717465,239.76057773338107 173.055434593276,239.23606912264222 173.19299773557577,239.1501574177346 173.4645967601391,238.707030258156 174.0324856296793,238.7115519945619 174.74851942170062,238.3362457183066 174.97426406548766,238.1734609172272 175.00248214595194,238.03780628960521 175.18942692910787,237.91571663759532 175.27408117051527,237.78006092743453 175.93015154154273,237.28265178206493 176.05007838354504,237.02942236537638 176.56153109212755,236.83949899988875 177.09062010102207,236.37825189095747 177.7537449921656,235.98935215113306 178.04650757707714,235.9215203215099 178.45566974394023,235.69993535188405 179.4397753004596,235.510004167827 180.04293677059468,235.4828710503607 180.49442605816876,235.3155496554973 180.9388608256413,235.25676085149826 181.53496777564578,234.89950351052175 182.14518376589695,234.31160308045582 182.4273645706271,234.17140985899823 182.53318237239728,234.02217124479648 183.23510712418647,233.89102159021422 183.3056523253763,233.90006641108266 183.28801602507883,233.9452904774007 183.35150670615258,233.88649917882503 183.63368751088274,233.8774543541731 184.5860477268725,234.55580917400584 184.82237415085547,234.601032322018 185.27739069846575,234.54224221726327 186.0286970911111,234.7412236783639 186.47665911861986,234.99899329367327 186.64949486151454,235.28841637463847 187.00222086744907,235.5823590363325 187.16800209021312,236.01196272934249 187.35847413340525,236.2290234747452 187.5207280961331,236.58626610854117 187.69003657897701,236.67670665480182 187.72178191952116,236.78975698150316 187.63712767811376,237.16960318066776 187.66181849851273,237.4770944508782 187.75,237.68057971120652 187.41491029437748,239.0325936617519 187.20327469082258,240.2127334930592 186.98458456713706,240.95425523788435 187.03749346802942,241.63246144211007 186.8681849851855,242.30161094222785 186.5683678801579,242.87580250412066 186.53309527957754,243.48615242352753 186.40611391743005,243.6805577543346" stroke="#ff8400" stroke-linecap="round" stroke-linejoin="round" stroke-width="0.5"><title>2021-05-02 22.6km</title></polyline></svg>