<?xml version="1.0" encoding="utf-8" ?>
<svg baseProfile="full" height="300mm" version="1.1" viewBox="0,0,200,300" width="200mm" xmlns="http://www.w3.org/2000/svg" xmlns:ev="http://www.w3.org/2001/xml-events" xmlns:xlink="http://www.w3.org/1999/xlink"><defs /><rect fill="#222222" height="300" width="200" x="0" y="0" /><text fill="#FFFFFF" style="font-size:12px; font-family:Arial; font-weight:bold;" x="10" y="20">Over 10km Runs</text><text fill="#FFFFFF" style="font-size:4px; font-family:Arial" x="10" y="280">ATHLETE</text><text fill="#FFFFFF" style="font-size:9px; font-family:Arial" x="10" y="290">DingXiaoshan</text><text fill="#FFFFFF" style="font-size:4px; font-family:Arial" x="120" y="280">STATISTICS</text><text fill="#FFFFFF" style="font-size:3px; font-family:Arial" x="120" y="285">Number: 9</text><text fill="#FFFFFF" style="font-size:3px; font-family:Arial" x="120" y="290">Weekly: 1.1</text><text fill="#FFFFFF" style="font-size:3px; font-family:Arial" x="141" y="285">Total: 203.1 km</text><text fill="#FFFFFF" style="font-size:3px; font-family:Arial" x="141" y="290">Avg: 22.6 km</text><text fill="#FFFFFF" style="font-size:3px; font-family:Arial" x="167" y="285">Min: 11.2 km</text><text fill="#FFFFFF" style="font-size:3px; font-family:Arial" x="167" y="290">Max: 34.6 km</text><polyline fill="none" points="44.61796384121408,58.58227365768471 44.6567237295385,58.569210938101605 44.77300339462818,58.64105586059304 45.45960713116801,56.62936541181989 47.32008177222451,54.075466108064575 48.11189092005952,52.67110160537777 51.67780064875842,44.8517808655306 51.838377329084324,44.263820676565956 52.5748152078595,42.68936547315752 53.58810943196295,39.965002703331265 55.099745077837724,34.75112772413195 55.282470265810844,33.87557027657385 55.204950489103794,33.54233235518768 54.23595328020747,33.01960246003364 53.98678256935091,33.0 50.42640996759292,38.03108710660672 47.07644818830886,41.67672714399305 46.18497075614869,43.042151571622526 45.17721365886973,43.64318975920469 43.30566476401873,45.740243069274584 41.600229676405434,47.47139987801711 40.27685634541558,48.97387270532272 39.479510070668766,50.2738078628754 38.54373562321416,52.33143640092385 37.751926475408254,54.35633505144142 36.21260519500356,57.46540082716456 33.10073987278156,64.53204591162284 31.93794322211761,66.28878099913709 30.537050114391604,68.15647995577456 29.042025849281345,71.08198913259184 28.9700431994861,71.32359845296378 29.042025849281345,71.97659173604916 27.718652518291492,74.8235592124147 26.66106127886451,77.84015223258393 25.077442983252695,81.6008865061267 24.71752973421826,84.57143844412712 24.927940556692192,86.71275591887388 25.18264839448966,87.0 25.503801755141467,86.99347174073046 30.658866906393087,83.42893590686435 31.64447549599572,83.0633304912335 35.01104865601519,81.44419396069497 37.29788206896046,80.69989877001717 38.71538655736367,80.03394259894412 41.605766803288134,78.00991268998041 42.181628001708305,77.45492479374298 42.242536397709046,77.23945751816063 41.63898956475896,72.47939170936297 41.733120722172316,69.37763621918566 41.87154889488011,68.19566182709968 41.74973210290773,66.9875423286976 41.72204646834871,65.04796974386045 42.10964535194216,63.28466738026327 42.43633583947667,62.337687255450874 44.075325404206524,59.97343696696407" stroke="#ff8800" stroke-linecap="round" stroke-linejoin="round" stroke-width="0.5"><title>2022-06-18 22.1km</title></polyline><polyline fill="none" points="88.46486568523687,37.12289407911885 88.29276066168677,36.91974573919288 88.35832448015572,36.56181657558773 89.57945059947087,36.939093220258655 90.23508878433495,37.69364167824824 93.93944452874712,40.199083300882194 94.34102291695308,40.80850430870487 94.84094703293522,42.201450834807474 94.73440582785406,43.526664307151805 95.00485657915124,43.95227609798167 95.71786310517928,44.31984826824919 96.70132038241718,44.56167123097839 98.16011534372228,45.25811766766128 99.93853392012534,45.75143057407695 101.76612536044559,46.83477474718529 102.15950827134657,47.328078855724016 102.77416906962753,47.802035112385056 103.92153589313966,49.20454384514596 104.29852784943068,50.49096332738554 104.54439216875471,50.85850831308926 105.50326301407767,51.38080645399896 106.1834876308858,51.43883939032821 106.19987858549575,52.23195236930769 106.70799817878287,51.92244571173069 107.23250872662175,51.83539676908549 107.71604188799392,51.980478292571206 108.61754439215292,52.62850619103847 108.69949916526093,52.570474035528605 108.84701775683789,52.193264096349594 108.70769464256591,51.14867432782194 108.85521323417197,50.17177828447893 109.36333282742999,49.34962968559557 109.74032478372101,49.49471528797585 110.91227803914808,49.26257820988394 111.79738958869711,49.37864682511281 113.05949309453717,50.22981201433868 113.31355289116618,50.24915658250393 113.03490666262223,49.281922989677696 113.17422977689421,47.11528134255059 113.93640916675213,45.09367942047538 114.23964182729833,44.697091801172064 114.88708453485742,44.36821291373781 116.30490210957942,44.37788583963993 116.69008954317542,44.503633780259406 117.30475034145638,45.12269795690372 118.39474882380455,46.59295800229302 118.8455000758695,46.90248331720795 119.59948398845154,48.19860880325723 119.94369403549354,50.12341681379621 120.23873121867655,50.81981943916617 120.09940810440457,51.77736409303179 120.21414478679071,52.43506552455801 120.42722719683661,52.70588233915623 121.10745181358652,52.94768236554228 121.57459402034874,54.39846863846469 122.12369100016076,55.02713529802713 122.1073000455217,55.39466142880701 122.61541963880882,55.617110713261354 123.07436636817874,55.59776731941383 124.03323721353081,55.210898554345476 123.8201548034267,55.646125796039996 122.86128395813284,56.468215852670255 122.85308848079876,56.62296136157238 123.75459098495776,56.913108460961666 124.24631962360581,56.90343690629379 124.93473971771891,56.69066243657289 125.08225830929587,56.768035030239844 125.18060403701384,57.174240036423726 125.08225830929587,58.42185803216125 124.76263469419791,59.58241711046139 124.41022916982183,60.220718111959286 124.70526635297574,60.01762283845164 125.48383669753093,58.87641215219628 126.75413568070508,58.42185803216125 127.0,58.55725737608009 126.10669297314598,59.611430892313365 125.91819699498592,60.230389303811535 125.48383669753093,60.762303227842494 126.098497495841,60.89769898860686 126.50007588404696,60.71394754873472 126.67218090756796,60.89769898860686 126.50007588404696,61.55533259257936 125.91000151768094,62.58045757608488 125.77067840340897,63.373470639002335 125.11504021854489,65.26893647015822 125.44285931094782,67.30941806363262 125.22158142356784,67.79293760927976 125.22977690087282,69.14677827728156 124.76263469419791,69.83336098361906 124.57413871603785,70.62630902779347 123.12353923203773,71.370900111011 121.3779025648837,72.6666670540726 120.3042950372037,73.2178457467453 118.14068902717554,73.22751551771216 117.87023827590747,73.4595897041072 117.50963727425551,74.18481761310977 115.51813628774835,75.60624707102397 114.87069358018925,76.43782106441358 114.23144634996424,74.99706581383361 113.01851570798317,75.13243978902756 112.2317498861521,75.86732346875942 111.4203976324061,76.35079624522768 110.74017301559797,77.04699240236368 109.96979814840597,76.75691133591317 110.17468508114689,77.62715168231807 110.084534830763,77.87855285563273 109.84686598877306,78.00425317446206 109.05190468960791,78.0429301596887 107.98649263923289,77.61748239213921 106.31461526785279,77.5207894324194 104.66732432841673,77.22104058573314 102.68401881921454,77.25004858302418 101.26620124449255,77.47244291290554 100.8154499923985,77.75285235825868 100.15161633022944,77.86888359294244 99.12718166637933,77.61748239213921 98.76658066475648,77.64649025947438 98.1109424798924,77.05666175485385 97.0783123387373,76.66021743576857 95.97192290177918,76.93096008988505 96.12763697071932,77.06633110631083 93.9476400060521,77.76252163363824 93.71816664136713,78.70043632246961 93.03794202455902,79.50297398845578 92.19380786156398,79.78337699930125 91.39065108512295,79.74470077478327 89.41554105325486,81.04034509484336 87.39945363480365,81.34008100431674 86.48975565331057,81.29173657148203 85.30141144327354,82.42298937896703 83.22795568368747,83.31251134522608 82.5313401122985,83.47687855598633 81.39216876609134,83.30284267626848 81.03156776443939,83.41886663410696 80.47427530732239,83.01278211623867 79.94156928212033,82.33597044564522 80.17104264680529,81.31107434778096 79.94156928212033,80.52789102699899 79.5235999392462,80.88564229271287 78.76961602669326,82.02656910080259 78.36803763845819,82.19093869992503 78.13036879643914,80.99200049821957 78.32706025193329,80.48921512785455 77.48292608890915,79.5223121556337 77.28623463344411,78.88415040644031 77.72879040820408,77.84954506441136 78.48277432081522,77.0373230487894 79.62194566696417,76.86327450402314 80.87585369552835,76.95996818226558 81.3266049475933,76.82459700313484 81.26104112912435,76.56352342995524 80.90863560474827,76.35079624522768 79.02367582332226,75.66426411489374 78.80239793591318,75.40318711799773 78.76142054935917,75.02607454021927 80.2529974199133,73.14048754087707 80.77750796778128,72.94709173031879 81.22825921987533,71.370900111011 82.0150250417355,70.8777300943184 82.17073911061743,70.57795874077419 81.98224313245737,70.34587699519761 82.0150250417355,70.17181528652145 82.67066322654136,69.63995794349466 80.44968887537834,69.65929826652427 79.06465320987627,70.08478430371906 76.66337835782906,71.11948044601013 75.73728942172602,70.84872000773612 74.884959781426,71.07113042852143 74.51616330246907,70.76168969085847 74.39323114277795,69.5045755638057 74.05721657304093,68.51821197244863 73.66383366211085,67.83161905877932 73.0,67.27073638576258 76.41751403853414,66.4970992770468 77.44194870235515,65.22058325485705 77.94187281830818,64.79507382037264 78.73683411744423,64.61133047720068 79.58096828043927,64.12779353975202 80.07269691908732,63.6926080359699 81.12171801485238,63.257420390989864 82.65427227196051,62.106580522733566 83.69509789042058,61.11046333674312 83.50660191226052,59.87255450043449 82.12156624672934,59.65011591991788 80.53983912579133,58.518571870394226 80.2120200333593,58.47988634779904 79.96615571403527,58.276787076531036 78.6220974350872,57.75452966573357 77.88450447711512,57.08719626360107 77.32721201999811,56.92278001450177 76.7781150401861,56.55526023473067 77.5484899074072,55.58809562092938 78.72863864013925,54.79501274420909 78.73683411744423,54.446827770960226 80.96600394597044,51.79670832261763 81.38397328881547,50.84883609618555 81.85111549551948,50.36522390256869 82.14615267867339,49.77521344415436 82.38382152069244,48.46943859428575 82.07239338287036,47.56022101317649 82.52314463496441,46.97019183538214 82.4002124753024,45.964231370082416 80.7283351039514,42.24981663930521 80.94961299133138,42.007987352139025 85.74396721806261,39.7831268670343 85.94065867352765,39.5703111904586 86.13735012896359,38.82545228714298 86.0062224920257,38.36112148295797 86.55531947183772,37.6549470422251 87.62892699951772,36.52312144401367 88.29276066168677,36.64888055961637 88.25178327513277,36.87137701801112" stroke="#ff6200" stroke-linecap="round" stroke-linejoin="round" stroke-width="0.5"><title>2021-12-18 25.6km</title></polyline><polyline fill="none" points="137.66511843938497,64.38602259489562 138.3088713423349,64.11575900597381 138.92754296326893,64.19297725200886 139.40408732002834,63.478706102614524 140.09800278683542,63.19878757881088 140.39897816997836,61.92466534796404 140.84208081749966,61.17176697711693 140.93404551787535,60.42851534805959 140.5996284254361,60.322336073390034 140.38225731538842,59.772132493104436 140.71667440782767,59.60803607691196 140.55782628891757,59.10609235375887 140.78355782627477,58.855119506290066 141.0176497909706,58.87442513327551 140.68323269853136,58.710327179927845 140.57454714353662,58.12150279893831 140.0562006502587,57.54232774711272 140.1230840687349,57.329962684401835 139.57129586624797,56.2874364594245 139.6799814212718,55.872353416649275 138.9191825359885,55.03252873788733 138.70181142588262,55.23524571357848 137.40594519273145,55.447615418583155 136.6618671620963,55.717903453354666 136.4946586158767,56.08472170967434 135.7338597306225,56.171599512090324 135.3241987923684,56.374314078064344 134.939619136072,56.85696608051512 134.5884811890428,56.99210820557346 133.4431026474631,56.54806907897 134.42127264282317,55.28351159695012 136.20204365998507,54.40506871404068 136.6284254528291,53.75829792748846 136.97956339991651,51.89518752868753 136.6618671620963,49.452816948556574 136.80399442638736,49.25008773823356 139.93915466786711,47.53169910709403 140.86716209937003,47.6668543858832 141.41895030188607,47.13588612224703 141.47747329308186,46.44079594723735 142.1295866233413,45.62019688768487 142.7900603808812,45.32091783424403 143.75986994890263,45.18575924556353 144.02740362286568,44.403766524614184 144.2614955875324,44.28791520820232 144.33673943334725,43.988631992266164 144.2614955875324,43.670039154210826 143.9103576405032,43.52522387755016 144.21969345101388,43.16801192564162 146.20947515094304,41.89362329727737 148.03204830471077,39.92408024671022 149.11890385506558,38.97791281073296 149.65397120296257,39.06480612834275 151.00836042730953,38.475860987673514 151.68555503946845,37.88691222525085 152.66372503482853,37.54898916895763 153.74222015790292,37.86760236843111 155.1969345099642,37.91587700317177 156.13330236880574,37.51036931519775 156.0246168137237,37.81932770938147 155.65675801207544,37.88691222525085 155.55643288433203,38.0703556707449 156.00789595910464,38.53379017849511 156.3088713423058,38.56275476078008 156.501161170454,38.96825799281214 156.87738039944088,39.0841157437535 157.2368787738087,39.46065246641956 157.8388295401528,39.209628149132186 158.71667440776946,39.11308015960822 159.2099396191188,39.50892629814916 159.2350209010765,39.99166327731655 159.48583372036228,40.126829195491155 160.23827217836515,39.89511607614986 160.27171388757415,40.010972705880704 161.12447747329134,39.51858106160216 161.67626567577827,38.97791281073296 162.0942870413419,39.19997335456719 162.24477473291336,39.75029509188607 162.56247097073356,40.15579329598404 162.6377148165484,40.41646980636142 162.4454249883711,40.86058370844694 163.15606130979722,41.092294492031215 163.17278216441628,41.43020504665037 163.38179284721264,41.845350667448656 163.54900139340316,41.883968773261586 164.41012540640077,41.32400471509027 165.39665582907037,41.19849508050538 165.41337668366032,41.072985281476576 165.7895959126763,40.9474753179602 165.73107292148052,40.76403738316003 165.9484440315864,40.82196518997807 165.7895959126763,40.638527014816646 166.15745471432456,40.77369202005502 166.34138411519234,40.638527014816646 166.70088248953107,40.76403738316003 166.5838365071686,40.4357791492439 166.72596377145965,40.47439782339643 166.7426846260787,40.32957771504152 166.19089642359177,40.126829195491155 165.88992104041972,39.21928294274403 166.09893172315788,38.842745271118474 166.04876915932982,38.44689637910051 166.22433813282987,38.379312258417485 166.36646539712092,37.92553192718333 166.2661402694066,37.1917549272257 166.5503947979596,36.99865478226275 166.7761263353168,37.1434799274939 166.89317231767927,36.99865478226275 167.22758941008942,38.24414387396246 167.4115188109572,38.29241831887339 168.28936367860297,37.828982643150084 168.590339061775,37.91587700317177 168.78262888992322,38.157249811782094 168.85787273570895,38.900674240037915 169.29261495589162,39.209628149132186 169.16720854621963,39.383414285031904 169.4765443567012,39.37375950796559 169.77751973987324,39.7213308687642 169.85276358568808,40.368196432013065 170.17045982350828,40.75438274525368 170.04505341383629,40.9474753179602 170.0199721319077,41.73915079618746 169.6688341848494,42.424620619662164 169.69391546680708,42.75287203753396 170.28750580584165,42.26049448886624 170.32930794238928,42.43427508918103 170.63864375289995,42.3570393057671 170.64700418020948,42.569437560319784 171.1653506734583,42.386002731836925 171.8007431490987,42.55012864754099 172.16860195077606,42.43427508918103 172.49465861584758,42.569437560319784 172.77055271714926,42.49220188588515 172.71202972595347,42.22187653489527 172.51973989780527,42.125331581773935 172.90431955410168,41.81638707788079 172.67858801671537,41.27573179816682 172.93776126336888,40.57094444063114 172.845796562935,40.194412083037605 173.34742220153566,39.51858106160216 173.2303762192314,39.01653207275376 172.79563399904873,38.81378077352565 172.5030190431862,38.38896713571012 172.42777519740048,37.41381961260049 172.99628425450646,36.525557781562384 173.69019972131355,34.111761191095866 174.1500232234248,33.02070516572712 174.216906641901,33.21381333228783 174.66836971667362,33.14622551829234 175.16163492802298,33.34898881715344 176.43241987924557,33.20415793321445 176.51602415234083,33.09794847908779 177.98745935905026,33.53244095570699 178.01254064097884,33.8607228527253 178.7064561076986,33.619339214441425 179.04087320016697,33.95727613768395 179.45889456570148,33.802790835026826 179.66790524846874,33.91865483539732 179.83511379471747,33.78348015469237 179.99396191359847,34.034518695531006 180.46214584301924,33.96693146081816 181.06409660936333,34.31452244547836 181.10589874594007,34.53659380289173 180.75476079891087,34.855217024894955 180.46214584301924,35.502115456809406 179.31676730143954,36.41935201119486 179.31676730143954,36.80555424794147 178.91546679052408,37.30761482730304 178.7649790989235,37.77105302599375 178.4807245703705,38.089665486695594 178.1546679052699,38.13794000945927 177.7115652577777,38.630338752009266 177.51091500231996,39.05515131916036 177.59451927541522,39.47030723469652 177.40222944726702,39.769604569126386 177.76172782166395,40.04959155132383 177.83697166742058,40.29095898252854 177.45239201112418,40.541980465677625 176.94240594518487,40.34888707547361 176.10636321414495,40.55163512499712 175.49605202040402,40.97643917030655 175.06967022755998,40.90885683459055 174.16674407801474,41.43985961643193 173.64839758476592,42.27014897495974 173.4226660473796,42.33773035016202 173.96609382258612,43.24524705513613 177.37714816536754,42.762526473954495 178.0627032048651,43.2162838888471 179.15791918255854,43.1776663202254 179.4923362749396,43.39006275508291 179.4003715745348,43.670039154210826 179.02415234557702,44.05621215501742 178.81514166278066,44.693394202658965 179.04087320016697,45.13748827483505 179.89363678588415,45.53330951690441 180.20297259639483,45.97739969522081 180.14444960516994,46.9621140513118 180.3200185787282,47.444813470014196 180.02740362283657,48.05301127467101 179.93543892243179,48.7384359188145 180.62099396192934,49.25008773823356 181.63260566652752,49.28870285896846 182.0088248954853,50.003079785565205 182.93683232698822,50.03204089998326 184.28286112399655,51.624888710277446 184.37482582443045,52.339248217809654 184.1407338597637,52.99568198839552 184.6172782164649,53.76795125492208 184.1658151416632,54.43402849791164 184.11565257780603,54.75258554258471 184.39990710638813,54.99391593195469 185.21086855552858,54.868424205327756 185.45332094753394,54.955303110524255 185.4115188109281,55.85304718486441 186.19739897813997,56.663905571251235 185.77937761263456,57.551980693307996 186.76590803530416,58.246990265462955 186.67394333487027,59.511508642026456 187.0,60.42851534805959 186.11379470507381,60.42851534805959 186.3646075243596,60.96906255904469 186.59869948905543,60.99802035929315 186.6154203437327,61.326208150763705 186.3311658151506,61.59647960579605 186.40640966096544,61.876402809306455 185.98838829540182,62.04049534157821 185.57872735714773,62.098410285914724 185.22758941011853,61.876402809306455 184.72596377148875,62.088757797610015 183.94008360427688,61.866750298664556 183.55550394798047,62.12736774497171 183.10404087317875,62.01153785630595 182.5188109614828,62.31076478234172 181.908499767771,62.108062773208076 181.8834184858133,62.194935115352564 181.42359498376027,62.07910530835943 181.3065490013687,62.214240069552034 180.72131908964366,62.18528263677581 180.3869019972044,62.513466362739564 179.95215977702173,62.60033833740454 179.2415234556247,63.04434942260559 178.1881096144498,64.32810903284553 177.7784486762539,65.16785225763306 177.35206688338076,65.44776503101457 177.02601021828013,65.4381128800087 176.27357176033547,65.72767698699317 175.75522526705754,65.63115571518574 175.06130980027956,65.33193915497395 174.67673014401225,64.8396776202353 174.24198792382958,64.78176433228509 173.27217835572083,65.76628546848224 173.0380863910541,66.24889017517125 172.63678588016774,66.65427625108714 172.51137947049574,66.66392827960954 172.48629818859627,66.49019161736214 172.16024152343743,66.44193137751427 171.44124477473088,66.73149245209788 170.66372503482853,66.49984366240824 170.57176033442374,66.68323233374394 170.35438922431786,66.57705998783058 170.1119368323125,66.86662065421115 169.7273571760452,66.93418468383607 169.1254064096429,66.79905657696509 169.0668834184762,66.57705998783058 168.57361820715596,66.82801261590066 168.26428239664529,67.37817569384788 168.30608453319292,67.60982236095151 168.7742684626137,67.76425316139648 168.60705991639406,68.54605527069361 168.6823037621798,68.86456541319785 168.37296795166912,69.20237804426142 167.45332094753394,69.50158252338588 167.75429633067688,69.10586027114914 167.62052949372446,68.89352082821279 167.39479795630905,69.22168158722343 166.50023223410244,69.26028866146225 166.09057129584835,69.4340203032989 166.02368787740124,69.32785100401088 166.29122155130608,69.12516383354523 165.86483975846204,69.26994042762817 165.76451463077683,69.34715452174714 165.848118903843,69.65601027625962 166.1072921504965,70.08068531400204 165.29633070132695,69.94556164242385 165.23780771018937,70.10964036169025 164.61913608919713,70.32197711095796 164.10915002319962,70.09033699752763 163.5908035299508,70.09033699752763 163.10589874591096,69.77183092765335 162.55411054342403,69.88765143915225 162.17789131443715,70.37023539746588 162.62099396190024,70.42814530919713 162.88852763583418,70.93002974574483 162.8968880631728,72.49357595526817 163.16442173710675,72.73486167940428 163.8499767765752,72.89893562498037 162.99721319091623,73.69034718348848 162.85508592662518,74.06674794947321 162.6042731072812,74.17291200091859 162.31165815141867,74.96431304365251 162.31165815141867,74.36593724782142 162.68787738040555,74.02814281071187 162.6126335345907,73.78686034128623 162.99721319091623,73.22708267374401 162.3869019971753,73.39115577695338 162.1277287505509,73.12091757497546 161.88527635854552,72.30054693874263 161.99396191359847,71.82762420573272 161.86855550392647,72.87963282241981 162.0692057594133,74.14395818034245 161.48397584765917,75.62059188071726 161.42545285649248,76.11279806063976 161.18300046445802,76.59535068622063 160.9238272178336,76.74976701349806 160.98235020897118,77.33847697998135 160.61449140735203,78.16845538302732 160.6061309800134,78.46763188312616 159.903855085955,78.91156948565913 159.6530422665819,79.81873993472254 158.68323269856046,80.36882847416564 158.3738968880789,80.80310667110462 157.98095680444385,81.02507032343419 157.31212261956534,80.85135968269606 156.30051091496716,81.12157609897258 156.31723176961532,81.66200664736243 155.94937296790886,83.13852458319889 155.34742220159387,83.88160017432529 154.9126799814112,84.72117216174956 153.46632605668856,84.28691170656384 152.6219228982518,83.14817495247553 151.94472828612197,82.74285860779491 151.1003251277143,82.83936265474767 150.67394333487027,82.59810235527402 150.0469112865976,82.66565530032676 149.6038086391054,82.0962789882542 149.39479795636726,82.28928828633798 149.24431026473758,82.8007610476343 149.16906641895184,84.18075885175494 149.0269391546608,84.4027146868757 147.89828146770014,85.18438114676974 146.05898745934246,85.5028360262877 145.67440780307516,86.30379362491658 144.96377148167812,86.97929483427288 144.78820250811987,86.6029447473993 144.83836507200613,86.3230937254848 145.07245703670196,86.1107924055832 145.18950301903533,85.54143654587097 145.39015327449306,85.27123258237407 145.4068741291121,84.82732441840926 145.6911286576942,84.57641889516526 145.80817464002757,83.97810307546752 146.60241523457807,82.95516738293372 146.56061309803044,82.36649189680611 146.9953553181258,82.11557993554743 147.39665582904126,82.19278368583036 148.30794240592513,80.61974500561337 148.13237343236688,80.26267128244945 147.6641895030334,79.93454831051349 147.88992104041972,79.41340951807797 147.70599163958104,78.51588606988662 146.5773339526204,77.3674298359183 145.91686019508052,77.55079772039608 145.41523455645074,77.1165047941613 145.06409660939244,77.05859892203443 145.07245703670196,76.7883710564638 145.3985137018317,76.5856996575094 145.34835113794543,76.28651728561817 144.9888527635776,75.99698506915593 144.42870413375203,75.89082303738542 144.07756618669373,75.5240805687572 144.21969345101388,75.35035996240913 144.59591267997166,75.54338283889956 145.04737575474428,75.48547601675091 145.23966558289248,75.66884750025929 145.5908035299508,75.57233623685897 145.96702275893767,73.02440374683647 147.6641895030334,71.13271310030541 147.81467719460488,70.82386210327968 147.69763121227152,70.09033699752763 147.73943334881915,70.90107494583208 147.32977241056506,71.49947236696607 147.58058522993815,70.67908785590407 147.0873200185888,70.08068531400204 145.92522062236094,70.32197711095796 144.32837900603772,69.36645803556166 143.32512772871996,69.33750276335923 139.47097073850455,70.89142334389908 137.97445424989564,71.29678978778975 137.07988852763083,71.31609290902998 136.6618671620963,71.64424537547893 135.85090571295586,71.60563926126633 135.36600092891604,71.15201625460759 135.30747793774935,69.9069548441039 134.61356247097137,69.29889572018874 133.45982350211125,69.01899419224355 133.1922898281482,68.81630636870977 133.0,67.63877815500746 133.1922898281482,67.29130804933811 133.61031119368272,66.9438366842005 133.77751973990235,65.81454604851024 133.94472828612197,65.52498220396956 134.404551788175,65.66976423557935 135.34091964698746,65.58289504284767 136.8457965629641,65.80489393443713 137.40594519273145,65.38985211047839 137.64839758476592,64.46324062316853" stroke="#ff1a00" stroke-linecap="round" stroke-linejoin="round" stroke-width="0.5"><title>2021-11-13 32.3km</title></polyline><polyline fill="none" points="25.441128298465628,160.3805902945387 25.352684258425143,159.93992179055203 25.62784349411959,159.61521751063265 25.43130118289264,159.25572232680133 25.588535031827632,158.548325019583 26.787443130102474,157.2146943114567 28.91992720658891,155.9622258526797 31.83858052775031,155.5215389878722 34.03002729755826,154.50099395354482 34.29535941767972,153.38766089557612 34.91446769790491,152.34390053695097 35.042220200179145,151.69444446157286 35.77925386716379,151.31172741146293 36.476979071914684,150.2563489948734 37.1550500455196,149.96640802998445 38.39326660602819,150.04759158005618 39.69044585991651,150.46510599864268 40.52575068251463,151.0449844081013 40.98762511374662,151.7408343131683 41.3119199272478,151.83361395546672 42.874431301199365,151.56687226502254 43.78835304826498,151.0101917929569 44.81037306645885,151.4624948991477 44.68262056418462,153.00494995705958 44.86933575978037,153.32967447854026 44.967606915393844,154.44300814533926 44.62365787080489,155.57952420628862 44.86933575978037,156.43770173178928 45.30172884440981,157.06393500234117 47.11974522296805,158.37437413920998 48.12211101001594,158.21201972677954 48.56433121016016,158.35118066696305 48.95741583261406,158.14243918820284 49.615832575073,158.1192456652061 51.47315741586499,158.7454690057275 52.613102820760105,160.24143201739207 52.83912647864781,160.91402866529097 53.674431301187724,161.35469312168425 54.58835304825334,161.27351822782657 55.75777979986742,160.69369575044402 58.22438580531161,158.45555125222018 59.12848043674603,158.95420929742977 60.209463148377836,158.98899930613698 60.661510464095045,158.803452461274 62.115923566918354,159.93992179055203 62.41073703370057,159.39488189735857 66.03694267518586,158.3395839289078 66.8525932666962,157.8409229935205 67.0,157.19150058554806 66.94103730667848,154.50099395354482 66.78380345774349,153.73557873193204 65.28025477711344,151.1145696040985 64.29754322115332,148.27313695842895 63.47206551412819,146.81179908759077 62.852957233903,146.19710332979594 61.76214740675641,145.54760960006388 59.246405823505484,144.80532617933204 61.63439490448218,143.72668631996203 61.899727024603635,143.78467798940255 59.236578707932495,144.81692439776816 58.11628753412515,144.45737903671397 57.21219290269073,143.81947297587612 56.45550500461832,142.92639804176724 55.32538671523798,140.3747139134939 54.16578707919689,140.01515348527755 51.463330300292,138.77408070128877 50.726296633307356,138.83207508025953 48.5348498634994,138.46091050652467 47.78798908099998,138.08974463307823 47.26715195633005,137.5329933858884 46.10755232028896,137.09222990785202 44.02420382166747,136.7790547438126 42.884258416772354,137.1270270911773 41.82292993628653,136.86024839372112 40.221110100101214,136.76745564590237 38.71756141947117,136.0483090958587 37.56778889900306,135.7119324216983 36.22147406730801,135.6539363355041 34.06933575979201,134.78399123421696 31.573248407628853,135.45674940499157 30.57088262058096,136.38468470244698 28.890445859869942,136.36148641900945 27.976524112804327,135.81632529688795 27.426205641473643,135.70033320698712 27.06260236579692,135.18996650341433 26.83657870790921,134.43601119432424 26.325568698812276,134.36641504924046 25.81455868971534,134.04163243465882 24.763057324802503,134.1692257233517 24.763057324802503,134.8303884865236 25.706460418528877,135.60753944366297 25.26424021832645,135.82792449888075 25.274067333957646,136.10630496626982 24.733575978141744,137.10382897021918 24.80236578709446,137.44020122705115 24.59599636029452,138.0085519250133 24.14394904457731,138.13614043832058 22.886078252922744,137.05743271308893 22.71901728847297,138.63489406229928 22.237488626036793,139.1916395217122 21.981983621488325,139.8759684759425 21.47097361239139,140.10794338995765 20.566878980898764,139.2380348446386 20.25241128297057,139.180040687781 20.29171974520432,140.20073321343807 19.564513193792664,140.57189169505727 20.114831665123347,141.66216221910872 19.83967242948711,142.70602774483268 18.79799818014726,143.12357107700518 18.218198362155817,143.9354561815344 18.13958143768832,144.32979813164275 17.35341219289694,144.50377205508994 16.98980891716201,144.95610291981575 17.34358507732395,145.96514174024196 17.117561419436242,146.77700508322596 16.09554140130058,146.9277790195556 15.957961783395149,147.0785527414264 16.50828025478404,148.24994127652462 17.206005459476728,148.48189786712464 17.432029117364436,148.8762229064523 17.294449499517214,150.8362285460389 15.555050045484677,153.5964117343683 15.270063694217242,154.95328216929192 13.393084622337483,156.41450783592882 13.0,157.80613260824612 13.383257506822702,158.3163904490284 14.071155596000608,157.95689086218044 18.286988170992117,159.38328527342674 20.507916287519038,159.7891663556511 20.114831665123347,160.62411684011022 20.075523202947807,161.19234327183221 20.19344858964905,160.8212569674506 21.185987261123955,161.1691504158298 21.333393994544167,161.3199038890525 21.29408553231042,162.28240178180567 22.198180163803045,163.1753137030173 23.495359417633153,163.91746854010853 23.898271155601833,163.91746854010853 23.711555959947873,163.61596876385738 23.839308462222107,163.03615909288783 23.32829845312517,162.18963128095493 23.849135577795096,162.94338925139164 23.75086442218162,163.5811802729877 24.19308462238405,164.56684976254473 24.134121929004323,165.81921660659282 26.83657870790921,165.95836756534118 27.12156505911844,165.26261094598158" stroke="#4dd2ff" stroke-linecap="round" stroke-linejoin="round" stroke-width="0.5"><title>2021-10-24 17.4km</title></polyline><polyline fill="none" points="117.2208340059151,148.50472335847735 117.36263410287211,148.63493458168523 117.37838966929121,148.02108079804748 117.04752277623629,143.50081642232544 115.45621057623066,141.8452162352187 115.12534368311753,141.0639161584986 113.92792064155219,139.59431817806035 111.47005229303613,137.8642688116961 110.09931802173378,137.30618461045378 109.29578413860872,137.41780159744667 107.94080543360906,138.49676202215778 107.05849371879594,138.73859703875496 106.01862634060672,138.25492666105856 105.60898161580553,138.29213212364994 104.96300339605659,138.92462374026945 104.64789206930436,138.60837822649046 103.68680252280319,138.58977553088334 99.93697773467284,140.0221771304059 96.73859776830068,139.48270262182632 96.50226427329471,138.81300774381089 95.57268585939892,137.95728266687365 95.08426330296788,136.78530436762958 94.64310744550312,136.5620694886893 94.83217424160102,135.98537802616192 94.58008518017596,133.3623373023438 93.54021780198673,131.24155134372995 93.69777346530464,128.73006002428883 92.39006145938765,124.80461769062094 91.19263841782231,123.0 92.4845948573784,124.84182610090647 93.28812874056166,126.86967212936725 93.69777346530464,128.59983353526331 93.66626233269926,131.2973618399701 94.80066310893744,134.1064664479054 94.92670763959177,136.0969958814676 93.68201789906016,139.44549742016534 92.89423958217958,140.84068690479035 90.16852660599397,143.22178381396225 89.22319262573728,145.39822599911713 85.44185670494335,147.94667412807758 84.13414469902636,148.98836454139382 83.18881071888609,150.1974614726787 81.37692059011897,150.88571280406904 78.80876327730948,152.42961780625046 77.34349560789997,152.22500469713123 75.35829424957046,153.7874985566159 76.13031700003194,154.84775405986875 75.76793897437165,156.54042895138264 76.30362822976895,157.26585588345188 76.3666504950379,158.04708142210438 74.5705159327481,164.20375694322865 74.77533829509048,165.50574432723806 73.2785594931338,166.51012777595315 73.19978166144574,166.91931933023443 73.29431505949469,167.77489848573168 74.25540460593766,169.28145130621851 75.8152056732797,173.24306347843958 76.14607256633462,175.0471473257785 75.87822793866508,176.6094312610221 76.66600625548745,176.4048472774739 76.90233975055162,177.0 81.06180926336674,176.64662832242902 83.26758855051594,175.41912099445472 84.22867809701711,174.32179632928455 85.23703434265917,171.62495135814243 87.09619117027614,170.08122083095077 87.0016577722854,168.59327451510762 87.23799126734957,168.2212858996354 88.19908081390895,167.68190096020408 89.99521537625697,167.92369442067866 91.41321634652559,167.42150761777884 92.8469728831551,167.51450528594432 94.23346272076014,166.58452631373075 95.52541916037444,166.64032519560715 95.74599708913593,166.04513617687917 97.32155372272246,165.67314198108215 97.7942207128508,165.2267478707945 98.31415440200362,163.68295919516822 99.25948838226032,162.47395826678257 100.23633349506417,159.62812211214623 103.65529139013961,158.10288310877513 107.89353873458458,156.89384245917608 108.791606015875,155.36857890026295 108.99642837821739,153.50848285030224 110.19385141978273,153.00625342383864 111.26522993063554,151.55536007088085 112.46265297220089,151.592562619393 114.14849857025547,150.84851010065177 115.12534368311753,149.47200434695696 117.34687853656942,149.15577847610984 120.82885869697202,150.97871952678543 123.0819046831457,150.71830057477928 125.2561728375731,151.20193545351503 125.90215105738025,152.26220709896006 125.41372850094922,153.6758923290763 125.8233732256922,155.74059566554206 126.80021833855426,156.5776304079045 126.75295163958799,159.94432848405268" stroke="#4dd2ff" stroke-linecap="round" stroke-linejoin="round" stroke-width="0.5"><title>2021-09-19 11.2km</title></polyline><polyline fill="none" points="168.12001665087882,142.80762169510854 171.6735617700324,134.90625839928543 173.12929754317156,131.32091515427965 173.72709018006572,129.55755267278437 175.25478247430874,123.87525283960349 175.12193966610357,123.51600882277125 174.086872785585,123.0 170.7713376977481,127.63085639234487 167.11262535539572,131.66705056839055 166.44841131442809,132.79687485329487 166.10523405994172,133.16912441888053 165.19193975356757,133.67851480362515 164.31739126631874,134.710343559389 161.98157188890036,137.1004607298455 160.2712207333825,139.05297185542076 159.46309365020716,140.3720235406072 157.7970234307868,144.40735737498835 156.35789300868055,147.30636112887805 153.13091979295132,154.5989540443952 152.0017559232947,156.29629662454317 150.52387968215044,158.24165311685283 149.02386297294288,161.25095582129143 149.1234950790822,161.7470519286726 149.06814390901127,162.09953876845975 147.90023422031663,164.5277250187719 146.78214058466256,167.70641131991215 145.1160703652422,171.6093721985926 144.74521752569126,174.57884586768705 144.9666222060332,176.71938607406992 145.18802688634605,176.97389643446513 145.4703178537602,177.0 146.8153512867284,176.04068649006877 148.32090311293723,175.12704028424196 150.64565225632396,173.43675804290615 151.65304355177796,173.0647590183362 154.99625422467943,171.43315704300403 157.33760871909908,170.68260519938121 158.24536790844286,170.27142932953575 159.46309365020716,169.55349643578302 161.48341135814553,168.0980242335536 162.2029765692132,167.46491541245996 161.60518393234815,162.41285866050384 161.73802674052422,159.27305807820085 161.86533443172812,158.2481810522877 161.72695650652167,156.79243382035565 161.71035115548875,155.01023762949626 162.12548493110808,153.09741853348896 162.41884613252478,152.35316522045832 164.30078591528581,149.5980416510538" stroke="#ff9400" stroke-linecap="round" stroke-linejoin="round" stroke-width="0.5"><title>2021-09-11 21.0km</title></polyline><polyline fill="none" points="67.0,244.39987992822353 66.23365433351137,242.82648658149992 65.84657157339097,242.40198331099964 65.59242632685346,241.54373539039443 65.20143363984243,240.80082927500916 64.9668380276562,240.50550892424872 64.90818912461691,240.18711435498335 64.43899790022988,239.90563309666322 64.44681775396748,239.62414996001098 64.96292810079467,239.04733438529365 64.80262109912292,238.75200175781356 64.38034899717604,238.24900861653805 64.26305119108292,237.92136765615578 63.508435305178864,237.38144671778355 63.28556947362085,237.12302057492707 62.78509883425431,236.98919212861074 62.26116863368952,236.7307635822035 61.909275215424714,236.25543551370356 61.00608210847713,235.64165445133403 60.81449569184042,235.60012007177647 60.35312432117644,235.6139648695098 60.07160958657914,235.70164848292188 59.109767576577724,236.23697606316637 58.29650278763438,236.3015841046872 58.10491637101222,236.48617796363033 58.011078126131906,237.7183212765558 58.085366736660944,238.43820857529863 58.05408732171054,239.13962540731518 58.120556078487425,239.61953546671793 58.230034030857496,239.87333184851013 58.28868293391133,240.72699938113874 58.4059807399899,241.2115057012743 58.37861125191557,241.40530667121857 58.53500832671125,242.498881172869 58.48026935053349,242.64192046698736 13.543479834930622,237.71370657474472 13.0,238.55357398729393" stroke="#4dd2ff" stroke-linecap="round" stroke-linejoin="round" stroke-width="0.5"><title>2021-09-07 16.2km</title></polyline><polyline fill="none" points="79.82100321655162,261.0095906197603 79.73180909326766,260.70270412211175 79.80222550639883,260.44395498087397 79.72242023819126,259.6376104597366 80.04633573850151,258.56045500437904 80.75988872468588,255.22049974672336 81.18238720335648,253.99277529017854 82.79727027731133,252.09695540868051 82.82543684256962,250.3033726380745 82.93810310354456,249.32830630267563 83.85351647395873,248.80465043630466 84.74545770668192,248.11847102184765 86.36503520820406,246.53540127779706 86.61383986787405,245.81306871075503 87.55272537600831,244.80780234720078 87.75928018777631,244.30215049595427 88.30383378249826,243.7603740519953 88.75449882639805,243.51356251821926 89.56194036337547,242.7731194103253 89.97035555940238,241.99052339334594 90.18629922630498,241.14771174063208 90.36938190035289,240.83466320151638 91.2143788576941,240.29284303175518 91.8669042858237,240.35304561028533 92.10162566287909,240.2988632934139 93.27523254803964,240.64803702560675 93.85264713552897,240.4433493198776 96.1623054855445,240.7564007103174 96.81013648613589,240.70221890211906 97.72554985655006,240.45538980015408 98.63157437191694,240.39518736505124 99.25123880727915,240.70221890211906 100.35912370687583,240.96710709257604 101.36842562808306,241.38249664807154 102.11014517952572,241.5570794654741 102.43875510734506,241.4968785740857 102.95044770929962,241.5691196336229 103.49969573155977,241.90624297205795 104.62635834130924,242.13500373090574 104.85169086325914,242.37580321387577 106.08163087890716,242.5624218849298 106.89376684342278,242.82127869963006 107.81856906894245,242.79719906172613 108.20351212727837,242.90555732601933 109.79961749108043,242.98983578708794 110.52255933234119,243.2727694116511 110.81361383988406,243.2968487830367 112.57871859514853,243.1222730347872 112.98713379117544,243.18849150555252 113.47065982787171,243.40520578725773 114.04337998782285,243.4232652614046 115.28270885854727,243.70017624764296 116.0666782578628,243.60385958526604 116.41876032340224,243.74231471955136 116.83656437450554,243.70619603189334 117.58297835345729,243.8747496479009 118.30592019471806,244.32020959309375 118.75189081107965,244.47070177420755 119.2964444058016,244.45264274029614 119.83630357298534,244.2901110936291 121.48874206730397,244.50681981922753 122.04737894464051,244.4466230606522 122.80318177866866,244.77770418929504 123.19281926454278,244.7837238225584 123.93453881595633,244.976351641988 124.57767538903863,245.36160469028619 124.71850821524276,245.36762424175686 124.74198035296286,245.2231547736701 124.76075806311565,245.28335044439882 124.96261844734545,244.5670164934927 124.88281317916699,244.39846559305442 124.98609058506554,243.8145520037906 124.92506302703987,243.37510664681395 125.00017386768013,242.73097998789308 124.8499521863996,242.3818231836667 124.89689646178158,242.13500373090574 124.80300791098853,241.87012274089284 124.91097974442528,241.65942078722583 124.92036859950167,241.07546997250756 125.14100669391337,240.73834011517465 125.24897852735012,240.31692407328956 125.18795096932445,240.10019421356265 125.40389463616884,239.58846659527262 125.17386768668075,239.32959030191705 125.04242371555301,238.4144802032024 125.43675562899443,237.82446467216505 125.53533860729658,237.43312337043608 125.77475441189017,237.02973706650664 125.74189341912279,236.391536072304 125.63392158568604,236.25907807400654 125.54003303486388,235.84965986057796 125.83108754237765,235.31379777335314 126.02825349909835,234.38053885295813 126.87325045638136,232.9956656657996 126.75588976789732,232.49589611636475 126.86855602887226,232.31525508935374 126.76997305051191,231.5866619016815 127.0,231.0688112952339 126.87794488394866,230.83999159634914 126.91550030425424,230.3943918419318 126.7840563331265,230.1354601310668 126.7887507606938,229.55135263166449 126.67139007215155,228.97928088526533 126.80283404327929,228.4433330720276 126.67608449968975,227.97362049991716 126.45075197773986,227.726718241669 126.42258541251067,226.8414716463485 126.22072502825176,226.5584297690184 126.27705815873924,226.31754159534466 126.18316960794618,225.99234041732416 126.18786403545528,225.47442234547998 125.99069807876367,225.34795303015198 125.90150395547971,224.8962738631817 125.929670520738,224.74571308499435 126.10336433973862,224.66742127168982 126.30053029643022,224.3964100464109 126.47422411543084,223.89051784914773 126.37564113709959,223.19189501551955 126.43197426758707,222.3667827175741 126.26766930366284,222.05962007468406 126.64322350692237,221.10800421119347 126.61975136920228,220.5719581401354 126.94836129707983,219.13243051355676 126.84508389115217,218.80717490842653 126.7887507606938,217.01822502807408 126.83569503607578,216.43393905068297 127.0,216.00023710005917 126.87325045638136,215.78940818010597 126.94366686951253,215.80145557485594 125.9202816656616,215.68700518821788 125.37103364340146,215.74121856730198 125.05181257062941,215.8797635583178 124.4227592801908,215.94000037146543 124.11762149003334,216.10866299852933 123.58715117795509,216.13878125506744 123.05198643833864,216.33153759640118 122.69520994523191,216.2953958483413 122.36190558984526,216.51826947665904 121.96757367643295,216.59055256706415 121.08502129878616,216.38575016146933 120.00999739198596,216.63271764691672 119.20255585500854,216.60862332065517 118.90211249238928,216.48212788582532 118.17917065112852,216.38575016146933 117.01025819350616,216.47610428438202 116.61592628009384,216.40382100126226 116.35303833783837,216.10263934469913 115.80848474311642,216.17492313499315 115.18412588021602,216.07252106279702 114.96348778577521,216.17492313499315 114.40954533600598,216.2110649844908 114.20768495174707,216.32551397384304 113.7100756324362,216.31346672617292 113.44718769015162,216.4279154424985 112.8463009649713,216.3435848390145 111.76188820306561,216.40984461282642 111.28775102147483,216.31346672617292 110.7244197166001,216.45200987019416 110.25497696251841,216.1809467787025 109.93575588977546,216.19901770471915 109.0109536642558,215.90988197544357 108.28801182299503,216.22913589784366 107.51343127878499,216.40984461282642 106.12857515431824,216.524293072187 105.89854820483015,216.45803347501715 105.10988437800552,216.64476480500525 104.40572024689754,216.51826947665904 104.24141528297332,216.59055256706415 103.80483352168812,216.5001986850475 103.57950099973823,216.32551397384304 103.14761366599123,216.31346672617292 102.58897678865469,216.37370293070126 102.22281144047156,216.51224588029436 101.86134051985573,216.46405707899248 100.72998348256806,216.61464690348657 100.33565156915574,216.8074011079807 99.70190385117894,216.8375188742466 99.22776666955906,217.10255430620964 97.57532817526953,217.0844837605473 97.33591237070505,216.95196619332637 96.69747022513184,217.12062484424678 96.38763800749439,216.9158249676293 92.35043032251997,220.19852883186104 91.4162392419239,220.7406025694945 90.74493610361242,221.25857774619726 90.69329740066314,221.4272194784353 90.31304876989452,221.67415796263595 89.85768929845653,222.3366688301503 89.36946883422206,222.77632948978862 88.79674867427093,223.05939629916975 88.61366600016481,223.32439332300783 88.30852821003646,223.4147328436593 87.94705728939152,223.6917728551307 87.32739285402931,224.36629758246272 87.18186560028698,224.4024325366736 86.7171172737435,225.1371700101845 86.2758410849201,225.4322659484278 85.39328870730242,225.69122601945128 84.92384595322073,226.0043849493195 84.32765365557862,226.5885406957059 83.48265669826651,226.98600294924472 83.29957402416039,227.2148431839887 82.29496653049137,227.93748855078957 80.9288881161483,228.6300122829707 80.63313918109634,228.8588437570761 80.32800139093888,229.2442413783756 80.06041902114521,229.88254858076834 79.72242023819126,230.23180699654768 79.49708771627047,230.68945165590412 78.88211770844646,231.05676818358552 78.5535077805689,231.52042554446962 78.21550899764406,231.66494110125495 78.12631487438921,231.83956341694284 77.64748326523113,232.24299846582653 77.36581761279376,232.27310540706458 77.14048509084387,232.49589611636475 76.61001477876562,232.65847239109644 75.60540728503838,233.52553546339186 75.01390941493446,233.86272193121113 74.62896635662764,233.81455259786526 73.81683039205382,234.05539872437294 73.6431365730532,234.19990575205156 73.75580283405725,234.1878635183093 73.6525254281587,234.1818424001649 73.66660871077329,234.29022239747064 73.51169260192546,234.45279188062705 73.38963748587412,235.17531547279214 73.4365817612852,235.63290746188068 73.15961053635692,235.87976427390822 73.0,236.63236775005862 73.0046944275382,237.1381098784841 73.12205511605134,237.7702791660995 73.31922107277205,238.12549401685465 73.2253325219499,238.5710135757763 73.4365817612852,239.3115291069662 73.37555420323042,239.85938197600262 73.60558115274762,240.3590658635003 73.56802573241293,240.52763261092696 73.72763626879896,240.93098607186403 73.6431365730532,241.1176110186825 73.82621924715932,241.59922003924294 73.81213596451562,242.12898372654672 73.99052421105443,242.616601347283 74.60549421887845,243.2486900267686 74.85899330608663,243.7483344978682 74.82613231331925,244.52487883035792 75.06554811788374,244.982371247439 75.1312701034476,245.86724407448128 75.12657567590941,247.46839620669925 75.02329827001086,248.31108389340807 75.06085369031643,249.31626830843015 74.84960445101024,250.19503302659723 75.30496392244822,250.21308964747004 76.26732156827347,250.98951716876036 76.55368164827814,251.09183602863777 77.46909501869231,251.0737797769507 78.05589846125804,251.20017337948593 78.9994783969305,251.65759473908838 79.30461618708796,252.07889957923908 79.68486481788568,252.35575479703766 79.97122489783214,253.0117741721624 80.25758497783681,253.33075245227155 80.45475093452842,253.7400041372457 80.7082500217366,253.968701911097 80.63783360863454,254.78117100446252 80.53925063027418,255.04597242778254 80.61436147091445,256.09312571251576 80.31391810832429,257.06803859943466 80.0557245935779,258.4762070710094 79.72711466572946,259.6917684013388 79.79283665132243,259.9204345137441 79.77875336870784,260.55828618878877 79.2013387811894,262.808743864578 78.76475701990421,263.57290992214257 78.72720159956953,264.3129948117785" stroke="#ff0000" stroke-linecap="round" stroke-linejoin="round" stroke-width="0.5"><title>2021-05-03 34.6km</title></polyline><polyline fill="none" points="175.81623410555767,255.1870392795463 175.48702316670096,254.9821813827475 175.06845497299219,254.97615613574453 174.9085525169794,254.87372680796398 174.250130639266,254.77129723677353 173.36126110434998,255.132812283955 173.1355164605484,255.03038332840515 172.83922661558609,255.054484281005 172.35951924751862,255.25331662596 172.1902107646747,255.18101406118876 171.23079602856888,255.34971985703305 170.39365964118042,255.2171653587211 169.94687336700736,255.38587101309167 169.8340010451211,255.361770245745 169.36369970388478,255.64495341106158 169.14736108691432,255.50637464770261 168.9122104163107,255.56662633867745 168.56418742379174,255.27139224821076 168.19735237763962,255.36779543885496 167.95279568017577,255.19908971374025 167.5060094060318,255.2171653587211 167.31788886952563,255.1267870580159 166.56540672358824,255.26536704164755 166.26911687859683,255.21114014457999 165.8693607385503,255.30754346997492 165.62480404111557,255.2292157845186 164.96167914997204,255.33766946493415 164.57132903675665,255.2954930660744 163.86117401148658,255.50637464770261 163.48963595193345,255.79558199640815 163.00522557046497,255.93415983009982 162.5866573767562,255.83173277858077 161.67897578817792,256.0787623120268 160.86065145445173,256.61499228153116 160.0987632816541,256.4101411704032 159.9059397317469,256.50654181453865 159.43563839053968,256.50654181453865 158.226963943569,256.77164247440305 157.64849329384742,256.9644419304095 157.4133426232438,256.9102171705672 156.8207629332901,256.9885418017875 156.2940254311252,256.90419219304385 155.80020902282558,257.0668662907119 154.96777564883814,257.0487914212754 154.09301515415427,257.2777392074313 153.4110782093776,257.2777392074313 153.23706671313266,257.20544003789837 152.7949834523606,257.40426246236166 152.1694826685125,257.4825861960089 151.7462114614027,257.24761456819397 151.19125587880262,257.2355647066033 150.08134471345693,257.46451150087887 149.42292283574352,257.4524616999115 149.40881379551138,257.35003825572494 149.16425709804753,257.22953977454745 148.73628287756583,257.21146497331574 148.4635080996377,257.33196350501385 148.20954537537182,257.31991366700095 147.54171747082728,257.6332083607813 146.87859257968375,257.55488490077187 146.40829123844742,257.7296062700334 146.102595366654,257.7115316784875 145.8815537362825,257.8199791142288 145.6511060790799,257.7898548538833 144.68698832957307,258.01277388201925 143.99094234453514,257.8561281988623 143.40776868141256,257.97662492872405 142.94687336700736,257.8440785073544 142.4389479184756,257.97060010022324 142.26493642223068,258.139294979821 141.4560181153356,258.0368731673552 140.4401672182721,258.16339419443466 140.13447134644957,258.10314613261653 139.96516286360566,257.9826497563663 139.46194042850402,258.00072423427264 138.44608953144052,257.8501033535176 138.02281832433073,257.88625241289265 137.60425013065105,257.82600396378257 137.2609301515622,257.6211586069476 136.6354293677141,257.4102873700067 135.24333739766735,257.33196350501385 134.9658596063382,257.24158963781156 133.95471172270481,257.26568935427713 133.73837310573435,257.157240524175 133.48441038146848,257.157240524175 133.31039888519445,257.0066166964716 133.07054520118982,257.02469158359236 133.0611391743587,256.8921422354506 133.0,256.952391989671 134.15223828601302,256.4462914372016 134.38738895664574,256.2173392354198 135.00818672706373,256.03658663823444 136.6025082738197,255.0183328470448 137.02107646752847,254.86770154581245 137.49608082216582,254.54233613879114 138.2062358474068,254.21094292198177 138.4743076119048,253.9578772953755 139.48075248213718,253.54212339776132 139.70649712593877,253.28905384461905 141.9780526040995,252.18035067015808 143.33722348022275,251.08969635279936 143.7840097543958,250.87879316236285 143.95802125064074,250.87879316236285 144.81396969169145,250.2400514899782 145.30778609999106,250.06529976063757 145.57585786448908,250.0833775585961 146.02734715206316,249.95080686413712 146.67636300294544,249.4446240980069 147.49939035013085,248.99869625948122 147.62166869884823,248.81188728016423 147.88974046334624,248.70341717867268 148.0073157986335,248.50455461686215 148.68925274341018,248.2394031070544 148.86796725311433,248.05861705143616 149.10782093711896,248.05259083651254 149.32415955408942,247.8055152994566 149.72391569413594,247.67293759808672 150.54694304129225,246.78104064221407 151.27120710679446,246.443561304779 151.7415084480017,246.43150842241812 152.60215990245342,246.08197336758894 152.90785577424685,246.04581440698894 153.1477094583097,245.88309870889134 153.26998780699796,245.67819658546796 153.73558613483328,245.43110743491707 154.30465075769462,244.67777810952612 154.8925274342182,244.18961367458905 155.42396794984234,243.64117542886015 155.5086221912643,243.44831636484378 155.72966382163577,243.2976446204848 155.90837833131081,242.8456262262298 156.86309005401563,242.37552206598411 157.49799686466577,241.73062724576812 157.5732450792566,241.5437867561959 157.88364396445104,241.30872821528465 158.17993380944245,240.8144983824277 159.05469430412631,240.48902685990106 159.39331126981415,240.0430063357744 159.71781919526984,239.87424060907506 160.0987632816541,238.76519224419098 160.888869534916,238.3794295989901 160.98763281659922,238.22271253769213 161.26981362132938,238.05393968028875 161.78714509666315,237.36075851009446 162.1963072635699,236.98101105324167 162.5866573767562,236.33603547944585 162.67601463160827,235.67899435827348 162.9817105034017,235.09427961199617 163.07106775822467,234.55778178033142 163.2121581606043,234.44927578851275 163.45671485803905,233.97305181448974 163.45671485803905,233.7258955248326 163.29210938862525,233.43051175744404 163.35324856295483,233.1411542661699 163.58369622015744,232.70711438454964 164.1292457760137,232.2429280045144 164.35028740638518,231.90533476786732 164.66538930498064,231.7787366219527 165.32851419612416,231.1276545651017 165.72827033617068,230.91062502566638 165.85995471171918,230.51273469633088 166.76763630029745,229.71091422891914 166.92283574290923,229.68077031117718 167.4072461243777,228.98142549685872 167.59066364745377,228.86687655697824 167.95279568017577,228.276040344208 168.70998083960149,228.28206932608373 169.6646925622772,227.78166095774213 169.96568542066962,227.5646145563005 170.00330952793593,227.38374171947726 170.2525692388299,227.22095551679377 170.36544156068703,227.0400812365806 171.2402020554,226.37686904275324 171.4001045114128,226.03922982050426 172.08204145618947,225.78599866652075 172.78749346802942,225.17100252127784 173.67165998957353,224.65246953484166 174.0620101027598,224.56202709534773 174.60755965861608,224.26658046917873 175.9197004006419,224.013338890436 176.72391569413594,223.97716140048215 177.32590141089167,223.75406620732974 177.9184811008745,223.6756811353298 178.7132903675374,223.19933801403022 179.5269116878626,222.4154707739399 179.90315276084584,222.22854647866552 180.04424316319637,222.02956165973228 180.98014283226803,221.8546954536214 181.07420310052112,221.8667552147781 181.05068803342874,221.92705396987003 181.1353422748798,221.84866557177156 181.51158334786305,221.83660580556534 182.78139696916332,222.7410788986781 183.096498867817,222.80137642935733 183.70318759797374,222.72298962301647 184.7049294548051,222.98829823782216 185.30221215815982,223.33199105823587 185.53265981536242,223.71788849951918 186.00296115659876,224.10981204844575 186.22400278697023,224.68261697245543 186.4779655112361,224.97203129966147 186.69430412820657,225.44835481138944 186.92004877197905,225.56894220640243 186.96237589270459,225.71967597533876 186.84950357081834,226.22613757422732 186.88242466468364,226.6361259345067 187.0,226.9074396149408 186.55321372585604,228.71012488233828 186.27103292109678,230.2836446574147 185.9794460895355,231.27234031718035 186.0499912906962,232.17661525614676 185.8242466469237,233.06881458963835 185.4244905068772,233.83440333882754 185.37746037277975,234.64820323136883 185.20815188990673,234.907410339114" stroke="#ff8200" stroke-linecap="round" stroke-linejoin="round" stroke-width="0.5"><title>2021-05-02 22.6km</title></polyline></svg>