<?xml version="1.0" encoding="utf-8" ?>
<svg baseProfile="full" height="200mm" version="1.1" viewBox="0,0,200,200" width="200mm" xmlns="http://www.w3.org/2000/svg" xmlns:ev="http://www.w3.org/2001/xml-events" xmlns:xlink="http://www.w3.org/1999/xlink"><defs /><rect fill="#1a1a1a" height="200" width="200" x="0" y="0" /><text alignment-baseline="middle" fill="#e1ed5e" style="dominant-baseline: central; font-size:9.0px; font-family:Arial;" text-anchor="middle" x="100.0" y="100.0">2024</text><line stroke="#e1ed5e" stroke-width="0.3" x1="100.0" x2="100.0" y1="15.0" y2="10.0" /><path d="M 100.0 14.0 a86.0,86.0 0 0,1 42.35913384403234,11.155469271406648" fill="none" id="id37" stroke="none" /><text fill="#e1ed5e" style="font-size:6.75px; font-family:Arial;" text-anchor="middle"><textPath startOffset="22.145653131862478" xlink:href="#id37">January</textPath></text><line stroke="#e1ed5e" stroke-width="0.3" x1="143.13028292997686" x2="145.6673583964461" y1="26.7553504044142" y2="22.446841604673864" /><path d="M 143.63769802327073 25.89364864446614 a86.0,86.0 0 0,1 29.32050498858742,28.57503671076993" fill="none" id="id38" stroke="none" /><text fill="#e1ed5e" style="font-size:6.75px; font-family:Arial;" text-anchor="middle"><textPath startOffset="20.669276256404974" xlink:href="#id38">February</textPath></text><line stroke="#e1ed5e" stroke-width="0.3" x1="172.87174338648825" x2="177.1583165268699" y1="56.24261187166439" y2="53.66864786411523" /><path d="M 173.72905801456457 55.72781907015455 a86.0,86.0 0 0,1 12.242430191666344,42.057860355516425" fill="none" id="id39" stroke="none" /><text fill="#e1ed5e" style="font-size:6.75px; font-family:Arial;" text-anchor="middle"><textPath startOffset="22.145653131862474" xlink:href="#id39">March</textPath></text><path d="M 118.00360718960297 89.18935116829356 l 12.3031633789537 -7.387696110465539 a35.35081471379988,35.35081471379988 0 0,0 0.30793301807073475,0.5229375852720421 l -12.428170107154202 7.175407356899941" fill="#ff9d0e" stroke="none" /><path d="M 118.36410011445183 89.81374322990088 l 15.180987901413916 -8.420638083206521 a38.35999825435543,38.35999825435543 0 0,0 0.3144691470587942,0.5785878111899875 l -15.323302398088051 8.15879543854193" fill="#ffc612" stroke="none" /><path d="M 118.53625476483649 90.13048839642627 l 3.066760275536589 -1.6328771107637665 a24.474378541043777,24.474378541043777 0 0,0 0.19427054379260789,0.37253938325368063 l -3.0943388883041414 1.5799914844055878" fill="#ff0000" stroke="none" /><path d="M 118.70294669586156 90.45014215332178 l 10.37558377401938 -5.297847003975641 a32.64988933549276,32.64988933549276 0 0,0 0.2505958093677098,0.50135948621311 l -10.464999496598827 5.118955661598781" fill="#ff780b" stroke="none" /><path d="M 118.8641267826498 90.77261029715802 l 10.79082916740055 -5.278335281120924 a33.01261076785344,33.01261076785344 0 0,0 0.24464033258923581,0.5112042045665182 l -10.879848757949699 5.092318574489303" fill="#ff7d0b" stroke="none" /><path d="M 119.0197475246899 91.09779779509293 l 16.255969545029217 -7.608614559094721 a38.948469610465,38.948469610465 0 0,0 0.2782321672233654,0.6079874982946177 l -16.384186177107633 7.328438078585419" fill="#ffce13" stroke="none" /><path d="M 119.16976305983485 91.42560881287824 l 11.050504943310074 -4.942750304394197 a33.105554100234706,33.105554100234706 0 0,0 0.2275866823394312,0.5207628676378655 l -11.133725507666474 4.752325366980482" fill="#ff7e0b" stroke="none" /><path d="M 119.58574465831526 92.42381321644754 l 16.799232064543595 -6.498303851173236 a39.01227778212857,39.01227778212857 0 0,0 0.2362459375425896,0.6266704170375562 l -16.908308685900625 6.208965153941523" fill="#ffce13" stroke="none" /><path d="M 119.71291397450082 92.76114493625339 l 12.942809504792296 -4.752778926751539 a34.78786515033837,34.78786515033837 0 0,0 0.20104044757996656,0.5623459124130666 l -13.022490122416206 4.529898057957555" fill="#ff960d" stroke="none" /><path d="M 119.83427380445688 93.10060997987247 l 11.177875161747224 -3.8882452212523506 a32.83483603740235,32.83483603740235 0 0,0 0.1806143925048119,0.5339543583661122 l -11.242974975824401 3.695789188412077" fill="#ff7a0b" stroke="none" /><path d="M 120.05942366710727 93.78553927170692 l 12.671268709005703 -3.9255914365520024 a34.26541815483242,34.26541815483242 0 0,0 0.1692445365539874,0.5633600183858748 l -12.736789565563319 3.7074938145754044" fill="#ff8e0d" stroke="none" /><path d="M 120.26092885502905 94.47779374421319 l 60.34052358149334 -16.44607802452581 a83.54160430047781,83.54160430047781 0 0,0 0.3652380031063165,1.386868188339039 l -60.613951065404386 15.407829331813971" fill="#4cd6ff" stroke="none" /><path d="M 120.35273937422433 94.82641323984039 l 17.449629970713236 -4.435627702308105 a39.00456551067803,39.00456551067803 0 0,0 0.15938467826803052,0.6503438774883761 l -17.52320217549756 4.135428000211634" fill="#ffce13" stroke="none" /><path d="M 120.43855184770803 95.1765574152323 l 12.265205044397527 -2.894554994055948 a33.602130906903355,33.602130906903355 0 0,0 0.12767071785182516,0.5625407396835004 l -12.313086623807019 2.6835799204334214" fill="#ff850c" stroke="none" /><path d="M 120.51834098615036 95.52812308129327 l 11.417507188914938 -2.4883925509250586 a32.68552813938778,32.68552813938778 0 0,0 0.11477646037681093,0.5492469124494253 l -11.458541360116115 2.2920291871902285" fill="#ff780b" stroke="none" /><path d="M 120.592083275326 95.88100663000786 l 11.769913868179291 -2.3543124092985437 a33.00306874865492,33.00306874865492 0 0,0 0.10635428706135021,0.5564905709489469 l -11.808594447522799 2.1519192733162824" fill="#ff7d0b" stroke="none" /><path d="M 120.65975698304385 96.23510406497455 l 10.646476781230298 -1.9401427223415146 a31.821812308311884,31.821812308311884 0 0,0 0.09332152946358341,0.5382537827145533 l -10.678213128186115 1.7570959067063687" fill="#ff6c0a" stroke="none" /><line stroke="#e1ed5e" stroke-width="0.3" x1="184.99686870605535" x2="189.99668451229388" y1="99.2704041080226" y2="99.22748670261217" /><path d="M 185.99683186730306 99.26182062694052 a86.0,86.0 0 0,1 -10.086455211305974,41.156179273409016" fill="none" id="id40" stroke="none" /><text fill="#e1ed5e" style="font-size:6.75px; font-family:Arial;" text-anchor="middle"><textPath startOffset="21.40746469413373" xlink:href="#id40">April</textPath></text><path d="M 120.51834098615036 104.47187691870673 l 61.555022958451104 13.415630756120176 a84.0,84.0 0 0,0 -0.3191565537693437,1.4062626642439322 l -61.315655543124095 -14.470327754303124" fill="#4dd2ff" stroke="none" /><path d="M 118.8641267826498 109.22738970284198 l 27.830946034896318 13.61351033215859 a51.98207902580296,51.98207902580296 0 0,0 -0.39897504803873857,0.7982173588666744 l -27.593151073645846 -14.08925954718901" fill="#91ff24" stroke="none" /><line stroke="#e1ed5e" stroke-width="0.3" x1="174.33088141563837" x2="178.70328620479359" y1="141.23008692659167" y2="143.65538615756765" /><path d="M 175.20536237346943 141.71514677278685 a86.0,86.0 0 0,1 -30.301960400862466,31.631185727798858" fill="none" id="id41" stroke="none" /><text fill="#e1ed5e" style="font-size:6.75px; font-family:Arial;" text-anchor="middle"><textPath startOffset="22.145653131862474" xlink:href="#id41">May</textPath></text><path d="M 114.39649973595853 115.28858382429668 l 10.997263585890387 11.678712829815247 a37.041575350907465,37.041575350907465 0 0,0 -0.4666713362609763,0.4319440218446435 l -10.795162478315444 -11.86577459779227" fill="#ffb410" stroke="none" /><line stroke="#e1ed5e" stroke-width="0.3" x1="143.1302829299769" x2="145.66735839644613" y1="173.24464959558577" y2="177.55315839532614" /><path d="M 143.63769802327073 174.10635135553383 a86.0,86.0 0 0,1 -40.68552437913181,11.842963189579606" fill="none" id="id42" stroke="none" /><text fill="#e1ed5e" style="font-size:6.75px; font-family:Arial;" text-anchor="middle"><textPath startOffset="21.407464694133747" xlink:href="#id42">June</textPath></text><path d="M 110.65571695917076 118.09573695890943 l 23.975959009022226 40.7164200426195 a68.25117428688245,68.25117428688245 0 0,0 -1.0146919376065424,0.5858326633216825 l -23.273474603555282 -41.121999603217354" fill="#39ff86" stroke="none" /><path d="M 109.3889696526874 118.78422872680471 l 12.067709619139992 24.143503076474836 a47.99144968792217,47.99144968792217 0 0,0 -0.7400732906899358,0.3620069320219774 l -11.651476079187987 -24.347103758594038" fill="#bfff1e" stroke="none" /><path d="M 109.06512990194946 118.94263497670748 l 6.687372310084452 13.9740361134846 a36.49176018774678,36.49176018774678 0 0,0 -0.5673795977139888,0.265562300405516 l -6.446503998498957 -14.08677464546065" fill="#ffad10" stroke="none" /><line stroke="#e1ed5e" stroke-width="0.3" x1="101.45913802915013" x2="101.54496967792366" y1="184.9874750549273" y2="189.98673829345242" /><path d="M 101.47630435890484 185.9873277026323 a86.0,86.0 0 0,1 -42.54439059252881,-10.42667462771756" fill="none" id="id43" stroke="none" /><text fill="#e1ed5e" style="font-size:6.75px; font-family:Arial;" text-anchor="middle"><textPath startOffset="22.145653131862474" xlink:href="#id43">July</textPath></text><line stroke="#e1ed5e" stroke-width="0.3" x1="58.13341422392154" x2="55.67067388415222" y1="173.97424548756322" y2="178.32567169271397" /><path d="M 57.64086615596768 174.84453072859336 a86.0,86.0 0 0,1 -31.369924170532247,-30.572349798747897" fill="none" id="id44" stroke="none" /><text fill="#e1ed5e" style="font-size:6.75px; font-family:Arial;" text-anchor="middle"><textPath startOffset="22.145653131862474" xlink:href="#id44">August</textPath></text><line stroke="#e1ed5e" stroke-width="0.3" x1="26.387840678322732" x2="22.057713659400548" y1="142.50000000000003" y2="145.00000000000006" /><path d="M 25.521815274538298 143.00000000000003 a86.0,86.0 0 0,1 -11.493303480769221,-40.785679425670985" fill="none" id="id45" stroke="none" /><text fill="#e1ed5e" style="font-size:6.75px; font-family:Arial;" text-anchor="middle"><textPath startOffset="21.40746469413373" xlink:href="#id45">September</textPath></text><line stroke="#e1ed5e" stroke-width="0.3" x1="15.003131293944662" x2="10.003315487706104" y1="100.72959589197737" y2="100.7725132973878" /><path d="M 14.003168132696942 100.73817937305945 a86.0,86.0 0 0,1 10.791469493833604,-42.45332614584628" fill="none" id="id46" stroke="none" /><text fill="#e1ed5e" style="font-size:6.75px; font-family:Arial;" text-anchor="middle"><textPath startOffset="22.145653131862435" xlink:href="#id46">October</textPath></text><line stroke="#e1ed5e" stroke-width="0.3" x1="26.387840678322718" x2="22.05771365940052" y1="57.49999999999999" y2="54.99999999999999" /><path d="M 25.521815274538284 56.99999999999999 a86.0,86.0 0 0,1 29.574782752854787,-30.34633250058573" fill="none" id="id47" stroke="none" /><text fill="#e1ed5e" style="font-size:6.75px; font-family:Arial;" text-anchor="middle"><textPath startOffset="21.40746469413373" xlink:href="#id47">November</textPath></text><line stroke="#e1ed5e" stroke-width="0.3" x1="56.869717070023135" x2="54.33264160355391" y1="26.7553504044142" y2="22.446841604673864" /><path d="M 56.362301976729285 25.89364864446614 a86.0,86.0 0 0,1 42.16139366436587,-11.88097634709845" fill="none" id="id48" stroke="none" /><text fill="#e1ed5e" style="font-size:6.75px; font-family:Arial;" text-anchor="middle"><textPath startOffset="22.145653131862474" xlink:href="#id48">December</textPath></text></svg>