<?xml version="1.0" encoding="utf-8" ?>
<svg baseProfile="full" height="300mm" version="1.1" viewBox="0,0,200,300" width="200mm" xmlns="http://www.w3.org/2000/svg" xmlns:ev="http://www.w3.org/2001/xml-events" xmlns:xlink="http://www.w3.org/1999/xlink"><defs /><rect fill="#222222" height="300" width="200" x="0" y="0" /><text fill="#FFFFFF" style="font-size:12px; font-family:Arial; font-weight:bold;" x="10" y="20">Over 10km Runs</text><text fill="#FFFFFF" style="font-size:4px; font-family:Arial" x="10" y="280">ATHLETE</text><text fill="#FFFFFF" style="font-size:9px; font-family:Arial" x="10" y="290">DingXiaoshan</text><text fill="#FFFFFF" style="font-size:4px; font-family:Arial" x="120" y="280">STATISTICS</text><text fill="#FFFFFF" style="font-size:3px; font-family:Arial" x="120" y="285">Number: 12</text><text fill="#FFFFFF" style="font-size:3px; font-family:Arial" x="120" y="290">Weekly: 1.1</text><text fill="#FFFFFF" style="font-size:3px; font-family:Arial" x="141" y="285">Total: 277.9 km</text><text fill="#FFFFFF" style="font-size:3px; font-family:Arial" x="141" y="290">Avg: 23.2 km</text><text fill="#FFFFFF" style="font-size:3px; font-family:Arial" x="167" y="285">Min: 11.2 km</text><text fill="#FFFFFF" style="font-size:3px; font-family:Arial" x="167" y="290">Max: 36.1 km</text><polyline fill="none" points="40.36933115834836,82.64089911575138 40.461663947906345,82.46964599739294 39.48557445802726,82.03372803873208 39.129433698253706,81.3487114051677 39.2085760893533,78.57747408981959 38.77329293836374,77.19183518874343 38.417152178590186,76.6313482040714 37.74444185447646,76.67805553712242 37.33553950057831,76.22655067512824 37.01896993635455,76.28882729301404 37.04535073332954,76.7403319573641 36.5704963869066,77.25411138408526 35.80545327323489,77.36309466027888 35.01402936252998,77.95471670290863 31.188813794055022,79.3714858044259 29.882964341377374,80.19663053784461 29.051969235180877,81.48882871215756 27.53507340629585,80.89722136608907 28.168212534859776,80.35231768674566 29.764250754844397,79.66729295729601 30.766721041698474,78.18825104244752 32.42871125420788,76.77147015725495 31.74281053157756,76.78703925463196 32.09895129140932,76.39781130870688 31.307527380704414,76.08642818519729 29.73786995775299,75.99301311520685 29.276206009904854,76.47565698306425 28.8541132574901,77.64333698716655 26.875553480698727,78.91998949060508 26.770030292624142,79.43376104564231 27.007457465864718,79.69843051652424 28.234164527384564,80.3678863922396 27.587835000362247,80.74153481351095 29.764250754844397,79.68286173776141 30.608436259557493,78.32837146220845 32.389140058658086,76.83374653657665 31.703239336027764,76.84931562720158 32.059380095859524,76.31996559172694 31.228384989663027,76.11756652820623 29.882964341377374,76.00858229782898 29.38172919797944,76.25768898746173 28.352878114033956,74.38937818237173 28.12864133930998,72.59889063512674 27.469121413712855,71.77370183101448 27.442740616737865,71.32218140253099 26.875553480698727,70.34128725707706 26.09731996851042,69.95204167388147 25.596084825054277,70.18558915160247 24.804660914407577,69.95204167388147 24.712328124791384,69.28253677913744 23.934094612544868,69.31367661154945 23.406478672171943,68.45732873593806 22.509531573334243,68.11478814206203 21.177301323623396,68.45732873593806 21.67853646702133,66.72904732098687 21.533442083455157,65.53013706575439 22.40400838520145,64.68933683200157 24.145140988752246,65.18758942234854 25.635656020545866,65.91939475001709 26.519412720925175,65.82597300293855 28.22097412898438,64.87618175792159 28.524353294691537,64.42463943340408 28.8409228589735,62.64959709113464 28.722209272382315,62.07348209535121 27.508692609262653,58.44546106632333 26.84917268366553,57.464478110996424 26.374318337242585,55.969633928718395 26.42707993130898,55.61149184338865 27.680167789920233,54.661632379255025 27.508692609262653,53.960912314389134 27.640596594370436,53.13561536533234 28.98601724259788,48.49517729906074 28.959636445564684,47.872288178055896 28.511162896174937,47.1871069931658 28.77497086644871,45.86345217193593 28.22097412898438,44.960245338545064 28.43202050513355,44.664365990276565 29.289396408363245,44.134896146075334 29.500442784570623,43.71443339459074 30.001677927968558,43.776724251089036 30.502913071482908,45.53642967072665 32.19128408096731,46.51749491781811 32.46828244975768,46.51749491781811 33.167373570846394,45.707727265165886 34.15665345924208,45.11597106397676 34.71065019676462,45.5520021878765 34.85574458033079,46.15932902490022 35.51526450592792,46.050321834904025 37.4674434857443,47.1871069931658 38.074201817275025,47.26496865776426 38.20610580238281,46.95352174367872 38.21929620089941,47.32725795872102 39.762572826759424,46.47077767862356 41.08161267795367,46.22161881021748 41.13437427196186,44.991390497249085 41.83346539310878,43.51198792262585 44.2604987192899,41.72111157789186 45.51358657795936,40.38183278559882 47.33386157255154,39.94578580507368 49.286040552309714,38.544197166440426 51.48883710382506,37.672090595035115 52.755115360894706,36.6286703460064 53.322302496933844,36.83112562002498 54.773246333235875,36.83112562002498 56.435236545687076,36.23933247021341 57.67513400578173,36.37949422834208 58.268701938854065,35.6786840557761 58.215940344845876,34.6975440098613 59.09969704510877,34.277053345766035 59.50859939894872,33.6852495631756 60.48468888888601,33.0 60.27364251262043,33.34262519450567 59.75921697070589,33.52951131618465 60.445117693336215,33.14016495211399 60.72211606201017,33.218034310266376 61.63225355936447,34.15246328046487 61.764157544472255,34.744265117973555 62.39729667309439,35.35163812618703 62.56877185369376,35.943434971472016 63.0436262000585,36.02130279401899 63.188720583799295,36.33277365761751 63.36019576439867,39.821200707840035 63.14914938819129,40.75558627585997 62.68748544034315,41.0514737587946 61.539920769806486,41.207203765632585 60.95954323525075,42.15715311341046 60.524260084319394,42.484183387321536 59.033745052525774,42.966940988379065 58.37422512692865,42.81121290907322 57.39813563710777,44.18161415285431 56.408855748712085,44.648793375949026 56.237380568054505,46.15932902490022 55.56467024394078,47.34283027968195 51.673502682941034,48.573038247355726 48.96947098802775,49.77209146672976 48.296760663972236,52.07673679300933 47.439384760626126,53.12004367877671 47.017292008327786,54.30348699975002 46.59519925591303,54.78620447371213 45.592728969000746,54.91077645904443 45.1574458181276,55.72049170399259 44.08902353863232,55.518063324983814 43.00741086067865,56.296632436293294 41.85984619014198,56.2187757169595 40.59356793301413,56.57691627285385 39.182195292261895,56.42120309850725 38.641388953255955,56.59248758094327 37.96867862920044,57.15305353546864 37.99505942623364,58.46103216978372 36.39902120624902,59.73785685216717 35.59440689702751,61.96448710390541 34.8689349789056,62.836444696746184 33.483943135186564,63.770679042558186 29.35534840094624,64.15994154220971 26.651316706032958,65.8415432983602 25.939035186369438,65.96610560052795 25.094849681656342,65.91939475001709 23.986856206611264,65.2498708734347 22.654625956958625,64.79832973529119 21.88958284322871,65.0318856753438 21.586203677463345,65.42114472325193 21.797250053612515,66.4020727990428 21.46749009087216,67.95908759944723 19.911023066495545,70.96407797468419 19.343835930514615,71.3377510963619 18.657935207884293,71.3377510963619 18.143509665853344,71.633574954918 17.81374970311299,72.6144601892156 16.837660213233903,73.61090810484893 16.639804235543124,74.57621036705677 16.639804235543124,76.44451871847559 17.840130500146188,76.9115919724427 19.014075967657845,78.23495786437707 23.195432295906357,81.61337731368258 26.308366344717797,87.0 29.59277557412861,86.56409592129057 37.15087392140413,84.75819336835411 37.59934747079387,84.57137455465272 37.75763225299306,84.0576215521287 39.696620834234636,83.43488815285673 39.89447681186721,83.0923836214497" stroke="#4dd2ff" stroke-linecap="round" stroke-linejoin="round" stroke-width="0.5"><title>2023-06-17 17.5km</title></polyline><polyline fill="none" points="74.3068555527716,60.67343432511916 75.57272957250825,60.038068001194915 75.45433847710956,60.47389862362252 75.63192512016394,61.014743631698366 75.49987351379241,61.14601584987395 75.63647862384096,61.40330844333221 75.00354161398718,61.86013095515955 74.62104730584542,61.47156953156082 74.47988869214896,61.18277201200908 74.3387300784234,61.22477902287574 74.22944599040784,61.14601584987395 74.10650139136123,61.26153512976089 74.10650139136123,61.47156953156082 73.93802175566088,61.68685391955296 73.0,62.568985587957286 73.08196306604077,62.71600608877634 73.29142423477606,62.84727404446676 74.43435365543701,63.11505965433753 76.98431570958928,64.50647265611406 77.83126739188447,65.29404854610766 77.8722489248612,65.48306499841783 77.77207184417057,65.72458502867812 78.47331140906317,66.16561873355022 79.37945863901405,66.21287212463358 79.8530230204924,66.15511797418367 80.27194535796298,66.27062621145888 80.84568682016106,65.64057818790025 81.6197824437113,65.25204479744934 82.22084492791328,65.54607033101638 82.80369339740719,66.1236156834675 83.38198836328229,65.75083713882486 83.9648368327762,66.35988240223742 84.99392866177368,66.9636702887874 85.2124968378339,67.02667384136294 85.49936756893294,66.84291326796301 85.95927143940935,66.9794211840308 86.56488742728834,66.95841998931064 87.99013407540042,66.78515981183955 87.99924108272535,66.65390172027037 88.51834050088655,66.56989636915387 88.7778902099817,66.72215596891328 89.4153807235125,66.78515981183955 89.76600050594425,66.89541635468777 90.08019225904718,67.10017789032281 90.43081204147893,67.46244633973765 90.66759423224721,68.36548142895845 90.89071591195534,68.72774113272317 90.93625094863819,70.05075530325485 90.89071591195534,69.31575155343307 90.9089299266343,69.03749744441302 90.98633948899806,68.97974640649045 91.28231722742203,69.11099867337543 91.52820642551524,69.46275312792204 92.03819883632241,69.52050363365925 92.54819124715868,69.22650039636574 92.6119402985205,69.0322473526794 92.9170250442694,69.06899798372251 93.1310397166817,69.00599688615694 93.33594738173997,68.76449197729016 94.16468504932709,68.869494248298 94.32405767770251,68.95349591367267 94.50619782443391,69.24750068227877 94.79306855553295,69.36825216307989 94.96154819126241,69.60450425573072 95.53984315710841,70.0140053605246 95.95421199090197,70.4392531218109 96.56438148242887,69.85125530451842 96.55527447507484,69.6832547166523 96.787503162137,69.65175454647397 97.46142170505482,69.18974987574984 98.35846192765166,68.81699313909121 99.42398178600706,68.47048449933936 100.54869719201815,68.29197915453187 100.94485201113275,68.1449742964287 101.03592208449845,68.20797642894831 101.4457374146441,68.17122519418263 101.67341259802924,68.22897712296981 102.00126486213412,68.16597501567594 102.329117126239,67.82996249779535 102.57955982798012,67.77221012935115 102.907412092085,67.53069953538579 103.23071085251286,67.11067846031438 103.77257778903004,66.9794211840308 104.05489501645206,66.6118990615505 104.24614217050839,67.19993322042501 103.64507968630642,67.80371142911463 103.20338983050897,68.10297283267573 103.14419428285328,68.17647537216544 103.15785479382612,68.38648205986465 103.63141917530447,68.58073749683172 104.29167720719124,69.21600025024236 104.96104224640294,69.45225302911422 105.12041487477836,69.7305049364004 105.66683531494346,70.05600529296498 106.93270933470922,71.52073188541544 107.47912977487431,71.72022553058196 107.72957247658633,71.6047293022275 108.70402226157603,71.43148448256761 109.23222868706216,71.6047293022275 110.76220591957099,71.10074278244065 111.66835314952186,71.28448842902799 112.01897293195361,71.44198418490487 113.16190235264366,71.34748678815959 113.68555527448189,71.5574807718258 114.38679483937449,71.63097846737946 115.02428535287618,71.48923281940006 116.249177839607,70.92224639474807 117.06425499619218,70.83824788435959 117.45585631165886,70.85399761530061 117.99316974449903,71.09024301175305 118.60333923602593,71.63622829884116 118.89476347077289,71.24773935122357 119.54591449533473,71.07449335178535 120.329117126239,71.14799172450148 120.70250442702672,71.25298922107686 121.38097647359245,70.78574874699916 121.37642296988633,70.43400317047417 121.57222362761968,69.98250538913271 121.74525676699704,69.78825514716664 121.95927143940935,69.69375476915957 121.85909435871872,69.67275466203137 121.86820136604365,69.60450425573072 122.08676954210387,69.46275312792204 122.13230457881582,69.30000136029412 122.3098912218702,69.23175046864344 122.33721224387409,69.0112469805099 122.50113837589743,68.92724540769996 122.41917530991486,68.84849381093227 122.4328358208877,68.64898923620422 122.28257019983721,68.57023722135636 122.35997976220096,68.20797642894831 122.71059954463271,67.84046292158746 123.04755881609162,67.11067846031438 123.44826713888324,66.89541635468777 123.44371363520622,66.63815072720172 123.61219327093568,66.4123859728752 123.54844421957387,66.08161259973713 123.79888692131499,65.95560314653267 124.09486465973896,65.99760633126425 124.41360991651891,65.92410073588326 124.76422969895066,66.16036835413979 125.10118897040957,66.2758765798244 125.47002276752028,66.6118990615505 125.59296736656688,66.48589088338485 125.76600050594425,66.52789364309501 125.76144700226723,66.33363059720068 125.90715911966981,66.4438880900052 126.06197824436822,66.2023713747476 126.04831773336628,66.03960948231543 126.40349101947504,66.02910869772313 126.54920313684852,66.19712099902245 126.64482671389123,66.2023713747476 127.0,65.834843802877 126.94991145964013,65.535569447522 126.38527700479608,65.21004101512153 126.26688590942649,64.94226611134218 126.26233240577858,64.4854704703539 126.56286364785046,64.31220211658001 126.10295977740316,63.64012550508414 125.9026056159928,63.0940569108825 125.93903364532162,62.82627119365134 126.17126233241288,62.70550463811378 126.16215532505885,62.616242222491564 125.91171262331773,62.532230398293905 125.54743232988403,62.23818795277111 125.65216291422257,61.98089945926404 126.01188970400835,61.51357631086648 125.91171262331773,61.30354207747587 126.02099671136239,61.109259661927354 125.91171262331773,61.00949273613878 125.60207437389181,61.035747208712564 125.43814824183937,60.84146380007587 125.4472552491643,60.389883364056004 125.12850999241346,59.82802785226886 125.20591955477721,59.54447231534505 125.19681254745228,59.43420030316338 125.09208196308464,59.35018337616566 125.21047305842512,59.11913613215074 125.18770554009825,58.982607736237696 124.96913736400893,58.762061114230164 124.91449532000115,58.59402496945404 124.60030356692732,58.47324865745031 124.76422969895066,58.36822555109757 123.803440424992,58.17393224924672 123.50746268656803,57.96913582659545 123.36175056919456,58.026899001219135 123.29344801418483,57.74858493749343 123.06121932709357,57.71182636569574 123.03389830508968,57.5962992578352 122.80166961799841,57.512279382979614 123.22514545917511,57.1867010949245 123.20693144446705,56.824361588533066 122.7971161143505,56.67207322174727 123.02023779408773,56.58280052503687 122.6741715153039,56.7088325232362 122.48292436124757,56.69307854004728 122.6149759676191,56.304478787991684 122.23248165950645,56.052412542332604 122.17328611182165,55.92112755893322 122.25524917783332,55.621796566243574 122.23248165950645,55.39073287559586 121.81355932203587,55.57978506196014 121.5494561092637,55.332966793648666 121.28990640019765,55.327715328501654 121.13508727549925,55.51151629560263 120.92107260308694,55.5325220793311 120.8482165444002,55.46950470285083 120.85277004807722,55.56403073915135 120.6342018719879,55.40648725052597 120.58866683533415,55.24894328798473 120.34277763724094,55.16491964751913 119.73716164936195,54.76055399238612 119.40020237793215,54.45596481392931 119.23627624590881,54.16712861171982 118.96761952948873,54.104109592255554 118.95395901848678,53.951813315488835 118.4394131039735,53.972819724829606 118.27093346824404,54.18813493467678 118.06147229953785,54.256405426131096 117.48317733366275,54.04634209113647 117.2236276245967,53.783761737478926 115.28383506197133,54.82357222193241 114.17278016696218,55.83185358223636 113.9041234505712,55.65330517233815 113.49886162410257,55.59553938001045 112.55628636479378,55.6165451300476 112.21022008600994,55.443247440260166 111.62281811280991,55.385481416229595 110.86238300026162,55.83710499684821 110.50265621047583,55.942133178377844 110.19757146469783,56.54604113509777 109.90614722995088,56.488276327345375 109.41892233747058,56.5197844122049 109.16392613205244,56.18894857597479 108.77687832029187,55.99464719017851 108.74500379458186,55.80559650131181 108.43991904883296,55.464253251382615 108.28054642045754,55.395984334434615 107.72957247658633,54.58200193021548 107.45180875287042,54.308921128231304 107.3561851758277,53.736497134003 107.15127751076943,53.41089537309381 106.4728054642037,52.84371327735789 105.63496078929165,52.42882618732983 104.90184669871815,51.75134526504917 104.74247407031362,51.80386347941385 104.25069567418541,51.767100734890846 103.53579559829086,51.95091419939854 103.40374399191933,51.90364794157358 103.31722742220154,51.81436711596325 103.32178092587856,51.63055317214457 102.72982544903061,51.37846442844602 102.65241588666686,51.2366639767788 102.71616493802867,51.157885782133235 102.7252719453536,50.72197762939322 102.49304325829144,50.627442852350214 102.20161902351538,50.25455401180079 101.8418922337587,49.724101930260076 101.87832026308752,49.56128882730263 101.61421705034445,49.577044956178725 101.19984821658,49.07284648059067 101.01315456617158,49.05183810539529 100.89476347080199,49.17263614761396 100.67164179103565,49.21465279262702 100.40753857829259,49.445743737418525 99.44674930433393,49.60330516041358 99.3465722236142,49.529776555358694 98.93220338982064,49.54028064812155 98.74550973944133,49.47200400751535 98.44953200101736,49.10961111688448 98.26283835063805,49.020325526813394 97.99418163418886,49.036081818459934 97.46597520870273,49.31444218936667 97.49329623070662,48.86801446288882 96.86946622817777,48.76297209165932 96.76473564381013,48.60540813965781 96.83303819884895,48.50561739143086 96.67366557044443,48.61066027902052 96.50518593474408,48.57914743487345 96.43232987605734,48.673685910405766 95.98608651658287,48.458348023254075 95.62180622312007,48.495113091077656 95.43055906906375,48.279774469418044 93.94156336961896,48.936291891172004 93.29041234505712,49.07809857307802 93.14925373136066,49.3039380513037 92.95345307362732,49.319694257614174 93.21755628637038,49.48250811186881 93.21300278272247,49.89741854800741 93.15380723500857,49.94468661691644 92.25221350873471,49.587549039450096 92.20667847205186,49.89216653772746 91.86971920059295,50.249302037340385 91.90614722995088,50.322829631921195 91.75588160890038,50.52765595807796 91.84239817861817,50.632694788877416 91.7012395648926,51.331197653882555 91.53731343284016,51.56227925722851 91.5464204401651,52.019187607580534 91.67391854285961,52.33429449181858 91.63293700988288,52.47609197108977 91.38704781178967,52.69141333502557 91.45990387050551,53.17457024642499 91.35517328610877,53.22183535707518 91.30053124210099,53.55268993717618 90.80419934226666,53.641967799059785 90.61295218821033,54.256405426131096 90.6630407285702,54.55574422267091 91.13205160637153,54.82882373764369 91.44624335947447,54.85508130826929 91.53275992919225,54.95485995659692 91.52365292183822,55.11765629053116 91.75132810522337,55.1439137163361 91.89248671897803,55.08089587227005 91.92891474830685,55.25944623356918 91.73311409057351,55.385481416229595 91.78775613458129,55.64805373932904 91.61472299520392,55.70056804597334 91.63749051353079,55.82660216709337 91.49633189983433,56.23095959165221 91.23222868709126,56.356992436474684 90.92259043763625,56.87162340541545 90.95901846699417,57.14469084584198 91.14571211737348,57.570043061408796 90.95446496334625,57.853609286208666 90.51732861119672,57.816850788116426 90.44447255250998,58.184434608312586 90.13028079937794,58.200188142956904 90.03010371871642,58.425988285660424 90.04376422971836,58.756809992861236 89.843410068308,58.71480100299232 89.69314444725751,58.58877383124491 89.56564634456299,58.07941092290275 89.30154313179082,57.86411170951396 89.16038451809436,57.89036775851855 88.87351378699532,57.71707759182391 88.89628130532219,57.533284364319115 88.82342524666456,57.46501814413568 88.409056412871,57.28647530149465 88.24513028078945,57.09742927531988 87.96736655704444,57.30748037338344 87.73513786998228,57.32848543685395 87.45282064256025,56.855869471197366 87.3162155325117,56.80860764008321 86.92916772072203,56.88212602560452 86.62408297497313,57.0711728288552 86.28712370354333,57.03441378165007 85.9729319504404,57.202454929643864 85.68606121934135,57.18144981563455 85.1533012901782,57.60680173270521 85.05767771313549,58.20543932011424 84.9392866177659,58.38923018923015 84.6023273463361,58.59402496945404 84.52491778397234,58.71480100299232 84.24260055655031,58.5992761071393 83.81912471540272,58.63603405619506 83.27725777891465,59.03511869983777 82.73994434607448,59.30817486214437 82.45307361500454,59.28191952377529 82.26637996459613,59.18214911794348 82.11156083986862,59.2084045063275 81.96129521884723,59.02986760585918 81.78370857579284,59.01936541629766 81.41487477868213,58.81457229893931 81.21907412094879,58.835576758065145 81.04604098154232,58.688545367222105 80.67720718443161,58.888087869079754 80.38122944600764,58.82507452954815 80.20364280295325,59.18214911794348 79.96686061221408,59.21890665799947 79.85757652416942,59.386940798314754 79.70731090311892,59.30817486214437 79.36124462433509,59.42894924918073 79.32026309132925,60.15884070550601 79.1836579813098,60.10107988167147 79.119908929948,59.83852987970022 79.02428535290528,60.174593646417634 78.77839615484118,60.11158185436943 78.66000505947159,60.15884070550601 78.64179104479263,59.980307044181245 78.09992410827545,60.07482494067517 77.99974702758482,60.022315019235975 77.88590943589224,59.58648063988949 77.49430812042556,59.491961862295284 77.39413103970583,59.93829903545702 77.27573994436534,60.01181302863188 77.1118138122838,60.04856998653122 75.90968884393806,59.901542000185145 74.35239058945444,60.626175938199594" stroke="#ff0000" stroke-linecap="round" stroke-linejoin="round" stroke-width="0.5"><title>2023-04-15 36.1km</title></polyline><polyline fill="none" points="136.68176152027445,72.93475087462139 136.50512910666293,71.98392445857098 136.5272081583389,70.87677869263644 136.2953781154938,70.27109612775894 136.32849669305142,70.1147899503303 138.59711925551528,68.66242544700799 140.08745524546248,67.82225223954083 140.4793584131694,67.91994740725931 143.59802446619142,71.9513616414115 145.2153150034428,72.86962626159584 149.4544929303811,75.92389401710534 153.74886848661117,78.86079279770638 156.06716891538235,80.96407040824488 156.46459184604464,81.15941750371712 158.02668475403334,82.29241803477635 164.9098291224218,86.90884703143456 165.16925797989825,87.0 165.68811569493846,86.29030534964477 166.08001886267448,85.50246928526394 167.84634299887693,79.97430195317793 168.6577481489512,78.43101177077551 169.3256394629425,77.6951673634685 173.3992245021509,74.15908035440589 178.6761178591405,67.93297341752259 183.7046218844771,60.05823065196455 183.56662781134946,59.84327270516587 177.5832047998556,54.25409374836454 175.41393797006458,51.83065032490049 174.7294873672654,51.198714724094316 166.9742204566137,45.84327983179901 166.81966709470726,45.94752647124551 166.4167244010896,47.17241080992608 165.24101489793975,48.78817713080571 164.5676038210222,49.97391322475596 164.48480737709906,50.05860775636393 164.36337259275024,50.019517987519066 163.97146942504332,49.38104812979145 163.0055109130044,44.72261692720713 162.79575992186437,44.15576195761969 162.36521841364447,43.51722920449174 162.36521841364447,43.32175862486838 168.177528774424,38.64330452383365 168.96133510989603,37.926517225856514 169.60162760925596,37.007713607566984 171.66601894347696,33.006516826630104 171.892329223454,33.0 172.15175808095955,33.18247087557029 174.62461187166627,35.365561164333485" stroke="#ff9700" stroke-linecap="round" stroke-linejoin="round" stroke-width="0.5"><title>2023-03-19 21.3km</title></polyline><polyline fill="none" points="44.61796384121408,118.58227365768471 44.6567237295385,118.5692109381016 44.77300339462818,118.64105586059304 45.45960713116801,116.62936541181989 47.32008177222451,114.07546610806457 48.11189092005952,112.67110160537777 51.67780064875842,104.8517808655306 51.838377329084324,104.26382067656596 52.5748152078595,102.68936547315752 53.58810943196295,99.96500270333127 55.099745077837724,94.75112772413195 55.282470265810844,93.87557027657385 55.204950489103794,93.54233235518768 54.23595328020747,93.01960246003364 53.98678256935091,93.0 50.42640996759292,98.03108710660672 47.07644818830886,101.67672714399305 46.18497075614869,103.04215157162253 45.17721365886973,103.64318975920469 43.30566476401873,105.74024306927458 41.600229676405434,107.47139987801711 40.27685634541558,108.97387270532272 39.479510070668766,110.2738078628754 38.54373562321416,112.33143640092385 37.751926475408254,114.35633505144142 36.21260519500356,117.46540082716456 33.10073987278156,124.53204591162284 31.93794322211761,126.28878099913709 30.537050114391604,128.15647995577456 29.042025849281345,131.08198913259184 28.9700431994861,131.32359845296378 29.042025849281345,131.97659173604916 27.718652518291492,134.8235592124147 26.66106127886451,137.84015223258393 25.077442983252695,141.6008865061267 24.71752973421826,144.57143844412712 24.927940556692192,146.71275591887388 25.18264839448966,147.0 25.503801755141467,146.99347174073046 30.658866906393087,143.42893590686435 31.64447549599572,143.0633304912335 35.01104865601519,141.44419396069497 37.29788206896046,140.69989877001717 38.71538655736367,140.03394259894412 41.605766803288134,138.0099126899804 42.181628001708305,137.45492479374298 42.242536397709046,137.23945751816063 41.63898956475896,132.47939170936297 41.733120722172316,129.37763621918566 41.87154889488011,128.19566182709968 41.74973210290773,126.9875423286976 41.72204646834871,125.04796974386045 42.10964535194216,123.28466738026327 42.43633583947667,122.33768725545087 44.075325404206524,119.97343696696407" stroke="#ff8f00" stroke-linecap="round" stroke-linejoin="round" stroke-width="0.5"><title>2022-06-18 22.1km</title></polyline><polyline fill="none" points="88.46486568523687,97.12289407911885 88.29276066168677,96.91974573919288 88.35832448015572,96.56181657558773 89.57945059947087,96.93909322025866 90.23508878433495,97.69364167824824 93.93944452874712,100.1990833008822 94.34102291695308,100.80850430870487 94.84094703293522,102.20145083480747 94.73440582785406,103.5266643071518 95.00485657915124,103.95227609798167 95.71786310517928,104.31984826824919 96.70132038241718,104.56167123097839 98.16011534372228,105.25811766766128 99.93853392012534,105.75143057407695 101.76612536044559,106.83477474718529 102.15950827134657,107.32807885572402 102.77416906962753,107.80203511238506 103.92153589313966,109.20454384514596 104.29852784943068,110.49096332738554 104.54439216875471,110.85850831308926 105.50326301407767,111.38080645399896 106.1834876308858,111.43883939032821 106.19987858549575,112.23195236930769 106.70799817878287,111.92244571173069 107.23250872662175,111.83539676908549 107.71604188799392,111.9804782925712 108.61754439215292,112.62850619103847 108.69949916526093,112.5704740355286 108.84701775683789,112.1932640963496 108.70769464256591,111.14867432782194 108.85521323417197,110.17177828447893 109.36333282742999,109.34962968559557 109.74032478372101,109.49471528797585 110.91227803914808,109.26257820988394 111.79738958869711,109.37864682511281 113.05949309453717,110.22981201433868 113.31355289116618,110.24915658250393 113.03490666262223,109.2819229896777 113.17422977689421,107.11528134255059 113.93640916675213,105.09367942047538 114.23964182729833,104.69709180117206 114.88708453485742,104.3682129137378 116.30490210957942,104.37788583963993 116.69008954317542,104.5036337802594 117.30475034145638,105.12269795690372 118.39474882380455,106.59295800229302 118.8455000758695,106.90248331720795 119.59948398845154,108.19860880325723 119.94369403549354,110.12341681379621 120.23873121867655,110.81981943916617 120.09940810440457,111.77736409303179 120.21414478679071,112.43506552455801 120.42722719683661,112.70588233915623 121.10745181358652,112.94768236554228 121.57459402034874,114.39846863846469 122.12369100016076,115.02713529802713 122.1073000455217,115.39466142880701 122.61541963880882,115.61711071326135 123.07436636817874,115.59776731941383 124.03323721353081,115.21089855434548 123.8201548034267,115.64612579604 122.86128395813284,116.46821585267026 122.85308848079876,116.62296136157238 123.75459098495776,116.91310846096167 124.24631962360581,116.90343690629379 124.93473971771891,116.6906624365729 125.08225830929587,116.76803503023984 125.18060403701384,117.17424003642373 125.08225830929587,118.42185803216125 124.76263469419791,119.58241711046139 124.41022916982183,120.22071811195929 124.70526635297574,120.01762283845164 125.48383669753093,118.87641215219628 126.75413568070508,118.42185803216125 127.0,118.55725737608009 126.10669297314598,119.61143089231336 125.91819699498592,120.23038930381153 125.48383669753093,120.7623032278425 126.098497495841,120.89769898860686 126.50007588404696,120.71394754873472 126.67218090756796,120.89769898860686 126.50007588404696,121.55533259257936 125.91000151768094,122.58045757608488 125.77067840340897,123.37347063900233 125.11504021854489,125.26893647015822 125.44285931094782,127.30941806363262 125.22158142356784,127.79293760927976 125.22977690087282,129.14677827728156 124.76263469419791,129.83336098361906 124.57413871603785,130.62630902779347 123.12353923203773,131.370900111011 121.3779025648837,132.6666670540726 120.3042950372037,133.2178457467453 118.14068902717554,133.22751551771216 117.87023827590747,133.4595897041072 117.50963727425551,134.18481761310977 115.51813628774835,135.60624707102397 114.87069358018925,136.43782106441358 114.23144634996424,134.99706581383361 113.01851570798317,135.13243978902756 112.2317498861521,135.86732346875942 111.4203976324061,136.35079624522768 110.74017301559797,137.04699240236368 109.96979814840597,136.75691133591317 110.17468508114689,137.62715168231807 110.084534830763,137.87855285563273 109.84686598877306,138.00425317446206 109.05190468960791,138.0429301596887 107.98649263923289,137.6174823921392 106.31461526785279,137.5207894324194 104.66732432841673,137.22104058573314 102.68401881921454,137.25004858302418 101.26620124449255,137.47244291290554 100.8154499923985,137.75285235825868 100.15161633022944,137.86888359294244 99.12718166637933,137.6174823921392 98.76658066475648,137.64649025947438 98.1109424798924,137.05666175485385 97.0783123387373,136.66021743576857 95.97192290177918,136.93096008988505 96.12763697071932,137.06633110631083 93.9476400060521,137.76252163363824 93.71816664136713,138.7004363224696 93.03794202455902,139.50297398845578 92.19380786156398,139.78337699930125 91.39065108512295,139.74470077478327 89.41554105325486,141.04034509484336 87.39945363480365,141.34008100431674 86.48975565331057,141.29173657148203 85.30141144327354,142.42298937896703 83.22795568368747,143.31251134522608 82.5313401122985,143.47687855598633 81.39216876609134,143.30284267626848 81.03156776443939,143.41886663410696 80.47427530732239,143.01278211623867 79.94156928212033,142.33597044564522 80.17104264680529,141.31107434778096 79.94156928212033,140.527891026999 79.5235999392462,140.88564229271287 78.76961602669326,142.0265691008026 78.36803763845819,142.19093869992503 78.13036879643914,140.99200049821957 78.32706025193329,140.48921512785455 77.48292608890915,139.5223121556337 77.28623463344411,138.8841504064403 77.72879040820408,137.84954506441136 78.48277432081522,137.0373230487894 79.62194566696417,136.86327450402314 80.87585369552835,136.95996818226558 81.3266049475933,136.82459700313484 81.26104112912435,136.56352342995524 80.90863560474827,136.35079624522768 79.02367582332226,135.66426411489374 78.80239793591318,135.40318711799773 78.76142054935917,135.02607454021927 80.2529974199133,133.14048754087707 80.77750796778128,132.9470917303188 81.22825921987533,131.370900111011 82.0150250417355,130.8777300943184 82.17073911061743,130.5779587407742 81.98224313245737,130.3458769951976 82.0150250417355,130.17181528652145 82.67066322654136,129.63995794349466 80.44968887537834,129.65929826652427 79.06465320987627,130.08478430371906 76.66337835782906,131.11948044601013 75.73728942172602,130.84872000773612 74.884959781426,131.07113042852143 74.51616330246907,130.76168969085847 74.39323114277795,129.5045755638057 74.05721657304093,128.51821197244863 73.66383366211085,127.83161905877932 73.0,127.27073638576258 76.41751403853414,126.4970992770468 77.44194870235515,125.22058325485705 77.94187281830818,124.79507382037264 78.73683411744423,124.61133047720068 79.58096828043927,124.12779353975202 80.07269691908732,123.6926080359699 81.12171801485238,123.25742039098986 82.65427227196051,122.10658052273357 83.69509789042058,121.11046333674312 83.50660191226052,119.87255450043449 82.12156624672934,119.65011591991788 80.53983912579133,118.51857187039423 80.2120200333593,118.47988634779904 79.96615571403527,118.27678707653104 78.6220974350872,117.75452966573357 77.88450447711512,117.08719626360107 77.32721201999811,116.92278001450177 76.7781150401861,116.55526023473067 77.5484899074072,115.58809562092938 78.72863864013925,114.79501274420909 78.73683411744423,114.44682777096023 80.96600394597044,111.79670832261763 81.38397328881547,110.84883609618555 81.85111549551948,110.36522390256869 82.14615267867339,109.77521344415436 82.38382152069244,108.46943859428575 82.07239338287036,107.56022101317649 82.52314463496441,106.97019183538214 82.4002124753024,105.96423137008242 80.7283351039514,102.24981663930521 80.94961299133138,102.00798735213903 85.74396721806261,99.7831268670343 85.94065867352765,99.5703111904586 86.13735012896359,98.82545228714298 86.0062224920257,98.36112148295797 86.55531947183772,97.6549470422251 87.62892699951772,96.52312144401367 88.29276066168677,96.64888055961637 88.25178327513277,96.87137701801112" stroke="#ff6b00" stroke-linecap="round" stroke-linejoin="round" stroke-width="0.5"><title>2021-12-18 25.6km</title></polyline><polyline fill="none" points="137.66511843938497,124.38602259489562 138.3088713423349,124.11575900597381 138.92754296326893,124.19297725200886 139.40408732002834,123.47870610261452 140.09800278683542,123.19878757881088 140.39897816997836,121.92466534796404 140.84208081749966,121.17176697711693 140.93404551787535,120.42851534805959 140.5996284254361,120.32233607339003 140.38225731538842,119.77213249310444 140.71667440782767,119.60803607691196 140.55782628891757,119.10609235375887 140.78355782627477,118.85511950629007 141.0176497909706,118.87442513327551 140.68323269853136,118.71032717992784 140.57454714353662,118.12150279893831 140.0562006502587,117.54232774711272 140.1230840687349,117.32996268440183 139.57129586624797,116.2874364594245 139.6799814212718,115.87235341664928 138.9191825359885,115.03252873788733 138.70181142588262,115.23524571357848 137.40594519273145,115.44761541858315 136.6618671620963,115.71790345335467 136.4946586158767,116.08472170967434 135.7338597306225,116.17159951209032 135.3241987923684,116.37431407806434 134.939619136072,116.85696608051512 134.5884811890428,116.99210820557346 133.4431026474631,116.54806907897 134.42127264282317,115.28351159695012 136.20204365998507,114.40506871404068 136.6284254528291,113.75829792748846 136.97956339991651,111.89518752868753 136.6618671620963,109.45281694855657 136.80399442638736,109.25008773823356 139.93915466786711,107.53169910709403 140.86716209937003,107.6668543858832 141.41895030188607,107.13588612224703 141.47747329308186,106.44079594723735 142.1295866233413,105.62019688768487 142.7900603808812,105.32091783424403 143.75986994890263,105.18575924556353 144.02740362286568,104.40376652461418 144.2614955875324,104.28791520820232 144.33673943334725,103.98863199226616 144.2614955875324,103.67003915421083 143.9103576405032,103.52522387755016 144.21969345101388,103.16801192564162 146.20947515094304,101.89362329727737 148.03204830471077,99.92408024671022 149.11890385506558,98.97791281073296 149.65397120296257,99.06480612834275 151.00836042730953,98.47586098767351 151.68555503946845,97.88691222525085 152.66372503482853,97.54898916895763 153.74222015790292,97.86760236843111 155.1969345099642,97.91587700317177 156.13330236880574,97.51036931519775 156.0246168137237,97.81932770938147 155.65675801207544,97.88691222525085 155.55643288433203,98.0703556707449 156.00789595910464,98.53379017849511 156.3088713423058,98.56275476078008 156.501161170454,98.96825799281214 156.87738039944088,99.0841157437535 157.2368787738087,99.46065246641956 157.8388295401528,99.20962814913219 158.71667440776946,99.11308015960822 159.2099396191188,99.50892629814916 159.2350209010765,99.99166327731655 159.48583372036228,100.12682919549115 160.23827217836515,99.89511607614986 160.27171388757415,100.0109727058807 161.12447747329134,99.51858106160216 161.67626567577827,98.97791281073296 162.0942870413419,99.19997335456719 162.24477473291336,99.75029509188607 162.56247097073356,100.15579329598404 162.6377148165484,100.41646980636142 162.4454249883711,100.86058370844694 163.15606130979722,101.09229449203121 163.17278216441628,101.43020504665037 163.38179284721264,101.84535066744866 163.54900139340316,101.88396877326159 164.41012540640077,101.32400471509027 165.39665582907037,101.19849508050538 165.41337668366032,101.07298528147658 165.7895959126763,100.9474753179602 165.73107292148052,100.76403738316003 165.9484440315864,100.82196518997807 165.7895959126763,100.63852701481665 166.15745471432456,100.77369202005502 166.34138411519234,100.63852701481665 166.70088248953107,100.76403738316003 166.5838365071686,100.4357791492439 166.72596377145965,100.47439782339643 166.7426846260787,100.32957771504152 166.19089642359177,100.12682919549115 165.88992104041972,99.21928294274403 166.09893172315788,98.84274527111847 166.04876915932982,98.44689637910051 166.22433813282987,98.37931225841749 166.36646539712092,97.92553192718333 166.2661402694066,97.1917549272257 166.5503947979596,96.99865478226275 166.7761263353168,97.1434799274939 166.89317231767927,96.99865478226275 167.22758941008942,98.24414387396246 167.4115188109572,98.29241831887339 168.28936367860297,97.82898264315008 168.590339061775,97.91587700317177 168.78262888992322,98.1572498117821 168.85787273570895,98.90067424003792 169.29261495589162,99.20962814913219 169.16720854621963,99.3834142850319 169.4765443567012,99.37375950796559 169.77751973987324,99.7213308687642 169.85276358568808,100.36819643201306 170.17045982350828,100.75438274525368 170.04505341383629,100.9474753179602 170.0199721319077,101.73915079618746 169.6688341848494,102.42462061966216 169.69391546680708,102.75287203753396 170.28750580584165,102.26049448886624 170.32930794238928,102.43427508918103 170.63864375289995,102.3570393057671 170.64700418020948,102.56943756031978 171.1653506734583,102.38600273183692 171.8007431490987,102.55012864754099 172.16860195077606,102.43427508918103 172.49465861584758,102.56943756031978 172.77055271714926,102.49220188588515 172.71202972595347,102.22187653489527 172.51973989780527,102.12533158177393 172.90431955410168,101.81638707788079 172.67858801671537,101.27573179816682 172.93776126336888,100.57094444063114 172.845796562935,100.1944120830376 173.34742220153566,99.51858106160216 173.2303762192314,99.01653207275376 172.79563399904873,98.81378077352565 172.5030190431862,98.38896713571012 172.42777519740048,97.41381961260049 172.99628425450646,96.52555778156238 173.69019972131355,94.11176119109587 174.1500232234248,93.02070516572712 174.216906641901,93.21381333228783 174.66836971667362,93.14622551829234 175.16163492802298,93.34898881715344 176.43241987924557,93.20415793321445 176.51602415234083,93.09794847908779 177.98745935905026,93.53244095570699 178.01254064097884,93.8607228527253 178.7064561076986,93.61933921444142 179.04087320016697,93.95727613768395 179.45889456570148,93.80279083502683 179.66790524846874,93.91865483539732 179.83511379471747,93.78348015469237 179.99396191359847,94.034518695531 180.46214584301924,93.96693146081816 181.06409660936333,94.31452244547836 181.10589874594007,94.53659380289173 180.75476079891087,94.85521702489496 180.46214584301924,95.5021154568094 179.31676730143954,96.41935201119486 179.31676730143954,96.80555424794147 178.91546679052408,97.30761482730304 178.7649790989235,97.77105302599375 178.4807245703705,98.0896654866956 178.1546679052699,98.13794000945927 177.7115652577777,98.63033875200927 177.51091500231996,99.05515131916036 177.59451927541522,99.47030723469652 177.40222944726702,99.76960456912639 177.76172782166395,100.04959155132383 177.83697166742058,100.29095898252854 177.45239201112418,100.54198046567763 176.94240594518487,100.34888707547361 176.10636321414495,100.55163512499712 175.49605202040402,100.97643917030655 175.06967022755998,100.90885683459055 174.16674407801474,101.43985961643193 173.64839758476592,102.27014897495974 173.4226660473796,102.33773035016202 173.96609382258612,103.24524705513613 177.37714816536754,102.7625264739545 178.0627032048651,103.2162838888471 179.15791918255854,103.1776663202254 179.4923362749396,103.39006275508291 179.4003715745348,103.67003915421083 179.02415234557702,104.05621215501742 178.81514166278066,104.69339420265896 179.04087320016697,105.13748827483505 179.89363678588415,105.53330951690441 180.20297259639483,105.97739969522081 180.14444960516994,106.9621140513118 180.3200185787282,107.4448134700142 180.02740362283657,108.05301127467101 179.93543892243179,108.7384359188145 180.62099396192934,109.25008773823356 181.63260566652752,109.28870285896846 182.0088248954853,110.0030797855652 182.93683232698822,110.03204089998326 184.28286112399655,111.62488871027745 184.37482582443045,112.33924821780965 184.1407338597637,112.99568198839552 184.6172782164649,113.76795125492208 184.1658151416632,114.43402849791164 184.11565257780603,114.75258554258471 184.39990710638813,114.99391593195469 185.21086855552858,114.86842420532776 185.45332094753394,114.95530311052426 185.4115188109281,115.85304718486441 186.19739897813997,116.66390557125123 185.77937761263456,117.551980693308 186.76590803530416,118.24699026546295 186.67394333487027,119.51150864202646 187.0,120.42851534805959 186.11379470507381,120.42851534805959 186.3646075243596,120.96906255904469 186.59869948905543,120.99802035929315 186.6154203437327,121.3262081507637 186.3311658151506,121.59647960579605 186.40640966096544,121.87640280930646 185.98838829540182,122.04049534157821 185.57872735714773,122.09841028591472 185.22758941011853,121.87640280930646 184.72596377148875,122.08875779761001 183.94008360427688,121.86675029866456 183.55550394798047,122.1273677449717 183.10404087317875,122.01153785630595 182.5188109614828,122.31076478234172 181.908499767771,122.10806277320808 181.8834184858133,122.19493511535256 181.42359498376027,122.07910530835943 181.3065490013687,122.21424006955203 180.72131908964366,122.18528263677581 180.3869019972044,122.51346636273956 179.95215977702173,122.60033833740454 179.2415234556247,123.04434942260559 178.1881096144498,124.32810903284553 177.7784486762539,125.16785225763306 177.35206688338076,125.44776503101457 177.02601021828013,125.4381128800087 176.27357176033547,125.72767698699317 175.75522526705754,125.63115571518574 175.06130980027956,125.33193915497395 174.67673014401225,124.8396776202353 174.24198792382958,124.78176433228509 173.27217835572083,125.76628546848224 173.0380863910541,126.24889017517125 172.63678588016774,126.65427625108714 172.51137947049574,126.66392827960954 172.48629818859627,126.49019161736214 172.16024152343743,126.44193137751427 171.44124477473088,126.73149245209788 170.66372503482853,126.49984366240824 170.57176033442374,126.68323233374394 170.35438922431786,126.57705998783058 170.1119368323125,126.86662065421115 169.7273571760452,126.93418468383607 169.1254064096429,126.79905657696509 169.0668834184762,126.57705998783058 168.57361820715596,126.82801261590066 168.26428239664529,127.37817569384788 168.30608453319292,127.60982236095151 168.7742684626137,127.76425316139648 168.60705991639406,128.5460552706936 168.6823037621798,128.86456541319785 168.37296795166912,129.20237804426142 167.45332094753394,129.50158252338588 167.75429633067688,129.10586027114914 167.62052949372446,128.8935208282128 167.39479795630905,129.22168158722343 166.50023223410244,129.26028866146225 166.09057129584835,129.4340203032989 166.02368787740124,129.32785100401088 166.29122155130608,129.12516383354523 165.86483975846204,129.26994042762817 165.76451463077683,129.34715452174714 165.848118903843,129.65601027625962 166.1072921504965,130.08068531400204 165.29633070132695,129.94556164242385 165.23780771018937,130.10964036169025 164.61913608919713,130.32197711095796 164.10915002319962,130.09033699752763 163.5908035299508,130.09033699752763 163.10589874591096,129.77183092765335 162.55411054342403,129.88765143915225 162.17789131443715,130.37023539746588 162.62099396190024,130.42814530919713 162.88852763583418,130.93002974574483 162.8968880631728,132.49357595526817 163.16442173710675,132.73486167940428 163.8499767765752,132.89893562498037 162.99721319091623,133.69034718348848 162.85508592662518,134.0667479494732 162.6042731072812,134.1729120009186 162.31165815141867,134.9643130436525 162.31165815141867,134.36593724782142 162.68787738040555,134.02814281071187 162.6126335345907,133.78686034128623 162.99721319091623,133.227082673744 162.3869019971753,133.39115577695338 162.1277287505509,133.12091757497546 161.88527635854552,132.30054693874263 161.99396191359847,131.82762420573272 161.86855550392647,132.8796328224198 162.0692057594133,134.14395818034245 161.48397584765917,135.62059188071726 161.42545285649248,136.11279806063976 161.18300046445802,136.59535068622063 160.9238272178336,136.74976701349806 160.98235020897118,137.33847697998135 160.61449140735203,138.16845538302732 160.6061309800134,138.46763188312616 159.903855085955,138.91156948565913 159.6530422665819,139.81873993472254 158.68323269856046,140.36882847416564 158.3738968880789,140.80310667110462 157.98095680444385,141.0250703234342 157.31212261956534,140.85135968269606 156.30051091496716,141.12157609897258 156.31723176961532,141.66200664736243 155.94937296790886,143.1385245831989 155.34742220159387,143.88160017432529 154.9126799814112,144.72117216174956 153.46632605668856,144.28691170656384 152.6219228982518,143.14817495247553 151.94472828612197,142.74285860779491 151.1003251277143,142.83936265474767 150.67394333487027,142.59810235527402 150.0469112865976,142.66565530032676 149.6038086391054,142.0962789882542 149.39479795636726,142.28928828633798 149.24431026473758,142.8007610476343 149.16906641895184,144.18075885175494 149.0269391546608,144.4027146868757 147.89828146770014,145.18438114676974 146.05898745934246,145.5028360262877 145.67440780307516,146.30379362491658 144.96377148167812,146.97929483427288 144.78820250811987,146.6029447473993 144.83836507200613,146.3230937254848 145.07245703670196,146.1107924055832 145.18950301903533,145.54143654587097 145.39015327449306,145.27123258237407 145.4068741291121,144.82732441840926 145.6911286576942,144.57641889516526 145.80817464002757,143.97810307546752 146.60241523457807,142.95516738293372 146.56061309803044,142.3664918968061 146.9953553181258,142.11557993554743 147.39665582904126,142.19278368583036 148.30794240592513,140.61974500561337 148.13237343236688,140.26267128244945 147.6641895030334,139.9345483105135 147.88992104041972,139.41340951807797 147.70599163958104,138.51588606988662 146.5773339526204,137.3674298359183 145.91686019508052,137.55079772039608 145.41523455645074,137.1165047941613 145.06409660939244,137.05859892203443 145.07245703670196,136.7883710564638 145.3985137018317,136.5856996575094 145.34835113794543,136.28651728561817 144.9888527635776,135.99698506915593 144.42870413375203,135.89082303738542 144.07756618669373,135.5240805687572 144.21969345101388,135.35035996240913 144.59591267997166,135.54338283889956 145.04737575474428,135.4854760167509 145.23966558289248,135.6688475002593 145.5908035299508,135.57233623685897 145.96702275893767,133.02440374683647 147.6641895030334,131.1327131003054 147.81467719460488,130.82386210327968 147.69763121227152,130.09033699752763 147.73943334881915,130.90107494583208 147.32977241056506,131.49947236696607 147.58058522993815,130.67908785590407 147.0873200185888,130.08068531400204 145.92522062236094,130.32197711095796 144.32837900603772,129.36645803556166 143.32512772871996,129.33750276335923 139.47097073850455,130.89142334389908 137.97445424989564,131.29678978778975 137.07988852763083,131.31609290902998 136.6618671620963,131.64424537547893 135.85090571295586,131.60563926126633 135.36600092891604,131.1520162546076 135.30747793774935,129.9069548441039 134.61356247097137,129.29889572018874 133.45982350211125,129.01899419224355 133.1922898281482,128.81630636870977 133.0,127.63877815500746 133.1922898281482,127.29130804933811 133.61031119368272,126.9438366842005 133.77751973990235,125.81454604851024 133.94472828612197,125.52498220396956 134.404551788175,125.66976423557935 135.34091964698746,125.58289504284767 136.8457965629641,125.80489393443713 137.40594519273145,125.38985211047839 137.64839758476592,124.46324062316853" stroke="#ff2700" stroke-linecap="round" stroke-linejoin="round" stroke-width="0.5"><title>2021-11-13 32.3km</title></polyline><polyline fill="none" points="25.441128298465628,190.3805902945387 25.352684258425143,189.93992179055203 25.62784349411959,189.61521751063265 25.43130118289264,189.25572232680133 25.588535031827632,188.548325019583 26.787443130102474,187.2146943114567 28.91992720658891,185.9622258526797 31.83858052775031,185.5215389878722 34.03002729755826,184.50099395354482 34.29535941767972,183.38766089557612 34.91446769790491,182.34390053695097 35.042220200179145,181.69444446157286 35.77925386716379,181.31172741146293 36.476979071914684,180.2563489948734 37.1550500455196,179.96640802998445 38.39326660602819,180.04759158005618 39.69044585991651,180.46510599864268 40.52575068251463,181.0449844081013 40.98762511374662,181.7408343131683 41.3119199272478,181.83361395546672 42.874431301199365,181.56687226502254 43.78835304826498,181.0101917929569 44.81037306645885,181.4624948991477 44.68262056418462,183.00494995705958 44.86933575978037,183.32967447854026 44.967606915393844,184.44300814533926 44.62365787080489,185.57952420628862 44.86933575978037,186.43770173178928 45.30172884440981,187.06393500234117 47.11974522296805,188.37437413920998 48.12211101001594,188.21201972677954 48.56433121016016,188.35118066696305 48.95741583261406,188.14243918820284 49.615832575073,188.1192456652061 51.47315741586499,188.7454690057275 52.613102820760105,190.24143201739207 52.83912647864781,190.91402866529097 53.674431301187724,191.35469312168425 54.58835304825334,191.27351822782657 55.75777979986742,190.69369575044402 58.22438580531161,188.45555125222018 59.12848043674603,188.95420929742977 60.209463148377836,188.98899930613698 60.661510464095045,188.803452461274 62.115923566918354,189.93992179055203 62.41073703370057,189.39488189735857 66.03694267518586,188.3395839289078 66.8525932666962,187.8409229935205 67.0,187.19150058554806 66.94103730667848,184.50099395354482 66.78380345774349,183.73557873193204 65.28025477711344,181.1145696040985 64.29754322115332,178.27313695842895 63.47206551412819,176.81179908759077 62.852957233903,176.19710332979594 61.76214740675641,175.54760960006388 59.246405823505484,174.80532617933204 61.63439490448218,173.72668631996203 61.899727024603635,173.78467798940255 59.236578707932495,174.81692439776816 58.11628753412515,174.45737903671397 57.21219290269073,173.81947297587612 56.45550500461832,172.92639804176724 55.32538671523798,170.3747139134939 54.16578707919689,170.01515348527755 51.463330300292,168.77408070128877 50.726296633307356,168.83207508025953 48.5348498634994,168.46091050652467 47.78798908099998,168.08974463307823 47.26715195633005,167.5329933858884 46.10755232028896,167.09222990785202 44.02420382166747,166.7790547438126 42.884258416772354,167.1270270911773 41.82292993628653,166.86024839372112 40.221110100101214,166.76745564590237 38.71756141947117,166.0483090958587 37.56778889900306,165.7119324216983 36.22147406730801,165.6539363355041 34.06933575979201,164.78399123421696 31.573248407628853,165.45674940499157 30.57088262058096,166.38468470244698 28.890445859869942,166.36148641900945 27.976524112804327,165.81632529688795 27.426205641473643,165.70033320698712 27.06260236579692,165.18996650341433 26.83657870790921,164.43601119432424 26.325568698812276,164.36641504924046 25.81455868971534,164.04163243465882 24.763057324802503,164.1692257233517 24.763057324802503,164.8303884865236 25.706460418528877,165.60753944366297 25.26424021832645,165.82792449888075 25.274067333957646,166.10630496626982 24.733575978141744,167.10382897021918 24.80236578709446,167.44020122705115 24.59599636029452,168.0085519250133 24.14394904457731,168.13614043832058 22.886078252922744,167.05743271308893 22.71901728847297,168.63489406229928 22.237488626036793,169.1916395217122 21.981983621488325,169.8759684759425 21.47097361239139,170.10794338995765 20.566878980898764,169.2380348446386 20.25241128297057,169.180040687781 20.29171974520432,170.20073321343807 19.564513193792664,170.57189169505727 20.114831665123347,171.66216221910872 19.83967242948711,172.70602774483268 18.79799818014726,173.12357107700518 18.218198362155817,173.9354561815344 18.13958143768832,174.32979813164275 17.35341219289694,174.50377205508994 16.98980891716201,174.95610291981575 17.34358507732395,175.96514174024196 17.117561419436242,176.77700508322596 16.09554140130058,176.9277790195556 15.957961783395149,177.0785527414264 16.50828025478404,178.24994127652462 17.206005459476728,178.48189786712464 17.432029117364436,178.8762229064523 17.294449499517214,180.8362285460389 15.555050045484677,183.5964117343683 15.270063694217242,184.95328216929192 13.393084622337483,186.41450783592882 13.0,187.80613260824612 13.383257506822702,188.3163904490284 14.071155596000608,187.95689086218044 18.286988170992117,189.38328527342674 20.507916287519038,189.7891663556511 20.114831665123347,190.62411684011022 20.075523202947807,191.19234327183221 20.19344858964905,190.8212569674506 21.185987261123955,191.1691504158298 21.333393994544167,191.3199038890525 21.29408553231042,192.28240178180567 22.198180163803045,193.1753137030173 23.495359417633153,193.91746854010853 23.898271155601833,193.91746854010853 23.711555959947873,193.61596876385738 23.839308462222107,193.03615909288783 23.32829845312517,192.18963128095493 23.849135577795096,192.94338925139164 23.75086442218162,193.5811802729877 24.19308462238405,194.56684976254473 24.134121929004323,195.81921660659282 26.83657870790921,195.95836756534118 27.12156505911844,195.26261094598158" stroke="#4dd2ff" stroke-linecap="round" stroke-linejoin="round" stroke-width="0.5"><title>2021-10-24 17.4km</title></polyline><polyline fill="none" points="117.2208340059151,178.50472335847735 117.36263410287211,178.63493458168523 117.37838966929121,178.02108079804748 117.04752277623629,173.50081642232544 115.45621057623066,171.8452162352187 115.12534368311753,171.0639161584986 113.92792064155219,169.59431817806035 111.47005229303613,167.8642688116961 110.09931802173378,167.30618461045378 109.29578413860872,167.41780159744667 107.94080543360906,168.49676202215778 107.05849371879594,168.73859703875496 106.01862634060672,168.25492666105856 105.60898161580553,168.29213212364994 104.96300339605659,168.92462374026945 104.64789206930436,168.60837822649046 103.68680252280319,168.58977553088334 99.93697773467284,170.0221771304059 96.73859776830068,169.48270262182632 96.50226427329471,168.81300774381089 95.57268585939892,167.95728266687365 95.08426330296788,166.78530436762958 94.64310744550312,166.5620694886893 94.83217424160102,165.98537802616192 94.58008518017596,163.3623373023438 93.54021780198673,161.24155134372995 93.69777346530464,158.73006002428883 92.39006145938765,154.80461769062094 91.19263841782231,153.0 92.4845948573784,154.84182610090647 93.28812874056166,156.86967212936725 93.69777346530464,158.59983353526331 93.66626233269926,161.2973618399701 94.80066310893744,164.1064664479054 94.92670763959177,166.0969958814676 93.68201789906016,169.44549742016534 92.89423958217958,170.84068690479035 90.16852660599397,173.22178381396225 89.22319262573728,175.39822599911713 85.44185670494335,177.94667412807758 84.13414469902636,178.98836454139382 83.18881071888609,180.1974614726787 81.37692059011897,180.88571280406904 78.80876327730948,182.42961780625046 77.34349560789997,182.22500469713123 75.35829424957046,183.7874985566159 76.13031700003194,184.84775405986875 75.76793897437165,186.54042895138264 76.30362822976895,187.26585588345188 76.3666504950379,188.04708142210438 74.5705159327481,194.20375694322865 74.77533829509048,195.50574432723806 73.2785594931338,196.51012777595315 73.19978166144574,196.91931933023443 73.29431505949469,197.77489848573168 74.25540460593766,199.28145130621851 75.8152056732797,203.24306347843958 76.14607256633462,205.0471473257785 75.87822793866508,206.6094312610221 76.66600625548745,206.4048472774739 76.90233975055162,207.0 81.06180926336674,206.64662832242902 83.26758855051594,205.41912099445472 84.22867809701711,204.32179632928455 85.23703434265917,201.62495135814243 87.09619117027614,200.08122083095077 87.0016577722854,198.59327451510762 87.23799126734957,198.2212858996354 88.19908081390895,197.68190096020408 89.99521537625697,197.92369442067866 91.41321634652559,197.42150761777884 92.8469728831551,197.51450528594432 94.23346272076014,196.58452631373075 95.52541916037444,196.64032519560715 95.74599708913593,196.04513617687917 97.32155372272246,195.67314198108215 97.7942207128508,195.2267478707945 98.31415440200362,193.68295919516822 99.25948838226032,192.47395826678257 100.23633349506417,189.62812211214623 103.65529139013961,188.10288310877513 107.89353873458458,186.89384245917608 108.791606015875,185.36857890026295 108.99642837821739,183.50848285030224 110.19385141978273,183.00625342383864 111.26522993063554,181.55536007088085 112.46265297220089,181.592562619393 114.14849857025547,180.84851010065177 115.12534368311753,179.47200434695696 117.34687853656942,179.15577847610984 120.82885869697202,180.97871952678543 123.0819046831457,180.71830057477928 125.2561728375731,181.20193545351503 125.90215105738025,182.26220709896006 125.41372850094922,183.6758923290763 125.8233732256922,185.74059566554206 126.80021833855426,186.5776304079045 126.75295163958799,189.94432848405268" stroke="#4dd2ff" stroke-linecap="round" stroke-linejoin="round" stroke-width="0.5"><title>2021-09-19 11.2km</title></polyline><polyline fill="none" points="168.12001665087882,172.80762169510854 171.6735617700324,164.90625839928543 173.12929754317156,161.32091515427965 173.72709018006572,159.55755267278437 175.25478247430874,153.8752528396035 175.12193966610357,153.51600882277125 174.086872785585,153.0 170.7713376977481,157.63085639234487 167.11262535539572,161.66705056839055 166.44841131442809,162.79687485329487 166.10523405994172,163.16912441888053 165.19193975356757,163.67851480362515 164.31739126631874,164.710343559389 161.98157188890036,167.1004607298455 160.2712207333825,169.05297185542076 159.46309365020716,170.3720235406072 157.7970234307868,174.40735737498835 156.35789300868055,177.30636112887805 153.13091979295132,184.5989540443952 152.0017559232947,186.29629662454317 150.52387968215044,188.24165311685283 149.02386297294288,191.25095582129143 149.1234950790822,191.7470519286726 149.06814390901127,192.09953876845975 147.90023422031663,194.5277250187719 146.78214058466256,197.70641131991215 145.1160703652422,201.6093721985926 144.74521752569126,204.57884586768705 144.9666222060332,206.71938607406992 145.18802688634605,206.97389643446513 145.4703178537602,207.0 146.8153512867284,206.04068649006877 148.32090311293723,205.12704028424196 150.64565225632396,203.43675804290615 151.65304355177796,203.0647590183362 154.99625422467943,201.43315704300403 157.33760871909908,200.68260519938121 158.24536790844286,200.27142932953575 159.46309365020716,199.55349643578302 161.48341135814553,198.0980242335536 162.2029765692132,197.46491541245996 161.60518393234815,192.41285866050384 161.73802674052422,189.27305807820085 161.86533443172812,188.2481810522877 161.72695650652167,186.79243382035565 161.71035115548875,185.01023762949626 162.12548493110808,183.09741853348896 162.41884613252478,182.35316522045832 164.30078591528581,179.5980416510538" stroke="#ff9b00" stroke-linecap="round" stroke-linejoin="round" stroke-width="0.5"><title>2021-09-11 21.0km</title></polyline><polyline fill="none" points="67.0,244.39987992822353 66.23365433351137,242.82648658149992 65.84657157339097,242.40198331099964 65.59242632685346,241.54373539039443 65.20143363984243,240.80082927500916 64.9668380276562,240.50550892424872 64.90818912461691,240.18711435498335 64.43899790022988,239.90563309666322 64.44681775396748,239.62414996001098 64.96292810079467,239.04733438529365 64.80262109912292,238.75200175781356 64.38034899717604,238.24900861653805 64.26305119108292,237.92136765615578 63.508435305178864,237.38144671778355 63.28556947362085,237.12302057492707 62.78509883425431,236.98919212861074 62.26116863368952,236.7307635822035 61.909275215424714,236.25543551370356 61.00608210847713,235.64165445133403 60.81449569184042,235.60012007177647 60.35312432117644,235.6139648695098 60.07160958657914,235.70164848292188 59.109767576577724,236.23697606316637 58.29650278763438,236.3015841046872 58.10491637101222,236.48617796363033 58.011078126131906,237.7183212765558 58.085366736660944,238.43820857529863 58.05408732171054,239.13962540731518 58.120556078487425,239.61953546671793 58.230034030857496,239.87333184851013 58.28868293391133,240.72699938113874 58.4059807399899,241.2115057012743 58.37861125191557,241.40530667121857 58.53500832671125,242.498881172869 58.48026935053349,242.64192046698736 13.543479834930622,237.71370657474472 13.0,238.55357398729393" stroke="#4dd2ff" stroke-linecap="round" stroke-linejoin="round" stroke-width="0.5"><title>2021-09-07 16.2km</title></polyline><polyline fill="none" points="79.82100321655162,261.0095906197603 79.73180909326766,260.70270412211175 79.80222550639883,260.44395498087397 79.72242023819126,259.6376104597366 80.04633573850151,258.56045500437904 80.75988872468588,255.22049974672336 81.18238720335648,253.99277529017854 82.79727027731133,252.09695540868051 82.82543684256962,250.3033726380745 82.93810310354456,249.32830630267563 83.85351647395873,248.80465043630466 84.74545770668192,248.11847102184765 86.36503520820406,246.53540127779706 86.61383986787405,245.81306871075503 87.55272537600831,244.80780234720078 87.75928018777631,244.30215049595427 88.30383378249826,243.7603740519953 88.75449882639805,243.51356251821926 89.56194036337547,242.7731194103253 89.97035555940238,241.99052339334594 90.18629922630498,241.14771174063208 90.36938190035289,240.83466320151638 91.2143788576941,240.29284303175518 91.8669042858237,240.35304561028533 92.10162566287909,240.2988632934139 93.27523254803964,240.64803702560675 93.85264713552897,240.4433493198776 96.1623054855445,240.7564007103174 96.81013648613589,240.70221890211906 97.72554985655006,240.45538980015408 98.63157437191694,240.39518736505124 99.25123880727915,240.70221890211906 100.35912370687583,240.96710709257604 101.36842562808306,241.38249664807154 102.11014517952572,241.5570794654741 102.43875510734506,241.4968785740857 102.95044770929962,241.5691196336229 103.49969573155977,241.90624297205795 104.62635834130924,242.13500373090574 104.85169086325914,242.37580321387577 106.08163087890716,242.5624218849298 106.89376684342278,242.82127869963006 107.81856906894245,242.79719906172613 108.20351212727837,242.90555732601933 109.79961749108043,242.98983578708794 110.52255933234119,243.2727694116511 110.81361383988406,243.2968487830367 112.57871859514853,243.1222730347872 112.98713379117544,243.18849150555252 113.47065982787171,243.40520578725773 114.04337998782285,243.4232652614046 115.28270885854727,243.70017624764296 116.0666782578628,243.60385958526604 116.41876032340224,243.74231471955136 116.83656437450554,243.70619603189334 117.58297835345729,243.8747496479009 118.30592019471806,244.32020959309375 118.75189081107965,244.47070177420755 119.2964444058016,244.45264274029614 119.83630357298534,244.2901110936291 121.48874206730397,244.50681981922753 122.04737894464051,244.4466230606522 122.80318177866866,244.77770418929504 123.19281926454278,244.7837238225584 123.93453881595633,244.976351641988 124.57767538903863,245.36160469028619 124.71850821524276,245.36762424175686 124.74198035296286,245.2231547736701 124.76075806311565,245.28335044439882 124.96261844734545,244.5670164934927 124.88281317916699,244.39846559305442 124.98609058506554,243.8145520037906 124.92506302703987,243.37510664681395 125.00017386768013,242.73097998789308 124.8499521863996,242.3818231836667 124.89689646178158,242.13500373090574 124.80300791098853,241.87012274089284 124.91097974442528,241.65942078722583 124.92036859950167,241.07546997250756 125.14100669391337,240.73834011517465 125.24897852735012,240.31692407328956 125.18795096932445,240.10019421356265 125.40389463616884,239.58846659527262 125.17386768668075,239.32959030191705 125.04242371555301,238.4144802032024 125.43675562899443,237.82446467216505 125.53533860729658,237.43312337043608 125.77475441189017,237.02973706650664 125.74189341912279,236.391536072304 125.63392158568604,236.25907807400654 125.54003303486388,235.84965986057796 125.83108754237765,235.31379777335314 126.02825349909835,234.38053885295813 126.87325045638136,232.9956656657996 126.75588976789732,232.49589611636475 126.86855602887226,232.31525508935374 126.76997305051191,231.5866619016815 127.0,231.0688112952339 126.87794488394866,230.83999159634914 126.91550030425424,230.3943918419318 126.7840563331265,230.1354601310668 126.7887507606938,229.55135263166449 126.67139007215155,228.97928088526533 126.80283404327929,228.4433330720276 126.67608449968975,227.97362049991716 126.45075197773986,227.726718241669 126.42258541251067,226.8414716463485 126.22072502825176,226.5584297690184 126.27705815873924,226.31754159534466 126.18316960794618,225.99234041732416 126.18786403545528,225.47442234547998 125.99069807876367,225.34795303015198 125.90150395547971,224.8962738631817 125.929670520738,224.74571308499435 126.10336433973862,224.66742127168982 126.30053029643022,224.3964100464109 126.47422411543084,223.89051784914773 126.37564113709959,223.19189501551955 126.43197426758707,222.3667827175741 126.26766930366284,222.05962007468406 126.64322350692237,221.10800421119347 126.61975136920228,220.5719581401354 126.94836129707983,219.13243051355676 126.84508389115217,218.80717490842653 126.7887507606938,217.01822502807408 126.83569503607578,216.43393905068297 127.0,216.00023710005917 126.87325045638136,215.78940818010597 126.94366686951253,215.80145557485594 125.9202816656616,215.68700518821788 125.37103364340146,215.74121856730198 125.05181257062941,215.8797635583178 124.4227592801908,215.94000037146543 124.11762149003334,216.10866299852933 123.58715117795509,216.13878125506744 123.05198643833864,216.33153759640118 122.69520994523191,216.2953958483413 122.36190558984526,216.51826947665904 121.96757367643295,216.59055256706415 121.08502129878616,216.38575016146933 120.00999739198596,216.63271764691672 119.20255585500854,216.60862332065517 118.90211249238928,216.48212788582532 118.17917065112852,216.38575016146933 117.01025819350616,216.47610428438202 116.61592628009384,216.40382100126226 116.35303833783837,216.10263934469913 115.80848474311642,216.17492313499315 115.18412588021602,216.07252106279702 114.96348778577521,216.17492313499315 114.40954533600598,216.2110649844908 114.20768495174707,216.32551397384304 113.7100756324362,216.31346672617292 113.44718769015162,216.4279154424985 112.8463009649713,216.3435848390145 111.76188820306561,216.40984461282642 111.28775102147483,216.31346672617292 110.7244197166001,216.45200987019416 110.25497696251841,216.1809467787025 109.93575588977546,216.19901770471915 109.0109536642558,215.90988197544357 108.28801182299503,216.22913589784366 107.51343127878499,216.40984461282642 106.12857515431824,216.524293072187 105.89854820483015,216.45803347501715 105.10988437800552,216.64476480500525 104.40572024689754,216.51826947665904 104.24141528297332,216.59055256706415 103.80483352168812,216.5001986850475 103.57950099973823,216.32551397384304 103.14761366599123,216.31346672617292 102.58897678865469,216.37370293070126 102.22281144047156,216.51224588029436 101.86134051985573,216.46405707899248 100.72998348256806,216.61464690348657 100.33565156915574,216.8074011079807 99.70190385117894,216.8375188742466 99.22776666955906,217.10255430620964 97.57532817526953,217.0844837605473 97.33591237070505,216.95196619332637 96.69747022513184,217.12062484424678 96.38763800749439,216.9158249676293 92.35043032251997,220.19852883186104 91.4162392419239,220.7406025694945 90.74493610361242,221.25857774619726 90.69329740066314,221.4272194784353 90.31304876989452,221.67415796263595 89.85768929845653,222.3366688301503 89.36946883422206,222.77632948978862 88.79674867427093,223.05939629916975 88.61366600016481,223.32439332300783 88.30852821003646,223.4147328436593 87.94705728939152,223.6917728551307 87.32739285402931,224.36629758246272 87.18186560028698,224.4024325366736 86.7171172737435,225.1371700101845 86.2758410849201,225.4322659484278 85.39328870730242,225.69122601945128 84.92384595322073,226.0043849493195 84.32765365557862,226.5885406957059 83.48265669826651,226.98600294924472 83.29957402416039,227.2148431839887 82.29496653049137,227.93748855078957 80.9288881161483,228.6300122829707 80.63313918109634,228.8588437570761 80.32800139093888,229.2442413783756 80.06041902114521,229.88254858076834 79.72242023819126,230.23180699654768 79.49708771627047,230.68945165590412 78.88211770844646,231.05676818358552 78.5535077805689,231.52042554446962 78.21550899764406,231.66494110125495 78.12631487438921,231.83956341694284 77.64748326523113,232.24299846582653 77.36581761279376,232.27310540706458 77.14048509084387,232.49589611636475 76.61001477876562,232.65847239109644 75.60540728503838,233.52553546339186 75.01390941493446,233.86272193121113 74.62896635662764,233.81455259786526 73.81683039205382,234.05539872437294 73.6431365730532,234.19990575205156 73.75580283405725,234.1878635183093 73.6525254281587,234.1818424001649 73.66660871077329,234.29022239747064 73.51169260192546,234.45279188062705 73.38963748587412,235.17531547279214 73.4365817612852,235.63290746188068 73.15961053635692,235.87976427390822 73.0,236.63236775005862 73.0046944275382,237.1381098784841 73.12205511605134,237.7702791660995 73.31922107277205,238.12549401685465 73.2253325219499,238.5710135757763 73.4365817612852,239.3115291069662 73.37555420323042,239.85938197600262 73.60558115274762,240.3590658635003 73.56802573241293,240.52763261092696 73.72763626879896,240.93098607186403 73.6431365730532,241.1176110186825 73.82621924715932,241.59922003924294 73.81213596451562,242.12898372654672 73.99052421105443,242.616601347283 74.60549421887845,243.2486900267686 74.85899330608663,243.7483344978682 74.82613231331925,244.52487883035792 75.06554811788374,244.982371247439 75.1312701034476,245.86724407448128 75.12657567590941,247.46839620669925 75.02329827001086,248.31108389340807 75.06085369031643,249.31626830843015 74.84960445101024,250.19503302659723 75.30496392244822,250.21308964747004 76.26732156827347,250.98951716876036 76.55368164827814,251.09183602863777 77.46909501869231,251.0737797769507 78.05589846125804,251.20017337948593 78.9994783969305,251.65759473908838 79.30461618708796,252.07889957923908 79.68486481788568,252.35575479703766 79.97122489783214,253.0117741721624 80.25758497783681,253.33075245227155 80.45475093452842,253.7400041372457 80.7082500217366,253.968701911097 80.63783360863454,254.78117100446252 80.53925063027418,255.04597242778254 80.61436147091445,256.09312571251576 80.31391810832429,257.06803859943466 80.0557245935779,258.4762070710094 79.72711466572946,259.6917684013388 79.79283665132243,259.9204345137441 79.77875336870784,260.55828618878877 79.2013387811894,262.808743864578 78.76475701990421,263.57290992214257 78.72720159956953,264.3129948117785" stroke="#ff0f00" stroke-linecap="round" stroke-linejoin="round" stroke-width="0.5"><title>2021-05-03 34.6km</title></polyline><polyline fill="none" points="175.81623410555767,255.1870392795463 175.48702316670096,254.9821813827475 175.06845497299219,254.97615613574453 174.9085525169794,254.87372680796398 174.250130639266,254.77129723677353 173.36126110434998,255.132812283955 173.1355164605484,255.03038332840515 172.83922661558609,255.054484281005 172.35951924751862,255.25331662596 172.1902107646747,255.18101406118876 171.23079602856888,255.34971985703305 170.39365964118042,255.2171653587211 169.94687336700736,255.38587101309167 169.8340010451211,255.361770245745 169.36369970388478,255.64495341106158 169.14736108691432,255.50637464770261 168.9122104163107,255.56662633867745 168.56418742379174,255.27139224821076 168.19735237763962,255.36779543885496 167.95279568017577,255.19908971374025 167.5060094060318,255.2171653587211 167.31788886952563,255.1267870580159 166.56540672358824,255.26536704164755 166.26911687859683,255.21114014457999 165.8693607385503,255.30754346997492 165.62480404111557,255.2292157845186 164.96167914997204,255.33766946493415 164.57132903675665,255.2954930660744 163.86117401148658,255.50637464770261 163.48963595193345,255.79558199640815 163.00522557046497,255.93415983009982 162.5866573767562,255.83173277858077 161.67897578817792,256.0787623120268 160.86065145445173,256.61499228153116 160.0987632816541,256.4101411704032 159.9059397317469,256.50654181453865 159.43563839053968,256.50654181453865 158.226963943569,256.77164247440305 157.64849329384742,256.9644419304095 157.4133426232438,256.9102171705672 156.8207629332901,256.9885418017875 156.2940254311252,256.90419219304385 155.80020902282558,257.0668662907119 154.96777564883814,257.0487914212754 154.09301515415427,257.2777392074313 153.4110782093776,257.2777392074313 153.23706671313266,257.20544003789837 152.7949834523606,257.40426246236166 152.1694826685125,257.4825861960089 151.7462114614027,257.24761456819397 151.19125587880262,257.2355647066033 150.08134471345693,257.46451150087887 149.42292283574352,257.4524616999115 149.40881379551138,257.35003825572494 149.16425709804753,257.22953977454745 148.73628287756583,257.21146497331574 148.4635080996377,257.33196350501385 148.20954537537182,257.31991366700095 147.54171747082728,257.6332083607813 146.87859257968375,257.55488490077187 146.40829123844742,257.7296062700334 146.102595366654,257.7115316784875 145.8815537362825,257.8199791142288 145.6511060790799,257.7898548538833 144.68698832957307,258.01277388201925 143.99094234453514,257.8561281988623 143.40776868141256,257.97662492872405 142.94687336700736,257.8440785073544 142.4389479184756,257.97060010022324 142.26493642223068,258.139294979821 141.4560181153356,258.0368731673552 140.4401672182721,258.16339419443466 140.13447134644957,258.10314613261653 139.96516286360566,257.9826497563663 139.46194042850402,258.00072423427264 138.44608953144052,257.8501033535176 138.02281832433073,257.88625241289265 137.60425013065105,257.82600396378257 137.2609301515622,257.6211586069476 136.6354293677141,257.4102873700067 135.24333739766735,257.33196350501385 134.9658596063382,257.24158963781156 133.95471172270481,257.26568935427713 133.73837310573435,257.157240524175 133.48441038146848,257.157240524175 133.31039888519445,257.0066166964716 133.07054520118982,257.02469158359236 133.0611391743587,256.8921422354506 133.0,256.952391989671 134.15223828601302,256.4462914372016 134.38738895664574,256.2173392354198 135.00818672706373,256.03658663823444 136.6025082738197,255.0183328470448 137.02107646752847,254.86770154581245 137.49608082216582,254.54233613879114 138.2062358474068,254.21094292198177 138.4743076119048,253.9578772953755 139.48075248213718,253.54212339776132 139.70649712593877,253.28905384461905 141.9780526040995,252.18035067015808 143.33722348022275,251.08969635279936 143.7840097543958,250.87879316236285 143.95802125064074,250.87879316236285 144.81396969169145,250.2400514899782 145.30778609999106,250.06529976063757 145.57585786448908,250.0833775585961 146.02734715206316,249.95080686413712 146.67636300294544,249.4446240980069 147.49939035013085,248.99869625948122 147.62166869884823,248.81188728016423 147.88974046334624,248.70341717867268 148.0073157986335,248.50455461686215 148.68925274341018,248.2394031070544 148.86796725311433,248.05861705143616 149.10782093711896,248.05259083651254 149.32415955408942,247.8055152994566 149.72391569413594,247.67293759808672 150.54694304129225,246.78104064221407 151.27120710679446,246.443561304779 151.7415084480017,246.43150842241812 152.60215990245342,246.08197336758894 152.90785577424685,246.04581440698894 153.1477094583097,245.88309870889134 153.26998780699796,245.67819658546796 153.73558613483328,245.43110743491707 154.30465075769462,244.67777810952612 154.8925274342182,244.18961367458905 155.42396794984234,243.64117542886015 155.5086221912643,243.44831636484378 155.72966382163577,243.2976446204848 155.90837833131081,242.8456262262298 156.86309005401563,242.37552206598411 157.49799686466577,241.73062724576812 157.5732450792566,241.5437867561959 157.88364396445104,241.30872821528465 158.17993380944245,240.8144983824277 159.05469430412631,240.48902685990106 159.39331126981415,240.0430063357744 159.71781919526984,239.87424060907506 160.0987632816541,238.76519224419098 160.888869534916,238.3794295989901 160.98763281659922,238.22271253769213 161.26981362132938,238.05393968028875 161.78714509666315,237.36075851009446 162.1963072635699,236.98101105324167 162.5866573767562,236.33603547944585 162.67601463160827,235.67899435827348 162.9817105034017,235.09427961199617 163.07106775822467,234.55778178033142 163.2121581606043,234.44927578851275 163.45671485803905,233.97305181448974 163.45671485803905,233.7258955248326 163.29210938862525,233.43051175744404 163.35324856295483,233.1411542661699 163.58369622015744,232.70711438454964 164.1292457760137,232.2429280045144 164.35028740638518,231.90533476786732 164.66538930498064,231.7787366219527 165.32851419612416,231.1276545651017 165.72827033617068,230.91062502566638 165.85995471171918,230.51273469633088 166.76763630029745,229.71091422891914 166.92283574290923,229.68077031117718 167.4072461243777,228.98142549685872 167.59066364745377,228.86687655697824 167.95279568017577,228.276040344208 168.70998083960149,228.28206932608373 169.6646925622772,227.78166095774213 169.96568542066962,227.5646145563005 170.00330952793593,227.38374171947726 170.2525692388299,227.22095551679377 170.36544156068703,227.0400812365806 171.2402020554,226.37686904275324 171.4001045114128,226.03922982050426 172.08204145618947,225.78599866652075 172.78749346802942,225.17100252127784 173.67165998957353,224.65246953484166 174.0620101027598,224.56202709534773 174.60755965861608,224.26658046917873 175.9197004006419,224.013338890436 176.72391569413594,223.97716140048215 177.32590141089167,223.75406620732974 177.9184811008745,223.6756811353298 178.7132903675374,223.19933801403022 179.5269116878626,222.4154707739399 179.90315276084584,222.22854647866552 180.04424316319637,222.02956165973228 180.98014283226803,221.8546954536214 181.07420310052112,221.8667552147781 181.05068803342874,221.92705396987003 181.1353422748798,221.84866557177156 181.51158334786305,221.83660580556534 182.78139696916332,222.7410788986781 183.096498867817,222.80137642935733 183.70318759797374,222.72298962301647 184.7049294548051,222.98829823782216 185.30221215815982,223.33199105823587 185.53265981536242,223.71788849951918 186.00296115659876,224.10981204844575 186.22400278697023,224.68261697245543 186.4779655112361,224.97203129966147 186.69430412820657,225.44835481138944 186.92004877197905,225.56894220640243 186.96237589270459,225.71967597533876 186.84950357081834,226.22613757422732 186.88242466468364,226.6361259345067 187.0,226.9074396149408 186.55321372585604,228.71012488233828 186.27103292109678,230.2836446574147 185.9794460895355,231.27234031718035 186.0499912906962,232.17661525614676 185.8242466469237,233.06881458963835 185.4244905068772,233.83440333882754 185.37746037277975,234.64820323136883 185.20815188990673,234.907410339114" stroke="#ff8a00" stroke-linecap="round" stroke-linejoin="round" stroke-width="0.5"><title>2021-05-02 22.6km</title></polyline></svg>