<?xml version="1.0" encoding="utf-8" ?>
<svg baseProfile="full" height="300mm" version="1.1" viewBox="0,0,200,300" width="200mm" xmlns="http://www.w3.org/2000/svg" xmlns:ev="http://www.w3.org/2001/xml-events" xmlns:xlink="http://www.w3.org/1999/xlink"><defs /><rect fill="#222222" height="300" width="200" x="0" y="0" /><text fill="#FFFFFF" style="font-size:12px; font-family:Arial; font-weight:bold;" x="10" y="20">Over 10km Runs</text><text fill="#FFFFFF" style="font-size:4px; font-family:Arial" x="10" y="280">ATHLETE</text><text fill="#FFFFFF" style="font-size:9px; font-family:Arial" x="10" y="290">DingXiaoshan</text><text fill="#FFFFFF" style="font-size:4px; font-family:Arial" x="120" y="280">STATISTICS</text><text fill="#FFFFFF" style="font-size:3px; font-family:Arial" x="120" y="285">Number: 15</text><text fill="#FFFFFF" style="font-size:3px; font-family:Arial" x="120" y="290">Weekly: 1.2</text><text fill="#FFFFFF" style="font-size:3px; font-family:Arial" x="141" y="285">Total: 332.0 km</text><text fill="#FFFFFF" style="font-size:3px; font-family:Arial" x="141" y="290">Avg: 22.1 km</text><text fill="#FFFFFF" style="font-size:3px; font-family:Arial" x="167" y="285">Min: 10.0 km</text><text fill="#FFFFFF" style="font-size:3px; font-family:Arial" x="167" y="290">Max: 36.1 km</text><polyline fill="none" points="48.898373532283586,65.97431394633895 46.338141151936725,62.8245368758071 45.521045711415354,60.63893760224164 43.06975938985124,56.17121442010102 41.85773448640248,53.19801400366123 40.19630709069315,50.08010677996208 41.31300419266336,48.5532724083605 42.307136978721246,48.36040799059265 45.480190939386375,46.54425563981931 45.11249799118377,45.78885822815937 45.221444049908314,44.95309486390033 44.93546064570546,45.7084965728136 45.04440670443,46.06208752756356 44.56776769750286,46.49603889985883 44.18645649187965,46.3031717815029 43.314888022025116,46.33531631882943 42.947195073764306,45.91743678529747 41.244912905967794,45.419194249639986 40.50952700950438,45.6281348735065 39.47453945153393,46.47996664965467 38.439551893563475,46.271027237176895 38.45317015086766,45.78885822815937 39.80137762776576,44.31019673302944 38.031004173273686,42.17254021849658 37.09134441666538,40.24380088025646 34.803477183158975,38.668644968929584 33.8229626545799,37.60781616388704 32.120680486783385,37.25420485972427 30.09156014281325,36.305879432489746 28.797825695364736,34.457430918177124 25.720099536003545,32.40000000000873 23.636506162700243,32.40000000000873 22.05678831099067,32.994729085985455 19.496555930643808,34.40921021084068 16.160082881862763,34.87534305207373 15.928572507051285,35.03607817158627 15.710680389543995,35.855824545215 15.329369183978997,41.04744534860947 15.737916904268786,43.040464659323334 15.588116073457059,44.66379105321539 15.792389933601953,46.36746084909828 16.282647197891492,47.46037069366139 16.77290446223924,50.89976921312336 17.467435586673673,56.07478724242537 17.195070439891424,57.19976704493456 17.290398241195362,58.16402859224763 18.352622313948814,64.15837928411202 24.834912808786612,64.8494013135205 25.869900366815273,65.65291121556947 29.15190038626315,69.46148839172383 31.235493759566452,69.34900018491317 31.970879656029865,69.62218568068056 32.91053941263817,70.37746058529592 34.245128632115666,70.36139094689861 39.20217430469347,71.5666089522565 40.645709582953714,71.53446993371472 42.388846522720996,70.85954892063455 45.15335276321275,71.43805283588881 47.5501660554437,72.75574769859668 48.35364323860267,73.65563008475874 49.0617926203995,75.00544333433209 50.90025736158714,75.60000000000582 51.30880508181872,75.18220367537288 52.01695446361555,73.26996687961218 52.670630816021,71.13273160879908 52.670630816021,70.34532130671141 52.248464838427026,69.0597444006853 51.172622508427594,67.87057575116341 49.810796774108894,66.87423785326246 49.252448223182,65.81361266877502" stroke="#4dd2ff" stroke-linecap="round" stroke-linejoin="round" stroke-width="0.5"><title>2023-10-08 10.0km</title></polyline><polyline fill="none" points="100.21927015372785,65.62378167808856 100.15282465261407,65.91630770182019 100.56921645969851,65.95809698790981 101.11406956898281,66.43867115697503 101.16722596989712,68.09452565284664 101.0697725682403,68.37658979717162 101.14064776943997,68.51762124642846 99.36876773927361,69.78166236166362 98.78847702938947,70.12117185405441 97.80508361262036,70.55991901833477 96.05535208279616,71.12401661031618 93.60572794105974,72.30442155868514 92.54259992294828,72.74314872688046 90.58910218966776,74.14287045341553 89.76074827558477,74.62858522625174 88.38311155210249,75.59999999999854 88.12618894770276,75.57910956691921 87.92242274424643,75.27097462106394 87.78953174196067,73.7250473540953 88.11289984747418,71.21280914466479 89.26019216704299,68.51762124642846 90.181569782726,65.91108403848921 91.25798690106603,63.61784080380676 91.2181196003803,62.949175171415845 92.38313072023448,60.603547673930734 93.80063474440249,58.71755892186775 94.46066005562898,57.71445430262975 97.02988609939348,51.92006879052133 98.3322179215902,49.276049332234834 98.94794623207417,47.66657464576929 99.72314374527195,45.989109962782095 100.42746605729917,44.9700606408187 104.12183592020301,40.98249486843997 105.05207293608692,40.35532451700419 105.65008244625642,39.38842077722438 108.55153599570622,36.173978622162394 111.1872075406136,32.41568196801745 111.34224704324151,32.39999999999782 112.03770995509694,32.7554566787112 112.21046825803933,32.92272949530161 112.05542875538231,33.83226519183518 111.75863885032595,34.73132944842291 111.4042628442985,36.18443244282389 110.42972882767208,39.21594400139293 109.45076511101797,41.46331990136605 109.34002260913257,41.87619840892876 107.33779817502364,46.365368840448355 106.0443257529696,49.00432363850996 104.41419612520258,51.277366038593755 103.65671741229016,53.388324806364835 102.07974418543745,55.67683332629167 101.82282158106682,56.173184888826654 101.37099217335344,58.08539648097576 101.48616437532473,60.64534159702089 101.31340607238235,63.55515379742792 101.41971887418185,63.59172122778182 101.40642977398238,63.82157300770268 101.5038831756392,63.79022964814794 101.41085947403917,63.842468569349876 101.31340607238235,63.560377717760275 101.30897637229646,63.97306562303129 101.53489107615314,65.80138697704024 101.25581997138215,65.63422906685446 101.21595267072553,65.92675502676138 101.33555457275361,66.23495008721875 101.24696057123947,66.32375168571889 100.9590300663258,66.30808082735166 100.4673333579849,66.01555719674798" stroke="#ff8000" stroke-linecap="round" stroke-linejoin="round" stroke-width="0.5"><title>2023-07-30 23.0km</title></polyline><polyline fill="none" points="162.59258196983137,70.93767727971499 161.81766558869276,71.21962234333841 158.61615391122177,72.70241720679041 154.3341873937461,75.59999999999854 154.09064224539907,75.54257213391611 153.90023422031663,75.1353543809928 153.785103786533,73.55865811813055 153.95337134361034,72.09155305327295 154.21462886637892,70.91679239415316 155.26851514470764,68.46797640883597 156.15856195962988,65.93026522138825 157.15488302108133,63.789293138488574 157.12388636582182,63.26186824177421 157.23901679960545,62.9015449213548 158.47888300940394,60.452318873005424 159.8427358402114,58.64012425088731 160.44052847707644,57.72094455052502 162.84055521179107,52.29951415436517 164.3018261019315,49.30649601023106 165.24501004011836,46.97672223677364 165.31143144422094,46.89314079974429 165.45313043962233,46.96105072845967 165.45313043962233,47.12298940010078 165.28043478896143,46.85135002643801 165.3158595378045,46.914036172700435 165.2848628825741,46.85135002643801 165.32028763141716,46.8983646438428 165.55940468615154,46.28717101247457 166.19705016550142,45.237153459340334 170.09377253917046,40.98983227027202 170.81555179704446,40.56142222314884 171.07680931984214,40.31586839209194 171.62589292702614,39.40156112118348 174.10119725303957,36.71600893210052 174.61042801779695,36.07855999016101 177.18757849675603,32.41045085559017 177.3425617729663,32.39999999999782 178.11305006049224,32.812807058217004 178.2148962134379,33.068850150564685 177.1167289990408,37.09742923365775 176.49679589414154,38.99926038197009 175.49604673907743,41.334647324601974 175.29678252679878,41.96157741560819 172.9764614769956,47.14910848933141 171.9978527899657,49.060987083274085 170.368314342777,51.322755695287924 169.60668224247638,53.45383934810161 168.08341804184602,55.6370569967512 167.7955919574306,56.20634857193363 167.36163878400112,58.11264260446478 167.4723411241721,60.69776935192567 167.34392640955048,61.99289145938019 167.2996454735112,64.00861663223986 167.51219396659872,65.81016444453053 167.24650835021748,65.6378454123369 167.20665550776175,65.93026522138825 167.32178594151628,66.23312671200256 167.24208025663393,66.31145264773295 167.1490902908845,66.25923537147901 166.9542541721894,66.31667437222131 165.88265551941004,65.6430672103088" stroke="#ff9300" stroke-linecap="round" stroke-linejoin="round" stroke-width="0.5"><title>2023-07-29 21.0km</title></polyline><polyline fill="none" points="34.29546492669033,120.11271929259237 34.36933115834836,119.97571679790417 33.588459566410165,119.62698243098566 33.303546958602965,119.07896912412252 33.36686087149428,116.86197927185276 33.01863435073756,115.75346815098601 32.73372174287215,115.3050785632513 32.195553483616095,115.34244442969066 31.868431600451004,114.98124054010259 31.615175949060358,115.03106183440104 31.6362805867102,115.39226556588983 31.25639710953692,115.80328910725802 30.644362618622836,115.89047572821437 30.011223490000702,116.36377336232545 26.95105103525566,117.49718864353054 25.9063714731019,118.15730443027132 25.24157538812142,119.19106296972313 24.028058725059964,118.71777709286835 24.534570027899463,118.28185414939071 25.811400603910442,117.7338343658339 26.613376833382063,116.55060083395074 27.94296900340123,115.41717612579669 27.39424842526205,115.4296314036983 27.679161033127457,115.11824904695823 27.04602190456353,114.86914254815201 25.790295966202393,114.79441049216257 25.42096480797045,115.18052558645286 25.083290606038645,116.11466958972596 23.500442784570623,117.13599159247678 23.416024234087672,117.54700883650366 23.605965972703416,117.75874441321503 24.58733162190765,118.29430911377858 24.07026800030144,118.59322785079712 25.811400603910442,117.74628939020477 26.486749007657636,116.6626971697624 27.911312046984676,115.46699722925405 27.362591468845494,115.4794525017569 27.647504076710902,115.05597247338301 26.982707991730422,114.89405322255334 25.9063714731019,114.80686583825445 25.505383358395193,115.00615118996211 24.682302491215523,113.5115025458872 24.502913071482908,112.07911250810139 23.975297130993567,111.41896146480576 23.954192493401933,111.05774512202333 23.500442784570623,110.27302980565582 22.87785597483162,109.96163333910226 22.476867860066704,110.14847132127761 21.843728731560986,109.96163333910226 21.76986249984475,109.42602942330996 21.147275690047536,109.45094128923665 20.725182937749196,108.76586298873735 20.00762525870232,108.49183051363798 18.941841058898717,108.76586298873735 19.34282917366363,107.38323785677494 19.226753666764125,106.42410965259478 19.92320670816116,105.75146946559107 21.31611279101344,106.15007153787155 22.50852481648326,106.7355158000064 23.215530176763423,106.66077840234357 24.576779303199146,105.90094540632708 24.81948263576487,105.53971154671308 25.072738287155516,104.1196776729048 24.977767417905852,103.65878567627806 24.006954087410122,100.75636885305721 23.47933814697899,99.97158248878986 23.09945466980571,98.77570714296598 23.141663945047185,98.48919347469928 24.14413423195947,97.7293059033982 24.006954087410122,97.16872985150258 24.112477275542915,96.50849229226151 25.188813794055022,92.79614183923695 25.16770915646339,92.29783054243308 24.80893031693995,91.74968559453555 25.019976693147328,90.69076173754729 24.576779303199146,89.9681962708346 24.74561640410684,89.73149279221252 25.431517126678955,89.3079169168559 25.600354227644857,88.97154671567114 26.00134234240977,89.02137940085959 26.402330457174685,90.4291437365755 27.753027264785487,91.21399593424576 27.974625959817786,91.21399593424576 28.533898856665473,90.5661818121298 29.325322767428588,90.09277685117559 29.76852015737677,90.4416017502881 29.884595664276276,90.92746321991581 30.412211604765616,90.84025746792031 31.973954788583796,91.74968559453555 32.45936145383166,91.81197492620413 32.56488464190625,91.56281739493716 32.57543696073117,91.861806366971 33.810058261384256,91.17662214289157 34.86529014236294,90.9772950481638 34.90749941760441,89.9931123977949 35.46677231451031,88.80959033809631 37.40839897544356,87.37688926231203 38.410869262355845,86.3054662284776 39.86708925804123,85.95662864405313 41.42883244185941,84.83535773314361 43.19106968306005,84.13767247601936 44.20409228873905,83.30293627679202 44.65784199757036,83.46490049601562 45.81859706656542,83.46490049601562 47.148189236584585,82.99146597616345 48.14010720467195,83.10359538266493 48.61496155109489,82.54294724461215 48.57275227585342,81.75803520788031 49.279757636075374,81.42164267660701 49.60687951918226,80.94819965053466 50.38775111112045,80.39999999999418 50.21891401009634,80.6741001555929 49.807373576564714,80.82360905293899 50.3560941547039,80.512131961681 50.57769284961978,80.5744274482131 51.30580284749158,81.32197062436899 51.41132603562437,81.79541209437593 51.91783733846387,82.28131050094817 52.05501748295501,82.7547479771747 52.43490096007008,82.81704223521228 52.550976467027795,83.0662189260911 52.688156611518934,85.85696056627057 52.51931951055303,86.60446902067633 52.14998835226288,86.84117900703131 51.23193661583355,86.96576301249297 50.76763458823552,87.72572249071527 50.4194080674788,87.98734670985141 49.22699604200898,88.37355279069743 48.699380101577844,88.24897032725858 47.91850850969786,89.34529132228636 47.12708459899295,89.71903470075631 46.989904454443604,90.92746321991581 46.45173619518755,91.87426422374119 43.33880214637611,92.85843059787294 41.17557679046877,93.81767317337653 40.637408531154506,95.66138943439728 39.951507808524184,96.49603494301118 39.61383360665059,97.4427895997942 39.27615940471878,97.8289635789697 38.474183175188955,97.928621167237 38.125956654548645,98.57639336318243 37.27121883089421,98.41445065998414 36.40592868858948,99.03730594903027 35.48787695216015,98.97502057356178 34.474854346422944,99.26153301827435 33.34575623378623,99.13696247879852 32.913111162604764,99.27399006474297 32.37494290334871,99.72244282836618 32.39604754099855,100.76882573582407 31.119216964987572,101.79028548172937 30.475525517656934,103.57158968311705 29.895147983159404,104.26915575739258 28.787154508172534,105.01654323404364 25.48427872074535,105.32795323376195 23.321053364838008,106.67323463867797 22.75122814910719,106.77288448041509 22.07587974530179,106.7355158000064 21.18948496528901,106.19989669873758 20.123700765601825,105.83866378822131 19.511666274629533,106.02550854026777 19.2689629420056,106.33691577859281 19.437800042913295,107.1216582392226 19.173992072755937,108.36727007955051 17.92881845321972,110.77126237974153 17.47506874438841,111.07020087708224 16.926348166307434,111.07020087708224 16.5148077327176,111.30685996393004 16.250999762502033,112.09156815137248 15.470128170622047,112.88872648387769 15.311843388422858,113.6609682936396 15.311843388422858,115.15561497477029 16.272104400151875,115.52927357794397 17.211260774172843,116.58796629148856 20.556345836725086,119.29070185093587 23.04669307579752,123.59999999999854 25.674220459302887,123.25127673702082 31.720699137134943,121.80655469467456 32.07947797665838,121.6570996437149 32.20610580238281,121.24609724169568 33.75729666737607,120.74791052228102 33.91558144951705,120.47390689715394" stroke="#4dd2ff" stroke-linecap="round" stroke-linejoin="round" stroke-width="0.5"><title>2023-06-17 17.5km</title></polyline><polyline fill="none" points="79.44548444218526,102.53874746009024 80.45818365797459,102.0304544009523 80.36347078168183,102.37911889889438 80.50554009611369,102.81179490535578 80.3998988110252,102.91681267989406 80.5091828990553,103.12264675466213 80.0028332911752,103.48810476412473 79.69683784466179,103.17725562524356 79.58391095369007,102.94621760960581 79.4709840627329,102.9798232182984 79.38355679230881,102.91681267989406 79.28520111307444,103.00922810380507 79.28520111307444,103.17725562524356 79.1504174044967,103.34948313564018 78.39999999999418,104.05518847036001 78.46557045281224,104.17280487101743 78.6331393878063,104.27781923557268 79.54748292433214,104.49204772347002 81.5874525676627,105.60517812488615 82.26501391347847,106.23523883688176 82.29779913988023,106.38645199872917 82.21765747532481,106.57966802293959 82.77864912722725,106.93249498683872 83.50356691119669,106.97029769970322 83.88241841638228,106.92409437934475 84.21755628634128,107.01650096916637 84.67654945611139,106.51246255031583 85.29582595496322,106.20163583795511 85.7766759423248,106.43685626480874 86.24295471791993,106.8988925467711 86.70559069060255,106.60066971105698 87.17186946621223,107.08790592178775 87.99514292940148,107.57093623102992 88.1699974702642,107.62133907308817 88.39949405513471,107.47433061436823 88.76741715151002,107.58353694722246 89.25190994179866,107.56673599144415 90.3921072603116,107.42812784946727 90.39939286616573,107.32312137621193 90.81467240068014,107.25591709532091 91.02231216797372,107.37772477512772 91.53230457879545,107.42812784946727 91.81280040473212,107.51633308374949 92.06415380722319,107.68014231225243 92.34464963317441,107.96995707178576 92.53407538577449,108.69238514316385 92.71257272954972,108.98219290617635 92.74900075889309,110.04060424260024 92.71257272954972,109.452601242745 92.72714394128707,109.22999795552823 92.78907159119262,109.183797125188 93.02585378191725,109.28879893869816 93.222565140386,109.57020250233472 93.63055906904629,109.61640290692594 94.03855299770657,109.38120031708968 94.08955223878729,109.22579788213989 94.33362003539514,109.25519838697437 94.50483177331625,109.20479750892264 94.6687579053687,109.01159358182849 95.33174803943257,109.09559539863403 95.45924614215619,109.16279673093595 95.60495825952967,109.39800054582156 95.83445484440017,109.494601730461 95.96923855297791,109.68360340458094 96.43187452566053,110.0112042884175 96.76336959270702,110.35140249744654 97.25150518592272,109.88100424361255 97.2442195800395,109.74660377332111 97.43000252969796,109.72140363717699 97.96913736400893,109.35179990059623 98.68676954209513,109.05359451127151 99.53918542877364,108.77638759947149 100.43895775360579,108.63358332362259 100.75588160888583,108.51597943713932 100.82873766757257,108.56638114315501 101.156589931692,108.53698015534246 101.33873007840884,108.58318169837366 101.60101188969566,108.53278001253784 101.86329370096792,108.26396999823555 102.06364786236372,108.21776810347728 102.32592967365053,108.02455962830572 102.58456868199573,107.68854276825004 103.0180622311891,107.58353694722246 103.24391601313255,107.28951924923604 103.39691373638925,107.75994657633419 102.91606374902767,108.24296914328806 102.56271186438971,108.48237826613695 102.51535542625061,108.54118029772872 102.52628383504634,108.70918564788735 102.90513534023194,108.86458999746174 103.43334176571807,109.3728002001917 103.96883379711653,109.56180242328992 104.0963318997965,109.7844039491174 104.53346825193148,110.0448042343669 105.54616746773536,111.21658550832944 105.98330381987034,111.37618042446411 106.1836579812516,111.2837834417769 106.96321780922881,111.14518758605118 107.385782949641,111.2837834417769 108.60976473563642,110.88059422594961 109.3346825195913,111.02759074321875 109.61517834554252,111.15358734792244 110.52952188209747,111.0779894305233 110.94844421956805,111.245984617457 111.50943587147049,111.3047827738992 112.01942828229221,111.19138625551932 112.99934227167978,110.73779711579482 113.65140399693337,110.67059830748258 113.96468504931545,110.68319809223613 114.39453579558176,110.87219440939953 114.88267138879746,111.30898263906784 115.11581077659503,110.99819148097595 115.63673159624159,110.85959468142391 116.2632937009621,110.91839337959755 116.56200354159228,111.00239137686003 117.10478117884486,110.6285989975986 117.10113837590325,110.34720253637715 117.25777890208701,109.98600431130399 117.39620541359182,109.83060411773113 117.56741715151293,109.75500381532402 117.48727548695751,109.73820372962291 117.49456109281164,109.68360340458094 117.66941563367436,109.57020250233472 117.70584366303228,109.44000108823093 117.84791297746415,109.38540037491111 117.86976979507017,109.20899758440282 118.0009107007063,109.1417963261556 117.93534024790279,109.0787950487429 117.94626865669852,108.919191388959 117.82605615985813,108.85618977708145 117.88798380973458,108.56638114315501 118.16847963570035,108.27237033726851 118.43804705284128,107.68854276825004 118.75861371109204,107.51633308374949 118.75497090815043,107.31052058175919 118.88975461672817,107.12990877829725 118.83875537564745,106.86529007978606 119.03910953702871,106.76448251722104 119.27589172778244,106.79808506500558 119.53088793320057,106.73928058870297 119.8113837591518,106.9282946833082 120.08095117630728,107.02070126385661 120.3760182140104,107.28951924923604 120.47437389321567,107.1887127067057 120.61280040473503,107.22231491447383 120.60915760179341,107.0669044777569 120.72572729570675,107.15511047200198 120.8495825954742,106.96189709979444 120.83865418667847,106.83168758585089 121.12279281555675,106.82328695817705 121.23936250947008,106.95769679921432 121.31586137108388,106.96189709979444 121.59999999999127,106.66787504229796 121.55992916767718,106.42845555801614 121.1082216038194,106.16803281209286 121.01350872752664,105.95381288907083 121.00986592459958,105.58837637627948 121.25029091825127,105.44976169326037 120.88236782189051,104.9121004040644 120.72208449276513,104.47524552870163 120.75122691625438,104.26101695491889 120.93700986591284,104.16440371048884 120.92972426002962,104.09299377799107 120.72937009863381,104.02578431863003 120.4379458638723,103.79055036221325 120.52173033135477,103.58471956740686 120.80951176318922,103.21086104869028 120.72937009863381,103.04283366197706 120.8167973690579,102.88740772954043 120.72937009863381,102.80759418890739 120.4816594990989,102.82859776696569 120.35051859344821,102.67317104005633 120.35780419931689,102.31190669124408 120.1028079939133,101.86242228181072 120.16473564378975,101.63557785227385 120.15745003793563,101.54736024252634 120.0736655704386,101.48014670092743 120.16837844673137,101.29530890571914 120.1501644320524,101.18608618898725 119.97530989118968,101.0096488913805 119.93159625597764,100.87521997556178 119.68024285351567,100.77859892595734 119.8113837591518,100.69458044087514 119.04275233997032,100.53914579939374 118.8059701492457,100.37530866127418 118.68940045533236,100.4215192009724 118.63475841132458,100.19886794999184 118.44897546165157,100.1694610925515 118.42711864404555,100.0770394062638 118.24133569438709,100.00982350637787 118.58011636730225,99.74936087593596 118.5655451555649,99.45948927082281 118.23769289146003,99.3376585773949 118.41619023524981,99.26624042002732 118.13933721222566,99.36706601858532 117.9863394889835,99.35446283203419 118.091980774072,99.04358303039044 117.78598532757314,98.84193003386099 117.73862888943404,98.73690204714148 117.80419934223755,98.49743725299413 117.78598532757314,98.31258630047523 117.4508474575996,98.46382804956374 117.2395648873935,98.2663734349153 117.03192512014357,98.2621722627955 116.90806982036156,98.40921303648065 116.736858082455,98.42601766346343 116.67857323550561,98.37560376227702 116.68221603843267,98.45122459131744 116.50736149756995,98.32518980041641 116.47093346824113,98.19915463038342 116.27422210978693,98.13193571801457 115.78972931948374,97.80844319390599 115.52016190232825,97.56477185113908 115.38902099669212,97.33370288937294 115.17409562357352,97.28328767380299 115.16316721476323,97.16145065239107 114.75153048314678,97.1782557798615 114.61674677456904,97.35050794773633 114.44917783960409,97.40512434090124 113.98654186692147,97.23707367290626 113.77890209965699,97.02700938998169 112.22706804957124,97.85885777754083 111.33822413354937,98.66548286578472 111.12329876043077,98.52264413786907 110.79908929925296,98.47643150400472 110.04502909180883,98.49323610403371 109.76817606878467,98.35459795220595 109.29825449023338,98.30838513297931 108.68990640019183,98.66968399747566 108.40212496835738,98.75370654269864 108.15805717174953,99.23683290807458 107.92491778393742,99.19062106187266 107.53513786994154,99.21582752975883 107.33114090563322,98.95115886077474 107.0215026562073,98.79571775213844 106.99600303564512,98.64447720104727 106.75193523903727,98.37140260110391 106.62443713634275,98.31678746754551 106.1836579812516,97.66560154416948 105.96144700226432,97.4471369025814 105.88494814063597,96.98919770720022 105.72102200858353,96.72871629847214 105.1782443713455,96.27497062188195 104.50796863141295,95.9430609498595 103.92147735894832,95.40107621203424 103.7939792562247,95.44309078352671 103.40055653933086,95.41368058790977 102.82863647860358,95.56073135951374 102.72299519350054,95.52291835325377 102.65378193774086,95.45149369276987 102.65742474068247,95.30444253771202 102.18386035920412,95.10277154275536 102.12193270929856,94.9893311814194 102.17293195040838,94.92630862570513 102.18021755627706,94.57758210351312 101.9944346066186,94.50195428187726 101.76129521879193,94.20364320943554 101.47351378698659,93.77928154420442 101.50265621044673,93.6490310618392 101.29137364025519,93.66163596494152 100.9598785732378,93.25827718446817 100.81052365290816,93.24147048431405 100.7158107766154,93.33810891809117 100.53731343281106,93.37172223410016 100.32603086261952,93.55659498993191 99.55739944343804,93.6826441283265 99.47725777888263,93.62382124428404 99.1457627118507,93.63222451849288 98.9964077915356,93.57760320600937 98.75962560079643,93.28768889350613 98.61027068049589,93.21626042144999 98.39534530733363,93.22886545476649 97.97278016695054,93.45155375148897 97.99463698455656,93.0944115703096 97.49557298253058,93.01037767332309 97.41178851503355,92.8843265117248 97.46643055905588,92.80449391314323 97.33893245634681,92.88852822321496 97.20414874776907,92.86331794789658 97.14586390083423,92.93894872832243 96.7888692132401,92.76667841860035 96.4974449784786,92.79609047285703 96.34444725523645,92.62381957553225 95.15325069567189,93.1490335129347 94.63232987603988,93.26247885846169 94.51940298506815,93.44315044104223 94.36276245888439,93.45575540608843 94.57404502906138,93.58600648949141 94.57040222614887,93.91793483840229 94.52304578798066,93.95574929353097 93.8017708069674,93.6700392315579 93.76534277762403,93.91373323017979 93.49577536046854,94.1994416298694 93.52491778394324,94.25826370553477 93.40470528710284,94.42212476646091 93.47391854286252,94.50615583109902 93.3609916518908,95.06495812310459 93.22985074625467,95.24982340578208 93.23713635212334,95.61535008606006 93.33913483428478,95.86743559344904 93.30634960788302,95.98087357687109 93.10963824941427,96.15313066801536 93.16792309637822,96.53965619713563 93.08413862888119,96.57746828565723 93.0404249936546,96.84215194973876 92.64335947379004,96.91357423924637 92.49036175054789,97.40512434090124 92.53043258283287,97.64459537813309 92.90564128507685,97.86305899011131 93.15699468756793,97.8840650466118 93.22620794332761,97.9638879652739 93.21892233745893,98.09412503242493 93.40106248416123,98.1151309730667 93.51398937516205,98.0647166978124 93.54313179860765,98.20755698685389 93.38649127243843,98.30838513297931 93.43020490765048,98.5184429914625 93.29177839614567,98.56045443677431 93.30999241081008,98.66128173367179 93.19706551983836,98.98476767331886 92.98578294964682,99.08559394917393 92.73807235009735,99.4972987243309 92.76721477357205,99.7157526766714 92.91656969388714,100.05603444912413 92.76357197064499,100.28288742896257 92.41386288893409,100.25348063049023 92.3555780419847,100.54754768664498 92.10422463949362,100.56015051436407 92.02408297493821,100.74079062852616 92.0350113837485,101.00544799428462 91.87472805463767,100.97184080239094 91.75451555779728,100.87101906499447 91.65251707563584,100.46352873832075 91.4412345054152,100.29128936760753 91.32830761445803,100.31229420681484 91.09881102958752,100.17366207345913 91.11702504425193,100.02662749145384 91.05874019730254,99.97201451530418 90.7272451302706,99.82918024119135 90.59610422460537,99.67794342025081 90.37389324561809,99.84598429870312 90.18811029595963,99.86278834947734 89.96225651403074,99.48469557695353 89.85297242598608,99.4468861120622 89.54333417656017,99.50570082048216 89.29926637995231,99.65693826308052 89.02969896279683,99.62753102531497 88.77834556033486,99.76196394371073 88.54884897546435,99.745159852504 88.1226410321251,100.0854413861598 88.0461421704822,100.56435145608702 87.95142929418944,100.71138415138194 87.6818618770485,100.87521997556178 87.6199342271575,100.97184080239094 87.39408044522861,100.87942088571072 87.05529977231345,100.90882724495532 86.62180622310552,101.22809495986803 86.19195547683921,101.44653988971186 85.96245889196871,101.42553561901514 85.81310397165362,101.34571929435333 85.68924867188616,101.3667236050569 85.56903617506032,101.2238940846837 85.42696686059935,101.21549233303449 85.13189982291078,101.05165783914708 84.97525929672702,101.06846140644848 84.83683278520766,100.95083629377405 84.5417657475191,101.11047029526162 84.30498355677992,101.06005962363633 84.1629142423335,101.34571929435333 83.97348848974798,101.37512532639448 83.88606121932389,101.50955263864671 83.76584872246895,101.44653988971186 83.48899569945934,101.54315939934168 83.45621047304303,102.12707256440262 83.34692638502747,102.08086390533208 83.29592714394676,101.87082390375872 83.21942828230385,102.13967491713265 83.02271692384966,102.08926548348973 82.92800404754234,102.12707256440262 82.91343283581955,101.98424563534354 82.47993928659707,102.0598599525365 82.39979762205621,102.01785201538587 82.30872754869051,101.6691845119094 81.99544649632298,101.59356948983259 81.91530483175302,101.95063922836198 81.82059195546026,102.00945042290186 81.68945104980958,102.03885598921988 80.72775107513007,101.92123360014375 79.48191247152863,102.50094075055677" stroke="#ff0000" stroke-linecap="round" stroke-linejoin="round" stroke-width="0.5"><title>2023-04-15 36.1km</title></polyline><polyline fill="none" points="147.34540921624284,112.34780069969929 147.20410328533035,111.58713956685824 147.2217665266944,110.70142295410915 147.03630249240086,110.21687690221006 147.06279735444696,110.09183196026424 148.8776954044297,108.92994035760421 150.06996419635834,108.25780179163485 150.38348673054134,108.33595792580672 152.87841957295313,111.56108931313065 154.17225200275425,112.29570100927594 157.56359434433398,114.73911521368427 160.99909478929476,117.08863423816729 162.85373513231752,118.7712563265959 163.17167347684153,118.92753400297443 164.4213478032325,119.83393442782108 169.9278632979549,123.5270776251491 170.13540638392442,123.59999999999854 170.55049255595077,123.03224427971509 170.86401509013376,122.40197542821261 172.2770743991132,117.9794415625438 172.92619851918425,116.74480941662114 173.4605115703598,116.15613389077407 176.71937960173818,113.32726428352544 180.9408942873124,108.3463787340188 184.96369750759914,102.04658452156946 184.85330224907375,101.8746181641327 180.06656383990776,97.4032749986909 178.3311503760633,95.46452025992039 177.7835898938065,94.95897177927691 171.57937636532006,90.67462386543775 171.45573367577163,90.75802117699641 171.1333795209066,91.73792864794086 170.19281191835762,93.03054170464748 169.65408305681194,93.97913057980622 169.5878459016967,94.04688620509114 169.49069807422347,94.01561439001671 169.17717554004048,93.5048385038317 168.40440873042098,89.77809354176497 168.2366079375206,89.3246095660943 167.8921747309214,88.81378336359558 167.8921747309214,88.65740689989616 172.542023019545,84.91464361906765 173.1690680879401,84.34121378068448 173.6813020874106,83.60617088605431 175.33281515480485,80.40521346130481 175.51386337875738,80.40000000000146 175.721406464756,80.54597670045769 177.6996894973563,82.29244893146824" stroke="#ff9100" stroke-linecap="round" stroke-linejoin="round" stroke-width="0.5"><title>2023-03-19 21.3km</title></polyline><polyline fill="none" points="37.6943710729538,148.86581892614777 37.725378983595874,148.8553687504791 37.81840271566762,148.91284468847516 38.36768570492859,147.30349232945446 39.85606541775633,145.2603728864524 40.48951273603598,144.13688128430294 43.34224051897763,137.88142469242302 43.470701863232534,137.41105654125204 44.05985216627596,136.1514923785253 44.87048754555872,133.97200216266356 46.07979606225854,129.8009021793041 46.22597621261957,129.10045622125836 46.16396039124811,128.83386588414942 45.38876262411941,128.41568196802473 45.18942605543998,128.39999999999782 42.34112797403941,132.42486968528465 39.661158550617984,135.34138171519226 38.947976604889845,136.4337212572973 38.141770927089965,136.91455180736375 36.64453181120916,138.59219445541748 35.28018374109524,139.97711990241442 34.22148507629754,141.17909816425527 33.58360805650591,142.21904629029814 32.834988498536404,143.86514912073835 32.20154118031496,145.48506804115095 30.970084155967925,147.97232066173092 28.480591898201965,153.62563672929537 27.550354577659164,155.0310247993075 26.42964009149,156.52518396461892 25.23362067938433,158.86559130607202 25.176034559553955,159.05887876237102 25.23362067938433,159.58127338883787 24.17492201461573,161.85884736993103 23.328849023062503,164.27212178606715 22.06195438656141,167.28070920490063 21.774023787351325,169.6571507553017 21.94235244533047,171.37020473509983 22.146118715550983,171.59999999999854 22.40304140408989,171.59477739258364 26.527093525073724,168.74314872549076 27.315580396767473,168.45066439298535 30.00883892478305,167.1553551685538 31.838305655139266,166.55991901601374 32.972309245873475,166.02715407915457 35.284613442607224,164.40793015198506 35.74530240133754,163.96393983499365 35.79402911814395,163.79156601452632 35.31119165176642,159.98351336748965 35.38649657770293,157.50210897534998 35.4972391158808,156.55652946167902 35.39978568229708,155.59003386295808 35.37763717464986,154.03837579508763 35.687716281507164,152.6277339042099 35.94906867155805,151.87014980435924 37.26026032335358,149.9787495735727" stroke="#ff8900" stroke-linecap="round" stroke-linejoin="round" stroke-width="0.5"><title>2022-06-18 22.1km</title></polyline><polyline fill="none" points="90.7718925481895,131.69831526329654 90.6342085293436,131.5357965913572 90.68665958414203,131.24945326046873 91.66356047958834,131.55127457620983 92.18807102745632,132.15491334259423 95.15155562301516,134.15926664070867 95.47281833356828,134.64680344696535 95.87275762634818,135.76116066784743 95.78752466230071,136.82133144572435 96.00388526331517,137.16182087838388 96.57429048416088,137.4558786146008 97.36105630596285,137.64933698478126 98.52809227499529,138.20649413413048 99.95082713611191,138.60114445925865 101.41290028835647,139.46781979774823 101.7276066170889,139.86246308458067 102.21933525570785,140.24162808990513 103.13722871453501,141.36363507611532 103.43882227956783,142.39277066190698 103.63551373503287,142.6868066504685 104.40261041128542,143.10464516319917 104.94679010470281,143.15107151226402 104.95990286843153,143.7855618954418 105.36639854303212,143.53795656938019 105.78600698130322,143.46831741526694 106.1728335104126,143.58438263405696 106.89403551374562,144.10280495283223 106.95959933221457,144.05637922842288 107.07761420548195,143.75461127707968 106.96615571406437,142.91893946225173 107.08417058736086,142.13742262758024 107.49066626196145,141.479703748475 107.79225982699427,141.59577223037923 108.72982243134174,141.4100625679057 109.43791167097515,141.50291746008588 110.44759447564138,142.1838496114724 110.65084231295623,142.19932526600314 110.42792533009197,141.4255383917407 110.53938382153865,139.69222507403902 111.14912733342499,138.07494353638322 111.39171346183866,137.75767344093765 111.90966762788594,137.49457033098588 113.04392168766935,137.50230867171194 113.35207163455198,137.60290702420752 113.84380027317093,138.09815836552298 114.71579905904946,139.2743664018344 115.07640006070142,139.52198665376636 115.67958719079616,140.55888704260724 115.95495522840065,142.0987334510355 116.19098497496452,142.65585555133293 116.07952648354694,143.42189127442543 116.17131582944421,143.94805241964787 116.34178175748093,144.16470587132062 116.88596145089832,144.3581458924309 117.25967521627899,145.51877491077175 117.69895280012861,146.0217082384188 117.685840036429,146.3157291430398 118.0923357110587,146.49368857060472 118.45949309456046,146.47821385553107 119.22658977084211,146.16871884348075 119.05612384277629,146.51690063683054 118.28902716649463,147.17457268213184 118.28247078464483,147.2983690892579 119.00367278797785,147.53048676876642 119.39705569890793,147.5227495250365 119.94779177417513,147.35252994925395 120.06580664744251,147.41442802418896 120.14448322964017,147.73939202913607 120.06580664744251,148.737486425729 119.81010775535833,149.66593368836766 119.52818333587493,150.17657448956743 119.7642130824097,150.01409827075986 120.38706935802475,149.10112972175557 121.40330854456988,148.737486425729 121.60000000000582,148.84580590086262 120.8853543785226,149.68914471385506 120.7345575960062,150.18431144305214 120.38706935802475,150.60984258227109 120.8787979966728,150.7181591908884 121.20006070725503,150.5711580389907 121.33774472607183,150.7181591908884 121.20006070725503,151.2442660740635 120.7280012141564,152.06436606086208 120.61654272273881,152.69877651119896 120.09203217484173,154.21514917612512 120.35428744877572,155.8475344509061 120.1772651388601,156.23435008741944 120.1838215207099,157.31742262182524 119.81010775535833,157.8666887868967 119.65931097284192,158.50104722223477 118.49883138565929,159.0967200888117 117.10232205191278,160.13333364325808 116.24343602976296,160.57427659739915 114.51255122173461,160.58201241416828 114.29619062074926,160.76767176328576 114.00770981941605,161.34785409048345 112.4145090302045,162.4849976568221 111.89655486415722,163.15025685153523 111.38515707998886,161.9976526510727 110.41481256639236,162.10595183121768 109.7853999089275,162.6938587750119 109.13631810594234,163.08063699617924 108.59213841249584,163.6375939218924 107.9758385187306,163.40552906872472 108.13974806494662,164.10172134585446 108.06762786462787,164.3028422845091 107.87749279101263,164.40340253957402 107.24152375169797,164.4343441277524 106.38919411139796,164.093985913707 105.05169221429969,164.01663154593552 103.73385946272174,163.77683246858942 102.1472150553891,163.80003886642226 101.01296099560568,163.97795433032297 100.65235999392462,164.20228188660258 100.12129306420684,164.29510687434959 99.30174533312675,164.093985913707 99.01326453182264,164.11719220758096 98.48875398392556,163.64532940388744 97.66264987099566,163.32817394861195 96.77753832141752,163.54476807190804 96.90210957659292,163.65306488504575 95.15811200486496,164.21001730691205 94.97453331309953,164.9603490579757 94.43035361968214,165.60237919076462 93.75504628926865,165.82670159944246 93.11252086810418,165.79576061982516 91.53243284262135,166.8322760758747 89.91956290786038,167.07206480345485 89.19180452267756,167.03338925718708 88.24112915463047,167.93839150317217 86.58236454697908,168.65000907618378 86.02507208986208,168.7815028447876 85.11373501288472,168.64227414101333 84.82525421155151,168.73509330728848 84.37942024588119,168.41022569299093 83.95325542570208,167.86877635651763 84.13683411743841,167.04885947822186 83.95325542570208,166.42231282159628 83.61887995139114,166.70851383417175 83.01569282138371,167.62125528063916 82.69443011077237,167.75275095993857 82.50429503715714,166.7936003985742 82.66164820155245,166.39137210228364 81.98634087113896,165.6178497245055 81.82898770677275,165.1073203251508 82.1830323265749,164.27963605152763 82.78621945666964,163.62985843903152 83.6975565335888,163.49061960321706 84.70068295643432,163.567974545811 85.06128395808628,163.45967760250642 85.00883290331694,163.25081874395983 84.72690848383354,163.08063699617924 83.21894065866945,162.531411291915 83.04191834872472,162.32254969439964 83.0091364395048,162.02085963217542 84.20239793593646,160.51239003270166 84.62200637423666,160.3576733842565 84.98260737591772,159.0967200888117 85.61202003338258,158.70218407545326 85.73659128849977,158.462366992615 85.58579450598336,158.2767015961581 85.61202003338258,158.13745222921716 86.13653058125055,157.71196635479282 84.35975110033178,157.72743861321942 83.25172256788937,158.0678274429738 81.33070268627489,158.89558435680374 80.58983153739246,158.67897600618744 79.90796782515827,158.85690434281423 79.61293064197525,158.6093517526897 79.51458491422818,157.60366045104456 79.24577325844439,156.81456957796036 78.93106692971196,156.26529524702346 78.39999999999418,155.81658910861006 81.13401123083895,155.1976794216389 81.95355896188994,154.1764666038871 82.35349825464073,153.8360590562952 82.98946729395539,153.68906438176055 83.66477462436887,153.30223483180453 84.05815753526986,152.95408642877737 84.89737441189936,152.60593631279335 86.12341781758005,151.6852644181854 86.95607831233065,150.88837066938868 86.80528152981424,149.8980436003476 85.69725299740094,149.72009273593721 84.43187130065053,148.81485749631975 84.16961602671654,148.78390907823632 83.9729245712515,148.62142966122337 82.89767794808722,148.2036237325883 82.3076035817212,147.66975701088086 81.86176961602177,147.53822401160141 81.42249203217216,147.24420818778162 82.0387919259374,146.47047649673914 82.98291091210558,145.83601019536582 82.98946729395539,145.55746221676964 84.77280315678217,143.4373666580941 85.10717863106402,142.67906887694699 85.48089239641558,142.29217912205058 85.71692214295035,141.8201707553235 85.90705721656559,140.77555087542714 85.65791470630211,140.04817681053828 86.01851570798317,139.57615346830426 85.9201699802361,138.77138509607175 84.58266808316694,135.79985331144417 84.75969039308256,135.6063898817083 88.59517377446173,133.82650149362598 88.75252693885705,133.65624895236397 88.90988010316505,133.06036182971002 88.80497799362638,132.68889718636638 89.244255577476,132.12395763377572 90.10314159962581,131.2184971552124 90.6342085293436,131.31910444769164 90.60142662012368,131.4971016144118" stroke="#ff6600" stroke-linecap="round" stroke-linejoin="round" stroke-width="0.5"><title>2021-12-18 25.6km</title></polyline><polyline fill="none" points="148.13209475151962,153.5088180759194 148.64709707384463,153.29260720478487 149.1420343706268,153.35438180160418 149.5232698559994,152.7829648820989 150.07840222943923,152.55903006305016 150.3191825359827,151.5397322783756 150.6736646539939,150.9374135816979 150.74723641428864,150.34281227844622 150.4797027403547,150.2578688587164 150.30580585228745,149.81770599448646 150.5733395262505,149.68642886153248 150.4462610311457,149.2848738830071 150.62684626103146,149.0840956050306 150.81411983276485,149.09954010662477 150.5465861588309,148.96826174393937 150.45963771481183,148.4972022391521 150.04496052020113,148.03386219769163 150.0984672549821,147.86397014752583 149.6570366929809,147.0299491675396 149.74398513702909,146.69788273332233 149.13534602877917,146.02602299031423 148.96144914071192,146.18819657085987 147.92475615418516,146.3580923348709 147.3294937296596,146.5743227626881 147.19572689270717,146.86777736774093 146.58708778448636,146.93727960967226 146.25935903389473,147.09945126245293 145.95169530884596,147.48557286441792 145.67078495121677,147.59368656446168 144.7544821179763,147.23845526317746 145.53701811426436,146.226809277563 146.96163492798223,145.52405497123254 147.3027403622691,145.00663834199077 147.5836507199274,143.51615002295148 147.3294937296596,141.56225355884817 147.44319554109825,141.40007019058976 149.95132373430533,140.02535928567522 150.69372967947857,140.13348350871092 151.13516024150886,139.70870889780053 151.1819786344713,139.15263675778988 151.70366929867305,138.4961575101479 152.2320483046933,138.25673426739377 153.00789595910464,138.14860739644791 153.22192289828672,137.52301321968844 153.4091964700201,137.43033216656477 153.4693915466778,137.19090559381584 153.4091964700201,136.93603132337012 153.12828611239092,136.82017910204013 153.3757547608111,136.5344095405162 154.9675801207486,135.51489863782626 156.4256386437628,133.93926419736817 157.29512308404082,133.18233024858637 157.72317696234677,133.25184490267566 158.80668834183598,132.7806887901388 159.34844403158058,132.30952978019923 160.13098002786865,132.03919133517047 160.99377612632816,132.29408189474634 162.1575476079597,132.33270160254324 162.90664189503877,132.00829545215674 162.8196934509615,132.25546216750809 162.52540640966618,132.30952978019923 162.44514630746562,132.45628453659447 162.80631676729536,132.82703214279172 163.0470970738388,132.8502038086226 163.2009289363632,133.17460639424826 163.50190431953524,133.2672925950028 163.78950301904115,133.56852197313128 164.27106363212806,133.36770251931011 164.97333952621557,133.29046412769094 165.3679516952834,133.60714103851933 165.38801672085538,133.99333062185906 165.588666976284,134.1014633563973 166.1906177426863,133.9160928609199 166.21737111004768,134.00877816470893 166.89958197862143,133.61486484928173 167.34101254062261,133.18233024858637 167.67542963306187,133.35997868365666 167.79581978631904,133.80023607351177 168.04997677658685,134.1246346367916 168.11017185321543,134.33317584508768 167.95633999069105,134.68846696676337 168.52484904782614,134.87383559362934 168.53822573152138,135.1441640373232 168.7054342777701,135.4762805339633 168.83920111469342,135.50717501861072 169.5281003251148,135.05920377207804 170.31732466325047,134.95879606440576 170.3307013469166,134.85838822518417 170.63167673011776,134.7579802543696 170.58485833718441,134.61122990652802 170.75875522525166,134.6575721519839 170.63167673011776,134.51082161185332 170.9259637714713,134.61895361604547 171.07310729214805,134.51082161185332 171.36070599159575,134.61122990652802 171.26706920572906,134.34862331939803 171.38077101716772,134.37951825872005 171.39414770086296,134.26366217203758 170.95271713889088,134.1014633563973 170.71193683231832,133.3754263541923 170.87914537850884,133.0741962168977 170.83901532745222,132.7575171032804 170.97947050625226,132.7034498067369 171.09317231769091,132.34042554174812 171.01291221551946,131.75340394178056 171.24031583836768,131.59892382581165 171.42090106825344,131.7147839419922 171.51453785412014,131.59892382581165 171.78207152808318,132.59531509916997 171.92921504875994,132.63393465510308 172.63149094287655,132.26318611452007 172.8722712493909,132.33270160254324 173.0261031119153,132.52579984942713 173.08629818857298,133.1205393920318 173.43409196470748,133.36770251931011 173.33376683696406,133.50673142803134 173.58123548535514,133.49900760637684 173.8220157918986,133.77706469500845 173.88221086852718,134.29455714561482 174.13636785879498,134.60350619620294 174.03604273105157,134.7579802543696 174.0159777055087,135.39132063695433 173.73506734787952,135.9396964957341 173.75513237342238,136.20229763002862 174.23000464469078,135.80839559109882 174.26344635389978,135.94742007134482 174.51091500229086,135.8856314446166 174.51760334416758,136.05555004825874 174.9322805387783,135.90880218546954 175.4405945192848,136.0401029180357 175.7348815606092,135.94742007134482 175.99572689269553,136.05555004825874 176.21644217372523,135.99376150871103 176.16962378076278,135.77750122791622 176.0157919182384,135.70026526541915 176.32345564328716,135.45310966230318 176.1428704133723,135.0205854385349 176.35020901067764,134.45675555250637 176.2766372503247,134.15552966643008 176.67793776124017,133.61486484928173 176.58430097537348,133.21322565820446 176.23650719923899,133.05102461882052 176.00241523454315,132.71117370857246 175.94222015791456,131.93105569008185 176.397027403611,131.22044622524845 176.95215977705084,129.28940895287815 177.3200185787282,128.4165641325817 177.37352531350916,128.5710506658288 177.7346957733389,128.51698041463533 178.12930794240674,128.6791910537213 179.14593590339064,128.56332634657156 179.21281932186685,128.4783587832717 180.38996748722275,128.82595276456414 180.4100325127656,129.08857828218606 180.96516488617635,128.89547137155023 181.2326985601394,129.16582091014425 181.56711565257865,129.04223266802 181.73432419876917,129.13492386831786 181.8680910357798,129.02678412375826 181.9951695308846,129.22761495642771 182.36971667440957,129.17354516865453 182.8512772874965,129.45161795638705 182.8847189967346,129.6292750423163 182.6038086391054,129.88417361991742 182.36971667440957,130.40169236544898 181.45341384114,131.1354816089588 181.45341384114,131.44444339835172 181.13237343242508,131.8460918618439 181.0119832791388,132.21684242079937 180.7845796562906,132.47173238935648 180.52373432420427,132.5103520075645 180.16925220622215,132.9042710016074 180.00873200185015,133.24412105532974 180.07561542032636,133.57624578775722 179.92178355780197,133.81568365530256 180.20938225730788,134.03967324105906 180.26957733393647,134.23276718602574 179.9619136088877,134.4335843725421 179.55392475612462,134.27910966038326 178.88509057130432,134.44130809999479 178.39684161631158,134.7811513362467 178.0557361820538,134.72708546767535 177.33339526242344,135.1518876931441 176.91871806781273,135.81611917996634 176.73813283789787,135.87018428013107 177.17287505808054,136.59619764411036 179.9017185322882,136.21002117916942 180.45016256388044,136.5730271110806 181.3263353460352,136.5421330561876 181.59386901996913,136.7120502040707 181.5202972596162,136.93603132337012 181.21932187644416,137.2449697240154 181.05211333022453,137.75471536212717 181.2326985601394,138.10999061986513 181.91490942871314,138.42664761352353 182.16237807710422,138.78191975617665 182.11555968414177,139.56969124104944 182.25601486297091,139.95585077601572 182.02192289827508,140.44240901973535 181.94835113792215,140.99074873505742 182.49679516954347,141.40007019058976 183.30608453322202,141.43096228717332 183.60705991639406,142.00246382845216 184.3494658615673,142.02563271998952 185.42628889920888,143.29991096822778 185.49986065956182,143.87139857425063 185.31258708779933,144.3965455907237 185.69382257317193,145.01436100393767 185.3326521133131,145.54722279833368 185.29252206225647,145.8020684340736 185.51992568510468,145.99513274556375 186.16869484441122,145.89473936426657 186.36265675802133,145.96424248842231 186.32921504875412,146.68243774789153 186.9579191825178,147.3311244570068 186.62350209010765,148.04158455465222 187.41272642824333,148.59759221237618 187.3391546678904,149.60920691362116 187.59999999997672,150.34281227844622 186.8910357640416,150.34281227844622 187.09168601947022,150.7752500472343 187.2789595912327,150.79841628743452 187.29233627495705,151.06096652061387 187.06493265210884,151.27718368463684 187.12512772876653,151.50112224744225 186.79071063629817,151.63239627326402 186.46298188570654,151.67872822873323 186.18207152810646,151.50112224744225 185.7807710171619,151.671006238088 185.15206688339822,151.49340023893456 184.84440315837855,151.7018941959759 184.48323269854882,151.60923028504476 184.01504876915715,151.84861182587338 183.5267998142226,151.68645021857083 183.50673478865065,151.75594809228642 183.1388759870024,151.6632842466861 183.0452392010775,151.77139205564163 182.57705527171493,151.7482261094192 182.30952159775188,152.01077309019456 181.9617278216174,152.08027066992508 181.3932187644823,152.43547953808593 180.55048769156565,153.46248722627934 180.22275894100312,154.13428180610936 179.88165350668714,154.3582120248102 179.62080817462993,154.35049030400842 179.01885740828584,154.5821415895989 178.60418021364603,154.50492457215296 178.04904784020619,154.26555132398062 177.74138411518652,153.87174209619116 177.39359033905203,153.8254114658339 176.61774268458248,154.61302837478434 176.43046911282,154.9991121401399 176.1094287041342,155.32342100087408 176.00910357639077,155.33114262368326 175.989038550877,155.19215329389408 175.72819321873249,155.15354510200996 175.15299581977888,155.38519396167976 174.53098002786282,155.19987492992368 174.457408267539,155.34658586700243 174.28351137944264,155.26164799026446 174.08954946583253,155.49329652337474 173.78188574081287,155.54734774707322 173.30032512769685,155.43924526157207 173.2535067347635,155.26164799026446 172.85889456572477,155.4624100927249 172.6114259173046,155.9025405550783 172.6448676265427,156.08785788876412 173.01941477009677,156.21140252911573 172.88564793311525,156.83684421655926 172.94584300974384,157.09165233055683 172.69837436132366,157.36190243541205 171.96265675799805,157.60126601870434 172.2034370645415,157.28468821692513 172.09642359497957,157.11481666257168 171.9158383650356,157.37734526977874 171.20018578728195,157.4082309291698 170.87245703669032,157.54721624263766 170.81895030190935,157.46228080321453 171.03297724103322,157.30013106684055 170.69187180677545,157.415952342104 170.611611704604,157.47772361739771 170.6784951230511,157.72480822101352 170.88583372038556,158.06454825119727 170.23706456104992,157.95644931394054 170.19024616814568,158.08771228935075 169.69530887133442,158.25758168876928 169.28732001857134,158.0722695980221 168.87264282396063,158.0722695980221 168.4847189967113,157.8174647421256 168.04328843473922,157.9101211513189 167.74231305153808,158.29618831797416 168.0967951695202,158.3425162473577 168.31082210864406,158.74402379660023 168.31751045052079,159.9948607642218 168.53153738970286,160.1878893435278 169.07998142126598,160.3191484999843 168.39777055272134,160.95227774678642 168.28406874128268,161.25339835957857 168.08341848579585,161.33832960073778 167.84932652112911,161.97145043492492 167.84932652112911,161.49274979825714 168.15030190433026,161.22251424857677 168.09010682767257,161.02948827303044 168.39777055272134,160.58166613899812 167.9095215977286,160.7129246215627 167.70218300045235,160.49673405998328 167.50822108681314,159.84043755099265 167.59516953089042,159.46209936458763 167.494844403147,160.30370625793876 167.655364607519,161.31516654427833 167.18718067812733,162.49647350457235 167.140362285194,162.8902384485118 166.94640037155477,163.2762805489765 166.73906177427853,163.39981361079845 166.78588016718277,163.870781583988 166.49159312585834,164.5347643064233 166.48490478401072,164.7741055065053 165.92308406875236,165.1292555885302 165.72243381326552,165.85499194778095 164.9465861588542,166.2950627793398 164.6991175104631,166.64248533688806 164.38476544353762,166.82005625875172 163.84969809564063,166.6810877461612 163.0404087319621,166.89726087918098 163.05378541568643,167.32960531788558 162.7594983743329,168.51081966656056 162.2779377612751,169.10528013946168 161.9301439851115,169.77693772940256 160.77306084532756,169.42952936525398 160.09753831860144,168.51853996198042 159.55578262891504,168.19428688623884 158.8802601021598,168.2714901237996 158.53915466790204,168.07848188422213 158.03752902927226,168.13252424025995 157.68304691129015,167.6770231906048 157.51583836507052,167.83143062907038 157.39544821178424,168.24060883811035 157.33525313515565,169.3446070814025 157.221551323717,169.52217174950056 156.31862517414265,170.14750491741142 154.84718996746233,170.4022688210316 154.53952624244266,171.04303489993617 153.97101718533668,171.5834358674183 153.83056200650753,171.2823557979209 153.87069205759326,171.0584749803893 154.05796562935575,170.88863392446365 154.15160241522244,170.43314923669823 154.31212261959445,170.21698606590508 154.3254993032897,169.86185953472886 154.5529029261379,169.66113511613366 154.6465397120046,169.18248246037547 155.281932187645,168.36413390634698 155.2484904784069,167.8931935174478 155.59628425451228,167.6924639484423 155.9173246632272,167.75422694866575 156.64635392473429,166.49579600449215 156.50589874590514,166.21013702596247 156.13135160240927,165.9476386484166 156.31193683232414,165.53072761446674 156.16479331164737,164.8127088559122 155.26186716210213,163.89394386873755 154.73348815605277,164.04063817631686 154.3321876451664,163.6932038353334 154.05127728750813,163.6468791376319 154.05796562935575,163.43069684517104 154.31881096144207,163.26855972600606 154.27868091035634,163.02921382849308 153.99108221085044,162.79758805532765 153.54296330700163,162.71265842991124 153.26205294934334,162.41926445500576 153.3757547608111,162.28028796992294 153.67673014398315,162.434706271124 154.03790060378378,162.3883808134051 154.19173246630817,162.5350780002118 154.47264282393735,162.45786898949154 154.7736182071385,160.4195229974721 156.13135160240927,158.90617048024433 156.25174175569555,158.65908968262374 156.15810496979975,158.0722695980221 156.19154667903786,158.72085995666566 155.86381792844622,159.19957789357431 156.06446818393306,158.5432702847247 155.66985601486522,158.06454825119727 154.7401764979004,158.25758168876928 153.46270320483018,157.49316642845224 152.66010218297015,157.47000221069175 149.57677659078036,158.71313867512072 148.3795633999107,159.0374318302347 147.66391082209884,159.0528743272298 147.3294937296596,159.31539630038606 146.68072457035305,159.28451140901598 146.29280074313283,158.92161300368753 146.24598235019948,157.92556387528748 145.69084997675964,157.43911657615536 144.76785880167154,157.21519535379775 144.55383186251856,157.05304509496636 144.39999999999418,156.1110225240045 144.55383186251856,155.83304643946758 144.8882489549287,155.55506934736331 145.02201579191023,154.65163683880382 145.15578262889176,154.41998576317565 145.52364143054,154.53581138846494 146.27273571756086,154.46631603427522 147.47663725036546,154.6439151475497 147.92475615418516,154.31188168838707 148.11871806779527,153.57059249853774" stroke="#ff2500" stroke-linecap="round" stroke-linejoin="round" stroke-width="0.5"><title>2021-11-13 32.3km</title></polyline><polyline fill="none" points="22.352902638725936,206.30447223563533 22.282147406687727,205.95193743243726 22.502274795260746,205.69217400850903 22.34504094629665,205.40457786143816 22.47082802542718,204.8386600156664 23.429954504070338,203.77175544916827 25.135941765242023,202.7697806821452 27.470864422182785,202.41723119029484 29.224021838017507,201.6007951628344 29.43628753410303,200.71012871646235 29.931574158312287,199.87512042956223 30.03377616009675,199.35555556925829 30.62340309371939,199.04938192916597 31.18158325747936,198.20507919589727 31.724040036380757,197.97312642398902 32.71461328479927,198.03807326404785 33.75235668788082,198.37208479890978 34.420600545970956,198.83598752647958 34.79010009096237,199.39266745053465 35.049535941769136,199.46689116437483 36.29954504096531,199.25349781201658 37.03068243857706,198.80815343436552 37.848298453114694,199.1699959193138 37.74609645130113,200.4039599656462 37.89546860780683,200.6637395828293 37.974085532303434,201.5544065162685 37.69892629663809,202.46361936503672 37.89546860780683,203.15016138543433 38.241383075510385,203.6511480018744 39.695796178333694,204.69949931136944 40.49768880798365,204.56961578142364 40.85146496811649,204.6809445335748 41.16593266604468,204.51395135056373 41.6926660600584,204.49539653216925 43.17852593265707,204.99637520458782 44.09048225657898,206.19314561391366 44.27130118288915,206.73122293223423 44.93954504095018,207.0837544973474 45.67068243859103,207.01881458226126 46.60622383985901,206.55495660035376 48.57950864423765,204.76444100177468 49.302784349391004,205.1633674379409 50.167570518678986,205.19119944491104 50.52920837124111,205.04276196902356 51.6927388534823,205.95193743243726 51.92858962691389,205.5159055178883 54.82955414013122,204.6716671431277 55.482074613304576,204.27273839481495 55.59999999997672,203.7532004684399 55.55282984531368,201.6007951628344 55.427042766154045,200.98846298554417 54.22420382167911,198.89165568327735 53.43803457688773,196.61850956674607 52.777652411255985,195.44943927007262 52.28236578707583,194.95768266383675 51.409717925358564,194.43808768004965 49.39712465877528,193.84426094346418 51.3075159235741,192.98134905597544 51.519781619659625,193.02774239152495 49.389262966345996,193.8535395182189 48.49303002728266,193.56590322936972 47.7697543221293,193.05557838070672 47.16440400364809,192.34111843341088 46.260309372184565,190.29977113079804 45.33262966334587,190.01212278821913 43.170664240198676,189.01926456103683 42.581037306634244,189.06566006420326 40.82787989079952,188.76872840522265 40.2303912647767,188.47179570646404 39.81372156506404,188.0263947087151 38.88604185619624,187.6737839262787 37.219363057316514,187.42324379504862 36.3074067333946,187.70162167293893 35.4583439490234,187.48819871497835 34.17688808005187,187.41396451672335 32.97404913554783,186.83864727668697 32.054231119167525,186.5695459373601 30.977179253852228,186.5231490684091 29.255468607792864,185.82719298737356 27.25859872609726,186.3653995239947 26.456706096447306,187.10774776195467 25.11235668786685,187.08918913520756 24.381219290226,186.65306023751327 23.940964513167273,186.5602665655897 23.65008189258515,186.15197320273 23.469262966304086,185.54880895546376 23.060454959020717,185.493132039388 22.651646951766452,185.23330594772415 21.81044585982454,185.33538057868282 21.81044585982454,185.86431078922033 22.56516833481146,186.48603155493038 22.211392174649518,186.6623395991046 22.219253867137013,186.88504397301585 21.78686078247847,187.6830631761768 21.841892629658105,187.95216098163655 21.676797088235617,188.40684154001065 21.315159235615283,188.508912350655 20.30886260230909,187.6459461704726 20.17521383074927,188.90791524984525 19.78999090078287,189.35331161737122 19.585586897155736,189.90077478075546 19.176778889872367,190.08635471196612 18.453503184689907,189.39042787571088 18.201929026370635,189.34403255022335 18.233375796145992,190.16058657075337 17.65161055503995,190.45751335605019 18.091865332069574,191.32972977528698 17.871737943554763,192.1648221958676 17.038398544100346,192.4988568616027 16.57455868969555,193.1483649452275 16.511665150115732,193.46383850531856 15.882729754317552,193.60301764406904 15.591847133706324,193.96488233585114 15.874868061830057,194.77211339219502 15.69404913551989,195.42160406658513 14.87643312101136,195.54222321564157 14.766369426681194,195.66284219314548 15.206624203798128,196.59995302122115 15.7648043675581,196.78551829369826 15.945623293868266,197.10097832516476 15.835559599625412,198.66898283683258 14.444040036352817,200.8771293874961 14.216050955379615,201.96262573543208 12.714467697864166,203.13160626874014 12.39999999999418,204.24490608659835 12.706606005434878,204.65311235922854 13.256924476765562,204.3655126897429 16.629590536787873,205.5066282187472 18.406333029997768,205.8313330845267 18.091865332069574,206.49929347208672 18.06041856232332,206.95387461746577 18.154758871678496,206.65700557396485 18.948789808899164,206.93532033266092 19.06671519560041,207.055923111242 19.035268425795948,207.82592142544308 19.75854413100751,208.5402509624182 20.79628753408906,209.13397483208246 21.118616924446542,209.13397483208246 20.969244767911732,208.89277501108882 21.071446769754402,208.42892727431172 20.662638762500137,207.7517050247625 21.079308462212794,208.35471140110894 21.000691537716193,208.8649442183887 21.354467697878135,209.65347981003288 21.307297543185996,210.65537328527716 23.469262966304086,210.76669405227585 23.69725204727729,210.21008875678672" stroke="#4dd2ff" stroke-linecap="round" stroke-linejoin="round" stroke-width="0.5"><title>2021-10-24 17.4km</title></polyline><polyline fill="none" points="113.77666720474372,196.80377868679352 113.89010728232097,196.90794766537147 113.90271173545625,196.41686463846418 113.63801822101232,192.80065313787782 112.36496846098453,191.47617298820114 112.10027494648239,190.85113292680762 111.14233651326504,189.67545454246283 109.17604183446383,188.29141504937434 108.07945441739867,187.8449476883834 107.43662731087534,187.93424127798062 106.35264434688725,188.79740961773496 105.64679497509496,188.99087763101852 104.81490107247373,188.60394132886722 104.48718529264443,188.63370569892868 103.97040271683363,189.13969899223594 103.71831365546677,188.88670258120692 102.94944201823091,188.87182042472705 99.94958218774991,190.0177417043451 97.39087821467547,189.5861620974756 97.20181141863577,189.05040619506326 96.45814868755406,188.36582613350765 96.06741064239759,187.4282434941124 95.71448595641414,187.24965559096017 95.86573939328082,186.78830242095864 95.66406814416405,184.68986984188086 94.83217424160102,182.99324107500433 94.95821877225535,180.98404801945435 93.91204916749848,177.84369415251422 92.95411073428113,176.40000000000873 93.98767588590272,177.87346088074264 94.63050299242605,179.49573770351708 94.95821877225535,180.8798668282252 94.93300986615941,183.03788947199064 95.84053048718488,185.28517315833597 95.94136611168506,186.87759670519154 94.94561431923648,189.55639793614682 94.31539166573202,190.67254952384974 92.13482128479518,192.57742705119017 91.37855410063639,194.31858079931408 88.35348536400124,196.35733930248534 87.30731575918617,197.19069163313543 86.55104857508559,198.15796917816624 85.10153647209518,198.70857024328143 83.04701062181266,199.943694245012 81.87479648634326,199.78000375772535 80.28663539967965,201.02999884530436 80.90425360004883,201.8782032479212 80.61435117950896,203.2323431611294 81.04290258383844,203.81268470677605 81.09332039603032,204.43766513769515 79.6564127462334,209.36300555459457 79.82027063606074,210.40459546181955 78.6228475944954,211.2081022207858 78.55982532916823,211.53545546419627 78.63545204763068,212.2199187885999 79.40432368475012,213.42516104498645 80.65216453868197,216.59445078276622 80.9168580531259,218.03771786064317 80.70258235093206,219.28754500883224 81.33280500437832,219.12387782199949 81.52187180047622,219.60000000000582 84.84944741072832,219.31730265796068 86.61407084041275,218.3352967955725 87.38294247764861,217.45743706345093 88.1896274741157,215.29996108652267 89.67695293622091,214.0649766647839 89.60132621787488,212.87461961210647 89.79039301385637,212.57702871972288 90.55926465115044,212.14552076818654 91.99617230106378,212.33895553655748 93.13057307724375,211.93720609424054 94.2775783065008,212.01160422877 95.38677017658483,211.26762105099624 96.42033532832284,211.31226015649736 96.59679767134367,210.83610894151207 97.85724297817796,210.53851358487736 98.23537657031557,210.18139829665597 98.65132352156797,208.9463673561404 99.40759070578497,207.9791666134406 100.1890667960979,205.70249768973736 102.92423311213497,204.48230648702884 106.31483098771423,203.51507396735542 107.0332848127,202.29486312023073 107.19714270258555,200.80678628025635 108.15508113586111,200.4050027390913 109.01218394452007,199.2442880567105 109.97012237773743,199.27405009552604 111.31879885622766,198.67880808054178 112.10027494648239,197.5776034775772 113.8775028292439,197.32462278089952 116.66308695758926,198.7829756214487 118.46552374650491,198.5746404598467 120.2049382700352,198.9615483628295 120.7217208459042,199.8097656791797 120.33098280074773,200.94071386328142 120.65869858057704,202.5924765324453 121.44017467083177,203.26210432633525 121.40236131165875,205.9554627872567" stroke="#4dd2ff" stroke-linecap="round" stroke-linejoin="round" stroke-width="0.5"><title>2021-09-19 11.2km</title></polyline><polyline fill="none" points="172.49601332072052,192.24609735608465 175.33884941603174,185.92500671942616 176.50343803456053,183.056732123423 176.9816721440584,181.6460421382253 178.20382597943535,177.10020227167843 178.09755173290614,176.812807058217 177.26949822847382,176.39999999999782 174.61707015818683,180.10468511387444 171.6901002843224,183.33364045470807 171.15872905155993,184.2374998826308 170.88418724795338,184.53529953510224 170.15355180288316,184.94281184289866 169.45391301307245,185.76827484750902 167.5852575111203,187.6803685838713 166.2169765867293,189.2423774843337 165.5704749201832,190.29761883248284 164.23761874463526,193.52588589998777 163.08631440694444,195.845088903101 160.5047358343727,201.67916323551617 159.60140473864158,203.03703729962945 158.41910374572035,204.5933224934779 157.2190903783776,207.00076465703023 157.29879606328905,207.39764154293516 157.25451512722066,207.67963101476562 156.32018737625913,209.62218001501606 155.42571246775333,212.16512905592754 154.0928562922054,215.28749775887263 153.79617402056465,217.6630766941489 153.9732977648382,219.3755088592552 154.15042150908266,219.57911714756847 154.37625428300817,219.59999999999854 155.45228102940018,218.83254919205137 156.6567224903556,218.10163222739357 158.51652180505334,216.74940643432274 159.32243484142236,216.4518072146675 161.99700337974355,215.14652563440177 163.87008697527926,214.54608415950133 164.59629432676593,214.2171434636257 165.5704749201832,213.64279714862278 167.1867290865339,212.47841938683996 167.76238125536474,211.97193232996506 167.284147145896,207.93028692840016 167.3904213924252,205.41844646255777 167.49226754539995,204.5985448418287 167.38156520522898,203.43394705628089 167.368280924391,202.00819010359555 167.70038794490392,200.47793482679117 167.93507690602564,199.8825321763652 169.44062873223447,197.67843332083794" stroke="#ff9400" stroke-linecap="round" stroke-linejoin="round" stroke-width="0.5"><title>2021-09-11 21.0km</title></polyline><polyline fill="none" points="55.59999999999127,249.51990394257882 54.98692346680036,248.26118926520212 54.67725725870696,247.92158664879753 54.47394106147112,247.234988312317 54.16114691186522,246.6406634200066 53.973470422119135,246.40440713939824 53.92655129969353,246.1496914839845 53.55119832018681,245.9245064773313 53.55745420316816,245.69931996800733 53.970342480635736,245.23786750823274 53.84209687929251,245.0016014062494 53.5042791977321,244.59920689322826 53.410440952851786,244.33709412492317 52.80674824414018,243.90515737422538 52.62845557888795,243.69841645994165 52.22807906739763,243.59135370289005 51.80893490694871,243.38461086576353 51.52742017232231,243.00434841096285 50.804865686775884,242.5133235610665 50.651596553463605,242.48009605742118 50.28249945693824,242.49117189560639 50.057287669260404,242.56131878633823 49.28781406125927,242.98958085053164 48.637202230107505,243.0412672837483 48.483933096795226,243.18894237090353 48.408862500902615,244.17465702124173 48.468293389320024,244.7505668602389 48.44326985736552,245.31170032585214 48.49644486278703,245.69562837337435 48.584027224671445,245.89866547880592 48.630946347126155,246.5815995049088 48.72478459199192,246.96920456101725 48.702889001520816,247.12424533697413 48.82800666136609,247.9991049382952 48.78421548042388,248.11353637358843 12.834783867932856,244.1709652597965 12.39999999999418,244.8428591898337" stroke="#4dd2ff" stroke-linecap="round" stroke-linejoin="round" stroke-width="0.5"><title>2021-09-07 16.2km</title></polyline><polyline fill="none" points="83.85680257322383,262.8076724958082 83.78544727461122,262.56216329769086 83.84178040509869,262.3551639846992 83.77793619055592,261.7100883677922 84.03706859078375,260.8483640035047 84.60791097974288,258.1763997973794 84.94590976266772,257.19422023214065 86.23781622183742,255.6775643269466 86.26034947404696,254.2426981104618 86.35048248281237,253.46264504214196 87.08281317914953,253.04372034904372 87.7963661653339,252.49477681747885 89.09202816656034,251.22832102223765 89.2910718942876,250.6504549686033 90.0421803007921,249.8462418777599 90.20742415021232,249.44172039676414 90.64306702600152,249.00829924159552 91.0035990611068,248.81085001457905 91.64955229069164,248.21849552826097 91.97628444751899,247.59241871467748 92.14903938102361,246.91816939250566 92.29550552027649,246.66773056121383 92.97150308614073,246.2342744254056 93.49352342865313,246.282436488229 93.68130053029745,246.23909063473184 94.62018603841716,246.51842962048613 95.08211770841444,246.35467945590426 96.92984438841813,246.6051205682561 97.44810918890289,246.56177512169597 98.18043988524005,246.36431184012326 98.90525949752191,246.31614989204172 99.40099104581168,246.56177512169597 100.28729896548612,246.77368567406302 101.09474050246354,247.1059973184565 101.68811614360311,247.24566357237927 101.95100408587314,247.19750285926784 102.36035816742515,247.25529570690196 102.79975658522744,247.5249943776471 103.70108667304157,247.7080029847275 103.88135269058694,247.90064257110134 104.86530470311118,248.0499375079453 105.51501347472367,248.25702295970405 106.25485525514523,248.2377592493831 106.56280970180524,248.32444586081692 107.83969399284979,248.39186862967108 108.41804746586422,248.61821552932088 108.65089107188396,248.6374790264308 110.062974876113,248.49781842782977 110.38970703294035,248.55079320444565 110.77652786229737,248.72416462980618 111.23470399025246,248.73861220912295 112.22616708683199,248.9601409981151 112.8533426062786,248.883087668215 113.13500825870142,248.99385177564182 113.46925149958406,248.9649568255154 114.06638268276583,249.09979971832217 114.64473615578027,249.4561676744779 115.0015126488579,249.57656141936604 115.43715552463254,249.56211419223837 115.86904285836499,249.43208887490255 117.19099365382863,249.6054558553842 117.63790315568622,249.5572984485225 118.24254542292329,249.82216335143676 118.55425541162549,249.82697905804525 119.14763105276506,249.98108131359186 119.66214031122217,250.28928375222677 119.77480657218257,250.2940993934062 119.79358428234991,250.1785238189368 119.80860645047505,250.2266803555176 119.97009475788218,249.6536131947978 119.90625054332486,249.5187724744428 119.98887246804952,249.0516416030332 119.94005042161734,248.70008531745043 120.00013909413246,248.184783990313 119.87996174910222,247.90545854693482 119.91751716942235,247.7080029847275 119.84240632878209,247.49609819271427 119.92878379551985,247.32753662978212 119.93629487957514,246.86037597800896 120.11280535512196,246.59067209214118 120.19918282187427,246.25353925863237 120.1503607754421,246.08015537085157 120.32311570893216,245.67077327621882 120.13909414933005,245.46367224153437 120.03393897242495,244.7315841625641 120.34940450316935,244.2595717377335 120.42827088583726,243.94649869634668 120.61980352950923,243.6237896532075 120.59351473528659,243.11322885784466 120.50713726853428,243.0072624592067 120.43202642787946,242.679727888466 120.66487003388465,242.2510382186847 120.82260279926413,241.50443108236868 121.49860036509926,240.39653253263896 121.40471181429166,239.99671689309253 121.49484482308617,239.85220407148518 121.4159784404037,239.26932952134666 121.59999999999127,238.85504903618857 121.50235590714146,238.6719932770793 121.5324002434063,238.31551347354616 121.4272450665012,238.1083681048549 121.4310006085434,237.64108210533232 121.33711205770669,237.18342470821153 121.44226723462634,236.75466645762208 121.34086759974889,236.37889639993227 121.16060158218897,236.18137459333593 121.13806832999398,235.47317731708245 120.97658002258686,235.24674381521618 121.02164652699139,235.05403327627937 120.94653568633657,234.79387233385933 120.95029122836422,234.37953787638253 120.7925584629993,234.27836242412377 120.72120316438668,233.9170190905461 120.74373641658167,233.79657046799548 120.88269147177925,233.73393701735404 121.04042423714418,233.5171280371287 121.17937929234176,233.112414279316 121.10051290967385,232.55351601241637 121.14557941404928,231.89342617405782 121.01413544292154,231.64769605975016 121.31457880552625,230.88640336895696 121.29580109534436,230.45756651210831 121.55868903764349,229.30594441084395 121.47606711291883,229.04573992673977 121.4310006085434,227.61458002245854 121.46855602884898,227.14715124054783 121.59999999999127,226.8001896800488 121.49860036509926,226.63152654408623 121.55493349560129,226.64116445988475 120.73622533252637,226.54960415057576 120.29682691470953,226.59297485384377 120.04145005648024,226.70381084665496 119.53820742414973,226.75200029717234 119.29409719201794,226.88693039882492 118.86972094235534,226.91102500405395 118.44158915065054,227.06523007712167 118.15616795617098,227.03631667867376 117.8895244718733,227.21461558132796 117.57405894114345,227.2724420536506 116.86801703902893,227.10860012917692 116.00799791357713,227.30617411753337 115.36204468399228,227.28689865652632 115.12168999390269,227.18570230865953 114.54333652090281,227.10860012917692 113.60820655481075,227.18088342750707 113.2927410240809,227.12305680101053 113.08243067025614,226.8821114757593 112.6467877944815,226.93993850799234 112.14730070416408,226.85801685023762 111.97079022861726,226.93993850799234 111.52763626880187,226.96885198759264 111.36614796139474,227.06041117907444 110.96806050594023,227.05077338093906 110.75775015211548,227.1423323539966 110.2770407719654,227.0748678712116 109.40951056244376,227.12787569026113 109.03020081717113,227.05077338093906 108.57953577327135,227.16160789615606 108.20398157001182,226.94475742296345 107.94860471179709,226.95921416377314 107.20876293139008,226.72790558035558 106.6304094583902,226.9833087182742 106.010745023028,227.12787569026113 104.90286012343131,227.21943445775105 104.7188385638583,227.16642678001517 104.08790750238404,227.3158118440042 103.5245761975093,227.21461558132796 103.39313222638157,227.2724420536506 103.04386681733013,227.20015894803873 102.86360079978476,227.06041117907444 102.51809093277552,227.05077338093906 102.07118143091793,227.09896234456028 101.77824915236852,227.2097967042355 101.4890724158904,227.171245663194 100.58398678604863,227.29171752278853 100.26852125531877,227.44592088638456 99.76152308093151,227.47001509939582 99.38221333562979,227.68204344496917 98.0602625402098,227.66758700843639 97.8687298965524,227.56157295466255 97.35797618010838,227.69649987539742 97.1101104059926,227.53265997410563 93.88034425801015,230.15882306548883 93.1329913935333,230.5924820555956 92.5959488828812,231.00686219695854 92.55463792053342,231.14177558274605 92.25043901590107,231.3393263701073 91.88615143873903,231.86933506412242 91.49557506736892,232.22106359183454 91.03739893939928,232.44751703933798 90.89093280013185,232.65951465840772 90.64682256801461,232.73178627492962 90.3576458315074,232.95341828410528 89.86191428321763,233.49303806597163 89.74549248021503,233.52194602934105 89.37369381898316,234.1097360081476 89.02067286793317,234.3458127587437 88.31463096581865,234.55298081556248 87.93907676257368,234.8035079594556 87.46212292445125,235.27083255656544 86.78612535860157,235.58880235939796 86.63965921931958,235.77187454719024 85.83597322436981,236.34999084063384 84.74311049291282,236.90400982637948 84.50651134486543,237.08707500566015 84.26240111273364,237.39539310270266 84.0483352168958,237.90603886461759 83.77793619055592,238.18544559723887 83.597670172996,238.55156132472257 83.10569416673388,238.84541454687133 82.8428062244493,239.21634043557424 82.57240719810943,239.3319528810025 82.50105189951137,239.47165073355427 82.117986612182,239.79439877266122 81.8926540902321,239.81848432565312 81.71238807267218,239.99671689309253 81.28801182299503,240.12677791287933 80.4843258280307,240.8204283707164 80.01112753195048,241.09017754497108 79.70317308529047,241.05164207829148 79.05346431363432,241.24431897949762 78.91450925843674,241.35992460164198 79.00464226723125,241.35029081464745 78.92202034250658,241.34547392013337 78.93328696860408,241.43217791797724 78.80935408153164,241.5622335045009 78.71170998868183,242.14025237823444 78.74926540903107,242.50632596950527 78.52768842907972,242.7038114191273 78.39999999999418,243.30589420004617 78.40375554202183,243.71048790278655 78.49764409282943,244.21622333288178 78.65537685820891,244.50039521348663 78.5802660175541,244.85681086062323 78.74926540903107,245.44922328557368 78.70044336258434,245.8875055808021 78.88446492218645,246.28725269080314 78.85442058593617,246.42210608874302 78.98210901503626,246.74478885748977 78.91450925843674,246.8940888149482 79.06097539770417,247.279376031398 79.04970877160667,247.7031869812381 79.19241936884646,248.09328107782858 79.68439537509403,248.59895202141706 79.88719464484893,248.99866759829456 79.86090585064085,249.6199030642856 80.05243849429826,249.98589699795411 80.10501608275808,250.6937952595872 80.10126054071588,251.97471696536013 80.01863861600577,252.64886711472718 80.04868295225606,253.45301464674412 79.87968356079364,254.1560264212785 80.24397113795567,254.17047171797458 81.01385725461296,254.79161373500756 81.24294531860505,254.87346882290876 81.97527601492766,254.859023821562 82.44471876900934,254.96013870359093 83.19958271754149,255.32607579127216 83.44369294965873,255.66311966339345 83.74789185429108,255.8846038376323 83.97697991826863,256.4094193377314 84.20606798226072,256.6646019618165 84.3638007476111,256.99200330979875 84.566600017366,257.17496152887907 84.51026688689308,257.82493680356856 84.43140050421061,258.03677794222676 84.49148917672574,258.8745005700148 84.2511344866507,259.6544308795492 84.0445796748536,260.7809656568097 83.78169173258357,261.75341472107175 83.8342693210434,261.9363476109975 83.8230026949459,262.446628951031 83.36107102494861,264.24699509166385 83.01180561591173,264.8583279377126 82.98176127964689,265.45039584942424" stroke="#ff0e00" stroke-linecap="round" stroke-linejoin="round" stroke-width="0.5"><title>2021-05-03 34.6km</title></polyline><polyline fill="none" points="178.65298728445487,258.1496314236356 178.3896185333433,257.985745106198 178.0547639783763,257.9809249085956 177.9268420135777,257.8989814463712 177.40010451139824,257.8170377894203 176.68900888347707,258.106249827164 176.50841316842707,258.0243066627263 176.27138129246305,258.0435874248069 175.88761539800907,258.20265330076654 175.7521686117252,258.14481124895246 174.98463682284637,258.2797758856286 174.31492771292687,258.1737322869776 173.95749869359133,258.3086968104726 173.86720083608816,258.289416196596 173.4909597631049,258.51596272884854 173.31788886952563,258.4050997181621 173.12976833304856,258.45330107094196 172.85134993902466,258.2171137985679 172.55788190210296,258.2942363510847 172.36223654414061,258.15927177099 172.00480752481963,258.1737322869776 171.85431109562342,258.1014296464127 171.25232537885313,258.21229363331804 171.01529350287456,258.16891211566326 170.69548859083443,258.24603477598066 170.49984323288663,258.18337262761634 169.9693433199718,258.2701355719473 169.6570632294024,258.2363944528588 169.08893920917762,258.4050997181621 168.79170876153512,258.6364655971265 168.40418045636034,258.7473278640791 168.06932590140786,258.66538622286316 167.34318063054525,258.86300984962145 166.68852116355265,259.29199382522347 166.0790106253262,259.1281129363233 165.92475178539462,259.20523345163383 165.54851071241137,259.20523345163383 164.58157115484937,259.4173139795239 164.11879463508376,259.5715535443269 163.93067409859214,259.528173736453 163.45661034662044,259.59083344143073 163.0352203448856,259.52335375443363 162.64016721825465,259.6534930325688 161.9742205190705,259.6390331370203 161.27441212331178,259.8221913659436 160.72886256749916,259.8221913659436 160.5896533704945,259.76435203031724 160.2359867618943,259.92340996988787 159.73558613481873,259.9860689568086 159.3969691691309,259.79809165455663 158.95300470302755,259.78845176528193 158.06507577076263,259.9716092007038 157.53833826859773,259.96196935993066 157.5270510364062,259.88003060457777 157.33140567844384,259.7836318196387 156.98902630204975,259.7691719786526 156.77080647970433,259.8655708040096 156.56763630030036,259.85593093359785 156.03337397666473,260.1065666886243 155.50287406373536,260.04390792061895 155.1266329907521,260.1836850160289 154.88207629331737,260.16922534279 154.70524298901728,260.255983291383 154.52088486326102,260.2318838831052 153.7495906636468,260.4102191056154 153.1927538756281,260.2849025590913 152.72621494512714,260.38129994297924 152.35749869360006,260.27526280588427 151.95115833477757,260.37648008018004 151.81194913778745,260.511435983859 151.16481449225103,260.42949853388563 150.35213377460605,260.5307153555477 150.10757707715675,260.4825169060932 149.97213029088743,260.3861198050945 149.5695523428003,260.40057938741666 148.75687162514077,260.2800826828134 148.4182546594675,260.3090019303163 148.08340010450047,260.26080317102605 147.80874412124103,260.0969268855588 147.30834349416546,259.9282298960061 146.19466991812806,259.8655708040096 145.97268768507638,259.7932717102485 145.1637693781522,259.812551483421 144.99069848458748,259.72579241934 144.7875283051544,259.72579241934 144.64831910814974,259.6052933571773 144.4564361609373,259.6197532668739 144.44891133948113,259.5137137883612 144.39999999999418,259.5619135917368 145.3217906288046,259.15703314976054 145.50991116529622,258.973871388338 146.00654938165098,258.8292693105868 147.28200661906158,258.0146662776351 147.61686117401405,257.8941612366507 147.9968646577181,257.63386891103437 148.56498867792834,257.3687543375854 148.77944608952384,257.1663018362997 149.58460198571265,256.8336987182083 149.76519770073355,256.63124307569524 151.58244208326505,255.74428053612428 152.66977878416947,254.87175708224095 153.02720780351956,254.70303452989174 153.16641700050968,254.70303452989174 153.85117575334152,254.19204119198184 154.24622887998703,254.05223980851224 154.46068629158253,254.06670204687543 154.82187772163888,253.96064549131188 155.34109040236217,253.5556992784077 155.99951228009013,253.1989570075857 156.09733495906403,253.04950982412993 156.31179237067408,252.96273374293742 156.40585263891262,252.803643693489 156.95140219472523,252.5915224856435 157.09437380247982,252.44689364115038 157.28625674969226,252.44207266920785 157.45932764327154,252.24441223956455 157.7791325552971,252.13835007846865 158.43755443302507,251.42483251377053 159.01696568542684,251.15484904382174 159.39320675839554,251.1452067379323 160.0817279219482,250.86557869406897 160.32628461939748,250.83665152559115 160.51816756663902,250.70647896711307 160.61599024559837,250.54255726837437 160.9884689078608,250.34488594793584 161.4437206061557,249.7422224876209 161.91402194737748,249.35169093967124 162.33917435987678,248.91294034308885 162.40689775299688,248.75865309187793 162.58373105729697,248.6381156963871 162.726702665037,248.27650098098457 163.49047204319504,247.90041765278875 163.9983974917268,247.3845017966123 164.05859606340528,247.23502940495746 164.30691517156083,247.0469825722248 164.5439470475394,246.6515987059429 165.24375544329814,246.39122148792012 165.51464901585132,246.03440506861807 165.77425535621296,245.89939248725932 166.0790106253262,245.0121537953528 166.71109562793572,244.70354367919208 166.7901062532619,244.57817003015225 167.0158508970635,244.44315174423173 167.4297160773276,243.88860680807556 167.75704581083846,243.58480884259188 168.06932590140786,243.06882838355523 168.14081170527788,242.54319548661806 168.38536840271263,242.07542368959548 168.4568542065681,241.64622542426514 168.56972652848344,241.55942063081238 168.7653718864167,241.17844145159324 168.7653718864167,240.98071641986826 168.63368751088274,240.74440940595377 168.68259885035513,240.5129234129381 168.86695697612595,240.16569150763826 169.30339662080223,239.79434240361297 169.48022992510232,239.52426781429313 169.7323114439787,239.42298929756362 170.26281135690806,238.90212365208208 170.58261626893363,238.72850002053383 170.68796376937826,238.4101877570647 171.41410904022632,237.76873138313385 171.53826859431865,237.7446162489432 171.92579689949343,237.18514039748698 172.07253091795428,237.09350124558478 172.36223654414061,236.6208322753664 172.96798467166082,236.62565546086626 173.73175404981885,236.22532876619516 173.97254833651823,236.05169164504332 174.00264762235747,235.9069933755818 174.20205539105518,235.77676441343647 174.29235324855836,235.6320649892623 174.99216164430254,235.10149523420478 175.12008360911568,234.83138385640268 175.66563316494285,234.62879893321588 176.22999477441772,234.136802017023 176.93732799164718,233.7219756278755 177.24960808221658,233.6496216762789 177.68604772687831,233.41326437534372 178.73576032050187,233.2106711123488 179.37913255530293,233.18172912038426 179.86072112871625,233.0032529658638 180.33478488068795,232.94054490826602 180.9706322940183,232.55947041122272 181.62152935029007,231.9323766191519 181.9225222086825,231.78283718293096 182.03539453055419,231.62364932778655 182.78411426579987,231.4837563628971 182.85936248040525,231.49340417182248 182.840550426743,231.54164317589675 182.9082738198922,231.4789324574158 183.20926667828462,231.46928464445227 184.22511757533357,232.1928631189403 184.47719909423904,232.24110114348514 184.96255007837317,232.17839169841318 185.76394356384117,232.39063859025555 186.24176972651912,232.66559284658797 186.42612785228994,232.9743107996146 186.80236892527319,233.2878496387566 186.97920222955872,233.74609357796726 187.18237240897724,233.9776250397299 187.35544330254197,234.35868384911373 187.53603901757742,234.45515376512412 187.56990071415203,234.57574078027392 187.47960285664885,234.98091005938113 187.50593973173818,235.30890074760464 187.59999999999127,235.5259516919541 187.24257098067028,236.9680999058728 187.01682633688324,238.22691572593249 186.78355687162548,239.01787225374574 186.83999303255405,239.74129220491886 186.65939731753315,240.45505167170995 186.33959240550757,241.06752267106276 186.30196829821216,241.71856258509797 186.1665215119283,241.92592827129192" stroke="#ff8400" stroke-linecap="round" stroke-linejoin="round" stroke-width="0.5"><title>2021-05-02 22.6km</title></polyline></svg>