<?xml version="1.0" encoding="utf-8" ?>
<svg baseProfile="full" height="300mm" version="1.1" viewBox="0,0,200,300" width="200mm" xmlns="http://www.w3.org/2000/svg" xmlns:ev="http://www.w3.org/2001/xml-events" xmlns:xlink="http://www.w3.org/1999/xlink"><defs /><rect fill="#222222" height="300" width="200" x="0" y="0" /><text fill="#FFFFFF" style="font-size:12px; font-family:Arial; font-weight:bold;" x="10" y="20">Over 10km Runs</text><text fill="#FFFFFF" style="font-size:4px; font-family:Arial" x="10" y="280">ATHLETE</text><text fill="#FFFFFF" style="font-size:9px; font-family:Arial" x="10" y="290">DingXiaoshan</text><text fill="#FFFFFF" style="font-size:4px; font-family:Arial" x="120" y="280">STATISTICS</text><text fill="#FFFFFF" style="font-size:3px; font-family:Arial" x="120" y="285">Number: 9</text><text fill="#FFFFFF" style="font-size:3px; font-family:Arial" x="120" y="290">Weekly: 1.1</text><text fill="#FFFFFF" style="font-size:3px; font-family:Arial" x="141" y="285">Total: 203.1 km</text><text fill="#FFFFFF" style="font-size:3px; font-family:Arial" x="141" y="290">Avg: 22.6 km</text><text fill="#FFFFFF" style="font-size:3px; font-family:Arial" x="167" y="285">Min: 11.2 km</text><text fill="#FFFFFF" style="font-size:3px; font-family:Arial" x="167" y="290">Max: 34.6 km</text><polyline fill="none" points="44.617963841184974,58.58227365767743 44.6567237295385,58.56921093809433 44.77300339459907,58.641055860585766 45.45960713116801,56.629365411808976 47.32008177222451,54.075466108064575 48.11189092005952,52.671101605370495 51.67780064872932,44.8517808655306 51.838377329084324,44.26382067655504 52.5748152078595,42.689365473153885 53.58810943196295,39.96500270332035 55.099745077837724,34.751127724135586 55.28247026578174,33.875570276570215 55.20495048907469,33.542332355180406 54.235953280178364,33.01960246003364 53.98678256935091,33.0 50.42640996759292,38.03108710660308 47.07644818830886,41.67672714398941 46.18497075611958,43.042151571622526 45.17721365886973,43.64318975920105 43.30566476401873,45.740243069270946 41.60022967637633,47.471399878009834 40.27685634541558,48.97387270531908 39.47951007063966,50.27380786287176 38.54373562318506,52.33143640092385 37.751926475408254,54.356335051434144 36.21260519497446,57.46540082716092 33.100739872752456,64.53204591161557 31.937943222088506,66.28878099914073 30.537050114391604,68.15647995577456 29.042025849281345,71.0819891325882 28.970043199456995,71.32359845296378 29.042025849281345,71.97659173605643 27.718652518291492,74.82355921241833 26.66106127886451,77.84015223257666 25.07744298322359,81.60088650612306 24.717529734189156,84.57143844413076 24.927940556692192,86.71275591887388 25.182648394460557,87.0 25.503801755141467,86.99347174072682 30.658866906363983,83.42893590687163 31.64447549599572,83.06333049122622 35.01104865598609,81.44419396069497 37.29788206896046,80.6998987700099 38.71538655736367,80.03394259893685 41.605766803288134,78.00991268997677 42.181628001708305,77.45492479375025 42.24253639767994,77.23945751815336 41.638989564729854,72.47939170936661 41.73312072214321,69.37763621918202 41.87154889488011,68.19566182709605 41.74973210290773,66.98754232869032 41.72204646834871,65.04796974385317 42.10964535191306,63.284667380255996 42.43633583947667,62.337687255450874 44.075325404206524,59.9734369669568" stroke="#ff8800" stroke-linecap="round" stroke-linejoin="round" stroke-width="0.5"><title>2022-06-18 22.1km</title></polyline><polyline fill="none" points="88.46486568523687,37.12289407911885 88.29276066168677,36.91974573919288 88.35832448015572,36.56181657558045 89.57945059947087,36.93909322026593 90.23508878433495,37.693641678240965 93.93944452874712,40.19908330088947 94.34102291695308,40.808504308712145 94.84094703293522,42.201450834807474 94.73440582785406,43.52666430714453 95.00485657915124,43.95227609798167 95.71786310517928,44.31984826824919 96.70132038241718,44.561671230971115 98.16011534372228,45.25811766766128 99.93853392012534,45.75143057406967 101.76612536044559,46.83477474718529 102.15950827134657,47.32807885573129 102.77416906962753,47.80203511239233 103.92153589313966,49.20454384513869 104.29852784943068,50.49096332738554 104.54439216875471,50.858508313096536 105.50326301407767,51.38080645400623 106.1834876308858,51.43883939033549 106.19987858549575,52.23195236931497 106.70799817878287,51.92244571172341 107.23250872662175,51.835396769078216 107.71604188799392,51.98047829256393 108.61754439215292,52.628506191045744 108.69949916526093,52.57047403552133 108.84701775683789,52.193264096349594 108.70769464256591,51.14867432782921 108.85521323417197,50.17177828447893 109.36333282742999,49.34962968559557 109.74032478372101,49.49471528798313 110.91227803914808,49.262578209876665 111.79738958869711,49.378646825105534 113.05949309453717,50.22981201433868 113.31355289116618,50.24915658250393 113.03490666262223,49.28192298967042 113.17422977689421,47.115281342557864 113.93640916675213,45.09367942048266 114.23964182729833,44.69709180116479 114.88708453485742,44.36821291373053 116.30490210957942,44.37788583963993 116.69008954317542,44.503633780259406 117.30475034145638,45.12269795690372 118.39474882380455,46.59295800229302 118.8455000758695,46.90248331720795 119.59948398845154,48.198608803249954 119.94369403549354,50.12341681379621 120.23873121867655,50.81981943916617 120.09940810440457,51.77736409303179 120.21414478679071,52.43506552456529 120.42722719683661,52.70588233914896 121.10745181358652,52.947682365535 121.57459402034874,54.39846863846469 122.12369100016076,55.02713529802713 122.1073000455217,55.394661428799736 122.61541963880882,55.617110713261354 123.07436636817874,55.59776731941383 124.03323721353081,55.2108985543382 123.8201548034267,55.646125796039996 122.86128395813284,56.468215852670255 122.85308848079876,56.622961361579655 123.75459098495776,56.91310846095439 124.24631962360581,56.903436906286515 124.93473971771891,56.69066243657289 125.08225830929587,56.76803503023257 125.18060403701384,57.17424003641645 125.08225830929587,58.42185803216125 124.76263469419791,59.582417110475944 124.41022916982183,60.22071811195201 124.70526635297574,60.01762283845164 125.48383669753093,58.876412152189005 126.75413568070508,58.42185803216125 127.0,58.55725737607281 126.10669297314598,59.61143089232064 125.91819699498592,60.23038930381881 125.48383669753093,60.76230322783522 126.098497495841,60.897698988599586 126.50007588404696,60.71394754872745 126.67218090756796,60.897698988599586 126.50007588404696,61.55533259257936 125.91000151768094,62.580457576077606 125.77067840340897,63.37347063900961 125.11504021854489,65.26893647015095 125.44285931094782,67.30941806362534 125.22158142356784,67.79293760927249 125.22977690087282,69.14677827728156 124.76263469419791,69.83336098361906 124.57413871603785,70.62630902778619 123.12353923203773,71.370900111011 121.3779025648837,72.66666705406533 120.3042950372037,73.2178457467453 118.14068902717554,73.22751551770489 117.87023827590747,73.45958970411448 117.50963727425551,74.18481761310977 115.51813628774835,75.60624707103852 114.87069358018925,76.43782106441358 114.23144634996424,74.99706581382634 113.01851570798317,75.13243978902756 112.2317498861521,75.86732346875942 111.4203976324061,76.35079624522768 110.74017301559797,77.04699240235641 109.96979814840597,76.7569113359059 110.17468508114689,77.6271516823108 110.084534830763,77.87855285564729 109.84686598877306,78.00425317446206 109.05190468960791,78.04293015969597 107.98649263923289,77.61748239214648 106.31461526785279,77.52078943241213 104.66732432841673,77.22104058572586 102.68401881921454,77.2500485830169 101.26620124449255,77.47244291290554 100.8154499923985,77.7528523582514 100.15161633022944,77.86888359294244 99.12718166637933,77.61748239214648 98.76658066475648,77.6464902594671 98.1109424798924,77.05666175486112 97.0783123387373,76.66021743576857 95.97192290177918,76.93096008989232 96.12763697071932,77.06633110630355 93.9476400060521,77.76252163363097 93.71816664136713,78.70043632246234 93.03794202455902,79.5029739884485 92.19380786156398,79.78337699930125 91.39065108512295,79.74470077478327 89.41554105325486,81.04034509485064 87.39945363480365,81.34008100431674 86.48975565331057,81.29173657148931 85.30141144327354,82.42298937895976 83.22795568368747,83.31251134521881 82.5313401122985,83.47687855599361 81.39216876609134,83.3028426762612 81.03156776443939,83.41886663410696 80.47427530732239,83.01278211623867 79.94156928212033,82.33597044563794 80.17104264680529,81.31107434777368 79.94156928212033,80.52789102699899 79.5235999392462,80.8856422927056 78.76961602669326,82.02656910080987 78.36803763845819,82.19093869993958 78.13036879643914,80.99200049821957 78.32706025193329,80.48921512784727 77.48292608890915,79.52231215562642 77.28623463344411,78.88415040644759 77.72879040820408,77.84954506440408 78.48277432081522,77.0373230487894 79.62194566696417,76.86327450403041 80.87585369552835,76.95996818225831 81.3266049475933,76.82459700312756 81.26104112912435,76.56352342994796 80.90863560474827,76.35079624522768 79.02367582332226,75.66426411488646 78.80239793591318,75.40318711799773 78.76142054935917,75.02607454022655 80.2529974199133,73.1404875408698 80.77750796778128,72.94709173031151 81.22825921987533,71.370900111011 82.0150250417355,70.8777300943184 82.17073911061743,70.57795874078147 81.98224313245737,70.34587699519034 82.0150250417355,70.17181528652145 82.67066322654136,69.63995794348739 80.44968887537834,69.65929826652427 79.06465320987627,70.08478430371906 76.66337835782906,71.11948044601013 75.73728942172602,70.84872000773612 74.884959781426,71.07113042852143 74.51616330246907,70.7616896908512 74.39323114277795,69.5045755638057 74.05721657304093,68.51821197244135 73.66383366211085,67.8316190587866 73.0,67.27073638576258 76.41751403853414,66.4970992770468 77.44194870235515,65.22058325484977 77.94187281830818,64.79507382037264 78.73683411744423,64.61133047720068 79.58096828043927,64.1277935397593 80.07269691908732,63.6926080359699 81.12171801485238,63.257420390989864 82.65427227196051,62.10658052274812 83.69509789042058,61.1104633367504 83.50660191226052,59.87255450043449 82.12156624672934,59.65011591991788 80.53983912579133,58.518571870394226 80.2120200333593,58.47988634779176 79.96615571403527,58.27678707652376 78.6220974350872,57.75452966573357 77.88450447711512,57.087196263593796 77.32721201999811,56.92278001450177 76.7781150401861,56.55526023473067 77.5484899074072,55.588095620922104 78.72863864013925,54.79501274420909 78.73683411744423,54.44682777095295 80.96600394597044,51.79670832261036 81.38397328881547,50.848836096178275 81.85111549551948,50.36522390256869 82.14615267867339,49.775213444147084 82.38382152069244,48.46943859428575 82.07239338287036,47.56022101317649 82.52314463496441,46.97019183538214 82.4002124753024,45.96423137009697 80.7283351039514,42.24981663930521 80.94961299133138,42.007987352139025 85.74396721806261,39.783126867041574 85.94065867352765,39.57031119046587 86.13735012896359,38.825452287150256 86.0062224920257,38.36112148295797 86.55531947183772,37.6549470422251 87.62892699951772,36.52312144401367 88.29276066168677,36.6488805596091 88.25178327513277,36.87137701800384" stroke="#ff6200" stroke-linecap="round" stroke-linejoin="round" stroke-width="0.5"><title>2021-12-18 25.6km</title></polyline><polyline fill="none" points="137.66511843938497,64.3860225949029 138.3088713423349,64.11575900598109 138.92754296326893,64.19297725201614 139.40408732002834,63.4787061026218 140.09800278683542,63.1987875788036 140.39897816997836,61.92466534795676 140.84208081749966,61.171766977109655 140.93404551787535,60.42851534806687 140.5996284254361,60.322336073390034 140.38225731538842,59.77213249309716 140.71667440782767,59.60803607691196 140.55782628891757,59.10609235375159 140.78355782627477,58.855119506290066 141.0176497909706,58.87442513326823 140.68323269853136,58.710327179927845 140.57454714353662,58.121502798945585 140.0562006502587,57.542327747105446 140.1230840687349,57.329962684401835 139.57129586624797,56.28743645941722 139.6799814212718,55.872353416642 138.9191825359885,55.03252873788006 138.70181142588262,55.2352457135712 137.40594519273145,55.44761541857588 136.6618671620963,55.71790345336922 136.4946586158767,56.08472170968162 135.7338597306225,56.17159951208305 135.3241987923684,56.37431407805707 134.939619136072,56.856966080507846 134.5884811890428,56.99210820556618 133.4431026474631,56.548069078984554 134.42127264282317,55.28351159695012 136.20204365998507,54.405068714033405 136.6284254528291,53.75829792748846 136.97956339991651,51.89518752868753 136.6618671620963,49.452816948556574 136.80399442638736,49.250087738226284 139.93915466786711,47.53169910708675 140.86716209937003,47.666854385890474 141.41895030188607,47.135886122239754 141.47747329308186,46.440795947244624 142.1295866233413,45.620196887677594 142.7900603808812,45.32091783423675 143.75986994890263,45.18575924556353 144.02740362286568,44.40376652460691 144.2614955875324,44.287915208195045 144.33673943334725,43.988631992266164 144.2614955875324,43.6700391542181 143.9103576405032,43.525223877542885 144.21969345101388,43.168011925634346 146.20947515094304,41.89362329728465 148.03204830471077,39.92408024671022 149.11890385506558,38.977912810725684 149.65397120296257,39.06480612835003 151.00836042730953,38.475860987673514 151.68555503946845,37.88691222524358 152.66372503482853,37.54898916895036 153.74222015790292,37.86760236843111 155.1969345099642,37.91587700317177 156.13330236880574,37.510369315190474 156.0246168137237,37.81932770938147 155.65675801207544,37.88691222524358 155.55643288433203,38.0703556707449 156.00789595910464,38.533790178487834 156.3088713423058,38.562754760772805 156.501161170454,38.968257992804865 156.87738039944088,39.084115743746224 157.2368787738087,39.460652466426836 157.8388295401528,39.20962814912491 158.71667440776946,39.11308015960094 159.2099396191188,39.50892629815644 159.2350209010765,39.99166327731655 159.48583372036228,40.12682919548388 160.23827217836515,39.895116076142585 160.27171388757415,40.010972705880704 161.12447747329134,39.51858106159489 161.67626567577827,38.977912810725684 162.0942870413419,39.199973354559916 162.24477473291336,39.7502950918788 162.56247097073356,40.155793295976764 162.6377148165484,40.416469806354144 162.4454249883711,40.86058370843966 163.15606130979722,41.092294492031215 163.17278216441628,41.430205046643096 163.38179284721264,41.84535066744138 163.54900139340316,41.88396877325431 164.41012540640077,41.32400471508299 165.39665582907037,41.19849508051993 165.41337668366032,41.072985281476576 165.7895959126763,40.9474753179602 165.73107292148052,40.764037383152754 165.9484440315864,40.821965189992625 165.7895959126763,40.63852701480937 166.15745471432456,40.77369202004775 166.34138411519234,40.63852701480937 166.70088248953107,40.764037383152754 166.5838365071686,40.43577914923662 166.72596377145965,40.474397823389154 166.7426846260787,40.32957771504152 166.19089642359177,40.12682919548388 165.88992104041972,39.219282942736754 166.09893172315788,38.8427452711112 166.04876915932982,38.44689637911506 166.22433813282987,38.37931225841021 166.36646539712092,37.925531927190605 166.2661402694066,37.1917549272257 166.5503947979596,36.99865478225547 166.7761263353168,37.143479927486624 166.89317231767927,36.99865478225547 167.22758941008942,38.24414387395518 167.4115188109572,38.29241831888794 168.28936367860297,37.828982643150084 168.590339061775,37.91587700317177 168.78262888992322,38.15724981177482 168.85787273570895,38.900674240037915 169.29261495589162,39.20962814912491 169.16720854621963,39.38341428503918 169.4765443567012,39.37375950797286 169.77751973987324,39.72133086875692 169.85276358568808,40.368196432013065 170.17045982350828,40.75438274525368 170.04505341383629,40.9474753179602 170.0199721319077,41.739150796194735 169.6688341848494,42.42462061966944 169.69391546680708,42.752872037526686 170.28750580584165,42.260494488880795 170.32930794238928,42.43427508917375 170.63864375289995,42.3570393057671 170.64700418020948,42.56943756031251 171.1653506734583,42.3860027318442 171.8007431490987,42.55012864754826 172.16860195077606,42.43427508917375 172.49465861584758,42.56943756031251 172.77055271714926,42.49220188588515 172.71202972595347,42.221876534909825 172.51973989780527,42.12533158176666 172.90431955410168,41.81638707788079 172.67858801671537,41.27573179816682 172.93776126336888,40.57094444062386 172.845796562935,40.194412083037605 173.34742220153566,39.51858106159489 173.2303762192314,39.01653207275376 172.79563399904873,38.813780773532926 172.5030190431862,38.38896713571012 172.42777519740048,37.413819612593215 172.99628425450646,36.525557781562384 173.69019972131355,34.111761191095866 174.1500232234248,33.020705165719846 174.216906641901,33.21381333228783 174.66836971667362,33.14622551829234 175.16163492802298,33.348988817146164 176.43241987924557,33.20415793321445 176.51602415234083,33.097948479095066 177.98745935905026,33.53244095569971 178.01254064097884,33.8607228527253 178.7064561076986,33.61933921443415 179.04087320016697,33.95727613768395 179.45889456570148,33.802790835026826 179.66790524846874,33.91865483539004 179.83511379471747,33.783480154685094 179.99396191359847,34.034518695531006 180.46214584301924,33.96693146081816 181.06409660936333,34.314522445471084 181.10589874594007,34.536593802899006 180.75476079891087,34.85521702488768 180.46214584301924,35.50211545680213 179.31676730143954,36.41935201120941 179.31676730143954,36.8055542479342 178.91546679052408,37.30761482730304 178.7649790989235,37.77105302600103 178.4807245703705,38.089665486695594 178.1546679052699,38.13794000945927 177.7115652577777,38.63033875200199 177.51091500231996,39.05515131915308 177.59451927541522,39.47030723469652 177.40222944726702,39.76960456913366 177.76172782166395,40.04959155131655 177.83697166742058,40.29095898252854 177.45239201112418,40.54198046569218 176.94240594518487,40.34888707547361 176.10636321414495,40.55163512498984 175.49605202040402,40.97643917030655 175.06967022755998,40.908856834583275 174.16674407801474,41.439859616424656 173.64839758476592,42.27014897495246 173.4226660473796,42.33773035017657 173.96609382258612,43.24524705512886 177.37714816536754,42.76252647394722 178.0627032048651,43.21628388885438 179.15791918255854,43.17766632021812 179.4923362749396,43.390062755090185 179.4003715745348,43.6700391542181 179.02415234557702,44.056212155010144 178.81514166278066,44.693394202658965 179.04087320016697,45.137488274827774 179.89363678588415,45.533309516897134 180.20297259639483,45.97739969522081 180.14444960516994,46.96211405132635 180.3200185787282,47.44481347002147 180.02740362283657,48.05301127466373 179.93543892243179,48.7384359188145 180.62099396192934,49.250087738226284 181.63260566652752,49.28870285896119 182.0088248954853,50.003079785565205 182.93683232698822,50.03204089997598 184.28286112399655,51.624888710277446 184.37482582443045,52.339248217824206 184.1407338597637,52.995681988402794 184.6172782164649,53.767951254914806 184.1658151416632,54.434028497904364 184.11565257780603,54.75258554259199 184.39990710638813,54.99391593194741 185.21086855552858,54.86842420532048 185.45332094753394,54.95530311051698 185.4115188109281,55.85304718486441 186.19739897813997,56.66390557124396 185.77937761263456,57.55198069330072 186.76590803530416,58.246990265462955 186.67394333487027,59.51150864201918 187.0,60.42851534806687 186.11379470507381,60.42851534806687 186.3646075243596,60.96906255904469 186.59869948905543,60.998020359285874 186.6154203437327,61.32620815075643 186.3311658151506,61.59647960579605 186.40640966096544,61.876402809306455 185.98838829540182,62.04049534158548 185.57872735714773,62.098410285914724 185.22758941011853,61.876402809306455 184.72596377148875,62.08875779760274 183.94008360427688,61.86675029865728 183.55550394798047,62.12736774496443 183.10404087317875,62.01153785630595 182.5188109614828,62.310764782349 181.908499767771,62.10806277322263 181.8834184858133,62.19493511534529 181.42359498376027,62.07910530835943 181.3065490013687,62.214240069552034 180.72131908964366,62.18528263677581 180.3869019972044,62.513466362754116 179.95215977702173,62.60033833739726 179.2415234556247,63.044349422598316 178.1881096144498,64.32810903283826 177.7784486762539,65.16785225762578 177.35206688338076,65.4477650310073 177.02601021828013,65.43811288000143 176.27357176033547,65.7276769869859 175.75522526705754,65.63115571519302 175.06130980027956,65.33193915496668 174.67673014401225,64.83967762022803 174.24198792382958,64.78176433227782 173.27217835572083,65.76628546848224 173.0380863910541,66.24889017516398 172.63678588016774,66.65427625107986 172.51137947049574,66.66392827960954 172.48629818859627,66.49019161735487 172.16024152343743,66.44193137750699 171.44124477473088,66.73149245209788 170.66372503482853,66.49984366240096 170.57176033442374,66.6832323337585 170.35438922431786,66.57705998783058 170.1119368323125,66.8666206542257 169.7273571760452,66.93418468384334 169.1254064096429,66.79905657696509 169.0668834184762,66.57705998783058 168.57361820715596,66.82801261589339 168.26428239664529,67.37817569386243 168.30608453319292,67.60982236095151 168.7742684626137,67.76425316139648 168.60705991639406,68.54605527069361 168.6823037621798,68.86456541319785 168.37296795166912,69.20237804426142 167.45332094753394,69.5015825233786 167.75429633067688,69.10586027114186 167.62052949372446,68.89352082821279 167.39479795630905,69.22168158721615 166.50023223410244,69.26028866145498 166.09057129584835,69.43402030329162 166.02368787740124,69.32785100401816 166.29122155130608,69.1251638335525 165.86483975846204,69.2699404276209 165.76451463077683,69.34715452174714 165.848118903843,69.65601027625235 166.1072921504965,70.08068531399476 165.29633070132695,69.94556164241658 165.23780771018937,70.10964036168298 164.61913608919713,70.32197711095068 164.10915002319962,70.09033699752035 163.5908035299508,70.09033699752035 163.10589874591096,69.7718309276679 162.55411054342403,69.88765143915225 162.17789131443715,70.3702353974586 162.62099396190024,70.42814530918986 162.88852763583418,70.93002974573756 162.8968880631728,72.49357595527545 163.16442173710675,72.734861679397 163.8499767765752,72.89893562498037 162.99721319091623,73.69034718348121 162.85508592662518,74.06674794947321 162.6042731072812,74.17291200090403 162.31165815141867,74.96431304364523 162.31165815141867,74.36593724781414 162.68787738040555,74.0281428107046 162.6126335345907,73.78686034127895 162.99721319091623,73.22708267373673 162.3869019971753,73.3911557769461 162.1277287505509,73.12091757497546 161.88527635854552,72.30054693873535 161.99396191359847,71.82762420572544 161.86855550392647,72.87963282242708 162.0692057594133,74.143958180357 161.48397584765917,75.62059188070998 161.42545285649248,76.11279806063249 161.18300046445802,76.59535068621335 160.9238272178336,76.74976701349806 160.98235020897118,77.33847697998135 160.61449140735203,78.16845538302005 160.6061309800134,78.46763188312616 159.903855085955,78.91156948567368 159.6530422665819,79.81873993472982 158.68323269856046,80.36882847415836 158.3738968880789,80.80310667109006 157.98095680444385,81.02507032343419 157.31212261956534,80.85135968268878 156.30051091496716,81.12157609897258 156.31723176961532,81.66200664735516 155.94937296790886,83.13852458319889 155.34742220159387,83.88160017431801 154.9126799814112,84.72117216174229 153.46632605668856,84.28691170657112 152.6219228982518,83.14817495247553 151.94472828612197,82.74285860778764 151.1003251277143,82.8393626547404 150.67394333487027,82.5981023552813 150.0469112865976,82.66565530033404 149.6038086391054,82.0962789882542 149.39479795636726,82.2892882863307 149.24431026473758,82.80076104762702 149.16906641895184,84.18075885175494 149.0269391546608,84.4027146868757 147.89828146770014,85.18438114677701 146.05898745934246,85.50283602628042 145.67440780307516,86.3037936249093 144.96377148167812,86.97929483428015 144.78820250811987,86.6029447473993 144.83836507200613,86.32309372547752 145.07245703670196,86.1107924055832 145.18950301903533,85.54143654587097 145.39015327449306,85.27123258238862 145.4068741291121,84.82732441840199 145.6911286576942,84.57641889517254 145.80817464002757,83.97810307546752 146.60241523457807,82.95516738293372 146.56061309803044,82.36649189680611 146.9953553181258,82.11557993554743 147.39665582904126,82.19278368584492 148.30794240592513,80.61974500561337 148.13237343236688,80.26267128244945 147.6641895030334,79.93454831052077 147.88992104041972,79.41340951807797 147.70599163958104,78.51588606987934 146.5773339526204,77.3674298359183 145.91686019508052,77.55079772040335 145.41523455645074,77.11650479415403 145.06409660939244,77.05859892203443 145.07245703670196,76.7883710564638 145.3985137018317,76.58569965751667 145.34835113794543,76.28651728561817 144.9888527635776,75.99698506914865 144.42870413375203,75.89082303738542 144.07756618669373,75.52408056874992 144.21969345101388,75.35035996240185 144.59591267997166,75.54338283890684 145.04737575474428,75.48547601674363 145.23966558289248,75.66884750025929 145.5908035299508,75.5723362368517 145.96702275893767,73.0244037468292 147.6641895030334,71.13271310030541 147.81467719460488,70.8238621032724 147.69763121227152,70.09033699752035 147.73943334881915,70.90107494583208 147.32977241056506,71.4994723669588 147.58058522993815,70.6790878558968 147.0873200185888,70.08068531399476 145.92522062236094,70.32197711095068 144.32837900603772,69.36645803555439 143.32512772871996,69.3375027633665 139.47097073850455,70.89142334390635 137.97445424989564,71.29678978779702 137.07988852763083,71.3160929090227 136.6618671620963,71.64424537547166 135.85090571295586,71.60563926128088 135.36600092891604,71.15201625461486 135.30747793774935,69.9069548441039 134.61356247097137,69.29889572018874 133.45982350211125,69.01899419225083 133.1922898281482,68.8163063687025 133.0,67.63877815500018 133.1922898281482,67.29130804934539 133.61031119368272,66.94383668421506 133.77751973990235,65.81454604851751 133.94472828612197,65.52498220398411 134.404551788175,65.66976423557207 135.34091964698746,65.58289504285494 136.8457965629641,65.80489393443713 137.40594519273145,65.38985211047111 137.64839758476592,64.46324062316125" stroke="#ff1a00" stroke-linecap="round" stroke-linejoin="round" stroke-width="0.5"><title>2021-11-13 32.3km</title></polyline><polyline fill="none" points="25.441128298465628,160.38059029453143 25.352684258425143,159.93992179055203 25.62784349411959,159.61521751062537 25.43130118289264,159.25572232680133 25.588535031827632,158.54832501959027 26.787443130102474,157.21469431146397 28.91992720658891,155.96222585268697 31.83858052775031,155.5215389878722 34.03002729755826,154.50099395353755 34.29535941767972,153.38766089557612 34.91446769790491,152.34390053695824 35.042220200179145,151.69444446157286 35.77925386716379,151.31172741146293 36.476979071914684,150.2563489948734 37.1550500455196,149.96640802997717 38.39326660602819,150.0475915800489 39.69044585991651,150.46510599864268 40.52575068251463,151.04498440811585 40.98762511374662,151.74083431317558 41.3119199272478,151.83361395546672 42.874431301199365,151.56687226502982 43.78835304826498,151.01019179294963 44.81037306645885,151.46249489914044 44.68262056418462,153.00494995707413 44.86933575978037,153.32967447854753 44.967606915393844,154.443008145332 44.62365787080489,155.5795242062959 44.86933575978037,156.437701731782 45.30172884440981,157.06393500234844 47.11974522296805,158.37437413920998 48.12211101001594,158.21201972677954 48.56433121016016,158.35118066697032 48.95741583261406,158.14243918821012 49.615832575073,158.11924566519883 51.47315741586499,158.74546900572022 52.613102820760105,160.24143201740662 52.83912647864781,160.9140286652837 53.674431301187724,161.35469312168425 54.58835304825334,161.27351822782657 55.75777979986742,160.69369575043675 58.22438580531161,158.4555512522129 59.12848043674603,158.95420929742977 60.209463148377836,158.9889993061297 60.661510464095045,158.80345246128127 62.115923566918354,159.93992179055203 62.41073703370057,159.39488189736585 66.03694267518586,158.3395839289151 66.8525932666962,157.8409229935205 67.0,157.19150058554806 66.94103730667848,154.50099395353755 66.78380345774349,153.73557873193204 65.28025477711344,151.11456960411306 64.29754322115332,148.27313695842167 63.47206551412819,146.8117990875835 62.852957233903,146.19710332979594 61.76214740675641,145.54760960006388 59.246405823505484,144.80532617933204 61.63439490448218,143.72668631995475 61.899727024603635,143.78467798939528 59.236578707932495,144.81692439776089 58.11628753412515,144.45737903671397 57.21219290269073,143.8194729758834 56.45550500461832,142.92639804175997 55.32538671523798,140.37471391350118 54.16578707919689,140.01515348527755 51.463330300292,138.77408070129604 50.726296633307356,138.8320750802668 48.5348498634994,138.4609105065174 47.78798908099998,138.08974463307095 47.26715195633005,137.53299338588113 46.10755232028896,137.09222990785202 44.02420382166747,136.77905474380532 42.884258416772354,137.1270270911773 41.82292993628653,136.8602483937284 40.221110100101214,136.76745564590965 38.71756141947117,136.0483090958587 37.56778889900306,135.7119324216983 36.22147406730801,135.6539363355114 34.06933575979201,134.78399123422423 31.573248407628853,135.45674940500612 30.57088262058096,136.38468470244698 28.890445859869942,136.361486419024 27.976524112804327,135.8163252969025 27.426205641473643,135.70033320697985 27.06260236579692,135.18996650341433 26.83657870790921,134.43601119431696 26.325568698812276,134.36641504924046 25.81455868971534,134.04163243465155 24.763057324802503,134.16922572336625 24.763057324802503,134.8303884865236 25.706460418528877,135.60753944366297 25.26424021832645,135.8279244988953 25.274067333957646,136.10630496626254 24.733575978141744,137.10382897022646 24.80236578709446,137.44020122704387 24.59599636029452,138.00855192500603 24.14394904457731,138.1361404383133 22.886078252922744,137.05743271308165 22.71901728847297,138.63489406230656 22.237488626036793,139.19163952170493 21.981983621488325,139.8759684759425 21.47097361239139,140.10794338995038 20.566878980898764,139.23803484463133 20.25241128297057,139.180040687781 20.29171974520432,140.20073321343807 19.564513193792664,140.57189169506455 20.114831665123347,141.66216221912327 19.83967242948711,142.7060277448254 18.79799818014726,143.1235710769979 18.218198362155817,143.9354561815344 18.13958143768832,144.32979813163547 17.35341219289694,144.50377205508266 16.98980891716201,144.95610291980847 17.34358507732395,145.96514174023469 17.117561419436242,146.77700508322596 16.09554140130058,146.9277790195556 15.957961783395149,147.07855274141912 16.50828025478404,148.2499412765319 17.206005459476728,148.48189786711737 17.432029117364436,148.87622290646686 17.294449499517214,150.83622854603163 15.555050045484677,153.5964117343683 15.270063694217242,154.9532821692992 13.393084622337483,156.41450783592154 13.0,157.80613260823884 13.383257506822702,158.31639044902113 14.071155596000608,157.95689086217317 18.286988170992117,159.3832852734413 20.507916287519038,159.78916635565838 20.114831665123347,160.62411684010294 20.075523202947807,161.19234327182494 20.19344858964905,160.82125696744333 21.185987261123955,161.16915041582251 21.333393994544167,161.31990388904524 21.29408553231042,162.28240178182023 22.198180163803045,163.17531370302459 23.495359417633153,163.91746854010125 23.898271155601833,163.91746854010125 23.711555959947873,163.6159687638501 23.839308462222107,163.03615909288055 23.32829845312517,162.1896312809622 23.849135577795096,162.94338925139164 23.75086442218162,163.58118027299497 24.19308462238405,164.56684976254473 24.134121929004323,165.8192166066001 26.83657870790921,165.95836756534845 27.12156505911844,165.26261094598158" stroke="#4dd2ff" stroke-linecap="round" stroke-linejoin="round" stroke-width="0.5"><title>2021-10-24 17.4km</title></polyline><polyline fill="none" points="117.22083400585689,148.50472335847735 117.36263410287211,148.63493458168523 117.378389669233,148.02108079807658 117.04752277617808,143.50081642234 115.45621057617245,141.84521623523324 115.12534368305933,141.06391615852772 113.92792064155219,139.5943181780458 111.47005229303613,137.8642688116961 110.09931802173378,137.30618461045378 109.29578413855052,137.41780159746122 107.94080543360906,138.49676202215778 107.05849371879594,138.73859703875496 106.01862634054851,138.25492666105856 105.60898161580553,138.29213212364994 104.96300339599838,138.924623740284 104.64789206924615,138.60837822651956 103.68680252274498,138.58977553091245 99.93697773461463,140.0221771304059 96.73859776830068,139.48270262182632 96.5022642732365,138.81300774384 95.57268585939892,137.95728266687365 95.08426330296788,136.78530436764413 94.64310744550312,136.56206948870386 94.83217424154282,135.98537802616192 94.58008518017596,133.3623373023438 93.54021780198673,131.24155134375906 93.69777346530464,128.73006002430338 92.39006145932944,124.80461769065005 91.19263841782231,123.0 92.4845948573784,124.84182610090647 93.28812874050345,126.86967212936725 93.69777346530464,128.59983353526331 93.66626233264105,131.29736183998466 94.80066310893744,134.10646644791996 94.92670763959177,136.0969958814967 93.68201789906016,139.4454974201799 92.89423958212137,140.84068690481945 90.16852660593577,143.22178381396225 89.22319262573728,145.39822599914623 85.44185670494335,147.94667412810668 84.13414469896816,148.98836454139382 83.18881071882788,150.1974614726787 81.37692059006076,150.88571280406904 78.80876327725127,152.42961780627957 77.34349560789997,152.22500469713123 75.35829424957046,153.7874985566159 76.13031700003194,154.84775405986875 75.76793897431344,156.5404289513972 76.30362822976895,157.26585588346643 76.3666504950379,158.04708142210438 74.5705159327481,164.2037569432141 74.77533829503227,165.50574432723806 73.27855949307559,166.5101277759386 73.19978166144574,166.91931933021988 73.29431505949469,167.77489848571713 74.25540460593766,169.28145130620396 75.8152056732797,173.24306347842503 76.14607256633462,175.0471473257785 75.87822793860687,176.60943126100756 76.66600625542924,176.4048472774739 76.90233975055162,177.0 81.06180926336674,176.64662832242902 83.26758855051594,175.41912099444016 84.22867809701711,174.32179632928455 85.23703434260096,171.62495135815698 87.09619117027614,170.08122083096532 87.0016577722854,168.59327451510762 87.23799126729136,168.2212858996354 88.19908081390895,167.68190096020408 89.99521537625697,167.92369442067866 91.41321634652559,167.42150761777884 92.8469728830969,167.51450528592977 94.23346272070194,166.58452631375985 95.52541916037444,166.6403251955926 95.74599708913593,166.04513617686462 97.32155372266425,165.67314198108215 97.7942207128508,165.22674787080905 98.31415440194542,163.68295919516822 99.25948838220211,162.47395826679713 100.23633349506417,159.62812211214623 103.65529139013961,158.10288310877513 107.89353873458458,156.89384245917608 108.7916060158168,155.36857890029205 108.99642837821739,153.50848285033135 110.19385141972452,153.00625342383864 111.26522993063554,151.5553600708663 112.46265297214268,151.59256261937844 114.14849857025547,150.84851010068087 115.12534368305933,149.47200434695696 117.34687853656942,149.1557784761244 120.82885869691381,150.97871952679998 123.08190468308749,150.71830057477928 125.2561728375149,151.2019354535296 125.90215105732204,152.26220709896006 125.41372850089101,153.6758923291054 125.8233732256922,155.7405956655566 126.80021833849605,156.57763040788996 126.75295163952978,159.94432848405268" stroke="#4dd2ff" stroke-linecap="round" stroke-linejoin="round" stroke-width="0.5"><title>2021-09-19 11.2km</title></polyline><polyline fill="none" points="168.12001665087882,142.80762169510854 171.6735617700324,134.9062583992927 173.12929754317156,131.32091515427965 173.72709018006572,129.55755267279528 175.25478247430874,123.8752528396144 175.12193966610357,123.51600882278217 174.086872785585,123.0 170.7713376977481,127.63085639234487 167.11262535539572,131.66705056839055 166.44841131442809,132.7968748532985 166.10523405994172,133.16912441888053 165.19193975356757,133.67851480362515 164.31739126631874,134.71034355939992 161.98157188890036,137.1004607298455 160.2712207333825,139.0529718554244 159.46309365020716,140.3720235406072 157.7970234307868,144.40735737499563 156.35789300868055,147.30636112887805 153.13091979295132,154.59895404440613 152.0017559232947,156.29629662454317 150.52387968215044,158.2416531168601 149.02386297294288,161.25095582129507 149.1234950790822,161.7470519286726 149.06814390901127,162.09953876845975 147.90023422031663,164.5277250187719 146.78214058466256,167.70641131992306 145.1160703652422,171.6093721985926 144.74521752569126,174.57884586769796 144.9666222060332,176.7193860740772 145.18802688634605,176.97389643446877 145.4703178537602,177.0 146.8153512867284,176.04068649007968 148.32090311293723,175.12704028424923 150.64565225632396,173.43675804291706 151.65304355177796,173.0647590183471 154.99625422467943,171.43315704300403 157.33760871909908,170.68260519938121 158.24536790844286,170.27142932953575 159.46309365020716,169.55349643578302 161.48341135814553,168.0980242335536 162.2029765692132,167.46491541247087 161.60518393234815,162.41285866050748 161.73802674052422,159.27305807820085 161.86533443172812,158.2481810522877 161.72695650652167,156.7924338203593 161.71035115548875,155.01023762949626 162.12548493110808,153.09741853348896 162.41884613252478,152.35316522046196 164.30078591528581,149.5980416510538" stroke="#ff9400" stroke-linecap="round" stroke-linejoin="round" stroke-width="0.5"><title>2021-09-11 21.0km</title></polyline><polyline fill="none" points="67.0,244.3998799282199 66.23365433351137,242.8264865815072 65.84657157339097,242.401983310996 65.59242632685346,241.5437353903908 65.20143363984243,240.80082927500916 64.9668380276562,240.50550892424872 64.90818912461691,240.1871143549797 64.43899790022988,239.90563309665959 64.44681775396748,239.62414996001098 64.96292810079467,239.04733438529001 64.80262109912292,238.75200175780992 64.38034899717604,238.24900861653805 64.26305119108292,237.92136765615214 63.508435305178864,237.38144671778355 63.28556947362085,237.12302057492707 62.78509883425431,236.98919212861074 62.26116863368952,236.7307635822035 61.909275215424714,236.25543551369992 61.00608210847713,235.64165445133403 60.81449569184042,235.60012007177647 60.35312432117644,235.61396486950616 60.07160958657914,235.70164848292188 59.109767576577724,236.23697606316637 58.29650278763438,236.30158410469085 58.10491637101222,236.4861779636376 58.011078126131906,237.7183212765558 58.085366736660944,238.4382085753059 58.05408732171054,239.13962540731154 58.120556078487425,239.6195354667143 58.230034030857496,239.87333184851377 58.28868293391133,240.72699938114238 58.4059807399899,241.2115057012743 58.37861125191557,241.40530667121857 58.53500832671125,242.49888117286537 58.48026935053349,242.641920466991 13.543479834930622,237.71370657474108 13.0,238.5535739872903" stroke="#4dd2ff" stroke-linecap="round" stroke-linejoin="round" stroke-width="0.5"><title>2021-09-07 16.2km</title></polyline><polyline fill="none" points="79.82100321655162,261.00959061975664 79.73180909326766,260.7027041221081 79.80222550639883,260.44395498087033 79.72242023819126,259.63761045973297 80.04633573850151,258.5604550043645 80.75988872468588,255.22049974671972 81.18238720335648,253.9927752901749 82.79727027731133,252.09695540867688 82.82543684256962,250.30337263807087 82.93810310354456,249.32830630266108 83.85351647395873,248.80465043630102 84.74545770668192,248.11847102184402 86.36503520820406,246.53540127779343 86.61383986787405,245.8130687107514 87.55272537600831,244.80780234719714 87.75928018777631,244.30215049595063 88.30383378249826,243.76037405199168 88.75449882639805,243.51356251820835 89.56194036337547,242.77311941032167 89.97035555940238,241.9905233933423 90.18629922630498,241.14771174062844 90.36938190035289,240.83466320151274 91.2143788576941,240.29284303175154 91.8669042858237,240.35304561027806 92.10162566287909,240.2988632934066 93.27523254803964,240.64803702560312 93.85264713552897,240.44334931988124 96.1623054855445,240.75640071031376 96.81013648613589,240.70221890211178 97.72554985655006,240.45538980015044 98.63157437191694,240.3951873650476 99.25123880727915,240.70221890211178 100.35912370687583,240.9671070925724 101.36842562808306,241.3824966480679 102.11014517952572,241.55707946547045 102.43875510734506,241.49687857408207 102.95044770929962,241.56911963361927 103.49969573155977,241.90624297205432 104.62635834130924,242.1350037309021 104.85169086325914,242.37580321387213 106.08163087890716,242.56242188492615 106.89376684342278,242.82127869962642 107.81856906894245,242.7971990617225 108.20351212727837,242.9055573260157 109.79961749108043,242.9898357870843 110.52255933234119,243.27276941164746 110.81361383988406,243.29684878303306 112.57871859514853,243.12227303478357 112.98713379117544,243.18849150554888 113.47065982787171,243.40520578726137 114.04337998782285,243.42326526140096 115.28270885854727,243.70017624763932 116.0666782578628,243.60385958526967 116.41876032340224,243.7423147195368 116.83656437450554,243.7061960318897 117.58297835345729,243.87474964789726 118.30592019471806,244.3202095930901 118.75189081107965,244.47070177420392 119.2964444058016,244.4526427402925 119.83630357298534,244.29011109362546 121.48874206730397,244.5068198192239 122.04737894464051,244.4466230606413 122.80318177866866,244.77770418928776 123.19281926454278,244.78372382255475 123.93453881595633,244.97635164198437 124.57767538903863,245.36160469028255 124.71850821524276,245.36762424175322 124.74198035296286,245.22315477365555 124.76075806311565,245.28335044439518 124.96261844734545,244.56701649348906 124.88281317916699,244.39846559303987 124.98609058506554,243.81455200378696 124.92506302703987,243.3751066468103 125.00017386768013,242.73097998788944 124.8499521863996,242.38182318366307 124.89689646178158,242.1350037309021 124.80300791098853,241.8701227408892 124.91097974442528,241.6594207872222 124.92036859950167,241.07546997250392 125.14100669391337,240.73834011516738 125.24897852735012,240.31692407327864 125.18795096932445,240.100194213559 125.40389463616884,239.58846659526898 125.17386768668075,239.3295903019025 125.04242371555301,238.41448020319876 125.43675562899443,237.8244646721614 125.53533860729658,237.43312337043244 125.77475441189017,237.029737066503 125.74189341912279,236.39153607230037 125.63392158568604,236.2590780740029 125.54003303486388,235.84965986057432 125.83108754237765,235.3137977733495 126.02825349909835,234.3805388529545 126.87325045638136,232.99566566579597 126.75588976789732,232.4958961163611 126.86855602887226,232.3152550893501 126.76997305051191,231.58666190167787 127.0,231.06881129523026 126.87794488394866,230.83999159634914 126.91550030425424,230.39439184192815 126.7840563331265,230.13546013106316 126.7887507606938,229.5513526316572 126.67139007215155,228.9792808852617 126.80283404327929,228.44333307202396 126.67608449968975,227.97362049991352 126.45075197773986,227.72671824166537 126.42258541251067,226.84147164635215 126.22072502825176,226.5584297690075 126.27705815873924,226.31754159534103 126.18316960794618,225.9923404173096 126.18786403545528,225.47442234547634 125.99069807876367,225.34795303014835 125.90150395547971,224.89627386317807 125.929670520738,224.7457130849907 126.10336433973862,224.66742127168618 126.30053029643022,224.39641004640725 126.47422411543084,223.8905178491441 126.37564113709959,223.1918950155159 126.43197426758707,222.36678271757046 126.26766930366284,222.0596200746768 126.64322350692237,221.10800421118984 126.61975136920228,220.57195814013176 126.94836129707983,219.13243051355312 126.84508389115217,218.8071749084229 126.7887507606938,217.01822502807045 126.83569503607578,216.43393905067933 127.0,216.00023710005553 126.87325045638136,215.78940818010233 126.94366686951253,215.80145557485957 125.9202816656616,215.68700518822516 125.37103364340146,215.74121856730562 125.05181257062941,215.87976355831415 124.4227592801908,215.9400003714618 124.11762149003334,216.1086629985257 123.58715117795509,216.1387812550638 123.05198643833864,216.33153759639754 122.69520994523191,216.29539584833765 122.36190558984526,216.5182694766554 121.96757367643295,216.5905525670605 121.08502129878616,216.3857501614657 120.00999739198596,216.63271764691308 119.20255585500854,216.60862332066245 118.90211249238928,216.48212788582168 118.17917065112852,216.3857501614657 117.01025819350616,216.47610428438202 116.61592628009384,216.40382100125498 116.35303833783837,216.1026393446955 115.80848474311642,216.1749231349895 115.18412588021602,216.07252106279338 114.96348778577521,216.1749231349895 114.40954533600598,216.21106498448717 114.20768495174707,216.3255139738394 113.7100756324362,216.31346672616928 113.44718769015162,216.42791544249485 112.8463009649713,216.3435848390036 111.76188820306561,216.40984461282642 111.28775102147483,216.31346672616928 110.7244197166001,216.45200987019052 110.25497696251841,216.18094677869885 109.93575588977546,216.19901770471552 109.0109536642558,215.90988197543993 108.28801182299503,216.22913589784002 107.51343127878499,216.40984461282642 106.12857515431824,216.52429307218335 105.89854820483015,216.4580334750135 105.10988437800552,216.6447648050016 104.40572024689754,216.5182694766554 104.24141528297332,216.5905525670605 103.80483352168812,216.5001986850366 103.57950099973823,216.3255139738394 103.14761366599123,216.31346672616928 102.58897678865469,216.37370293069762 102.22281144047156,216.51224588029072 101.86134051985573,216.46405707898884 100.72998348256806,216.61464690348294 100.33565156915574,216.80740110797706 99.70190385117894,216.8375188742466 99.22776666955906,217.102554306206 97.57532817526953,217.08448376054366 97.33591237070505,216.95196619332637 96.69747022513184,217.1206248442395 96.38763800749439,216.91582496762203 92.35043032251997,220.1985288318574 91.4162392419239,220.74060256949087 90.74493610361242,221.25857774619362 90.69329740066314,221.42721947843165 90.31304876989452,221.6741579626214 89.85768929845653,222.33666883014666 89.36946883422206,222.77632948978498 88.79674867427093,223.0593962991661 88.61366600016481,223.3243933230042 88.30852821003646,223.41473284365566 87.94705728939152,223.69177285512706 87.32739285402931,224.36629758245908 87.18186560028698,224.40243253666995 86.7171172737435,225.13717001018085 86.2758410849201,225.43226594842417 85.39328870730242,225.69122601944764 84.92384595322073,226.00438494931586 84.32765365557862,226.58854069570225 83.48265669826651,226.98600294924108 83.29957402416039,227.21484318398507 82.29496653049137,227.93748855078593 80.9288881161483,228.63001228296707 80.63313918109634,228.85884375707246 80.32800139093888,229.24424137837195 80.06041902114521,229.8825485807647 79.72242023819126,230.23180699654404 79.49708771627047,230.68945165590048 78.88211770844646,231.05676818358188 78.5535077805689,231.5204255444587 78.21550899764406,231.66494110125132 78.12631487438921,231.8395634169392 77.64748326523113,232.2429984658229 77.36581761279376,232.27310540706094 77.14048509084387,232.4958961163611 76.61001477876562,232.6584723910928 75.60540728503838,233.52553546338822 75.01390941493446,233.8627219312075 74.62896635662764,233.81455259786162 73.81683039205382,234.0553987243693 73.6431365730532,234.19990575204793 73.75580283405725,234.18786351830568 73.6525254281587,234.18184240016126 73.66660871077329,234.290222397467 73.51169260192546,234.4527918806234 73.38963748587412,235.1753154727885 73.4365817612852,235.63290746187704 73.15961053635692,235.87976427390458 73.0,236.63236775005498 73.0046944275382,237.13810987848046 73.12205511605134,237.77027916609222 73.31922107277205,238.125494016851 73.2253325219499,238.57101357577267 73.4365817612852,239.31152910696255 73.37555420323042,239.85938197599899 73.60558115274762,240.35906586349665 73.56802573241293,240.52763261092332 73.72763626879896,240.9309860718604 73.6431365730532,241.11761101867887 73.82621924715932,241.5992200392393 73.81213596451562,242.12898372654672 73.99052421105443,242.61660134727936 74.60549421887845,243.24869002676496 74.85899330608663,243.7483344978573 74.82613231331925,244.52487883035428 75.06554811788374,244.982371247439 75.1312701034476,245.86724407447764 75.12657567590941,247.46839620669562 75.02329827001086,248.31108389340443 75.06085369031643,249.31626830842652 74.84960445101024,250.1950330265936 75.30496392244822,250.21308964746277 76.26732156827347,250.98951716875672 76.55368164827814,251.09183602863413 77.46909501869231,251.07377977694705 78.05589846125804,251.2001733794823 78.9994783969305,251.65759473908474 79.30461618708796,252.07889957923544 79.68486481788568,252.35575479703402 79.97122489783214,253.01177417215877 80.25758497783681,253.33075245226792 80.45475093452842,253.74000413724207 80.7082500217366,253.96870191109338 80.63783360863454,254.78117100445888 80.53925063027418,255.0459724277789 80.61436147091445,256.0931257125121 80.31391810832429,257.068038599431 80.0557245935779,258.4762070710058 79.72711466572946,259.69176840133514 79.79283665132243,259.9204345137332 79.77875336870784,260.5582861887924 79.2013387811894,262.80874386457435 78.76475701990421,263.57290992213893 78.72720159956953,264.31299481177484" stroke="#ff0000" stroke-linecap="round" stroke-linejoin="round" stroke-width="0.5"><title>2021-05-03 34.6km</title></polyline><polyline fill="none" points="175.81623410555767,255.1870392795463 175.48702316670096,254.9821813827475 175.06845497299219,254.9761561357409 174.9085525169794,254.87372680796034 174.250130639266,254.77129723677353 173.36126110434998,255.132812283955 173.1355164605484,255.03038332840515 172.83922661558609,255.054484281005 172.35951924751862,255.25331662595272 172.1902107646747,255.1810140611815 171.23079602856888,255.34971985703305 170.39365964118042,255.2171653587211 169.94687336700736,255.38587101309167 169.8340010451211,255.361770245745 169.36369970388478,255.64495341106158 169.14736108691432,255.50637464770261 168.9122104163107,255.56662633867745 168.56418742379174,255.27139224821076 168.19735237763962,255.36779543885496 167.95279568017577,255.19908971374025 167.5060094060318,255.2171653587211 167.31788886952563,255.12678705802682 166.56540672358824,255.26536704164755 166.26911687859683,255.21114014457999 165.8693607385503,255.30754346997492 165.62480404111557,255.2292157845186 164.96167914997204,255.33766946493415 164.57132903675665,255.2954930660744 163.86117401148658,255.50637464770261 163.48963595193345,255.7955819964045 163.00522557046497,255.93415983009982 162.5866573767562,255.83173277858077 161.67897578817792,256.0787623120268 160.86065145445173,256.61499228153116 160.0987632816541,256.4101411704032 159.9059397317469,256.50654181453865 159.43563839053968,256.50654181453865 158.226963943569,256.77164247440305 157.64849329384742,256.9644419304095 157.4133426232438,256.9102171705672 156.8207629332901,256.98854180179114 156.2940254311252,256.90419219304385 155.80020902282558,257.0668662907119 154.96777564883814,257.0487914212754 154.09301515415427,257.2777392074313 153.4110782093776,257.2777392074313 153.23706671313266,257.20544003789837 152.7949834523606,257.40426246236166 152.1694826685125,257.4825861960089 151.7462114614027,257.24761456819397 151.19125587880262,257.2355647066033 150.08134471345693,257.46451150087887 149.42292283574352,257.4524616999115 149.40881379551138,257.35003825572494 149.16425709804753,257.22953977454745 148.73628287756583,257.2114649733194 148.4635080996377,257.33196350501385 148.20954537537182,257.31991366700095 147.54171747082728,257.6332083607813 146.87859257968375,257.55488490077187 146.40829123844742,257.7296062700334 146.102595366654,257.7115316784875 145.8815537362825,257.8199791142288 145.6511060790799,257.7898548538833 144.68698832957307,258.01277388201925 143.99094234453514,257.8561281988623 143.40776868141256,257.9766249287313 142.94687336700736,257.8440785073544 142.4389479184756,257.97060010022324 142.26493642223068,258.139294979821 141.4560181153356,258.0368731673552 140.4401672182721,258.16339419443466 140.13447134644957,258.10314613261653 139.96516286360566,257.9826497563772 139.46194042850402,258.00072423427264 138.44608953144052,257.85010335352126 138.02281832433073,257.88625241289265 137.60425013065105,257.82600396377165 137.2609301515622,257.6211586069476 136.6354293677141,257.4102873700067 135.24333739766735,257.33196350501385 134.9658596063382,257.24158963781156 133.95471172270481,257.26568935427713 133.73837310573435,257.1572405241677 133.48441038146848,257.1572405241677 133.31039888519445,257.0066166964716 133.07054520118982,257.02469158359236 133.0611391743587,256.8921422354506 133.0,256.952391989671 134.15223828601302,256.4462914372016 134.38738895664574,256.2173392354198 135.00818672706373,256.0365866382417 136.6025082738197,255.0183328470448 137.02107646752847,254.86770154581245 137.49608082216582,254.54233613879114 138.2062358474068,254.21094292198177 138.4743076119048,253.9578772953755 139.48075248213718,253.54212339776132 139.70649712593877,253.28905384462632 141.9780526040995,252.1803506701508 143.33722348022275,251.08969635279573 143.7840097543958,250.87879316236285 143.95802125064074,250.87879316236285 144.81396969169145,250.2400514899673 145.30778609999106,250.06529976063757 145.57585786448908,250.0833775585961 146.02734715206316,249.9508068641444 146.67636300294544,249.4446240980069 147.49939035013085,248.99869625948122 147.62166869884823,248.81188728016423 147.88974046334624,248.70341717867268 148.0073157986335,248.5045546168658 148.68925274341018,248.2394031070544 148.86796725311433,248.05861705143616 149.10782093711896,248.05259083651254 149.32415955408942,247.8055152994566 149.72391569413594,247.67293759808672 150.54694304129225,246.78104064221407 151.27120710679446,246.443561304779 151.7415084480017,246.43150842241812 152.60215990245342,246.08197336758167 152.90785577424685,246.04581440698894 153.1477094583097,245.88309870889134 153.26998780699796,245.67819658546432 153.73558613483328,245.43110743491707 154.30465075769462,244.67777810952612 154.8925274342182,244.18961367458905 155.42396794984234,243.64117542886015 155.5086221912643,243.44831636484378 155.72966382163577,243.2976446204848 155.90837833131081,242.8456262262298 156.86309005401563,242.37552206599503 157.49799686466577,241.73062724576812 157.5732450792566,241.5437867561959 157.88364396445104,241.30872821528465 158.17993380944245,240.8144983824277 159.05469430412631,240.48902685989378 159.39331126981415,240.0430063357744 159.71781919526984,239.87424060907506 160.0987632816541,238.76519224419098 160.888869534916,238.3794295989901 160.98763281659922,238.22271253769213 161.26981362132938,238.05393968028875 161.78714509666315,237.36075851009446 162.1963072635699,236.98101105324167 162.5866573767562,236.33603547944585 162.67601463160827,235.67899435827348 162.9817105034017,235.09427961199617 163.07106775822467,234.55778178033506 163.2121581606043,234.44927578851275 163.45671485803905,233.97305181448974 163.45671485803905,233.72589552482896 163.29210938862525,233.43051175744404 163.35324856295483,233.1411542661699 163.58369622015744,232.70711438454964 164.1292457760137,232.24292800452167 164.35028740638518,231.90533476786732 164.66538930498064,231.7787366219527 165.32851419612416,231.1276545651017 165.72827033617068,230.91062502566638 165.85995471171918,230.51273469633088 166.76763630029745,229.71091422891914 166.92283574290923,229.68077031117718 167.4072461243777,228.98142549685872 167.59066364745377,228.86687655697824 167.95279568017577,228.276040344208 168.70998083960149,228.28206932608373 169.6646925622772,227.78166095774213 169.96568542066962,227.5646145563005 170.00330952793593,227.38374171947726 170.2525692388299,227.22095551679377 170.36544156068703,227.0400812365806 171.2402020554,226.37686904275324 171.4001045114128,226.03922982050426 172.08204145618947,225.78599866651348 172.78749346802942,225.17100252127784 173.67165998957353,224.65246953483438 174.0620101027598,224.56202709534773 174.60755965861608,224.2665804691751 175.9197004006419,224.013338890436 176.72391569413594,223.97716140048215 177.32590141089167,223.75406620732974 177.9184811008745,223.6756811353298 178.7132903675374,223.19933801403022 179.5269116878626,222.4154707739399 179.90315276084584,222.22854647866188 180.04424316319637,222.02956165973228 180.98014283226803,221.8546954536214 181.07420310052112,221.8667552147781 181.05068803342874,221.92705396987003 181.1353422748798,221.84866557177156 181.51158334786305,221.83660580556534 182.78139696916332,222.7410788986781 183.096498867817,222.80137642935006 183.70318759797374,222.72298962301647 184.7049294548051,222.98829823781125 185.30221215815982,223.33199105823587 185.53265981536242,223.71788849951918 186.00296115659876,224.10981204844575 186.22400278697023,224.68261697245543 186.4779655112361,224.97203129966147 186.69430412820657,225.44835481138944 186.92004877197905,225.56894220640243 186.96237589270459,225.71967597533876 186.84950357081834,226.22613757422732 186.88242466468364,226.6361259345067 187.0,226.9074396149408 186.55321372585604,228.71012488233828 186.27103292109678,230.2836446574147 185.9794460895355,231.27234031718035 186.0499912906962,232.17661525614676 185.8242466469237,233.06881458963835 185.4244905068772,233.83440333882754 185.37746037277975,234.64820323136883 185.20815188990673,234.907410339114" stroke="#ff8200" stroke-linecap="round" stroke-linejoin="round" stroke-width="0.5"><title>2021-05-02 22.6km</title></polyline></svg>