<?xml version="1.0" encoding="utf-8" ?>
<svg baseProfile="full" height="300mm" version="1.1" viewBox="0,0,200,300" width="200mm" xmlns="http://www.w3.org/2000/svg" xmlns:ev="http://www.w3.org/2001/xml-events" xmlns:xlink="http://www.w3.org/1999/xlink"><defs /><rect fill="#222222" height="300" width="200" x="0" y="0" /><text fill="#FFFFFF" style="font-size:12px; font-family:Arial; font-weight:bold;" x="10" y="20">Over 10km Runs</text><text fill="#FFFFFF" style="font-size:4px; font-family:Arial" x="10" y="280">ATHLETE</text><text fill="#FFFFFF" style="font-size:9px; font-family:Arial" x="10" y="290">DingXiaoshan</text><text fill="#FFFFFF" style="font-size:4px; font-family:Arial" x="120" y="280">STATISTICS</text><text fill="#FFFFFF" style="font-size:3px; font-family:Arial" x="120" y="285">Number: 10</text><text fill="#FFFFFF" style="font-size:3px; font-family:Arial" x="120" y="290">Weekly: 1.1</text><text fill="#FFFFFF" style="font-size:3px; font-family:Arial" x="141" y="285">Total: 224.3 km</text><text fill="#FFFFFF" style="font-size:3px; font-family:Arial" x="141" y="290">Avg: 22.4 km</text><text fill="#FFFFFF" style="font-size:3px; font-family:Arial" x="167" y="285">Min: 11.2 km</text><text fill="#FFFFFF" style="font-size:3px; font-family:Arial" x="167" y="290">Max: 34.6 km</text><polyline fill="none" points="16.68176152027445,72.93475087462139 16.505129106662935,71.98392445857098 16.527208158338908,70.87677869263644 16.295378115493804,70.27109612775894 16.32849669305142,70.1147899503303 18.59711925551528,68.66242544700799 20.08745524546248,67.82225223954083 20.479358413169393,67.91994740725931 23.59802446619142,71.9513616414115 25.21531500344281,72.86962626159584 29.454492930381093,75.92389401710534 33.74886848661117,78.86079279770638 36.067168915382354,80.96407040824488 36.46459184604464,81.15941750371712 38.02668475403334,82.29241803477635 44.9098291224218,86.90884703143456 45.16925797989825,87.0 45.68811569493846,86.29030534964477 46.08001886267448,85.50246928526394 47.846342998876935,79.97430195317793 48.657748148951214,78.43101177077551 49.32563946294249,77.6951673634685 53.3992245021509,74.15908035440589 58.676117859140504,67.93297341752259 63.70462188447709,60.05823065196455 63.56662781134946,59.84327270516587 57.583204799855594,54.25409374836454 55.41393797006458,51.83065032490049 54.72948736726539,51.198714724094316 46.97422045661369,45.84327983179901 46.819667094707256,45.94752647124551 46.416724401089596,47.17241080992608 45.24101489793975,48.78817713080571 44.5676038210222,49.97391322475596 44.48480737709906,50.05860775636393 44.36337259275024,50.019517987519066 43.971469425043324,49.38104812979145 43.0055109130044,44.72261692720713 42.795759921864374,44.15576195761969 42.36521841364447,43.51722920449174 42.36521841364447,43.32175862486838 48.17752877442399,38.64330452383365 48.96133510989603,37.926517225856514 49.60162760925596,37.007713607566984 51.666018943476956,33.006516826630104 51.892329223454,33.0 52.15175808095955,33.18247087557029 54.624611871666275,35.365561164333485" stroke="#ff9100" stroke-linecap="round" stroke-linejoin="round" stroke-width="0.5"><title>2023-03-19 21.3km</title></polyline><polyline fill="none" points="104.61796384121408,58.58227365768471 104.6567237295385,58.569210938101605 104.77300339462818,58.64105586059304 105.45960713116801,56.62936541181989 107.32008177222451,54.075466108064575 108.11189092005952,52.67110160537777 111.67780064875842,44.8517808655306 111.83837732908432,44.263820676565956 112.5748152078595,42.68936547315752 113.58810943196295,39.965002703331265 115.09974507783772,34.75112772413195 115.28247026581084,33.87557027657385 115.2049504891038,33.54233235518768 114.23595328020747,33.01960246003364 113.98678256935091,33.0 110.42640996759292,38.03108710660672 107.07644818830886,41.67672714399305 106.18497075614869,43.042151571622526 105.17721365886973,43.64318975920469 103.30566476401873,45.740243069274584 101.60022967640543,47.47139987801711 100.27685634541558,48.97387270532272 99.47951007066877,50.2738078628754 98.54373562321416,52.33143640092385 97.75192647540825,54.35633505144142 96.21260519500356,57.46540082716456 93.10073987278156,64.53204591162284 91.93794322211761,66.28878099913709 90.5370501143916,68.15647995577456 89.04202584928134,71.08198913259184 88.9700431994861,71.32359845296378 89.04202584928134,71.97659173604916 87.71865251829149,74.8235592124147 86.66106127886451,77.84015223258393 85.0774429832527,81.6008865061267 84.71752973421826,84.57143844412712 84.92794055669219,86.71275591887388 85.18264839448966,87.0 85.50380175514147,86.99347174073046 90.65886690639309,83.42893590686435 91.64447549599572,83.0633304912335 95.01104865601519,81.44419396069497 97.29788206896046,80.69989877001717 98.71538655736367,80.03394259894412 101.60576680328813,78.00991268998041 102.1816280017083,77.45492479374298 102.24253639770905,77.23945751816063 101.63898956475896,72.47939170936297 101.73312072217232,69.37763621918566 101.8715488948801,68.19566182709968 101.74973210290773,66.9875423286976 101.72204646834871,65.04796974386045 102.10964535194216,63.28466738026327 102.43633583947667,62.337687255450874 104.07532540420652,59.97343696696407" stroke="#ff8800" stroke-linecap="round" stroke-linejoin="round" stroke-width="0.5"><title>2022-06-18 22.1km</title></polyline><polyline fill="none" points="148.46486568523687,37.12289407911885 148.29276066168677,36.91974573919288 148.35832448015572,36.56181657558773 149.57945059947087,36.939093220258655 150.23508878433495,37.69364167824824 153.93944452874712,40.199083300882194 154.34102291695308,40.80850430870487 154.84094703293522,42.201450834807474 154.73440582785406,43.526664307151805 155.00485657915124,43.95227609798167 155.71786310517928,44.31984826824919 156.70132038241718,44.56167123097839 158.16011534372228,45.25811766766128 159.93853392012534,45.75143057407695 161.76612536044559,46.83477474718529 162.15950827134657,47.328078855724016 162.77416906962753,47.802035112385056 163.92153589313966,49.20454384514596 164.29852784943068,50.49096332738554 164.5443921687547,50.85850831308926 165.50326301407767,51.38080645399896 166.1834876308858,51.43883939032821 166.19987858549575,52.23195236930769 166.70799817878287,51.92244571173069 167.23250872662175,51.83539676908549 167.71604188799392,51.980478292571206 168.61754439215292,52.62850619103847 168.69949916526093,52.570474035528605 168.8470177568379,52.193264096349594 168.7076946425659,51.14867432782194 168.85521323417197,50.17177828447893 169.36333282742999,49.34962968559557 169.740324783721,49.49471528797585 170.91227803914808,49.26257820988394 171.79738958869711,49.37864682511281 173.05949309453717,50.22981201433868 173.31355289116618,50.24915658250393 173.03490666262223,49.281922989677696 173.1742297768942,47.11528134255059 173.93640916675213,45.09367942047538 174.23964182729833,44.697091801172064 174.88708453485742,44.36821291373781 176.30490210957942,44.37788583963993 176.69008954317542,44.503633780259406 177.30475034145638,45.12269795690372 178.39474882380455,46.59295800229302 178.8455000758695,46.90248331720795 179.59948398845154,48.19860880325723 179.94369403549354,50.12341681379621 180.23873121867655,50.81981943916617 180.09940810440457,51.77736409303179 180.2141447867907,52.43506552455801 180.4272271968366,52.70588233915623 181.10745181358652,52.94768236554228 181.57459402034874,54.39846863846469 182.12369100016076,55.02713529802713 182.1073000455217,55.39466142880701 182.61541963880882,55.617110713261354 183.07436636817874,55.59776731941383 184.0332372135308,55.210898554345476 183.8201548034267,55.646125796039996 182.86128395813284,56.468215852670255 182.85308848079876,56.62296136157238 183.75459098495776,56.913108460961666 184.2463196236058,56.90343690629379 184.9347397177189,56.69066243657289 185.08225830929587,56.768035030239844 185.18060403701384,57.174240036423726 185.08225830929587,58.42185803216125 184.7626346941979,59.58241711046139 184.41022916982183,60.220718111959286 184.70526635297574,60.01762283845164 185.48383669753093,58.87641215219628 186.75413568070508,58.42185803216125 187.0,58.55725737608009 186.10669297314598,59.611430892313365 185.91819699498592,60.230389303811535 185.48383669753093,60.762303227842494 186.098497495841,60.89769898860686 186.50007588404696,60.71394754873472 186.67218090756796,60.89769898860686 186.50007588404696,61.55533259257936 185.91000151768094,62.58045757608488 185.77067840340897,63.373470639002335 185.1150402185449,65.26893647015822 185.44285931094782,67.30941806363262 185.22158142356784,67.79293760927976 185.22977690087282,69.14677827728156 184.7626346941979,69.83336098361906 184.57413871603785,70.62630902779347 183.12353923203773,71.370900111011 181.3779025648837,72.6666670540726 180.3042950372037,73.2178457467453 178.14068902717554,73.22751551771216 177.87023827590747,73.4595897041072 177.5096372742555,74.18481761310977 175.51813628774835,75.60624707102397 174.87069358018925,76.43782106441358 174.23144634996424,74.99706581383361 173.01851570798317,75.13243978902756 172.2317498861521,75.86732346875942 171.4203976324061,76.35079624522768 170.74017301559797,77.04699240236368 169.96979814840597,76.75691133591317 170.1746850811469,77.62715168231807 170.084534830763,77.87855285563273 169.84686598877306,78.00425317446206 169.0519046896079,78.0429301596887 167.9864926392329,77.61748239213921 166.3146152678528,77.5207894324194 164.66732432841673,77.22104058573314 162.68401881921454,77.25004858302418 161.26620124449255,77.47244291290554 160.8154499923985,77.75285235825868 160.15161633022944,77.86888359294244 159.12718166637933,77.61748239213921 158.76658066475648,77.64649025947438 158.1109424798924,77.05666175485385 157.0783123387373,76.66021743576857 155.97192290177918,76.93096008988505 156.12763697071932,77.06633110631083 153.9476400060521,77.76252163363824 153.71816664136713,78.70043632246961 153.03794202455902,79.50297398845578 152.19380786156398,79.78337699930125 151.39065108512295,79.74470077478327 149.41554105325486,81.04034509484336 147.39945363480365,81.34008100431674 146.48975565331057,81.29173657148203 145.30141144327354,82.42298937896703 143.22795568368747,83.31251134522608 142.5313401122985,83.47687855598633 141.39216876609134,83.30284267626848 141.0315677644394,83.41886663410696 140.4742753073224,83.01278211623867 139.94156928212033,82.33597044564522 140.1710426468053,81.31107434778096 139.94156928212033,80.52789102699899 139.5235999392462,80.88564229271287 138.76961602669326,82.02656910080259 138.3680376384582,82.19093869992503 138.13036879643914,80.99200049821957 138.3270602519333,80.48921512785455 137.48292608890915,79.5223121556337 137.2862346334441,78.88415040644031 137.72879040820408,77.84954506441136 138.48277432081522,77.0373230487894 139.62194566696417,76.86327450402314 140.87585369552835,76.95996818226558 141.3266049475933,76.82459700313484 141.26104112912435,76.56352342995524 140.90863560474827,76.35079624522768 139.02367582332226,75.66426411489374 138.80239793591318,75.40318711799773 138.76142054935917,75.02607454021927 140.2529974199133,73.14048754087707 140.77750796778128,72.94709173031879 141.22825921987533,71.370900111011 142.0150250417355,70.8777300943184 142.17073911061743,70.57795874077419 141.98224313245737,70.34587699519761 142.0150250417355,70.17181528652145 142.67066322654136,69.63995794349466 140.44968887537834,69.65929826652427 139.06465320987627,70.08478430371906 136.66337835782906,71.11948044601013 135.73728942172602,70.84872000773612 134.884959781426,71.07113042852143 134.51616330246907,70.76168969085847 134.39323114277795,69.5045755638057 134.05721657304093,68.51821197244863 133.66383366211085,67.83161905877932 133.0,67.27073638576258 136.41751403853414,66.4970992770468 137.44194870235515,65.22058325485705 137.94187281830818,64.79507382037264 138.73683411744423,64.61133047720068 139.58096828043927,64.12779353975202 140.07269691908732,63.6926080359699 141.12171801485238,63.257420390989864 142.6542722719605,62.106580522733566 143.69509789042058,61.11046333674312 143.50660191226052,59.87255450043449 142.12156624672934,59.65011591991788 140.53983912579133,58.518571870394226 140.2120200333593,58.47988634779904 139.96615571403527,58.276787076531036 138.6220974350872,57.75452966573357 137.88450447711512,57.08719626360107 137.32721201999811,56.92278001450177 136.7781150401861,56.55526023473067 137.5484899074072,55.58809562092938 138.72863864013925,54.79501274420909 138.73683411744423,54.446827770960226 140.96600394597044,51.79670832261763 141.38397328881547,50.84883609618555 141.85111549551948,50.36522390256869 142.1461526786734,49.77521344415436 142.38382152069244,48.46943859428575 142.07239338287036,47.56022101317649 142.5231446349644,46.97019183538214 142.4002124753024,45.964231370082416 140.7283351039514,42.24981663930521 140.94961299133138,42.007987352139025 145.7439672180626,39.7831268670343 145.94065867352765,39.5703111904586 146.1373501289636,38.82545228714298 146.0062224920257,38.36112148295797 146.55531947183772,37.6549470422251 147.62892699951772,36.52312144401367 148.29276066168677,36.64888055961637 148.25178327513277,36.87137701801112" stroke="#ff6200" stroke-linecap="round" stroke-linejoin="round" stroke-width="0.5"><title>2021-12-18 25.6km</title></polyline><polyline fill="none" points="17.66511843938497,124.38602259489562 18.308871342334896,124.11575900597381 18.927542963268934,124.19297725200886 19.40408732002834,123.47870610261452 20.098002786835423,123.19878757881088 20.398978169978363,121.92466534796404 20.842080817499664,121.17176697711693 20.934045517875347,120.42851534805959 20.599628425436094,120.32233607339003 20.382257315388415,119.77213249310444 20.716674407827668,119.60803607691196 20.557826288917568,119.10609235375887 20.783557826274773,118.85511950629007 21.01764979097061,118.87442513327551 20.683232698531356,118.71032717992784 20.57454714353662,118.12150279893831 20.05620065025869,117.54232774711272 20.123084068734897,117.32996268440183 19.571295866247965,116.2874364594245 19.679981421271805,115.87235341664928 18.91918253598851,115.03252873788733 18.701811425882624,115.23524571357848 17.40594519273145,115.44761541858315 16.661867162096314,115.71790345335467 16.494658615876688,116.08472170967434 15.733859730622498,116.17159951209032 15.324198792368406,116.37431407806434 14.939619136071997,116.85696608051512 14.588481189042795,116.99210820557346 13.443102647463093,116.54806907897 14.421272642823169,115.28351159695012 16.202043659985065,114.40506871404068 16.628425452829106,113.75829792748846 16.979563399916515,111.89518752868753 16.661867162096314,109.45281694855657 16.803994426387362,109.25008773823356 19.939154667867115,107.53169910709403 20.867162099370034,107.6668543858832 21.41895030188607,107.13588612224703 21.477473293081857,106.44079594723735 22.12958662334131,105.62019688768487 22.790060380881187,105.32091783424403 23.759869948902633,105.18575924556353 24.027403622865677,104.40376652461418 24.26149558753241,104.28791520820232 24.336739433347248,103.98863199226616 24.26149558753241,103.67003915421083 23.910357640503207,103.52522387755016 24.21969345101388,103.16801192564162 26.209475150943035,101.89362329727737 28.03204830471077,99.92408024671022 29.118903855065582,98.97791281073296 29.653971202962566,99.06480612834275 31.008360427309526,98.47586098767351 31.685555039468454,97.88691222525085 32.66372503482853,97.54898916895763 33.74222015790292,97.86760236843111 35.196934509964194,97.91587700317177 36.133302368805744,97.51036931519775 36.024616813723696,97.81932770938147 35.65675801207544,97.88691222525085 35.556432884332025,98.0703556707449 36.007895959104644,98.53379017849511 36.30887134230579,98.56275476078008 36.501161170454,98.96825799281214 36.87738039944088,99.0841157437535 37.23687877380871,99.46065246641956 37.8388295401528,99.20962814913219 38.71667440776946,99.11308015960822 39.20993961911881,99.50892629814916 39.235020901076496,99.99166327731655 39.48583372036228,100.12682919549115 40.23827217836515,99.89511607614986 40.27171388757415,100.0109727058807 41.124477473291336,99.51858106160216 41.67626567577827,98.97791281073296 42.094287041341886,99.19997335456719 42.244774732913356,99.75029509188607 42.56247097073356,100.15579329598404 42.637714816548396,100.41646980636142 42.44542498837109,100.86058370844694 43.156061309797224,101.09229449203121 43.172782164416276,101.43020504665037 43.38179284721264,101.84535066744866 43.54900139340316,101.88396877326159 44.410125406400766,101.32400471509027 45.39665582907037,101.19849508050538 45.41337668366032,101.07298528147658 45.789595912676305,100.9474753179602 45.73107292148052,100.76403738316003 45.948444031586405,100.82196518997807 45.789595912676305,100.63852701481665 46.15745471432456,100.77369202005502 46.34138411519234,100.63852701481665 46.70088248953107,100.76403738316003 46.5838365071686,100.4357791492439 46.72596377145965,100.47439782339643 46.7426846260787,100.32957771504152 46.19089642359177,100.12682919549115 45.88992104041972,99.21928294274403 46.098931723157875,98.84274527111847 46.04876915932982,98.44689637910051 46.22433813282987,98.37931225841749 46.36646539712092,97.92553192718333 46.266140269406606,97.1917549272257 46.5503947979596,96.99865478226275 46.7761263353168,97.1434799274939 46.89317231767927,96.99865478226275 47.22758941008942,98.24414387396246 47.411518810957205,98.29241831887339 48.28936367860297,97.82898264315008 48.59033906177501,97.91587700317177 48.78262888992322,98.1572498117821 48.85787273570895,98.90067424003792 49.29261495589162,99.20962814913219 49.167208546219626,99.3834142850319 49.4765443567012,99.37375950796559 49.77751973987324,99.7213308687642 49.85276358568808,100.36819643201306 50.17045982350828,100.75438274525368 50.045053413836285,100.9474753179602 50.01997213190771,101.73915079618746 49.6688341848494,102.42462061966216 49.693915466807084,102.75287203753396 50.28750580584165,102.26049448886624 50.32930794238928,102.43427508918103 50.63864375289995,102.3570393057671 50.64700418020948,102.56943756031978 51.165350673458306,102.38600273183692 51.80074314909871,102.55012864754099 52.168601950776065,102.43427508918103 52.494658615847584,102.56943756031978 52.77055271714926,102.49220188588515 52.71202972595347,102.22187653489527 52.519739897805266,102.12533158177393 52.904319554101676,101.81638707788079 52.678588016715366,101.27573179816682 52.937761263368884,100.57094444063114 52.84579656293499,100.1944120830376 53.347422201535664,99.51858106160216 53.2303762192314,99.01653207275376 52.79563399904873,98.81378077352565 52.503019043186214,98.38896713571012 52.42777519740048,97.41381961260049 52.99628425450646,96.52555778156238 53.69019972131355,94.11176119109587 54.150023223424796,93.02070516572712 54.216906641901005,93.21381333228783 54.668369716673624,93.14622551829234 55.16163492802298,93.34898881715344 56.43241987924557,93.20415793321445 56.51602415234083,93.09794847908779 57.98745935905026,93.53244095570699 58.01254064097884,93.8607228527253 58.706456107698614,93.61933921444142 59.04087320016697,93.95727613768395 59.458894565701485,93.80279083502683 59.66790524846874,93.91865483539732 59.83511379471747,93.78348015469237 59.99396191359847,94.034518695531 60.46214584301924,93.96693146081816 61.06409660936333,94.31452244547836 61.10589874594007,94.53659380289173 60.754760798910866,94.85521702489496 60.46214584301924,95.5021154568094 59.31676730143954,96.41935201119486 59.31676730143954,96.80555424794147 58.91546679052408,97.30761482730304 58.764979098923504,97.77105302599375 58.48072457037051,98.0896654866956 58.15466790526989,98.13794000945927 57.71156525777769,98.63033875200927 57.51091500231996,99.05515131916036 57.59451927541522,99.47030723469652 57.40222944726702,99.76960456912639 57.76172782166395,100.04959155132383 57.836971667420585,100.29095898252854 57.452392011124175,100.54198046567763 56.94240594518487,100.34888707547361 56.10636321414495,100.55163512499712 55.49605202040402,100.97643917030655 55.06967022755998,100.90885683459055 54.166744078014744,101.43985961643193 53.64839758476592,102.27014897495974 53.42266604737961,102.33773035016202 53.96609382258612,103.24524705513613 57.377148165367544,102.7625264739545 58.0627032048651,103.2162838888471 59.157919182558544,103.1776663202254 59.49233627493959,103.39006275508291 59.4003715745348,103.67003915421083 59.02415234557702,104.05621215501742 58.81514166278066,104.69339420265896 59.04087320016697,105.13748827483505 59.893636785884155,105.53330951690441 60.20297259639483,105.97739969522081 60.14444960516994,106.9621140513118 60.320018578728195,107.4448134700142 60.02740362283657,108.05301127467101 59.935438922431786,108.7384359188145 60.620993961929344,109.25008773823356 61.632605666527525,109.28870285896846 62.008824895485304,110.0030797855652 62.936832326988224,110.03204089998326 64.28286112399655,111.62488871027745 64.37482582443045,112.33924821780965 64.14073385976371,112.99568198839552 64.61727821646491,113.76795125492208 64.16581514166319,114.43402849791164 64.11565257780603,114.75258554258471 64.39990710638813,114.99391593195469 65.21086855552858,114.86842420532776 65.45332094753394,114.95530311052426 65.4115188109281,115.85304718486441 66.19739897813997,116.66390557125123 65.77937761263456,117.551980693308 66.76590803530416,118.24699026546295 66.67394333487027,119.51150864202646 67.0,120.42851534805959 66.11379470507381,120.42851534805959 66.3646075243596,120.96906255904469 66.59869948905543,120.99802035929315 66.6154203437327,121.3262081507637 66.3311658151506,121.59647960579605 66.40640966096544,121.87640280930646 65.98838829540182,122.04049534157821 65.57872735714773,122.09841028591472 65.22758941011853,121.87640280930646 64.72596377148875,122.08875779761001 63.94008360427688,121.86675029866456 63.55550394798047,122.1273677449717 63.10404087317875,122.01153785630595 62.518810961482814,122.31076478234172 61.90849976777099,122.10806277320808 61.88341848581331,122.19493511535256 61.42359498376027,122.07910530835943 61.306549001368694,122.21424006955203 60.72131908964366,122.18528263677581 60.386901997204404,122.51346636273956 59.952159777021734,122.60033833740454 59.2415234556247,123.04434942260559 58.188109614449786,124.32810903284553 57.7784486762539,125.16785225763306 57.35206688338076,125.44776503101457 57.026010218280135,125.4381128800087 56.27357176033547,125.72767698699317 55.75522526705754,125.63115571518574 55.06130980027956,125.33193915497395 54.676730144012254,124.8396776202353 54.24198792382958,124.78176433228509 53.272178355720825,125.76628546848224 53.038086391054094,126.24889017517125 52.636785880167736,126.65427625108714 52.51137947049574,126.66392827960954 52.486298188596265,126.49019161736214 52.160241523437435,126.44193137751427 51.441244774730876,126.73149245209788 50.66372503482853,126.49984366240824 50.57176033442374,126.68323233374394 50.354389224317856,126.57705998783058 50.111936832312495,126.86662065421115 49.72735717604519,126.93418468383607 49.12540640964289,126.79905657696509 49.06688341847621,126.57705998783058 48.57361820715596,126.82801261590066 48.264282396645285,127.37817569384788 48.306084533192916,127.60982236095151 48.77426846261369,127.76425316139648 48.607059916394064,128.5460552706936 48.6823037621798,128.86456541319785 48.372967951669125,129.20237804426142 47.45332094753394,129.50158252338588 47.75429633067688,129.10586027114914 47.62052949372446,128.8935208282128 47.39479795630905,129.22168158722343 46.50023223410244,129.26028866146225 46.09057129584835,129.4340203032989 46.023687877401244,129.32785100401088 46.29122155130608,129.12516383354523 45.86483975846204,129.26994042762817 45.76451463077683,129.34715452174714 45.84811890384299,129.65601027625962 46.107292150496505,130.08068531400204 45.29633070132695,129.94556164242385 45.23780771018937,130.10964036169025 44.61913608919713,130.32197711095796 44.10915002319962,130.09033699752763 43.59080352995079,130.09033699752763 43.10589874591096,129.77183092765335 42.55411054342403,129.88765143915225 42.17789131443715,130.37023539746588 42.62099396190024,130.42814530919713 42.88852763583418,130.93002974574483 42.89688806317281,132.49357595526817 43.16442173710675,132.73486167940428 43.849976776575204,132.89893562498037 42.99721319091623,133.69034718348848 42.85508592662518,134.0667479494732 42.60427310728119,134.1729120009186 42.31165815141867,134.9643130436525 42.31165815141867,134.36593724782142 42.68787738040555,134.02814281071187 42.612633534590714,133.78686034128623 42.99721319091623,133.227082673744 42.3869019971753,133.39115577695338 42.12772875055089,133.12091757497546 41.885276358545525,132.30054693874263 41.99396191359847,131.82762420573272 41.86855550392647,132.8796328224198 42.06920575941331,134.14395818034245 41.48397584765917,135.62059188071726 41.425452856492484,136.11279806063976 41.18300046445802,136.59535068622063 40.923827217833605,136.74976701349806 40.982350208971184,137.33847697998135 40.614491407352034,138.16845538302732 40.606130980013404,138.46763188312616 39.903855085955,138.91156948565913 39.653042266581906,139.81873993472254 38.68323269856046,140.36882847416564 38.37389688807889,140.80310667110462 37.98095680444385,141.0250703234342 37.31212261956534,140.85135968269606 36.30051091496716,141.12157609897258 36.31723176961532,141.66200664736243 35.94937296790886,143.1385245831989 35.34742220159387,143.88160017432529 34.9126799814112,144.72117216174956 33.46632605668856,144.28691170656384 32.621922898251796,143.14817495247553 31.944728286121972,142.74285860779491 31.100325127714314,142.83936265474767 30.673943334870273,142.59810235527402 30.046911286597606,142.66565530032676 29.60380863910541,142.0962789882542 29.394797956367256,142.28928828633798 29.244310264737578,142.8007610476343 29.169066418951843,144.18075885175494 29.026939154660795,144.4027146868757 27.898281467700144,145.18438114676974 26.05898745934246,145.5028360262877 25.674407803075155,146.30379362491658 24.963771481678123,146.97929483427288 24.788202508119866,146.6029447473993 24.838365072006127,146.3230937254848 25.072457036701962,146.1107924055832 25.189503019035328,145.54143654587097 25.39015327449306,145.27123258237407 25.40687412911211,144.82732441840926 25.691128657694208,144.57641889516526 25.808174640027573,143.97810307546752 26.602415234578075,142.95516738293372 26.560613098030444,142.3664918968061 26.995355318125803,142.11557993554743 27.396655829041265,142.19278368583036 28.307942405925132,140.61974500561337 28.132373432366876,140.26267128244945 27.664189503033413,139.9345483105135 27.889921040419722,139.41340951807797 27.705991639581043,138.51588606988662 26.577333952620393,137.3674298359183 25.916860195080517,137.55079772039608 25.41523455645074,137.1165047941613 25.064096609392436,137.05859892203443 25.072457036701962,136.7883710564638 25.39851370183169,136.5856996575094 25.34835113794543,136.28651728561817 24.988852763577597,135.99698506915593 24.428704133752035,135.89082303738542 24.07756618669373,135.5240805687572 24.21969345101388,135.35035996240913 24.59591267997166,135.54338283889956 25.04737575474428,135.4854760167509 25.239665582892485,135.6688475002593 25.59080352995079,135.57233623685897 25.967022758937674,133.02440374683647 27.664189503033413,131.1327131003054 27.814677194604883,130.82386210327968 27.697631212271517,130.09033699752763 27.739433348819148,130.90107494583208 27.329772410565056,131.49947236696607 27.58058522993815,130.67908785590407 27.087320018588798,130.08068531400204 25.92522062236094,130.32197711095796 24.32837900603772,129.36645803556166 23.325127728719963,129.33750276335923 19.470970738504548,130.89142334389908 17.974454249895643,131.29678978778975 17.07988852763083,131.31609290902998 16.661867162096314,131.64424537547893 15.850905712955864,131.60563926126633 15.366000928916037,131.1520162546076 15.307477937749354,129.9069548441039 14.613562470971374,129.29889572018874 13.459823502111249,129.01899419224355 13.192289828148205,128.81630636870977 13.0,127.63877815500746 13.192289828148205,127.29130804933811 13.610311193682719,126.9438366842005 13.777519739902345,125.81454604851024 13.944728286121972,125.52498220396956 14.404551788175013,125.66976423557935 15.340919646987459,125.58289504284767 16.845796562964097,125.80489393443713 17.40594519273145,125.38985211047839 17.648397584765917,124.46324062316853" stroke="#ff1a00" stroke-linecap="round" stroke-linejoin="round" stroke-width="0.5"><title>2021-11-13 32.3km</title></polyline><polyline fill="none" points="85.44112829846563,130.3805902945387 85.35268425842514,129.93992179055203 85.62784349411959,129.61521751063265 85.43130118289264,129.25572232680133 85.58853503182763,128.548325019583 86.78744313010247,127.2146943114567 88.91992720658891,125.9622258526797 91.83858052775031,125.52153898787219 94.03002729755826,124.50099395354482 94.29535941767972,123.38766089557612 94.91446769790491,122.34390053695097 95.04222020017914,121.69444446157286 95.77925386716379,121.31172741146293 96.47697907191468,120.2563489948734 97.1550500455196,119.96640802998445 98.39326660602819,120.04759158005618 99.69044585991651,120.46510599864268 100.52575068251463,121.0449844081013 100.98762511374662,121.7408343131683 101.3119199272478,121.83361395546672 102.87443130119937,121.56687226502254 103.78835304826498,121.0101917929569 104.81037306645885,121.46249489914771 104.68262056418462,123.00494995705958 104.86933575978037,123.32967447854026 104.96760691539384,124.44300814533926 104.62365787080489,125.57952420628862 104.86933575978037,126.43770173178928 105.30172884440981,127.06393500234117 107.11974522296805,128.37437413920998 108.12211101001594,128.21201972677954 108.56433121016016,128.35118066696305 108.95741583261406,128.14243918820284 109.615832575073,128.1192456652061 111.47315741586499,128.7454690057275 112.6131028207601,130.24143201739207 112.83912647864781,130.91402866529097 113.67443130118772,131.35469312168425 114.58835304825334,131.27351822782657 115.75777979986742,130.69369575044402 118.22438580531161,128.45555125222018 119.12848043674603,128.95420929742977 120.20946314837784,128.98899930613698 120.66151046409504,128.803452461274 122.11592356691835,129.93992179055203 122.41073703370057,129.39488189735857 126.03694267518586,128.3395839289078 126.8525932666962,127.84092299352051 127.0,127.19150058554806 126.94103730667848,124.50099395354482 126.78380345774349,123.73557873193204 125.28025477711344,121.1145696040985 124.29754322115332,118.27313695842895 123.47206551412819,116.81179908759077 122.852957233903,116.19710332979594 121.76214740675641,115.54760960006388 119.24640582350548,114.80532617933204 121.63439490448218,113.72668631996203 121.89972702460364,113.78467798940255 119.2365787079325,114.81692439776816 118.11628753412515,114.45737903671397 117.21219290269073,113.81947297587612 116.45550500461832,112.92639804176724 115.32538671523798,110.3747139134939 114.16578707919689,110.01515348527755 111.463330300292,108.77408070128877 110.72629663330736,108.83207508025953 108.5348498634994,108.46091050652467 107.78798908099998,108.08974463307823 107.26715195633005,107.5329933858884 106.10755232028896,107.09222990785202 104.02420382166747,106.7790547438126 102.88425841677235,107.1270270911773 101.82292993628653,106.86024839372112 100.22111010010121,106.76745564590237 98.71756141947117,106.04830909585871 97.56778889900306,105.7119324216983 96.22147406730801,105.65393633550411 94.06933575979201,104.78399123421696 91.57324840762885,105.45674940499157 90.57088262058096,106.38468470244698 88.89044585986994,106.36148641900945 87.97652411280433,105.81632529688795 87.42620564147364,105.70033320698712 87.06260236579692,105.18996650341433 86.83657870790921,104.43601119432424 86.32556869881228,104.36641504924046 85.81455868971534,104.04163243465882 84.7630573248025,104.1692257233517 84.7630573248025,104.83038848652359 85.70646041852888,105.60753944366297 85.26424021832645,105.82792449888075 85.27406733395765,106.10630496626982 84.73357597814174,107.10382897021918 84.80236578709446,107.44020122705115 84.59599636029452,108.00855192501331 84.14394904457731,108.13614043832058 82.88607825292274,107.05743271308893 82.71901728847297,108.63489406229928 82.2374886260368,109.1916395217122 81.98198362148833,109.8759684759425 81.47097361239139,110.10794338995765 80.56687898089876,109.2380348446386 80.25241128297057,109.180040687781 80.29171974520432,110.20073321343807 79.56451319379266,110.57189169505727 80.11483166512335,111.66216221910872 79.83967242948711,112.70602774483268 78.79799818014726,113.12357107700518 78.21819836215582,113.93545618153439 78.13958143768832,114.32979813164275 77.35341219289694,114.50377205508994 76.98980891716201,114.95610291981575 77.34358507732395,115.96514174024196 77.11756141943624,116.77700508322596 76.09554140130058,116.9277790195556 75.95796178339515,117.07855274142639 76.50828025478404,118.24994127652462 77.20600545947673,118.48189786712464 77.43202911736444,118.87622290645231 77.29444949951721,120.83622854603891 75.55505004548468,123.5964117343683 75.27006369421724,124.95328216929192 73.39308462233748,126.41450783592882 73.0,127.80613260824612 73.3832575068227,128.3163904490284 74.07115559600061,127.95689086218044 78.28698817099212,129.38328527342674 80.50791628751904,129.7891663556511 80.11483166512335,130.62411684011022 80.0755232029478,131.19234327183221 80.19344858964905,130.8212569674506 81.18598726112396,131.1691504158298 81.33339399454417,131.3199038890525 81.29408553231042,132.28240178180567 82.19818016380304,133.1753137030173 83.49535941763315,133.91746854010853 83.89827115560183,133.91746854010853 83.71155595994787,133.61596876385738 83.8393084622221,133.03615909288783 83.32829845312517,132.18963128095493 83.8491355777951,132.94338925139164 83.75086442218162,133.5811802729877 84.19308462238405,134.56684976254473 84.13412192900432,135.81921660659282 86.83657870790921,135.95836756534118 87.12156505911844,135.26261094598158" stroke="#4dd2ff" stroke-linecap="round" stroke-linejoin="round" stroke-width="0.5"><title>2021-10-24 17.4km</title></polyline><polyline fill="none" points="177.2208340059151,118.50472335847735 177.3626341028721,118.63493458168523 177.3783896692912,118.02108079804748 177.0475227762363,113.50081642232544 175.45621057623066,111.84521623521869 175.12534368311753,111.06391615849861 173.9279206415522,109.59431817806035 171.47005229303613,107.86426881169609 170.09931802173378,107.30618461045378 169.29578413860872,107.41780159744667 167.94080543360906,108.49676202215778 167.05849371879594,108.73859703875496 166.01862634060672,108.25492666105856 165.60898161580553,108.29213212364994 164.9630033960566,108.92462374026945 164.64789206930436,108.60837822649046 163.6868025228032,108.58977553088334 159.93697773467284,110.02217713040591 156.73859776830068,109.48270262182632 156.5022642732947,108.81300774381089 155.57268585939892,107.95728266687365 155.08426330296788,106.78530436762958 154.64310744550312,106.5620694886893 154.83217424160102,105.98537802616192 154.58008518017596,103.3623373023438 153.54021780198673,101.24155134372995 153.69777346530464,98.73006002428883 152.39006145938765,94.80461769062094 151.1926384178223,93.0 152.4845948573784,94.84182610090647 153.28812874056166,96.86967212936725 153.69777346530464,98.59983353526331 153.66626233269926,101.29736183997011 154.80066310893744,104.1064664479054 154.92670763959177,106.09699588146759 153.68201789906016,109.44549742016534 152.89423958217958,110.84068690479035 150.16852660599397,113.22178381396225 149.22319262573728,115.39822599911713 145.44185670494335,117.94667412807758 144.13414469902636,118.98836454139382 143.1888107188861,120.1974614726787 141.37692059011897,120.88571280406904 138.80876327730948,122.42961780625046 137.34349560789997,122.22500469713123 135.35829424957046,123.7874985566159 136.13031700003194,124.84775405986875 135.76793897437165,126.54042895138264 136.30362822976895,127.26585588345188 136.3666504950379,128.04708142210438 134.5705159327481,134.20375694322865 134.77533829509048,135.50574432723806 133.2785594931338,136.51012777595315 133.19978166144574,136.91931933023443 133.2943150594947,137.77489848573168 134.25540460593766,139.28145130621851 135.8152056732797,143.24306347843958 136.14607256633462,145.0471473257785 135.87822793866508,146.6094312610221 136.66600625548745,146.4048472774739 136.90233975055162,147.0 141.06180926336674,146.64662832242902 143.26758855051594,145.41912099445472 144.2286780970171,144.32179632928455 145.23703434265917,141.62495135814243 147.09619117027614,140.08122083095077 147.0016577722854,138.59327451510762 147.23799126734957,138.2212858996354 148.19908081390895,137.68190096020408 149.99521537625697,137.92369442067866 151.4132163465256,137.42150761777884 152.8469728831551,137.51450528594432 154.23346272076014,136.58452631373075 155.52541916037444,136.64032519560715 155.74599708913593,136.04513617687917 157.32155372272246,135.67314198108215 157.7942207128508,135.2267478707945 158.31415440200362,133.68295919516822 159.25948838226032,132.47395826678257 160.23633349506417,129.62812211214623 163.6552913901396,128.10288310877513 167.89353873458458,126.89384245917608 168.791606015875,125.36857890026295 168.9964283782174,123.50848285030224 170.19385141978273,123.00625342383864 171.26522993063554,121.55536007088085 172.46265297220089,121.592562619393 174.14849857025547,120.84851010065177 175.12534368311753,119.47200434695696 177.34687853656942,119.15577847610984 180.82885869697202,120.97871952678543 183.0819046831457,120.71830057477928 185.2561728375731,121.20193545351503 185.90215105738025,122.26220709896006 185.41372850094922,123.6758923290763 185.8233732256922,125.74059566554206 186.80021833855426,126.57763040790451 186.752951639588,129.94432848405268" stroke="#4dd2ff" stroke-linecap="round" stroke-linejoin="round" stroke-width="0.5"><title>2021-09-19 11.2km</title></polyline><polyline fill="none" points="48.120016650878824,172.80762169510854 51.67356177003239,164.90625839928543 53.12929754317156,161.32091515427965 53.727090180065716,159.55755267278437 55.25478247430874,153.8752528396035 55.12193966610357,153.51600882277125 54.086872785585,153.0 50.771337697748095,157.63085639234487 47.11262535539572,161.66705056839055 46.448411314428085,162.79687485329487 46.10523405994172,163.16912441888053 45.19193975356757,163.67851480362515 44.31739126631874,164.710343559389 41.98157188890036,167.1004607298455 40.271220733382506,169.05297185542076 39.463093650207156,170.3720235406072 37.797023430786794,174.40735737498835 36.35789300868055,177.30636112887805 33.13091979295132,184.5989540443952 32.001755923294695,186.29629662454317 30.523879682150437,188.24165311685283 29.02386297294288,191.25095582129143 29.123495079082204,191.7470519286726 29.06814390901127,192.09953876845975 27.900234220316634,194.5277250187719 26.782140584662557,197.70641131991215 25.116070365242194,201.6093721985926 24.74521752569126,204.57884586768705 24.966622206033207,206.71938607406992 25.18802688634605,206.97389643446513 25.470317853760207,207.0 26.8153512867284,206.04068649006877 28.32090311293723,205.12704028424196 30.645652256323956,203.43675804290615 31.653043551777955,203.0647590183362 34.99625422467943,201.43315704300403 37.33760871909908,200.68260519938121 38.24536790844286,200.27142932953575 39.463093650207156,199.55349643578302 41.48341135814553,198.0980242335536 42.202976569213206,197.46491541245996 41.605183932348154,192.41285866050384 41.73802674052422,189.27305807820085 41.865334431728115,188.2481810522877 41.726956506521674,186.79243382035565 41.71035115548875,185.01023762949626 42.125484931108076,183.09741853348896 42.41884613252478,182.35316522045832 44.300785915285815,179.5980416510538" stroke="#ff9400" stroke-linecap="round" stroke-linejoin="round" stroke-width="0.5"><title>2021-09-11 21.0km</title></polyline><polyline fill="none" points="127.0,184.39987992822353 126.23365433351137,182.82648658149992 125.84657157339097,182.40198331099964 125.59242632685346,181.54373539039443 125.20143363984243,180.80082927500916 124.9668380276562,180.50550892424872 124.90818912461691,180.18711435498335 124.43899790022988,179.90563309666322 124.44681775396748,179.62414996001098 124.96292810079467,179.04733438529365 124.80262109912292,178.75200175781356 124.38034899717604,178.24900861653805 124.26305119108292,177.92136765615578 123.50843530517886,177.38144671778355 123.28556947362085,177.12302057492707 122.78509883425431,176.98919212861074 122.26116863368952,176.7307635822035 121.90927521542471,176.25543551370356 121.00608210847713,175.64165445133403 120.81449569184042,175.60012007177647 120.35312432117644,175.6139648695098 120.07160958657914,175.70164848292188 119.10976757657772,176.23697606316637 118.29650278763438,176.3015841046872 118.10491637101222,176.48617796363033 118.0110781261319,177.7183212765558 118.08536673666094,178.43820857529863 118.05408732171054,179.13962540731518 118.12055607848743,179.61953546671793 118.2300340308575,179.87333184851013 118.28868293391133,180.72699938113874 118.4059807399899,181.2115057012743 118.37861125191557,181.40530667121857 118.53500832671125,182.498881172869 118.48026935053349,182.64192046698736 73.54347983493062,177.71370657474472 73.0,178.55357398729393" stroke="#4dd2ff" stroke-linecap="round" stroke-linejoin="round" stroke-width="0.5"><title>2021-09-07 16.2km</title></polyline><polyline fill="none" points="139.82100321655162,201.00959061976027 139.73180909326766,200.70270412211175 139.80222550639883,200.44395498087397 139.72242023819126,199.6376104597366 140.0463357385015,198.56045500437904 140.75988872468588,195.22049974672336 141.18238720335648,193.99277529017854 142.79727027731133,192.09695540868051 142.82543684256962,190.3033726380745 142.93810310354456,189.32830630267563 143.85351647395873,188.80465043630466 144.74545770668192,188.11847102184765 146.36503520820406,186.53540127779706 146.61383986787405,185.81306871075503 147.5527253760083,184.80780234720078 147.7592801877763,184.30215049595427 148.30383378249826,183.7603740519953 148.75449882639805,183.51356251821926 149.56194036337547,182.7731194103253 149.97035555940238,181.99052339334594 150.18629922630498,181.14771174063208 150.3693819003529,180.83466320151638 151.2143788576941,180.29284303175518 151.8669042858237,180.35304561028533 152.1016256628791,180.2988632934139 153.27523254803964,180.64803702560675 153.85264713552897,180.4433493198776 156.1623054855445,180.7564007103174 156.8101364861359,180.70221890211906 157.72554985655006,180.45538980015408 158.63157437191694,180.39518736505124 159.25123880727915,180.70221890211906 160.35912370687583,180.96710709257604 161.36842562808306,181.38249664807154 162.11014517952572,181.5570794654741 162.43875510734506,181.4968785740857 162.95044770929962,181.5691196336229 163.49969573155977,181.90624297205795 164.62635834130924,182.13500373090574 164.85169086325914,182.37580321387577 166.08163087890716,182.5624218849298 166.89376684342278,182.82127869963006 167.81856906894245,182.79719906172613 168.20351212727837,182.90555732601933 169.79961749108043,182.98983578708794 170.5225593323412,183.2727694116511 170.81361383988406,183.2968487830367 172.57871859514853,183.1222730347872 172.98713379117544,183.18849150555252 173.4706598278717,183.40520578725773 174.04337998782285,183.4232652614046 175.28270885854727,183.70017624764296 176.0666782578628,183.60385958526604 176.41876032340224,183.74231471955136 176.83656437450554,183.70619603189334 177.5829783534573,183.8747496479009 178.30592019471806,184.32020959309375 178.75189081107965,184.47070177420755 179.2964444058016,184.45264274029614 179.83630357298534,184.2901110936291 181.48874206730397,184.50681981922753 182.0473789446405,184.4466230606522 182.80318177866866,184.77770418929504 183.19281926454278,184.7837238225584 183.93453881595633,184.976351641988 184.57767538903863,185.36160469028619 184.71850821524276,185.36762424175686 184.74198035296286,185.2231547736701 184.76075806311565,185.28335044439882 184.96261844734545,184.5670164934927 184.882813179167,184.39846559305442 184.98609058506554,183.8145520037906 184.92506302703987,183.37510664681395 185.00017386768013,182.73097998789308 184.8499521863996,182.3818231836667 184.89689646178158,182.13500373090574 184.80300791098853,181.87012274089284 184.91097974442528,181.65942078722583 184.92036859950167,181.07546997250756 185.14100669391337,180.73834011517465 185.24897852735012,180.31692407328956 185.18795096932445,180.10019421356265 185.40389463616884,179.58846659527262 185.17386768668075,179.32959030191705 185.042423715553,178.4144802032024 185.43675562899443,177.82446467216505 185.53533860729658,177.43312337043608 185.77475441189017,177.02973706650664 185.7418934191228,176.391536072304 185.63392158568604,176.25907807400654 185.54003303486388,175.84965986057796 185.83108754237765,175.31379777335314 186.02825349909835,174.38053885295813 186.87325045638136,172.9956656657996 186.75588976789732,172.49589611636475 186.86855602887226,172.31525508935374 186.7699730505119,171.5866619016815 187.0,171.0688112952339 186.87794488394866,170.83999159634914 186.91550030425424,170.3943918419318 186.7840563331265,170.1354601310668 186.7887507606938,169.55135263166449 186.67139007215155,168.97928088526533 186.8028340432793,168.4433330720276 186.67608449968975,167.97362049991716 186.45075197773986,167.726718241669 186.42258541251067,166.8414716463485 186.22072502825176,166.5584297690184 186.27705815873924,166.31754159534466 186.18316960794618,165.99234041732416 186.18786403545528,165.47442234547998 185.99069807876367,165.34795303015198 185.9015039554797,164.8962738631817 185.929670520738,164.74571308499435 186.10336433973862,164.66742127168982 186.30053029643022,164.3964100464109 186.47422411543084,163.89051784914773 186.3756411370996,163.19189501551955 186.43197426758707,162.3667827175741 186.26766930366284,162.05962007468406 186.64322350692237,161.10800421119347 186.61975136920228,160.5719581401354 186.94836129707983,159.13243051355676 186.84508389115217,158.80717490842653 186.7887507606938,157.01822502807408 186.83569503607578,156.43393905068297 187.0,156.00023710005917 186.87325045638136,155.78940818010597 186.94366686951253,155.80145557485594 185.9202816656616,155.68700518821788 185.37103364340146,155.74121856730198 185.0518125706294,155.8797635583178 184.4227592801908,155.94000037146543 184.11762149003334,156.10866299852933 183.5871511779551,156.13878125506744 183.05198643833864,156.33153759640118 182.6952099452319,156.2953958483413 182.36190558984526,156.51826947665904 181.96757367643295,156.59055256706415 181.08502129878616,156.38575016146933 180.00999739198596,156.63271764691672 179.20255585500854,156.60862332065517 178.90211249238928,156.48212788582532 178.17917065112852,156.38575016146933 177.01025819350616,156.47610428438202 176.61592628009384,156.40382100126226 176.35303833783837,156.10263934469913 175.80848474311642,156.17492313499315 175.18412588021602,156.07252106279702 174.96348778577521,156.17492313499315 174.40954533600598,156.2110649844908 174.20768495174707,156.32551397384304 173.7100756324362,156.31346672617292 173.44718769015162,156.4279154424985 172.8463009649713,156.3435848390145 171.7618882030656,156.40984461282642 171.28775102147483,156.31346672617292 170.7244197166001,156.45200987019416 170.2549769625184,156.1809467787025 169.93575588977546,156.19901770471915 169.0109536642558,155.90988197544357 168.28801182299503,156.22913589784366 167.513431278785,156.40984461282642 166.12857515431824,156.524293072187 165.89854820483015,156.45803347501715 165.10988437800552,156.64476480500525 164.40572024689754,156.51826947665904 164.24141528297332,156.59055256706415 163.80483352168812,156.5001986850475 163.57950099973823,156.32551397384304 163.14761366599123,156.31346672617292 162.5889767886547,156.37370293070126 162.22281144047156,156.51224588029436 161.86134051985573,156.46405707899248 160.72998348256806,156.61464690348657 160.33565156915574,156.8074011079807 159.70190385117894,156.8375188742466 159.22776666955906,157.10255430620964 157.57532817526953,157.0844837605473 157.33591237070505,156.95196619332637 156.69747022513184,157.12062484424678 156.3876380074944,156.9158249676293 152.35043032251997,160.19852883186104 151.4162392419239,160.7406025694945 150.74493610361242,161.25857774619726 150.69329740066314,161.4272194784353 150.31304876989452,161.67415796263595 149.85768929845653,162.3366688301503 149.36946883422206,162.77632948978862 148.79674867427093,163.05939629916975 148.6136660001648,163.32439332300783 148.30852821003646,163.4147328436593 147.94705728939152,163.6917728551307 147.3273928540293,164.36629758246272 147.18186560028698,164.4024325366736 146.7171172737435,165.1371700101845 146.2758410849201,165.4322659484278 145.39328870730242,165.69122601945128 144.92384595322073,166.0043849493195 144.32765365557862,166.5885406957059 143.4826566982665,166.98600294924472 143.2995740241604,167.2148431839887 142.29496653049137,167.93748855078957 140.9288881161483,168.6300122829707 140.63313918109634,168.8588437570761 140.32800139093888,169.2442413783756 140.0604190211452,169.88254858076834 139.72242023819126,170.23180699654768 139.49708771627047,170.68945165590412 138.88211770844646,171.05676818358552 138.5535077805689,171.52042554446962 138.21550899764406,171.66494110125495 138.1263148743892,171.83956341694284 137.64748326523113,172.24299846582653 137.36581761279376,172.27310540706458 137.14048509084387,172.49589611636475 136.61001477876562,172.65847239109644 135.60540728503838,173.52553546339186 135.01390941493446,173.86272193121113 134.62896635662764,173.81455259786526 133.81683039205382,174.05539872437294 133.6431365730532,174.19990575205156 133.75580283405725,174.1878635183093 133.6525254281587,174.1818424001649 133.6666087107733,174.29022239747064 133.51169260192546,174.45279188062705 133.38963748587412,175.17531547279214 133.4365817612852,175.63290746188068 133.15961053635692,175.87976427390822 133.0,176.63236775005862 133.0046944275382,177.1381098784841 133.12205511605134,177.7702791660995 133.31922107277205,178.12549401685465 133.2253325219499,178.5710135757763 133.4365817612852,179.3115291069662 133.37555420323042,179.85938197600262 133.60558115274762,180.3590658635003 133.56802573241293,180.52763261092696 133.72763626879896,180.93098607186403 133.6431365730532,181.1176110186825 133.82621924715932,181.59922003924294 133.81213596451562,182.12898372654672 133.99052421105443,182.616601347283 134.60549421887845,183.2486900267686 134.85899330608663,183.7483344978682 134.82613231331925,184.52487883035792 135.06554811788374,184.982371247439 135.1312701034476,185.86724407448128 135.1265756759094,187.46839620669925 135.02329827001086,188.31108389340807 135.06085369031643,189.31626830843015 134.84960445101024,190.19503302659723 135.30496392244822,190.21308964747004 136.26732156827347,190.98951716876036 136.55368164827814,191.09183602863777 137.46909501869231,191.0737797769507 138.05589846125804,191.20017337948593 138.9994783969305,191.65759473908838 139.30461618708796,192.07889957923908 139.68486481788568,192.35575479703766 139.97122489783214,193.0117741721624 140.2575849778368,193.33075245227155 140.45475093452842,193.7400041372457 140.7082500217366,193.968701911097 140.63783360863454,194.78117100446252 140.53925063027418,195.04597242778254 140.61436147091445,196.09312571251576 140.3139181083243,197.06803859943466 140.0557245935779,198.4762070710094 139.72711466572946,199.69176840133878 139.79283665132243,199.9204345137441 139.77875336870784,200.55828618878877 139.2013387811894,202.808743864578 138.7647570199042,203.57290992214257 138.72720159956953,204.31299481177848" stroke="#ff0000" stroke-linecap="round" stroke-linejoin="round" stroke-width="0.5"><title>2021-05-03 34.6km</title></polyline><polyline fill="none" points="55.81623410555767,255.1870392795463 55.487023166700965,254.9821813827475 55.068454972992186,254.97615613574453 54.9085525169794,254.87372680796398 54.25013063926599,254.77129723677353 53.36126110434998,255.132812283955 53.13551646054839,255.03038332840515 52.839226615586085,255.054484281005 52.35951924751862,255.25331662596 52.1902107646747,255.18101406118876 51.230796028568875,255.34971985703305 50.39365964118042,255.2171653587211 49.946873367007356,255.38587101309167 49.83400104512111,255.361770245745 49.36369970388478,255.64495341106158 49.147361086914316,255.50637464770261 48.9122104163107,255.56662633867745 48.564187423791736,255.27139224821076 48.19735237763962,255.36779543885496 47.95279568017577,255.19908971374025 47.50600940603181,255.2171653587211 47.31788886952563,255.1267870580159 46.56540672358824,255.26536704164755 46.26911687859683,255.21114014457999 45.86936073855031,255.30754346997492 45.62480404111557,255.2292157845186 44.96167914997204,255.33766946493415 44.57132903675665,255.2954930660744 43.86117401148658,255.50637464770261 43.48963595193345,255.79558199640815 43.00522557046497,255.93415983009982 42.58665737675619,255.83173277858077 41.67897578817792,256.0787623120268 40.86065145445173,256.61499228153116 40.0987632816541,256.4101411704032 39.90593973174691,256.50654181453865 39.43563839053968,256.50654181453865 38.22696394356899,256.77164247440305 37.64849329384742,256.9644419304095 37.41334262324381,256.9102171705672 36.8207629332901,256.9885418017875 36.29402543112519,256.90419219304385 35.800209022825584,257.0668662907119 34.96777564883814,257.0487914212754 34.09301515415427,257.2777392074313 33.41107820937759,257.2777392074313 33.23706671313266,257.20544003789837 32.79498345236061,257.40426246236166 32.1694826685125,257.4825861960089 31.74621146140271,257.24761456819397 31.19125587880262,257.2355647066033 30.08134471345693,257.46451150087887 29.42292283574352,257.4524616999115 29.408813795511378,257.35003825572494 29.16425709804753,257.22953977454745 28.736282877565827,257.21146497331574 28.463508099637693,257.33196350501385 28.209545375371817,257.31991366700095 27.54171747082728,257.6332083607813 26.878592579683755,257.55488490077187 26.40829123844742,257.7296062700334 26.102595366653986,257.7115316784875 25.881553736282513,257.8199791142288 25.65110607907991,257.7898548538833 24.68698832957307,258.01277388201925 23.990942344535142,257.8561281988623 23.407768681412563,257.97662492872405 22.946873367007356,257.8440785073544 22.438947918475606,257.97060010022324 22.264936422230676,258.139294979821 21.45601811533561,258.0368731673552 20.44016721827211,258.16339419443466 20.134471346449573,258.10314613261653 19.965162863605656,257.9826497563663 19.461940428504022,258.00072423427264 18.44608953144052,257.8501033535176 18.02281832433073,257.88625241289265 17.604250130651053,257.82600396378257 17.260930151562206,257.6211586069476 16.635429367714096,257.4102873700067 15.243337397667347,257.33196350501385 14.9658596063382,257.24158963781156 13.954711722704815,257.26568935427713 13.738373105734354,257.157240524175 13.484410381468479,257.157240524175 13.310398885194445,257.0066166964716 13.070545201189816,257.02469158359236 13.061139174358686,256.8921422354506 13.0,256.952391989671 14.152238286013016,256.4462914372016 14.387388956645736,256.2173392354198 15.00818672706373,256.03658663823444 16.602508273819694,255.0183328470448 17.021076467528474,254.86770154581245 17.496080822165823,254.54233613879114 18.206235847406788,254.21094292198177 18.474307611904806,253.9578772953755 19.480752482137177,253.54212339776132 19.706497125938768,253.28905384461905 21.978052604099503,252.18035067015808 23.337223480222747,251.08969635279936 23.78400975439581,250.87879316236285 23.95802125064074,250.87879316236285 24.813969691691454,250.2400514899782 25.307786099991063,250.06529976063757 25.57585786448908,250.0833775585961 26.027347152063157,249.95080686413712 26.676363002945436,249.4446240980069 27.499390350130852,248.99869625948122 27.621668698848225,248.81188728016423 27.889740463346243,248.70341717867268 28.0073157986335,248.50455461686215 28.68925274341018,248.2394031070544 28.86796725311433,248.05861705143616 29.10782093711896,248.05259083651254 29.32415955408942,247.8055152994566 29.72391569413594,247.67293759808672 30.546943041292252,246.78104064221407 31.271207106794463,246.443561304779 31.741508448001696,246.43150842241812 32.60215990245342,246.08197336758894 32.907855774246855,246.04581440698894 33.14770945830969,245.88309870889134 33.26998780699796,245.67819658546796 33.735586134833284,245.43110743491707 34.30465075769462,244.67777810952612 34.89252743421821,244.18961367458905 35.423967949842336,243.64117542886015 35.508622191264294,243.44831636484378 35.72966382163577,243.2976446204848 35.908378331310814,242.8456262262298 36.86309005401563,242.37552206598411 37.497996864665765,241.73062724576812 37.573245079256594,241.5437867561959 37.88364396445104,241.30872821528465 38.179933809442446,240.8144983824277 39.054694304126315,240.48902685990106 39.39331126981415,240.0430063357744 39.71781919526984,239.87424060907506 40.0987632816541,238.76519224419098 40.88886953491601,238.3794295989901 40.987632816599216,238.22271253769213 41.26981362132938,238.05393968028875 41.78714509666315,237.36075851009446 42.196307263569906,236.98101105324167 42.58665737675619,236.33603547944585 42.67601463160827,235.67899435827348 42.9817105034017,235.09427961199617 43.07106775822467,234.55778178033142 43.212158160604304,234.44927578851275 43.45671485803905,233.97305181448974 43.45671485803905,233.7258955248326 43.29210938862525,233.43051175744404 43.35324856295483,233.1411542661699 43.583696220157435,232.70711438454964 44.129245776013704,232.2429280045144 44.35028740638518,231.90533476786732 44.665389304980636,231.7787366219527 45.32851419612416,231.1276545651017 45.72827033617068,230.91062502566638 45.85995471171918,230.51273469633088 46.767636300297454,229.71091422891914 46.92283574290923,229.68077031117718 47.40724612437771,228.98142549685872 47.590663647453766,228.86687655697824 47.95279568017577,228.276040344208 48.709980839601485,228.28206932608373 49.664692562277196,227.78166095774213 49.965685420669615,227.5646145563005 50.003309527935926,227.38374171947726 50.25256923882989,227.22095551679377 50.36544156068703,227.0400812365806 51.240202055400005,226.37686904275324 51.40010451141279,226.03922982050426 52.08204145618947,225.78599866652075 52.787493468029425,225.17100252127784 53.67165998957353,224.65246953484166 54.062010102759814,224.56202709534773 54.60755965861608,224.26658046917873 55.91970040064189,224.013338890436 56.72391569413594,223.97716140048215 57.325901410891674,223.75406620732974 57.91848110087449,223.6756811353298 58.71329036753741,223.19933801403022 59.526911687862594,222.4154707739399 59.90315276084584,222.22854647866552 60.04424316319637,222.02956165973228 60.98014283226803,221.8546954536214 61.07420310052112,221.8667552147781 61.05068803342874,221.92705396987003 61.135342274879804,221.84866557177156 61.51158334786305,221.83660580556534 62.781396969163325,222.7410788986781 63.09649886781699,222.80137642935733 63.70318759797374,222.72298962301647 64.7049294548051,222.98829823782216 65.30221215815982,223.33199105823587 65.53265981536242,223.71788849951918 66.00296115659876,224.10981204844575 66.22400278697023,224.68261697245543 66.4779655112361,224.97203129966147 66.69430412820657,225.44835481138944 66.92004877197905,225.56894220640243 66.96237589270459,225.71967597533876 66.84950357081834,226.22613757422732 66.88242466468364,226.6361259345067 67.0,226.9074396149408 66.55321372585604,228.71012488233828 66.27103292109678,230.2836446574147 65.97944608953549,231.27234031718035 66.0499912906962,232.17661525614676 65.82424664692371,233.06881458963835 65.42449050687719,233.83440333882754 65.37746037277975,234.64820323136883 65.20815188990673,234.907410339114" stroke="#ff8200" stroke-linecap="round" stroke-linejoin="round" stroke-width="0.5"><title>2021-05-02 22.6km</title></polyline></svg>