<?xml version="1.0" encoding="utf-8" ?>
<svg baseProfile="full" height="300mm" version="1.1" viewBox="0,0,200,300" width="200mm" xmlns="http://www.w3.org/2000/svg" xmlns:ev="http://www.w3.org/2001/xml-events" xmlns:xlink="http://www.w3.org/1999/xlink"><defs /><rect fill="#222222" height="300" width="200" x="0" y="0" /><text fill="#FFFFFF" style="font-size:12px; font-family:Arial; font-weight:bold;" x="10" y="20">Over 10km Runs</text><text fill="#FFFFFF" style="font-size:4px; font-family:Arial" x="10" y="280">ATHLETE</text><text fill="#FFFFFF" style="font-size:9px; font-family:Arial" x="10" y="290">DingXiaoshan</text><text fill="#FFFFFF" style="font-size:4px; font-family:Arial" x="120" y="280">STATISTICS</text><text fill="#FFFFFF" style="font-size:3px; font-family:Arial" x="120" y="285">Number: 17</text><text fill="#FFFFFF" style="font-size:3px; font-family:Arial" x="120" y="290">Weekly: 1.2</text><text fill="#FFFFFF" style="font-size:3px; font-family:Arial" x="141" y="285">Total: 397.0 km</text><text fill="#FFFFFF" style="font-size:3px; font-family:Arial" x="141" y="290">Avg: 23.4 km</text><text fill="#FFFFFF" style="font-size:3px; font-family:Arial" x="167" y="285">Min: 10.0 km</text><text fill="#FFFFFF" style="font-size:3px; font-family:Arial" x="167" y="290">Max: 42.7 km</text><polyline fill="none" points="21.816378619507304,70.90606006438611 22.518534256669227,69.89278841851228 22.557799539004918,69.85465373638726 22.66404677357059,69.87372108473028 25.81681797330384,71.72590836915333 26.816927811756614,72.33873420533746 26.99708616604039,72.49942826905863 27.142598682941752,72.54028252717399 27.46134038665332,72.72276406408128 27.643808463413734,72.75 27.867851545015583,72.38503599076466 27.9001876598777,72.25974860851238 28.604653019516263,70.91695523496492 28.736307201499585,70.8025557067831 28.81945721115335,70.6581936493476 29.11972113493539,70.46207781900921 29.175154474709416,70.3885339854769 29.306808656678186,70.3885339854769 29.415365613735048,70.32043765015624 29.466179508541245,70.21965473302225 29.542400350721437,70.23872180259968 29.590904523036443,70.02625934723255 29.68560314514616,69.85192982829722 29.90964622674801,69.57408964137358 30.057468466140563,69.45151210529912 30.22145876297145,69.4215486160374 30.470908791961847,69.64763587412926 30.97211857243383,69.87099717871206 31.355532505884185,70.00719211538672 31.482567242870573,69.98812486898169 31.83595478393545,70.14066243248817 33.411185522563756,70.66636510884564 33.542839704532526,70.47024934269393 33.88467863314145,69.15732356303124 34.03019115005736,69.15187559437436 34.069456432407605,69.08377588575786 34.101792547269724,68.7541706705124 34.03019115005736,68.53352342513972 34.034810595039744,68.41094077939852 34.29580923648609,67.43298211312504 34.365100911207264,66.93717784539876 34.496755093176034,66.57212884717774 34.69770094985142,65.62406620894762 34.79008984946995,65.44153277309124 34.766992624572595,65.42246203857758 34.82011624186998,65.24265153948909 34.836284299293766,64.94024005080428 34.935602366385865,64.55609044253288 34.82935513182019,64.40351874443877 34.45748981082579,64.28636484303024 34.45287036584341,63.389983065650085 34.49906481565267,63.152940554842644 34.45287036584341,62.673399393212094 34.47827731324651,62.51264205444204 34.42053425098129,62.202023244883094 34.48289675822889,61.86415277970991 34.4551800883346,61.70066542784298 34.41360508352227,61.654343816671826 34.48289675822889,61.428184126900305 34.35124257626012,61.272868453510455 34.35817174373369,61.08212858411571 34.471348145772936,60.74424294927303 34.38357869112224,60.259205568732796 34.4551800883346,59.98670852005489 34.72310789725452,59.91313380644897 35.15271628051414,59.9812585487125 35.54074965893233,60.16383194036098 36.0950830567017,60.242855829768814 36.31219697081542,60.387278153128136 36.919653985867626,60.526249787946654 37.16679429235228,60.64342134898288 37.89204715442611,60.84778903347069 38.09068328862486,60.880487707589054 38.379398599950946,60.85868859627044 39.238615366470185,60.894112142488666 39.28711953877064,60.43632705383061 39.58969318504387,59.640632976503184 39.635887634853134,59.35177884588484 39.74213486943336,59.10107254873583 39.94077100363211,58.351663698378616 40.005443233356345,57.73304378744615 39.99389462091494,57.52320006730406 40.08166407555109,57.13348561579187 40.08628352053347,56.9018342790514 40.22717659245245,56.678356832107966 40.28722937722341,56.65382869764653 40.98938501437078,56.79827180879147 41.13951697626908,56.72468768692852 41.54833785710798,55.29384214622769 41.59915175191418,55.266587148396866 41.70308926398866,54.686048617188135 41.58298369447584,55.11668412765721 41.48597534986038,55.32654810429449 40.88082805731392,54.80324762586315 40.42119328168337,54.170911556651845 40.04470851570659,53.557639269429274 39.77909042929241,53.06155909034169 39.504233452884364,52.412823956377906 39.16239452427544,51.864929449724514 39.109270906992606,51.63050324475262 38.839033375581494,51.486030182857576 38.873679212949355,51.31702289642999 39.18549174918735,50.962649058048555 38.87136949044361,50.61099619026936 38.649636131347506,50.25661231030426 38.16690413080505,49.86133203598547 37.785799919845886,49.73593146620078 37.53173044587311,49.596899661877615 37.321545699232956,49.31610757356066 36.852672033623094,48.99714573100573 36.67251367936842,48.94262193040413 36.32836502825376,48.9916933563145 35.7093594007456,49.30247680911816 35.24741490262386,49.348821377790955 35.12268988814321,49.427879560676956 35.064946825863444,49.73593146620078 35.032610711001325,50.30022905984697 35.0764954383194,51.0417021202793 35.20353017530579,51.55417795793073 35.37675936210144,53.023398667563015 35.35597185968072,53.09699371631359 35.15502600300533,53.14878269441215 35.12038016563747,53.11334814207112 35.04184960096609,52.66632330879111 35.07418571582821,52.48914661335584 34.907885696491576,50.91085553646553 34.91943430896208,50.22389969802862 34.88016902661184,50.1830088723018 34.48289675822889,50.19936521064483 34.48289675822889,51.04988000894991 34.46441897829936,51.156192317468594 34.42284397347248,51.18617775837265 31.40634640067583,51.24342259081641 31.23542693637137,51.30066729174359 30.985976907380973,51.45604510278099 29.801089269676595,52.64724280210612 29.669435087707825,52.73719363426426 29.283711431766278,52.870756392165276 28.438353000194184,52.89256248874153 27.713100138134905,52.979786684278224 27.348163984614075,53.14060549450187 26.955511161198956,53.407725970700994 26.216399964192533,53.680294934070844 25.796030470897676,53.939232688315315 25.689783236332005,53.8765427419803 25.213980403263122,53.325954700410875 24.95529148429341,53.13242829189949 24.992247044152464,52.64451701424332 24.918335924463463,53.09971945468169 24.504895598627627,52.903465529878304 23.638749664634815,52.26290377106852 23.403157970591565,51.98486758552099 22.70100233341509,51.71500596819533 22.458481471898267,51.56508158464749 22.29218145259074,51.371541501166575 22.280632840120234,51.02262036960383 22.772603730642004,48.90445519898094 22.920425970034557,47.928457485715626 23.172185721516144,47.257777671515214 23.38929963564442,47.034213720295156 23.65953716704098,46.262630035471375 24.181534449919127,45.29198197984806 24.25313584714604,45.242903264355846 24.74510673765326,45.223817071095255 24.731248402706115,45.01386797979467 24.823637302339193,44.70030435261833 25.731358241158887,43.33421152002302 25.823747140777414,43.32330428961359 25.996976327587618,43.481458662832665 26.260284691525158,43.623251384728064 26.361912481093896,43.50599976862941 26.851573649124475,43.15424160729344 27.13797923795937,43.026080421834195 27.23729730505147,42.936094514414435 27.514464003936155,42.79702474501937 27.842444597597932,42.95518246134998 27.9255946072808,42.947001914450084 28.685493306693388,42.43162204101827 30.041300408702227,41.63535279476673 30.11521152840578,41.493548750382615 30.41547545218782,41.16630556489872 30.690332428581314,40.978138785201736 31.099153309420217,40.84451223733231 31.54031030513579,40.536350320777274 31.988396468324936,40.05637371900775 32.27480205715983,39.808200368608595 32.59123403839476,39.625477748684716 32.93769241197151,39.489116710454255 33.50588414467347,39.088210930765854 34.12027032719925,38.77184534836124 35.198910730323405,38.013642496965986 35.40909547696356,37.779085857027894 35.64468717100681,37.31269341100415 36.159755286440486,36.914480076678956 37.889737431920366,35.32974605567324 38.543388896781835,34.93968416340613 38.95682922261767,34.5523439244098 39.7305862569774,34.16226984195055 40.28722937722341,33.61397355187182 40.80460721511918,33.253891801197824 41.46518784745422,32.621008212247034 41.783929551165784,32.503704743452545 42.04492819259758,32.52280069468543 42.24818377177871,32.67829575173528 42.47453657587175,32.98382706711891 42.67779215503833,32.9974667704646 43.021940806153,32.88016507723478 43.151285265616025,32.73558315926857 43.183621380492696,32.55008059957072 43.146665820648195,32.25" stroke="red" stroke-linecap="round" stroke-linejoin="round" stroke-width="0.5"><title>2023-11-12 42.7km</title></polyline><polyline fill="none" points="67.11045490224205,66.98470334798913 66.3508517248847,68.73198944604883 66.07274564357067,70.77285095450134 66.20557242869108,72.41232476922596 66.32594670268008,72.6472295464373 66.54594106553122,72.75 70.51414127067255,69.99958580909515 71.20318021842104,69.75487887458803 73.72273829845653,68.536218476871 75.41627980860358,68.00763259505766 76.50794994873286,67.49861808476635 78.5501617697737,66.06453654731376 79.1478823027719,65.54571077843502 78.71204441413283,61.825652218420146 78.75355278447387,59.89207892015111 78.87392705846287,58.668255288626824 78.77015613261028,56.31352470377533 79.1478823027719,54.619608795161184 79.49240177664615,53.934191114451096 80.94519473878609,51.77995306141747 81.58027280507667,49.94387303300755 83.1907975745271,47.75027085750844 83.99190912221093,46.13927590664025 86.20845609872777,41.17371750424718 86.34543372086773,40.72806356655201 87.32918209808122,38.46054686982097 88.80688008244033,33.49903560769235 88.92725435642933,32.92105483217165 88.90234933422471,32.68594187443887 88.33783549751388,32.3479648357461 87.97256183846912,32.25 85.57752886945673,35.678641786562366 82.79231721919496,38.749502460763324 82.22365254545002,39.68492218762185 82.02441236778395,39.880819134057674 81.38518346444471,40.21873935398253 77.65358097029093,44.28337713385554 77.03925708915631,45.30192739822451 75.85211769724265,48.17626896297952 74.71063751271868,50.5020493152515 72.31560454370629,55.897395220086764 71.57260471448535,57.04296589573278 70.32320276708924,58.717208874888456 69.31870020469069,60.72915505767378 69.23568346397951,60.92006497208786 69.32285104171024,61.468314569261565 68.2726892719511,63.680825233401265 67.58780116123671,65.69254886873387 67.19347164293868,66.63719576259973" stroke="#ffa000" stroke-linecap="round" stroke-linejoin="round" stroke-width="0.5"><title>2023-11-06 22.2km</title></polyline><polyline fill="none" points="136.46722518646857,63.72591932467185 134.06700732995523,60.77300332105369 133.30098035442643,58.72400400208426 131.00289942795644,54.5355135188438 129.86662608099869,51.74813812841603 128.309037897503,48.82510010620172 129.35594143060734,47.39369288283342 130.28794091753662,47.21288249117788 133.262679005682,45.51023966232606 132.91796686674934,44.802054588886676 133.02010379679268,44.01852643489838 132.75199435534887,44.726715537006385 132.8541312853922,45.058207057081745 132.4072822164162,45.46503646860947 132.04980296111898,45.28422354515351 131.23270752065582,45.314359048890765 130.88799538166495,44.922596986201825 129.29210584936664,44.45549460903567 128.6026815713849,44.65137644390052 127.63238073582761,45.44996873404307 126.66207990015391,45.25408803483879 126.67484701640205,44.802054588886676 127.93879152601585,43.415809437196 126.27906641241862,41.411756454835995 125.39813539059833,39.603563325232244 123.25325985922245,38.12685465835966 122.33402748865774,37.132327653627726 120.73813795635942,36.80081705597695 118.83583763387287,35.91176196796005 117.62296158936806,34.178841485772864 114.73759331495967,32.25 112.78422452753875,32.25 111.30323904153192,32.807558518106816 108.90302118496038,34.1336345726595 105.77507770172087,34.57063411131094 105.55803672532784,34.721323285848484 105.35376286518294,35.48983551112178 104.99628361000214,40.35698001431592 105.37929709773744,42.22543561810744 105.23885881889146,43.74730411237397 105.43036556278821,45.34449454602145 105.88998174801236,46.36909752529755 106.34959793335292,49.59353363729315 107.00072086247383,54.44511303976469 106.74537853739457,55.49978160462342 106.83474835113157,56.40377680522215 107.83058341930155,62.02348057884956 113.90773075824836,62.67131373140728 114.87803159386385,63.42460426458274 117.95490661211079,66.99514536722563 119.90827539958991,66.88968767334882 120.59769967751345,67.14579907563166 121.47863069933373,67.85386929870583 122.72980809258297,67.83880401271745 127.37703841063194,68.9686958927341 128.73035273398273,68.938565562843 130.36454361502547,68.30582711307216 132.95626821549376,68.84817453363212 135.2032806769712,70.08351346741256 135.95654053613544,70.92715320445132 136.6204305816209,72.19260312592087 138.34399127645884,72.75 138.72700476419413,72.35831594564661 139.3908948096796,70.56559394962096 140.00371639005607,68.56193588323367 140.00371639005607,67.82373872502649 139.60793578601442,66.61851037562883 138.5993336015963,65.50366476671479 137.32262197573436,64.56959798741445 136.7991702092113,63.57526187696203" stroke="#4dd2ff" stroke-linecap="round" stroke-linejoin="round" stroke-width="0.5"><title>2023-10-08 10.0km</title></polyline><polyline fill="none" points="167.70556576910894,63.3972953232078 167.6432731118257,63.671538470454834 168.03364043094916,63.710715926164994 168.54444022091047,64.16125420966273 168.59427434676036,65.71361779954532 168.5029117827071,65.97805293484998 168.56935728383542,66.11026991852486 166.9082197555399,67.29530846406124 166.3641972150217,67.61359861317396 165.4422658868134,68.02492407969112 163.8018925776123,68.55376557217096 161.50536994473077,69.66039521126731 160.50868742774765,70.07170193145066 158.67728330280806,71.38394105007683 157.90070150833344,71.83929864961101 156.60916708008153,72.75 156.36830213846406,72.73041521898631 156.17727132271102,72.44153870724767 156.0526860080863,70.99223189446639 156.3558436070016,68.63700857312142 157.43143015659007,66.11026991852486 158.295221671302,63.66664128608318 159.30436271973304,61.51672575356497 159.26698712534562,60.88985172320099 160.35918505021255,58.690825944311655 161.68809507286642,56.922711489249195 162.3068688021449,55.98230090871584 164.7155182181741,50.550064491115336 165.93645430148172,48.07129624896697 166.5136995925568,46.56241373040757 167.2404472611961,44.989790590108896 167.9007494286925,44.03443185076685 171.36422117518669,40.296088939161564 172.2363183775742,39.70811673469143 172.7969522933563,38.80164447864445 175.5170649959473,35.78810495827565 177.98800706930342,32.264701845015225 178.13335660302255,32.25 178.785353082887,32.5832406362897 178.94731399189914,32.74005890184344 178.80196445816546,33.59274861734593 178.52372392217512,34.43562135789398 178.19149641653348,35.7979054151474 177.27787077594257,38.63994750130587 176.3600922915648,40.74686240752999 176.25627119604906,41.133936008369346 174.37918578907556,45.34253328791965 173.1665553933999,47.81655341109945 171.63830886736105,49.9475306611821 170.92817257401475,51.926554505964305 169.44976017384033,54.07203124339867 169.2088952322374,54.53736083327385 168.7853051625134,56.33005920091455 168.8932791018451,58.7300077472064 168.73131819284754,61.45795668508799 168.83098644453275,61.49223865104432 168.81852791308484,61.70772469471922 168.90989047715266,61.67834029513688 168.8226807569008,61.727314283765736 168.73131819284754,61.46285411039935 168.727165349017,61.84974902159229 168.93896038387902,63.56380029097636 168.67733122316713,63.40708975017333 168.63995562879427,63.681332837586524 168.75208241194196,63.97026570676826 168.66902553553518,64.05351720536055 168.3990906871768,64.03882577564218 167.93812502309447,63.76458487195123" stroke="#ff9a00" stroke-linecap="round" stroke-linejoin="round" stroke-width="0.5"><title>2023-07-30 23.0km</title></polyline><polyline fill="none" points="29.305545596711454,117.12907244973394 28.57906148940674,117.39339594688136 25.57764429175586,118.78351613136692 21.563300681635155,121.5 21.33497710505617,121.4461613755484 21.156469581546844,121.06439473218052 21.04853479989106,119.58624198574762 21.20628563464561,118.21083098744566 21.451214562242967,117.10949286952018 22.439232948163408,114.81372788328372 23.27365183715301,112.43462364505103 24.207702832267387,110.42746231733327 24.17864346796705,109.93300147666378 24.286578249622835,109.59519836377149 25.44895282133075,107.29904894344145 26.72756485019636,105.60011648520594 27.287995447259163,104.73838551612062 29.538020511055947,99.65579451971644 30.907961970558972,96.8498400095923 31.792196912603686,94.66567709697847 31.854466978955315,94.58731949975845 31.98730978713138,94.6509850579314 31.98730978713138,94.80280256259721 31.825407614640426,94.54814064978564 31.858618316691718,94.60690891190825 31.829558952405932,94.54814064978564 31.862769654457225,94.59221685360535 32.08694189328526,94.01922282419764 32.68473453015031,93.03483136813156 36.33791175548686,89.05296775338138 37.01457980973646,88.6513333342009 37.25950873734837,88.42112661758802 37.774274619077914,87.56396355111065 40.09487242472824,85.0462583738481 40.57227626668464,84.44864999077981 42.98835484072333,81.0097976771176 43.13365166216681,81.0 43.85598443172057,81.38700661707844 43.95146520010894,81.62704701615439 42.921933436606196,85.40383990655755 42.340746150759514,87.1868066081006 41.402543817894184,89.37623186681594 41.2157336188684,89.96397882713427 39.04043263470521,94.82728920874797 38.122986990609206,96.6196753905715 36.59529469636618,98.74008346433038 35.88126460231433,100.73797438884867 34.453204414239735,102.78474093445402 34.183367460092995,103.31845178618823 33.77653635999013,105.10560244168664 33.880319803909515,107.52915876742918 33.75993100897176,108.74333574316915 33.71841763140401,110.63307809272374 33.91768184369721,112.32202916674942 33.668601578334346,112.16048007406425 33.6312395385321,112.43462364505103 33.739174320187885,112.71855629250058 33.664450240597944,112.79198685724987 33.57727214771148,112.74303316076475 33.39461328643665,112.79688222395635 32.389989549454185,112.16537550966677" stroke="#ffa900" stroke-linecap="round" stroke-linejoin="round" stroke-width="0.5"><title>2023-07-29 21.0km</title></polyline><polyline fill="none" points="77.77699836884858,118.23067433680262 77.84624796098797,118.10223449803743 77.11418084357865,117.77529602904542 76.84707527374849,117.26153355386487 76.90643206704408,115.18310556736105 76.57996970386012,114.1438763915503 76.31286413397174,113.72351115304627 75.808331390901,113.75854165283818 75.50165462546283,113.41991300634982 75.26422745233867,113.46662046974961 75.28401305008447,113.80524896801944 74.92787229025271,114.19058353806031 74.35408995498437,114.27232099520188 73.76052202197025,114.71603752717783 70.89161034562858,115.77861435331579 69.91222325607669,116.39747290337982 69.28897692641476,117.3666215341218 68.1513050547801,116.9229160245668 68.62615940120304,116.51423826505197 69.8231880661915,116.00046971796837 70.57504078134662,114.89118828183564 71.82153344072867,113.82860261793394 71.30710789875593,113.84027944097033 71.5742134685861,113.54835848152288 70.98064553557197,113.3148211388907 69.8034024683875,113.2447598364015 69.45715450751595,113.60674273729819 69.14058494317578,114.48250274037127 67.65666511055315,115.4399921179429 67.57752271951176,115.82532078422082 67.75559309945675,116.0238228873859 68.67562339559663,116.52591479416878 68.1908762503299,116.80615111012594 69.8231880661915,116.01214630332106 70.45632719469722,114.99627859664906 71.79185504408088,113.87530990242522 71.27742950210813,113.88698672039754 71.5445350719383,113.48997419379157 70.92128874233458,113.3381748961474 69.91222325607669,113.25643672336446 69.53629689855734,113.44326674059266 68.76465858559823,112.04203363676788 68.59648100455524,110.69916797634505 68.1018410603865,110.08027637325722 68.08205546264071,109.74163605189824 67.65666511055315,109.00596544280415 67.07298997644102,108.7140312554111 66.69706361886347,108.88919186369458 66.10349568584934,108.7140312554111 66.03424609365175,108.21190258434945 65.45057095948141,108.23525745866209 65.05485900415806,107.59299655194627 64.38214868010255,107.33609110653924 63.38297599274665,107.59299655194627 63.758902350324206,106.29678549073287 63.65008156263502,105.39760279930488 64.30300628894474,104.7670026239939 65.60885574162239,105.14069206675049 66.72674201551126,105.6895460625019 67.38955954072298,105.61947975220392 68.66573059681104,104.90713631843391 68.89326497109141,104.56847957504942 69.13069214427378,103.23719781835098 69.04165695433039,102.80511157151341 68.1315194570343,100.0840957997425 67.63687951280735,99.3483585832364 67.2807387529756,98.22722544653516 67.32030994852539,97.95861888253421 68.26012584252749,97.24622428443399 68.1315194570343,96.72068423578457 68.23044744587969,96.10171152399562 69.23951293202117,92.62138297428464 69.21972733427538,92.15421613353101 68.88337217218941,91.64033024487435 69.08122814988019,90.64758912895195 68.66573059681104,89.97018400390516 68.82401537889382,89.74827449269651 69.46704730635975,89.3511721095565 69.62533208850073,89.03582504593942 70.00125844607828,89.08254318831314 70.37718480365584,90.40232225303771 71.64346306078369,91.13812118835631 71.85121183737647,91.13812118835631 72.375530178193,90.53079544886714 73.11749009450432,90.08697829797893 73.53298764763167,90.4140016409001 73.64180843532085,90.86949676866789 74.1364483795478,90.78774137618166 75.60058261436643,91.64033024487435 76.05565136298537,91.69872649331955 76.15457935183076,91.46514130775176 76.16447215073276,91.74544346903713 77.32192962011322,91.1030832589604 78.31120950850891,90.91621410765947 78.3507807040587,89.99354287293681 78.87509904487524,88.88399094196211 80.69537403952563,87.54083368342253 81.63518993352773,86.53637458919547 83.00039617944276,86.20933935380162 84.4645304143196,85.15814787482668 86.116627827927,84.50406794626906 87.06633652071469,83.72150275949389 87.49172687274404,83.87334421501146 88.57993474998511,83.87334421501146 89.82642740930896,83.42949935265642 90.75635050440906,83.53462067124929 91.2015264541842,83.0090130418248 91.16195525869261,82.2731580073887 91.82477278390434,81.95779000932089 92.1314495492843,81.51393717237806 92.86351666675182,81.0 92.70523188455263,81.25696889586834 92.31941272807308,81.39713348713121 92.83383827010402,81.10512371407822 93.04158704658039,81.16352573269978 93.72419016959611,81.86434746034502 93.8231181584415,82.30819883848017 94.29797250486445,82.76372859464027 94.42657889035763,83.20757622859674 94.78271965013118,83.26597709551424 94.89154043793678,83.4995802432095 95.02014682337176,86.11590053088003 94.86186204123078,86.8166897068877 94.51561408030102,87.03860531909595 93.65494057739852,87.15540282421716 93.21965742652537,87.86786483504693 92.8931950632832,88.11313754048751 91.77530878945254,88.47520574127702 91.2806688452838,88.35840968180128 90.54860172787448,89.38621061464073 89.80664181156317,89.73659503195813 89.67803542606998,90.86949676866789 89.17350268299924,91.75712270975782 86.25512701226398,92.67977868550952 84.22710324107902,93.57906860004005 83.72257049800828,95.30755259474972 83.07953857054235,96.0900327590789 82.76296900626039,96.97761524980888 82.44639944197843,97.33965335528046 81.69454672682332,97.43308234427968 81.36808436363935,98.0403687779908 80.56676765403245,97.8885474937415 79.75555814558174,98.47247432721633 78.89488464267924,98.41408178771235 77.94517594983336,98.68268720462947 76.88664646924008,98.5659023238768 76.48104171501473,98.69436568569654 75.97650897194399,99.1147901515942 75.99629456974799,100.09577412733779 74.79926590475952,101.05339263912174 74.1958051728434,102.72336532792542 73.65170123422286,103.377333522556 72.61295735143358,104.07800928191136 69.51651130075334,104.36995615665364 67.48848752956837,105.63115747376287 66.95427638984984,105.72457920038869 66.32113726128591,105.6895460625019 65.49014215503121,105.18740315506875 64.49096946779173,104.84874730146112 63.917187132523395,105.02391425649694 63.68965275818482,105.31585854243167 63.847937540267594,106.05155459927482 63.60061756824143,107.21931569957815 62.43326729995897,109.4730584810095 62.00787694792962,109.75331332226779 61.493451405956876,109.75331332226779 61.10763224947732,109.97518121618486 60.86031227739295,110.7108451419117 60.128245159983635,111.45818107863306 59.97985317668645,112.1821577752853 59.97985317668645,113.58338903884578 60.88009787519695,113.93369397932838 61.76055697584525,114.92621839827189 64.89657422195887,117.46003298525466 67.231274758582,121.5 69.69458168064011,121.17307194096065 75.36315544112585,119.81864502625831 75.69951060315361,119.67853091598226 75.818224189803,119.29321616409288 77.27246562571963,118.82616611463891 77.42085760895861,118.56928771607636" stroke="#4dd2ff" stroke-linecap="round" stroke-linejoin="round" stroke-width="0.5"><title>2023-06-17 17.5km</title></polyline><polyline fill="none" points="103.23014166456414,101.75507574384392 104.17954717935936,101.278551000898 104.09075385783217,101.60542396772144 104.22394384011568,102.01105772377923 104.12490513533703,102.10951188740728 104.22735896786617,102.3024813325028 103.75265621047583,102.6450982163733 103.46578547937679,102.35367714867243 103.35991651909717,102.13707900901136 103.25404755881755,102.16858426716135 103.17208449279133,102.10951188740728 103.07987604351365,102.19615134732521 103.07987604351365,102.35367714867243 102.95351631671656,102.51514043966745 102.25,103.1767391909707 102.3114722995233,103.28700456658407 102.46856817607477,103.3854555333528 103.3257652415632,103.5862947407586 105.23823678218469,104.62985449208645 105.87345054389152,105.22053640958256 105.9041866936459,105.3622987488161 105.82905388312065,105.54343877151041 106.35498355678283,105.87421405016721 107.03459397924598,105.90965409348064 107.38976726535475,105.8663384806423 107.70395901845768,105.95296965859961 108.13426511510625,105.48043364092882 108.7148368327762,105.18903359808974 109.16563369592768,105.4095527482641 109.60277004804811,105.84271176260518 110.03649127244717,105.56312785412229 110.47362762458215,106.01991180168261 111.24544649632298,106.472752716596 111.40937262837542,106.52000538102584 111.6245256766997,106.38218495097681 111.96945357955701,106.48456588802583 112.42366557044443,106.46881499198571 113.49260055653576,106.33886985888239 113.49943081203674,106.2404262902055 113.88875537565036,106.17742227686904 114.08341765748628,106.29161697668678 114.5615355426271,106.33886985888239 114.82450037944363,106.42156226601946 115.06014419427083,106.57513341774393 115.32310903110192,106.84683475480415 115.50069567417086,107.52411107172156 115.66803693395923,107.79580584954601 115.70218821147864,108.78806647744568 115.66803693395923,108.23681366507662 115.68169744496117,108.0281230833134 115.73975461674854,107.98480980487147 115.96173792055924,108.0832490050343 116.1461548191146,108.34706484594426 116.52864912722725,108.39037772524898 116.91114343535446,108.16987529727703 116.95895522387582,108.02418551451046 117.1877687831875,108.05174848779643 117.34827978748945,108.00449766462043 117.50196053629043,107.82336898297217 118.12351378698077,107.90212068622714 118.24304325827688,107.96512193525996 118.37964836831088,108.18562551171271 118.59480141663516,108.27618912231628 118.72116114343225,108.45337819179986 119.15488236781675,108.76050402039982 119.4656589931692,109.07943984136364 119.9232861118071,108.63844147839336 119.91645585629158,108.51244103749195 120.09062737159547,108.48881590985911 120.59606627876929,108.14231240681693 121.26884644571692,107.86274485432295 122.06798633949074,107.60286337450816 122.91152289400634,107.46898436590345 123.20863900834229,107.35873072232425 123.27694156335201,107.40598232171396 123.58430306096852,107.37841889564152 123.75505944850738,107.421732842231 124.00094864660059,107.37448126175877 124.2468378446647,107.12247187335015 124.43466987097054,107.07915759701427 124.6805590690492,106.89802465154207 124.92303313937737,106.58300884523851 125.32943334174342,106.48456588802583 125.54117126231722,106.20892429616651 125.6846066278813,106.64994991532149 125.23380976472981,107.10278357183779 124.90254237287445,107.32722962450862 124.85814571211813,107.38235652912772 124.86839109535504,107.53986154490121 125.2235643814638,107.68555312262833 125.7187579053716,108.16200018768723 126.22078168479493,108.3391897718393 126.34031115606194,108.54787870230211 126.75012648619304,108.79200396972738 127.69953200100281,109.8905489140634 128.1093473311339,110.04016914793829 128.2971793574252,109.95354697667426 129.0280166961602,109.82361336192844 129.42417151528934,109.95354697667426 130.5716544396564,109.5755570868314 131.25126486211957,109.71336632177554 131.51422969895066,109.8314881386832 132.37142676448275,109.76061509112333 132.76416645584686,109.9181105788739 133.29009612950904,109.97323385053824 133.76821401464986,109.86692461455459 134.68688337970525,109.44168479606378 135.29819124714413,109.3786859132706 135.5918922337296,109.39049821147637 135.99487730835972,109.56768225881751 136.45250442699762,109.97717122413451 136.6710726030724,109.68580451342132 137.15943587147922,109.55587001384265 137.7468378446647,109.61099379337975 138.02687832024822,109.68974191581219 138.5357323551725,109.3393115602521 138.53231722740748,109.07550237785836 138.67916772070748,108.73687904185135 138.8089425752405,108.59119136038134 138.96945357954246,108.5203160768724 138.89432076903176,108.50456599652898 138.90115102451819,108.45337819179986 139.06507715657062,108.34706484594426 139.09922843409004,108.22500102022241 139.23241841637355,108.1738128514844 139.25290918289102,108.00843523538424 139.37585378192307,107.9454340557786 139.31438148241432,107.88637035820284 139.32462686565123,107.73674192715771 139.21192764987063,107.67767791602091 139.26998482164345,107.40598232171396 139.53294965847454,107.13034719119605 139.78566911205417,106.58300884523851 140.08620035415515,106.42156226601946 140.08278522639011,106.22861304540493 140.20914495320176,106.05928947965731 140.16133316466585,105.81120944980648 140.3491651909717,105.71670235990314 140.57114849479694,105.74820474845183 140.81020743737463,105.69307555191699 141.07317227420572,105.8702762656103 141.32589172778535,105.95690743487285 141.60251707563293,106.20892429616651 141.69472552489606,106.11441816254228 141.8245003794582,106.14592023232399 141.82108525169315,106.00022294790324 141.9303693397378,106.08291606750936 142.0464836832689,105.90177853106434 142.03623830001743,105.77970711173839 142.30261826458445,105.77183152329599 142.4119023526291,105.89784074927229 142.48362003540387,105.90177853106434 142.75,105.62613285216139 142.71243359471555,105.40167708564695 142.2889577535825,105.15753076134206 142.20016443205532,104.95669958351209 142.19674930430483,104.61410285276725 142.42214773586602,104.48415158743956 142.07721983302326,103.98009412881584 141.92695421197277,103.57054268316278 141.9542752339912,103.36970339524123 142.12844674930966,103.27912847858897 142.12161649377958,103.21218166687322 141.93378446747374,103.14917279872316 141.6605742473912,102.92864096458288 141.73912218565238,102.73567459445258 142.008917277999,102.38518223315259 141.93378446747374,102.22765655810872 142.01574753349996,102.08194474644915 141.93378446747374,102.00711955210863 141.70155578041158,102.02681040653624 141.57861118136498,101.88109785005872 141.58544143686595,101.54241252304564 141.34638249430282,101.12102088920437 141.40443966606108,100.90835423651151 141.39760941057466,100.82565022737617 141.31906147229893,100.76263753212697 141.40785479381157,100.58935209911579 141.39077915504458,100.48695580218191 141.2268530230067,100.32154583567535 141.1858714899863,100.19551872709417 140.95022767518822,100.10493649309137 141.07317227420572,100.02616916332772 140.35258031873673,99.88044918693777 140.13059701491147,99.72685186994931 140.02131292688136,99.77017425091617 139.97008601062407,99.56143870312371 139.79591449530562,99.53386977427363 139.77542372878816,99.44722444337822 139.60125221348426,99.38420953723835 139.91885909435223,99.14002582119792 139.90519858335028,98.86827119140435 139.59783708574832,98.75405491631318 139.76517834555125,98.6871003937813 139.50562863647065,98.7816243924317 139.36219327093568,98.7698089050391 139.46123197569977,98.4783590909974 139.17436124461528,98.28930940675127 139.1299645838444,98.19084566920355 139.19143688335316,97.96634742468814 139.17436124461528,97.79304965669871 138.8601694914978,97.93483879647465 138.66209208192595,97.74972509524014 138.4674298001337,97.74578649637988 138.3513154566026,97.8836372217047 138.19080445230065,97.89939155950196 138.13616240829288,97.85212852714176 138.13957753604336,97.92302305436533 137.97565140397637,97.80486543789812 137.94150012648606,97.6867074659931 137.7570832279307,97.62368973564298 137.3028712370142,97.32041549429414 137.05015178343456,97.09197361045153 136.9272071844025,96.8753464587935 136.72571464710927,96.8280821941953 136.71546926384326,96.71385998661935 136.32955982796557,96.72961479362493 136.20320010116848,96.89110120101031 136.04610422463156,96.94230406960196 135.61238300024706,96.78475656835508 135.4177207184257,96.58782130311374 133.96287629647122,97.36767916645113 133.1295851252071,98.12389018667818 132.9280925878993,97.98997887925725 132.62414621804783,97.94665453501148 131.91721477358078,97.96240884753934 131.65766506448563,97.83243558019967 131.21711358460016,97.78911106217492 130.64678725018166,98.12782874764162 130.37699215783505,98.20659988378611 130.14817859850882,98.65953085132787 129.9296104224486,98.61620724551176 129.56419175308838,98.63983830915458 129.37294459903205,98.39171143198473 129.08265874019708,98.24598539263752 129.05875284592912,98.10419737598568 128.8299392866029,97.8481899385406 128.71040981532133,97.7969882508296 128.2971793574252,97.18650144766434 128.088856564631,96.9816908461762 128.01713888184167,96.55237285050316 127.86345813305525,96.3081715298249 127.35460409813095,95.88278495802297 126.72622059195419,95.57161964050101 126.1763850240095,95.06350894878778 126.05685555272794,95.1028976095622 125.68802175561723,95.07532555117359 125.1518466987036,95.21318564955072 125.05280799391039,95.177735956182 124.9879205666366,95.11077533697608 124.99133569440164,94.97291487911207 124.54736908676568,94.78384832133816 124.48931191497832,94.67749798258592 124.53712370351423,94.61841433660447 124.5439539590152,94.29148322204856 124.3697824437113,94.22058213926357 124.15121426762198,93.94091550885423 123.88141917530447,93.5430764476987 123.90874019730836,93.42096662048061 123.71066278775106,93.43278371714041 123.39988616241317,93.05463486044391 123.25986592461413,93.0388785790492 123.17107260307239,93.12947711071683 123.00373134326946,93.16098959447481 122.80565393371216,93.33430780306662 122.08506197822862,93.45247887031292 122.00992916770338,93.39733241652357 121.69915254236548,93.40521048609298 121.55913230456645,93.35400300563924 121.33714900075574,93.08220833766609 121.19712876297126,93.01524414511368 120.99563622563437,93.0270613638495 120.59948140651977,93.23583164202864 120.61997217302269,92.90101084717026 120.15209967111878,92.82222906874813 120.07355173284304,92.704056104747 120.12477864912944,92.62921304357587 120.00524917783332,92.70799520926812 119.87888945103623,92.6843605761569 119.82424740702845,92.75526443280978 119.4895648874226,92.5937610174442 119.2163546673255,92.62133481831188 119.07291930179053,92.45983085206535 117.9561725271924,92.95221891838446 117.46780925878556,93.05857392981125 117.36194029850594,93.2279535384805 117.21508980520593,93.23977069321336 117.41316721474868,93.36188108390706 117.4097520870273,93.6730639110101 117.36535542624188,93.70851496269097 116.68916013154376,93.4406617795903 116.6550088540389,93.66912490329923 116.40228940044472,93.9369765280062 116.42961042246316,93.99212222394635 116.31691120666801,94.1457419685612 116.3817986339418,94.22452109166261 116.27592967364762,94.74839824041555 116.15298507463012,94.92170944292593 116.15981533011654,95.26439070568813 116.25543890714471,95.50072086886576 116.22470275739033,95.60706897832279 116.04028585883498,95.76856000127009 116.09492790285731,96.13092768482238 116.01637996458157,96.16637651780911 115.97539843156119,96.41451745288578 115.60314950668544,96.48147584929757 115.45971414115047,96.94230406960196 115.49728054640582,97.16680816700682 115.8490387047641,97.37161780323731 116.08468251960585,97.3913109812056 116.14956994687964,97.46614496744951 116.14273969136411,97.588242217902 116.31349607890297,97.6079352872548 116.4193650392117,97.560671904208 116.44668606120104,97.69458467518052 116.29983556791558,97.78911106217492 116.34081710092141,97.98604030450224 116.21104224638839,98.02542603448092 116.22811788514082,98.11995162532185 116.1222489248612,98.42321969374461 115.9241715153039,98.51774432735692 115.69194282821263,98.90371755406522 115.71926385023107,99.10851813438421 115.85928408803011,99.42753229606024 115.71584872249514,99.64020696465741 115.38799645837571,99.61263809109005 115.33335441435338,99.88832595623535 115.09771059952618,99.9001411072204 115.02257778901549,100.06949121424987 115.03282317226694,100.31760749464956 114.88255755121645,100.28610075224788 114.76985833543586,100.19158037343732 114.67423475840769,99.8095581921807 114.47615734883584,99.64808378214002 114.37028838855622,99.66777581889255 114.15513534023194,99.53780819387248 114.17221097898437,99.39996327324116 114.11756893497659,99.34876360810449 113.8067923096387,99.2148564761228 113.68384771057754,99.07307195649264 113.47552491778333,99.2306102800394 113.30135340246488,99.2463640776441 113.08961548190564,98.89190210340166 112.9871616493765,98.85645573006695 112.69687579054153,98.91159451920612 112.4680622312153,99.05337962164413 112.21534277763567,99.02581033623937 111.97969896282302,99.15184119723563 111.76454591449874,99.13608736172682 111.3649759676191,99.45510129953254 111.29325828484434,99.90407949009023 111.2044649633026,100.04192264192534 110.95174550973752,100.19551872709417 110.8936883379647,100.28610075224788 110.68195041740546,100.19945708035812 110.36434353655204,100.22702554214993 109.95794333415688,100.52633902488378 109.55495825954131,100.731131146611 109.33980521123158,100.71143964283328 109.19978497343254,100.63661183846125 109.08367062988691,100.65630337974653 108.97097141412087,100.52240070439802 108.8377814318228,100.51452406222597 108.56115608398977,100.36092922420721 108.41430559068976,100.3766825685525 108.28453073614219,100.2664090254184 108.00790538830915,100.41606590181254 107.7859220844839,100.36880589716384 107.65273210220039,100.63661183846125 107.475145459146,100.66417999350233 107.39318239311979,100.7902055987397 107.28048317732464,100.731131146611 107.02093346824404,100.82171193688919 106.99019731848966,101.36913052913224 106.88774348596053,101.32580991125724 106.83993169745372,101.12889740978062 106.76821401466441,101.38094523481777 106.58379711610905,101.3336863907789 106.49500379458186,101.36913052913224 106.48134328357992,101.23523028313866 106.07494308119931,101.30611870551002 105.99981027067406,101.26673626443153 105.91443207691191,100.93986047992075 105.62073109031189,100.8689713967251 105.5455982797721,101.20372427659822 105.4568049582449,101.25885977147846 105.33386035921285,101.28642748990023 104.43226663293899,101.17615650013977 103.264292942069,101.71963195365242" stroke="#ff3400" stroke-linecap="round" stroke-linejoin="round" stroke-width="0.5"><title>2023-04-15 36.1km</title></polyline><polyline fill="none" points="150.01132114023494,110.95106315596786 149.87884683000448,110.23794334393097 149.89540611878328,109.40758401947824 149.7215335866349,108.95332209582193 149.74637251980312,108.83609246274864 151.447839441651,107.74681908525599 152.56559143410414,107.11668917965653 152.85951880989887,107.1899605554463 155.19851834965812,110.21352123106044 156.41148625260394,110.90221969619961 159.59086969781492,113.192920512829 162.81165136498748,115.3955945982816 164.5503766865586,116.97305280618457 164.84844388456258,117.11956312779148 166.02001356553228,117.96931352608226 171.1823718418309,121.43163527357683 171.37694348493824,121.5 171.76608677122567,120.96772901223449 172.0600141470204,120.37685196394887 173.38475724917953,116.23072646488436 173.9933111117425,115.07325882808436 174.4942295972287,114.5213755226032 177.54941837662773,111.86931026580714 181.50708839436993,107.19973006314103 185.2784664133651,101.29367298897341 185.17497085852665,101.1324545288735 180.6874035999208,96.94057031127522 179.060453477563,95.1229877436781 178.5471155254636,94.64903604307256 172.73066534248937,90.63245987385017 172.61475032105227,90.71064485343595 172.31254330083902,91.62930810744729 171.43076117346936,92.84113284810883 170.92570286577393,93.73043491856879 170.8636055328534,93.79395581727294 170.7725294445845,93.76463849064021 170.47860206878977,93.28578609734541 169.75413318477513,89.79196269540626 169.5968199414201,89.36682146821477 169.2739138102479,88.88792190337335 169.2739138102479,88.74131896865583 173.63314658083254,85.23247839287797 174.22100133243657,84.69488791939511 174.7012207069638,84.00578520567797 176.24951420763682,81.00488761997258 176.41924691760505,81.0 176.61381856072694,81.13685315668044 178.4684589037788,82.77417087325375" stroke="#ffa700" stroke-linecap="round" stroke-linejoin="round" stroke-width="0.5"><title>2023-03-19 21.3km</title></polyline><polyline fill="none" points="35.96347288090328,148.93670524326444 35.9925427971466,148.9269082035753 36.079752545963856,148.9807918954466 36.594705348383286,147.47202405886128 37.990061329168384,145.55659958105025 38.58391819005192,144.50332620403424 41.25835048656154,138.63883564914795 41.37878299680597,138.19786550742356 41.931111405894626,137.01702410486905 42.69108207397221,134.97375202749754 43.82480880837829,131.06334579309987 43.96185269934358,130.40667770742948 43.903712866813294,130.15674926639258 43.176964960148325,129.76470184502614 42.990086927005905,129.75 40.31980747569469,133.5233153299523 37.80733614122437,136.2575453579957 37.13872806710424,137.28161367871508 36.3829102441523,137.73239231940534 34.97924857301405,139.30518230195594 33.70017225728952,140.60354990851192 32.707642259061686,141.7304045289893 32.1096325529943,142.7053558971529 31.407801717403345,144.24857730069198 30.813944856563467,145.76725128858016 29.65945389623812,148.0990506203707 27.325554904571618,153.3990344337144 26.453457416573656,154.71658574935282 25.40278758580098,156.11735996683274 24.28151938696101,158.31149184944297 24.227532399600022,158.49269883972374 24.28151938696101,158.98244380203687 23.28898938871862,161.1176694093083 22.495795959141105,163.38011417443704 21.308082237432245,166.20066487959411 21.03814730065642,168.42857883309262 21.19595541752642,170.0345669391536 21.386986295852694,170.25 21.6278513163561,170.24510380554784 25.49415017978754,167.57170193014827 26.233356622004067,167.2974978684215 28.75828649199684,166.0831454705185 30.473411551720346,165.52492407751197 31.53653991803003,165.02545694920627 33.704325102473376,163.50743451748713 34.136221001288504,163.09119359530814 34.18190229826723,162.92959313861866 33.72924217356194,159.35954378202223 33.799840541614685,157.03322716438925 33.903661671167356,156.14674637032658 33.812299077180796,155.2406567465223 33.79153485126153,153.78597730789625 34.08223401394207,152.46350053519927 34.32725187961478,151.75326544158816 35.55649405316217,149.98007772522396" stroke="#ffa100" stroke-linecap="round" stroke-linejoin="round" stroke-width="0.5"><title>2022-06-18 22.1km</title></polyline><polyline fill="none" points="68.84864926393493,132.8421705593355 68.71957049626508,132.68980930439284 68.76874336012406,132.4213624316908 69.68458794962498,132.7043199151958 70.17631658824394,133.27023125868436 72.95458339658217,135.1493124756671 73.25576718774391,135.6063782315323 73.63071027470869,136.6510881261056 73.55080437089782,137.6449982303675 73.7536424343707,137.9642070734917 74.28839732889901,138.23988620119053 75.02599028684199,138.4212534232356 76.12008650781354,138.94358825074596 77.45390044010128,139.3135729305577 78.82459402034874,140.12608106038533 79.11963120353175,140.4960591417912 79.58062680225703,140.85152633429243 80.44115191986202,141.90340788385947 80.72389588708756,142.86822249554098 80.90829412659514,143.1438812348133 81.62744726057281,143.53560484050104 82.13761572315707,143.57912954274798 82.14990893914364,144.1739642769826 82.53099863411626,143.9418342837962 82.92438154498814,143.87654757681594 83.28703141602455,143.98535871943022 83.96315829412197,144.4713796432843 84.02462437396753,144.4278555266501 84.13526331764297,144.14494807226583 84.03077098194626,143.36150574586645 84.1414099256508,142.6288337133592 84.52249962059432,142.01222226419486 84.80524358781986,142.12103646597825 85.68420852939016,141.94693365741114 86.34804219155922,142.0339851188328 87.29461982092471,142.67235901075037 87.48516466838191,142.6868674368743 87.2761799969885,141.9614422422601 87.38067233268521,140.3364610069184 87.95230687508592,138.82025956535654 88.17973137047375,138.5228188508845 88.66531340114307,138.27615968530154 89.72867658219184,138.28341437972995 90.01756715739612,138.37772533519455 90.47856275612139,138.84202346767415 91.29606161784614,139.94471850171976 91.6341250569094,140.17686248790415 92.19961299136048,141.14895660244656 92.45777052664198,142.59256261034898 92.67904841402196,143.11486457938008 92.57455607832526,143.83302306977566 92.66060859011486,144.3262991434167 92.82042039764929,144.52941175436717 93.33058886020444,144.7107617741567 93.68094551528338,145.79885147885216 94.09276825012057,146.27035147351853 94.0804750341631,146.54599607160344 94.46156472910661,146.7128330349442 94.80577477614861,146.69832548956037 95.52492791015538,146.40817391576275 95.36511610259186,146.73459434702818 94.64596296861419,147.35116188949905 94.63981636060635,147.46722102117928 95.31594323873287,147.68483134572307 95.68473971771891,147.67757767972216 96.20105478828191,147.5179968274315 96.31169373198645,147.57602627268352 96.38545302778948,147.88068002731598 96.31169373198645,148.81639352412458 96.07197602067026,149.68681283284968 95.80767187738093,150.16553858396946 96.02894976476091,150.01321712884237 96.6128775231482,149.1573091141472 97.56560176055063,148.81639352412458 97.75,148.91794303205825 97.08001972988131,149.70857316923502 96.93864774625399,150.17279197785683 96.6128775231482,150.57172742088005 97.07387312190258,150.6732742414606 97.37505691306433,150.53546066155104 97.50413568067597,150.6732742414606 97.37505691306433,151.16649944443634 96.93250113827526,151.93534318206366 96.82800880257855,152.53010297925357 96.3362801639305,153.9517023526205 96.58214448322542,155.48206354772265 96.41618606768316,155.84470320695982 96.42233267566189,156.8600837079648 96.07197602067026,157.3750207377161 95.93060403704294,157.96973177084874 94.84265442405012,158.52817508325825 93.53342692367733,159.5000002905581 92.72822127791005,159.91338431005715 91.10551677038893,159.92063663828594 90.90267870694515,160.09469227807858 90.63222795570618,160.63861320983415 89.13860221582581,161.70468530327344 88.65302018515649,162.328365798312 88.17358476249501,161.2477993603752 87.26388678100193,161.34932984176703 86.6738124146359,161.90049260156957 86.06529822433367,162.2630971839244 85.55512976172031,162.7852443017764 84.97734861131175,162.56768350193306 85.13101381089655,163.2203637617422 85.06340112307225,163.40891464172455 84.88514949160162,163.503189880852 84.28892851719866,163.53219761976652 83.48986947943922,163.2131117941026 82.23596145090414,163.14059207432 81.00049324633437,162.9157804393035 79.51301411443274,162.93753643726814 78.44965093338396,163.10433218468097 78.1115874943207,163.31463926869037 77.61371224769391,163.401662694705 76.84538624979905,163.2131117941026 76.57493549858918,163.23486769460578 76.08320685994113,162.7924963161422 75.30873425406753,162.49516307682643 74.47894217632711,162.69822006741015 74.59572772803949,162.79974832973676 72.9607300045609,163.32189122522686 72.7886249810399,164.02532724185585 72.27845651845564,164.62723049134365 71.64535589618026,164.83753274947958 71.04298831385677,164.80852558108745 69.56165578996297,165.78025882113434 68.04959022611729,166.00506075323938 67.36731674001203,165.96880242861516 66.47605858248426,166.81724203422345 64.92096676278743,167.48438350891956 64.3985050842457,167.60765891698975 63.54412657459034,167.47713200720318 63.27367582335137,167.56414997558022 62.85570648050634,167.25958658717718 62.45617696159752,166.7519778342321 62.62828198511852,165.9833057608339 62.45617696159752,165.3959182702456 62.1426999544492,165.66423171953647 61.57721202005632,166.51992682560376 61.27602822886547,166.64320402494923 61.09777659736574,165.74400037367013 61.245295188971795,165.3669113458891 60.61219456669642,164.64173411672527 60.46467597509036,164.16311280483205 60.796592806174885,163.38715879830852 61.36208074062597,162.7779922865957 62.21645925025223,162.64745587801735 63.15689027166809,162.719976136701 63.49495371070225,162.6184477523566 63.44578084687237,162.4226425724628 63.18147670358303,162.2630971839244 61.767756867513526,161.7481980861703 61.60179845194216,161.55239033849648 61.57106541204848,161.26955590516445 62.689748064934975,159.85536565565417 63.08313097586506,159.7103187977409 63.42119441492832,158.52817508325825 64.01126878132345,158.15829757073516 64.12805433297763,157.933469055577 63.9866823493503,157.75940774640185 64.01126878132345,157.62886146489473 64.5029974199424,157.229968457621 62.83726665654103,157.24447369989502 61.7984899074072,157.56358822778566 59.99753376838635,158.3396103345076 59.30296706632362,158.13654000579845 58.66371983609861,158.30334782139107 58.3871224768518,158.0712672681475 58.294923357112566,157.1284316728561 58.0429124298098,156.38865897933283 57.74787524659769,155.87371429408813 57.25,155.45305228932557 59.81313552890788,154.87282445778692 60.58146152677364,153.9154374411446 60.956404613738414,153.5963053652813 61.552625588083174,153.4584978579005 62.18572621035855,153.09584515481401 62.554522689344594,152.76945602697378 63.34128851114656,152.4430652932424 64.49070420398493,151.579935392052 65.27132341780816,150.83284750255552 65.12995143420994,149.90441587532405 64.09117468507611,149.73758693994023 62.90487934436533,148.88892890280113 62.6590150250413,148.85991476084746 62.47461678556283,148.7075903074001 61.466573076322675,148.31589724930382 60.913378357858164,147.8153971977008 60.49540901501314,147.6920850108727 60.08358628014685,147.41644517604436 60.6613674305554,146.6910717156934 61.54647898010444,146.09625955815864 61.552625588083174,145.83512082821835 63.22450295949238,143.84753124196868 63.5379799666116,143.13662707214098 63.88833662166144,142.77391792692652 64.10961450901232,142.3314100831194 64.28786614054115,141.35207894571067 64.0542950371746,140.67016575988237 64.39235847623786,140.22764387654024 64.30015935649863,139.47317352756363 63.046251327963546,136.68736247947527 63.21220974350581,136.50599051410245 66.80797541356878,134.83734515027754 66.95549400517484,134.67773339284759 67.10301259672269,134.1190892153536 67.00466686903383,133.77084111221484 67.41648960390012,133.241210281667 68.22169524966739,132.39234108301025 68.71957049626508,132.48666041970864 68.6888374563714,132.6535327635138" stroke="#ff8500" stroke-linecap="round" stroke-linejoin="round" stroke-width="0.5"><title>2021-12-18 25.6km</title></polyline><polyline fill="none" points="105.748838829546,153.28951694616262 106.23165350675117,153.08681925447308 106.69565722244442,153.14473293899937 107.0530654900067,152.60902957695362 107.57350209011929,152.39909068410634 107.7992336274765,151.44349901096575 108.1315606131102,150.87882523283042 108.20053413839196,150.32138651103742 107.94972131907707,150.24175205503707 107.78669298652676,149.8290993698247 108.03750580587075,149.7060270576767 107.91836971670273,149.32956926531187 108.0876683696988,149.14133962970664 108.26323734322796,149.1558188499548 108.01242452391307,149.0327453849386 107.93091035765246,148.5911270992001 107.54215048768674,148.1567458103309 107.5923130515439,147.99747201329592 107.1784718996787,147.21557734456292 107.2599860659684,146.90426506248332 106.68938690196956,146.27439655341004 106.52635856941924,146.42643428517476 105.55445889456314,146.5857115639301 104.99640037157224,146.78842759001418 104.87099396190024,147.06354128224484 104.3003947979596,147.1286996340641 103.99314909428358,147.28073555853916 103.70471435206127,147.64272456038452 103.44136089176754,147.74408115417464 102.5823269856046,147.41105180922023 103.31595448212465,146.46263369770895 104.6515327449888,145.80380153552687 104.97131908961455,145.3187234456127 105.23467254993739,143.92139064650837 104.99640037157224,142.08961271141015 105.10299581979052,141.93756580366608 107.45436600089306,140.64877433031506 108.1503715745057,140.75014078940876 108.5642127264,140.35191459167982 108.6081049698114,139.83059696041892 109.09718996752053,139.21514766576 109.59254528564634,138.99068837567756 110.31990246166242,138.88931943416537 110.52055271714926,138.30282489344972 110.6961216906493,138.21593640614446 110.75255457501044,137.9914739941887 110.6961216906493,137.75252936565084 110.43276823038468,137.64391790815716 110.66477008824586,137.3760089442294 112.15710636318545,136.42021747295075 113.52403622851125,134.9430601850254 114.33917789129191,134.2334346080388 114.74047840220737,134.29860459624615 115.75627032047487,133.85689574074786 116.26416627960862,133.41518416893086 116.99779377612867,133.16174187671277 117.80666511843447,133.40070177631424 118.8977008824877,133.43690775237337 119.59997677660431,133.13277698638558 119.5184626102855,133.36449578202883 119.24256850907113,133.41518416893086 119.1673246632563,133.55276675304776 119.50592196933576,133.90034263386042 119.73165350672207,133.92206607057597 119.87587087784777,134.2261934946 120.15803529956611,134.31308680780785 120.4276590803347,134.59548934980558 120.87912215510732,134.40722111184004 121.53750580581254,134.33481011969707 121.90745471432456,134.6316947236046 121.92626567580737,134.9937474579856 122.11437529028626,135.09512189661473 122.67870413378114,134.92133705710148 122.70378541568061,135.00822952940507 123.34335810496123,134.63893579619617 123.75719925682642,134.2334346080388 124.07071528100641,134.39998001592176 124.18358104967047,134.81272131890728 124.42185322803562,135.1168449719844 124.47828611239675,135.31235235476197 124.33406874130014,135.64543778132793 124.86704598233337,135.81922086901614 124.8795866233122,136.07265378498414 125.03634463541675,136.3840130005774 125.16175104503054,136.4129765799371 125.80759405478602,135.99300353631406 126.54749187178095,135.8988713103754 126.56003251275979,135.80473896110198 126.84219693450723,135.7106064884647 126.79830469112494,135.57302803736093 126.96133302367525,135.6164738924781 126.84219693450723,135.4788952611052 127.1180910357507,135.58026901503035 127.25603808637243,135.4788952611052 127.52566186714103,135.57302803736093 127.43787738037645,135.32683436192747 127.54447282859473,135.35579836754187 127.55701346957358,135.24718328627932 127.14317231770838,135.09512189661473 126.91744078029296,134.41446220705257 127.0741987923684,134.13205895333522 127.03657686949009,133.83517228432174 127.16825359963696,133.78448419380584 127.27484904782614,133.44414894538204 127.1996052020695,132.89381619541382 127.41279609847697,132.74899108669342 127.58209475150215,132.85760994561133 127.66987923823763,132.74899108669342 127.92069205758162,133.6831079054682 128.05863910820335,133.7193137391514 128.71702275893767,133.3717369823571 128.94275429632398,133.43690775237337 129.08697166742058,133.6179373588311 129.1434045517817,134.1755056800248 129.46946121691144,134.40722111184004 129.375406409672,134.53756071376847 129.60740826753317,134.53031963096873 129.83313980489038,134.79099815156223 129.8895726892515,135.27614732400252 130.12784486761666,135.5657870589348 130.0337900603772,135.7106064884647 130.0149790989235,136.30436309713696 129.75162563865888,136.81846546474117 129.77043660008349,137.06465402814501 130.21562935438124,136.69537086664786 130.24698095678468,136.8257063168785 130.47898281467496,136.76777947931987 130.48525313514983,136.9270781702362 130.87401300508645,136.78950204887224 131.35055736181675,136.91259648565028 131.62645146306022,136.8257063168785 131.87099396190024,136.9270781702362 132.07791453786194,136.8691514144084 132.03402229445055,136.66640740116418 131.88980492335395,136.59399868632318 132.17823966557626,136.36229030840332 132.00894101252197,135.95679884861602 132.20332094753394,135.42820833046426 132.13434742219397,135.1458090622691 132.51056665115175,134.63893579619617 132.42278216441628,134.26239905456168 132.09672549928655,134.1103355801315 131.8772642824042,133.79172535178077 131.82083139804308,133.06036470944673 132.24721319088712,132.3941683361627 132.7676497909706,130.5838208933128 133.11251741755405,129.76552887428988 133.1626799814112,129.9103599992086 133.50127728749067,129.8596691387138 133.87122619600268,130.01174161285599 134.82431490943418,129.90311844990356 134.88701811424107,129.82346135930857 135.99059451927315,130.14933071676933 136.00940548072685,130.3955421395367 136.52984208078124,130.2145044108256 136.78065490012523,130.46795710325387 137.0941709242761,130.35209312626102 137.25092893635156,130.4389911265389 137.37633534602355,130.33761011601018 137.49547143519158,130.5258890216428 137.84660938224988,130.47519859560998 138.2980724570225,130.73589183410513 138.32942405945505,130.90244535216334 138.06607059916132,131.14141276866576 137.84660938224988,131.62658659260342 136.98757547608693,132.31451400839433 136.98757547608693,132.6041656859452 136.68660009288578,132.98071112047182 136.57373432419263,133.32828976948804 136.36054342775606,133.56724911501806 136.11600092894514,133.60345500708354 135.78367394334055,133.9727540640015 135.63318625173997,134.291363489363 135.69588945654687,134.6027304260133 135.55167208545026,134.8272034268375 135.82129586624797,135.03719366348378 135.87772875058,135.21821923689276 135.58929400832858,135.40648534925276 135.20680445889593,135.26166530659975 134.57977241059416,135.41372634373693 134.12203901531757,135.73232937772264 133.8022526706627,135.681642625932 133.12505805850378,136.0798947123185 132.73629818856716,136.70261173121253 132.56699953554198,136.75329776261788 132.97457036696142,137.43393529134482 135.53286112402566,137.07189485546405 136.04702740363427,137.41221291662805 136.8684393869189,137.38324974016723 137.1192522062047,137.5425470663031 137.05027868089383,137.75252936565084 136.7681142591755,138.04215911625215 136.61135624710005,138.52004565198877 136.78065490012523,138.853116206119 137.42022758940584,139.14998213767103 137.65222944729612,139.4830497714065 137.60833720388473,140.2215855384784 137.7400139340316,140.5836101025052 137.52055271712015,141.0397584559978 137.4515791918093,141.5538269391036 137.965745471447,141.93756580366608 138.72445424989564,141.9665271442209 139.00661867161398,142.50230983916845 139.70262424522662,142.5240306749838 140.71214584299014,143.71866653270263 140.7811193683301,144.25443616335542 140.60555039480096,144.74676149128936 140.96295866233413,145.32596344118792 140.62436135625467,145.8255213734301 140.58673943334725,146.06443915692944 140.79993032978382,146.2454369489642 141.40815141663188,146.15131815399218 141.589990710665,146.2164773328841 141.55863910820335,146.8897853886374 142.1480492335977,147.49792917843297 141.83453320947592,148.16398551997554 142.57443102647085,148.68524269908812 142.50545750113088,149.63363148151257 142.75,150.32138651103742 142.0853460287908,150.32138651103742 142.2734556432697,150.72679691927624 142.44902461679885,150.7485152694644 142.4615652577777,150.99465611307096 142.24837436137022,151.19735970433976 142.30480724573135,151.40730210697075 141.99129122155136,151.53037150617456 141.68404551787535,151.57380771442695 141.42069205758162,151.40730210697075 141.04447282859473,151.56656834820024 140.45506270320038,151.40006272399478 140.16662796097808,151.59552580871969 139.8280306548986,151.5086533922222 139.38910822110483,151.73307358675083 138.93137482582824,151.58104707990424 138.91256386434543,151.64620133650897 138.5676962378202,151.55932898126048 138.47991175102652,151.66068005215493 138.04098931723274,151.63896197757276 137.79017649788875,151.88509977205103 137.46411983275902,151.95025375304976 136.9311425917258,152.28326206694328 136.14108221084462,153.24608177462505 135.8338365071977,153.8758891932157 135.51405016254284,154.08582377325365 135.26950766370283,154.0785846600047 134.70517882026616,154.29575774024124 134.31641895030043,154.22336678638385 133.79598235018784,153.9989543662232 133.50754760799464,153.62975821516739 133.1814909428649,153.58632324920472 132.45413376679062,154.32471410135622 132.27856479329057,154.68666763137298 131.97758941011853,154.99070718830626 131.88353460287908,154.99794620969624 131.86472364145448,154.8676437130198 131.62018114255625,154.83144853312842 131.08093358104816,155.04861933906795 130.49779377612867,154.87488274680072 130.4288202508178,155.01242425030068 130.2657919182384,154.93279499086202 130.08395262423437,155.14996549065108 129.79551788201206,155.20063851286977 129.34405480723944,155.09929243271472 129.30016256385716,154.93279499086202 128.93021365537425,155.12100946192368 128.69821179748396,155.5336317703841 128.7295633998874,155.70736677070818 129.08070134694572,155.82318987103645 128.95529493730282,156.40954145301657 129.01172782163485,156.64842405989475 128.77972596374457,156.9017835331906 128.0899907106359,157.1261868925285 128.3157222480222,156.8293952033564 128.2153971203079,156.6701406211505 128.0460984672245,156.9162611904103 127.37517417556955,156.94521649608942 127.06792847189354,157.07551522746508 127.01776590803638,156.99588825300452 127.21841616349411,156.8438728751571 126.89862981883925,156.95245532071567 126.82338597308262,157.01036589129944 126.88608917788952,157.24200770718744 127.08046911287238,157.56051398549607 126.47224802599521,157.45917123181425 126.42835578264203,157.58223027126223 125.96435206689057,157.7414828332112 125.58186251739971,157.56775274813845 125.19310264746309,157.56775274813845 124.82942405942595,157.32887319573638 124.41558290756075,157.41573857935145 124.13341848581331,157.77767654809577 124.4657454714179,157.8211089818942 124.66639572687563,158.19752230930317 124.67266604737961,159.3701819664493 124.87331630283734,159.55114625954593 125.38748258244595,159.674201718728 124.74790989316534,160.26776038760727 124.64131444497616,160.55006096210127 124.45320483043906,160.62968400068348 124.23374361355673,161.22323478273756 124.23374361355673,160.7744529358606 124.51590803530416,160.52110710802663 124.45947515094304,160.34014525595558 124.74790989316534,159.9203120053062 124.29017649788875,160.04336683270958 124.09579656290589,159.84068818122614 123.91395726890187,159.22541020405333 123.99547143519158,158.87071815429226 123.90141662795213,159.6597246168094 124.0519043195527,160.6079686352532 123.61298188572982,161.71544391052885 123.56908964237664,162.08459854547255 123.38725034834351,162.44651301465638 123.19287041338976,162.56232526011445 123.23676265674294,163.00385773497692 122.96086855549947,163.62634153726685 122.9545982349955,163.85072391233552 122.42789131446625,164.1836771142407 122.23978169992915,164.86405495103827 121.51242452391307,165.27662135561695 121.28042266605189,165.60233000332664 120.98571760332561,165.76880274256837 120.48409196466673,165.6385197620184 119.7253831862181,165.84118207421852 119.73792382719694,166.2465049855091 119.46202972592437,167.3538934373937 119.01056665118085,167.9112001307367 118.68450998605113,168.5408791213049 117.59974454250187,168.21518377991742 116.96644217369612,167.36113121434755 116.45854621459148,167.05714395584073 115.82524384578574,167.12952199105348 115.50545750115998,166.94857676645188 115.03518346493365,166.99924147523416 114.70285647932906,166.57220924118883 114.54609846728272,166.71696621474985 114.43323269856046,167.10057078571845 114.37679981419933,168.13556913880893 114.27020436598104,168.3020360151495 113.42371110076783,168.88828586007003 112.0442405945214,169.12712701971031 111.75580585229909,169.72784521868016 111.22282861126587,170.23447112570284 111.0911518810899,169.9522085605422 111.12877380399732,169.74232029410632 111.30434277752647,169.58309430418012 111.39212726426194,169.15607740939595 111.54261495586252,168.9534244367751 111.55515559684136,168.62049331379967 111.76834649324883,168.4323141713685 111.8561309800134,167.98357730659336 112.45181142591173,167.21637553719484 112.42045982350828,166.77486892259913 112.7465164886089,166.5866849516533 113.04749187178095,166.64458776437095 113.73095680444385,165.46480875420093 113.59928007426788,165.19700346183527 113.24814212726778,164.95091123288148 113.41744078032207,164.5600571385512 113.27949372967123,163.8869145524077 112.43300046445802,163.02557237692963 111.93764514630311,163.16309829029342 111.56142591734533,162.8373785956137 111.2980724570516,162.79394919151673 111.30434277752647,162.59127829234058 111.54888527636649,162.4392747431266 111.51126335345907,162.21488796420454 111.24163957269047,161.99773880185967 110.8215281003213,161.91811727802997 110.55817464002757,161.64306042656244 110.66477008824586,161.51276997179957 110.9469345099933,161.6575371291692 111.28553181607276,161.61410701255954 111.42974918716936,161.7516356251872 111.69310264746309,161.67925217763695 111.97526706921053,159.7683028101237 113.24814212726778,158.34953482522542 113.36100789596094,158.11789657745248 113.27322340919636,157.56775274813845 113.30457501159981,158.17580620936496 112.99732930792379,158.62460427521728 113.18543892243179,158.00931589191896 112.81549001391977,157.56051398549607 111.94391546677798,157.7414828332112 110.74628425453557,157.02484352666943 109.9938457965327,157.00312707251578 107.10322805386386,158.16856750792067 105.98084068740718,158.47259234083322 105.30991639572312,158.48706968176703 104.99640037157224,158.73318403160374 104.38817928472417,158.7042294459461 104.02450069668703,158.36401219094842 103.98060845330474,157.43021613307064 103.46017185322125,156.97417179013428 102.59486762658344,156.7642456441754 102.3942173710966,156.61222977652506 102.25,155.72908361625014 102.3942173710966,155.4684810369945 102.70773339524749,155.20787751314492 102.83313980491948,154.36090953637176 102.95854621459148,154.1437366529717 103.30341384114581,154.25232317667542 104.00568973523332,154.1871712821303 105.13434742222307,154.3536704508224 105.55445889456314,154.04238908285333 105.73629818856716,153.34743046736548" stroke="#ff5200" stroke-linecap="round" stroke-linejoin="round" stroke-width="0.5"><title>2021-11-13 32.3km</title></polyline><polyline fill="none" points="156.58084622383467,157.7854427209022 156.5145131938043,157.4549413429122 156.72088262057514,157.21141313297267 156.57347588718403,156.94179174509918 156.69140127388528,156.41124376469088 157.5905823475914,155.4110207335907 159.18994540494168,154.47166938950977 161.37893539582728,154.14115424090414 163.0225204731687,153.3757454651568 163.2215195632598,152.54074567167845 163.68585077344324,151.75792540271505 163.78166515013436,151.27083334617782 164.3344404003874,150.9837955585972 164.85773430392146,150.19226174615324 165.36628753415425,149.97480602248834 166.29494995455025,150.03569368504395 167.26783439493738,150.3488294989802 167.89431301187142,150.78373830607597 168.24071883532451,151.3056257348726 168.48393994543585,151.37521046659822 169.65582347591408,151.17515419876145 170.34126478616963,150.75764384472131 171.10777979984414,151.09687117435533 171.0119654231239,152.25371246779105 171.15200181986438,152.49725585889973 171.22570518654538,153.33225610900263 170.96774340313277,154.18464315471647 171.15200181986438,154.8282762988456 171.47629663330736,155.29795125175588 172.83980891719693,156.28078060440748 173.59158325751196,156.15901479508466 173.92324840763467,156.26338550022047 174.218061874446,156.10682939115213 174.7118744313193,156.08943424890458 176.10486806189874,156.55910175429744 176.95982711558463,157.68107401304587 177.12934485898586,158.18552149897005 177.7558234758908,158.5160198412632 178.44126478620456,158.45513867086993 179.31833484990057,158.02027181283484 181.1682893540128,156.3416634391615 181.84636032758863,156.71565697307233 182.65709736128338,156.74174947960273 182.99613284805673,156.60258934595913 184.0869426751742,157.4549413429122 184.30805277527543,157.0461614230153 187.02770700637484,156.25468794668268 187.6394449500076,155.88069224514038 187.75,155.39362543915922 187.70577798000886,153.3757454651568 187.58785259330762,152.80168404894357 186.46019108284963,150.83592720307206 185.723157415865,148.70485271882353 185.1040491355816,147.60884931569308 184.63971792542725,147.14782749734877 183.82161055505276,146.6607072000479 181.9348043676291,146.1039946344972 183.72579617839074,145.29501473997516 183.92479526845273,145.33850849205191 181.92743403094937,146.1126932983243 181.08721565062297,145.84303427753184 180.40914467701805,145.36460473190527 179.84162875343463,144.6947985313236 178.9940400364285,142.78103543512407 178.12434030941222,142.51136511395453 176.097497725219,141.58056052596658 175.54472247499507,141.6240563101892 173.90113739765366,141.34568287989532 173.34099181074998,141.0673084748123 172.95036396727664,140.6497450394163 172.08066424023127,140.31917243088537 170.5181528662506,140.08429105785763 169.66319381259382,140.34527031837933 168.86719745222945,140.14518629528902 167.66583257509046,140.0755917344286 166.53817106460338,139.5362318218904 165.67584167426685,139.28394931627554 164.6661055505101,139.2404522516299 163.05200181985856,138.58799342566635 161.1799363057362,139.0925620537455 160.42816196542117,139.78851352682977 159.16783439490246,139.77111481425527 158.4823930846178,139.36224397266778 158.06965423110523,139.27524990524398 157.79695177433314,138.89247487756074 157.6274340309319,138.32700839574682 157.2441765241092,138.27481128693034 156.8609190173156,138.03122432599048 156.07229299363098,138.1269192925174 156.07229299363098,138.62279136489087 156.77984531392576,139.2056545827436 156.44818016377394,139.37094337416056 156.45555050045368,139.57972872470418 156.05018198359176,140.32787172766257 156.10177434032084,140.58015092028654 155.9469972702209,141.00641394375998 155.60796178341843,141.10210532874044 154.66455868969206,140.29307453482033 154.53926296634017,141.47617054672446 154.1781164695276,141.89372964128415 153.98648771611624,142.40697635695687 153.60323020929354,142.58095754247188 152.92515923565952,141.92852613348077 152.68930846225703,141.88503051583393 152.7187898089178,142.65054991007491 152.1733848953736,142.92891877129296 152.58612374885706,143.74662166432972 152.37975432211533,144.5295208086245 151.59849863511045,144.84267830775207 151.16364877161686,145.4515921361526 151.10468607826624,145.7473485987357 150.5150591446727,145.87782904131745 150.2423566878715,146.21707718986 150.50768880799296,146.97385630517965 150.33817106459173,147.5827538124213 149.57165605097543,147.69583426466124 149.46847133754636,147.80891455607343 149.88121019108803,148.68745595739165 150.4045040946221,148.86142340033985 150.57402183802333,149.15716717983742 150.47083712465246,150.62717140952736 149.1662875341135,152.6973088007726 148.95254777069204,153.71496162696712 147.54481346678222,154.8108808769466 147.25,155.85459945617913 147.53744313010247,156.23729283676948 148.0533666969859,155.96766814662988 151.21524112825864,157.03746395507187 152.88093721563928,157.34187476673833 152.58612374885706,157.96808763008448 152.5566424021963,158.39425745387416 152.6450864422368,158.1159427255916 153.38949044587207,158.37686281187052 153.50004549589357,158.48992791678756 153.4705641492328,159.21180133635062 154.14863512283773,159.88148527726298 155.12151956325397,160.4381014050814 155.42370336668682,160.4381014050814 155.28366696994635,160.21197657289304 155.37948134666658,159.7771193196677 154.99622383984388,159.1422234607162 155.38685168334632,159.70754193854373 155.31314831663622,160.18588520473713 155.64481346678804,160.92513732190855 155.6005914467678,161.86441245493916 157.6274340309319,161.96877567400952 157.84117379435338,161.44695820948255" stroke="#4dd2ff" stroke-linecap="round" stroke-linejoin="round" stroke-width="0.5"><title>2021-10-24 17.4km</title></polyline><polyline fill="none" points="45.415625504392665,197.62854251886893 45.52197557716863,197.72620093627484 45.533792251953855,197.26581059854652 45.28564208216267,193.87561231674044 44.092157932172995,192.63391217641765 43.8440077623236,192.04793711887032 42.94594048114959,190.94573863354162 41.1025392197771,189.64820160876843 40.07448851631489,189.22963845785125 39.47183810395654,189.313351198085 38.455604075221345,190.12257151662197 37.79387028911151,190.3039477790735 37.013969755440485,189.9411949958012 36.7067362118396,189.9690990927338 36.222252547042444,190.44346780520573 35.98591905197827,190.20628366986057 35.26510189205874,190.19233164816978 32.452733300975524,191.26663284780807 30.053948326210957,190.86202696638065 29.876698204956483,190.3597558078618 29.179514394549187,189.71796200015524 28.813197477255017,188.83897827572946 28.48233058414189,188.67155211651698 28.624130681157112,188.23903351962508 28.435063885117415,186.27175297675421 27.655163351504598,184.68116350780474 27.773330098949373,182.79754501822754 26.792546094511636,179.8534632679657 25.894478813337628,178.5 26.86344614304835,179.8813695756835 27.466096555406693,181.4022540970327 27.773330098949373,182.6998751514475 27.749696749495342,184.72302137997758 28.60049733170308,186.82984983593633 28.695030729693826,188.3227469111007 27.761513424280565,190.83412306512764 27.17067968659103,191.88051517859276 25.126394954451825,193.66633786047169 24.417394469317514,195.29866949934512 21.581392528722063,197.21000559606182 20.600608524226118,197.991273406049 19.891608039150015,198.8980961045163 18.532690442574676,199.41428460305906 16.606572457938455,200.57221335469512 15.507621705939528,200.4187535228557 14.018720687192399,201.59062391746556 14.597737750038505,202.38581554491248 14.325954230735078,203.65532171353698 14.72772117232671,204.19939191259618 14.774987871292979,204.78531106657465 13.42788694956107,209.4028177074215 13.581503721303307,210.37930824543582 12.458919619850349,211.13259583196486 12.399836246098857,211.43948949767218 12.470736294635572,212.08117386430968 13.19155345443869,213.21108847967116 14.361404254974332,216.18229760882969 14.60955442476552,217.5353604943375 14.408670953998808,218.70707344576658 14.999504691571929,218.5536354581127 15.17675481288461,219.0 18.296356947510503,218.73497124182177 19.950691412901506,217.81434074584104 20.671508572762832,216.99134724697797 21.427775756979827,214.96871351861046 22.822143377678003,213.810915623224 22.751243329199497,212.69495588634163 22.92849345051218,212.41596442472655 23.649310610431712,212.01142572016397 24.996411532221828,212.19277081551263 26.059912259865087,211.8161307133414 27.135229662351776,211.88587896445824 28.175097040541004,211.18839473530534 29.144064370309934,211.23024389670172 29.309497816837393,210.78385213266301 30.491165292041842,210.50485648581525 30.845665534608997,210.17006090309587 31.235615801473614,209.01221939637617 31.944616286666133,208.10546870008693 32.67725012131268,205.9710915841133 35.24146854260471,204.82716233158135 38.420154050923884,203.92038184437843 39.09370451187715,202.77643417520449 39.24732128367759,201.38136213773396 40.1453885648516,201.00469006788626 40.948922447976656,199.916520053157 41.846989729150664,199.94442196453747 43.11137392767705,199.3863825754961 43.8440077623236,198.35400326021772 45.51015890244162,198.11683385708602 48.12164402269991,199.48403964508907 49.81142851233017,199.28872543109173 51.442129628150724,199.65145159013628 51.926613293006085,200.44665532422368 51.560296375711914,201.50691924680723 51.86752991925459,203.05544674916018 52.60016375390114,203.68322280593566 52.56471372966189,206.20824636303587" stroke="#4dd2ff" stroke-linecap="round" stroke-linejoin="round" stroke-width="0.5"><title>2021-09-19 11.2km</title></polyline><polyline fill="none" points="83.59001248815912,193.35571627132958 86.25517132753157,187.42969379946226 87.34697315738595,184.74068636570883 87.79531763502746,183.41816450458646 88.941086855717,179.1564396296999 88.84145474957768,178.88700661707844 88.06515458918875,178.5 85.57850327329652,181.97314229425683 82.83446901653951,185.00028792629018 82.33630848581379,185.84765613996933 82.07892554493446,186.1268433141595 81.39395481518295,186.50888610271795 80.73804344973178,187.28275766954175 78.98617891666072,189.0753455473823 77.7034155500296,190.53972889156285 77.09732023766264,191.5290176554554 75.84776757308282,194.55551803124035 74.76841975649586,196.72977084665763 72.34818984470621,202.1992155332955 71.50131694246375,203.47222246840465 70.39290976160555,204.9312398376387 69.26789722971444,207.18821686596493 69.34262130931893,207.56028894650444 69.30110793175118,207.824654076343 68.42517566522292,209.6457937640771 67.58660543849692,212.0298084899332 66.3370527739171,214.95702914894355 66.05891314426844,217.18413440076256 66.22496665451035,218.78953955555335 66.39102016475226,218.98042232584703 66.60273839031288,219.0 67.6115134650463,218.28051486755066 68.74067733468837,217.59528021317965 70.48423919222842,216.3275685321787 71.23978266383347,216.04856926375214 73.74719066849502,214.8248677822521 75.50320653931703,214.261953899535 76.18402593131759,213.95357199715 77.09732023766264,213.41512232683453 78.61255851860915,212.3235181751661 79.15223242690263,211.84868655934406 78.70388794924656,208.05964399537697 78.80352005540044,205.70479355864882 78.89900082378881,204.93613578921577 78.79521737989853,203.84432536526583 78.78276336660201,202.5076782221222 79.0941136983165,201.0730639001158 79.31413459939358,200.514873915341 80.72558943644981,198.44853123828943" stroke="#ffaa00" stroke-linecap="round" stroke-linejoin="round" stroke-width="0.5"><title>2021-09-11 21.0km</title></polyline><polyline fill="none" points="142.75,202.04990994616674 142.17524075013353,200.86986493612494 141.8849286800396,200.55148748325155 141.69431974513282,199.90780154279855 141.4010752298782,199.35062195625505 141.22512852073123,199.12913169318927 141.18114184346632,198.89033576623842 140.8292484251724,198.67922482249924 140.8351133154647,198.46811247000733 141.22219607559964,198.03550078897024 141.10196582433127,197.814001318362 140.7852617478784,197.43675646240445 140.69728839330492,197.19102574211502 140.13132647887687,196.78608503833675 139.964177105212,196.59226543119803 139.58882412569073,196.49189409645987 139.1958764752635,196.29807268665536 138.93195641155762,195.9415766352795 138.2545615813433,195.48124083850053 138.11087176887668,195.45009005383326 137.76484324087505,195.46047365213235 137.55370718993072,195.5262363621914 136.83232568242238,195.9277320473775 136.22237709071487,195.9761880785154 136.07868727824825,196.11463347272365 136.0083085945953,197.03874095741776 136.06402505248843,197.5786564314767 136.04056549127563,198.1047190554891 136.09041705886193,198.46465160003936 136.17252552312857,198.65499888638078 136.21651220042259,199.29524953585496 136.3044855549815,199.65862927595663 136.2839584389294,199.80398000341665 136.40125624502252,200.62416087965175 136.36020201290376,200.73144035024234 102.65760987618705,197.03527993106036 102.25,197.66518049046863" stroke="#4dd2ff" stroke-linecap="round" stroke-linejoin="round" stroke-width="0.5"><title>2021-09-07 16.2km</title></polyline><polyline fill="none" points="152.3657524124137,214.50719296482202 152.29885681995074,214.27702809158654 152.35166912978457,214.08296623565911 152.29181517864345,213.47820784480427 152.53475180386158,212.67034125328428 153.06991654350713,210.16537481004343 153.3867904025101,209.24458146763573 154.59795270797622,207.82271655651493 154.61907763191266,206.4775294785577 154.70357732764387,205.74622972700672 155.3901373554545,205.3534878272294 156.05909328001144,204.83885326638483 157.27377640614577,203.6515509583478 157.46037990089098,203.1098015330681 158.16454403199896,202.3558517604033 158.31946014083223,201.97661287196752 158.7278753368737,201.5702805389992 159.06587411978398,201.385171888669 159.6714552725316,200.82983955774762 159.97776666955906,200.24289254501127 160.13972441971418,199.61078380547406 160.27703642526467,199.37599740113728 160.91078414325602,198.96963227382003 161.4001782143605,199.01478420771673 161.57621924715932,198.97414747006042 162.4564244110079,199.23602776920598 162.88948535163945,199.0825119899091 164.62172911413654,199.31730053274077 165.10760236460192,199.27666417659202 165.79416239241255,199.09154235011738 166.47368077893043,199.04639052379207 166.9384291054448,199.27666417659202 167.76934278014232,199.47533031943385 168.52631922105502,199.78687248605274 169.082608884637,199.9178095991083 169.3290663305088,199.8726589305661 169.71283578196017,199.9268397252199 170.12477179865527,200.17968222904528 170.96976875598193,200.3512527981802 171.1387681474298,200.53185241040774 172.06122315916582,200.67181641369825 172.67032513255253,200.86595902472254 173.36392680169956,200.8478992962955 173.65263409544423,200.92916799451632 174.84971311831032,200.99237684031687 175.39191949924862,201.20457705873923 175.6102103798912,201.22263658727752 176.9340389463614,201.09170477609223 177.24035034338885,201.14136862916712 177.60299487090379,201.30390434044602 178.03253499086713,201.31744894605436 178.96203164391045,201.52513218573222 179.55000869338983,201.45289468895135 179.8140702425444,201.55673603966352 180.1274232808646,201.52964702392273 180.68723376510025,201.6560622359284 181.22944014603854,201.99015719482122 181.56391810830974,202.10302633065658 181.9723333043512,202.08948205522393 182.37722767972446,201.96758332022364 183.61655655046343,202.13011486442338 184.03553420846583,202.08496729549006 184.60238633399422,202.333278141974 184.89461444840708,202.33779286692152 185.45090411197452,202.48226373149373 185.9332565417717,202.77120351771373 186.0388811614248,202.77571818131764 186.0564852647076,202.6673660802553 186.07056854732218,202.71251283329912 186.22196383551636,202.17526237012135 186.16210988437524,202.04884919479082 186.23956793879915,201.61091400284567 186.19379727027263,201.28132998511137 186.25013040074555,200.79823499092163 186.13746413978515,200.53636738775094 186.17267234633619,200.3512527981802 186.10225593323412,200.15259205567054 186.18323480831168,199.99456559041937 186.19027644960443,199.5566024793843 186.35575502042775,199.30375508638463 186.4367338955053,198.987693054969 186.39096322699334,198.82514566017562 186.5529209771339,198.4413499464572 186.3804007650033,198.2471927264378 186.28181778665748,197.56086015240362 186.577566721724,197.1183485041256 186.6515039554797,196.82484252782888 186.83106580891763,196.52230279988362 186.80642006432754,196.04365205423164 186.72544118924998,195.94430855550672 186.6550247761479,195.6372448954353 186.87331565677596,195.2353483300176 187.0211901243165,194.53540413972223 187.6549378422933,193.49674924935243 187.56691732590843,193.12192208727356 187.6514170216542,192.98644131701803 187.57747978786938,192.43999642626295 187.75,192.05160847142906 187.65845866294694,191.87999369726458 187.68662522819068,191.54579388145066 187.58804224984488,191.3515950983019 187.59156307051308,190.913514473752 187.5035425540991,190.48446066395263 187.60212553245947,190.08249980402252 187.5070633747673,189.7302153749406 187.3380639833049,189.5450386812554 187.31693905936845,188.88110373476593 187.16554377118882,188.66882232676653 187.2077936190617,188.48815619651214 187.13737720594509,188.24425531299494 187.14089802659873,187.8558167591109 186.9930235590582,187.76096477261672 186.92612796660978,187.42220539738992 186.94725289054622,187.30928481374576 187.07752325480396,187.25056595376736 187.22539772232994,187.04730753480908 187.35566808657313,186.66788838686261 187.28173085281742,186.1439212616424 187.32398070067575,185.5250870381824 187.20075197773986,185.29471505601396 187.48241763017722,184.58100315839692 187.46481352689443,184.17896860510155 187.71127097279532,183.09932288516939 187.6338129183714,182.85538118132172 187.59156307051308,181.5136687710583 187.62677127704956,181.07545428801313 187.75,180.750177825048 187.6549378422933,180.59205613507947 187.70775015212712,180.60109168114286 186.94021124925348,180.51525389116796 186.52827523254382,180.55591392548013 186.28885942796478,180.65982266873834 185.8170694601431,180.7050002786018 185.588216117525,180.8314972488988 185.19036338345904,180.85408594130422 184.78898982873943,180.99865319730452 184.52140745891666,180.9715468862596 184.27142919237667,181.13870210749883 183.9756802573247,181.19291442530084 183.31376597408962,181.03931262110564 182.5074980439822,181.22453823519027 181.90191689123458,181.2064674904941 181.67658436928468,181.11159591436808 181.1343779883464,181.03931262110564 180.2576936451369,181.10707821328833 179.96194471007038,181.05286575094942 179.76477875336423,180.82697950852526 179.35636355732277,180.88119235124395 178.88809441015474,180.8043907971005 178.7226158393314,180.88119235124395 178.3071590019972,180.90829873836992 178.15576371381758,180.994135480385 177.78255672432715,180.98510004462878 177.585390767621,181.07093658187296 177.1347257237212,181.0076886292627 176.32141615230648,181.05738345962163 175.96581326609885,180.98510004462878 175.5433147874428,181.08900740264653 175.1912327218888,180.8857100840287 174.95181691732432,180.89926327854118 174.25821524819185,180.6824114815863 173.716008867239,180.92185192338366 173.13507345909602,181.05738345962163 172.09643136571685,181.14321980414388 171.92391115361534,181.0935251062656 171.33241328349686,181.23357360375667 170.80429018517316,181.13870210749883 170.68106146223727,181.19291442530084 170.35362514125882,181.12514901378745 170.1846257497964,180.994135480385 169.86071024948615,180.98510004462878 169.44173259148374,181.03027719802776 169.16710858035367,181.13418441022077 168.8960053898918,181.098042809248 168.04748761192604,181.21098517761493 167.75173867685953,181.35555083098734 167.27642788836965,181.37813915568404 166.92082500216202,181.57691572965996 165.68149613145215,181.5633628204123 165.50193427801423,181.4639746449975 165.02310266885615,181.59046863318508 164.79072850561352,181.4368687257229 161.76282274187542,183.8988966238976 161.0621794314502,184.30545192712088 160.55870207770204,184.69393330964886 160.51997305049736,184.8204146088283 160.23478657740634,185.0056184719797 159.89326697382785,185.50250162261364 159.52710162565927,185.8322471173451 159.09756150569592,186.04454722438095 158.96024950013089,186.2432949922586 158.7313961575128,186.3110496327463 158.46029296703637,186.51882964135075 157.99554464052198,187.02472318684886 157.88639920020069,187.05182440250792 157.53783795530035,187.60287750763746 157.20688081369735,187.8241994613236 156.54496653046226,188.0184195145921 156.19288446490827,188.25328871199235 155.74574024167669,188.69140552178214 155.11199252368533,188.98950221193445 154.9746805181203,189.16113238799153 154.22122489786125,189.70311641309308 153.19666608711123,190.22250921223167 152.97485438581498,190.39413281780799 152.74600104319688,190.6831810337826 152.54531426585163,191.16191143557808 152.29181517864345,191.42385524741258 152.12281578718103,191.7670887419299 151.6615882813203,192.04257613769005 151.4151308354194,192.3903191583522 151.16163174822577,192.49870582594303 151.0947361557919,192.62967256271077 150.73561244891607,192.9322488493708 150.52436320959532,192.95482905530298 150.3553638181329,193.12192208727356 149.95751108405238,193.24385429332688 149.2040554637788,193.89415159754572 148.76043206120085,194.14704144841016 148.47172476745618,194.11091444839985 147.86262279404036,194.2915490432788 147.73235242978262,194.3999293140405 147.81685212552838,194.39089763873199 147.73939407110447,194.3863818001264 147.74995653307997,194.4676667981039 147.63376945143682,194.58959391047028 147.5422281143983,195.1314866045941 147.5774363209639,195.4746805964096 147.3697079022677,195.65982320543117 147.25,196.2242758125467 147.25352082065365,196.6035824088649 147.3415413370385,197.07770937457826 147.4894158045645,197.3441205126437 147.41899939146242,197.67826018183405 147.5774363209639,198.23364683022737 147.53166565242282,198.64453648200288 147.70418586455344,199.01929939762704 147.6760192993097,199.14572445819795 147.79572720159194,199.44823955389802 147.73235242978262,199.5882082640128 147.8696644353622,199.94941502943402 147.85910197338671,200.34673779491277 147.9928931582981,200.71245101046225 148.45412066415884,201.18651752007645 148.6442449795577,201.56125087340115 148.61959923498216,202.14365912276844 148.79916108840553,202.48677843558107 148.8484525775857,203.1504330558637 148.84493175693206,204.35129715502626 148.76747370250814,204.9833129200597 148.79564026773733,205.73720123132443 148.6372033382504,206.39627476994792 148.9787229418289,206.40981723560253 149.7004911762051,206.9921378765721 149.91526123619406,207.06887702148015 150.60182126400468,207.05533483271574 151.04192384594353,207.15013003461718 151.74960879770515,207.4931960543181 151.9784621403087,207.8091746844293 152.26364861341426,208.01681609778097 152.4784186733741,208.50883062912544 152.69318873336306,208.74806433920457 152.84106320088904,209.05500310293792 153.0311875162879,209.2265264333255 152.97837520646863,209.8358782533469 152.90443797269836,210.03447932083873 152.96077110317128,210.81984428438955 152.73543858123594,211.551028949576 152.54179344518343,212.6071553032598 152.2953359992971,213.5188263010059 152.34462748849182,213.690325885309 152.33406502651633,214.1687146415934 151.90100408588478,215.8565578984344 151.57356776492088,216.42968244160875 151.54540119967714,216.98474610883568" stroke="#ff3f00" stroke-linecap="round" stroke-linejoin="round" stroke-width="0.5"><title>2021-05-03 34.6km</title></polyline><polyline fill="none" points="44.36217557916825,258.8902794596579 44.115267375003896,258.7366360370579 43.80134122972959,258.7321171018084 43.68141438772727,258.65529510597116 43.18759797944222,258.57847292758015 42.52094582824793,258.8496092129644 42.351637345404015,258.7727874963057 42.12941996168229,258.79086321075374 41.76963943563169,258.9399874694682 41.64265807349875,258.88576054589066 40.923097021412104,259.0122898927766 40.29524473087804,258.91287401904265 39.960155025240965,259.039403259816 39.87550078383356,259.02132768430965 39.52277477791358,259.2337150582971 39.36052081518574,259.12978098577514 39.18415781222575,259.1749697540072 38.9231405678438,258.953544186159 38.64801428321516,259.0258465791412 38.4645967601391,258.8993172853043 38.12950705451658,258.91287401904265 37.98841665213695,258.845090293511 37.42405504267663,258.94902528123566 37.20183765894035,258.90835510843317 36.90202055389818,258.98065760247846 36.718603030836675,258.92191183838804 36.221259362471756,259.0032520987006 35.92849677756021,258.9716197995549 35.395880508600385,259.12978098577514 35.117226963935536,259.3466864973052 34.75391917783418,259.45061987257213 34.43999303257442,259.37379958393285 33.75923184113344,259.5590717340201 33.14548859083152,259.96124421114655 32.574072461240576,259.8076058778024 32.429454798810184,259.879906360904 32.07672879289021,259.879906360904 31.170222957676742,260.0787318558032 30.736369970385567,260.22333144780714 30.56000696742558,260.1826628779236 30.11557219995302,260.2414063513388 29.720519073336618,260.178144144782 29.350156767119188,260.30014971803394 28.725831736635882,260.28659356595745 28.06976136560843,260.45830440557256 27.55830865702592,260.45830440557256 27.42780003482767,260.4040800284238 27.09623758927046,260.5531968467694 26.627112001384376,260.6119396470058 26.309658596059307,260.43571092614366 25.89344190908014,260.4266735299534 25.061008535078145,260.5983836256564 24.56719212680764,260.58934627493363 24.556610346626258,260.5125286917937 24.373192823535646,260.4221548309106 24.05221215815982,260.4085987299841 23.847631074720994,260.4989726287604 23.657159031528863,260.4899352502471 23.156288103113184,260.72490627058505 22.658944434762816,260.666163675578 22.306218428828288,260.79720470252505 22.07694652499049,260.78364875886473 21.911165302211884,260.8649843356725 21.738329559317208,260.8423911404134 21.0152412471798,261.0095804115117 20.493206758401357,260.8920961491458 20.055826511059422,260.9824686965403 19.710155025255517,260.883058880514 19.329210938856704,260.97795007516834 19.198702316673007,261.10447123486665 18.592013586487155,261.0276548755173 17.83012541368953,261.1225456458269 17.600853509822628,261.0773595994615 17.473872147704242,260.98698731727563 17.09645532137074,261.00054317570175 16.334567148573115,260.8875775151355 16.017113743248046,260.9146893096695 15.703187597973738,260.8695029728333 15.445697613657103,260.71586895520886 14.976572025785572,260.5577155275023 13.932503048243234,260.4989726287604 13.72439470475365,260.43119222835594 12.966033792006783,260.4492670157051 12.80377982929349,260.36793039313125 12.613307786086807,260.36793039313125 12.482799163888558,260.2549625223546 12.30290890087781,260.2685186876952 12.295854380761739,260.16910667658885 12.25,260.21429399225235 13.114178714502486,259.8347185779021 13.290541717462474,259.66300442656575 13.756140045297798,259.52743997867583 14.951881205372047,258.7637496352836 15.265807350631803,258.6507761593566 15.622060616617091,258.40675210409245 16.154676885547815,258.1582071914854 16.355730708921328,257.9684079715298 17.110564361602883,257.65659254831917 17.2798728444468,257.4667903834634 18.9835394530528,256.63526300261583 20.002917610152508,255.81727226460134 20.338007315789582,255.65909487177123 20.46851593798783,255.65909487177123 21.11047726875404,255.18003861748366 21.48083957498602,255.04897482047818 21.681893398359534,255.06253316894436 22.020510364032816,254.96310514810102 22.5072722522018,254.58346807350608 23.124542762583587,254.24902219461 23.216251524121617,254.10891546012135 23.41730534749513,254.0275628840027 23.5054868489824,253.8784159626448 24.01693955756491,253.67955233028988 24.15097543981392,253.5439627885753 24.33086570283922,253.53944312738167 24.493119665567065,253.35413647459063 24.79293677059468,253.25470319856322 25.41020728094736,252.58578048165873 25.95340533008857,252.33267097858334 26.306131335993996,252.32363131681268 26.951619926825515,252.0614800256917 27.180891830692417,252.0343608052426 27.360782093717717,251.91232403166578 27.452490855241194,251.75864743909915 27.80168960111041,251.57333057618598 28.228488068270963,251.00833358214368 28.669395575663657,250.64221025594088 29.067975962374476,250.23088157164602 29.13146664343367,250.08623727363374 29.297247866226826,249.9732334653636 29.431283748461283,249.63421966967144 30.14731754049717,249.281641549489 30.623497648484772,248.79797043432336 30.679933809442446,248.65784006714603 30.912732973331003,248.48154616145985 31.134950357067282,248.11087378681987 31.791020728094736,247.86677014492307 32.04498345236061,247.5322547518299 32.288364396445104,247.4056804568063 32.574072461240576,246.5738941831405 33.16665215117973,246.28457219924167 33.24072461243486,246.1670344032682 33.452360215989756,246.04045476021565 33.84035882249009,245.52056888256993 34.14723044766288,245.23575828993125 34.43999303257442,244.7520266095853 34.507010973698925,244.25924576870239 34.73628287753672,243.8207097089944 34.80330081866123,243.41833633524584 34.90911862044595,243.33695684138365 35.09253614352201,242.9797888608664 35.09253614352201,242.79442164362626 34.969082041454385,242.5728838180803 35.014936422216124,242.35586569962834 35.18777216512535,242.03033578841132 35.59693433198845,241.6821960033849 35.76271555478161,241.42900107589958 35.99904197873548,241.33405246646362 36.4963856471004,240.84574092382536 36.79620275212801,240.6829687692516 36.89496603379666,240.38455102224907 37.57572722520854,239.78318567168753 37.692126807174645,239.76057773338107 38.055434593276004,239.23606912264222 38.19299773557577,239.1501574177346 38.4645967601391,238.707030258156 39.032485629679286,238.7115519945619 39.74851942170062,238.3362457183066 39.97426406548766,238.1734609172272 40.002482145951944,238.03780628960521 40.18942692910787,237.91571663759532 40.274081170515274,237.78006092743453 40.93015154154273,237.28265178206493 41.05007838354504,237.02942236537638 41.56153109212755,236.83949899988875 42.09062010102207,236.37825189095747 42.75374499216559,235.98935215113306 43.046507577077136,235.9215203215099 43.455669743940234,235.69993535188405 44.43977530045959,235.510004167827 45.04293677059468,235.4828710503607 45.494426058168756,235.3155496554973 45.938860825641314,235.25676085149826 46.53496777564578,234.89950351052175 47.145183765896945,234.31160308045582 47.427364570627105,234.17140985899823 47.53318237239728,234.02217124479648 48.23510712418647,233.89102159021422 48.305652325376286,233.90006641108266 48.28801602507883,233.9452904774007 48.35150670615258,233.88649917882503 48.63368751088274,233.8774543541731 49.58604772687249,234.55580917400584 49.82237415085547,234.601032322018 50.27739069846575,234.54224221726327 51.0286970911111,234.7412236783639 51.476659118619864,234.99899329367327 51.64949486151454,235.28841637463847 52.00222086744907,235.5823590363325 52.16800209021312,236.01196272934249 52.35847413340525,236.2290234747452 52.5207280961331,236.58626610854117 52.690036578977015,236.67670665480182 52.72178191952116,236.78975698150316 52.63712767811376,237.16960318066776 52.66181849851273,237.4770944508782 52.75,237.68057971120652 52.41491029437748,239.0325936617519 52.20327469082258,240.2127334930592 51.98458456713706,240.95425523788435 52.037493468029425,241.63246144211007 51.86818498518551,242.30161094222785 51.56836788015789,242.87580250412066 51.53309527957754,243.48615242352753 51.40611391743005,243.6805577543346" stroke="#ff9d00" stroke-linecap="round" stroke-linejoin="round" stroke-width="0.5"><title>2021-05-02 22.6km</title></polyline></svg>