<?xml version="1.0" encoding="utf-8" ?>
<svg baseProfile="full" height="200mm" version="1.1" viewBox="0,0,200,200" width="200mm" xmlns="http://www.w3.org/2000/svg" xmlns:ev="http://www.w3.org/2001/xml-events" xmlns:xlink="http://www.w3.org/1999/xlink"><defs /><rect fill="#1a1a1a" height="200" width="200" x="0" y="0" /><text alignment-baseline="middle" fill="#e1ed5e" style="dominant-baseline: central; font-size:9.0px; font-family:Arial;" text-anchor="middle" x="100.0" y="100.0">2023</text><line stroke="#e1ed5e" stroke-width="0.3" x1="100.0" x2="100.0" y1="15.0" y2="10.0" /><path d="M 100.0 14.0 a86.0,86.0 0 0,1 42.46469731375804,11.215312516191453" fill="none" id="id25" stroke="none" /><text fill="#e1ed5e" style="font-size:6.75px; font-family:Arial;" text-anchor="middle"><textPath startOffset="22.20632615414155" xlink:href="#id25">January</textPath></text><path d="M 105.36241919743992 79.69619591428918 l 12.747495009214864 -48.26602168182593 a70.9210123895785,70.9210123895785 0 0,0 1.1776336532684464,0.32189176280723875 l -13.576426551707021 48.0394433781924" fill="#38ff80" stroke="none" /><path d="M 106.0581310904928 79.89281104454417 l 16.799223829849783 -55.75732231708926 a79.23309122189181,79.23309122189181 0 0,0 1.302496288340145,0.40469193701433614 l -17.756505490900647 55.459890245192405" fill="#45fff2" stroke="none" /><path d="M 106.40334571778207 80.00007090966166 l 9.029904553269288 -28.20360772594092 a50.61389310779499,50.61389310779499 0 0,0 0.827458044623435,0.2727999076958299 l -9.51404542013514 28.04399409398585" fill="#fffa17" stroke="none" /><path d="M 106.74666289553966 80.11325718540242 l 4.912497860829565 -14.480282036940876 a36.29088627588367,36.29088627588367 0 0,0 0.5898444083072505,0.20578513215984154 l -5.1610242732000895 14.393576051608827" fill="#ff0000" stroke="none" /><path d="M 109.41281617654863 81.2277094730956 l 17.86800271779484 -35.63474860899186 a60.8635275602796,60.8635275602796 0 0,0 0.9324857943272712,0.47765544179917646 l -18.47874899971087 35.321900641880184" fill="#6eff28" stroke="none" /><path d="M 109.73455568895987 81.39251694778311 l 29.203667066879603 -55.82244915665069 a84.0,84.0 0 0,0 1.2754198138867554,0.6812850939929835 l -30.16023192729467 55.311485336155954" fill="#4dd2ff" stroke="none" /><path d="M 110.05341064243156 81.56283822128135 l 14.327655206358184 -26.275789017749236 a50.92822734840061,50.92822734840061 0 0,0 0.7660476288391684,0.4263046760668273 l -14.777826924269387 26.02526894412223" fill="#ffff18" stroke="none" /><line stroke="#e1ed5e" stroke-width="0.3" x1="143.23703022742887" x2="145.7803849466894" y1="26.81831364943548" y2="22.513508569990506" /><path d="M 143.74570117128098 25.957352633546492 a86.0,86.0 0 0,1 28.547481713284135,27.462654790039103" fill="none" id="id26" stroke="none" /><text fill="#e1ed5e" style="font-size:6.75px; font-family:Arial;" text-anchor="middle"><textPath startOffset="19.985693538727396" xlink:href="#id26">February</textPath></text><path d="M 110.68208982089419 81.91981866633111 l 15.23605018433532 -25.78807656183912 a50.95266462234805,50.95266462234805 0 0,0 0.7512798949699776,0.45263773059129186 l -15.677692145522936 25.521992221789212" fill="#ffff18" stroke="none" /><path d="M 110.99172775467656 82.1063720568725 l 14.636708240916311 -23.827356119117365 a48.9638360701272,48.9638360701272 0 0,0 0.7143610284891011,0.44733281050426843 l -15.044688421777675 23.57187896729015" fill="#ffdf14" stroke="none" /><path d="M 111.2981086023043 82.29822771554956 l 16.34445775929116 -25.60834556934442 a51.37974098382366,51.37974098382366 0 0,0 0.7414169392743524,0.48223820115792543 l -16.78284172434979 25.323208444026964" fill="#f8ff18" stroke="none" /><path d="M 112.19680574252982 82.90503203632743 l 16.9672381258958 -23.78117667175623 a50.21355051194796,50.21355051194796 0 0,0 0.6992946680821329,0.5080673159690595 l -17.37407811033172 23.485590120970496" fill="#fff316" stroke="none" /><path d="M 112.77801427241765 83.33499621200491 l 26.71925212850468 -34.84707627030053 a64.91169729007004,64.91169729007004 0 0,0 0.880843834143609,0.6875125842624694 l -27.315128517807718 34.38198529681484" fill="#38ff2e" stroke="none" /><path d="M 113.34407831869373 83.78471172551755 l 28.460844850061093 -34.584689384844445 a65.78973575971867,65.78973575971867 0 0,0 0.8682442576789174,0.7271295964379598 l -29.051946644699125 34.08965863101267" fill="#30ff32" stroke="none" /><path d="M 114.42810811169701 84.74124197986012 l 30.08308682427374 -31.81501959902218 a64.78570069055601,64.78570069055601 0 0,0 0.8037028859143033,0.7731615394765977 l -30.62627295380046 31.29247497278328" fill="#3aff2e" stroke="none" /><path d="M 114.68862486808459 84.99185889309783 l 30.69884166498973 -31.36662224437989 a64.88945056153855,64.88945056153855 0 0,0 0.7915406752704098,0.7881415480600005 l -31.234218140427462 30.83354484566977" fill="#39ff2e" stroke="none" /><line stroke="#e1ed5e" stroke-width="0.3" x1="172.23445277983987" x2="176.4835382374775" y1="55.19839476539836" y2="52.563006222186495" /><path d="M 173.08426987136738 54.67131705675599 a86.0,86.0 0 0,1 12.851231095245387,41.99856678651699" fill="none" id="id27" stroke="none" /><text fill="#e1ed5e" style="font-size:6.75px; font-family:Arial;" text-anchor="middle"><textPath startOffset="22.20632615414155" xlink:href="#id27">March</textPath></text><line stroke="#e1ed5e" stroke-width="0.3" x1="184.98032266829074" x2="189.97916517819016" y1="98.17113171792111" y2="98.06355123074" /><path d="M 185.9800911702706 98.14961562048488 a86.0,86.0 0 0,1 -9.607161424134198,41.387399972396054" fill="none" id="id28" stroke="none" /><text fill="#e1ed5e" style="font-size:6.75px; font-family:Arial;" text-anchor="middle"><textPath startOffset="21.466115282336823" xlink:href="#id28">April</textPath></text><line stroke="#e1ed5e" stroke-width="0.3" x1="174.80103733775053" x2="179.2010983576182" y1="140.37084112569926" y2="142.7455964860345" /><path d="M 175.68104954172406 140.8457921977663 a86.0,86.0 0 0,1 -30.038265399797805,32.042727171017184" fill="none" id="id29" stroke="none" /><text fill="#e1ed5e" style="font-size:6.75px; font-family:Arial;" text-anchor="middle"><textPath startOffset="22.206326154141568" xlink:href="#id29">May</textPath></text><line stroke="#e1ed5e" stroke-width="0.3" x1="143.8653032363475" x2="146.44561519142675" y1="172.8068346515853" y2="177.08958963109032" /><path d="M 144.38136562736335 173.6633856474863 a86.0,86.0 0 0,1 -40.68145358897372,12.25698825130547" fill="none" id="id30" stroke="none" /><text fill="#e1ed5e" style="font-size:6.75px; font-family:Arial;" text-anchor="middle"><textPath startOffset="21.466115282336833" xlink:href="#id30">June</textPath></text><line stroke="#e1ed5e" stroke-width="0.3" x1="102.19456741930631" x2="102.32365962044197" y1="184.97166512339345" y2="189.96999836594603" /><path d="M 102.22038585953345 185.97133177190398 a86.0,86.0 0 0,1 -42.740103519485714,-10.115201625700543" fill="none" id="id31" stroke="none" /><text fill="#e1ed5e" style="font-size:6.75px; font-family:Arial;" text-anchor="middle"><textPath startOffset="22.20632615414155" xlink:href="#id31">July</textPath></text><line stroke="#e1ed5e" stroke-width="0.3" x1="58.666819895761336" x2="56.23545636021788" y1="174.27360380694188" y2="178.64263932499728" /><path d="M 58.180547188652646 175.14741091055294 a86.0,86.0 0 0,1 -31.652253787137756,-30.449443065178592" fill="none" id="id32" stroke="none" /><text fill="#e1ed5e" style="font-size:6.75px; font-family:Arial;" text-anchor="middle"><textPath startOffset="22.20632615414155" xlink:href="#id32">August</textPath></text><line stroke="#e1ed5e" stroke-width="0.3" x1="26.63291911575756" x2="22.317208475507996" y1="142.92168965132927" y2="145.44649492493687" /><path d="M 25.769776987707644 143.4266507060508 a86.0,86.0 0 0,1 -11.730757126820373,-40.83630448921669" fill="none" id="id33" stroke="none" /><text fill="#e1ed5e" style="font-size:6.75px; font-family:Arial;" text-anchor="middle"><textPath startOffset="21.46611528233685" xlink:href="#id33">September</textPath></text><line stroke="#e1ed5e" stroke-width="0.3" x1="15.007084014347285" x2="10.007500721073583" y1="101.09737516637583" y2="101.16192664675087" /><path d="M 14.007167355692545 101.11028546245083 a86.0,86.0 0 0,1 10.666146001902534,-42.60595125391555" fill="none" id="id34" stroke="none" /><text fill="#e1ed5e" style="font-size:6.75px; font-family:Arial;" text-anchor="middle"><textPath startOffset="22.20632615414155" xlink:href="#id34">October</textPath></text><line stroke="#e1ed5e" stroke-width="0.3" x1="26.266209847984243" x2="21.928928074336255" y1="57.711370442889674" y2="55.22380399835377" /><path d="M 25.398753493254645 57.213857153982495 a86.0,86.0 0 0,1 29.58750427330803,-30.492523968695096" fill="none" id="id35" stroke="none" /><text fill="#e1ed5e" style="font-size:6.75px; font-family:Arial;" text-anchor="middle"><textPath startOffset="21.46611528233685" xlink:href="#id35">November</textPath></text><line stroke="#e1ed5e" stroke-width="0.3" x1="56.762969772571076" x2="54.21961505331055" y1="26.818313649435495" y2="22.513508569990535" /><path d="M 56.25429882871897 25.957352633546506 a86.0,86.0 0 0,1 42.265352541879196,-11.944610805530505" fill="none" id="id36" stroke="none" /><text fill="#e1ed5e" style="font-size:6.75px; font-family:Arial;" text-anchor="middle"><textPath startOffset="22.20632615414155" xlink:href="#id36">December</textPath></text></svg>