<?xml version="1.0" encoding="utf-8" ?>
<svg baseProfile="full" height="200mm" version="1.1" viewBox="0,0,200,200" width="200mm" xmlns="http://www.w3.org/2000/svg" xmlns:ev="http://www.w3.org/2001/xml-events" xmlns:xlink="http://www.w3.org/1999/xlink"><defs /><rect fill="#1a1a1a" height="200" width="200" x="0" y="0" /><text alignment-baseline="middle" fill="#e1ed5e" style="dominant-baseline: central; font-size:9.0px; font-family:Arial;" text-anchor="middle" x="100.0" y="100.0">2023</text><line stroke="#e1ed5e" stroke-width="0.3" x1="100.0" x2="100.0" y1="15.0" y2="10.0" /><path d="M 100.0 14.0 a86.0,86.0 0 0,1 42.46469731375804,11.215312516191453" fill="none" id="id25" stroke="none" /><text fill="#e1ed5e" style="font-size:6.75px; font-family:Arial;" text-anchor="middle"><textPath startOffset="22.20632615414155" xlink:href="#id25">January</textPath></text><path d="M 105.36241919743992 79.69619591428918 l 1.354337891287022 -5.127948822739249 a26.30378075078605,26.30378075078605 0 0,0 0.43677066043789614,0.11938592060496046 l -1.442406440948629 5.103876361307996" fill="#ff3505" stroke="none" /><path d="M 106.0581310904928 79.89281104454417 l 1.7848075532118808 -5.923850472281024 a27.186884710413334,27.186884710413334 0 0,0 0.44691953678390534,0.13886007557159039 l -1.8865124627065042 5.892250261826913" fill="#ff4206" stroke="none" /><path d="M 106.40334571778207 80.00007090966166 l 0.9593682431220687 -2.996448681613549 a24.14628227078479,24.14628227078479 0 0,0 0.3947539753592279,0.1301441792007316 l -1.0108050407237141 2.9794907781535813" fill="#ff1602" stroke="none" /><path d="M 106.74666289553966 80.11325718540242 l 0.5219207372882663 -1.5384351690253941 a22.6245565626674,22.6245565626674 0 0,0 0.367722300234607,0.12829109013521756 l -0.5483250415861469 1.5292232257179692" fill="#ff0000" stroke="none" /><path d="M 109.41281617654863 81.2277094730956 l 1.8983583131302204 -3.7859587513278536 a25.23523883054859,25.23523883054859 0 0,0 0.38662730652009547,0.19804552308564952 l -1.9632461072390714 3.752720702929704" fill="#ff2603" stroke="none" /><path d="M 109.73455568895987 81.39251694778311 l 3.1026984395455752 -5.9307697726215265 a27.69333756078384,27.69333756078384 0 0,0 0.42048370759140496,0.22460783432235762 l -3.2043271936652915 5.876483211797415" fill="#ff4906" stroke="none" /><path d="M 110.05341064243156 81.56283822128135 l 1.5222195674710688 -2.7916305646306734 a24.179678226011553,24.179678226011553 0 0,0 0.36370370883745134,0.2024007201943912 l -1.5700473653805551 2.765014446876102" fill="#ff1702" stroke="none" /><line stroke="#e1ed5e" stroke-width="0.3" x1="143.23703022742887" x2="145.7803849466894" y1="26.81831364943548" y2="22.513508569990506" /><path d="M 143.74570117128098 25.957352633546492 a86.0,86.0 0 0,1 28.547481713284135,27.462654790039103" fill="none" id="id26" stroke="none" /><text fill="#e1ed5e" style="font-size:6.75px; font-family:Arial;" text-anchor="middle"><textPath startOffset="19.985693538727396" xlink:href="#id26">February</textPath></text><path d="M 110.68208982089419 81.91981866633111 l 1.61873058693332 -2.739814309075035 a24.182274526386088,24.182274526386088 0 0,0 0.35655950088133553,0.21482310970951904 l -1.665652154032293 2.711544589906901" fill="#ff1702" stroke="none" /><path d="M 110.99172775467656 82.1063720568725 l 1.5550544291295159 -2.5315005981946173 a23.970974512885466,23.970974512885466 0 0,0 0.3497260709390821,0.2189984335381218 l -1.5983996524408612 2.5043578233335513" fill="#ff1402" stroke="none" /><path d="M 111.2981086023043 82.29822771554956 l 1.7364916354112432 -2.720719067759132 a24.227648593871603,24.227648593871603 0 0,0 0.3496084005549626,0.2273950287112853 l -1.783067061750486 2.6904251148883187" fill="#ff1802" stroke="none" /><path d="M 112.19680574252982 82.90503203632743 l 1.8026579722352691 -2.526594334233371 a24.10374849088059,24.10374849088059 0 0,0 0.33567876855182505,0.24388490110136793 l -1.8458820571408827 2.4951901983153286" fill="#ff1602" stroke="none" /><path d="M 112.77801427241765 83.33499621200491 l 2.8387456169487923 -3.702273721960345 a25.66533036237136,25.66533036237136 0 0,0 0.34827541020733616,0.2718344819198444 l -2.902053582315559 3.652860850817277" fill="#ff2c04" stroke="none" /><path d="M 113.34407831869373 83.78471172551755 l 3.0237784420088127 -3.6743968331368486 a25.75861620155727,25.75861620155727 0 0,0 0.3399431589821127,0.28469261940563123 l -3.086579137950043 3.6218030563373977" fill="#ff2e04" stroke="none" /><path d="M 114.42810811169701 84.74124197986012 l 3.1961310315116327 -3.3801375504636377 a25.651944048529167,25.651944048529167 0 0,0 0.3182267265980262,0.30613385885659616 l -3.253841001722077 3.32462060484474" fill="#ff2c04" stroke="none" /><path d="M 114.68862486808459 84.99185889309783 l 3.261550952203678 -3.332498267035331 a25.66296679310653,25.66296679310653 0 0,0 0.31304444542327176,0.31170013308942707 l -3.318431197794272 3.2758622832957855" fill="#ff2c04" stroke="none" /><path d="M 114.94478906791727 85.2469230424477 l 6.668592474031894 -6.583047610832378 a30.370519805816574,30.370519805816574 0 0,0 0.3640640554779307,0.3752000113039623 l -6.780920793212934 6.467283403978302" fill="#ff6e0a" stroke="none" /><path d="M 115.4437574822437 85.77008943001954 l 3.0524385788298565 -2.8125233154591527 a25.15062268551722,25.15062268551722 0 0,0 0.29061707319558827,0.3209066308104566 l -3.1003992926414803 2.759563897379147" fill="#ff2503" stroke="none" /><path d="M 116.15771136456269 86.58626213691792 l 2.3037466018185326 -1.9125142368574708 a23.994154156280693,23.994154156280693 0 0,0 0.2610809717172019,0.32005440076370495 l -2.3363260656121434 1.872575666485665" fill="#ff1402" stroke="none" /><path d="M 116.38621287248628 86.86637796730983 l 3.6615427558164244 -2.9347427001984916 a25.692505734577217,25.692505734577217 0 0,0 0.27362019365973206,0.347469859382148 l -3.7115170300701203 2.871280446863305" fill="#ff2d04" stroke="none" /><path d="M 116.60985879189232 87.15038557335679 l 3.714629953252205 -2.8736886469046605 a25.696441432504745,25.696441432504745 0 0,0 0.2676395234243207,0.35218224047410707 l -3.763545416900639 2.80932163054952" fill="#ff2d04" stroke="none" /><path d="M 116.82858285166822 87.43820079747576 l 3.7414734043480693 -2.792845840988102 a25.668898277642004,25.668898277642004 0 0,0 0.2612572979769846,0.3563546608337502 l -3.7889933148386805 2.728028736482858" fill="#ff2c04" stroke="none" /><line stroke="#e1ed5e" stroke-width="0.3" x1="172.23445277983987" x2="176.4835382374775" y1="55.19839476539836" y2="52.563006222186495" /><path d="M 173.08426987136738 54.67131705675599 a86.0,86.0 0 0,1 12.851231095245387,41.99856678651699" fill="none" id="id27" stroke="none" /><text fill="#e1ed5e" style="font-size:6.75px; font-family:Arial;" text-anchor="middle"><textPath startOffset="22.20632615414155" xlink:href="#id27">March</textPath></text><path d="M 118.21658344932153 89.55222093294921 l 3.9516497993281976 -2.266394473398045 a25.5554450985145,25.5554450985145 0 0,0 0.2155691344082186,0.3834734362618078 l -3.990076575028849 2.1980375272014427" fill="#ff2b04" stroke="none" /><path d="M 118.73160827565052 90.50648371742162 l 2.793229919529513 -1.4156592072507266 a24.131489162431926,24.131489162431926 0 0,0 0.18459438602228748,0.37213101811881366 l -2.8171843185052086 1.367368600632963" fill="#ff1602" stroke="none" /><path d="M 119.7369772167798 92.82701384747503 l 2.777634736456042 -1.0094724882406398 a23.955383128070196,23.955383128070196 0 0,0 0.13751179210045378,0.3887643538050549 l -2.7945996093663052 0.9615105080089704" fill="#ff1402" stroke="none" /><path d="M 120.37134235888165 94.90015583598534 l 30.4275935085585 -7.617366712801686 a52.366586080722435,52.366586080722435 0 0,0 0.21137946961731388,0.8763043674449925 l -30.554205778436632 7.092477113697287" fill="#82ff25" stroke="none" /><line stroke="#e1ed5e" stroke-width="0.3" x1="184.98032266829074" x2="189.97916517819016" y1="98.17113171792111" y2="98.06355123074" /><path d="M 185.9800911702706 98.14961562048488 a86.0,86.0 0 0,1 -9.607161424134198,41.387399972396054" fill="none" id="id28" stroke="none" /><text fill="#e1ed5e" style="font-size:6.75px; font-family:Arial;" text-anchor="middle"><textPath startOffset="21.466115282336823" xlink:href="#id28">April</textPath></text><path d="M 120.49622156327973 104.57218783832717 l 51.880647586482866 11.573258281147183 a74.15582659723177,74.15582659723177 0 0,0 -0.28864072852427536,1.2434567040528677 l -51.673746292028035 -12.464583642548616" fill="#41ffcc" stroke="none" /><line stroke="#e1ed5e" stroke-width="0.3" x1="174.80103733775053" x2="179.2010983576182" y1="140.37084112569926" y2="142.7455964860345" /><path d="M 175.68104954172406 140.8457921977663 a86.0,86.0 0 0,1 -30.038265399797805,32.042727171017184" fill="none" id="id29" stroke="none" /><text fill="#e1ed5e" style="font-size:6.75px; font-family:Arial;" text-anchor="middle"><textPath startOffset="22.206326154141568" xlink:href="#id29">May</textPath></text><line stroke="#e1ed5e" stroke-width="0.3" x1="143.8653032363475" x2="146.44561519142675" y1="172.8068346515853" y2="177.08958963109032" /><path d="M 144.38136562736335 173.6633856474863 a86.0,86.0 0 0,1 -40.68145358897372,12.25698825130547" fill="none" id="id30" stroke="none" /><text fill="#e1ed5e" style="font-size:6.75px; font-family:Arial;" text-anchor="middle"><textPath startOffset="21.466115282336833" xlink:href="#id30">June</textPath></text><path d="M 107.59598834532513 119.57807347666477 l 5.226580645702712 13.471108071967675 a35.449494729320705,35.449494729320705 0 0,0 -0.5707871346183339,0.21582285399901988 l -4.993923290324103 -13.559079176073325" fill="#ffb210" stroke="none" /><path d="M 105.53697534728816 120.25689768951611 l 6.8133289316483205 24.92640809047789 a46.840806323020914,46.840806323020914 0 0,0 -0.7795861655386406,0.20589579186715298 l -6.383252323298183 -25.039995231648625" fill="#bfff1e" stroke="none" /><line stroke="#e1ed5e" stroke-width="0.3" x1="102.19456741930631" x2="102.32365962044197" y1="184.97166512339345" y2="189.96999836594603" /><path d="M 102.22038585953345 185.97133177190398 a86.0,86.0 0 0,1 -42.740103519485714,-10.115201625700543" fill="none" id="id31" stroke="none" /><text fill="#e1ed5e" style="font-size:6.75px; font-family:Arial;" text-anchor="middle"><textPath startOffset="22.20632615414155" xlink:href="#id31">July</textPath></text><path d="M 90.7491055286396 118.85261126421891 l -13.660439428684887 27.838924662334087 a52.00989086952551,52.00989086952551 0 0,0 -0.8003234760158687,-0.40129880531718065 l 14.137616812383516 -27.599658016107604" fill="#85ff25" stroke="none" /><path d="M 90.42595943632237 118.69057910512821 l -15.452520876640198 30.16663256203576 a54.89404256762355,54.89404256762355 0 0,0 -0.837288630071792,-0.4380298385490538 l 15.969500409238487 -29.89617330454199" fill="#67ff28" stroke="none" /><line stroke="#e1ed5e" stroke-width="0.3" x1="58.666819895761336" x2="56.23545636021788" y1="174.27360380694188" y2="178.64263932499728" /><path d="M 58.180547188652646 175.14741091055294 a86.0,86.0 0 0,1 -31.652253787137756,-30.449443065178592" fill="none" id="id32" stroke="none" /><text fill="#e1ed5e" style="font-size:6.75px; font-family:Arial;" text-anchor="middle"><textPath startOffset="22.20632615414155" xlink:href="#id32">August</textPath></text><path d="M 88.24862548938628 117.40417183066458 l -5.281018225612244 7.821361539997996 a30.437311578972505,30.437311578972505 0 0,0 -0.43169255735166406,-0.2969220773293702 l 5.414867667586798 -7.729298673303525" fill="#ff6f0a" stroke="none" /><line stroke="#e1ed5e" stroke-width="0.3" x1="26.63291911575756" x2="22.317208475507996" y1="142.92168965132927" y2="145.44649492493687" /><path d="M 25.769776987707644 143.4266507060508 a86.0,86.0 0 0,1 -11.730757126820373,-40.83630448921669" fill="none" id="id33" stroke="none" /><text fill="#e1ed5e" style="font-size:6.75px; font-family:Arial;" text-anchor="middle"><textPath startOffset="21.46611528233685" xlink:href="#id33">September</textPath></text><path d="M 81.69416730710424 110.29060199501025 l -3.3663535147714363 1.892391609613078 a24.861797766655833,24.861797766655833 0 0,0 -0.20649923971192272,-0.37485610183592427 l 3.3984291639348756 -1.834164989379331" fill="#ff2103" stroke="none" /><path d="M 79.1416061653843 102.43462659150553 l -8.184793439610502 0.9553427704958711 a29.240359425306025,29.240359425306025 0 0,0 -0.054049688389162145,-0.5004329869936174 l 8.200025429500716 -0.8143134616174716" fill="#ff5f08" stroke="none" /><line stroke="#e1ed5e" stroke-width="0.3" x1="15.007084014347285" x2="10.007500721073583" y1="101.09737516637583" y2="101.16192664675087" /><path d="M 14.007167355692545 101.11028546245083 a86.0,86.0 0 0,1 10.666146001902534,-42.60595125391555" fill="none" id="id34" stroke="none" /><text fill="#e1ed5e" style="font-size:6.75px; font-family:Arial;" text-anchor="middle"><textPath startOffset="22.20632615414155" xlink:href="#id34">October</textPath></text><path d="M 79.12142395522702 97.74499172005258 l -14.724133887204406 -1.590292544831517 a35.80976532921666,35.80976532921666 0 0,0 0.071465458284371,-0.6122724033605957 l 14.694578075916446 1.8435086865169745" fill="#ffb711" stroke="none" /><line stroke="#e1ed5e" stroke-width="0.3" x1="26.266209847984243" x2="21.928928074336255" y1="57.711370442889674" y2="55.22380399835377" /><path d="M 25.398753493254645 57.213857153982495 a86.0,86.0 0 0,1 29.58750427330803,-30.492523968695096" fill="none" id="id35" stroke="none" /><text fill="#e1ed5e" style="font-size:6.75px; font-family:Arial;" text-anchor="middle"><textPath startOffset="21.46611528233685" xlink:href="#id35">November</textPath></text><path d="M 82.7489923806493 88.02491185347247 l -26.916373090244324 -18.684470348209658 a53.76584460267055,53.76584460267055 0 0,0 0.5342977740077671,-0.7557263101898862 l 26.590762696432677 19.14502315873133" fill="#73ff27" stroke="none" /><path d="M 84.07557802195018 86.31012108654704 l -47.77326593414944 -41.06963674035889 a84.0,84.0 0 0,0 0.9520325456886258,-1.0883377751882275 l 47.05924152488297 41.885890071750055" fill="#4dd2ff" stroke="none" /><path d="M 86.93701828274178 83.55741782278169 l -4.7053923146636265 -5.922751901864179 a28.56437088765029,28.56437088765029 0 0,0 0.38761503739677106,-0.3025396849360233 l 4.602744722107429 6.002869976023423" fill="#ff5507" stroke="none" /><path d="M 87.22198572758235 83.33499621200491 l -7.401458814942956 -9.652934842463324 a33.16391152804636,33.16391152804636 0 0,0 0.45600985762570756,-0.34345717068788745 l 7.234202803558858 9.778908602657065" fill="#ff940d" stroke="none" /><path d="M 88.70189139769569 82.29822771554957 l -7.5408876764520345 -11.814993214346245 a35.01638511185798,35.01638511185798 0 0,0 0.5108737976871925,-0.31990912524406917 l 7.3363947263926 11.943046680913245" fill="#ffad10" stroke="none" /><path d="M 89.00827224532344 82.1063720568725 l -12.685189840483366 -20.65044481264351 a45.23540617050058,45.23540617050058 0 0,0 0.6669808428780573,-0.4018484949344467 l 12.32784693138766 20.865739917036578" fill="#d2ff1c" stroke="none" /><line stroke="#e1ed5e" stroke-width="0.3" x1="56.762969772571076" x2="54.21961505331055" y1="26.818313649435495" y2="22.513508569990535" /><path d="M 56.25429882871897 25.957352633546506 a86.0,86.0 0 0,1 42.265352541879196,-11.944610805530505" fill="none" id="id36" stroke="none" /><text fill="#e1ed5e" style="font-size:6.75px; font-family:Arial;" text-anchor="middle"><textPath startOffset="22.20632615414155" xlink:href="#id36">December</textPath></text></svg>